<?xml version="1.0" encoding="UTF-8" standalone="no"?>
<!DOCTYPE svg PUBLIC "-//W3C//DTD SVG 1.1//EN"
 "http://www.w3.org/Graphics/SVG/1.1/DTD/svg11.dtd">
<!-- Generated by graphviz version 8.0.2 (20230410.1723)
 -->
<!-- Title: test2 Pages: 1 -->
<svg width="497pt" height="140pt"
 viewBox="0.00 0.00 497.00 140.00" xmlns="http://www.w3.org/2000/svg" xmlns:xlink="http://www.w3.org/1999/xlink">
<g id="graph0" class="graph" transform="scale(1 1) rotate(0) translate(4 136)">
<title>test2</title>
<!-- Node1 -->
<g id="node1" class="node">
<title>Node1</title>
<g id="a_node1"><a xlink:title="Test that creates a random set of points distributed near the locus of the Lamniscate of Gerono and t...">
<polygon fill="#999999" stroke="#666666" points="38,-75 0,-75 0,-56 38,-56 38,-75"/>
<text text-anchor="middle" x="19" y="-63" font-family="Helvetica,sans-Serif" font-size="10.00">test2</text>
</a>
</g>
</g>
<!-- Node2 -->
<g id="node2" class="node">
<title>Node2</title>
<g id="a_node2"><a xlink:href="../../d0/dcb/group__kohonen__1d.html#gaf5ce14f026d6d231bef29161bac2b485" target="_top" xlink:title="Helper function to generate a random number in a given interval.">
<polygon fill="white" stroke="#666666" points="307.5,-57 253.5,-57 253.5,-38 307.5,-38 307.5,-57"/>
<text text-anchor="middle" x="280.5" y="-45" font-family="Helvetica,sans-Serif" font-size="10.00">_random</text>
</a>
</g>
</g>
<!-- Node1&#45;&gt;Node2 -->
<g id="edge1" class="edge">
<title>Node1&#45;&gt;Node2</title>
<path fill="none" stroke="#63b8ff" d="M38.4,-66.37C68.35,-67.56 129.49,-69.07 181,-64.5 201.57,-62.67 224.29,-58.87 242.73,-55.33"/>
<polygon fill="#63b8ff" stroke="#63b8ff" points="243.19,-58.61 252.32,-53.23 241.83,-51.74 243.19,-58.61"/>
</g>
<!-- Node3 -->
<g id="node3" class="node">
<title>Node3</title>
<g id="a_node3"><a xlink:href="../../d0/dcb/group__kohonen__1d.html#gaeaeffbff2be4d5d15b0d4f10f846abde" target="_top" xlink:title="Apply incremental algorithm with updating neighborhood and learning rates on all samples in the given...">
<polygon fill="white" stroke="#666666" points="181,-132 74,-132 74,-113 181,-113 181,-132"/>
<text text-anchor="middle" x="127.5" y="-120" font-family="Helvetica,sans-Serif" font-size="10.00">kohonen_som_tracer</text>
</a>
</g>
</g>
<!-- Node1&#45;&gt;Node3 -->
<g id="edge2" class="edge">
<title>Node1&#45;&gt;Node3</title>
<path fill="none" stroke="#63b8ff" d="M34.85,-75.24C45.54,-82.09 60.42,-91.28 74,-98.5 80.16,-101.77 86.84,-105.04 93.32,-108.06"/>
<polygon fill="#63b8ff" stroke="#63b8ff" points="91.66,-111.61 102.21,-112.57 94.56,-105.24 91.66,-111.61"/>
</g>
<!-- Node6 -->
<g id="node6" class="node">
<title>Node6</title>
<g id="a_node6"><a xlink:href="../../d0/dcb/group__kohonen__1d.html#ga7b84b14e60f47812b581d1f93057c85a" target="_top" xlink:title="Save a given n&#45;dimensional data martix to file.">
<polygon fill="white" stroke="#666666" points="166,-56 89,-56 89,-37 166,-37 166,-56"/>
<text text-anchor="middle" x="127.5" y="-44" font-family="Helvetica,sans-Serif" font-size="10.00">save_nd_data</text>
</a>
</g>
</g>
<!-- Node1&#45;&gt;Node6 -->
<g id="edge5" class="edge">
<title>Node1&#45;&gt;Node6</title>
<path fill="none" stroke="#63b8ff" d="M38.07,-62.28C49.13,-60.3 63.87,-57.67 78.13,-55.13"/>
<polygon fill="#63b8ff" stroke="#63b8ff" points="78.65,-58.41 87.88,-53.21 77.42,-51.52 78.65,-58.41"/>
</g>
<!-- Node7 -->
<g id="node7" class="node">
<title>Node7</title>
<g id="a_node7"><a xlink:href="../../d0/d46/kohonen__som__trace_8c.html#aa2246f940155472084ee461f3685d614" target="_top" xlink:title="Creates a random set of points distributed near the locus of the Lamniscate of Gerono.">
<polygon fill="white" stroke="#666666" points="170.5,-19 84.5,-19 84.5,0 170.5,0 170.5,-19"/>
<text text-anchor="middle" x="127.5" y="-7" font-family="Helvetica,sans-Serif" font-size="10.00">test_lamniscate</text>
</a>
</g>
</g>
<!-- Node1&#45;&gt;Node7 -->
<g id="edge6" class="edge">
<title>Node1&#45;&gt;Node7</title>
<path fill="none" stroke="#63b8ff" d="M31.81,-55.7C42.35,-47.33 58.48,-35.42 74,-27.5 76.78,-26.08 79.69,-24.74 82.66,-23.47"/>
<polygon fill="#63b8ff" stroke="#63b8ff" points="83.85,-26.37 91.87,-19.45 81.28,-19.86 83.85,-26.37"/>
</g>
<!-- Node4 -->
<g id="node4" class="node">
<title>Node4</title>
<g id="a_node4"><a xlink:href="../../d0/dcb/group__kohonen__1d.html#gae334493a0917a24736fe5ba82aa6f81f" target="_top" xlink:title="Update weights of the SOM using Kohonen algorithm.">
<polygon fill="white" stroke="#666666" points="344,-132 217,-132 217,-113 344,-113 344,-132"/>
<text text-anchor="middle" x="280.5" y="-120" font-family="Helvetica,sans-Serif" font-size="10.00">kohonen_update_weights</text>
</a>
</g>
</g>
<!-- Node3&#45;&gt;Node4 -->
<g id="edge3" class="edge">
<title>Node3&#45;&gt;Node4</title>
<path fill="none" stroke="#63b8ff" d="M181.31,-122.5C189.24,-122.5 197.53,-122.5 205.79,-122.5"/>
<polygon fill="#63b8ff" stroke="#63b8ff" points="205.6,-126 215.6,-122.5 205.6,-119 205.6,-126"/>
</g>
<!-- Node5 -->
<g id="node5" class="node">
<title>Node5</title>
<g id="a_node5"><a xlink:href="../../d0/dcb/group__kohonen__1d.html#ga4a57a413a3cef286a7da6d4666575586" target="_top" xlink:title="Get minimum value and index of the value in a vector.">
<polygon fill="white" stroke="#666666" points="489,-132 380,-132 380,-113 489,-113 489,-132"/>
<text text-anchor="middle" x="434.5" y="-120" font-family="Helvetica,sans-Serif" font-size="10.00">kohonen_get_min_1d</text>
</a>
</g>
</g>
<!-- Node4&#45;&gt;Node5 -->
<g id="edge4" class="edge">
<title>Node4&#45;&gt;Node5</title>
<path fill="none" stroke="#63b8ff" d="M344.2,-122.5C352.3,-122.5 360.6,-122.5 368.73,-122.5"/>
<polygon fill="#63b8ff" stroke="#63b8ff" points="368.67,-126 378.67,-122.5 368.67,-119 368.67,-126"/>
</g>
<!-- Node7&#45;&gt;Node2 -->
<g id="edge7" class="edge">
<title>Node7&#45;&gt;Node2</title>
<path fill="none" stroke="#63b8ff" d="M168.17,-19.48C191.3,-25.3 220.27,-32.59 242.86,-38.28"/>
<polygon fill="#63b8ff" stroke="#63b8ff" points="241.83,-41.88 252.38,-40.93 243.54,-35.09 241.83,-41.88"/>
</g>
</g>
</svg>
