<?xml version="1.0" encoding="UTF-8" standalone="no"?>
<!DOCTYPE svg PUBLIC "-//W3C//DTD SVG 1.1//EN"
 "http://www.w3.org/Graphics/SVG/1.1/DTD/svg11.dtd">
<!-- Generated by graphviz version 3.0.0 (20220226.1711)
 -->
<!-- Title: main Pages: 1 -->
<svg width="610pt" height="281pt"
 viewBox="0.00 0.00 610.00 280.92" xmlns="http://www.w3.org/2000/svg" xmlns:xlink="http://www.w3.org/1999/xlink">
<g id="graph0" class="graph" transform="scale(1 1) rotate(0) translate(4 276.92)">
<title>main</title>
<polygon fill="white" stroke="transparent" points="-4,4 -4,-276.92 606,-276.92 606,4 -4,4"/>
<!-- Node1 -->
<g id="node1" class="node">
<title>Node1</title>
<g id="a_node1"><a xlink:title="Main function.">
<polygon fill="#bfbfbf" stroke="black" points="0,-133.5 0,-152.5 38,-152.5 38,-133.5 0,-133.5"/>
<text text-anchor="middle" x="19" y="-140.5" font-family="Helvetica,sans-Serif" font-size="10.00">main</text>
</a>
</g>
</g>
<!-- Node2 -->
<g id="node2" class="node">
<title>Node2</title>
<g id="a_node2"><a xlink:href="../../d0/d46/kohonen__som__trace_8c.html#a2256c10b16edba377b64a44b6c656908" target="_top" xlink:title="Convert clock cycle difference to time in seconds.">
<polygon fill="white" stroke="black" points="74,-190.5 74,-209.5 151,-209.5 151,-190.5 74,-190.5"/>
<text text-anchor="middle" x="112.5" y="-197.5" font-family="Helvetica,sans-Serif" font-size="10.00">get_clock_diff</text>
</a>
</g>
</g>
<!-- Node1&#45;&gt;Node2 -->
<g id="edge1" class="edge">
<title>Node1&#45;&gt;Node2</title>
<path fill="none" stroke="midnightblue" d="M32.53,-152.59C43.25,-160.62 59.26,-172.14 74,-181 76.67,-182.6 79.48,-184.2 82.33,-185.74"/>
<polygon fill="midnightblue" stroke="midnightblue" points="80.88,-188.93 91.36,-190.47 84.12,-182.73 80.88,-188.93"/>
</g>
<!-- Node3 -->
<g id="node3" class="node">
<title>Node3</title>
<g id="a_node3"><a xlink:href="../../d0/d46/kohonen__som__trace_8c.html#a1440a7779ac56f47a3f355ce4a8c7da0" target="_top" xlink:title="Test that creates a random set of points distributed near the circumference of a circle and trains an...">
<polygon fill="white" stroke="black" points="93.5,-152.5 93.5,-171.5 131.5,-171.5 131.5,-152.5 93.5,-152.5"/>
<text text-anchor="middle" x="112.5" y="-159.5" font-family="Helvetica,sans-Serif" font-size="10.00">test1</text>
</a>
</g>
</g>
<!-- Node1&#45;&gt;Node3 -->
<g id="edge2" class="edge">
<title>Node1&#45;&gt;Node3</title>
<path fill="none" stroke="midnightblue" d="M38.08,-146.75C50.99,-149.43 68.6,-153.09 83.34,-156.15"/>
<polygon fill="midnightblue" stroke="midnightblue" points="82.96,-159.65 93.46,-158.25 84.38,-152.79 82.96,-159.65"/>
</g>
<!-- Node10 -->
<g id="node10" class="node">
<title>Node10</title>
<g id="a_node10"><a xlink:href="../../d0/d46/kohonen__som__trace_8c.html#a0283886819c7c140a023582b7269e2d0" target="_top" xlink:title="Test that creates a random set of points distributed near the locus of the Lamniscate of Gerono and t...">
<polygon fill="white" stroke="black" points="93.5,-114.5 93.5,-133.5 131.5,-133.5 131.5,-114.5 93.5,-114.5"/>
<text text-anchor="middle" x="112.5" y="-121.5" font-family="Helvetica,sans-Serif" font-size="10.00">test2</text>
</a>
</g>
</g>
<!-- Node1&#45;&gt;Node10 -->
<g id="edge10" class="edge">
<title>Node1&#45;&gt;Node10</title>
<path fill="none" stroke="midnightblue" d="M38.08,-139.25C50.99,-136.57 68.6,-132.91 83.34,-129.85"/>
<polygon fill="midnightblue" stroke="midnightblue" points="84.38,-133.21 93.46,-127.75 82.96,-126.35 84.38,-133.21"/>
</g>
<!-- Node12 -->
<g id="node12" class="node">
<title>Node12</title>
<g id="a_node12"><a xlink:href="../../d0/d46/kohonen__som__trace_8c.html#a6d0455dd5c30adda100e95f0423c786e" target="_top" xlink:title="Test that creates a random set of points distributed in six clusters in 3D space.">
<polygon fill="white" stroke="black" points="93.5,-76.5 93.5,-95.5 131.5,-95.5 131.5,-76.5 93.5,-76.5"/>
<text text-anchor="middle" x="112.5" y="-83.5" font-family="Helvetica,sans-Serif" font-size="10.00">test3</text>
</a>
</g>
</g>
<!-- Node1&#45;&gt;Node12 -->
<g id="edge16" class="edge">
<title>Node1&#45;&gt;Node12</title>
<path fill="none" stroke="midnightblue" d="M32.53,-133.41C43.25,-125.38 59.26,-113.86 74,-105 77.26,-103.04 80.74,-101.1 84.22,-99.24"/>
<polygon fill="midnightblue" stroke="midnightblue" points="86,-102.26 93.28,-94.57 82.79,-96.04 86,-102.26"/>
</g>
<!-- Node4 -->
<g id="node4" class="node">
<title>Node4</title>
<g id="a_node4"><a xlink:href="../../d0/dcb/group__kohonen__1d.html#gaf5ce14f026d6d231bef29161bac2b485" target="_top" xlink:title="Helper function to generate a random number in a given interval.">
<polygon fill="white" stroke="black" points="366.5,-171.5 366.5,-190.5 420.5,-190.5 420.5,-171.5 366.5,-171.5"/>
<text text-anchor="middle" x="393.5" y="-178.5" font-family="Helvetica,sans-Serif" font-size="10.00">_random</text>
</a>
</g>
</g>
<!-- Node3&#45;&gt;Node4 -->
<g id="edge3" class="edge">
<title>Node3&#45;&gt;Node4</title>
<path fill="none" stroke="midnightblue" d="M131.86,-168.39C138.52,-171.41 145.7,-175.56 151,-181 177.07,-207.78 155.42,-237.01 187,-257 227.18,-282.43 248.99,-272.35 294,-257 328.01,-245.4 359.42,-216.78 377.24,-198.16"/>
<polygon fill="midnightblue" stroke="midnightblue" points="379.99,-200.35 384.23,-190.64 374.86,-195.58 379.99,-200.35"/>
</g>
<!-- Node5 -->
<g id="node5" class="node">
<title>Node5</title>
<g id="a_node5"><a xlink:href="../../d0/dcb/group__kohonen__1d.html#gaeaeffbff2be4d5d15b0d4f10f846abde" target="_top" xlink:title="Apply incremental algorithm with updating neighborhood and learning rates on all samples in the given...">
<polygon fill="white" stroke="black" points="187,-114.5 187,-133.5 294,-133.5 294,-114.5 187,-114.5"/>
<text text-anchor="middle" x="240.5" y="-121.5" font-family="Helvetica,sans-Serif" font-size="10.00">kohonen_som_tracer</text>
</a>
</g>
</g>
<!-- Node3&#45;&gt;Node5 -->
<g id="edge4" class="edge">
<title>Node3&#45;&gt;Node5</title>
<path fill="none" stroke="midnightblue" d="M131.55,-156.56C148.86,-151.34 175.61,-143.27 198.16,-136.47"/>
<polygon fill="midnightblue" stroke="midnightblue" points="199.28,-139.79 207.84,-133.55 197.26,-133.08 199.28,-139.79"/>
</g>
<!-- Node8 -->
<g id="node8" class="node">
<title>Node8</title>
<g id="a_node8"><a xlink:href="../../d0/dcb/group__kohonen__1d.html#ga7b84b14e60f47812b581d1f93057c85a" target="_top" xlink:title="Save a given n&#45;dimensional data martix to file.">
<polygon fill="white" stroke="black" points="202,-76.5 202,-95.5 279,-95.5 279,-76.5 202,-76.5"/>
<text text-anchor="middle" x="240.5" y="-83.5" font-family="Helvetica,sans-Serif" font-size="10.00">save_nd_data</text>
</a>
</g>
</g>
<!-- Node3&#45;&gt;Node8 -->
<g id="edge7" class="edge">
<title>Node3&#45;&gt;Node8</title>
<path fill="none" stroke="midnightblue" d="M131.79,-154.29C138.15,-151.22 145.15,-147.36 151,-143 169.65,-129.09 167.54,-117.75 187,-105 189.97,-103.06 193.16,-101.28 196.45,-99.66"/>
<polygon fill="midnightblue" stroke="midnightblue" points="198.14,-102.74 205.89,-95.52 195.33,-96.33 198.14,-102.74"/>
</g>
<!-- Node9 -->
<g id="node9" class="node">
<title>Node9</title>
<g id="a_node9"><a xlink:href="../../d0/d46/kohonen__som__trace_8c.html#a107f00650b8041f77767927073ddddb8" target="_top" xlink:title="Creates a random set of points distributed near the circumference of a circle and trains an SOM that ...">
<polygon fill="white" stroke="black" points="209.5,-228.5 209.5,-247.5 271.5,-247.5 271.5,-228.5 209.5,-228.5"/>
<text text-anchor="middle" x="240.5" y="-235.5" font-family="Helvetica,sans-Serif" font-size="10.00">test_circle</text>
</a>
</g>
</g>
<!-- Node3&#45;&gt;Node9 -->
<g id="edge8" class="edge">
<title>Node3&#45;&gt;Node9</title>
<path fill="none" stroke="midnightblue" d="M131.62,-169.94C137.96,-173.04 145,-176.85 151,-181 168.85,-193.35 168.91,-202.01 187,-214 192.54,-217.67 198.73,-221.05 204.86,-224.04"/>
<polygon fill="midnightblue" stroke="midnightblue" points="203.8,-227.41 214.35,-228.41 206.73,-221.05 203.8,-227.41"/>
</g>
<!-- Node6 -->
<g id="node6" class="node">
<title>Node6</title>
<g id="a_node6"><a xlink:href="../../d0/dcb/group__kohonen__1d.html#gae334493a0917a24736fe5ba82aa6f81f" target="_top" xlink:title="Update weights of the SOM using Kohonen algorithm.">
<polygon fill="white" stroke="black" points="330,-114.5 330,-133.5 457,-133.5 457,-114.5 330,-114.5"/>
<text text-anchor="middle" x="393.5" y="-121.5" font-family="Helvetica,sans-Serif" font-size="10.00">kohonen_update_weights</text>
</a>
</g>
</g>
<!-- Node5&#45;&gt;Node6 -->
<g id="edge5" class="edge">
<title>Node5&#45;&gt;Node6</title>
<path fill="none" stroke="midnightblue" d="M294.31,-124C302.56,-124 311.22,-124 319.82,-124"/>
<polygon fill="midnightblue" stroke="midnightblue" points="319.87,-127.5 329.87,-124 319.87,-120.5 319.87,-127.5"/>
</g>
<!-- Node7 -->
<g id="node7" class="node">
<title>Node7</title>
<g id="a_node7"><a xlink:href="../../d0/dcb/group__kohonen__1d.html#ga4a57a413a3cef286a7da6d4666575586" target="_top" xlink:title="Get minimum value and index of the value in a vector.">
<polygon fill="white" stroke="black" points="493,-114.5 493,-133.5 602,-133.5 602,-114.5 493,-114.5"/>
<text text-anchor="middle" x="547.5" y="-121.5" font-family="Helvetica,sans-Serif" font-size="10.00">kohonen_get_min_1d</text>
</a>
</g>
</g>
<!-- Node6&#45;&gt;Node7 -->
<g id="edge6" class="edge">
<title>Node6&#45;&gt;Node7</title>
<path fill="none" stroke="midnightblue" d="M457.2,-124C465.57,-124 474.17,-124 482.56,-124"/>
<polygon fill="midnightblue" stroke="midnightblue" points="482.67,-127.5 492.67,-124 482.67,-120.5 482.67,-127.5"/>
</g>
<!-- Node9&#45;&gt;Node4 -->
<g id="edge9" class="edge">
<title>Node9&#45;&gt;Node4</title>
<path fill="none" stroke="midnightblue" d="M266.77,-228.46C291.6,-219.09 329.68,-204.71 357.43,-194.24"/>
<polygon fill="midnightblue" stroke="midnightblue" points="359.02,-197.38 367.14,-190.57 356.55,-190.83 359.02,-197.38"/>
</g>
<!-- Node10&#45;&gt;Node4 -->
<g id="edge11" class="edge">
<title>Node10&#45;&gt;Node4</title>
<path fill="none" stroke="midnightblue" d="M131.79,-131.71C138.15,-134.78 145.15,-138.64 151,-143 169.65,-156.91 165.63,-171.81 187,-181 242.26,-204.77 313.86,-197.23 356.32,-189.31"/>
<polygon fill="midnightblue" stroke="midnightblue" points="357.07,-192.73 366.2,-187.36 355.71,-185.86 357.07,-192.73"/>
</g>
<!-- Node10&#45;&gt;Node5 -->
<g id="edge12" class="edge">
<title>Node10&#45;&gt;Node5</title>
<path fill="none" stroke="midnightblue" d="M131.55,-124C143.56,-124 160.1,-124 176.63,-124"/>
<polygon fill="midnightblue" stroke="midnightblue" points="176.88,-127.5 186.88,-124 176.88,-120.5 176.88,-127.5"/>
</g>
<!-- Node10&#45;&gt;Node8 -->
<g id="edge13" class="edge">
<title>Node10&#45;&gt;Node8</title>
<path fill="none" stroke="midnightblue" d="M131.55,-118.56C148.86,-113.34 175.61,-105.27 198.16,-98.47"/>
<polygon fill="midnightblue" stroke="midnightblue" points="199.28,-101.79 207.84,-95.55 197.26,-95.08 199.28,-101.79"/>
</g>
<!-- Node11 -->
<g id="node11" class="node">
<title>Node11</title>
<g id="a_node11"><a xlink:href="../../d0/d46/kohonen__som__trace_8c.html#aa2246f940155472084ee461f3685d614" target="_top" xlink:title="Creates a random set of points distributed near the locus of the Lamniscate of Gerono.">
<polygon fill="white" stroke="black" points="197.5,-152.5 197.5,-171.5 283.5,-171.5 283.5,-152.5 197.5,-152.5"/>
<text text-anchor="middle" x="240.5" y="-159.5" font-family="Helvetica,sans-Serif" font-size="10.00">test_lamniscate</text>
</a>
</g>
</g>
<!-- Node10&#45;&gt;Node11 -->
<g id="edge14" class="edge">
<title>Node10&#45;&gt;Node11</title>
<path fill="none" stroke="midnightblue" d="M131.55,-129.44C148.86,-134.66 175.61,-142.73 198.16,-149.53"/>
<polygon fill="midnightblue" stroke="midnightblue" points="197.26,-152.92 207.84,-152.45 199.28,-146.21 197.26,-152.92"/>
</g>
<!-- Node11&#45;&gt;Node4 -->
<g id="edge15" class="edge">
<title>Node11&#45;&gt;Node4</title>
<path fill="none" stroke="midnightblue" d="M283.56,-167.29C306.36,-170.16 334.26,-173.67 356.11,-176.42"/>
<polygon fill="midnightblue" stroke="midnightblue" points="355.95,-179.93 366.31,-177.7 356.82,-172.98 355.95,-179.93"/>
</g>
<!-- Node12&#45;&gt;Node4 -->
<g id="edge17" class="edge">
<title>Node12&#45;&gt;Node4</title>
<path fill="none" stroke="midnightblue" d="M131.58,-77.21C166.12,-61.79 242.61,-34.48 294,-67 325.58,-86.99 304.98,-115.23 330,-143 338.63,-152.58 350.25,-160.54 361.13,-166.66"/>
<polygon fill="midnightblue" stroke="midnightblue" points="359.54,-169.77 370.01,-171.36 362.81,-163.59 359.54,-169.77"/>
</g>
<!-- Node12&#45;&gt;Node5 -->
<g id="edge18" class="edge">
<title>Node12&#45;&gt;Node5</title>
<path fill="none" stroke="midnightblue" d="M131.55,-91.44C148.86,-96.66 175.61,-104.73 198.16,-111.53"/>
<polygon fill="midnightblue" stroke="midnightblue" points="197.26,-114.92 207.84,-114.45 199.28,-108.21 197.26,-114.92"/>
</g>
<!-- Node12&#45;&gt;Node8 -->
<g id="edge19" class="edge">
<title>Node12&#45;&gt;Node8</title>
<path fill="none" stroke="midnightblue" d="M131.55,-86C147.22,-86 170.64,-86 191.66,-86"/>
<polygon fill="midnightblue" stroke="midnightblue" points="191.74,-89.5 201.74,-86 191.74,-82.5 191.74,-89.5"/>
</g>
<!-- Node13 -->
<g id="node13" class="node">
<title>Node13</title>
<g id="a_node13"><a xlink:href="../../d0/d46/kohonen__som__trace_8c.html#a41ae16442e3e5b891a58d2e5932a2cd0" target="_top" xlink:title="Creates a random set of points distributed in four clusters in 3D space with centroids at the points.">
<polygon fill="white" stroke="black" points="196.5,-0.5 196.5,-19.5 284.5,-19.5 284.5,-0.5 196.5,-0.5"/>
<text text-anchor="middle" x="240.5" y="-7.5" font-family="Helvetica,sans-Serif" font-size="10.00">test_3d_classes</text>
</a>
</g>
</g>
<!-- Node12&#45;&gt;Node13 -->
<g id="edge20" class="edge">
<title>Node12&#45;&gt;Node13</title>
<path fill="none" stroke="midnightblue" d="M125.52,-76.43C139.7,-65.4 164.24,-47.1 187,-34 193.19,-30.44 199.99,-27 206.6,-23.9"/>
<polygon fill="midnightblue" stroke="midnightblue" points="208.38,-26.93 216.03,-19.61 205.48,-20.56 208.38,-26.93"/>
</g>
<!-- Node13&#45;&gt;Node4 -->
<g id="edge21" class="edge">
<title>Node13&#45;&gt;Node4</title>
<path fill="none" stroke="midnightblue" d="M273.42,-19.58C280.98,-23.1 288.45,-27.8 294,-34 328.04,-72 298.25,-103.07 330,-143 337.76,-152.76 348.77,-160.63 359.39,-166.62"/>
<polygon fill="midnightblue" stroke="midnightblue" points="358.05,-169.86 368.53,-171.39 361.29,-163.66 358.05,-169.86"/>
</g>
</g>
</svg>
