<?xml version="1.0" encoding="UTF-8" standalone="no"?>
<!DOCTYPE svg PUBLIC "-//W3C//DTD SVG 1.1//EN"
 "http://www.w3.org/Graphics/SVG/1.1/DTD/svg11.dtd">
<!-- Generated by graphviz version 8.0.4 (20230421.1958)
 -->
<!-- Title: test1 Pages: 1 -->
<svg width="495pt" height="140pt"
 viewBox="0.00 0.00 495.00 140.25" xmlns="http://www.w3.org/2000/svg" xmlns:xlink="http://www.w3.org/1999/xlink">
<g id="graph0" class="graph" transform="scale(1 1) rotate(0) translate(4 136.25)">
<title>test1</title>
<!-- Node1 -->
<g id="node1" class="node">
<title>Node1</title>
<g id="a_node1"><a xlink:title="Test that creates a random set of points distributed near the circumference of a circle and trains an...">
<polygon fill="#999999" stroke="#666666" points="37.75,-75.25 0,-75.25 0,-56 37.75,-56 37.75,-75.25"/>
<text text-anchor="middle" x="18.88" y="-61.75" font-family="Helvetica,sans-Serif" font-size="10.00">test1</text>
</a>
</g>
</g>
<!-- Node2 -->
<g id="node2" class="node">
<title>Node2</title>
<g id="a_node2"><a xlink:href="../../d0/dcb/group__kohonen__1d.html#gaf5ce14f026d6d231bef29161bac2b485" target="_top" xlink:title="Helper function to generate a random number in a given interval.">
<polygon fill="white" stroke="#666666" points="306.38,-57.25 252.88,-57.25 252.88,-38 306.38,-38 306.38,-57.25"/>
<text text-anchor="middle" x="279.62" y="-43.75" font-family="Helvetica,sans-Serif" font-size="10.00">_random</text>
</a>
</g>
</g>
<!-- Node1&#45;&gt;Node2 -->
<g id="edge1" class="edge">
<title>Node1&#45;&gt;Node2</title>
<path fill="none" stroke="#63b8ff" d="M38.23,-66.7C68.12,-68.22 129.12,-70.3 180.5,-65.62 201.02,-63.76 223.66,-59.74 242.02,-55.97"/>
<polygon fill="#63b8ff" stroke="#63b8ff" points="242.51,-59.23 251.56,-53.74 241.06,-52.39 242.51,-59.23"/>
</g>
<!-- Node3 -->
<g id="node3" class="node">
<title>Node3</title>
<g id="a_node3"><a xlink:href="../../d0/dcb/group__kohonen__1d.html#gaeaeffbff2be4d5d15b0d4f10f846abde" target="_top" xlink:title="Apply incremental algorithm with updating neighborhood and learning rates on all samples in the given...">
<polygon fill="white" stroke="#666666" points="180.5,-132.25 73.75,-132.25 73.75,-113 180.5,-113 180.5,-132.25"/>
<text text-anchor="middle" x="127.12" y="-118.75" font-family="Helvetica,sans-Serif" font-size="10.00">kohonen_som_tracer</text>
</a>
</g>
</g>
<!-- Node1&#45;&gt;Node3 -->
<g id="edge2" class="edge">
<title>Node1&#45;&gt;Node3</title>
<path fill="none" stroke="#63b8ff" d="M35.15,-75.66C45.78,-82.47 60.39,-91.51 73.75,-98.62 79.83,-101.87 86.43,-105.1 92.84,-108.1"/>
<polygon fill="#63b8ff" stroke="#63b8ff" points="91.08,-111.6 101.63,-112.58 93.99,-105.24 91.08,-111.6"/>
</g>
<!-- Node6 -->
<g id="node6" class="node">
<title>Node6</title>
<g id="a_node6"><a xlink:href="../../d0/dcb/group__kohonen__1d.html#ga7b84b14e60f47812b581d1f93057c85a" target="_top" xlink:title="Save a given n&#45;dimensional data martix to file.">
<polygon fill="white" stroke="#666666" points="165.5,-56.25 88.75,-56.25 88.75,-37 165.5,-37 165.5,-56.25"/>
<text text-anchor="middle" x="127.12" y="-42.75" font-family="Helvetica,sans-Serif" font-size="10.00">save_nd_data</text>
</a>
</g>
</g>
<!-- Node1&#45;&gt;Node6 -->
<g id="edge5" class="edge">
<title>Node1&#45;&gt;Node6</title>
<path fill="none" stroke="#63b8ff" d="M37.9,-62.4C48.94,-60.43 63.64,-57.8 77.87,-55.25"/>
<polygon fill="#63b8ff" stroke="#63b8ff" points="78.37,-58.54 87.59,-53.34 77.13,-51.65 78.37,-58.54"/>
</g>
<!-- Node7 -->
<g id="node7" class="node">
<title>Node7</title>
<g id="a_node7"><a xlink:href="../../d0/d46/kohonen__som__trace_8c.html#a107f00650b8041f77767927073ddddb8" target="_top" xlink:title="Creates a random set of points distributed near the circumference of a circle and trains an SOM that ...">
<polygon fill="white" stroke="#666666" points="157.62,-19.25 96.62,-19.25 96.62,0 157.62,0 157.62,-19.25"/>
<text text-anchor="middle" x="127.12" y="-5.75" font-family="Helvetica,sans-Serif" font-size="10.00">test_circle</text>
</a>
</g>
</g>
<!-- Node1&#45;&gt;Node7 -->
<g id="edge6" class="edge">
<title>Node1&#45;&gt;Node7</title>
<path fill="none" stroke="#63b8ff" d="M31.66,-55.83C42.17,-47.46 58.26,-35.55 73.75,-27.62 77.7,-25.61 81.92,-23.73 86.2,-22.01"/>
<polygon fill="#63b8ff" stroke="#63b8ff" points="87.01,-25.07 95.16,-18.29 84.56,-18.51 87.01,-25.07"/>
</g>
<!-- Node4 -->
<g id="node4" class="node">
<title>Node4</title>
<g id="a_node4"><a xlink:href="../../d0/dcb/group__kohonen__1d.html#gae334493a0917a24736fe5ba82aa6f81f" target="_top" xlink:title="Update weights of the SOM using Kohonen algorithm.">
<polygon fill="white" stroke="#666666" points="342.75,-132.25 216.5,-132.25 216.5,-113 342.75,-113 342.75,-132.25"/>
<text text-anchor="middle" x="279.62" y="-118.75" font-family="Helvetica,sans-Serif" font-size="10.00">kohonen_update_weights</text>
</a>
</g>
</g>
<!-- Node3&#45;&gt;Node4 -->
<g id="edge3" class="edge">
<title>Node3&#45;&gt;Node4</title>
<path fill="none" stroke="#63b8ff" d="M180.76,-122.62C188.72,-122.62 197.05,-122.62 205.34,-122.62"/>
<polygon fill="#63b8ff" stroke="#63b8ff" points="205.2,-126.13 215.2,-122.62 205.2,-119.13 205.2,-126.13"/>
</g>
<!-- Node5 -->
<g id="node5" class="node">
<title>Node5</title>
<g id="a_node5"><a xlink:href="../../d0/dcb/group__kohonen__1d.html#ga4a57a413a3cef286a7da6d4666575586" target="_top" xlink:title="Get minimum value and index of the value in a vector.">
<polygon fill="white" stroke="#666666" points="487,-132.25 378.75,-132.25 378.75,-113 487,-113 487,-132.25"/>
<text text-anchor="middle" x="432.88" y="-118.75" font-family="Helvetica,sans-Serif" font-size="10.00">kohonen_get_min_1d</text>
</a>
</g>
</g>
<!-- Node4&#45;&gt;Node5 -->
<g id="edge4" class="edge">
<title>Node4&#45;&gt;Node5</title>
<path fill="none" stroke="#63b8ff" d="M343.02,-122.62C351.07,-122.62 359.34,-122.62 367.42,-122.62"/>
<polygon fill="#63b8ff" stroke="#63b8ff" points="367.31,-126.13 377.31,-122.62 367.31,-119.13 367.31,-126.13"/>
</g>
<!-- Node7&#45;&gt;Node2 -->
<g id="edge7" class="edge">
<title>Node7&#45;&gt;Node2</title>
<path fill="none" stroke="#63b8ff" d="M157.86,-17.13C181.99,-23.23 216.14,-31.85 241.97,-38.37"/>
<polygon fill="#63b8ff" stroke="#63b8ff" points="240.92,-41.97 251.47,-41.02 242.63,-35.18 240.92,-41.97"/>
</g>
</g>
</svg>
