<?xml version="1.0" encoding="UTF-8" standalone="no"?>
<!DOCTYPE svg PUBLIC "-//W3C//DTD SVG 1.1//EN"
 "http://www.w3.org/Graphics/SVG/1.1/DTD/svg11.dtd">
<!-- Generated by graphviz version 3.0.0 (20220226.1711)
 -->
<!-- Title: test3 Pages: 1 -->
<svg width="497pt" height="142pt"
 viewBox="0.00 0.00 497.00 142.00" xmlns="http://www.w3.org/2000/svg" xmlns:xlink="http://www.w3.org/1999/xlink">
<g id="graph0" class="graph" transform="scale(1 1) rotate(0) translate(4 138)">
<title>test3</title>
<polygon fill="white" stroke="transparent" points="-4,4 -4,-138 493,-138 493,4 -4,4"/>
<!-- Node1 -->
<g id="node1" class="node">
<title>Node1</title>
<g id="a_node1"><a xlink:title="Test that creates a random set of points distributed in six clusters in 3D space.">
<polygon fill="#bfbfbf" stroke="black" points="0,-57.5 0,-76.5 38,-76.5 38,-57.5 0,-57.5"/>
<text text-anchor="middle" x="19" y="-64.5" font-family="Helvetica,sans-Serif" font-size="10.00">test3</text>
</a>
</g>
</g>
<!-- Node2 -->
<g id="node2" class="node">
<title>Node2</title>
<g id="a_node2"><a xlink:href="../../d0/dcb/group__kohonen__1d.html#gaf5ce14f026d6d231bef29161bac2b485" target="_top" xlink:title="Helper function to generate a random number in a given interval.">
<polygon fill="white" stroke="black" points="253.5,-38.5 253.5,-57.5 307.5,-57.5 307.5,-38.5 253.5,-38.5"/>
<text text-anchor="middle" x="280.5" y="-45.5" font-family="Helvetica,sans-Serif" font-size="10.00">_random</text>
</a>
</g>
</g>
<!-- Node1&#45;&gt;Node2 -->
<g id="edge1" class="edge">
<title>Node1&#45;&gt;Node2</title>
<path fill="none" stroke="midnightblue" d="M38.4,-68.14C68.37,-69.73 129.52,-71.92 181,-67 201.92,-65 225,-60.67 243.56,-56.64"/>
<polygon fill="midnightblue" stroke="midnightblue" points="244.36,-60.05 253.36,-54.45 242.84,-53.22 244.36,-60.05"/>
</g>
<!-- Node3 -->
<g id="node3" class="node">
<title>Node3</title>
<g id="a_node3"><a xlink:href="../../d0/dcb/group__kohonen__1d.html#gaeaeffbff2be4d5d15b0d4f10f846abde" target="_top" xlink:title="Apply incremental algorithm with updating neighborhood and learning rates on all samples in the given...">
<polygon fill="white" stroke="black" points="74,-114.5 74,-133.5 181,-133.5 181,-114.5 74,-114.5"/>
<text text-anchor="middle" x="127.5" y="-121.5" font-family="Helvetica,sans-Serif" font-size="10.00">kohonen_som_tracer</text>
</a>
</g>
</g>
<!-- Node1&#45;&gt;Node3 -->
<g id="edge2" class="edge">
<title>Node1&#45;&gt;Node3</title>
<path fill="none" stroke="midnightblue" d="M34.85,-76.74C45.54,-83.59 60.42,-92.78 74,-100 80.63,-103.53 87.88,-107.04 94.81,-110.26"/>
<polygon fill="midnightblue" stroke="midnightblue" points="93.44,-113.48 103.99,-114.42 96.33,-107.1 93.44,-113.48"/>
</g>
<!-- Node6 -->
<g id="node6" class="node">
<title>Node6</title>
<g id="a_node6"><a xlink:href="../../d0/dcb/group__kohonen__1d.html#ga7b84b14e60f47812b581d1f93057c85a" target="_top" xlink:title="Save a given n&#45;dimensional data martix to file.">
<polygon fill="white" stroke="black" points="89,-38.5 89,-57.5 166,-57.5 166,-38.5 89,-38.5"/>
<text text-anchor="middle" x="127.5" y="-45.5" font-family="Helvetica,sans-Serif" font-size="10.00">save_nd_data</text>
</a>
</g>
</g>
<!-- Node1&#45;&gt;Node6 -->
<g id="edge5" class="edge">
<title>Node1&#45;&gt;Node6</title>
<path fill="none" stroke="midnightblue" d="M38.07,-63.78C49.35,-61.76 64.45,-59.07 78.97,-56.48"/>
<polygon fill="midnightblue" stroke="midnightblue" points="79.65,-59.91 88.88,-54.71 78.42,-53.02 79.65,-59.91"/>
</g>
<!-- Node7 -->
<g id="node7" class="node">
<title>Node7</title>
<g id="a_node7"><a xlink:href="../../d0/d46/kohonen__som__trace_8c.html#a41ae16442e3e5b891a58d2e5932a2cd0" target="_top" xlink:title="Creates a random set of points distributed in four clusters in 3D space with centroids at the points.">
<polygon fill="white" stroke="black" points="83.5,-0.5 83.5,-19.5 171.5,-19.5 171.5,-0.5 83.5,-0.5"/>
<text text-anchor="middle" x="127.5" y="-7.5" font-family="Helvetica,sans-Serif" font-size="10.00">test_3d_classes</text>
</a>
</g>
</g>
<!-- Node1&#45;&gt;Node7 -->
<g id="edge6" class="edge">
<title>Node1&#45;&gt;Node7</title>
<path fill="none" stroke="midnightblue" d="M31.84,-57.27C42.41,-48.94 58.55,-37.05 74,-29 77.98,-26.93 82.23,-24.99 86.53,-23.19"/>
<polygon fill="midnightblue" stroke="midnightblue" points="87.89,-26.42 95.93,-19.51 85.34,-19.9 87.89,-26.42"/>
</g>
<!-- Node4 -->
<g id="node4" class="node">
<title>Node4</title>
<g id="a_node4"><a xlink:href="../../d0/dcb/group__kohonen__1d.html#gae334493a0917a24736fe5ba82aa6f81f" target="_top" xlink:title="Update weights of the SOM using Kohonen algorithm.">
<polygon fill="white" stroke="black" points="217,-114.5 217,-133.5 344,-133.5 344,-114.5 217,-114.5"/>
<text text-anchor="middle" x="280.5" y="-121.5" font-family="Helvetica,sans-Serif" font-size="10.00">kohonen_update_weights</text>
</a>
</g>
</g>
<!-- Node3&#45;&gt;Node4 -->
<g id="edge3" class="edge">
<title>Node3&#45;&gt;Node4</title>
<path fill="none" stroke="midnightblue" d="M181.31,-124C189.56,-124 198.22,-124 206.82,-124"/>
<polygon fill="midnightblue" stroke="midnightblue" points="206.87,-127.5 216.87,-124 206.87,-120.5 206.87,-127.5"/>
</g>
<!-- Node5 -->
<g id="node5" class="node">
<title>Node5</title>
<g id="a_node5"><a xlink:href="../../d0/dcb/group__kohonen__1d.html#ga4a57a413a3cef286a7da6d4666575586" target="_top" xlink:title="Get minimum value and index of the value in a vector.">
<polygon fill="white" stroke="black" points="380,-114.5 380,-133.5 489,-133.5 489,-114.5 380,-114.5"/>
<text text-anchor="middle" x="434.5" y="-121.5" font-family="Helvetica,sans-Serif" font-size="10.00">kohonen_get_min_1d</text>
</a>
</g>
</g>
<!-- Node4&#45;&gt;Node5 -->
<g id="edge4" class="edge">
<title>Node4&#45;&gt;Node5</title>
<path fill="none" stroke="midnightblue" d="M344.2,-124C352.57,-124 361.17,-124 369.56,-124"/>
<polygon fill="midnightblue" stroke="midnightblue" points="369.67,-127.5 379.67,-124 369.67,-120.5 369.67,-127.5"/>
</g>
<!-- Node7&#45;&gt;Node2 -->
<g id="edge7" class="edge">
<title>Node7&#45;&gt;Node2</title>
<path fill="none" stroke="midnightblue" d="M166.6,-19.59C190.2,-25.53 220.31,-33.1 243.5,-38.94"/>
<polygon fill="midnightblue" stroke="midnightblue" points="242.74,-42.36 253.29,-41.41 244.45,-35.57 242.74,-42.36"/>
</g>
</g>
</svg>
