<?xml version="1.0" encoding="UTF-8" standalone="no"?>
<!DOCTYPE svg PUBLIC "-//W3C//DTD SVG 1.1//EN"
 "http://www.w3.org/Graphics/SVG/1.1/DTD/svg11.dtd">
<!-- Generated by graphviz version 7.0.6 (20230106.0513)
 -->
<!-- Title: test2 Pages: 1 -->
<svg width="497pt" height="140pt"
 viewBox="0.00 0.00 497.00 140.00" xmlns="http://www.w3.org/2000/svg" xmlns:xlink="http://www.w3.org/1999/xlink">
<g id="graph0" class="graph" transform="scale(1 1) rotate(0) translate(4 136)">
<title>test2</title>
<!-- Node1 -->
<g id="node1" class="node">
<title>Node1</title>
<g id="a_node1"><a xlink:title="Test that creates a random set of points distributed near the locus of the Lamniscate of Gerono and t...">
<polygon fill="#999999" stroke="#666666" points="38,-75 0,-75 0,-56 38,-56 38,-75"/>
<text text-anchor="middle" x="19" y="-63" font-family="Helvetica,sans-Serif" font-size="10.00">test2</text>
</a>
</g>
</g>
<!-- Node2 -->
<g id="node2" class="node">
<title>Node2</title>
<g id="a_node2"><a xlink:href="../../d0/dcb/group__kohonen__1d.html#gaf5ce14f026d6d231bef29161bac2b485" target="_top" xlink:title="Helper function to generate a random number in a given interval.">
<polygon fill="white" stroke="#666666" points="307.5,-57 253.5,-57 253.5,-38 307.5,-38 307.5,-57"/>
<text text-anchor="middle" x="280.5" y="-45" font-family="Helvetica,sans-Serif" font-size="10.00">_random</text>
</a>
</g>
</g>
<!-- Node1&#45;&gt;Node2 -->
<g id="edge1" class="edge">
<title>Node1&#45;&gt;Node2</title>
<path fill="none" stroke="#63b8ff" d="M38.4,-66.37C68.35,-67.56 129.49,-69.07 181,-64.5 201.37,-62.69 223.87,-58.94 242.21,-55.43"/>
<polygon fill="#63b8ff" stroke="#63b8ff" points="242.7,-58.9 251.83,-53.52 241.34,-52.03 242.7,-58.9"/>
</g>
<!-- Node3 -->
<g id="node3" class="node">
<title>Node3</title>
<g id="a_node3"><a xlink:href="../../d0/dcb/group__kohonen__1d.html#gaeaeffbff2be4d5d15b0d4f10f846abde" target="_top" xlink:title="Apply incremental algorithm with updating neighborhood and learning rates on all samples in the given...">
<polygon fill="white" stroke="#666666" points="181,-132 74,-132 74,-113 181,-113 181,-132"/>
<text text-anchor="middle" x="127.5" y="-120" font-family="Helvetica,sans-Serif" font-size="10.00">kohonen_som_tracer</text>
</a>
</g>
</g>
<!-- Node1&#45;&gt;Node3 -->
<g id="edge2" class="edge">
<title>Node1&#45;&gt;Node3</title>
<path fill="none" stroke="#63b8ff" d="M34.85,-75.24C45.54,-82.09 60.42,-91.28 74,-98.5 80.01,-101.69 86.52,-104.88 92.85,-107.84"/>
<polygon fill="#63b8ff" stroke="#63b8ff" points="91.28,-110.97 101.83,-111.94 94.19,-104.61 91.28,-110.97"/>
</g>
<!-- Node6 -->
<g id="node6" class="node">
<title>Node6</title>
<g id="a_node6"><a xlink:href="../../d0/dcb/group__kohonen__1d.html#ga7b84b14e60f47812b581d1f93057c85a" target="_top" xlink:title="Save a given n&#45;dimensional data martix to file.">
<polygon fill="white" stroke="#666666" points="166,-56 89,-56 89,-37 166,-37 166,-56"/>
<text text-anchor="middle" x="127.5" y="-44" font-family="Helvetica,sans-Serif" font-size="10.00">save_nd_data</text>
</a>
</g>
</g>
<!-- Node1&#45;&gt;Node6 -->
<g id="edge5" class="edge">
<title>Node1&#45;&gt;Node6</title>
<path fill="none" stroke="#63b8ff" d="M38.07,-62.28C49.02,-60.32 63.58,-57.73 77.71,-55.2"/>
<polygon fill="#63b8ff" stroke="#63b8ff" points="78.16,-58.68 87.39,-53.48 76.93,-51.79 78.16,-58.68"/>
</g>
<!-- Node7 -->
<g id="node7" class="node">
<title>Node7</title>
<g id="a_node7"><a xlink:href="../../d0/d46/kohonen__som__trace_8c.html#aa2246f940155472084ee461f3685d614" target="_top" xlink:title="Creates a random set of points distributed near the locus of the Lamniscate of Gerono.">
<polygon fill="white" stroke="#666666" points="170.5,-19 84.5,-19 84.5,0 170.5,0 170.5,-19"/>
<text text-anchor="middle" x="127.5" y="-7" font-family="Helvetica,sans-Serif" font-size="10.00">test_lamniscate</text>
</a>
</g>
</g>
<!-- Node1&#45;&gt;Node7 -->
<g id="edge6" class="edge">
<title>Node1&#45;&gt;Node7</title>
<path fill="none" stroke="#63b8ff" d="M31.81,-55.7C42.35,-47.33 58.48,-35.42 74,-27.5 76.68,-26.13 79.49,-24.83 82.36,-23.59"/>
<polygon fill="#63b8ff" stroke="#63b8ff" points="83.44,-26.93 91.46,-20 80.87,-20.42 83.44,-26.93"/>
</g>
<!-- Node4 -->
<g id="node4" class="node">
<title>Node4</title>
<g id="a_node4"><a xlink:href="../../d0/dcb/group__kohonen__1d.html#gae334493a0917a24736fe5ba82aa6f81f" target="_top" xlink:title="Update weights of the SOM using Kohonen algorithm.">
<polygon fill="white" stroke="#666666" points="344,-132 217,-132 217,-113 344,-113 344,-132"/>
<text text-anchor="middle" x="280.5" y="-120" font-family="Helvetica,sans-Serif" font-size="10.00">kohonen_update_weights</text>
</a>
</g>
</g>
<!-- Node3&#45;&gt;Node4 -->
<g id="edge3" class="edge">
<title>Node3&#45;&gt;Node4</title>
<path fill="none" stroke="#63b8ff" d="M181.31,-122.5C189.06,-122.5 197.16,-122.5 205.23,-122.5"/>
<polygon fill="#63b8ff" stroke="#63b8ff" points="205.09,-126 215.09,-122.5 205.09,-119 205.09,-126"/>
</g>
<!-- Node5 -->
<g id="node5" class="node">
<title>Node5</title>
<g id="a_node5"><a xlink:href="../../d0/dcb/group__kohonen__1d.html#ga4a57a413a3cef286a7da6d4666575586" target="_top" xlink:title="Get minimum value and index of the value in a vector.">
<polygon fill="white" stroke="#666666" points="489,-132 380,-132 380,-113 489,-113 489,-132"/>
<text text-anchor="middle" x="434.5" y="-120" font-family="Helvetica,sans-Serif" font-size="10.00">kohonen_get_min_1d</text>
</a>
</g>
</g>
<!-- Node4&#45;&gt;Node5 -->
<g id="edge4" class="edge">
<title>Node4&#45;&gt;Node5</title>
<path fill="none" stroke="#63b8ff" d="M344.2,-122.5C352.11,-122.5 360.22,-122.5 368.18,-122.5"/>
<polygon fill="#63b8ff" stroke="#63b8ff" points="368.16,-126 378.16,-122.5 368.16,-119 368.16,-126"/>
</g>
<!-- Node7&#45;&gt;Node2 -->
<g id="edge7" class="edge">
<title>Node7&#45;&gt;Node2</title>
<path fill="none" stroke="#63b8ff" d="M168.17,-19.48C191.09,-25.25 219.74,-32.46 242.24,-38.12"/>
<polygon fill="#63b8ff" stroke="#63b8ff" points="241.36,-41.51 251.91,-40.56 243.07,-34.72 241.36,-41.51"/>
</g>
</g>
</svg>
