<?xml version="1.0" encoding="UTF-8" standalone="no"?>
<!DOCTYPE svg PUBLIC "-//W3C//DTD SVG 1.1//EN"
 "http://www.w3.org/Graphics/SVG/1.1/DTD/svg11.dtd">
<!-- Generated by graphviz version 8.0.5 (20230430.1635)
 -->
<!-- Title: selectionSort Pages: 1 -->
<svg width="173pt" height="45pt"
 viewBox="0.00 0.00 172.75 45.25" xmlns="http://www.w3.org/2000/svg" xmlns:xlink="http://www.w3.org/1999/xlink">
<g id="graph0" class="graph" transform="scale(1 1) rotate(0) translate(4 41.25)">
<title>selectionSort</title>
<!-- Node1 -->
<g id="Node000001" class="node">
<title>Node1</title>
<g id="a_Node000001"><a xlink:title="Selection Sort algorithm implemented using recursion.">
<polygon fill="#999999" stroke="#666666" points="73,-19.25 0,-19.25 0,0 73,0 73,-19.25"/>
<text text-anchor="middle" x="36.5" y="-5.75" font-family="Helvetica,sans-Serif" font-size="10.00">selectionSort</text>
</a>
</g>
</g>
<!-- Node1&#45;&gt;Node1 -->
<g id="edge3_Node000001_Node000001" class="edge">
<title>Node1&#45;&gt;Node1</title>
<g id="a_edge3_Node000001_Node000001"><a xlink:title=" ">
<path fill="none" stroke="#63b8ff" d="M20.79,-19.54C13.62,-28.15 18.86,-37.25 36.5,-37.25 46.7,-37.25 52.75,-34.21 54.66,-29.98"/>
<polygon fill="#63b8ff" stroke="#63b8ff" points="57.91,-29.47 52.21,-20.54 51.09,-31.07 57.91,-29.47"/>
</a>
</g>
</g>
<!-- Node2 -->
<g id="Node000002" class="node">
<title>Node2</title>
<g id="a_Node000002"><a xlink:href="../../dc/d39/selection__sort__recursive_8c.html#aa2bc8bdd2e8ce289a6b8ef528fd1a534" target="_top" xlink:title="Returns the index having minimum value using recursion.">
<polygon fill="white" stroke="#666666" points="164.75,-19.25 109,-19.25 109,0 164.75,0 164.75,-19.25"/>
<text text-anchor="middle" x="136.88" y="-5.75" font-family="Helvetica,sans-Serif" font-size="10.00">findIndex</text>
</a>
</g>
</g>
<!-- Node1&#45;&gt;Node2 -->
<g id="edge1_Node000001_Node000002" class="edge">
<title>Node1&#45;&gt;Node2</title>
<g id="a_edge1_Node000001_Node000002"><a xlink:title=" ">
<path fill="none" stroke="#63b8ff" d="M73.29,-9.62C81.21,-9.62 89.63,-9.62 97.64,-9.62"/>
<polygon fill="#63b8ff" stroke="#63b8ff" points="97.59,-13.13 107.59,-9.62 97.59,-6.13 97.59,-13.13"/>
</a>
</g>
</g>
<!-- Node2&#45;&gt;Node2 -->
<g id="edge2_Node000002_Node000002" class="edge">
<title>Node2&#45;&gt;Node2</title>
<g id="a_edge2_Node000002_Node000002"><a xlink:title=" ">
<path fill="none" stroke="#63b8ff" d="M121.16,-19.54C113.99,-28.15 119.23,-37.25 136.88,-37.25 147.08,-37.25 153.13,-34.21 155.04,-29.98"/>
<polygon fill="#63b8ff" stroke="#63b8ff" points="158.28,-29.47 152.59,-20.54 151.46,-31.07 158.28,-29.47"/>
</a>
</g>
</g>
</g>
</svg>
