<?xml version="1.0" encoding="UTF-8" standalone="no"?>
<!DOCTYPE svg PUBLIC "-//W3C//DTD SVG 1.1//EN"
 "http://www.w3.org/Graphics/SVG/1.1/DTD/svg11.dtd">
<!-- Generated by graphviz version 2.49.3 (20211023.0002)
 -->
<!-- Title: selectionSort Pages: 1 -->
<svg width="175pt" height="84pt"
 viewBox="0.00 0.00 175.00 84.00" xmlns="http://www.w3.org/2000/svg" xmlns:xlink="http://www.w3.org/1999/xlink">
<g id="graph0" class="graph" transform="scale(1 1) rotate(0) translate(4 80)">
<title>selectionSort</title>
<polygon fill="white" stroke="transparent" points="-4,4 -4,-80 171,-80 171,4 -4,4"/>
<!-- Node1 -->
<g id="node1" class="node">
<title>Node1</title>
<g id="a_node1"><a xlink:title="Selection Sort algorithm implemented using recursion.">
<polygon fill="#bfbfbf" stroke="black" points="0,-19.5 0,-38.5 74,-38.5 74,-19.5 0,-19.5"/>
<text text-anchor="middle" x="37" y="-26.5" font-family="Helvetica,sans-Serif" font-size="10.00">selectionSort</text>
</a>
</g>
</g>
<!-- Node1&#45;&gt;Node1 -->
<g id="edge3" class="edge">
<title>Node1&#45;&gt;Node1</title>
<path fill="none" stroke="midnightblue" d="M21.59,-38.76C14.09,-47.57 19.23,-57 37,-57 48.11,-57 54.28,-53.31 55.52,-48.4"/>
<polygon fill="midnightblue" stroke="midnightblue" points="58.81,-47.2 52.41,-38.76 52.15,-49.35 58.81,-47.2"/>
</g>
<!-- Node2 -->
<g id="node2" class="node">
<title>Node2</title>
<g id="a_node2"><a xlink:href="../../dc/d39/selection__sort__recursive_8c.html#aa2bc8bdd2e8ce289a6b8ef528fd1a534" target="_top" xlink:title="Returns the index having minimum value using recursion.">
<polygon fill="white" stroke="black" points="110,-38.5 110,-57.5 167,-57.5 167,-38.5 110,-38.5"/>
<text text-anchor="middle" x="138.5" y="-45.5" font-family="Helvetica,sans-Serif" font-size="10.00">findIndex</text>
</a>
</g>
</g>
<!-- Node1&#45;&gt;Node2 -->
<g id="edge1" class="edge">
<title>Node1&#45;&gt;Node2</title>
<path fill="none" stroke="midnightblue" d="M74.2,-35.91C82.58,-37.51 91.51,-39.22 99.94,-40.83"/>
<polygon fill="midnightblue" stroke="midnightblue" points="99.43,-44.29 109.91,-42.73 100.74,-37.42 99.43,-44.29"/>
</g>
<!-- Node3 -->
<g id="node3" class="node">
<title>Node3</title>
<g id="a_node3"><a xlink:href="../../dc/d39/selection__sort__recursive_8c.html#aaf68497ab808b560dbf109da6435905a" target="_top" xlink:title="for assert">
<polygon fill="white" stroke="black" points="118.5,-0.5 118.5,-19.5 158.5,-19.5 158.5,-0.5 118.5,-0.5"/>
<text text-anchor="middle" x="138.5" y="-7.5" font-family="Helvetica,sans-Serif" font-size="10.00">swap</text>
</a>
</g>
</g>
<!-- Node1&#45;&gt;Node3 -->
<g id="edge4" class="edge">
<title>Node1&#45;&gt;Node3</title>
<path fill="none" stroke="midnightblue" d="M74.2,-22.09C85.37,-19.95 97.53,-17.63 108.17,-15.6"/>
<polygon fill="midnightblue" stroke="midnightblue" points="109.06,-18.99 118.22,-13.68 107.74,-12.12 109.06,-18.99"/>
</g>
<!-- Node2&#45;&gt;Node2 -->
<g id="edge2" class="edge">
<title>Node2&#45;&gt;Node2</title>
<path fill="none" stroke="midnightblue" d="M123.09,-57.76C115.59,-66.57 120.73,-76 138.5,-76 149.61,-76 155.78,-72.31 157.02,-67.4"/>
<polygon fill="midnightblue" stroke="midnightblue" points="160.31,-66.2 153.91,-57.76 153.65,-68.35 160.31,-66.2"/>
</g>
</g>
</svg>
