<?xml version="1.0" encoding="UTF-8" standalone="no"?>
<!DOCTYPE svg PUBLIC "-//W3C//DTD SVG 1.1//EN"
 "http://www.w3.org/Graphics/SVG/1.1/DTD/svg11.dtd">
<!-- Generated by graphviz version 8.0.2 (20230410.1723)
 -->
<!-- Title: main Pages: 1 -->
<svg width="317pt" height="45pt"
 viewBox="0.00 0.00 317.00 45.00" xmlns="http://www.w3.org/2000/svg" xmlns:xlink="http://www.w3.org/1999/xlink">
<g id="graph0" class="graph" transform="scale(1 1) rotate(0) translate(4 41)">
<title>main</title>
<!-- Node1 -->
<g id="node1" class="node">
<title>Node1</title>
<g id="a_node1"><a xlink:title="Main function.">
<polygon fill="#999999" stroke="#666666" points="38,-19 0,-19 0,0 38,0 38,-19"/>
<text text-anchor="middle" x="19" y="-7" font-family="Helvetica,sans-Serif" font-size="10.00">main</text>
</a>
</g>
</g>
<!-- Node2 -->
<g id="node2" class="node">
<title>Node2</title>
<g id="a_node2"><a xlink:href="../../dc/d39/selection__sort__recursive_8c.html#aa8dca7b867074164d5f45b0f3851269d" target="_top" xlink:title="Self&#45;test implementations.">
<polygon fill="white" stroke="#666666" points="107,-19 74,-19 74,0 107,0 107,-19"/>
<text text-anchor="middle" x="90.5" y="-7" font-family="Helvetica,sans-Serif" font-size="10.00">test</text>
</a>
</g>
</g>
<!-- Node1&#45;&gt;Node2 -->
<g id="edge1" class="edge">
<title>Node1&#45;&gt;Node2</title>
<path fill="none" stroke="#63b8ff" d="M38.26,-9.5C45.89,-9.5 54.9,-9.5 63.23,-9.5"/>
<polygon fill="#63b8ff" stroke="#63b8ff" points="62.95,-13 72.95,-9.5 62.95,-6 62.95,-13"/>
</g>
<!-- Node3 -->
<g id="node3" class="node">
<title>Node3</title>
<g id="a_node3"><a xlink:href="../../dc/d39/selection__sort__recursive_8c.html#a3f04d850b94a34dcaaed0e7bc7475241" target="_top" xlink:title="Selection Sort algorithm implemented using recursion.">
<polygon fill="white" stroke="#666666" points="217,-19 143,-19 143,0 217,0 217,-19"/>
<text text-anchor="middle" x="180" y="-7" font-family="Helvetica,sans-Serif" font-size="10.00">selectionSort</text>
</a>
</g>
</g>
<!-- Node2&#45;&gt;Node3 -->
<g id="edge2" class="edge">
<title>Node2&#45;&gt;Node3</title>
<path fill="none" stroke="#63b8ff" d="M107.14,-9.5C114.2,-9.5 122.95,-9.5 131.9,-9.5"/>
<polygon fill="#63b8ff" stroke="#63b8ff" points="131.79,-13 141.79,-9.5 131.79,-6 131.79,-13"/>
</g>
<!-- Node3&#45;&gt;Node3 -->
<g id="edge5" class="edge">
<title>Node3&#45;&gt;Node3</title>
<path fill="none" stroke="#63b8ff" d="M165.99,-19.37C159.6,-27.94 164.27,-37 180,-37 188.85,-37 194.2,-34.13 196.05,-30.1"/>
<polygon fill="#63b8ff" stroke="#63b8ff" points="199.32,-29.54 194.01,-20.37 192.44,-30.85 199.32,-29.54"/>
</g>
<!-- Node4 -->
<g id="node4" class="node">
<title>Node4</title>
<g id="a_node4"><a xlink:href="../../dc/d39/selection__sort__recursive_8c.html#aa2bc8bdd2e8ce289a6b8ef528fd1a534" target="_top" xlink:title="Returns the index having minimum value using recursion.">
<polygon fill="white" stroke="#666666" points="309,-19 253,-19 253,0 309,0 309,-19"/>
<text text-anchor="middle" x="281" y="-7" font-family="Helvetica,sans-Serif" font-size="10.00">findIndex</text>
</a>
</g>
</g>
<!-- Node3&#45;&gt;Node4 -->
<g id="edge3" class="edge">
<title>Node3&#45;&gt;Node4</title>
<path fill="none" stroke="#63b8ff" d="M217.3,-9.5C225.25,-9.5 233.7,-9.5 241.72,-9.5"/>
<polygon fill="#63b8ff" stroke="#63b8ff" points="241.7,-13 251.7,-9.5 241.7,-6 241.7,-13"/>
</g>
<!-- Node4&#45;&gt;Node4 -->
<g id="edge4" class="edge">
<title>Node4&#45;&gt;Node4</title>
<path fill="none" stroke="#63b8ff" d="M265.19,-19.37C257.98,-27.94 263.25,-37 281,-37 290.99,-37 297.02,-34.13 299.11,-30.1"/>
<polygon fill="#63b8ff" stroke="#63b8ff" points="302.33,-29.41 296.81,-20.37 295.48,-30.88 302.33,-29.41"/>
</g>
</g>
</svg>
