<?xml version="1.0" encoding="UTF-8" standalone="no"?>
<!DOCTYPE svg PUBLIC "-//W3C//DTD SVG 1.1//EN"
 "http://www.w3.org/Graphics/SVG/1.1/DTD/svg11.dtd">
<!-- Generated by graphviz version 8.0.5 (20230430.1635)
 -->
<!-- Title: test Pages: 1 -->
<svg width="241pt" height="45pt"
 viewBox="0.00 0.00 241.25 45.25" xmlns="http://www.w3.org/2000/svg" xmlns:xlink="http://www.w3.org/1999/xlink">
<g id="graph0" class="graph" transform="scale(1 1) rotate(0) translate(4 41.25)">
<title>test</title>
<!-- Node1 -->
<g id="Node000001" class="node">
<title>Node1</title>
<g id="a_Node000001"><a xlink:title="Self&#45;test implementations.">
<polygon fill="#999999" stroke="#666666" points="32.5,-19.25 0,-19.25 0,0 32.5,0 32.5,-19.25"/>
<text text-anchor="middle" x="16.25" y="-5.75" font-family="Helvetica,sans-Serif" font-size="10.00">test</text>
</a>
</g>
</g>
<!-- Node2 -->
<g id="Node000002" class="node">
<title>Node2</title>
<g id="a_Node000002"><a xlink:href="../../dc/d39/selection__sort__recursive_8c.html#a3f04d850b94a34dcaaed0e7bc7475241" target="_top" xlink:title="Selection Sort algorithm implemented using recursion.">
<polygon fill="white" stroke="#666666" points="141.5,-19.25 68.5,-19.25 68.5,0 141.5,0 141.5,-19.25"/>
<text text-anchor="middle" x="105" y="-5.75" font-family="Helvetica,sans-Serif" font-size="10.00">selectionSort</text>
</a>
</g>
</g>
<!-- Node1&#45;&gt;Node2 -->
<g id="edge1_Node000001_Node000002" class="edge">
<title>Node1&#45;&gt;Node2</title>
<g id="a_edge1_Node000001_Node000002"><a xlink:title=" ">
<path fill="none" stroke="#63b8ff" d="M32.76,-9.62C39.76,-9.62 48.44,-9.62 57.3,-9.62"/>
<polygon fill="#63b8ff" stroke="#63b8ff" points="57.1,-13.13 67.1,-9.62 57.1,-6.13 57.1,-13.13"/>
</a>
</g>
</g>
<!-- Node2&#45;&gt;Node2 -->
<g id="edge4_Node000002_Node000002" class="edge">
<title>Node2&#45;&gt;Node2</title>
<g id="a_edge4_Node000002_Node000002"><a xlink:title=" ">
<path fill="none" stroke="#63b8ff" d="M91.11,-19.54C84.77,-28.15 89.4,-37.25 105,-37.25 113.78,-37.25 119.08,-34.37 120.91,-30.32"/>
<polygon fill="#63b8ff" stroke="#63b8ff" points="124.18,-29.72 118.89,-20.54 117.3,-31.01 124.18,-29.72"/>
</a>
</g>
</g>
<!-- Node3 -->
<g id="Node000003" class="node">
<title>Node3</title>
<g id="a_Node000003"><a xlink:href="../../dc/d39/selection__sort__recursive_8c.html#aa2bc8bdd2e8ce289a6b8ef528fd1a534" target="_top" xlink:title="Returns the index having minimum value using recursion.">
<polygon fill="white" stroke="#666666" points="233.25,-19.25 177.5,-19.25 177.5,0 233.25,0 233.25,-19.25"/>
<text text-anchor="middle" x="205.38" y="-5.75" font-family="Helvetica,sans-Serif" font-size="10.00">findIndex</text>
</a>
</g>
</g>
<!-- Node2&#45;&gt;Node3 -->
<g id="edge2_Node000002_Node000003" class="edge">
<title>Node2&#45;&gt;Node3</title>
<g id="a_edge2_Node000002_Node000003"><a xlink:title=" ">
<path fill="none" stroke="#63b8ff" d="M141.79,-9.62C149.71,-9.62 158.13,-9.62 166.14,-9.62"/>
<polygon fill="#63b8ff" stroke="#63b8ff" points="166.09,-13.13 176.09,-9.62 166.09,-6.13 166.09,-13.13"/>
</a>
</g>
</g>
<!-- Node3&#45;&gt;Node3 -->
<g id="edge3_Node000003_Node000003" class="edge">
<title>Node3&#45;&gt;Node3</title>
<g id="a_edge3_Node000003_Node000003"><a xlink:title=" ">
<path fill="none" stroke="#63b8ff" d="M189.66,-19.54C182.49,-28.15 187.73,-37.25 205.38,-37.25 215.58,-37.25 221.63,-34.21 223.54,-29.98"/>
<polygon fill="#63b8ff" stroke="#63b8ff" points="226.78,-29.47 221.09,-20.54 219.96,-31.07 226.78,-29.47"/>
</a>
</g>
</g>
</g>
</svg>
