<?xml version="1.0" encoding="UTF-8" standalone="no"?>
<!DOCTYPE svg PUBLIC "-//W3C//DTD SVG 1.1//EN"
 "http://www.w3.org/Graphics/SVG/1.1/DTD/svg11.dtd">
<!-- Generated by graphviz version 5.0.1 (20220820.1526)
 -->
<!-- Title: selectionSort Pages: 1 -->
<svg width="174pt" height="45pt"
 viewBox="0.00 0.00 174.00 45.00" xmlns="http://www.w3.org/2000/svg" xmlns:xlink="http://www.w3.org/1999/xlink">
<g id="graph0" class="graph" transform="scale(1 1) rotate(0) translate(4 41)">
<title>selectionSort</title>
<!-- Node1 -->
<g id="node1" class="node">
<title>Node1</title>
<g id="a_node1"><a xlink:title="Selection Sort algorithm implemented using recursion.">
<polygon fill="#999999" stroke="#666666" points="74,-19 0,-19 0,0 74,0 74,-19"/>
<text text-anchor="middle" x="37" y="-7" font-family="Helvetica,sans-Serif" font-size="10.00">selectionSort</text>
</a>
</g>
</g>
<!-- Node1&#45;&gt;Node1 -->
<g id="edge3" class="edge">
<title>Node1&#45;&gt;Node1</title>
<path fill="none" stroke="#63b8ff" d="M21.59,-19.08C14.09,-27.73 19.23,-37 37,-37 47.83,-37 53.97,-33.56 55.42,-28.91"/>
<polygon fill="#63b8ff" stroke="#63b8ff" points="58.68,-27.62 52.41,-19.08 51.99,-29.67 58.68,-27.62"/>
</g>
<!-- Node2 -->
<g id="node2" class="node">
<title>Node2</title>
<g id="a_node2"><a xlink:href="../../dc/d39/selection__sort__recursive_8c.html#aa2bc8bdd2e8ce289a6b8ef528fd1a534" target="_top" xlink:title="Returns the index having minimum value using recursion.">
<polygon fill="white" stroke="#666666" points="166,-19 110,-19 110,0 166,0 166,-19"/>
<text text-anchor="middle" x="138" y="-7" font-family="Helvetica,sans-Serif" font-size="10.00">findIndex</text>
</a>
</g>
</g>
<!-- Node1&#45;&gt;Node2 -->
<g id="edge1" class="edge">
<title>Node1&#45;&gt;Node2</title>
<path fill="none" stroke="#63b8ff" d="M74.02,-9.5C82.34,-9.5 91.21,-9.5 99.59,-9.5"/>
<polygon fill="#63b8ff" stroke="#63b8ff" points="99.85,-13 109.85,-9.5 99.85,-6 99.85,-13"/>
</g>
<!-- Node2&#45;&gt;Node2 -->
<g id="edge2" class="edge">
<title>Node2&#45;&gt;Node2</title>
<path fill="none" stroke="#63b8ff" d="M122.59,-19.08C115.09,-27.73 120.23,-37 138,-37 148.83,-37 154.97,-33.56 156.42,-28.91"/>
<polygon fill="#63b8ff" stroke="#63b8ff" points="159.68,-27.62 153.41,-19.08 152.99,-29.67 159.68,-27.62"/>
</g>
</g>
</svg>
