<?xml version="1.0" encoding="UTF-8" standalone="no"?>
<!DOCTYPE svg PUBLIC "-//W3C//DTD SVG 1.1//EN"
 "http://www.w3.org/Graphics/SVG/1.1/DTD/svg11.dtd">
<!-- Generated by graphviz version 8.0.2 (20230410.1723)
 -->
<!-- Title: selectionSort Pages: 1 -->
<svg width="174pt" height="45pt"
 viewBox="0.00 0.00 174.00 45.00" xmlns="http://www.w3.org/2000/svg" xmlns:xlink="http://www.w3.org/1999/xlink">
<g id="graph0" class="graph" transform="scale(1 1) rotate(0) translate(4 41)">
<title>selectionSort</title>
<!-- Node1 -->
<g id="node1" class="node">
<title>Node1</title>
<g id="a_node1"><a xlink:title="Selection Sort algorithm implemented using recursion.">
<polygon fill="#999999" stroke="#666666" points="74,-19 0,-19 0,0 74,0 74,-19"/>
<text text-anchor="middle" x="37" y="-7" font-family="Helvetica,sans-Serif" font-size="10.00">selectionSort</text>
</a>
</g>
</g>
<!-- Node1&#45;&gt;Node1 -->
<g id="edge3" class="edge">
<title>Node1&#45;&gt;Node1</title>
<path fill="none" stroke="#63b8ff" d="M21.19,-19.37C13.98,-27.94 19.25,-37 37,-37 46.99,-37 53.02,-34.13 55.11,-30.1"/>
<polygon fill="#63b8ff" stroke="#63b8ff" points="58.33,-29.41 52.81,-20.37 51.48,-30.88 58.33,-29.41"/>
</g>
<!-- Node2 -->
<g id="node2" class="node">
<title>Node2</title>
<g id="a_node2"><a xlink:href="../../dc/d39/selection__sort__recursive_8c.html#aa2bc8bdd2e8ce289a6b8ef528fd1a534" target="_top" xlink:title="Returns the index having minimum value using recursion.">
<polygon fill="white" stroke="#666666" points="166,-19 110,-19 110,0 166,0 166,-19"/>
<text text-anchor="middle" x="138" y="-7" font-family="Helvetica,sans-Serif" font-size="10.00">findIndex</text>
</a>
</g>
</g>
<!-- Node1&#45;&gt;Node2 -->
<g id="edge1" class="edge">
<title>Node1&#45;&gt;Node2</title>
<path fill="none" stroke="#63b8ff" d="M74.3,-9.5C82.25,-9.5 90.7,-9.5 98.72,-9.5"/>
<polygon fill="#63b8ff" stroke="#63b8ff" points="98.7,-13 108.7,-9.5 98.7,-6 98.7,-13"/>
</g>
<!-- Node2&#45;&gt;Node2 -->
<g id="edge2" class="edge">
<title>Node2&#45;&gt;Node2</title>
<path fill="none" stroke="#63b8ff" d="M122.19,-19.37C114.98,-27.94 120.25,-37 138,-37 147.99,-37 154.02,-34.13 156.11,-30.1"/>
<polygon fill="#63b8ff" stroke="#63b8ff" points="159.33,-29.41 153.81,-20.37 152.48,-30.88 159.33,-29.41"/>
</g>
</g>
</svg>
