<?xml version="1.0" encoding="UTF-8" standalone="no"?>
<!DOCTYPE svg PUBLIC "-//W3C//DTD SVG 1.1//EN"
 "http://www.w3.org/Graphics/SVG/1.1/DTD/svg11.dtd">
<!-- Generated by graphviz version 3.0.0 (20220226.1711)
 -->
<!-- Title: selectionSort Pages: 1 -->
<svg width="174pt" height="84pt"
 viewBox="0.00 0.00 174.00 84.00" xmlns="http://www.w3.org/2000/svg" xmlns:xlink="http://www.w3.org/1999/xlink">
<g id="graph0" class="graph" transform="scale(1 1) rotate(0) translate(4 80)">
<title>selectionSort</title>
<polygon fill="white" stroke="transparent" points="-4,4 -4,-80 170,-80 170,4 -4,4"/>
<!-- Node1 -->
<g id="node1" class="node">
<title>Node1</title>
<g id="a_node1"><a xlink:title="Selection Sort algorithm implemented using recursion.">
<polygon fill="#bfbfbf" stroke="black" points="0,-19.5 0,-38.5 74,-38.5 74,-19.5 0,-19.5"/>
<text text-anchor="middle" x="37" y="-26.5" font-family="Helvetica,sans-Serif" font-size="10.00">selectionSort</text>
</a>
</g>
</g>
<!-- Node1&#45;&gt;Node1 -->
<g id="edge3" class="edge">
<title>Node1&#45;&gt;Node1</title>
<path fill="none" stroke="midnightblue" d="M21.59,-38.76C14.09,-47.57 19.23,-57 37,-57 48.11,-57 54.28,-53.31 55.52,-48.4"/>
<polygon fill="midnightblue" stroke="midnightblue" points="58.81,-47.2 52.41,-38.76 52.15,-49.35 58.81,-47.2"/>
</g>
<!-- Node2 -->
<g id="node2" class="node">
<title>Node2</title>
<g id="a_node2"><a xlink:href="../../dc/d39/selection__sort__recursive_8c.html#aa2bc8bdd2e8ce289a6b8ef528fd1a534" target="_top" xlink:title="Returns the index having minimum value using recursion.">
<polygon fill="white" stroke="black" points="110,-38.5 110,-57.5 166,-57.5 166,-38.5 110,-38.5"/>
<text text-anchor="middle" x="138" y="-45.5" font-family="Helvetica,sans-Serif" font-size="10.00">findIndex</text>
</a>
</g>
</g>
<!-- Node1&#45;&gt;Node2 -->
<g id="edge1" class="edge">
<title>Node1&#45;&gt;Node2</title>
<path fill="none" stroke="midnightblue" d="M74.02,-35.91C82.43,-37.53 91.41,-39.25 99.86,-40.87"/>
<polygon fill="midnightblue" stroke="midnightblue" points="99.37,-44.34 109.85,-42.79 100.69,-37.47 99.37,-44.34"/>
</g>
<!-- Node3 -->
<g id="node3" class="node">
<title>Node3</title>
<g id="a_node3"><a xlink:href="../../dc/d39/selection__sort__recursive_8c.html#aaf68497ab808b560dbf109da6435905a" target="_top" xlink:title="for assert">
<polygon fill="white" stroke="black" points="118,-0.5 118,-19.5 158,-19.5 158,-0.5 118,-0.5"/>
<text text-anchor="middle" x="138" y="-7.5" font-family="Helvetica,sans-Serif" font-size="10.00">swap</text>
</a>
</g>
</g>
<!-- Node1&#45;&gt;Node3 -->
<g id="edge4" class="edge">
<title>Node1&#45;&gt;Node3</title>
<path fill="none" stroke="midnightblue" d="M74.02,-22.09C85.13,-19.95 97.23,-17.63 107.82,-15.6"/>
<polygon fill="midnightblue" stroke="midnightblue" points="108.66,-19 117.82,-13.68 107.34,-12.13 108.66,-19"/>
</g>
<!-- Node2&#45;&gt;Node2 -->
<g id="edge2" class="edge">
<title>Node2&#45;&gt;Node2</title>
<path fill="none" stroke="midnightblue" d="M122.59,-57.76C115.09,-66.57 120.23,-76 138,-76 149.11,-76 155.28,-72.31 156.52,-67.4"/>
<polygon fill="midnightblue" stroke="midnightblue" points="159.81,-66.2 153.41,-57.76 153.15,-68.35 159.81,-66.2"/>
</g>
</g>
</svg>
