<?xml version="1.0" encoding="UTF-8" standalone="no"?>
<!DOCTYPE svg PUBLIC "-//W3C//DTD SVG 1.1//EN"
 "http://www.w3.org/Graphics/SVG/1.1/DTD/svg11.dtd">
<!-- Generated by graphviz version 8.0.5 (20230430.1635)
 -->
<!-- Title: main Pages: 1 -->
<svg width="126pt" height="64pt"
 viewBox="0.00 0.00 126.25 64.25" xmlns="http://www.w3.org/2000/svg" xmlns:xlink="http://www.w3.org/1999/xlink">
<g id="graph0" class="graph" transform="scale(1 1) rotate(0) translate(4 60.25)">
<title>main</title>
<!-- Node1 -->
<g id="Node000001" class="node">
<title>Node1</title>
<g id="a_Node000001"><a xlink:title="main function">
<polygon fill="#999999" stroke="#666666" points="37,-37.25 0,-37.25 0,-18 37,-18 37,-37.25"/>
<text text-anchor="middle" x="18.5" y="-23.75" font-family="Helvetica,sans-Serif" font-size="10.00">main</text>
</a>
</g>
</g>
<!-- Node2 -->
<g id="Node000002" class="node">
<title>Node2</title>
<g id="a_Node000002"><a xlink:href="../../dd/d08/newton__raphson__root_8c.html#ae713a1fd0c275fbec7edf263ac2c0337" target="_top" xlink:title="Return first order derivative of the function.">
<polygon fill="white" stroke="#666666" points="118.25,-56.25 73,-56.25 73,-37 118.25,-37 118.25,-56.25"/>
<text text-anchor="middle" x="95.62" y="-42.75" font-family="Helvetica,sans-Serif" font-size="10.00">d_func</text>
</a>
</g>
</g>
<!-- Node1&#45;&gt;Node2 -->
<g id="edge1_Node000001_Node000002" class="edge">
<title>Node1&#45;&gt;Node2</title>
<g id="a_edge1_Node000001_Node000002"><a xlink:title=" ">
<path fill="none" stroke="#63b8ff" d="M37.3,-32.13C44.75,-34.01 53.64,-36.26 62.17,-38.42"/>
<polygon fill="#63b8ff" stroke="#63b8ff" points="61.1,-42.01 71.65,-41.07 62.82,-35.22 61.1,-42.01"/>
</a>
</g>
</g>
<!-- Node3 -->
<g id="Node000003" class="node">
<title>Node3</title>
<g id="a_Node000003"><a xlink:href="../../dd/d08/newton__raphson__root_8c.html#a72f87d423a488946b319627a454d3925" target="_top" xlink:title="Return value of the function to find the root for.">
<polygon fill="white" stroke="#666666" points="113,-19.25 78.25,-19.25 78.25,0 113,0 113,-19.25"/>
<text text-anchor="middle" x="95.62" y="-5.75" font-family="Helvetica,sans-Serif" font-size="10.00">func</text>
</a>
</g>
</g>
<!-- Node1&#45;&gt;Node3 -->
<g id="edge2_Node000001_Node000003" class="edge">
<title>Node1&#45;&gt;Node3</title>
<g id="a_edge2_Node000001_Node000003"><a xlink:title=" ">
<path fill="none" stroke="#63b8ff" d="M37.3,-23.36C46.26,-21.21 57.3,-18.57 67.3,-16.17"/>
<polygon fill="#63b8ff" stroke="#63b8ff" points="68.07,-19.35 76.98,-13.61 66.44,-12.54 68.07,-19.35"/>
</a>
</g>
</g>
</g>
</svg>
