<?xml version="1.0" encoding="UTF-8" standalone="no"?>
<!DOCTYPE svg PUBLIC "-//W3C//DTD SVG 1.1//EN"
 "http://www.w3.org/Graphics/SVG/1.1/DTD/svg11.dtd">
<!-- Generated by graphviz version 7.0.6 (20230106.0513)
 -->
<!-- Title: main Pages: 1 -->
<svg width="128pt" height="64pt"
 viewBox="0.00 0.00 128.00 64.00" xmlns="http://www.w3.org/2000/svg" xmlns:xlink="http://www.w3.org/1999/xlink">
<g id="graph0" class="graph" transform="scale(1 1) rotate(0) translate(4 60)">
<title>main</title>
<!-- Node1 -->
<g id="node1" class="node">
<title>Node1</title>
<g id="a_node1"><a xlink:title="main function">
<polygon fill="#999999" stroke="#666666" points="38,-37 0,-37 0,-18 38,-18 38,-37"/>
<text text-anchor="middle" x="19" y="-25" font-family="Helvetica,sans-Serif" font-size="10.00">main</text>
</a>
</g>
</g>
<!-- Node2 -->
<g id="node2" class="node">
<title>Node2</title>
<g id="a_node2"><a xlink:href="../../dd/d08/newton__raphson__root_8c.html#ae713a1fd0c275fbec7edf263ac2c0337" target="_top" xlink:title="Return first order derivative of the function.">
<polygon fill="white" stroke="#666666" points="120,-56 74,-56 74,-37 120,-37 120,-56"/>
<text text-anchor="middle" x="97" y="-44" font-family="Helvetica,sans-Serif" font-size="10.00">d_func</text>
</a>
</g>
</g>
<!-- Node1&#45;&gt;Node2 -->
<g id="edge1" class="edge">
<title>Node1&#45;&gt;Node2</title>
<path fill="none" stroke="#63b8ff" d="M38.4,-32.1C45.71,-33.93 54.35,-36.09 62.68,-38.17"/>
<polygon fill="#63b8ff" stroke="#63b8ff" points="61.69,-41.53 72.24,-40.56 63.39,-34.74 61.69,-41.53"/>
</g>
<!-- Node3 -->
<g id="node3" class="node">
<title>Node3</title>
<g id="a_node3"><a xlink:href="../../dd/d08/newton__raphson__root_8c.html#a72f87d423a488946b319627a454d3925" target="_top" xlink:title="Return value of the function to find the root for.">
<polygon fill="white" stroke="#666666" points="114.5,-19 79.5,-19 79.5,0 114.5,0 114.5,-19"/>
<text text-anchor="middle" x="97" y="-7" font-family="Helvetica,sans-Serif" font-size="10.00">func</text>
</a>
</g>
</g>
<!-- Node1&#45;&gt;Node3 -->
<g id="edge2" class="edge">
<title>Node1&#45;&gt;Node3</title>
<path fill="none" stroke="#63b8ff" d="M38.4,-23.14C47.3,-21.03 58.18,-18.46 68.08,-16.11"/>
<polygon fill="#63b8ff" stroke="#63b8ff" points="68.67,-19.57 77.6,-13.86 67.06,-12.76 68.67,-19.57"/>
</g>
</g>
</svg>
