<?xml version="1.0" encoding="UTF-8" standalone="no"?>
<!DOCTYPE svg PUBLIC "-//W3C//DTD SVG 1.1//EN"
 "http://www.w3.org/Graphics/SVG/1.1/DTD/svg11.dtd">
<!-- Generated by graphviz version 3.0.0 (20220226.1711)
 -->
<!-- Title: main Pages: 1 -->
<svg width="128pt" height="66pt"
 viewBox="0.00 0.00 128.00 66.00" xmlns="http://www.w3.org/2000/svg" xmlns:xlink="http://www.w3.org/1999/xlink">
<g id="graph0" class="graph" transform="scale(1 1) rotate(0) translate(4 62)">
<title>main</title>
<polygon fill="white" stroke="transparent" points="-4,4 -4,-62 124,-62 124,4 -4,4"/>
<!-- Node1 -->
<g id="node1" class="node">
<title>Node1</title>
<g id="a_node1"><a xlink:title="main function">
<polygon fill="#bfbfbf" stroke="black" points="0,-19.5 0,-38.5 38,-38.5 38,-19.5 0,-19.5"/>
<text text-anchor="middle" x="19" y="-26.5" font-family="Helvetica,sans-Serif" font-size="10.00">main</text>
</a>
</g>
</g>
<!-- Node2 -->
<g id="node2" class="node">
<title>Node2</title>
<g id="a_node2"><a xlink:href="../../dd/d08/newton__raphson__root_8c.html#ae713a1fd0c275fbec7edf263ac2c0337" target="_top" xlink:title="Return first order derivative of the function.">
<polygon fill="white" stroke="black" points="74,-38.5 74,-57.5 120,-57.5 120,-38.5 74,-38.5"/>
<text text-anchor="middle" x="97" y="-45.5" font-family="Helvetica,sans-Serif" font-size="10.00">d_func</text>
</a>
</g>
</g>
<!-- Node1&#45;&gt;Node2 -->
<g id="edge1" class="edge">
<title>Node1&#45;&gt;Node2</title>
<path fill="none" stroke="midnightblue" d="M38.01,-33.5C45.79,-35.45 55.14,-37.78 64.03,-40.01"/>
<polygon fill="midnightblue" stroke="midnightblue" points="63.22,-43.41 73.77,-42.44 64.92,-36.62 63.22,-43.41"/>
</g>
<!-- Node3 -->
<g id="node3" class="node">
<title>Node3</title>
<g id="a_node3"><a xlink:href="../../dd/d08/newton__raphson__root_8c.html#a72f87d423a488946b319627a454d3925" target="_top" xlink:title="Return value of the function to find the root for.">
<polygon fill="white" stroke="black" points="79.5,-0.5 79.5,-19.5 114.5,-19.5 114.5,-0.5 79.5,-0.5"/>
<text text-anchor="middle" x="97" y="-7.5" font-family="Helvetica,sans-Serif" font-size="10.00">func</text>
</a>
</g>
</g>
<!-- Node1&#45;&gt;Node3 -->
<g id="edge2" class="edge">
<title>Node1&#45;&gt;Node3</title>
<path fill="none" stroke="midnightblue" d="M38.01,-24.5C47.43,-22.14 59.13,-19.22 69.55,-16.61"/>
<polygon fill="midnightblue" stroke="midnightblue" points="70.56,-19.97 79.42,-14.15 68.87,-13.18 70.56,-19.97"/>
</g>
</g>
</svg>
