<?xml version="1.0" encoding="UTF-8" standalone="no"?>
<!DOCTYPE svg PUBLIC "-//W3C//DTD SVG 1.1//EN"
 "http://www.w3.org/Graphics/SVG/1.1/DTD/svg11.dtd">
<!-- Generated by graphviz version 7.0.6 (20230106.0513)
 -->
<!-- Title: main Pages: 1 -->
<svg width="254pt" height="27pt"
 viewBox="0.00 0.00 254.00 27.00" xmlns="http://www.w3.org/2000/svg" xmlns:xlink="http://www.w3.org/1999/xlink">
<g id="graph0" class="graph" transform="scale(1 1) rotate(0) translate(4 23)">
<title>main</title>
<!-- Node1 -->
<g id="node1" class="node">
<title>Node1</title>
<g id="a_node1"><a xlink:title="Main function.">
<polygon fill="#999999" stroke="#666666" points="38,-19 0,-19 0,0 38,0 38,-19"/>
<text text-anchor="middle" x="19" y="-7" font-family="Helvetica,sans-Serif" font-size="10.00">main</text>
</a>
</g>
</g>
<!-- Node2 -->
<g id="node2" class="node">
<title>Node2</title>
<g id="a_node2"><a xlink:href="../../d0/d6d/problem__10_2sol1_8c.html#ae3d987cb2ad0ddb0c3caa4c2506a20e5" target="_top" xlink:title="Computes sum of prime numbers less than N.">
<polygon fill="white" stroke="#666666" points="157,-19 74,-19 74,0 157,0 157,-19"/>
<text text-anchor="middle" x="115.5" y="-7" font-family="Helvetica,sans-Serif" font-size="10.00">sum_of_primes</text>
</a>
</g>
</g>
<!-- Node1&#45;&gt;Node2 -->
<g id="edge1" class="edge">
<title>Node1&#45;&gt;Node2</title>
<path fill="none" stroke="#63b8ff" d="M38.22,-9.5C45.23,-9.5 53.63,-9.5 62.26,-9.5"/>
<polygon fill="#63b8ff" stroke="#63b8ff" points="62.12,-13 72.12,-9.5 62.12,-6 62.12,-13"/>
</g>
<!-- Node3 -->
<g id="node3" class="node">
<title>Node3</title>
<g id="a_node3"><a xlink:href="../../d0/d6d/problem__10_2sol1_8c.html#acc871ab6bfead702e983a7f9c412915f" target="_top" xlink:title="Function to check if a number is prime.">
<polygon fill="white" stroke="#666666" points="246,-19 193,-19 193,0 246,0 246,-19"/>
<text text-anchor="middle" x="219.5" y="-7" font-family="Helvetica,sans-Serif" font-size="10.00">is_prime</text>
</a>
</g>
</g>
<!-- Node2&#45;&gt;Node3 -->
<g id="edge2" class="edge">
<title>Node2&#45;&gt;Node3</title>
<path fill="none" stroke="#63b8ff" d="M157.4,-9.5C165.28,-9.5 173.49,-9.5 181.24,-9.5"/>
<polygon fill="#63b8ff" stroke="#63b8ff" points="181.04,-13 191.04,-9.5 181.04,-6 181.04,-13"/>
</g>
</g>
</svg>
