<?xml version="1.0" encoding="UTF-8" standalone="no"?>
<!DOCTYPE svg PUBLIC "-//W3C//DTD SVG 1.1//EN"
 "http://www.w3.org/Graphics/SVG/1.1/DTD/svg11.dtd">
<!-- Generated by graphviz version 2.49.3 (20211023.0002)
 -->
<!-- Title: main Pages: 1 -->
<svg width="257pt" height="28pt"
 viewBox="0.00 0.00 257.00 28.00" xmlns="http://www.w3.org/2000/svg" xmlns:xlink="http://www.w3.org/1999/xlink">
<g id="graph0" class="graph" transform="scale(1 1) rotate(0) translate(4 24)">
<title>main</title>
<polygon fill="white" stroke="transparent" points="-4,4 -4,-24 253,-24 253,4 -4,4"/>
<!-- Node1 -->
<g id="node1" class="node">
<title>Node1</title>
<g id="a_node1"><a xlink:title="Main function.">
<polygon fill="#bfbfbf" stroke="black" points="0,-0.5 0,-19.5 38,-19.5 38,-0.5 0,-0.5"/>
<text text-anchor="middle" x="19" y="-7.5" font-family="Helvetica,sans-Serif" font-size="10.00">main</text>
</a>
</g>
</g>
<!-- Node2 -->
<g id="node2" class="node">
<title>Node2</title>
<g id="a_node2"><a xlink:href="../../d0/d6d/problem__10_2sol1_8c.html#ae3d987cb2ad0ddb0c3caa4c2506a20e5" target="_top" xlink:title="Computes sum of prime numbers less than N.">
<polygon fill="white" stroke="black" points="74,-0.5 74,-19.5 159,-19.5 159,-0.5 74,-0.5"/>
<text text-anchor="middle" x="116.5" y="-7.5" font-family="Helvetica,sans-Serif" font-size="10.00">sum_of_primes</text>
</a>
</g>
</g>
<!-- Node1&#45;&gt;Node2 -->
<g id="edge1" class="edge">
<title>Node1&#45;&gt;Node2</title>
<path fill="none" stroke="midnightblue" d="M38.41,-10C45.74,-10 54.57,-10 63.59,-10"/>
<polygon fill="midnightblue" stroke="midnightblue" points="63.8,-13.5 73.8,-10 63.8,-6.5 63.8,-13.5"/>
</g>
<!-- Node3 -->
<g id="node3" class="node">
<title>Node3</title>
<g id="a_node3"><a xlink:href="../../d0/d6d/problem__10_2sol1_8c.html#acc871ab6bfead702e983a7f9c412915f" target="_top" xlink:title="Function to check if a number is prime.">
<polygon fill="white" stroke="black" points="195,-0.5 195,-19.5 249,-19.5 249,-0.5 195,-0.5"/>
<text text-anchor="middle" x="222" y="-7.5" font-family="Helvetica,sans-Serif" font-size="10.00">is_prime</text>
</a>
</g>
</g>
<!-- Node2&#45;&gt;Node3 -->
<g id="edge2" class="edge">
<title>Node2&#45;&gt;Node3</title>
<path fill="none" stroke="midnightblue" d="M159,-10C167.54,-10 176.47,-10 184.81,-10"/>
<polygon fill="midnightblue" stroke="midnightblue" points="184.97,-13.5 194.97,-10 184.97,-6.5 184.97,-13.5"/>
</g>
</g>
</svg>
