<?xml version="1.0" encoding="UTF-8" standalone="no"?>
<!DOCTYPE svg PUBLIC "-//W3C//DTD SVG 1.1//EN"
 "http://www.w3.org/Graphics/SVG/1.1/DTD/svg11.dtd">
<!-- Generated by graphviz version 2.44.1 (20200629.0846)
 -->
<!-- Title: main Pages: 1 -->
<svg width="245pt" height="142pt"
 viewBox="0.00 0.00 245.00 142.00" xmlns="http://www.w3.org/2000/svg" xmlns:xlink="http://www.w3.org/1999/xlink">
<g id="graph0" class="graph" transform="scale(1 1) rotate(0) translate(4 138)">
<title>main</title>
<polygon fill="white" stroke="transparent" points="-4,4 -4,-138 241,-138 241,4 -4,4"/>
<!-- Node1 -->
<g id="node1" class="node">
<title>Node1</title>
<g id="a_node1"><a xlink:title="Main program function.">
<polygon fill="#bfbfbf" stroke="black" points="0,-57.5 0,-76.5 38,-76.5 38,-57.5 0,-57.5"/>
<text text-anchor="middle" x="19" y="-64.5" font-family="Helvetica,sans-Serif" font-size="10.00">main</text>
</a>
</g>
</g>
<!-- Node2 -->
<g id="node2" class="node">
<title>Node2</title>
<g id="a_node2"><a xlink:href="../../d3/d42/tic-tac-toe_8c.html#af76426e4c7d23dc7e1f78247fb926c63" target="_top" xlink:title="Implementation of game vs another player.">
<polygon fill="white" stroke="black" points="74,-38.5 74,-57.5 143,-57.5 143,-38.5 74,-38.5"/>
<text text-anchor="middle" x="108.5" y="-45.5" font-family="Helvetica,sans-Serif" font-size="10.00">doublemode</text>
</a>
</g>
</g>
<!-- Node1&#45;&gt;Node2 -->
<g id="edge1" class="edge">
<title>Node1&#45;&gt;Node2</title>
<path fill="none" stroke="midnightblue" d="M38.13,-63.06C45.7,-61.42 54.86,-59.43 64,-57.45"/>
<polygon fill="midnightblue" stroke="midnightblue" points="64.8,-60.85 73.83,-55.31 63.32,-54.01 64.8,-60.85"/>
</g>
<!-- Node6 -->
<g id="node6" class="node">
<title>Node6</title>
<g id="a_node6"><a xlink:href="../../d3/d42/tic-tac-toe_8c.html#a2cd7f56212cc1dc4c5e574e9f5b19b62" target="_top" xlink:title="Implementation of game vs computer.">
<polygon fill="white" stroke="black" points="75.5,-76.5 75.5,-95.5 141.5,-95.5 141.5,-76.5 75.5,-76.5"/>
<text text-anchor="middle" x="108.5" y="-83.5" font-family="Helvetica,sans-Serif" font-size="10.00">singlemode</text>
</a>
</g>
</g>
<!-- Node1&#45;&gt;Node6 -->
<g id="edge5" class="edge">
<title>Node1&#45;&gt;Node6</title>
<path fill="none" stroke="midnightblue" d="M38.13,-70.94C46.08,-72.66 55.77,-74.77 65.36,-76.85"/>
<polygon fill="midnightblue" stroke="midnightblue" points="64.73,-80.29 75.24,-79 66.21,-73.45 64.73,-80.29"/>
</g>
<!-- Node3 -->
<g id="node3" class="node">
<title>Node3</title>
<g id="a_node3"><a xlink:href="../../d3/d42/tic-tac-toe_8c.html#adfca19e26f5e1292cceb1de891215469" target="_top" xlink:title="Implementation of win conditon checker for &#39;X&#39; or &#39;O&#39; whenever the table is updated.">
<polygon fill="white" stroke="black" points="179,-76.5 179,-95.5 237,-95.5 237,-76.5 179,-76.5"/>
<text text-anchor="middle" x="208" y="-83.5" font-family="Helvetica,sans-Serif" font-size="10.00">checkwin</text>
</a>
</g>
</g>
<!-- Node2&#45;&gt;Node3 -->
<g id="edge2" class="edge">
<title>Node2&#45;&gt;Node3</title>
<path fill="none" stroke="midnightblue" d="M134.1,-57.59C145.88,-62.18 160.18,-67.75 172.97,-72.74"/>
<polygon fill="midnightblue" stroke="midnightblue" points="171.82,-76.04 182.4,-76.41 174.36,-69.52 171.82,-76.04"/>
</g>
<!-- Node4 -->
<g id="node4" class="node">
<title>Node4</title>
<g id="a_node4"><a xlink:href="../../d3/d42/tic-tac-toe_8c.html#add64ac1add50f657d9ac3fe01b5d5c0d" target="_top" xlink:title="Update table by placing an X">
<polygon fill="white" stroke="black" points="185.5,-38.5 185.5,-57.5 230.5,-57.5 230.5,-38.5 185.5,-38.5"/>
<text text-anchor="middle" x="208" y="-45.5" font-family="Helvetica,sans-Serif" font-size="10.00">placex</text>
</a>
</g>
</g>
<!-- Node2&#45;&gt;Node4 -->
<g id="edge3" class="edge">
<title>Node2&#45;&gt;Node4</title>
<path fill="none" stroke="midnightblue" d="M143.05,-48C153.44,-48 164.84,-48 175.11,-48"/>
<polygon fill="midnightblue" stroke="midnightblue" points="175.31,-51.5 185.31,-48 175.31,-44.5 175.31,-51.5"/>
</g>
<!-- Node5 -->
<g id="node5" class="node">
<title>Node5</title>
<g id="a_node5"><a xlink:href="../../d3/d42/tic-tac-toe_8c.html#aa4ac360139e9047b280bde3ed18e5c12" target="_top" xlink:title="Update table by placing an O">
<polygon fill="white" stroke="black" points="185.5,-0.5 185.5,-19.5 230.5,-19.5 230.5,-0.5 185.5,-0.5"/>
<text text-anchor="middle" x="208" y="-7.5" font-family="Helvetica,sans-Serif" font-size="10.00">placey</text>
</a>
</g>
</g>
<!-- Node2&#45;&gt;Node5 -->
<g id="edge4" class="edge">
<title>Node2&#45;&gt;Node5</title>
<path fill="none" stroke="midnightblue" d="M134.1,-38.41C146.81,-33.46 162.45,-27.36 175.98,-22.09"/>
<polygon fill="midnightblue" stroke="midnightblue" points="177.35,-25.31 185.39,-18.42 174.8,-18.79 177.35,-25.31"/>
</g>
<!-- Node6&#45;&gt;Node3 -->
<g id="edge6" class="edge">
<title>Node6&#45;&gt;Node3</title>
<path fill="none" stroke="midnightblue" d="M141.7,-86C150.31,-86 159.7,-86 168.61,-86"/>
<polygon fill="midnightblue" stroke="midnightblue" points="168.77,-89.5 178.77,-86 168.77,-82.5 168.77,-89.5"/>
</g>
<!-- Node6&#45;&gt;Node4 -->
<g id="edge8" class="edge">
<title>Node6&#45;&gt;Node4</title>
<path fill="none" stroke="midnightblue" d="M134.1,-76.41C146.81,-71.46 162.45,-65.36 175.98,-60.09"/>
<polygon fill="midnightblue" stroke="midnightblue" points="177.35,-63.31 185.39,-56.42 174.8,-56.79 177.35,-63.31"/>
</g>
<!-- Node7 -->
<g id="node7" class="node">
<title>Node7</title>
<g id="a_node7"><a xlink:href="../../d3/d42/tic-tac-toe_8c.html#a75face5dba6916d362d786f08489d39b" target="_top" xlink:title="Update table by placing an O">
<polygon fill="white" stroke="black" points="188,-114.5 188,-133.5 228,-133.5 228,-114.5 188,-114.5"/>
<text text-anchor="middle" x="208" y="-121.5" font-family="Helvetica,sans-Serif" font-size="10.00">place</text>
</a>
</g>
</g>
<!-- Node6&#45;&gt;Node7 -->
<g id="edge7" class="edge">
<title>Node6&#45;&gt;Node7</title>
<path fill="none" stroke="midnightblue" d="M134.1,-95.59C147.54,-100.83 164.25,-107.34 178.28,-112.81"/>
<polygon fill="midnightblue" stroke="midnightblue" points="177.35,-116.2 187.94,-116.57 179.89,-109.68 177.35,-116.2"/>
</g>
</g>
</svg>
