<?xml version="1.0" encoding="UTF-8" standalone="no"?>
<!DOCTYPE svg PUBLIC "-//W3C//DTD SVG 1.1//EN"
 "http://www.w3.org/Graphics/SVG/1.1/DTD/svg11.dtd">
<!-- Generated by graphviz version 2.44.1 (20200629.0846)
 -->
<!-- Title: doublemode Pages: 1 -->
<svg width="171pt" height="104pt"
 viewBox="0.00 0.00 171.00 104.00" xmlns="http://www.w3.org/2000/svg" xmlns:xlink="http://www.w3.org/1999/xlink">
<g id="graph0" class="graph" transform="scale(1 1) rotate(0) translate(4 100)">
<title>doublemode</title>
<polygon fill="white" stroke="transparent" points="-4,4 -4,-100 167,-100 167,4 -4,4"/>
<!-- Node1 -->
<g id="node1" class="node">
<title>Node1</title>
<g id="a_node1"><a xlink:title="Implementation of game vs another player.">
<polygon fill="#bfbfbf" stroke="black" points="0,-38.5 0,-57.5 69,-57.5 69,-38.5 0,-38.5"/>
<text text-anchor="middle" x="34.5" y="-45.5" font-family="Helvetica,sans-Serif" font-size="10.00">doublemode</text>
</a>
</g>
</g>
<!-- Node2 -->
<g id="node2" class="node">
<title>Node2</title>
<g id="a_node2"><a xlink:href="../../d3/d42/tic-tac-toe_8c.html#adfca19e26f5e1292cceb1de891215469" target="_top" xlink:title="Implementation of win conditon checker for &#39;X&#39; or &#39;O&#39; whenever the table is updated.">
<polygon fill="white" stroke="black" points="105,-76.5 105,-95.5 163,-95.5 163,-76.5 105,-76.5"/>
<text text-anchor="middle" x="134" y="-83.5" font-family="Helvetica,sans-Serif" font-size="10.00">checkwin</text>
</a>
</g>
</g>
<!-- Node1&#45;&gt;Node2 -->
<g id="edge1" class="edge">
<title>Node1&#45;&gt;Node2</title>
<path fill="none" stroke="midnightblue" d="M60.1,-57.59C71.88,-62.18 86.18,-67.75 98.97,-72.74"/>
<polygon fill="midnightblue" stroke="midnightblue" points="97.82,-76.04 108.4,-76.41 100.36,-69.52 97.82,-76.04"/>
</g>
<!-- Node3 -->
<g id="node3" class="node">
<title>Node3</title>
<g id="a_node3"><a xlink:href="../../d3/d42/tic-tac-toe_8c.html#add64ac1add50f657d9ac3fe01b5d5c0d" target="_top" xlink:title="Update table by placing an X">
<polygon fill="white" stroke="black" points="111.5,-38.5 111.5,-57.5 156.5,-57.5 156.5,-38.5 111.5,-38.5"/>
<text text-anchor="middle" x="134" y="-45.5" font-family="Helvetica,sans-Serif" font-size="10.00">placex</text>
</a>
</g>
</g>
<!-- Node1&#45;&gt;Node3 -->
<g id="edge2" class="edge">
<title>Node1&#45;&gt;Node3</title>
<path fill="none" stroke="midnightblue" d="M69.05,-48C79.44,-48 90.84,-48 101.11,-48"/>
<polygon fill="midnightblue" stroke="midnightblue" points="101.31,-51.5 111.31,-48 101.31,-44.5 101.31,-51.5"/>
</g>
<!-- Node4 -->
<g id="node4" class="node">
<title>Node4</title>
<g id="a_node4"><a xlink:href="../../d3/d42/tic-tac-toe_8c.html#aa4ac360139e9047b280bde3ed18e5c12" target="_top" xlink:title="Update table by placing an O">
<polygon fill="white" stroke="black" points="111.5,-0.5 111.5,-19.5 156.5,-19.5 156.5,-0.5 111.5,-0.5"/>
<text text-anchor="middle" x="134" y="-7.5" font-family="Helvetica,sans-Serif" font-size="10.00">placey</text>
</a>
</g>
</g>
<!-- Node1&#45;&gt;Node4 -->
<g id="edge3" class="edge">
<title>Node1&#45;&gt;Node4</title>
<path fill="none" stroke="midnightblue" d="M60.1,-38.41C72.81,-33.46 88.45,-27.36 101.98,-22.09"/>
<polygon fill="midnightblue" stroke="midnightblue" points="103.35,-25.31 111.39,-18.42 100.8,-18.79 103.35,-25.31"/>
</g>
</g>
</svg>
