<?xml version="1.0" encoding="UTF-8" standalone="no"?>
<!DOCTYPE svg PUBLIC "-//W3C//DTD SVG 1.1//EN"
 "http://www.w3.org/Graphics/SVG/1.1/DTD/svg11.dtd">
<!-- Generated by graphviz version 2.44.1 (20200629.0846)
 -->
<!-- Title: singlemode Pages: 1 -->
<svg width="168pt" height="104pt"
 viewBox="0.00 0.00 168.00 104.00" xmlns="http://www.w3.org/2000/svg" xmlns:xlink="http://www.w3.org/1999/xlink">
<g id="graph0" class="graph" transform="scale(1 1) rotate(0) translate(4 100)">
<title>singlemode</title>
<polygon fill="white" stroke="transparent" points="-4,4 -4,-100 164,-100 164,4 -4,4"/>
<!-- Node1 -->
<g id="node1" class="node">
<title>Node1</title>
<g id="a_node1"><a xlink:title="Implementation of game vs computer.">
<polygon fill="#bfbfbf" stroke="black" points="0,-38.5 0,-57.5 66,-57.5 66,-38.5 0,-38.5"/>
<text text-anchor="middle" x="33" y="-45.5" font-family="Helvetica,sans-Serif" font-size="10.00">singlemode</text>
</a>
</g>
</g>
<!-- Node2 -->
<g id="node2" class="node">
<title>Node2</title>
<g id="a_node2"><a xlink:href="../../d3/d42/tic-tac-toe_8c.html#adfca19e26f5e1292cceb1de891215469" target="_top" xlink:title="Implementation of win conditon checker for &#39;X&#39; or &#39;O&#39; whenever the table is updated.">
<polygon fill="white" stroke="black" points="102,-76.5 102,-95.5 160,-95.5 160,-76.5 102,-76.5"/>
<text text-anchor="middle" x="131" y="-83.5" font-family="Helvetica,sans-Serif" font-size="10.00">checkwin</text>
</a>
</g>
</g>
<!-- Node1&#45;&gt;Node2 -->
<g id="edge1" class="edge">
<title>Node1&#45;&gt;Node2</title>
<path fill="none" stroke="midnightblue" d="M58.22,-57.59C69.71,-62.13 83.62,-67.64 96.13,-72.59"/>
<polygon fill="midnightblue" stroke="midnightblue" points="95.2,-75.99 105.78,-76.41 97.77,-69.48 95.2,-75.99"/>
</g>
<!-- Node3 -->
<g id="node3" class="node">
<title>Node3</title>
<g id="a_node3"><a xlink:href="../../d3/d42/tic-tac-toe_8c.html#a75face5dba6916d362d786f08489d39b" target="_top" xlink:title="Update table by placing an O">
<polygon fill="white" stroke="black" points="111,-38.5 111,-57.5 151,-57.5 151,-38.5 111,-38.5"/>
<text text-anchor="middle" x="131" y="-45.5" font-family="Helvetica,sans-Serif" font-size="10.00">place</text>
</a>
</g>
</g>
<!-- Node1&#45;&gt;Node3 -->
<g id="edge2" class="edge">
<title>Node1&#45;&gt;Node3</title>
<path fill="none" stroke="midnightblue" d="M66.23,-48C77.35,-48 89.73,-48 100.6,-48"/>
<polygon fill="midnightblue" stroke="midnightblue" points="100.87,-51.5 110.87,-48 100.87,-44.5 100.87,-51.5"/>
</g>
<!-- Node4 -->
<g id="node4" class="node">
<title>Node4</title>
<g id="a_node4"><a xlink:href="../../d3/d42/tic-tac-toe_8c.html#add64ac1add50f657d9ac3fe01b5d5c0d" target="_top" xlink:title="Update table by placing an X">
<polygon fill="white" stroke="black" points="108.5,-0.5 108.5,-19.5 153.5,-19.5 153.5,-0.5 108.5,-0.5"/>
<text text-anchor="middle" x="131" y="-7.5" font-family="Helvetica,sans-Serif" font-size="10.00">placex</text>
</a>
</g>
</g>
<!-- Node1&#45;&gt;Node4 -->
<g id="edge3" class="edge">
<title>Node1&#45;&gt;Node4</title>
<path fill="none" stroke="midnightblue" d="M58.22,-38.41C70.53,-33.54 85.62,-27.57 98.79,-22.35"/>
<polygon fill="midnightblue" stroke="midnightblue" points="100.39,-25.48 108.4,-18.55 97.82,-18.97 100.39,-25.48"/>
</g>
</g>
</svg>
