<?xml version="1.0" encoding="UTF-8" standalone="no"?>
<!DOCTYPE svg PUBLIC "-//W3C//DTD SVG 1.1//EN"
 "http://www.w3.org/Graphics/SVG/1.1/DTD/svg11.dtd">
<!-- Generated by graphviz version 9.0.0 (20230911.1827)
 -->
<!-- Title: test3 Pages: 1 -->
<svg width="465pt" height="203pt"
 viewBox="0.00 0.00 465.00 202.55" xmlns="http://www.w3.org/2000/svg" xmlns:xlink="http://www.w3.org/1999/xlink">

<svg id="main" version="1.1" xmlns="http://www.w3.org/2000/svg" xmlns:xlink="http://www.w3.org/1999/xlink" xml:space="preserve" onload="init(evt)">
<style type="text/css"><![CDATA[
.node, .edge {opacity: 0.7;}
.node.selected, .edge.selected {opacity: 1;}
.edge:hover path { stroke: red; }
.edge:hover polygon { stroke: red; fill: red; }
]]></style>
<script type="application/ecmascript" xlink:href="../../svg.min.js"/>
<svg id="graph" class="graph">
<g id="graph0" class="graph" transform="scale(1 1) rotate(0) translate(4 198.55)">
<title>test3</title>
<!-- Node1 -->
<g id="Node000001" class="node">
<title>Node1</title>
<g id="a_Node000001"><a xlink:title="Test that creates a random set of points distributed in eight clusters in 3D space and trains an SOM ...">
<polygon fill="#999999" stroke="#666666" points="37.75,-113.25 0,-113.25 0,-94 37.75,-94 37.75,-113.25"/>
<text text-anchor="middle" x="18.88" y="-99.75" font-family="Helvetica,sans-Serif" font-size="10.00">test3</text>
</a>
</g>
</g>
<!-- Node2 -->
<g id="Node000002" class="node">
<title>Node2</title>
<g id="a_Node000002"><a xlink:href="../../d1/d6b/group__kohonen__2d.html#gaf5ce14f026d6d231bef29161bac2b485" target="_top" xlink:title="Helper function to generate a random number in a given interval.">
<polygon fill="white" stroke="#666666" points="292.12,-113.25 238.62,-113.25 238.62,-94 292.12,-94 292.12,-113.25"/>
<text text-anchor="middle" x="265.38" y="-99.75" font-family="Helvetica,sans-Serif" font-size="10.00">_random</text>
</a>
</g>
</g>
<!-- Node1&#45;&gt;Node2 -->
<g id="edge1_Node000001_Node000002" class="edge">
<title>Node1&#45;&gt;Node2</title>
<g id="a_edge1_Node000001_Node000002"><a xlink:title=" ">
<path fill="none" stroke="#63b8ff" d="M29.99,-93.85C40.12,-84.79 56.63,-71.94 73.75,-66.62 129.28,-49.39 196.51,-72.17 234.47,-88.88"/>
<polygon fill="#63b8ff" stroke="#63b8ff" points="232.89,-92 243.44,-92.97 235.8,-85.63 232.89,-92"/>
</a>
</g>
</g>
<!-- Node3 -->
<g id="Node000003" class="node">
<title>Node3</title>
<g id="a_Node000003"><a xlink:href="../../d1/d6b/group__kohonen__2d.html#gac78022076d889bf2ebfb2c41d4527ceb" target="_top" xlink:title="Function that returns the pointer to (x, y, z) ^th location in the linear 3D array given by:">
<polygon fill="white" stroke="#666666" points="457,-170.25 364.5,-170.25 364.5,-151 457,-151 457,-170.25"/>
<text text-anchor="middle" x="410.75" y="-156.75" font-family="Helvetica,sans-Serif" font-size="10.00">kohonen_data_3d</text>
</a>
</g>
</g>
<!-- Node1&#45;&gt;Node3 -->
<g id="edge2_Node000001_Node000003" class="edge">
<title>Node1&#45;&gt;Node3</title>
<g id="a_edge2_Node000001_Node000003"><a xlink:title=" ">
<path fill="none" stroke="#63b8ff" d="M25.34,-113.45C33.73,-127.47 51.21,-152.84 73.75,-164.62 168.07,-213.94 298.61,-190.93 365.83,-173.64"/>
<polygon fill="#63b8ff" stroke="#63b8ff" points="366.62,-177.05 375.38,-171.1 364.82,-170.29 366.62,-177.05"/>
</a>
</g>
</g>
<!-- Node4 -->
<g id="Node000004" class="node">
<title>Node4</title>
<g id="a_Node000004"><a xlink:href="../../d1/d6b/group__kohonen__2d.html#gacb42eda8af6ebd6a141a34ab00a0b710" target="_top" xlink:title="Apply incremental algorithm with updating neighborhood and learning rates on all samples in the given...">
<polygon fill="white" stroke="#666666" points="158.38,-19.25 81.62,-19.25 81.62,0 158.38,0 158.38,-19.25"/>
<text text-anchor="middle" x="120" y="-5.75" font-family="Helvetica,sans-Serif" font-size="10.00">kohonen_som</text>
</a>
</g>
</g>
<!-- Node1&#45;&gt;Node4 -->
<g id="edge3_Node000001_Node000004" class="edge">
<title>Node1&#45;&gt;Node4</title>
<g id="a_edge3_Node000001_Node000004"><a xlink:title=" ">
<path fill="none" stroke="#63b8ff" d="M25.43,-93.97C34.19,-79.42 52.43,-51.63 73.75,-33.62 77.42,-30.53 81.55,-27.67 85.79,-25.09"/>
<polygon fill="#63b8ff" stroke="#63b8ff" points="87.35,-28.23 94.39,-20.31 83.95,-22.11 87.35,-28.23"/>
</a>
</g>
</g>
<!-- Node7 -->
<g id="Node000007" class="node">
<title>Node7</title>
<g id="a_Node000007"><a xlink:href="../../d1/d6b/group__kohonen__2d.html#ga6824dc6d973eb3339af7aef5fea78b0c" target="_top" xlink:title="Save a given n&#45;dimensional data martix to file.">
<polygon fill="white" stroke="#666666" points="158.38,-95.25 81.62,-95.25 81.62,-76 158.38,-76 158.38,-95.25"/>
<text text-anchor="middle" x="120" y="-81.75" font-family="Helvetica,sans-Serif" font-size="10.00">save_2d_data</text>
</a>
</g>
</g>
<!-- Node1&#45;&gt;Node7 -->
<g id="edge7_Node000001_Node000007" class="edge">
<title>Node1&#45;&gt;Node7</title>
<g id="a_edge7_Node000001_Node000007"><a xlink:title=" ">
<path fill="none" stroke="#63b8ff" d="M38.06,-100.32C47.11,-98.68 58.54,-96.6 69.93,-94.54"/>
<polygon fill="#63b8ff" stroke="#63b8ff" points="70.52,-97.99 79.74,-92.76 69.27,-91.1 70.52,-97.99"/>
</a>
</g>
</g>
<!-- Node8 -->
<g id="Node000008" class="node">
<title>Node8</title>
<g id="a_Node000008"><a xlink:href="../../d1/d6b/group__kohonen__2d.html#ga49d35f68f5d11d8ef6f8cce0d0e7bcba" target="_top" xlink:title="Create the distance matrix or U&#45;matrix from the trained weights and save to disk.">
<polygon fill="white" stroke="#666666" points="305.25,-170.25 225.5,-170.25 225.5,-151 305.25,-151 305.25,-170.25"/>
<text text-anchor="middle" x="265.38" y="-156.75" font-family="Helvetica,sans-Serif" font-size="10.00">save_u_matrix</text>
</a>
</g>
</g>
<!-- Node1&#45;&gt;Node8 -->
<g id="edge8_Node000001_Node000008" class="edge">
<title>Node1&#45;&gt;Node8</title>
<g id="a_edge8_Node000001_Node000008"><a xlink:title=" ">
<path fill="none" stroke="#63b8ff" d="M30.46,-113.64C40.67,-122.64 57.02,-135.39 73.75,-141.62 119.03,-158.51 174.33,-162.34 213.68,-162.51"/>
<polygon fill="#63b8ff" stroke="#63b8ff" points="213.6,-166.01 223.58,-162.46 213.57,-159.01 213.6,-166.01"/>
</a>
</g>
</g>
<!-- Node9 -->
<g id="Node000009" class="node">
<title>Node9</title>
<g id="a_Node000009"><a xlink:href="../../d2/df6/kohonen__som__topology_8c.html#a5bb02a8322d717ead1b11182c5f02a3a" target="_top" xlink:title="Creates a random set of points distributed in four clusters in 3D space with centroids at the points.">
<polygon fill="white" stroke="#666666" points="166.25,-132.25 73.75,-132.25 73.75,-113 166.25,-113 166.25,-132.25"/>
<text text-anchor="middle" x="120" y="-118.75" font-family="Helvetica,sans-Serif" font-size="10.00">test_3d_classes2</text>
</a>
</g>
</g>
<!-- Node1&#45;&gt;Node9 -->
<g id="edge10_Node000001_Node000009" class="edge">
<title>Node1&#45;&gt;Node9</title>
<g id="a_edge10_Node000001_Node000009"><a xlink:title=" ">
<path fill="none" stroke="#63b8ff" d="M38.06,-107.11C45.05,-108.45 53.46,-110.06 62.18,-111.73"/>
<polygon fill="#63b8ff" stroke="#63b8ff" points="61.34,-115.14 71.82,-113.58 62.66,-108.26 61.34,-115.14"/>
</a>
</g>
</g>
<!-- Node5 -->
<g id="Node000005" class="node">
<title>Node5</title>
<g id="a_Node000005"><a xlink:href="../../d1/d6b/group__kohonen__2d.html#ga83abb572c60d202e100595a989dfe123" target="_top" xlink:title="Update weights of the SOM using Kohonen algorithm.">
<polygon fill="white" stroke="#666666" points="328.5,-38.25 202.25,-38.25 202.25,-19 328.5,-19 328.5,-38.25"/>
<text text-anchor="middle" x="265.38" y="-24.75" font-family="Helvetica,sans-Serif" font-size="10.00">kohonen_update_weights</text>
</a>
</g>
</g>
<!-- Node4&#45;&gt;Node5 -->
<g id="edge4_Node000004_Node000005" class="edge">
<title>Node4&#45;&gt;Node5</title>
<g id="a_edge4_Node000004_Node000005"><a xlink:title=" ">
<path fill="none" stroke="#63b8ff" d="M158.67,-14.62C168.63,-15.94 179.72,-17.41 190.88,-18.88"/>
<polygon fill="#63b8ff" stroke="#63b8ff" points="190.14,-22.32 200.51,-20.16 191.06,-15.38 190.14,-22.32"/>
</a>
</g>
</g>
<!-- Node5&#45;&gt;Node3 -->
<g id="edge6_Node000005_Node000003" class="edge">
<title>Node5&#45;&gt;Node3</title>
<g id="a_edge6_Node000005_Node000003"><a xlink:title=" ">
<path fill="none" stroke="#63b8ff" d="M277.43,-38.48C289.89,-49.62 310.75,-68.32 328.5,-84.62 350.11,-104.47 374.67,-127.51 391.08,-142.98"/>
<polygon fill="#63b8ff" stroke="#63b8ff" points="388.51,-145.37 398.19,-149.69 393.32,-140.28 388.51,-145.37"/>
</a>
</g>
</g>
<!-- Node6 -->
<g id="Node000006" class="node">
<title>Node6</title>
<g id="a_Node000006"><a xlink:href="../../d1/d6b/group__kohonen__2d.html#gadc22d512c00a9f5799ee067f4fb90b4b" target="_top" xlink:title="Get minimum value and index of the value in a matrix.">
<polygon fill="white" stroke="#666666" points="443.88,-38.25 377.62,-38.25 377.62,-19 443.88,-19 443.88,-38.25"/>
<text text-anchor="middle" x="410.75" y="-24.75" font-family="Helvetica,sans-Serif" font-size="10.00">get_min_2d</text>
</a>
</g>
</g>
<!-- Node5&#45;&gt;Node6 -->
<g id="edge5_Node000005_Node000006" class="edge">
<title>Node5&#45;&gt;Node6</title>
<g id="a_edge5_Node000005_Node000006"><a xlink:title=" ">
<path fill="none" stroke="#63b8ff" d="M328.84,-28.62C341.41,-28.62 354.36,-28.62 366.11,-28.62"/>
<polygon fill="#63b8ff" stroke="#63b8ff" points="365.9,-32.13 375.9,-28.63 365.9,-25.13 365.9,-32.13"/>
</a>
</g>
</g>
<!-- Node8&#45;&gt;Node3 -->
<g id="edge9_Node000008_Node000003" class="edge">
<title>Node8&#45;&gt;Node3</title>
<g id="a_edge9_Node000008_Node000003"><a xlink:title=" ">
<path fill="none" stroke="#63b8ff" d="M305.55,-160.62C320.1,-160.62 336.91,-160.62 352.72,-160.62"/>
<polygon fill="#63b8ff" stroke="#63b8ff" points="352.5,-164.13 362.5,-160.63 352.5,-157.13 352.5,-164.13"/>
</a>
</g>
</g>
<!-- Node9&#45;&gt;Node2 -->
<g id="edge11_Node000009_Node000002" class="edge">
<title>Node9&#45;&gt;Node2</title>
<g id="a_edge11_Node000009_Node000002"><a xlink:title=" ">
<path fill="none" stroke="#63b8ff" d="M166.36,-116.61C185.97,-114.01 208.64,-111.01 227.22,-108.55"/>
<polygon fill="#63b8ff" stroke="#63b8ff" points="227.54,-112.04 236.99,-107.25 226.62,-105.1 227.54,-112.04"/>
</a>
</g>
</g>
</g>
</svg>
</svg>

<style type='text/css'>
<![CDATA[
[data-mouse-over-selected='false'] { opacity: 0.7; }
[data-mouse-over-selected='true']  { opacity: 1.0; }
]]>
</style>
<script type="application/ecmascript"><![CDATA[
document.addEventListener('DOMContentLoaded', (event) => {
  highlightEdges();
  highlightAdjacentNodes();
});
]]></script>
</svg>
