<?xml version="1.0" encoding="UTF-8" standalone="no"?>
<!DOCTYPE svg PUBLIC "-//W3C//DTD SVG 1.1//EN"
 "http://www.w3.org/Graphics/SVG/1.1/DTD/svg11.dtd">
<!-- Generated by graphviz version 3.0.0 (20220226.1711)
 -->
<!-- Title: test1 Pages: 1 -->
<svg width="462pt" height="204pt"
 viewBox="0.00 0.00 462.00 203.68" xmlns="http://www.w3.org/2000/svg" xmlns:xlink="http://www.w3.org/1999/xlink">
<g id="graph0" class="graph" transform="scale(1 1) rotate(0) translate(4 199.68)">
<title>test1</title>
<polygon fill="white" stroke="transparent" points="-4,4 -4,-199.68 458,-199.68 458,4 -4,4"/>
<!-- Node1 -->
<g id="node1" class="node">
<title>Node1</title>
<g id="a_node1"><a xlink:title="Test that creates a random set of points distributed in four clusters in 2D space and trains an SOM t...">
<polygon fill="#bfbfbf" stroke="black" points="0,-95.5 0,-114.5 38,-114.5 38,-95.5 0,-95.5"/>
<text text-anchor="middle" x="19" y="-102.5" font-family="Helvetica,sans-Serif" font-size="10.00">test1</text>
</a>
</g>
</g>
<!-- Node2 -->
<g id="node2" class="node">
<title>Node2</title>
<g id="a_node2"><a xlink:href="../../d1/d6b/group__kohonen__2d.html#gaf5ce14f026d6d231bef29161bac2b485" target="_top" xlink:title="Helper function to generate a random number in a given interval.">
<polygon fill="white" stroke="black" points="234.5,-95.5 234.5,-114.5 288.5,-114.5 288.5,-95.5 234.5,-95.5"/>
<text text-anchor="middle" x="261.5" y="-102.5" font-family="Helvetica,sans-Serif" font-size="10.00">_random</text>
</a>
</g>
</g>
<!-- Node1&#45;&gt;Node2 -->
<g id="edge1" class="edge">
<title>Node1&#45;&gt;Node2</title>
<path fill="none" stroke="midnightblue" d="M29.71,-95.31C39.79,-86 56.51,-72.54 74,-67 129.52,-49.42 196.99,-74.06 233.64,-91.12"/>
<polygon fill="midnightblue" stroke="midnightblue" points="232.17,-94.29 242.7,-95.47 235.21,-87.98 232.17,-94.29"/>
</g>
<!-- Node3 -->
<g id="node3" class="node">
<title>Node3</title>
<g id="a_node3"><a xlink:href="../../d1/d6b/group__kohonen__2d.html#gac78022076d889bf2ebfb2c41d4527ceb" target="_top" xlink:title="Function that returns the pointer to (x, y, z) ^th location in the linear 3D array given by:">
<polygon fill="white" stroke="black" points="361,-152.5 361,-171.5 454,-171.5 454,-152.5 361,-152.5"/>
<text text-anchor="middle" x="407.5" y="-159.5" font-family="Helvetica,sans-Serif" font-size="10.00">kohonen_data_3d</text>
</a>
</g>
</g>
<!-- Node1&#45;&gt;Node3 -->
<g id="edge2" class="edge">
<title>Node1&#45;&gt;Node3</title>
<path fill="none" stroke="midnightblue" d="M25.49,-114.81C33.92,-128.82 51.46,-154.17 74,-166 168.38,-215.53 299.56,-191.54 365.38,-174.31"/>
<polygon fill="midnightblue" stroke="midnightblue" points="366.62,-177.6 375.37,-171.62 364.8,-170.84 366.62,-177.6"/>
</g>
<!-- Node4 -->
<g id="node4" class="node">
<title>Node4</title>
<g id="a_node4"><a xlink:href="../../d1/d6b/group__kohonen__2d.html#gacb42eda8af6ebd6a141a34ab00a0b710" target="_top" xlink:title="Apply incremental algorithm with updating neighborhood and learning rates on all samples in the given...">
<polygon fill="white" stroke="black" points="79.5,-0.5 79.5,-19.5 156.5,-19.5 156.5,-0.5 79.5,-0.5"/>
<text text-anchor="middle" x="118" y="-7.5" font-family="Helvetica,sans-Serif" font-size="10.00">kohonen_som</text>
</a>
</g>
</g>
<!-- Node1&#45;&gt;Node4 -->
<g id="edge3" class="edge">
<title>Node1&#45;&gt;Node4</title>
<path fill="none" stroke="midnightblue" d="M25.59,-95.26C34.4,-80.57 52.71,-52.47 74,-34 77.93,-30.59 82.43,-27.44 87,-24.62"/>
<polygon fill="midnightblue" stroke="midnightblue" points="88.8,-27.63 95.75,-19.63 85.33,-21.54 88.8,-27.63"/>
</g>
<!-- Node7 -->
<g id="node7" class="node">
<title>Node7</title>
<g id="a_node7"><a xlink:href="../../d1/d6b/group__kohonen__2d.html#ga6824dc6d973eb3339af7aef5fea78b0c" target="_top" xlink:title="Save a given n&#45;dimensional data martix to file.">
<polygon fill="white" stroke="black" points="79.5,-76.5 79.5,-95.5 156.5,-95.5 156.5,-76.5 79.5,-76.5"/>
<text text-anchor="middle" x="118" y="-83.5" font-family="Helvetica,sans-Serif" font-size="10.00">save_2d_data</text>
</a>
</g>
</g>
<!-- Node1&#45;&gt;Node7 -->
<g id="edge7" class="edge">
<title>Node1&#45;&gt;Node7</title>
<path fill="none" stroke="midnightblue" d="M38.24,-101.43C47.07,-99.7 58.12,-97.53 69.12,-95.38"/>
<polygon fill="midnightblue" stroke="midnightblue" points="70.01,-98.77 79.15,-93.41 68.67,-91.9 70.01,-98.77"/>
</g>
<!-- Node8 -->
<g id="node8" class="node">
<title>Node8</title>
<g id="a_node8"><a xlink:href="../../d1/d6b/group__kohonen__2d.html#ga49d35f68f5d11d8ef6f8cce0d0e7bcba" target="_top" xlink:title="Create the distance matrix or U&#45;matrix from the trained weights and save to disk.">
<polygon fill="white" stroke="black" points="221.5,-152.5 221.5,-171.5 301.5,-171.5 301.5,-152.5 221.5,-152.5"/>
<text text-anchor="middle" x="261.5" y="-159.5" font-family="Helvetica,sans-Serif" font-size="10.00">save_u_matrix</text>
</a>
</g>
</g>
<!-- Node1&#45;&gt;Node8 -->
<g id="edge8" class="edge">
<title>Node1&#45;&gt;Node8</title>
<path fill="none" stroke="midnightblue" d="M30.22,-114.66C40.44,-123.67 57.03,-136.66 74,-143 118.31,-159.55 172.42,-163.43 210.92,-163.69"/>
<polygon fill="midnightblue" stroke="midnightblue" points="211.35,-167.19 221.34,-163.68 211.34,-160.19 211.35,-167.19"/>
</g>
<!-- Node9 -->
<g id="node9" class="node">
<title>Node9</title>
<g id="a_node9"><a xlink:href="../../d2/df6/kohonen__som__topology_8c.html#adb5ded007be1fd666fab9affe6764018" target="_top" xlink:title="Creates a random set of points distributed in four clusters in 3D space with centroids at the points.">
<polygon fill="white" stroke="black" points="74,-114.5 74,-133.5 162,-133.5 162,-114.5 74,-114.5"/>
<text text-anchor="middle" x="118" y="-121.5" font-family="Helvetica,sans-Serif" font-size="10.00">test_2d_classes</text>
</a>
</g>
</g>
<!-- Node1&#45;&gt;Node9 -->
<g id="edge10" class="edge">
<title>Node1&#45;&gt;Node9</title>
<path fill="none" stroke="midnightblue" d="M38.24,-108.57C45.66,-110.03 54.65,-111.79 63.86,-113.59"/>
<polygon fill="midnightblue" stroke="midnightblue" points="63.39,-117.07 73.88,-115.55 64.74,-110.2 63.39,-117.07"/>
</g>
<!-- Node5 -->
<g id="node5" class="node">
<title>Node5</title>
<g id="a_node5"><a xlink:href="../../d1/d6b/group__kohonen__2d.html#ga83abb572c60d202e100595a989dfe123" target="_top" xlink:title="Update weights of the SOM using Kohonen algorithm.">
<polygon fill="white" stroke="black" points="198,-19.5 198,-38.5 325,-38.5 325,-19.5 198,-19.5"/>
<text text-anchor="middle" x="261.5" y="-26.5" font-family="Helvetica,sans-Serif" font-size="10.00">kohonen_update_weights</text>
</a>
</g>
</g>
<!-- Node4&#45;&gt;Node5 -->
<g id="edge4" class="edge">
<title>Node4&#45;&gt;Node5</title>
<path fill="none" stroke="midnightblue" d="M156.55,-15.04C166.26,-16.35 177.06,-17.8 187.92,-19.25"/>
<polygon fill="midnightblue" stroke="midnightblue" points="187.49,-22.73 197.87,-20.59 188.43,-15.79 187.49,-22.73"/>
</g>
<!-- Node5&#45;&gt;Node3 -->
<g id="edge6" class="edge">
<title>Node5&#45;&gt;Node3</title>
<path fill="none" stroke="midnightblue" d="M273.15,-38.65C285.61,-49.95 306.86,-69.27 325,-86 347.12,-106.4 372.45,-130.07 388.92,-145.5"/>
<polygon fill="midnightblue" stroke="midnightblue" points="386.55,-148.08 396.24,-152.37 391.34,-142.97 386.55,-148.08"/>
</g>
<!-- Node6 -->
<g id="node6" class="node">
<title>Node6</title>
<g id="a_node6"><a xlink:href="../../d1/d6b/group__kohonen__2d.html#gadc22d512c00a9f5799ee067f4fb90b4b" target="_top" xlink:title="Get minimum value and index of the value in a matrix.">
<polygon fill="white" stroke="black" points="374,-19.5 374,-38.5 441,-38.5 441,-19.5 374,-19.5"/>
<text text-anchor="middle" x="407.5" y="-26.5" font-family="Helvetica,sans-Serif" font-size="10.00">get_min_2d</text>
</a>
</g>
</g>
<!-- Node5&#45;&gt;Node6 -->
<g id="edge5" class="edge">
<title>Node5&#45;&gt;Node6</title>
<path fill="none" stroke="midnightblue" d="M325.24,-29C338.14,-29 351.44,-29 363.45,-29"/>
<polygon fill="midnightblue" stroke="midnightblue" points="363.63,-32.5 373.63,-29 363.63,-25.5 363.63,-32.5"/>
</g>
<!-- Node8&#45;&gt;Node3 -->
<g id="edge9" class="edge">
<title>Node8&#45;&gt;Node3</title>
<path fill="none" stroke="midnightblue" d="M301.85,-162C316.81,-162 334.15,-162 350.37,-162"/>
<polygon fill="midnightblue" stroke="midnightblue" points="350.83,-165.5 360.83,-162 350.83,-158.5 350.83,-165.5"/>
</g>
<!-- Node9&#45;&gt;Node2 -->
<g id="edge11" class="edge">
<title>Node9&#45;&gt;Node2</title>
<path fill="none" stroke="midnightblue" d="M162.22,-118.2C182.11,-115.53 205.43,-112.39 224.37,-109.85"/>
<polygon fill="midnightblue" stroke="midnightblue" points="224.94,-113.31 234.39,-108.51 224.01,-106.37 224.94,-113.31"/>
</g>
</g>
</svg>
