<?xml version="1.0" encoding="UTF-8" standalone="no"?>
<!DOCTYPE svg PUBLIC "-//W3C//DTD SVG 1.1//EN"
 "http://www.w3.org/Graphics/SVG/1.1/DTD/svg11.dtd">
<!-- Generated by graphviz version 3.0.0 (20220226.1711)
 -->
<!-- Title: main Pages: 1 -->
<svg width="580pt" height="467pt"
 viewBox="0.00 0.00 580.00 466.82" xmlns="http://www.w3.org/2000/svg" xmlns:xlink="http://www.w3.org/1999/xlink">
<g id="graph0" class="graph" transform="scale(1 1) rotate(0) translate(4 462.82)">
<title>main</title>
<polygon fill="white" stroke="transparent" points="-4,4 -4,-462.82 576,-462.82 576,4 -4,4"/>
<!-- Node1 -->
<g id="node1" class="node">
<title>Node1</title>
<g id="a_node1"><a xlink:title="Main function.">
<polygon fill="#bfbfbf" stroke="black" points="0,-230.32 0,-249.32 38,-249.32 38,-230.32 0,-230.32"/>
<text text-anchor="middle" x="19" y="-237.32" font-family="Helvetica,sans-Serif" font-size="10.00">main</text>
</a>
</g>
</g>
<!-- Node2 -->
<g id="node2" class="node">
<title>Node2</title>
<g id="a_node2"><a xlink:href="../../d2/df6/kohonen__som__topology_8c.html#a2256c10b16edba377b64a44b6c656908" target="_top" xlink:title="Convert clock cycle difference to time in seconds.">
<polygon fill="white" stroke="black" points="74,-306.32 74,-325.32 151,-325.32 151,-306.32 74,-306.32"/>
<text text-anchor="middle" x="112.5" y="-313.32" font-family="Helvetica,sans-Serif" font-size="10.00">get_clock_diff</text>
</a>
</g>
</g>
<!-- Node1&#45;&gt;Node2 -->
<g id="edge1" class="edge">
<title>Node1&#45;&gt;Node2</title>
<path fill="none" stroke="midnightblue" d="M27.56,-249.68C37.29,-261.89 55.2,-282.81 74,-296.82 76.05,-298.35 78.24,-299.81 80.49,-301.2"/>
<polygon fill="midnightblue" stroke="midnightblue" points="78.9,-304.33 89.33,-306.18 82.33,-298.22 78.9,-304.33"/>
</g>
<!-- Node3 -->
<g id="node3" class="node">
<title>Node3</title>
<g id="a_node3"><a xlink:href="../../d2/df6/kohonen__som__topology_8c.html#a1440a7779ac56f47a3f355ce4a8c7da0" target="_top" xlink:title="Test that creates a random set of points distributed in four clusters in 2D space and trains an SOM t...">
<polygon fill="white" stroke="black" points="93.5,-268.32 93.5,-287.32 131.5,-287.32 131.5,-268.32 93.5,-268.32"/>
<text text-anchor="middle" x="112.5" y="-275.32" font-family="Helvetica,sans-Serif" font-size="10.00">test1</text>
</a>
</g>
</g>
<!-- Node1&#45;&gt;Node3 -->
<g id="edge2" class="edge">
<title>Node1&#45;&gt;Node3</title>
<path fill="none" stroke="midnightblue" d="M38.08,-247.33C51.24,-252.79 69.29,-260.29 84.2,-266.48"/>
<polygon fill="midnightblue" stroke="midnightblue" points="82.88,-269.73 93.46,-270.33 85.57,-263.26 82.88,-269.73"/>
</g>
<!-- Node12 -->
<g id="node12" class="node">
<title>Node12</title>
<g id="a_node12"><a xlink:href="../../d2/df6/kohonen__som__topology_8c.html#a0283886819c7c140a023582b7269e2d0" target="_top" xlink:title="Test that creates a random set of points distributed in 4 clusters in 3D space and trains an SOM that...">
<polygon fill="white" stroke="black" points="93.5,-211.32 93.5,-230.32 131.5,-230.32 131.5,-211.32 93.5,-211.32"/>
<text text-anchor="middle" x="112.5" y="-218.32" font-family="Helvetica,sans-Serif" font-size="10.00">test2</text>
</a>
</g>
</g>
<!-- Node1&#45;&gt;Node12 -->
<g id="edge14" class="edge">
<title>Node1&#45;&gt;Node12</title>
<path fill="none" stroke="midnightblue" d="M38.08,-236.07C50.99,-233.39 68.6,-229.73 83.34,-226.67"/>
<polygon fill="midnightblue" stroke="midnightblue" points="84.38,-230.03 93.46,-224.57 82.96,-223.17 84.38,-230.03"/>
</g>
<!-- Node14 -->
<g id="node14" class="node">
<title>Node14</title>
<g id="a_node14"><a xlink:href="../../d2/df6/kohonen__som__topology_8c.html#a6d0455dd5c30adda100e95f0423c786e" target="_top" xlink:title="Test that creates a random set of points distributed in eight clusters in 3D space and trains an SOM ...">
<polygon fill="white" stroke="black" points="93.5,-97.32 93.5,-116.32 131.5,-116.32 131.5,-97.32 93.5,-97.32"/>
<text text-anchor="middle" x="112.5" y="-104.32" font-family="Helvetica,sans-Serif" font-size="10.00">test3</text>
</a>
</g>
</g>
<!-- Node1&#45;&gt;Node14 -->
<g id="edge22" class="edge">
<title>Node1&#45;&gt;Node14</title>
<path fill="none" stroke="midnightblue" d="M26.58,-230.26C41.74,-208.22 79.33,-153.58 99.02,-124.96"/>
<polygon fill="midnightblue" stroke="midnightblue" points="101.95,-126.88 104.73,-116.66 96.18,-122.91 101.95,-126.88"/>
</g>
<!-- Node4 -->
<g id="node4" class="node">
<title>Node4</title>
<g id="a_node4"><a xlink:href="../../d1/d6b/group__kohonen__2d.html#gaf5ce14f026d6d231bef29161bac2b485" target="_top" xlink:title="Helper function to generate a random number in a given interval.">
<polygon fill="white" stroke="black" points="352.5,-230.32 352.5,-249.32 406.5,-249.32 406.5,-230.32 352.5,-230.32"/>
<text text-anchor="middle" x="379.5" y="-237.32" font-family="Helvetica,sans-Serif" font-size="10.00">_random</text>
</a>
</g>
</g>
<!-- Node3&#45;&gt;Node4 -->
<g id="edge3" class="edge">
<title>Node3&#45;&gt;Node4</title>
<path fill="none" stroke="midnightblue" d="M131.52,-284.56C138.14,-287.62 145.39,-291.71 151,-296.82 173.16,-316.99 160.76,-339.36 187,-353.82 223.2,-373.77 242.41,-371.02 280,-353.82 322.81,-334.23 354.12,-285.83 368.93,-258.82"/>
<polygon fill="midnightblue" stroke="midnightblue" points="372.22,-260.09 373.79,-249.62 366.03,-256.82 372.22,-260.09"/>
</g>
<!-- Node5 -->
<g id="node5" class="node">
<title>Node5</title>
<g id="a_node5"><a xlink:href="../../d1/d6b/group__kohonen__2d.html#gac78022076d889bf2ebfb2c41d4527ceb" target="_top" xlink:title="Function that returns the pointer to (x, y, z) ^th location in the linear 3D array given by:">
<polygon fill="white" stroke="black" points="479,-173.32 479,-192.32 572,-192.32 572,-173.32 479,-173.32"/>
<text text-anchor="middle" x="525.5" y="-180.32" font-family="Helvetica,sans-Serif" font-size="10.00">kohonen_data_3d</text>
</a>
</g>
</g>
<!-- Node3&#45;&gt;Node5 -->
<g id="edge4" class="edge">
<title>Node3&#45;&gt;Node5</title>
<path fill="none" stroke="midnightblue" d="M131.88,-284.2C138.54,-287.21 145.72,-291.37 151,-296.82 177.29,-323.95 155.13,-353.54 187,-373.82 221.87,-396.01 240.6,-386.32 280,-373.82 383.54,-340.97 475.67,-241.36 510.12,-200.55"/>
<polygon fill="midnightblue" stroke="midnightblue" points="512.88,-202.7 516.58,-192.78 507.5,-198.23 512.88,-202.7"/>
</g>
<!-- Node6 -->
<g id="node6" class="node">
<title>Node6</title>
<g id="a_node6"><a xlink:href="../../d1/d6b/group__kohonen__2d.html#gacb42eda8af6ebd6a141a34ab00a0b710" target="_top" xlink:title="Apply incremental algorithm with updating neighborhood and learning rates on all samples in the given...">
<polygon fill="white" stroke="black" points="195,-287.32 195,-306.32 272,-306.32 272,-287.32 195,-287.32"/>
<text text-anchor="middle" x="233.5" y="-294.32" font-family="Helvetica,sans-Serif" font-size="10.00">kohonen_som</text>
</a>
</g>
</g>
<!-- Node3&#45;&gt;Node6 -->
<g id="edge5" class="edge">
<title>Node3&#45;&gt;Node6</title>
<path fill="none" stroke="midnightblue" d="M131.57,-280.71C145.62,-282.95 165.77,-286.17 184.39,-289.14"/>
<polygon fill="midnightblue" stroke="midnightblue" points="184.09,-292.64 194.52,-290.76 185.2,-285.72 184.09,-292.64"/>
</g>
<!-- Node9 -->
<g id="node9" class="node">
<title>Node9</title>
<g id="a_node9"><a xlink:href="../../d1/d6b/group__kohonen__2d.html#ga6824dc6d973eb3339af7aef5fea78b0c" target="_top" xlink:title="Save a given n&#45;dimensional data martix to file.">
<polygon fill="white" stroke="black" points="195,-135.32 195,-154.32 272,-154.32 272,-135.32 195,-135.32"/>
<text text-anchor="middle" x="233.5" y="-142.32" font-family="Helvetica,sans-Serif" font-size="10.00">save_2d_data</text>
</a>
</g>
</g>
<!-- Node3&#45;&gt;Node9 -->
<g id="edge9" class="edge">
<title>Node3&#45;&gt;Node9</title>
<path fill="none" stroke="midnightblue" d="M123.25,-268.32C130.93,-260.74 141.84,-249.78 151,-239.82 175.25,-213.48 202.04,-181.69 218.06,-162.38"/>
<polygon fill="midnightblue" stroke="midnightblue" points="220.94,-164.39 224.62,-154.45 215.55,-159.93 220.94,-164.39"/>
</g>
<!-- Node10 -->
<g id="node10" class="node">
<title>Node10</title>
<g id="a_node10"><a xlink:href="../../d1/d6b/group__kohonen__2d.html#ga49d35f68f5d11d8ef6f8cce0d0e7bcba" target="_top" xlink:title="Create the distance matrix or U&#45;matrix from the trained weights and save to disk.">
<polygon fill="white" stroke="black" points="193.5,-97.32 193.5,-116.32 273.5,-116.32 273.5,-97.32 193.5,-97.32"/>
<text text-anchor="middle" x="233.5" y="-104.32" font-family="Helvetica,sans-Serif" font-size="10.00">save_u_matrix</text>
</a>
</g>
</g>
<!-- Node3&#45;&gt;Node10 -->
<g id="edge10" class="edge">
<title>Node3&#45;&gt;Node10</title>
<path fill="none" stroke="midnightblue" d="M125.85,-268.03C134.02,-260.96 144.4,-250.78 151,-239.82 178.42,-194.31 151.15,-165.04 187,-125.82 188.19,-124.52 189.49,-123.3 190.86,-122.17"/>
<polygon fill="midnightblue" stroke="midnightblue" points="193,-124.94 199.42,-116.51 189.15,-119.1 193,-124.94"/>
</g>
<!-- Node11 -->
<g id="node11" class="node">
<title>Node11</title>
<g id="a_node11"><a xlink:href="../../d2/df6/kohonen__som__topology_8c.html#adb5ded007be1fd666fab9affe6764018" target="_top" xlink:title="Creates a random set of points distributed in four clusters in 3D space with centroids at the points.">
<polygon fill="white" stroke="black" points="189.5,-325.32 189.5,-344.32 277.5,-344.32 277.5,-325.32 189.5,-325.32"/>
<text text-anchor="middle" x="233.5" y="-332.32" font-family="Helvetica,sans-Serif" font-size="10.00">test_2d_classes</text>
</a>
</g>
</g>
<!-- Node3&#45;&gt;Node11 -->
<g id="edge12" class="edge">
<title>Node3&#45;&gt;Node11</title>
<path fill="none" stroke="midnightblue" d="M131.84,-287.04C137.95,-290.13 144.78,-293.6 151,-296.82 167.07,-305.13 170.64,-308.11 187,-315.82 190.83,-317.63 194.88,-319.45 198.93,-321.2"/>
<polygon fill="midnightblue" stroke="midnightblue" points="197.66,-324.47 208.24,-325.16 200.4,-318.03 197.66,-324.47"/>
</g>
<!-- Node7 -->
<g id="node7" class="node">
<title>Node7</title>
<g id="a_node7"><a xlink:href="../../d1/d6b/group__kohonen__2d.html#ga83abb572c60d202e100595a989dfe123" target="_top" xlink:title="Update weights of the SOM using Kohonen algorithm.">
<polygon fill="white" stroke="black" points="316,-439.32 316,-458.32 443,-458.32 443,-439.32 316,-439.32"/>
<text text-anchor="middle" x="379.5" y="-446.32" font-family="Helvetica,sans-Serif" font-size="10.00">kohonen_update_weights</text>
</a>
</g>
</g>
<!-- Node6&#45;&gt;Node7 -->
<g id="edge6" class="edge">
<title>Node6&#45;&gt;Node7</title>
<path fill="none" stroke="midnightblue" d="M264.18,-306.48C269.74,-309.03 275.28,-312.13 280,-315.82 321.1,-348.01 353.47,-401.5 368.81,-429.84"/>
<polygon fill="midnightblue" stroke="midnightblue" points="365.91,-431.85 373.67,-439.06 372.1,-428.58 365.91,-431.85"/>
</g>
<!-- Node7&#45;&gt;Node5 -->
<g id="edge8" class="edge">
<title>Node7&#45;&gt;Node5</title>
<path fill="none" stroke="midnightblue" d="M421,-439.23C429.1,-435.78 436.97,-431.11 443,-424.82 504.67,-360.52 519.74,-248.04 523.37,-202.65"/>
<polygon fill="midnightblue" stroke="midnightblue" points="526.86,-202.84 524.07,-192.62 519.88,-202.36 526.86,-202.84"/>
</g>
<!-- Node8 -->
<g id="node8" class="node">
<title>Node8</title>
<g id="a_node8"><a xlink:href="../../d1/d6b/group__kohonen__2d.html#gadc22d512c00a9f5799ee067f4fb90b4b" target="_top" xlink:title="Get minimum value and index of the value in a matrix.">
<polygon fill="white" stroke="black" points="492,-439.32 492,-458.32 559,-458.32 559,-439.32 492,-439.32"/>
<text text-anchor="middle" x="525.5" y="-446.32" font-family="Helvetica,sans-Serif" font-size="10.00">get_min_2d</text>
</a>
</g>
</g>
<!-- Node7&#45;&gt;Node8 -->
<g id="edge7" class="edge">
<title>Node7&#45;&gt;Node8</title>
<path fill="none" stroke="midnightblue" d="M443.24,-448.82C456.14,-448.82 469.44,-448.82 481.45,-448.82"/>
<polygon fill="midnightblue" stroke="midnightblue" points="481.63,-452.32 491.63,-448.82 481.63,-445.32 481.63,-452.32"/>
</g>
<!-- Node10&#45;&gt;Node5 -->
<g id="edge11" class="edge">
<title>Node10&#45;&gt;Node5</title>
<path fill="none" stroke="midnightblue" d="M270.94,-116.37C323.46,-130.13 420.45,-155.55 478.05,-170.65"/>
<polygon fill="midnightblue" stroke="midnightblue" points="477.43,-174.1 487.99,-173.25 479.2,-167.33 477.43,-174.1"/>
</g>
<!-- Node11&#45;&gt;Node4 -->
<g id="edge13" class="edge">
<title>Node11&#45;&gt;Node4</title>
<path fill="none" stroke="midnightblue" d="M260.57,-325.31C267.08,-322.56 273.93,-319.35 280,-315.82 310.1,-298.33 341.33,-272.75 360.35,-256.19"/>
<polygon fill="midnightblue" stroke="midnightblue" points="362.76,-258.72 367.95,-249.48 358.13,-253.48 362.76,-258.72"/>
</g>
<!-- Node12&#45;&gt;Node4 -->
<g id="edge15" class="edge">
<title>Node12&#45;&gt;Node4</title>
<path fill="none" stroke="midnightblue" d="M131.71,-222.13C174.98,-225.23 284.58,-233.09 342.05,-237.21"/>
<polygon fill="midnightblue" stroke="midnightblue" points="341.93,-240.71 352.15,-237.93 342.43,-233.73 341.93,-240.71"/>
</g>
<!-- Node12&#45;&gt;Node5 -->
<g id="edge16" class="edge">
<title>Node12&#45;&gt;Node5</title>
<path fill="none" stroke="midnightblue" d="M131.69,-219.14C190.16,-213.73 374.95,-196.65 468.73,-187.98"/>
<polygon fill="midnightblue" stroke="midnightblue" points="469.25,-191.44 478.89,-187.04 468.61,-184.47 469.25,-191.44"/>
</g>
<!-- Node12&#45;&gt;Node6 -->
<g id="edge17" class="edge">
<title>Node12&#45;&gt;Node6</title>
<path fill="none" stroke="midnightblue" d="M124.3,-230.69C138.07,-242.91 163,-263.84 187,-277.82 190.22,-279.7 193.66,-281.49 197.16,-283.16"/>
<polygon fill="midnightblue" stroke="midnightblue" points="195.86,-286.42 206.42,-287.32 198.73,-280.03 195.86,-286.42"/>
</g>
<!-- Node12&#45;&gt;Node9 -->
<g id="edge18" class="edge">
<title>Node12&#45;&gt;Node9</title>
<path fill="none" stroke="midnightblue" d="M125.91,-211.29C140.25,-200.45 164.75,-182.48 187,-168.82 192.27,-165.59 198.01,-162.35 203.59,-159.35"/>
<polygon fill="midnightblue" stroke="midnightblue" points="205.48,-162.3 212.7,-154.55 202.22,-156.11 205.48,-162.3"/>
</g>
<!-- Node12&#45;&gt;Node10 -->
<g id="edge19" class="edge">
<title>Node12&#45;&gt;Node10</title>
<path fill="none" stroke="midnightblue" d="M118.7,-211.13C129.24,-192.3 154.89,-150.43 187,-125.82 189.29,-124.06 191.77,-122.44 194.35,-120.94"/>
<polygon fill="midnightblue" stroke="midnightblue" points="196.04,-124.01 203.35,-116.35 192.86,-117.78 196.04,-124.01"/>
</g>
<!-- Node13 -->
<g id="node13" class="node">
<title>Node13</title>
<g id="a_node13"><a xlink:href="../../d2/df6/kohonen__som__topology_8c.html#ad9e25202bb8b481461f932668f249dbc" target="_top" xlink:title="Creates a random set of points distributed in four clusters in 3D space with centroids at the points.">
<polygon fill="white" stroke="black" points="187,-249.32 187,-268.32 280,-268.32 280,-249.32 187,-249.32"/>
<text text-anchor="middle" x="233.5" y="-256.32" font-family="Helvetica,sans-Serif" font-size="10.00">test_3d_classes1</text>
</a>
</g>
</g>
<!-- Node12&#45;&gt;Node13 -->
<g id="edge20" class="edge">
<title>Node12&#45;&gt;Node13</title>
<path fill="none" stroke="midnightblue" d="M131.57,-226.59C147.85,-231.79 172.34,-239.61 193.12,-246.25"/>
<polygon fill="midnightblue" stroke="midnightblue" points="192.07,-249.59 202.67,-249.29 194.2,-242.92 192.07,-249.59"/>
</g>
<!-- Node13&#45;&gt;Node4 -->
<g id="edge21" class="edge">
<title>Node13&#45;&gt;Node4</title>
<path fill="none" stroke="midnightblue" d="M280.06,-252.81C300.09,-250.17 323.28,-247.11 342.12,-244.62"/>
<polygon fill="midnightblue" stroke="midnightblue" points="342.63,-248.08 352.09,-243.31 341.72,-241.14 342.63,-248.08"/>
</g>
<!-- Node14&#45;&gt;Node4 -->
<g id="edge23" class="edge">
<title>Node14&#45;&gt;Node4</title>
<path fill="none" stroke="midnightblue" d="M131.56,-98.31C163.6,-84.55 231.56,-61.49 280,-87.82 332.6,-116.41 361.44,-186.55 372.77,-220.62"/>
<polygon fill="midnightblue" stroke="midnightblue" points="369.49,-221.84 375.84,-230.32 376.16,-219.73 369.49,-221.84"/>
</g>
<!-- Node14&#45;&gt;Node5 -->
<g id="edge24" class="edge">
<title>Node14&#45;&gt;Node5</title>
<path fill="none" stroke="midnightblue" d="M117.4,-97.2C126.24,-76.89 149.93,-30.01 187,-11.82 224.11,6.39 240.55,0.52 280,-11.82 378.36,-42.58 471.51,-128.81 508.14,-165.71"/>
<polygon fill="midnightblue" stroke="midnightblue" points="505.96,-168.49 515.46,-173.19 510.97,-163.6 505.96,-168.49"/>
</g>
<!-- Node14&#45;&gt;Node6 -->
<g id="edge25" class="edge">
<title>Node14&#45;&gt;Node6</title>
<path fill="none" stroke="midnightblue" d="M117.46,-116.6C131.84,-151.98 180.74,-271.63 187,-277.82 188.46,-279.27 190.05,-280.61 191.72,-281.85"/>
<polygon fill="midnightblue" stroke="midnightblue" points="190.32,-285.09 200.68,-287.29 193.95,-279.11 190.32,-285.09"/>
</g>
<!-- Node14&#45;&gt;Node9 -->
<g id="edge26" class="edge">
<title>Node14&#45;&gt;Node9</title>
<path fill="none" stroke="midnightblue" d="M131.57,-112.59C147.85,-117.79 172.34,-125.61 193.12,-132.25"/>
<polygon fill="midnightblue" stroke="midnightblue" points="192.07,-135.59 202.67,-135.29 194.2,-128.92 192.07,-135.59"/>
</g>
<!-- Node14&#45;&gt;Node10 -->
<g id="edge27" class="edge">
<title>Node14&#45;&gt;Node10</title>
<path fill="none" stroke="midnightblue" d="M131.57,-106.82C145.23,-106.82 164.65,-106.82 182.82,-106.82"/>
<polygon fill="midnightblue" stroke="midnightblue" points="183.03,-110.32 193.03,-106.82 183.03,-103.32 183.03,-110.32"/>
</g>
<!-- Node15 -->
<g id="node15" class="node">
<title>Node15</title>
<g id="a_node15"><a xlink:href="../../d2/df6/kohonen__som__topology_8c.html#a5bb02a8322d717ead1b11182c5f02a3a" target="_top" xlink:title="Creates a random set of points distributed in four clusters in 3D space with centroids at the points.">
<polygon fill="white" stroke="black" points="187,-21.32 187,-40.32 280,-40.32 280,-21.32 187,-21.32"/>
<text text-anchor="middle" x="233.5" y="-28.32" font-family="Helvetica,sans-Serif" font-size="10.00">test_3d_classes2</text>
</a>
</g>
</g>
<!-- Node14&#45;&gt;Node15 -->
<g id="edge28" class="edge">
<title>Node14&#45;&gt;Node15</title>
<path fill="none" stroke="midnightblue" d="M125.91,-97.29C140.25,-86.45 164.75,-68.48 187,-54.82 192.27,-51.59 198.01,-48.35 203.59,-45.35"/>
<polygon fill="midnightblue" stroke="midnightblue" points="205.48,-48.3 212.7,-40.55 202.22,-42.11 205.48,-48.3"/>
</g>
<!-- Node15&#45;&gt;Node4 -->
<g id="edge29" class="edge">
<title>Node15&#45;&gt;Node4</title>
<path fill="none" stroke="midnightblue" d="M258.96,-40.37C266.34,-44.09 274.05,-48.9 280,-54.82 329.53,-104.16 360.19,-183.64 372.41,-220.23"/>
<polygon fill="midnightblue" stroke="midnightblue" points="369.21,-221.69 375.61,-230.13 375.87,-219.54 369.21,-221.69"/>
</g>
</g>
</svg>
