<?xml version="1.0" encoding="UTF-8" standalone="no"?>
<!DOCTYPE svg PUBLIC "-//W3C//DTD SVG 1.1//EN"
 "http://www.w3.org/Graphics/SVG/1.1/DTD/svg11.dtd">
<!-- Generated by graphviz version 8.0.5 (20230430.1635)
 -->
<!-- Title: test3 Pages: 1 -->
<svg width="465pt" height="203pt"
 viewBox="0.00 0.00 465.00 202.55" xmlns="http://www.w3.org/2000/svg" xmlns:xlink="http://www.w3.org/1999/xlink">
<g id="graph0" class="graph" transform="scale(1 1) rotate(0) translate(4 198.55)">
<title>test3</title>
<!-- Node1 -->
<g id="Node000001" class="node">
<title>Node1</title>
<g id="a_Node000001"><a xlink:title="Test that creates a random set of points distributed in eight clusters in 3D space and trains an SOM ...">
<polygon fill="#999999" stroke="#666666" points="37.75,-113.25 0,-113.25 0,-94 37.75,-94 37.75,-113.25"/>
<text text-anchor="middle" x="18.88" y="-99.75" font-family="Helvetica,sans-Serif" font-size="10.00">test3</text>
</a>
</g>
</g>
<!-- Node2 -->
<g id="Node000002" class="node">
<title>Node2</title>
<g id="a_Node000002"><a xlink:href="../../d1/d6b/group__kohonen__2d.html#gaf5ce14f026d6d231bef29161bac2b485" target="_top" xlink:title="Helper function to generate a random number in a given interval.">
<polygon fill="white" stroke="#666666" points="292.12,-113.25 238.62,-113.25 238.62,-94 292.12,-94 292.12,-113.25"/>
<text text-anchor="middle" x="265.38" y="-99.75" font-family="Helvetica,sans-Serif" font-size="10.00">_random</text>
</a>
</g>
</g>
<!-- Node1&#45;&gt;Node2 -->
<g id="edge1_Node000001_Node000002" class="edge">
<title>Node1&#45;&gt;Node2</title>
<g id="a_edge1_Node000001_Node000002"><a xlink:title=" ">
<path fill="none" stroke="#63b8ff" d="M29.99,-93.85C40.12,-84.79 56.63,-71.94 73.75,-66.62 129.52,-49.32 197.09,-72.37 234.96,-89.09"/>
<polygon fill="#63b8ff" stroke="#63b8ff" points="233.27,-92.62 243.82,-93.6 236.18,-86.26 233.27,-92.62"/>
</a>
</g>
</g>
<!-- Node3 -->
<g id="Node000003" class="node">
<title>Node3</title>
<g id="a_Node000003"><a xlink:href="../../d1/d6b/group__kohonen__2d.html#gac78022076d889bf2ebfb2c41d4527ceb" target="_top" xlink:title="Function that returns the pointer to (x, y, z) ^th location in the linear 3D array given by:">
<polygon fill="white" stroke="#666666" points="457,-170.25 364.5,-170.25 364.5,-151 457,-151 457,-170.25"/>
<text text-anchor="middle" x="410.75" y="-156.75" font-family="Helvetica,sans-Serif" font-size="10.00">kohonen_data_3d</text>
</a>
</g>
</g>
<!-- Node1&#45;&gt;Node3 -->
<g id="edge2_Node000001_Node000003" class="edge">
<title>Node1&#45;&gt;Node3</title>
<g id="a_edge2_Node000001_Node000003"><a xlink:title=" ">
<path fill="none" stroke="#63b8ff" d="M25.34,-113.45C33.73,-127.47 51.21,-152.84 73.75,-164.62 168.26,-214.04 299.15,-190.84 366.25,-173.53"/>
<polygon fill="#63b8ff" stroke="#63b8ff" points="367.08,-176.67 375.85,-170.71 365.28,-169.9 367.08,-176.67"/>
</a>
</g>
</g>
<!-- Node4 -->
<g id="Node000004" class="node">
<title>Node4</title>
<g id="a_Node000004"><a xlink:href="../../d1/d6b/group__kohonen__2d.html#gacb42eda8af6ebd6a141a34ab00a0b710" target="_top" xlink:title="Apply incremental algorithm with updating neighborhood and learning rates on all samples in the given...">
<polygon fill="white" stroke="#666666" points="158.38,-19.25 81.62,-19.25 81.62,0 158.38,0 158.38,-19.25"/>
<text text-anchor="middle" x="120" y="-5.75" font-family="Helvetica,sans-Serif" font-size="10.00">kohonen_som</text>
</a>
</g>
</g>
<!-- Node1&#45;&gt;Node4 -->
<g id="edge3_Node000001_Node000004" class="edge">
<title>Node1&#45;&gt;Node4</title>
<g id="a_edge3_Node000001_Node000004"><a xlink:title=" ">
<path fill="none" stroke="#63b8ff" d="M25.43,-93.97C34.19,-79.42 52.43,-51.63 73.75,-33.62 77.52,-30.44 81.78,-27.51 86.15,-24.87"/>
<polygon fill="#63b8ff" stroke="#63b8ff" points="87.66,-27.48 94.71,-19.58 84.27,-21.36 87.66,-27.48"/>
</a>
</g>
</g>
<!-- Node7 -->
<g id="Node000007" class="node">
<title>Node7</title>
<g id="a_Node000007"><a xlink:href="../../d1/d6b/group__kohonen__2d.html#ga6824dc6d973eb3339af7aef5fea78b0c" target="_top" xlink:title="Save a given n&#45;dimensional data martix to file.">
<polygon fill="white" stroke="#666666" points="158.38,-95.25 81.62,-95.25 81.62,-76 158.38,-76 158.38,-95.25"/>
<text text-anchor="middle" x="120" y="-81.75" font-family="Helvetica,sans-Serif" font-size="10.00">save_2d_data</text>
</a>
</g>
</g>
<!-- Node1&#45;&gt;Node7 -->
<g id="edge7_Node000001_Node000007" class="edge">
<title>Node1&#45;&gt;Node7</title>
<g id="a_edge7_Node000001_Node000007"><a xlink:title=" ">
<path fill="none" stroke="#63b8ff" d="M38.06,-100.32C47.3,-98.65 59.02,-96.52 70.64,-94.41"/>
<polygon fill="#63b8ff" stroke="#63b8ff" points="71.01,-97.72 80.22,-92.48 69.76,-90.83 71.01,-97.72"/>
</a>
</g>
</g>
<!-- Node8 -->
<g id="Node000008" class="node">
<title>Node8</title>
<g id="a_Node000008"><a xlink:href="../../d1/d6b/group__kohonen__2d.html#ga49d35f68f5d11d8ef6f8cce0d0e7bcba" target="_top" xlink:title="Create the distance matrix or U&#45;matrix from the trained weights and save to disk.">
<polygon fill="white" stroke="#666666" points="305.25,-170.25 225.5,-170.25 225.5,-151 305.25,-151 305.25,-170.25"/>
<text text-anchor="middle" x="265.38" y="-156.75" font-family="Helvetica,sans-Serif" font-size="10.00">save_u_matrix</text>
</a>
</g>
</g>
<!-- Node1&#45;&gt;Node8 -->
<g id="edge8_Node000001_Node000008" class="edge">
<title>Node1&#45;&gt;Node8</title>
<g id="a_edge8_Node000001_Node000008"><a xlink:title=" ">
<path fill="none" stroke="#63b8ff" d="M30.46,-113.64C40.67,-122.64 57.02,-135.39 73.75,-141.62 119.23,-158.58 174.81,-162.38 214.19,-162.51"/>
<polygon fill="#63b8ff" stroke="#63b8ff" points="214.11,-166.01 224.1,-162.45 214.08,-159.01 214.11,-166.01"/>
</a>
</g>
</g>
<!-- Node9 -->
<g id="Node000009" class="node">
<title>Node9</title>
<g id="a_Node000009"><a xlink:href="../../d2/df6/kohonen__som__topology_8c.html#a5bb02a8322d717ead1b11182c5f02a3a" target="_top" xlink:title="Creates a random set of points distributed in four clusters in 3D space with centroids at the points.">
<polygon fill="white" stroke="#666666" points="166.25,-132.25 73.75,-132.25 73.75,-113 166.25,-113 166.25,-132.25"/>
<text text-anchor="middle" x="120" y="-118.75" font-family="Helvetica,sans-Serif" font-size="10.00">test_3d_classes2</text>
</a>
</g>
</g>
<!-- Node1&#45;&gt;Node9 -->
<g id="edge10_Node000001_Node000009" class="edge">
<title>Node1&#45;&gt;Node9</title>
<g id="a_edge10_Node000001_Node000009"><a xlink:title=" ">
<path fill="none" stroke="#63b8ff" d="M38.06,-107.11C45.21,-108.48 53.84,-110.13 62.76,-111.85"/>
<polygon fill="#63b8ff" stroke="#63b8ff" points="61.82,-115.42 72.3,-113.87 63.14,-108.55 61.82,-115.42"/>
</a>
</g>
</g>
<!-- Node5 -->
<g id="Node000005" class="node">
<title>Node5</title>
<g id="a_Node000005"><a xlink:href="../../d1/d6b/group__kohonen__2d.html#ga83abb572c60d202e100595a989dfe123" target="_top" xlink:title="Update weights of the SOM using Kohonen algorithm.">
<polygon fill="white" stroke="#666666" points="328.5,-38.25 202.25,-38.25 202.25,-19 328.5,-19 328.5,-38.25"/>
<text text-anchor="middle" x="265.38" y="-24.75" font-family="Helvetica,sans-Serif" font-size="10.00">kohonen_update_weights</text>
</a>
</g>
</g>
<!-- Node4&#45;&gt;Node5 -->
<g id="edge4_Node000004_Node000005" class="edge">
<title>Node4&#45;&gt;Node5</title>
<g id="a_edge4_Node000004_Node000005"><a xlink:title=" ">
<path fill="none" stroke="#63b8ff" d="M158.67,-14.62C168.73,-15.95 179.95,-17.44 191.22,-18.93"/>
<polygon fill="#63b8ff" stroke="#63b8ff" points="190.64,-22.52 201.01,-20.36 191.56,-15.58 190.64,-22.52"/>
</a>
</g>
</g>
<!-- Node5&#45;&gt;Node3 -->
<g id="edge6_Node000005_Node000003" class="edge">
<title>Node5&#45;&gt;Node3</title>
<g id="a_edge6_Node000005_Node000003"><a xlink:title=" ">
<path fill="none" stroke="#63b8ff" d="M277.43,-38.48C289.89,-49.62 310.75,-68.32 328.5,-84.62 350.31,-104.65 375.13,-127.94 391.54,-143.41"/>
<polygon fill="#63b8ff" stroke="#63b8ff" points="388.61,-145.41 398.29,-149.72 393.42,-140.32 388.61,-145.41"/>
</a>
</g>
</g>
<!-- Node6 -->
<g id="Node000006" class="node">
<title>Node6</title>
<g id="a_Node000006"><a xlink:href="../../d1/d6b/group__kohonen__2d.html#gadc22d512c00a9f5799ee067f4fb90b4b" target="_top" xlink:title="Get minimum value and index of the value in a matrix.">
<polygon fill="white" stroke="#666666" points="443.88,-38.25 377.62,-38.25 377.62,-19 443.88,-19 443.88,-38.25"/>
<text text-anchor="middle" x="410.75" y="-24.75" font-family="Helvetica,sans-Serif" font-size="10.00">get_min_2d</text>
</a>
</g>
</g>
<!-- Node5&#45;&gt;Node6 -->
<g id="edge5_Node000005_Node000006" class="edge">
<title>Node5&#45;&gt;Node6</title>
<g id="a_edge5_Node000005_Node000006"><a xlink:title=" ">
<path fill="none" stroke="#63b8ff" d="M328.84,-28.62C341.54,-28.62 354.63,-28.62 366.48,-28.62"/>
<polygon fill="#63b8ff" stroke="#63b8ff" points="366.41,-32.13 376.41,-28.62 366.41,-25.13 366.41,-32.13"/>
</a>
</g>
</g>
<!-- Node8&#45;&gt;Node3 -->
<g id="edge9_Node000008_Node000003" class="edge">
<title>Node8&#45;&gt;Node3</title>
<g id="a_edge9_Node000008_Node000003"><a xlink:title=" ">
<path fill="none" stroke="#63b8ff" d="M305.55,-160.62C320.24,-160.62 337.23,-160.62 353.18,-160.62"/>
<polygon fill="#63b8ff" stroke="#63b8ff" points="353.02,-164.13 363.02,-160.62 353.02,-157.13 353.02,-164.13"/>
</a>
</g>
</g>
<!-- Node9&#45;&gt;Node2 -->
<g id="edge11_Node000009_Node000002" class="edge">
<title>Node9&#45;&gt;Node2</title>
<g id="a_edge11_Node000009_Node000002"><a xlink:title=" ">
<path fill="none" stroke="#63b8ff" d="M166.36,-116.61C186.16,-113.99 209.07,-110.95 227.75,-108.48"/>
<polygon fill="#63b8ff" stroke="#63b8ff" points="228.04,-111.84 237.49,-107.05 227.12,-104.9 228.04,-111.84"/>
</a>
</g>
</g>
</g>
</svg>
