<?xml version="1.0" encoding="UTF-8" standalone="no"?>
<!DOCTYPE svg PUBLIC "-//W3C//DTD SVG 1.1//EN"
 "http://www.w3.org/Graphics/SVG/1.1/DTD/svg11.dtd">
<!-- Generated by graphviz version 3.0.0 (20220226.1711)
 -->
<!-- Title: test3 Pages: 1 -->
<svg width="467pt" height="204pt"
 viewBox="0.00 0.00 467.00 204.00" xmlns="http://www.w3.org/2000/svg" xmlns:xlink="http://www.w3.org/1999/xlink">
<g id="graph0" class="graph" transform="scale(1 1) rotate(0) translate(4 200)">
<title>test3</title>
<polygon fill="white" stroke="transparent" points="-4,4 -4,-200 463,-200 463,4 -4,4"/>
<!-- Node1 -->
<g id="node1" class="node">
<title>Node1</title>
<g id="a_node1"><a xlink:title="Test that creates a random set of points distributed in eight clusters in 3D space and trains an SOM ...">
<polygon fill="#bfbfbf" stroke="black" points="0,-95.5 0,-114.5 38,-114.5 38,-95.5 0,-95.5"/>
<text text-anchor="middle" x="19" y="-102.5" font-family="Helvetica,sans-Serif" font-size="10.00">test3</text>
</a>
</g>
</g>
<!-- Node2 -->
<g id="node2" class="node">
<title>Node2</title>
<g id="a_node2"><a xlink:href="../../d1/d6b/group__kohonen__2d.html#gaf5ce14f026d6d231bef29161bac2b485" target="_top" xlink:title="Helper function to generate a random number in a given interval.">
<polygon fill="white" stroke="black" points="239.5,-95.5 239.5,-114.5 293.5,-114.5 293.5,-95.5 239.5,-95.5"/>
<text text-anchor="middle" x="266.5" y="-102.5" font-family="Helvetica,sans-Serif" font-size="10.00">_random</text>
</a>
</g>
</g>
<!-- Node1&#45;&gt;Node2 -->
<g id="edge1" class="edge">
<title>Node1&#45;&gt;Node2</title>
<path fill="none" stroke="midnightblue" d="M29.71,-95.31C39.79,-86 56.51,-72.54 74,-67 130.95,-48.97 200.26,-73.78 237.91,-90.98"/>
<polygon fill="midnightblue" stroke="midnightblue" points="236.67,-94.27 247.21,-95.38 239.66,-87.94 236.67,-94.27"/>
</g>
<!-- Node3 -->
<g id="node3" class="node">
<title>Node3</title>
<g id="a_node3"><a xlink:href="../../d1/d6b/group__kohonen__2d.html#gac78022076d889bf2ebfb2c41d4527ceb" target="_top" xlink:title="Function that returns the pointer to (x, y, z) ^th location in the linear 3D array given by:">
<polygon fill="white" stroke="black" points="366,-152.5 366,-171.5 459,-171.5 459,-152.5 366,-152.5"/>
<text text-anchor="middle" x="412.5" y="-159.5" font-family="Helvetica,sans-Serif" font-size="10.00">kohonen_data_3d</text>
</a>
</g>
</g>
<!-- Node1&#45;&gt;Node3 -->
<g id="edge2" class="edge">
<title>Node1&#45;&gt;Node3</title>
<path fill="none" stroke="midnightblue" d="M25.48,-114.82C33.9,-128.85 51.43,-154.22 74,-166 170.36,-216.28 304.25,-191.6 370.71,-174.19"/>
<polygon fill="midnightblue" stroke="midnightblue" points="371.66,-177.56 380.4,-171.58 369.83,-170.8 371.66,-177.56"/>
</g>
<!-- Node4 -->
<g id="node4" class="node">
<title>Node4</title>
<g id="a_node4"><a xlink:href="../../d1/d6b/group__kohonen__2d.html#gacb42eda8af6ebd6a141a34ab00a0b710" target="_top" xlink:title="Apply incremental algorithm with updating neighborhood and learning rates on all samples in the given...">
<polygon fill="white" stroke="black" points="82,-0.5 82,-19.5 159,-19.5 159,-0.5 82,-0.5"/>
<text text-anchor="middle" x="120.5" y="-7.5" font-family="Helvetica,sans-Serif" font-size="10.00">kohonen_som</text>
</a>
</g>
</g>
<!-- Node1&#45;&gt;Node4 -->
<g id="edge3" class="edge">
<title>Node1&#45;&gt;Node4</title>
<path fill="none" stroke="midnightblue" d="M25.54,-95.2C34.28,-80.42 52.5,-52.22 74,-34 78.07,-30.55 82.72,-27.41 87.45,-24.61"/>
<polygon fill="midnightblue" stroke="midnightblue" points="89.41,-27.53 96.53,-19.68 86.07,-21.38 89.41,-27.53"/>
</g>
<!-- Node7 -->
<g id="node7" class="node">
<title>Node7</title>
<g id="a_node7"><a xlink:href="../../d1/d6b/group__kohonen__2d.html#ga6824dc6d973eb3339af7aef5fea78b0c" target="_top" xlink:title="Save a given n&#45;dimensional data martix to file.">
<polygon fill="white" stroke="black" points="82,-76.5 82,-95.5 159,-95.5 159,-76.5 82,-76.5"/>
<text text-anchor="middle" x="120.5" y="-83.5" font-family="Helvetica,sans-Serif" font-size="10.00">save_2d_data</text>
</a>
</g>
</g>
<!-- Node1&#45;&gt;Node7 -->
<g id="edge7" class="edge">
<title>Node1&#45;&gt;Node7</title>
<path fill="none" stroke="midnightblue" d="M38.25,-101.52C47.8,-99.69 59.99,-97.36 72.01,-95.07"/>
<polygon fill="midnightblue" stroke="midnightblue" points="72.83,-98.48 81.99,-93.16 71.52,-91.6 72.83,-98.48"/>
</g>
<!-- Node8 -->
<g id="node8" class="node">
<title>Node8</title>
<g id="a_node8"><a xlink:href="../../d1/d6b/group__kohonen__2d.html#ga49d35f68f5d11d8ef6f8cce0d0e7bcba" target="_top" xlink:title="Create the distance matrix or U&#45;matrix from the trained weights and save to disk.">
<polygon fill="white" stroke="black" points="226.5,-152.5 226.5,-171.5 306.5,-171.5 306.5,-152.5 226.5,-152.5"/>
<text text-anchor="middle" x="266.5" y="-159.5" font-family="Helvetica,sans-Serif" font-size="10.00">save_u_matrix</text>
</a>
</g>
</g>
<!-- Node1&#45;&gt;Node8 -->
<g id="edge8" class="edge">
<title>Node1&#45;&gt;Node8</title>
<path fill="none" stroke="midnightblue" d="M30.22,-114.67C40.43,-123.69 57.02,-136.69 74,-143 120.14,-160.16 176.6,-163.86 216.22,-163.91"/>
<polygon fill="midnightblue" stroke="midnightblue" points="216.44,-167.41 226.42,-163.84 216.39,-160.41 216.44,-167.41"/>
</g>
<!-- Node9 -->
<g id="node9" class="node">
<title>Node9</title>
<g id="a_node9"><a xlink:href="../../d2/df6/kohonen__som__topology_8c.html#a5bb02a8322d717ead1b11182c5f02a3a" target="_top" xlink:title="Creates a random set of points distributed in four clusters in 3D space with centroids at the points.">
<polygon fill="white" stroke="black" points="74,-114.5 74,-133.5 167,-133.5 167,-114.5 74,-114.5"/>
<text text-anchor="middle" x="120.5" y="-121.5" font-family="Helvetica,sans-Serif" font-size="10.00">test_3d_classes2</text>
</a>
</g>
</g>
<!-- Node1&#45;&gt;Node9 -->
<g id="edge10" class="edge">
<title>Node1&#45;&gt;Node9</title>
<path fill="none" stroke="midnightblue" d="M38.25,-108.48C45.58,-109.89 54.47,-111.58 63.64,-113.33"/>
<polygon fill="midnightblue" stroke="midnightblue" points="63.15,-116.8 73.63,-115.24 64.47,-109.93 63.15,-116.8"/>
</g>
<!-- Node5 -->
<g id="node5" class="node">
<title>Node5</title>
<g id="a_node5"><a xlink:href="../../d1/d6b/group__kohonen__2d.html#ga83abb572c60d202e100595a989dfe123" target="_top" xlink:title="Update weights of the SOM using Kohonen algorithm.">
<polygon fill="white" stroke="black" points="203,-19.5 203,-38.5 330,-38.5 330,-19.5 203,-19.5"/>
<text text-anchor="middle" x="266.5" y="-26.5" font-family="Helvetica,sans-Serif" font-size="10.00">kohonen_update_weights</text>
</a>
</g>
</g>
<!-- Node4&#45;&gt;Node5 -->
<g id="edge4" class="edge">
<title>Node4&#45;&gt;Node5</title>
<path fill="none" stroke="midnightblue" d="M159.33,-14.99C169.65,-16.35 181.18,-17.87 192.73,-19.4"/>
<polygon fill="midnightblue" stroke="midnightblue" points="192.49,-22.9 202.86,-20.74 193.41,-15.96 192.49,-22.9"/>
</g>
<!-- Node5&#45;&gt;Node3 -->
<g id="edge6" class="edge">
<title>Node5&#45;&gt;Node3</title>
<path fill="none" stroke="midnightblue" d="M278.15,-38.65C290.61,-49.95 311.86,-69.27 330,-86 352.12,-106.4 377.45,-130.07 393.92,-145.5"/>
<polygon fill="midnightblue" stroke="midnightblue" points="391.55,-148.08 401.24,-152.37 396.34,-142.97 391.55,-148.08"/>
</g>
<!-- Node6 -->
<g id="node6" class="node">
<title>Node6</title>
<g id="a_node6"><a xlink:href="../../d1/d6b/group__kohonen__2d.html#gadc22d512c00a9f5799ee067f4fb90b4b" target="_top" xlink:title="Get minimum value and index of the value in a matrix.">
<polygon fill="white" stroke="black" points="379,-19.5 379,-38.5 446,-38.5 446,-19.5 379,-19.5"/>
<text text-anchor="middle" x="412.5" y="-26.5" font-family="Helvetica,sans-Serif" font-size="10.00">get_min_2d</text>
</a>
</g>
</g>
<!-- Node5&#45;&gt;Node6 -->
<g id="edge5" class="edge">
<title>Node5&#45;&gt;Node6</title>
<path fill="none" stroke="midnightblue" d="M330.24,-29C343.14,-29 356.44,-29 368.45,-29"/>
<polygon fill="midnightblue" stroke="midnightblue" points="368.63,-32.5 378.63,-29 368.63,-25.5 368.63,-32.5"/>
</g>
<!-- Node8&#45;&gt;Node3 -->
<g id="edge9" class="edge">
<title>Node8&#45;&gt;Node3</title>
<path fill="none" stroke="midnightblue" d="M306.85,-162C321.81,-162 339.15,-162 355.37,-162"/>
<polygon fill="midnightblue" stroke="midnightblue" points="355.83,-165.5 365.83,-162 355.83,-158.5 355.83,-165.5"/>
</g>
<!-- Node9&#45;&gt;Node2 -->
<g id="edge11" class="edge">
<title>Node9&#45;&gt;Node2</title>
<path fill="none" stroke="midnightblue" d="M167.06,-117.99C187.09,-115.35 210.28,-112.29 229.12,-109.8"/>
<polygon fill="midnightblue" stroke="midnightblue" points="229.63,-113.26 239.09,-108.48 228.72,-106.32 229.63,-113.26"/>
</g>
</g>
</svg>
