<?xml version="1.0" encoding="UTF-8" standalone="no"?>
<!DOCTYPE svg PUBLIC "-//W3C//DTD SVG 1.1//EN"
 "http://www.w3.org/Graphics/SVG/1.1/DTD/svg11.dtd">
<!-- Generated by graphviz version 8.0.2 (20230410.1723)
 -->
<!-- Title: test3 Pages: 1 -->
<svg width="467pt" height="203pt"
 viewBox="0.00 0.00 467.00 202.51" xmlns="http://www.w3.org/2000/svg" xmlns:xlink="http://www.w3.org/1999/xlink">
<g id="graph0" class="graph" transform="scale(1 1) rotate(0) translate(4 198.51)">
<title>test3</title>
<!-- Node1 -->
<g id="node1" class="node">
<title>Node1</title>
<g id="a_node1"><a xlink:title="Test that creates a random set of points distributed in eight clusters in 3D space and trains an SOM ...">
<polygon fill="#999999" stroke="#666666" points="38,-113 0,-113 0,-94 38,-94 38,-113"/>
<text text-anchor="middle" x="19" y="-101" font-family="Helvetica,sans-Serif" font-size="10.00">test3</text>
</a>
</g>
</g>
<!-- Node2 -->
<g id="node2" class="node">
<title>Node2</title>
<g id="a_node2"><a xlink:href="../../d1/d6b/group__kohonen__2d.html#gaf5ce14f026d6d231bef29161bac2b485" target="_top" xlink:title="Helper function to generate a random number in a given interval.">
<polygon fill="white" stroke="#666666" points="293.5,-113 239.5,-113 239.5,-94 293.5,-94 293.5,-113"/>
<text text-anchor="middle" x="266.5" y="-101" font-family="Helvetica,sans-Serif" font-size="10.00">_random</text>
</a>
</g>
</g>
<!-- Node1&#45;&gt;Node2 -->
<g id="edge1" class="edge">
<title>Node1&#45;&gt;Node2</title>
<path fill="none" stroke="#63b8ff" d="M30.14,-93.72C40.3,-84.66 56.85,-71.81 74,-66.5 130.17,-49.1 198.27,-72.34 236.25,-89.08"/>
<polygon fill="#63b8ff" stroke="#63b8ff" points="234.58,-92.62 245.13,-93.59 237.49,-86.26 234.58,-92.62"/>
</g>
<!-- Node3 -->
<g id="node3" class="node">
<title>Node3</title>
<g id="a_node3"><a xlink:href="../../d1/d6b/group__kohonen__2d.html#gac78022076d889bf2ebfb2c41d4527ceb" target="_top" xlink:title="Function that returns the pointer to (x, y, z) ^th location in the linear 3D array given by:">
<polygon fill="white" stroke="#666666" points="459,-170 366,-170 366,-151 459,-151 459,-170"/>
<text text-anchor="middle" x="412.5" y="-158" font-family="Helvetica,sans-Serif" font-size="10.00">kohonen_data_3d</text>
</a>
</g>
</g>
<!-- Node1&#45;&gt;Node3 -->
<g id="edge2" class="edge">
<title>Node1&#45;&gt;Node3</title>
<path fill="none" stroke="#63b8ff" d="M25.48,-113.32C33.9,-127.35 51.43,-152.72 74,-164.5 169.22,-214.19 301.11,-190.67 368.34,-173.31"/>
<polygon fill="#63b8ff" stroke="#63b8ff" points="369.19,-176.44 377.95,-170.48 367.38,-169.67 369.19,-176.44"/>
</g>
<!-- Node4 -->
<g id="node4" class="node">
<title>Node4</title>
<g id="a_node4"><a xlink:href="../../d1/d6b/group__kohonen__2d.html#gacb42eda8af6ebd6a141a34ab00a0b710" target="_top" xlink:title="Apply incremental algorithm with updating neighborhood and learning rates on all samples in the given...">
<polygon fill="white" stroke="#666666" points="159,-19 82,-19 82,0 159,0 159,-19"/>
<text text-anchor="middle" x="120.5" y="-7" font-family="Helvetica,sans-Serif" font-size="10.00">kohonen_som</text>
</a>
</g>
</g>
<!-- Node1&#45;&gt;Node4 -->
<g id="edge3" class="edge">
<title>Node1&#45;&gt;Node4</title>
<path fill="none" stroke="#63b8ff" d="M25.57,-93.84C34.35,-79.28 52.63,-51.49 74,-33.5 77.79,-30.31 82.08,-27.37 86.47,-24.73"/>
<polygon fill="#63b8ff" stroke="#63b8ff" points="88.01,-27.33 95.08,-19.44 84.64,-21.19 88.01,-27.33"/>
</g>
<!-- Node7 -->
<g id="node7" class="node">
<title>Node7</title>
<g id="a_node7"><a xlink:href="../../d1/d6b/group__kohonen__2d.html#ga6824dc6d973eb3339af7aef5fea78b0c" target="_top" xlink:title="Save a given n&#45;dimensional data martix to file.">
<polygon fill="white" stroke="#666666" points="159,-95 82,-95 82,-76 159,-76 159,-95"/>
<text text-anchor="middle" x="120.5" y="-83" font-family="Helvetica,sans-Serif" font-size="10.00">save_2d_data</text>
</a>
</g>
</g>
<!-- Node1&#45;&gt;Node7 -->
<g id="edge7" class="edge">
<title>Node1&#45;&gt;Node7</title>
<path fill="none" stroke="#63b8ff" d="M38.25,-100.2C47.53,-98.52 59.29,-96.39 70.96,-94.28"/>
<polygon fill="#63b8ff" stroke="#63b8ff" points="71.36,-97.58 80.58,-92.36 70.12,-90.7 71.36,-97.58"/>
</g>
<!-- Node8 -->
<g id="node8" class="node">
<title>Node8</title>
<g id="a_node8"><a xlink:href="../../d1/d6b/group__kohonen__2d.html#ga49d35f68f5d11d8ef6f8cce0d0e7bcba" target="_top" xlink:title="Create the distance matrix or U&#45;matrix from the trained weights and save to disk.">
<polygon fill="white" stroke="#666666" points="306.5,-170 226.5,-170 226.5,-151 306.5,-151 306.5,-170"/>
<text text-anchor="middle" x="266.5" y="-158" font-family="Helvetica,sans-Serif" font-size="10.00">save_u_matrix</text>
</a>
</g>
</g>
<!-- Node1&#45;&gt;Node8 -->
<g id="edge8" class="edge">
<title>Node1&#45;&gt;Node8</title>
<path fill="none" stroke="#63b8ff" d="M30.22,-113.17C40.43,-122.19 57.02,-135.19 74,-141.5 119.7,-158.5 175.53,-162.29 215.09,-162.41"/>
<polygon fill="#63b8ff" stroke="#63b8ff" points="215.06,-165.9 225.05,-162.35 215.03,-158.9 215.06,-165.9"/>
</g>
<!-- Node9 -->
<g id="node9" class="node">
<title>Node9</title>
<g id="a_node9"><a xlink:href="../../d2/df6/kohonen__som__topology_8c.html#a5bb02a8322d717ead1b11182c5f02a3a" target="_top" xlink:title="Creates a random set of points distributed in four clusters in 3D space with centroids at the points.">
<polygon fill="white" stroke="#666666" points="167,-132 74,-132 74,-113 167,-113 167,-132"/>
<text text-anchor="middle" x="120.5" y="-120" font-family="Helvetica,sans-Serif" font-size="10.00">test_3d_classes2</text>
</a>
</g>
</g>
<!-- Node1&#45;&gt;Node9 -->
<g id="edge10" class="edge">
<title>Node1&#45;&gt;Node9</title>
<path fill="none" stroke="#63b8ff" d="M38.25,-106.98C45.43,-108.36 54.09,-110.01 63.05,-111.72"/>
<polygon fill="#63b8ff" stroke="#63b8ff" points="62.15,-115.3 72.63,-113.74 63.47,-108.43 62.15,-115.3"/>
</g>
<!-- Node5 -->
<g id="node5" class="node">
<title>Node5</title>
<g id="a_node5"><a xlink:href="../../d1/d6b/group__kohonen__2d.html#ga83abb572c60d202e100595a989dfe123" target="_top" xlink:title="Update weights of the SOM using Kohonen algorithm.">
<polygon fill="white" stroke="#666666" points="330,-38 203,-38 203,-19 330,-19 330,-38"/>
<text text-anchor="middle" x="266.5" y="-26" font-family="Helvetica,sans-Serif" font-size="10.00">kohonen_update_weights</text>
</a>
</g>
</g>
<!-- Node4&#45;&gt;Node5 -->
<g id="edge4" class="edge">
<title>Node4&#45;&gt;Node5</title>
<path fill="none" stroke="#63b8ff" d="M159.33,-14.49C169.37,-15.82 180.57,-17.29 191.82,-18.78"/>
<polygon fill="#63b8ff" stroke="#63b8ff" points="191.21,-22.36 201.58,-20.2 192.13,-15.42 191.21,-22.36"/>
</g>
<!-- Node5&#45;&gt;Node3 -->
<g id="edge6" class="edge">
<title>Node5&#45;&gt;Node3</title>
<path fill="none" stroke="#63b8ff" d="M278.62,-38.35C291.17,-49.48 312.15,-68.18 330,-84.5 351.89,-104.51 376.78,-127.8 393.24,-143.28"/>
<polygon fill="#63b8ff" stroke="#63b8ff" points="390.33,-145.29 400.01,-149.59 395.13,-140.19 390.33,-145.29"/>
</g>
<!-- Node6 -->
<g id="node6" class="node">
<title>Node6</title>
<g id="a_node6"><a xlink:href="../../d1/d6b/group__kohonen__2d.html#gadc22d512c00a9f5799ee067f4fb90b4b" target="_top" xlink:title="Get minimum value and index of the value in a matrix.">
<polygon fill="white" stroke="#666666" points="446,-38 379,-38 379,-19 446,-19 446,-38"/>
<text text-anchor="middle" x="412.5" y="-26" font-family="Helvetica,sans-Serif" font-size="10.00">get_min_2d</text>
</a>
</g>
</g>
<!-- Node5&#45;&gt;Node6 -->
<g id="edge5" class="edge">
<title>Node5&#45;&gt;Node6</title>
<path fill="none" stroke="#63b8ff" d="M330.24,-28.5C342.88,-28.5 355.9,-28.5 367.72,-28.5"/>
<polygon fill="#63b8ff" stroke="#63b8ff" points="367.63,-32 377.63,-28.5 367.63,-25 367.63,-32"/>
</g>
<!-- Node8&#45;&gt;Node3 -->
<g id="edge9" class="edge">
<title>Node8&#45;&gt;Node3</title>
<path fill="none" stroke="#63b8ff" d="M306.85,-160.5C321.6,-160.5 338.67,-160.5 354.69,-160.5"/>
<polygon fill="#63b8ff" stroke="#63b8ff" points="354.57,-164 364.57,-160.5 354.57,-157 354.57,-164"/>
</g>
<!-- Node9&#45;&gt;Node2 -->
<g id="edge11" class="edge">
<title>Node9&#45;&gt;Node2</title>
<path fill="none" stroke="#63b8ff" d="M167.46,-116.44C187.18,-113.83 209.92,-110.83 228.53,-108.38"/>
<polygon fill="#63b8ff" stroke="#63b8ff" points="228.78,-111.74 238.23,-106.97 227.86,-104.8 228.78,-111.74"/>
</g>
</g>
</svg>
