<?xml version="1.0" encoding="UTF-8" standalone="no"?>
<!DOCTYPE svg PUBLIC "-//W3C//DTD SVG 1.1//EN"
 "http://www.w3.org/Graphics/SVG/1.1/DTD/svg11.dtd">
<!-- Generated by graphviz version 2.49.3 (20211023.0002)
 -->
<!-- Title: test2 Pages: 1 -->
<svg width="475pt" height="205pt"
 viewBox="0.00 0.00 475.00 204.52" xmlns="http://www.w3.org/2000/svg" xmlns:xlink="http://www.w3.org/1999/xlink">
<g id="graph0" class="graph" transform="scale(1 1) rotate(0) translate(4 200.52)">
<title>test2</title>
<polygon fill="white" stroke="transparent" points="-4,4 -4,-200.52 471,-200.52 471,4 -4,4"/>
<!-- Node1 -->
<g id="node1" class="node">
<title>Node1</title>
<g id="a_node1"><a xlink:title="Test that creates a random set of points distributed in 4 clusters in 3D space and trains an SOM that...">
<polygon fill="#bfbfbf" stroke="black" points="0,-95.5 0,-114.5 38,-114.5 38,-95.5 0,-95.5"/>
<text text-anchor="middle" x="19" y="-102.5" font-family="Helvetica,sans-Serif" font-size="10.00">test2</text>
</a>
</g>
</g>
<!-- Node2 -->
<g id="node2" class="node">
<title>Node2</title>
<g id="a_node2"><a xlink:href="../../d1/d6b/group__kohonen__2d.html#gaf5ce14f026d6d231bef29161bac2b485" target="_top" xlink:title="Helper function to generate a random number in a given interval.">
<polygon fill="white" stroke="black" points="241,-95.5 241,-114.5 297,-114.5 297,-95.5 241,-95.5"/>
<text text-anchor="middle" x="269" y="-102.5" font-family="Helvetica,sans-Serif" font-size="10.00">_random</text>
</a>
</g>
</g>
<!-- Node1&#45;&gt;Node2 -->
<g id="edge1" class="edge">
<title>Node1&#45;&gt;Node2</title>
<path fill="none" stroke="midnightblue" d="M29.71,-95.31C39.79,-86 56.51,-72.54 74,-67 131.82,-48.7 202.25,-73.77 240.34,-91.05"/>
<polygon fill="midnightblue" stroke="midnightblue" points="239.2,-94.39 249.74,-95.47 242.17,-88.05 239.2,-94.39"/>
</g>
<!-- Node3 -->
<g id="node3" class="node">
<title>Node3</title>
<g id="a_node3"><a xlink:href="../../d1/d6b/group__kohonen__2d.html#gac78022076d889bf2ebfb2c41d4527ceb" target="_top" xlink:title="Function that returns the pointer to (x, y, z) ^th location in the linear 3D array given by:">
<polygon fill="white" stroke="black" points="370,-152.5 370,-171.5 467,-171.5 467,-152.5 370,-152.5"/>
<text text-anchor="middle" x="418.5" y="-159.5" font-family="Helvetica,sans-Serif" font-size="10.00">kohonen_data_3d</text>
</a>
</g>
</g>
<!-- Node1&#45;&gt;Node3 -->
<g id="edge2" class="edge">
<title>Node1&#45;&gt;Node3</title>
<path fill="none" stroke="midnightblue" d="M25.48,-114.82C33.9,-128.86 51.42,-154.23 74,-166 172.34,-217.26 309.06,-191.94 376.51,-174.25"/>
<polygon fill="midnightblue" stroke="midnightblue" points="377.6,-177.58 386.34,-171.6 375.77,-170.82 377.6,-177.58"/>
</g>
<!-- Node4 -->
<g id="node4" class="node">
<title>Node4</title>
<g id="a_node4"><a xlink:href="../../d1/d6b/group__kohonen__2d.html#gacb42eda8af6ebd6a141a34ab00a0b710" target="_top" xlink:title="Apply incremental algorithm with updating neighborhood and learning rates on all samples in the given...">
<polygon fill="white" stroke="black" points="81.5,-0.5 81.5,-19.5 160.5,-19.5 160.5,-0.5 81.5,-0.5"/>
<text text-anchor="middle" x="121" y="-7.5" font-family="Helvetica,sans-Serif" font-size="10.00">kohonen_som</text>
</a>
</g>
</g>
<!-- Node1&#45;&gt;Node4 -->
<g id="edge3" class="edge">
<title>Node1&#45;&gt;Node4</title>
<path fill="none" stroke="midnightblue" d="M25.53,-95.19C34.25,-80.39 52.46,-52.17 74,-34 78.11,-30.53 82.81,-27.38 87.59,-24.57"/>
<polygon fill="midnightblue" stroke="midnightblue" points="89.62,-27.46 96.77,-19.64 86.31,-21.29 89.62,-27.46"/>
</g>
<!-- Node7 -->
<g id="node7" class="node">
<title>Node7</title>
<g id="a_node7"><a xlink:href="../../d1/d6b/group__kohonen__2d.html#ga6824dc6d973eb3339af7aef5fea78b0c" target="_top" xlink:title="Save a given n&#45;dimensional data martix to file.">
<polygon fill="white" stroke="black" points="81.5,-76.5 81.5,-95.5 160.5,-95.5 160.5,-76.5 81.5,-76.5"/>
<text text-anchor="middle" x="121" y="-83.5" font-family="Helvetica,sans-Serif" font-size="10.00">save_2d_data</text>
</a>
</g>
</g>
<!-- Node1&#45;&gt;Node7 -->
<g id="edge7" class="edge">
<title>Node1&#45;&gt;Node7</title>
<path fill="none" stroke="midnightblue" d="M38.34,-101.52C47.77,-99.72 59.75,-97.45 71.6,-95.2"/>
<polygon fill="midnightblue" stroke="midnightblue" points="72.31,-98.62 81.48,-93.32 71,-91.75 72.31,-98.62"/>
</g>
<!-- Node8 -->
<g id="node8" class="node">
<title>Node8</title>
<g id="a_node8"><a xlink:href="../../d1/d6b/group__kohonen__2d.html#ga49d35f68f5d11d8ef6f8cce0d0e7bcba" target="_top" xlink:title="Create the distance matrix or U&#45;matrix from the trained weights and save to disk.">
<polygon fill="white" stroke="black" points="228,-152.5 228,-171.5 310,-171.5 310,-152.5 228,-152.5"/>
<text text-anchor="middle" x="269" y="-159.5" font-family="Helvetica,sans-Serif" font-size="10.00">save_u_matrix</text>
</a>
</g>
</g>
<!-- Node1&#45;&gt;Node8 -->
<g id="edge8" class="edge">
<title>Node1&#45;&gt;Node8</title>
<path fill="none" stroke="midnightblue" d="M30.22,-114.67C40.43,-123.7 57.02,-136.7 74,-143 120.55,-160.28 177.47,-163.99 217.58,-164.01"/>
<polygon fill="midnightblue" stroke="midnightblue" points="217.68,-167.51 227.66,-163.94 217.63,-160.51 217.68,-167.51"/>
</g>
<!-- Node9 -->
<g id="node9" class="node">
<title>Node9</title>
<g id="a_node9"><a xlink:href="../../d2/df6/kohonen__som__topology_8c.html#ad9e25202bb8b481461f932668f249dbc" target="_top" xlink:title="Creates a random set of points distributed in four clusters in 3D space with centroids at the points.">
<polygon fill="white" stroke="black" points="74,-114.5 74,-133.5 168,-133.5 168,-114.5 74,-114.5"/>
<text text-anchor="middle" x="121" y="-121.5" font-family="Helvetica,sans-Serif" font-size="10.00">test_3d_classes1</text>
</a>
</g>
</g>
<!-- Node1&#45;&gt;Node9 -->
<g id="edge10" class="edge">
<title>Node1&#45;&gt;Node9</title>
<path fill="none" stroke="midnightblue" d="M38.34,-108.48C45.71,-109.89 54.64,-111.58 63.85,-113.33"/>
<polygon fill="midnightblue" stroke="midnightblue" points="63.42,-116.81 73.9,-115.24 64.73,-109.94 63.42,-116.81"/>
</g>
<!-- Node5 -->
<g id="node5" class="node">
<title>Node5</title>
<g id="a_node5"><a xlink:href="../../d1/d6b/group__kohonen__2d.html#ga83abb572c60d202e100595a989dfe123" target="_top" xlink:title="Update weights of the SOM using Kohonen algorithm.">
<polygon fill="white" stroke="black" points="204,-19.5 204,-38.5 334,-38.5 334,-19.5 204,-19.5"/>
<text text-anchor="middle" x="269" y="-26.5" font-family="Helvetica,sans-Serif" font-size="10.00">kohonen_update_weights</text>
</a>
</g>
</g>
<!-- Node4&#45;&gt;Node5 -->
<g id="edge4" class="edge">
<title>Node4&#45;&gt;Node5</title>
<path fill="none" stroke="midnightblue" d="M160.74,-15.04C171,-16.38 182.43,-17.86 193.89,-19.36"/>
<polygon fill="midnightblue" stroke="midnightblue" points="193.57,-22.84 203.94,-20.66 194.48,-15.9 193.57,-22.84"/>
</g>
<!-- Node5&#45;&gt;Node3 -->
<g id="edge6" class="edge">
<title>Node5&#45;&gt;Node3</title>
<path fill="none" stroke="midnightblue" d="M280.9,-38.65C293.67,-49.95 315.42,-69.27 334,-86 356.66,-106.4 382.61,-130.07 399.49,-145.5"/>
<polygon fill="midnightblue" stroke="midnightblue" points="397.25,-148.2 406.99,-152.37 401.97,-143.03 397.25,-148.2"/>
</g>
<!-- Node6 -->
<g id="node6" class="node">
<title>Node6</title>
<g id="a_node6"><a xlink:href="../../d1/d6b/group__kohonen__2d.html#gadc22d512c00a9f5799ee067f4fb90b4b" target="_top" xlink:title="Get minimum value and index of the value in a matrix.">
<polygon fill="white" stroke="black" points="384,-19.5 384,-38.5 453,-38.5 453,-19.5 384,-19.5"/>
<text text-anchor="middle" x="418.5" y="-26.5" font-family="Helvetica,sans-Serif" font-size="10.00">get_min_2d</text>
</a>
</g>
</g>
<!-- Node5&#45;&gt;Node6 -->
<g id="edge5" class="edge">
<title>Node5&#45;&gt;Node6</title>
<path fill="none" stroke="midnightblue" d="M334.27,-29C347.61,-29 361.37,-29 373.77,-29"/>
<polygon fill="midnightblue" stroke="midnightblue" points="373.83,-32.5 383.83,-29 373.83,-25.5 373.83,-32.5"/>
</g>
<!-- Node8&#45;&gt;Node3 -->
<g id="edge9" class="edge">
<title>Node8&#45;&gt;Node3</title>
<path fill="none" stroke="midnightblue" d="M310.31,-162C325.56,-162 343.24,-162 359.79,-162"/>
<polygon fill="midnightblue" stroke="midnightblue" points="359.92,-165.5 369.92,-162 359.92,-158.5 359.92,-165.5"/>
</g>
<!-- Node9&#45;&gt;Node2 -->
<g id="edge11" class="edge">
<title>Node9&#45;&gt;Node2</title>
<path fill="none" stroke="midnightblue" d="M168.2,-117.99C188.36,-115.36 211.68,-112.33 230.71,-109.85"/>
<polygon fill="midnightblue" stroke="midnightblue" points="231.33,-113.3 240.8,-108.54 230.43,-106.36 231.33,-113.3"/>
</g>
</g>
</svg>
