<?xml version="1.0" encoding="UTF-8" standalone="no"?>
<!DOCTYPE svg PUBLIC "-//W3C//DTD SVG 1.1//EN"
 "http://www.w3.org/Graphics/SVG/1.1/DTD/svg11.dtd">
<!-- Generated by graphviz version 8.0.5 (20230430.1635)
 -->
<!-- Title: main Pages: 1 -->
<svg width="577pt" height="463pt"
 viewBox="0.00 0.00 577.00 463.41" xmlns="http://www.w3.org/2000/svg" xmlns:xlink="http://www.w3.org/1999/xlink">
<g id="graph0" class="graph" transform="scale(1 1) rotate(0) translate(4 459.41)">
<title>main</title>
<!-- Node1 -->
<g id="Node000001" class="node">
<title>Node1</title>
<g id="a_Node000001"><a xlink:title="Main function.">
<polygon fill="#999999" stroke="#666666" points="37,-247.41 0,-247.41 0,-228.16 37,-228.16 37,-247.41"/>
<text text-anchor="middle" x="18.5" y="-233.91" font-family="Helvetica,sans-Serif" font-size="10.00">main</text>
</a>
</g>
</g>
<!-- Node2 -->
<g id="Node000002" class="node">
<title>Node2</title>
<g id="a_Node000002"><a xlink:href="../../d2/df6/kohonen__som__topology_8c.html#a2256c10b16edba377b64a44b6c656908" target="_top" xlink:title="Convert clock cycle difference to time in seconds.">
<polygon fill="white" stroke="#666666" points="149.75,-322.41 73,-322.41 73,-303.16 149.75,-303.16 149.75,-322.41"/>
<text text-anchor="middle" x="111.38" y="-308.91" font-family="Helvetica,sans-Serif" font-size="10.00">get_clock_diff</text>
</a>
</g>
</g>
<!-- Node1&#45;&gt;Node2 -->
<g id="edge1_Node000001_Node000002" class="edge">
<title>Node1&#45;&gt;Node2</title>
<g id="a_edge1_Node000001_Node000002"><a xlink:title=" ">
<path fill="none" stroke="#63b8ff" d="M26.92,-247.71C36.5,-259.99 54.18,-280.98 73,-294.78 74.27,-295.72 75.6,-296.62 76.96,-297.49"/>
<polygon fill="#63b8ff" stroke="#63b8ff" points="74.87,-300.9 85.29,-302.81 78.33,-294.82 74.87,-300.9"/>
</a>
</g>
</g>
<!-- Node3 -->
<g id="Node000003" class="node">
<title>Node3</title>
<g id="a_Node000003"><a xlink:href="../../d2/df6/kohonen__som__topology_8c.html#a1440a7779ac56f47a3f355ce4a8c7da0" target="_top" xlink:title="Test that creates a random set of points distributed in four clusters in 2D space and trains an SOM t...">
<polygon fill="white" stroke="#666666" points="130.25,-285.41 92.5,-285.41 92.5,-266.16 130.25,-266.16 130.25,-285.41"/>
<text text-anchor="middle" x="111.38" y="-271.91" font-family="Helvetica,sans-Serif" font-size="10.00">test1</text>
</a>
</g>
</g>
<!-- Node1&#45;&gt;Node3 -->
<g id="edge2_Node000001_Node000003" class="edge">
<title>Node1&#45;&gt;Node3</title>
<g id="a_edge2_Node000001_Node000003"><a xlink:title=" ">
<path fill="none" stroke="#63b8ff" d="M37.45,-245.29C50.19,-250.62 67.54,-257.87 82.12,-263.97"/>
<polygon fill="#63b8ff" stroke="#63b8ff" points="80.57,-267.53 91.15,-268.16 83.27,-261.08 80.57,-267.53"/>
</a>
</g>
</g>
<!-- Node12 -->
<g id="Node000012" class="node">
<title>Node12</title>
<g id="a_Node000012"><a xlink:href="../../d2/df6/kohonen__som__topology_8c.html#a0283886819c7c140a023582b7269e2d0" target="_top" xlink:title="Test that creates a random set of points distributed in 4 clusters in 3D space and trains an SOM that...">
<polygon fill="white" stroke="#666666" points="130.25,-229.41 92.5,-229.41 92.5,-210.16 130.25,-210.16 130.25,-229.41"/>
<text text-anchor="middle" x="111.38" y="-215.91" font-family="Helvetica,sans-Serif" font-size="10.00">test2</text>
</a>
</g>
</g>
<!-- Node1&#45;&gt;Node12 -->
<g id="edge14_Node000001_Node000012" class="edge">
<title>Node1&#45;&gt;Node12</title>
<g id="a_edge14_Node000001_Node000012"><a xlink:title=" ">
<path fill="none" stroke="#63b8ff" d="M37.45,-234.23C50.07,-231.73 67.21,-228.33 81.7,-225.46"/>
<polygon fill="#63b8ff" stroke="#63b8ff" points="82.02,-228.77 91.15,-223.39 80.66,-221.9 82.02,-228.77"/>
</a>
</g>
</g>
<!-- Node14 -->
<g id="Node000014" class="node">
<title>Node14</title>
<g id="a_Node000014"><a xlink:href="../../d2/df6/kohonen__som__topology_8c.html#a6d0455dd5c30adda100e95f0423c786e" target="_top" xlink:title="Test that creates a random set of points distributed in eight clusters in 3D space and trains an SOM ...">
<polygon fill="white" stroke="#666666" points="130.25,-116.41 92.5,-116.41 92.5,-97.16 130.25,-97.16 130.25,-116.41"/>
<text text-anchor="middle" x="111.38" y="-102.91" font-family="Helvetica,sans-Serif" font-size="10.00">test3</text>
</a>
</g>
</g>
<!-- Node1&#45;&gt;Node14 -->
<g id="edge22_Node000001_Node000014" class="edge">
<title>Node1&#45;&gt;Node14</title>
<g id="a_edge22_Node000001_Node000014"><a xlink:title=" ">
<path fill="none" stroke="#63b8ff" d="M26.33,-227.94C41.4,-206.22 77.69,-153.9 97.29,-125.65"/>
<polygon fill="#63b8ff" stroke="#63b8ff" points="100.64,-127.96 103.47,-117.74 94.89,-123.97 100.64,-127.96"/>
</a>
</g>
</g>
<!-- Node4 -->
<g id="Node000004" class="node">
<title>Node4</title>
<g id="a_Node000004"><a xlink:href="../../d1/d6b/group__kohonen__2d.html#gaf5ce14f026d6d231bef29161bac2b485" target="_top" xlink:title="Helper function to generate a random number in a given interval.">
<polygon fill="white" stroke="#666666" points="404.12,-248.41 350.62,-248.41 350.62,-229.16 404.12,-229.16 404.12,-248.41"/>
<text text-anchor="middle" x="377.38" y="-234.91" font-family="Helvetica,sans-Serif" font-size="10.00">_random</text>
</a>
</g>
</g>
<!-- Node3&#45;&gt;Node4 -->
<g id="edge3_Node000003_Node000004" class="edge">
<title>Node3&#45;&gt;Node4</title>
<g id="a_edge3_Node000003_Node000004"><a xlink:title=" ">
<path fill="none" stroke="#63b8ff" d="M130.73,-282.18C137.22,-285.04 144.27,-288.9 149.75,-293.78 172.11,-313.72 159.51,-336.32 185.75,-350.78 221.75,-370.63 240.81,-367.76 278.25,-350.78 320.24,-331.75 351.34,-284.89 366.35,-258.2"/>
<polygon fill="#63b8ff" stroke="#63b8ff" points="369.78,-260.21 371.47,-249.75 363.63,-256.88 369.78,-260.21"/>
</a>
</g>
</g>
<!-- Node5 -->
<g id="Node000005" class="node">
<title>Node5</title>
<g id="a_Node000005"><a xlink:href="../../d1/d6b/group__kohonen__2d.html#gac78022076d889bf2ebfb2c41d4527ceb" target="_top" xlink:title="Function that returns the pointer to (x, y, z) ^th location in the linear 3D array given by:">
<polygon fill="white" stroke="#666666" points="569,-191.41 476.5,-191.41 476.5,-172.16 569,-172.16 569,-191.41"/>
<text text-anchor="middle" x="522.75" y="-177.91" font-family="Helvetica,sans-Serif" font-size="10.00">kohonen_data_3d</text>
</a>
</g>
</g>
<!-- Node3&#45;&gt;Node5 -->
<g id="edge4_Node000003_Node000005" class="edge">
<title>Node3&#45;&gt;Node5</title>
<g id="a_edge4_Node000003_Node000005"><a xlink:title=" ">
<path fill="none" stroke="#63b8ff" d="M130.69,-281.65C137.33,-284.49 144.48,-288.46 149.75,-293.78 176.31,-320.65 153.88,-350.5 185.75,-370.78 220.43,-392.86 239.03,-383.1 278.25,-370.78 380.78,-338.6 472.29,-240.61 506.98,-199.86"/>
<polygon fill="#63b8ff" stroke="#63b8ff" points="510.11,-202.56 513.85,-192.65 504.75,-198.07 510.11,-202.56"/>
</a>
</g>
</g>
<!-- Node6 -->
<g id="Node000006" class="node">
<title>Node6</title>
<g id="a_Node000006"><a xlink:href="../../d1/d6b/group__kohonen__2d.html#gacb42eda8af6ebd6a141a34ab00a0b710" target="_top" xlink:title="Apply incremental algorithm with updating neighborhood and learning rates on all samples in the given...">
<polygon fill="white" stroke="#666666" points="270.38,-304.41 193.62,-304.41 193.62,-285.16 270.38,-285.16 270.38,-304.41"/>
<text text-anchor="middle" x="232" y="-290.91" font-family="Helvetica,sans-Serif" font-size="10.00">kohonen_som</text>
</a>
</g>
</g>
<!-- Node3&#45;&gt;Node6 -->
<g id="edge5_Node000003_Node000006" class="edge">
<title>Node3&#45;&gt;Node6</title>
<g id="a_edge5_Node000003_Node000006"><a xlink:title=" ">
<path fill="none" stroke="#63b8ff" d="M130.65,-278.71C144.49,-280.93 164.19,-284.08 182.47,-287.01"/>
<polygon fill="#63b8ff" stroke="#63b8ff" points="181.88,-290.62 192.3,-288.75 182.98,-283.71 181.88,-290.62"/>
</a>
</g>
</g>
<!-- Node9 -->
<g id="Node000009" class="node">
<title>Node9</title>
<g id="a_Node000009"><a xlink:href="../../d1/d6b/group__kohonen__2d.html#ga6824dc6d973eb3339af7aef5fea78b0c" target="_top" xlink:title="Save a given n&#45;dimensional data martix to file.">
<polygon fill="white" stroke="#666666" points="270.38,-153.41 193.62,-153.41 193.62,-134.16 270.38,-134.16 270.38,-153.41"/>
<text text-anchor="middle" x="232" y="-139.91" font-family="Helvetica,sans-Serif" font-size="10.00">save_2d_data</text>
</a>
</g>
</g>
<!-- Node3&#45;&gt;Node9 -->
<g id="edge9_Node000003_Node000009" class="edge">
<title>Node3&#45;&gt;Node9</title>
<g id="a_edge9_Node000003_Node000009"><a xlink:title=" ">
<path fill="none" stroke="#63b8ff" d="M122.76,-265.96C130.39,-258.63 140.92,-248.28 149.75,-238.78 173.75,-212.97 200,-181.67 215.99,-162.24"/>
<polygon fill="#63b8ff" stroke="#63b8ff" points="219.33,-164.68 222.96,-154.73 213.91,-160.25 219.33,-164.68"/>
</a>
</g>
</g>
<!-- Node10 -->
<g id="Node000010" class="node">
<title>Node10</title>
<g id="a_Node000010"><a xlink:href="../../d1/d6b/group__kohonen__2d.html#ga49d35f68f5d11d8ef6f8cce0d0e7bcba" target="_top" xlink:title="Create the distance matrix or U&#45;matrix from the trained weights and save to disk.">
<polygon fill="white" stroke="#666666" points="271.88,-116.41 192.12,-116.41 192.12,-97.16 271.88,-97.16 271.88,-116.41"/>
<text text-anchor="middle" x="232" y="-102.91" font-family="Helvetica,sans-Serif" font-size="10.00">save_u_matrix</text>
</a>
</g>
</g>
<!-- Node3&#45;&gt;Node10 -->
<g id="edge10_Node000003_Node000010" class="edge">
<title>Node3&#45;&gt;Node10</title>
<g id="a_edge10_Node000003_Node000010"><a xlink:title=" ">
<path fill="none" stroke="#63b8ff" d="M125.41,-265.7C133.43,-258.87 143.37,-249.23 149.75,-238.78 177.44,-193.44 149.57,-163.7 185.75,-124.78 186.31,-124.18 186.9,-123.6 187.5,-123.03"/>
<polygon fill="#63b8ff" stroke="#63b8ff" points="189.21,-125.4 195.3,-116.72 185.13,-119.71 189.21,-125.4"/>
</a>
</g>
</g>
<!-- Node11 -->
<g id="Node000011" class="node">
<title>Node11</title>
<g id="a_Node000011"><a xlink:href="../../d2/df6/kohonen__som__topology_8c.html#adb5ded007be1fd666fab9affe6764018" target="_top" xlink:title="Creates a random set of points distributed in four clusters in 3D space with centroids at the points.">
<polygon fill="white" stroke="#666666" points="275.62,-341.41 188.38,-341.41 188.38,-322.16 275.62,-322.16 275.62,-341.41"/>
<text text-anchor="middle" x="232" y="-327.91" font-family="Helvetica,sans-Serif" font-size="10.00">test_2d_classes</text>
</a>
</g>
</g>
<!-- Node3&#45;&gt;Node11 -->
<g id="edge12_Node000003_Node000011" class="edge">
<title>Node3&#45;&gt;Node11</title>
<g id="a_edge12_Node000003_Node000011"><a xlink:title=" ">
<path fill="none" stroke="#63b8ff" d="M130.73,-284.36C136.82,-287.28 143.61,-290.6 149.75,-293.78 166,-302.2 169.21,-305.94 185.75,-313.78 188.38,-315.03 191.12,-316.27 193.9,-317.48"/>
<polygon fill="#63b8ff" stroke="#63b8ff" points="192.38,-321.06 202.96,-321.69 195.08,-314.6 192.38,-321.06"/>
</a>
</g>
</g>
<!-- Node7 -->
<g id="Node000007" class="node">
<title>Node7</title>
<g id="a_Node000007"><a xlink:href="../../d1/d6b/group__kohonen__2d.html#ga83abb572c60d202e100595a989dfe123" target="_top" xlink:title="Update weights of the SOM using Kohonen algorithm.">
<polygon fill="white" stroke="#666666" points="440.5,-455.41 314.25,-455.41 314.25,-436.16 440.5,-436.16 440.5,-455.41"/>
<text text-anchor="middle" x="377.38" y="-441.91" font-family="Helvetica,sans-Serif" font-size="10.00">kohonen_update_weights</text>
</a>
</g>
</g>
<!-- Node6&#45;&gt;Node7 -->
<g id="edge6_Node000006_Node000007" class="edge">
<title>Node6&#45;&gt;Node7</title>
<g id="a_edge6_Node000006_Node000007"><a xlink:title=" ">
<path fill="none" stroke="#63b8ff" d="M264.89,-304.83C269.61,-307.05 274.23,-309.69 278.25,-312.78 319.35,-344.48 351.36,-397.79 366.61,-426.34"/>
<polygon fill="#63b8ff" stroke="#63b8ff" points="363.9,-427.72 371.61,-434.98 370.11,-424.49 363.9,-427.72"/>
</a>
</g>
</g>
<!-- Node7&#45;&gt;Node5 -->
<g id="edge8_Node000007_Node000005" class="edge">
<title>Node7&#45;&gt;Node5</title>
<g id="a_edge8_Node000007_Node000005"><a xlink:title=" ">
<path fill="none" stroke="#63b8ff" d="M419.59,-435.73C427.3,-432.32 434.74,-427.79 440.5,-421.78 501.29,-358.37 516.68,-247.86 520.51,-202.31"/>
<polygon fill="#63b8ff" stroke="#63b8ff" points="524.06,-202.73 521.3,-192.5 517.08,-202.22 524.06,-202.73"/>
</a>
</g>
</g>
<!-- Node8 -->
<g id="Node000008" class="node">
<title>Node8</title>
<g id="a_Node000008"><a xlink:href="../../d1/d6b/group__kohonen__2d.html#gadc22d512c00a9f5799ee067f4fb90b4b" target="_top" xlink:title="Get minimum value and index of the value in a matrix.">
<polygon fill="white" stroke="#666666" points="555.88,-455.41 489.62,-455.41 489.62,-436.16 555.88,-436.16 555.88,-455.41"/>
<text text-anchor="middle" x="522.75" y="-441.91" font-family="Helvetica,sans-Serif" font-size="10.00">get_min_2d</text>
</a>
</g>
</g>
<!-- Node7&#45;&gt;Node8 -->
<g id="edge7_Node000007_Node000008" class="edge">
<title>Node7&#45;&gt;Node8</title>
<g id="a_edge7_Node000007_Node000008"><a xlink:title=" ">
<path fill="none" stroke="#63b8ff" d="M440.84,-445.78C453.54,-445.78 466.63,-445.78 478.48,-445.78"/>
<polygon fill="#63b8ff" stroke="#63b8ff" points="478.41,-449.28 488.41,-445.78 478.41,-442.28 478.41,-449.28"/>
</a>
</g>
</g>
<!-- Node10&#45;&gt;Node5 -->
<g id="edge11_Node000010_Node000005" class="edge">
<title>Node10&#45;&gt;Node5</title>
<g id="a_edge11_Node000010_Node000005"><a xlink:title=" ">
<path fill="none" stroke="#63b8ff" d="M271.94,-116.9C323.86,-130.38 415.77,-154.26 472.46,-168.98"/>
<polygon fill="#63b8ff" stroke="#63b8ff" points="471.41,-172.58 481.96,-171.71 473.17,-165.81 471.41,-172.58"/>
</a>
</g>
</g>
<!-- Node11&#45;&gt;Node4 -->
<g id="edge13_Node000011_Node000004" class="edge">
<title>Node11&#45;&gt;Node4</title>
<g id="a_edge13_Node000011_Node000004"><a xlink:title=" ">
<path fill="none" stroke="#63b8ff" d="M261.8,-321.71C267.38,-319.37 273.1,-316.7 278.25,-313.78 307.72,-297.08 338.19,-272.43 357.2,-256"/>
<polygon fill="#63b8ff" stroke="#63b8ff" points="359.11,-258.11 364.32,-248.88 354.49,-252.84 359.11,-258.11"/>
</a>
</g>
</g>
<!-- Node12&#45;&gt;Node4 -->
<g id="edge15_Node000012_Node000004" class="edge">
<title>Node12&#45;&gt;Node4</title>
<g id="a_edge15_Node000012_Node000004"><a xlink:title=" ">
<path fill="none" stroke="#63b8ff" d="M130.52,-221.09C173.55,-224.19 282.45,-232.02 339.79,-236.15"/>
<polygon fill="#63b8ff" stroke="#63b8ff" points="339.31,-239.7 349.53,-236.92 339.81,-232.72 339.31,-239.7"/>
</a>
</g>
</g>
<!-- Node12&#45;&gt;Node5 -->
<g id="edge16_Node000012_Node000005" class="edge">
<title>Node12&#45;&gt;Node5</title>
<g id="a_edge16_Node000012_Node000005"><a xlink:title=" ">
<path fill="none" stroke="#63b8ff" d="M130.49,-218.1C188.62,-212.71 372.05,-195.68 465.64,-186.99"/>
<polygon fill="#63b8ff" stroke="#63b8ff" points="465.68,-190.41 475.32,-186 465.04,-183.44 465.68,-190.41"/>
</a>
</g>
</g>
<!-- Node12&#45;&gt;Node6 -->
<g id="edge17_Node000012_Node000006" class="edge">
<title>Node12&#45;&gt;Node6</title>
<g id="a_edge17_Node000012_Node000006"><a xlink:title=" ">
<path fill="none" stroke="#63b8ff" d="M123.11,-229.72C136.82,-242.01 161.67,-263.01 185.75,-276.78 187.84,-277.98 190.02,-279.13 192.25,-280.23"/>
<polygon fill="#63b8ff" stroke="#63b8ff" points="190.63,-283.79 201.19,-284.74 193.52,-277.42 190.63,-283.79"/>
</a>
</g>
</g>
<!-- Node12&#45;&gt;Node9 -->
<g id="edge18_Node000012_Node000009" class="edge">
<title>Node12&#45;&gt;Node9</title>
<g id="a_edge18_Node000012_Node000009"><a xlink:title=" ">
<path fill="none" stroke="#63b8ff" d="M125.55,-209.67C139.97,-198.78 163.95,-181.21 185.75,-167.78 190.77,-164.69 196.22,-161.6 201.54,-158.7"/>
<polygon fill="#63b8ff" stroke="#63b8ff" points="202.67,-161.53 209.87,-153.76 199.39,-155.35 202.67,-161.53"/>
</a>
</g>
</g>
<!-- Node12&#45;&gt;Node10 -->
<g id="edge19_Node000012_Node000010" class="edge">
<title>Node12&#45;&gt;Node10</title>
<g id="a_edge19_Node000012_Node000010"><a xlink:title=" ">
<path fill="none" stroke="#63b8ff" d="M117.68,-209.75C128.24,-190.69 153.63,-148.99 185.75,-124.78 187.19,-123.7 188.7,-122.67 190.27,-121.7"/>
<polygon fill="#63b8ff" stroke="#63b8ff" points="191.47,-124.49 198.64,-116.69 188.17,-118.31 191.47,-124.49"/>
</a>
</g>
</g>
<!-- Node13 -->
<g id="Node000013" class="node">
<title>Node13</title>
<g id="a_Node000013"><a xlink:href="../../d2/df6/kohonen__som__topology_8c.html#ad9e25202bb8b481461f932668f249dbc" target="_top" xlink:title="Creates a random set of points distributed in four clusters in 3D space with centroids at the points.">
<polygon fill="white" stroke="#666666" points="278.25,-267.41 185.75,-267.41 185.75,-248.16 278.25,-248.16 278.25,-267.41"/>
<text text-anchor="middle" x="232" y="-253.91" font-family="Helvetica,sans-Serif" font-size="10.00">test_3d_classes1</text>
</a>
</g>
</g>
<!-- Node12&#45;&gt;Node13 -->
<g id="edge20_Node000012_Node000013" class="edge">
<title>Node12&#45;&gt;Node13</title>
<g id="a_edge20_Node000012_Node000013"><a xlink:title=" ">
<path fill="none" stroke="#63b8ff" d="M130.65,-225.64C146.19,-230.62 169.09,-237.95 189.09,-244.36"/>
<polygon fill="#63b8ff" stroke="#63b8ff" points="187.95,-247.99 198.54,-247.71 190.08,-241.32 187.95,-247.99"/>
</a>
</g>
</g>
<!-- Node13&#45;&gt;Node4 -->
<g id="edge21_Node000013_Node000004" class="edge">
<title>Node13&#45;&gt;Node4</title>
<g id="a_edge21_Node000013_Node000004"><a xlink:title=" ">
<path fill="none" stroke="#63b8ff" d="M278.36,-251.77C298.16,-249.15 321.07,-246.11 339.75,-243.64"/>
<polygon fill="#63b8ff" stroke="#63b8ff" points="340.04,-247 349.49,-242.21 339.12,-240.06 340.04,-247"/>
</a>
</g>
</g>
<!-- Node14&#45;&gt;Node4 -->
<g id="edge23_Node000014_Node000004" class="edge">
<title>Node14&#45;&gt;Node4</title>
<g id="a_edge23_Node000014_Node000004"><a xlink:title=" ">
<path fill="none" stroke="#63b8ff" d="M130.62,-98.19C162.64,-84.46 230.1,-61.65 278.25,-87.78 330.09,-115.92 358.82,-184.6 370.34,-218.78"/>
<polygon fill="#63b8ff" stroke="#63b8ff" points="367.21,-219.49 373.6,-227.94 373.88,-217.35 367.21,-219.49"/>
</a>
</g>
</g>
<!-- Node14&#45;&gt;Node5 -->
<g id="edge24_Node000014_Node000005" class="edge">
<title>Node14&#45;&gt;Node5</title>
<g id="a_edge24_Node000014_Node000005"><a xlink:title=" ">
<path fill="none" stroke="#63b8ff" d="M116.4,-96.86C125.31,-76.38 148.9,-29.88 185.75,-11.78 222.65,6.34 239.03,0.55 278.25,-11.78 375.64,-42.42 468.06,-127.38 504.93,-164.29"/>
<polygon fill="#63b8ff" stroke="#63b8ff" points="501.81,-166.12 511.31,-170.8 506.79,-161.21 501.81,-166.12"/>
</a>
</g>
</g>
<!-- Node14&#45;&gt;Node6 -->
<g id="edge25_Node000014_Node000006" class="edge">
<title>Node14&#45;&gt;Node6</title>
<g id="a_edge25_Node000014_Node000006"><a xlink:title=" ">
<path fill="none" stroke="#63b8ff" d="M116.33,-116.51C130.68,-151.7 179.47,-270.68 185.75,-276.78 186.47,-277.48 187.21,-278.15 187.99,-278.8"/>
<polygon fill="#63b8ff" stroke="#63b8ff" points="185.78,-282.2 196.06,-284.79 189.64,-276.36 185.78,-282.2"/>
</a>
</g>
</g>
<!-- Node14&#45;&gt;Node9 -->
<g id="edge26_Node000014_Node000009" class="edge">
<title>Node14&#45;&gt;Node9</title>
<g id="a_edge26_Node000014_Node000009"><a xlink:title=" ">
<path fill="none" stroke="#63b8ff" d="M130.65,-112.48C145.97,-117.26 168.44,-124.27 188.24,-130.45"/>
<polygon fill="#63b8ff" stroke="#63b8ff" points="187.01,-134.04 197.6,-133.68 189.09,-127.36 187.01,-134.04"/>
</a>
</g>
</g>
<!-- Node14&#45;&gt;Node10 -->
<g id="edge27_Node000014_Node000010" class="edge">
<title>Node14&#45;&gt;Node10</title>
<g id="a_edge27_Node000014_Node000010"><a xlink:title=" ">
<path fill="none" stroke="#63b8ff" d="M130.65,-106.78C144.11,-106.78 163.09,-106.78 180.93,-106.78"/>
<polygon fill="#63b8ff" stroke="#63b8ff" points="180.83,-110.28 190.83,-106.78 180.83,-103.28 180.83,-110.28"/>
</a>
</g>
</g>
<!-- Node15 -->
<g id="Node000015" class="node">
<title>Node15</title>
<g id="a_Node000015"><a xlink:href="../../d2/df6/kohonen__som__topology_8c.html#a5bb02a8322d717ead1b11182c5f02a3a" target="_top" xlink:title="Creates a random set of points distributed in four clusters in 3D space with centroids at the points.">
<polygon fill="white" stroke="#666666" points="278.25,-40.41 185.75,-40.41 185.75,-21.16 278.25,-21.16 278.25,-40.41"/>
<text text-anchor="middle" x="232" y="-26.91" font-family="Helvetica,sans-Serif" font-size="10.00">test_3d_classes2</text>
</a>
</g>
</g>
<!-- Node14&#45;&gt;Node15 -->
<g id="edge28_Node000014_Node000015" class="edge">
<title>Node14&#45;&gt;Node15</title>
<g id="a_edge28_Node000014_Node000015"><a xlink:title=" ">
<path fill="none" stroke="#63b8ff" d="M125.55,-96.67C139.97,-85.78 163.95,-68.21 185.75,-54.78 190.77,-51.69 196.22,-48.6 201.54,-45.7"/>
<polygon fill="#63b8ff" stroke="#63b8ff" points="202.67,-48.53 209.87,-40.76 199.39,-42.35 202.67,-48.53"/>
</a>
</g>
</g>
<!-- Node15&#45;&gt;Node4 -->
<g id="edge29_Node000015_Node000004" class="edge">
<title>Node15&#45;&gt;Node4</title>
<g id="a_edge29_Node000015_Node000004"><a xlink:title=" ">
<path fill="none" stroke="#63b8ff" d="M258.26,-40.84C265.31,-44.49 272.58,-49.13 278.25,-54.78 327.04,-103.47 357.54,-181.51 369.96,-218.32"/>
<polygon fill="#63b8ff" stroke="#63b8ff" points="366.93,-219.31 373.36,-227.73 373.58,-217.14 366.93,-219.31"/>
</a>
</g>
</g>
</g>
</svg>
