<?xml version="1.0" encoding="UTF-8" standalone="no"?>
<!DOCTYPE svg PUBLIC "-//W3C//DTD SVG 1.1//EN"
 "http://www.w3.org/Graphics/SVG/1.1/DTD/svg11.dtd">
<!-- Generated by graphviz version 5.0.1 (20220820.1526)
 -->
<!-- Title: test3 Pages: 1 -->
<svg width="467pt" height="202pt"
 viewBox="0.00 0.00 467.00 202.50" xmlns="http://www.w3.org/2000/svg" xmlns:xlink="http://www.w3.org/1999/xlink">
<g id="graph0" class="graph" transform="scale(1 1) rotate(0) translate(4 198.5)">
<title>test3</title>
<!-- Node1 -->
<g id="node1" class="node">
<title>Node1</title>
<g id="a_node1"><a xlink:title="Test that creates a random set of points distributed in eight clusters in 3D space and trains an SOM ...">
<polygon fill="#999999" stroke="#666666" points="38,-113 0,-113 0,-94 38,-94 38,-113"/>
<text text-anchor="middle" x="19" y="-101" font-family="Helvetica,sans-Serif" font-size="10.00">test3</text>
</a>
</g>
</g>
<!-- Node2 -->
<g id="node2" class="node">
<title>Node2</title>
<g id="a_node2"><a xlink:href="../../d1/d6b/group__kohonen__2d.html#gaf5ce14f026d6d231bef29161bac2b485" target="_top" xlink:title="Helper function to generate a random number in a given interval.">
<polygon fill="white" stroke="#666666" points="293.5,-113 239.5,-113 239.5,-94 293.5,-94 293.5,-113"/>
<text text-anchor="middle" x="266.5" y="-101" font-family="Helvetica,sans-Serif" font-size="10.00">_random</text>
</a>
</g>
</g>
<!-- Node1&#45;&gt;Node2 -->
<g id="edge1" class="edge">
<title>Node1&#45;&gt;Node2</title>
<path fill="none" stroke="#63b8ff" d="M30.14,-93.72C40.3,-84.66 56.85,-71.81 74,-66.5 130.86,-48.89 199.93,-72.91 237.63,-89.69"/>
<polygon fill="#63b8ff" stroke="#63b8ff" points="236.41,-92.98 246.95,-93.98 239.33,-86.62 236.41,-92.98"/>
</g>
<!-- Node3 -->
<g id="node3" class="node">
<title>Node3</title>
<g id="a_node3"><a xlink:href="../../d1/d6b/group__kohonen__2d.html#gac78022076d889bf2ebfb2c41d4527ceb" target="_top" xlink:title="Function that returns the pointer to (x, y, z) ^th location in the linear 3D array given by:">
<polygon fill="white" stroke="#666666" points="459,-170 366,-170 366,-151 459,-151 459,-170"/>
<text text-anchor="middle" x="412.5" y="-158" font-family="Helvetica,sans-Serif" font-size="10.00">kohonen_data_3d</text>
</a>
</g>
</g>
<!-- Node1&#45;&gt;Node3 -->
<g id="edge2" class="edge">
<title>Node1&#45;&gt;Node3</title>
<path fill="none" stroke="#63b8ff" d="M25.48,-113.32C33.9,-127.35 51.43,-152.72 74,-164.5 170.36,-214.78 304.25,-190.1 370.71,-172.69"/>
<polygon fill="#63b8ff" stroke="#63b8ff" points="371.66,-176.06 380.4,-170.08 369.83,-169.3 371.66,-176.06"/>
</g>
<!-- Node4 -->
<g id="node4" class="node">
<title>Node4</title>
<g id="a_node4"><a xlink:href="../../d1/d6b/group__kohonen__2d.html#gacb42eda8af6ebd6a141a34ab00a0b710" target="_top" xlink:title="Apply incremental algorithm with updating neighborhood and learning rates on all samples in the given...">
<polygon fill="white" stroke="#666666" points="159,-19 82,-19 82,0 159,0 159,-19"/>
<text text-anchor="middle" x="120.5" y="-7" font-family="Helvetica,sans-Serif" font-size="10.00">kohonen_som</text>
</a>
</g>
</g>
<!-- Node1&#45;&gt;Node4 -->
<g id="edge3" class="edge">
<title>Node1&#45;&gt;Node4</title>
<path fill="none" stroke="#63b8ff" d="M25.57,-93.84C34.35,-79.28 52.63,-51.49 74,-33.5 78.08,-30.07 82.73,-26.93 87.47,-24.13"/>
<polygon fill="#63b8ff" stroke="#63b8ff" points="89.43,-27.05 96.55,-19.2 86.09,-20.9 89.43,-27.05"/>
</g>
<!-- Node7 -->
<g id="node7" class="node">
<title>Node7</title>
<g id="a_node7"><a xlink:href="../../d1/d6b/group__kohonen__2d.html#ga6824dc6d973eb3339af7aef5fea78b0c" target="_top" xlink:title="Save a given n&#45;dimensional data martix to file.">
<polygon fill="white" stroke="#666666" points="159,-95 82,-95 82,-76 159,-76 159,-95"/>
<text text-anchor="middle" x="120.5" y="-83" font-family="Helvetica,sans-Serif" font-size="10.00">save_2d_data</text>
</a>
</g>
</g>
<!-- Node1&#45;&gt;Node7 -->
<g id="edge7" class="edge">
<title>Node1&#45;&gt;Node7</title>
<path fill="none" stroke="#63b8ff" d="M38.25,-100.2C47.8,-98.47 59.99,-96.26 72.01,-94.09"/>
<polygon fill="#63b8ff" stroke="#63b8ff" points="72.78,-97.51 81.99,-92.28 71.53,-90.62 72.78,-97.51"/>
</g>
<!-- Node8 -->
<g id="node8" class="node">
<title>Node8</title>
<g id="a_node8"><a xlink:href="../../d1/d6b/group__kohonen__2d.html#ga49d35f68f5d11d8ef6f8cce0d0e7bcba" target="_top" xlink:title="Create the distance matrix or U&#45;matrix from the trained weights and save to disk.">
<polygon fill="white" stroke="#666666" points="306.5,-170 226.5,-170 226.5,-151 306.5,-151 306.5,-170"/>
<text text-anchor="middle" x="266.5" y="-158" font-family="Helvetica,sans-Serif" font-size="10.00">save_u_matrix</text>
</a>
</g>
</g>
<!-- Node1&#45;&gt;Node8 -->
<g id="edge8" class="edge">
<title>Node1&#45;&gt;Node8</title>
<path fill="none" stroke="#63b8ff" d="M30.22,-113.17C40.43,-122.19 57.02,-135.19 74,-141.5 120.14,-158.66 176.6,-162.36 216.22,-162.41"/>
<polygon fill="#63b8ff" stroke="#63b8ff" points="216.44,-165.91 226.42,-162.34 216.39,-158.91 216.44,-165.91"/>
</g>
<!-- Node9 -->
<g id="node9" class="node">
<title>Node9</title>
<g id="a_node9"><a xlink:href="../../d2/df6/kohonen__som__topology_8c.html#a5bb02a8322d717ead1b11182c5f02a3a" target="_top" xlink:title="Creates a random set of points distributed in four clusters in 3D space with centroids at the points.">
<polygon fill="white" stroke="#666666" points="167,-132 74,-132 74,-113 167,-113 167,-132"/>
<text text-anchor="middle" x="120.5" y="-120" font-family="Helvetica,sans-Serif" font-size="10.00">test_3d_classes2</text>
</a>
</g>
</g>
<!-- Node1&#45;&gt;Node9 -->
<g id="edge10" class="edge">
<title>Node1&#45;&gt;Node9</title>
<path fill="none" stroke="#63b8ff" d="M38.25,-106.98C45.58,-108.39 54.47,-110.08 63.64,-111.83"/>
<polygon fill="#63b8ff" stroke="#63b8ff" points="63.15,-115.3 73.63,-113.74 64.47,-108.43 63.15,-115.3"/>
</g>
<!-- Node5 -->
<g id="node5" class="node">
<title>Node5</title>
<g id="a_node5"><a xlink:href="../../d1/d6b/group__kohonen__2d.html#ga83abb572c60d202e100595a989dfe123" target="_top" xlink:title="Update weights of the SOM using Kohonen algorithm.">
<polygon fill="white" stroke="#666666" points="330,-38 203,-38 203,-19 330,-19 330,-38"/>
<text text-anchor="middle" x="266.5" y="-26" font-family="Helvetica,sans-Serif" font-size="10.00">kohonen_update_weights</text>
</a>
</g>
</g>
<!-- Node4&#45;&gt;Node5 -->
<g id="edge4" class="edge">
<title>Node4&#45;&gt;Node5</title>
<path fill="none" stroke="#63b8ff" d="M159.33,-14.49C169.65,-15.85 181.18,-17.37 192.73,-18.9"/>
<polygon fill="#63b8ff" stroke="#63b8ff" points="192.49,-22.4 202.86,-20.24 193.41,-15.46 192.49,-22.4"/>
</g>
<!-- Node5&#45;&gt;Node3 -->
<g id="edge6" class="edge">
<title>Node5&#45;&gt;Node3</title>
<path fill="none" stroke="#63b8ff" d="M278.62,-38.35C291.17,-49.48 312.15,-68.18 330,-84.5 352.21,-104.8 377.52,-128.49 393.96,-143.96"/>
<polygon fill="#63b8ff" stroke="#63b8ff" points="391.59,-146.53 401.27,-150.84 396.39,-141.43 391.59,-146.53"/>
</g>
<!-- Node6 -->
<g id="node6" class="node">
<title>Node6</title>
<g id="a_node6"><a xlink:href="../../d1/d6b/group__kohonen__2d.html#gadc22d512c00a9f5799ee067f4fb90b4b" target="_top" xlink:title="Get minimum value and index of the value in a matrix.">
<polygon fill="white" stroke="#666666" points="446,-38 379,-38 379,-19 446,-19 446,-38"/>
<text text-anchor="middle" x="412.5" y="-26" font-family="Helvetica,sans-Serif" font-size="10.00">get_min_2d</text>
</a>
</g>
</g>
<!-- Node5&#45;&gt;Node6 -->
<g id="edge5" class="edge">
<title>Node5&#45;&gt;Node6</title>
<path fill="none" stroke="#63b8ff" d="M330.24,-28.5C343.14,-28.5 356.44,-28.5 368.45,-28.5"/>
<polygon fill="#63b8ff" stroke="#63b8ff" points="368.63,-32 378.63,-28.5 368.63,-25 368.63,-32"/>
</g>
<!-- Node8&#45;&gt;Node3 -->
<g id="edge9" class="edge">
<title>Node8&#45;&gt;Node3</title>
<path fill="none" stroke="#63b8ff" d="M306.85,-160.5C321.81,-160.5 339.15,-160.5 355.37,-160.5"/>
<polygon fill="#63b8ff" stroke="#63b8ff" points="355.83,-164 365.83,-160.5 355.83,-157 355.83,-164"/>
</g>
<!-- Node9&#45;&gt;Node2 -->
<g id="edge11" class="edge">
<title>Node9&#45;&gt;Node2</title>
<path fill="none" stroke="#63b8ff" d="M167.06,-116.49C187.09,-113.85 210.28,-110.79 229.12,-108.3"/>
<polygon fill="#63b8ff" stroke="#63b8ff" points="229.63,-111.76 239.09,-106.98 228.72,-104.82 229.63,-111.76"/>
</g>
</g>
</svg>
