<?xml version="1.0" encoding="UTF-8" standalone="no"?>
<!DOCTYPE svg PUBLIC "-//W3C//DTD SVG 1.1//EN"
 "http://www.w3.org/Graphics/SVG/1.1/DTD/svg11.dtd">
<!-- Generated by graphviz version 7.0.6 (20230106.0513)
 -->
<!-- Title: main Pages: 1 -->
<!--zoomable 463 -->
<svg id="main" version="1.1" xmlns="http://www.w3.org/2000/svg" xmlns:xlink="http://www.w3.org/1999/xlink" xml:space="preserve" onload="init(evt)">
<style type="text/css"><![CDATA[
.edge:hover path { stroke: red; }
.edge:hover polygon { stroke: red; fill: red; }
]]></style>
<script type="text/javascript"><![CDATA[
var edges = document.getElementsByTagName('g');
if (edges && edges.length) {
  for (var i=0;i<edges.length;i++) {
    if (edges[i].id.substr(0,4)=='edge') {
      edges[i].setAttribute('class','edge');
    }
  }
}
]]></script>
        <defs>
                <circle id="rim" cx="0" cy="0" r="7"/>
                <circle id="rim2" cx="0" cy="0" r="3.5"/>
                <g id="zoomPlus">
                        <use xlink:href="#rim" fill="#404040">
                                <set attributeName="fill" to="#808080" begin="zoomplus.mouseover" end="zoomplus.mouseout"/>
                        </use>
                        <path d="M-4,0h8M0,-4v8" fill="none" stroke="white" stroke-width="1.5" pointer-events="none"/>
                </g>
                <g id="zoomMin">
                        <use xlink:href="#rim" fill="#404040">
                                <set attributeName="fill" to="#808080" begin="zoomminus.mouseover" end="zoomminus.mouseout"/>
                        </use>
                        <path d="M-4,0h8" fill="none" stroke="white" stroke-width="1.5" pointer-events="none"/>
                </g>
                <g id="dirArrow">
                        <path fill="none" stroke="white" stroke-width="1.5" d="M0,-3.0v7 M-2.5,-0.5L0,-3.0L2.5,-0.5"/>
                </g>
               <g id="resetDef">
                       <use xlink:href="#rim2" fill="#404040">
                               <set attributeName="fill" to="#808080" begin="reset.mouseover" end="reset.mouseout"/>
                       </use>
               </g>
        </defs>

<script type="text/javascript">
var viewWidth = 580;
var viewHeight = 463;
var sectionId = 'dynsection-1';
</script>
<script xlink:href="../../svgpan.js"/>
<svg id="graph" class="graph">
<g id="viewport">
<title>main</title>
<!-- Node1 -->
<g id="node1" class="node">
<title>Node1</title>
<g id="a_node1"><a xlink:title="Main function.">
<polygon fill="#999999" stroke="#666666" points="38,-247.33 0,-247.33 0,-228.33 38,-228.33 38,-247.33"/>
<text text-anchor="middle" x="19" y="-235.33" font-family="Helvetica,sans-Serif" font-size="10.00">main</text>
</a>
</g>
</g>
<!-- Node2 -->
<g id="node2" class="node">
<title>Node2</title>
<g id="a_node2"><a xlink:href="../../d2/df6/kohonen__som__topology_8c.html#a2256c10b16edba377b64a44b6c656908" target="_top" xlink:title="Convert clock cycle difference to time in seconds.">
<polygon fill="white" stroke="#666666" points="151,-322.33 74,-322.33 74,-303.33 151,-303.33 151,-322.33"/>
<text text-anchor="middle" x="112.5" y="-310.33" font-family="Helvetica,sans-Serif" font-size="10.00">get_clock_diff</text>
</a>
</g>
</g>
<!-- Node1&#45;&gt;Node2 -->
<g id="edge1" class="edge">
<title>Node1&#45;&gt;Node2</title>
<path fill="none" stroke="#63b8ff" d="M27.51,-247.75C37.19,-260.03 55.05,-281.02 74,-294.83 75.15,-295.67 76.34,-296.48 77.57,-297.27"/>
<polygon fill="#63b8ff" stroke="#63b8ff" points="75.61,-300.19 86.03,-302.1 79.08,-294.11 75.61,-300.19"/>
</g>
<!-- Node3 -->
<g id="node3" class="node">
<title>Node3</title>
<g id="a_node3"><a xlink:href="../../d2/df6/kohonen__som__topology_8c.html#a1440a7779ac56f47a3f355ce4a8c7da0" target="_top" xlink:title="Test that creates a random set of points distributed in four clusters in 2D space and trains an SOM t...">
<polygon fill="white" stroke="#666666" points="131.5,-285.33 93.5,-285.33 93.5,-266.33 131.5,-266.33 131.5,-285.33"/>
<text text-anchor="middle" x="112.5" y="-273.33" font-family="Helvetica,sans-Serif" font-size="10.00">test1</text>
</a>
</g>
</g>
<!-- Node1&#45;&gt;Node3 -->
<g id="edge2" class="edge">
<title>Node1&#45;&gt;Node3</title>
<path fill="none" stroke="#63b8ff" d="M38.08,-245.34C50.78,-250.61 68.03,-257.78 82.63,-263.84"/>
<polygon fill="#63b8ff" stroke="#63b8ff" points="81.17,-267.02 91.75,-267.63 83.86,-260.56 81.17,-267.02"/>
</g>
<!-- Node12 -->
<g id="node12" class="node">
<title>Node12</title>
<g id="a_node12"><a xlink:href="../../d2/df6/kohonen__som__topology_8c.html#a0283886819c7c140a023582b7269e2d0" target="_top" xlink:title="Test that creates a random set of points distributed in 4 clusters in 3D space and trains an SOM that...">
<polygon fill="white" stroke="#666666" points="131.5,-229.33 93.5,-229.33 93.5,-210.33 131.5,-210.33 131.5,-229.33"/>
<text text-anchor="middle" x="112.5" y="-217.33" font-family="Helvetica,sans-Serif" font-size="10.00">test2</text>
</a>
</g>
</g>
<!-- Node1&#45;&gt;Node12 -->
<g id="edge14" class="edge">
<title>Node1&#45;&gt;Node12</title>
<path fill="none" stroke="#63b8ff" d="M38.08,-234.27C50.65,-231.8 67.7,-228.45 82.2,-225.59"/>
<polygon fill="#63b8ff" stroke="#63b8ff" points="82.53,-229.1 91.66,-223.73 81.17,-222.23 82.53,-229.1"/>
</g>
<!-- Node14 -->
<g id="node14" class="node">
<title>Node14</title>
<g id="a_node14"><a xlink:href="../../d2/df6/kohonen__som__topology_8c.html#a6d0455dd5c30adda100e95f0423c786e" target="_top" xlink:title="Test that creates a random set of points distributed in eight clusters in 3D space and trains an SOM ...">
<polygon fill="white" stroke="#666666" points="131.5,-116.33 93.5,-116.33 93.5,-97.33 131.5,-97.33 131.5,-116.33"/>
<text text-anchor="middle" x="112.5" y="-104.33" font-family="Helvetica,sans-Serif" font-size="10.00">test3</text>
</a>
</g>
</g>
<!-- Node1&#45;&gt;Node14 -->
<g id="edge22" class="edge">
<title>Node1&#45;&gt;Node14</title>
<path fill="none" stroke="#63b8ff" d="M26.88,-227.98C41.98,-206.36 78.27,-154.41 98.07,-126.06"/>
<polygon fill="#63b8ff" stroke="#63b8ff" points="100.82,-128.23 103.68,-118.03 95.08,-124.22 100.82,-128.23"/>
</g>
<!-- Node4 -->
<g id="node4" class="node">
<title>Node4</title>
<g id="a_node4"><a xlink:href="../../d1/d6b/group__kohonen__2d.html#gaf5ce14f026d6d231bef29161bac2b485" target="_top" xlink:title="Helper function to generate a random number in a given interval.">
<polygon fill="white" stroke="#666666" points="406.5,-248.33 352.5,-248.33 352.5,-229.33 406.5,-229.33 406.5,-248.33"/>
<text text-anchor="middle" x="379.5" y="-236.33" font-family="Helvetica,sans-Serif" font-size="10.00">_random</text>
</a>
</g>
</g>
<!-- Node3&#45;&gt;Node4 -->
<g id="edge3" class="edge">
<title>Node3&#45;&gt;Node4</title>
<path fill="none" stroke="#63b8ff" d="M131.88,-282.77C138.4,-285.81 145.47,-289.84 151,-294.83 172.96,-314.65 161.03,-336.65 187,-350.83 223.28,-370.64 242.34,-367.86 280,-350.83 321.89,-331.89 353.05,-285.35 368.22,-258.6"/>
<polygon fill="#63b8ff" stroke="#63b8ff" points="371.12,-260.58 372.84,-250.13 364.98,-257.23 371.12,-260.58"/>
</g>
<!-- Node5 -->
<g id="node5" class="node">
<title>Node5</title>
<g id="a_node5"><a xlink:href="../../d1/d6b/group__kohonen__2d.html#gac78022076d889bf2ebfb2c41d4527ceb" target="_top" xlink:title="Function that returns the pointer to (x, y, z) ^th location in the linear 3D array given by:">
<polygon fill="white" stroke="#666666" points="572,-191.33 479,-191.33 479,-172.33 572,-172.33 572,-191.33"/>
<text text-anchor="middle" x="525.5" y="-179.33" font-family="Helvetica,sans-Serif" font-size="10.00">kohonen_data_3d</text>
</a>
</g>
</g>
<!-- Node3&#45;&gt;Node5 -->
<g id="edge4" class="edge">
<title>Node3&#45;&gt;Node5</title>
<path fill="none" stroke="#63b8ff" d="M131.86,-282.22C138.52,-285.24 145.7,-289.39 151,-294.83 177.07,-321.61 155.42,-350.84 187,-370.83 221.93,-392.93 240.55,-383.17 280,-370.83 382.4,-338.81 474.01,-241.49 509.2,-200.43"/>
<polygon fill="#63b8ff" stroke="#63b8ff" points="511.82,-202.76 515.58,-192.85 506.46,-198.25 511.82,-202.76"/>
</g>
<!-- Node6 -->
<g id="node6" class="node">
<title>Node6</title>
<g id="a_node6"><a xlink:href="../../d1/d6b/group__kohonen__2d.html#gacb42eda8af6ebd6a141a34ab00a0b710" target="_top" xlink:title="Apply incremental algorithm with updating neighborhood and learning rates on all samples in the given...">
<polygon fill="white" stroke="#666666" points="272,-304.33 195,-304.33 195,-285.33 272,-285.33 272,-304.33"/>
<text text-anchor="middle" x="233.5" y="-292.33" font-family="Helvetica,sans-Serif" font-size="10.00">kohonen_som</text>
</a>
</g>
</g>
<!-- Node3&#45;&gt;Node6 -->
<g id="edge5" class="edge">
<title>Node3&#45;&gt;Node6</title>
<path fill="none" stroke="#63b8ff" d="M131.83,-278.76C145.65,-280.96 165.29,-284.1 183.55,-287.01"/>
<polygon fill="#63b8ff" stroke="#63b8ff" points="182.76,-290.43 193.19,-288.55 183.87,-283.52 182.76,-290.43"/>
</g>
<!-- Node9 -->
<g id="node9" class="node">
<title>Node9</title>
<g id="a_node9"><a xlink:href="../../d1/d6b/group__kohonen__2d.html#ga6824dc6d973eb3339af7aef5fea78b0c" target="_top" xlink:title="Save a given n&#45;dimensional data martix to file.">
<polygon fill="white" stroke="#666666" points="272,-153.33 195,-153.33 195,-134.33 272,-134.33 272,-153.33"/>
<text text-anchor="middle" x="233.5" y="-141.33" font-family="Helvetica,sans-Serif" font-size="10.00">save_2d_data</text>
</a>
</g>
</g>
<!-- Node3&#45;&gt;Node9 -->
<g id="edge9" class="edge">
<title>Node3&#45;&gt;Node9</title>
<path fill="none" stroke="#63b8ff" d="M123.92,-266C131.57,-258.67 142.14,-248.33 151,-238.83 174.96,-213.14 201.17,-182 217.22,-162.55"/>
<polygon fill="#63b8ff" stroke="#63b8ff" points="219.83,-164.89 223.47,-154.94 214.42,-160.45 219.83,-164.89"/>
</g>
<!-- Node10 -->
<g id="node10" class="node">
<title>Node10</title>
<g id="a_node10"><a xlink:href="../../d1/d6b/group__kohonen__2d.html#ga49d35f68f5d11d8ef6f8cce0d0e7bcba" target="_top" xlink:title="Create the distance matrix or U&#45;matrix from the trained weights and save to disk.">
<polygon fill="white" stroke="#666666" points="273.5,-116.33 193.5,-116.33 193.5,-97.33 273.5,-97.33 273.5,-116.33"/>
<text text-anchor="middle" x="233.5" y="-104.33" font-family="Helvetica,sans-Serif" font-size="10.00">save_u_matrix</text>
</a>
</g>
</g>
<!-- Node3&#45;&gt;Node10 -->
<g id="edge10" class="edge">
<title>Node3&#45;&gt;Node10</title>
<path fill="none" stroke="#63b8ff" d="M126.22,-266.06C134.33,-259.22 144.51,-249.44 151,-238.83 178.73,-193.5 150.78,-163.71 187,-124.83 187.47,-124.32 187.96,-123.83 188.46,-123.36"/>
<polygon fill="#63b8ff" stroke="#63b8ff" points="190.32,-126.33 196.38,-117.63 186.22,-120.65 190.32,-126.33"/>
</g>
<!-- Node11 -->
<g id="node11" class="node">
<title>Node11</title>
<g id="a_node11"><a xlink:href="../../d2/df6/kohonen__som__topology_8c.html#adb5ded007be1fd666fab9affe6764018" target="_top" xlink:title="Creates a random set of points distributed in four clusters in 3D space with centroids at the points.">
<polygon fill="white" stroke="#666666" points="277.5,-341.33 189.5,-341.33 189.5,-322.33 277.5,-322.33 277.5,-341.33"/>
<text text-anchor="middle" x="233.5" y="-329.33" font-family="Helvetica,sans-Serif" font-size="10.00">test_2d_classes</text>
</a>
</g>
</g>
<!-- Node3&#45;&gt;Node11 -->
<g id="edge12" class="edge">
<title>Node3&#45;&gt;Node11</title>
<path fill="none" stroke="#63b8ff" d="M131.84,-285.05C137.95,-288.13 144.78,-291.61 151,-294.83 167.07,-303.14 170.56,-306.27 187,-313.83 189.73,-315.08 192.57,-316.34 195.44,-317.56"/>
<polygon fill="#63b8ff" stroke="#63b8ff" points="193.85,-320.69 204.43,-321.26 196.52,-314.22 193.85,-320.69"/>
</g>
<!-- Node7 -->
<g id="node7" class="node">
<title>Node7</title>
<g id="a_node7"><a xlink:href="../../d1/d6b/group__kohonen__2d.html#ga83abb572c60d202e100595a989dfe123" target="_top" xlink:title="Update weights of the SOM using Kohonen algorithm.">
<polygon fill="white" stroke="#666666" points="443,-455.33 316,-455.33 316,-436.33 443,-436.33 443,-455.33"/>
<text text-anchor="middle" x="379.5" y="-443.33" font-family="Helvetica,sans-Serif" font-size="10.00">kohonen_update_weights</text>
</a>
</g>
</g>
<!-- Node6&#45;&gt;Node7 -->
<g id="edge6" class="edge">
<title>Node6&#45;&gt;Node7</title>
<path fill="none" stroke="#63b8ff" d="M264.65,-304.73C270.05,-307.23 275.41,-310.25 280,-313.83 320.6,-345.51 352.82,-397.94 368.36,-426.25"/>
<polygon fill="#63b8ff" stroke="#63b8ff" points="365.14,-427.64 372.94,-434.81 371.31,-424.34 365.14,-427.64"/>
</g>
<!-- Node7&#45;&gt;Node5 -->
<g id="edge8" class="edge">
<title>Node7&#45;&gt;Node5</title>
<path fill="none" stroke="#63b8ff" d="M421.64,-435.95C429.51,-432.53 437.12,-427.95 443,-421.83 503.64,-358.76 519.25,-248.87 523.19,-202.95"/>
<polygon fill="#63b8ff" stroke="#63b8ff" points="526.68,-203.29 523.93,-193.06 519.7,-202.78 526.68,-203.29"/>
</g>
<!-- Node8 -->
<g id="node8" class="node">
<title>Node8</title>
<g id="a_node8"><a xlink:href="../../d1/d6b/group__kohonen__2d.html#gadc22d512c00a9f5799ee067f4fb90b4b" target="_top" xlink:title="Get minimum value and index of the value in a matrix.">
<polygon fill="white" stroke="#666666" points="559,-455.33 492,-455.33 492,-436.33 559,-436.33 559,-455.33"/>
<text text-anchor="middle" x="525.5" y="-443.33" font-family="Helvetica,sans-Serif" font-size="10.00">get_min_2d</text>
</a>
</g>
</g>
<!-- Node7&#45;&gt;Node8 -->
<g id="edge7" class="edge">
<title>Node7&#45;&gt;Node8</title>
<path fill="none" stroke="#63b8ff" d="M443.24,-445.83C455.75,-445.83 468.63,-445.83 480.35,-445.83"/>
<polygon fill="#63b8ff" stroke="#63b8ff" points="480.11,-449.33 490.11,-445.83 480.11,-442.33 480.11,-449.33"/>
</g>
<!-- Node10&#45;&gt;Node5 -->
<g id="edge11" class="edge">
<title>Node10&#45;&gt;Node5</title>
<path fill="none" stroke="#63b8ff" d="M273.01,-116.79C325.15,-130.27 418.25,-154.35 475.37,-169.12"/>
<polygon fill="#63b8ff" stroke="#63b8ff" points="474.27,-172.45 484.83,-171.57 476.02,-165.68 474.27,-172.45"/>
</g>
<!-- Node11&#45;&gt;Node4 -->
<g id="edge13" class="edge">
<title>Node11&#45;&gt;Node4</title>
<path fill="none" stroke="#63b8ff" d="M262.97,-321.96C268.74,-319.57 274.67,-316.84 280,-313.83 309.46,-297.2 339.93,-272.67 359.03,-256.24"/>
<polygon fill="#63b8ff" stroke="#63b8ff" points="361.32,-258.89 366.54,-249.67 356.71,-253.62 361.32,-258.89"/>
</g>
<!-- Node12&#45;&gt;Node4 -->
<g id="edge15" class="edge">
<title>Node12&#45;&gt;Node4</title>
<path fill="none" stroke="#63b8ff" d="M131.71,-221.14C174.71,-224.22 283.22,-232 340.97,-236.14"/>
<polygon fill="#63b8ff" stroke="#63b8ff" points="340.42,-239.61 350.64,-236.83 340.92,-232.63 340.42,-239.61"/>
</g>
<!-- Node12&#45;&gt;Node5 -->
<g id="edge16" class="edge">
<title>Node12&#45;&gt;Node5</title>
<path fill="none" stroke="#63b8ff" d="M131.96,-218.12C190.44,-212.72 373.28,-195.81 467.34,-187.11"/>
<polygon fill="#63b8ff" stroke="#63b8ff" points="467.49,-190.62 477.13,-186.21 466.85,-183.64 467.49,-190.62"/>
</g>
<!-- Node12&#45;&gt;Node6 -->
<g id="edge17" class="edge">
<title>Node12&#45;&gt;Node6</title>
<path fill="none" stroke="#63b8ff" d="M124.25,-229.77C137.99,-242.07 162.87,-263.07 187,-276.83 189.16,-278.06 191.42,-279.24 193.73,-280.38"/>
<polygon fill="#63b8ff" stroke="#63b8ff" points="192.07,-283.47 202.63,-284.37 194.94,-277.08 192.07,-283.47"/>
</g>
<!-- Node12&#45;&gt;Node9 -->
<g id="edge18" class="edge">
<title>Node12&#45;&gt;Node9</title>
<path fill="none" stroke="#63b8ff" d="M126.43,-209.9C140.84,-199.02 165.02,-181.32 187,-167.83 191.92,-164.81 197.25,-161.79 202.47,-158.96"/>
<polygon fill="#63b8ff" stroke="#63b8ff" points="203.71,-162.26 210.91,-154.5 200.44,-156.07 203.71,-162.26"/>
</g>
<!-- Node12&#45;&gt;Node10 -->
<g id="edge19" class="edge">
<title>Node12&#45;&gt;Node10</title>
<path fill="none" stroke="#63b8ff" d="M118.65,-210.09C129.13,-191.16 154.66,-149.14 187,-124.83 188.32,-123.84 189.69,-122.9 191.11,-122"/>
<polygon fill="#63b8ff" stroke="#63b8ff" points="192.47,-125.24 199.63,-117.44 189.17,-119.07 192.47,-125.24"/>
</g>
<!-- Node13 -->
<g id="node13" class="node">
<title>Node13</title>
<g id="a_node13"><a xlink:href="../../d2/df6/kohonen__som__topology_8c.html#ad9e25202bb8b481461f932668f249dbc" target="_top" xlink:title="Creates a random set of points distributed in four clusters in 3D space with centroids at the points.">
<polygon fill="white" stroke="#666666" points="280,-267.33 187,-267.33 187,-248.33 280,-248.33 280,-267.33"/>
<text text-anchor="middle" x="233.5" y="-255.33" font-family="Helvetica,sans-Serif" font-size="10.00">test_3d_classes1</text>
</a>
</g>
</g>
<!-- Node12&#45;&gt;Node13 -->
<g id="edge20" class="edge">
<title>Node12&#45;&gt;Node13</title>
<path fill="none" stroke="#63b8ff" d="M131.83,-225.68C147.46,-230.67 170.51,-238.03 190.61,-244.45"/>
<polygon fill="#63b8ff" stroke="#63b8ff" points="189.37,-247.73 199.96,-247.44 191.5,-241.06 189.37,-247.73"/>
</g>
<!-- Node13&#45;&gt;Node4 -->
<g id="edge21" class="edge">
<title>Node13&#45;&gt;Node4</title>
<path fill="none" stroke="#63b8ff" d="M280.46,-251.77C300,-249.19 322.49,-246.22 341,-243.78"/>
<polygon fill="#63b8ff" stroke="#63b8ff" points="341.28,-247.27 350.73,-242.49 340.36,-240.33 341.28,-247.27"/>
</g>
<!-- Node14&#45;&gt;Node4 -->
<g id="edge23" class="edge">
<title>Node14&#45;&gt;Node4</title>
<path fill="none" stroke="#63b8ff" d="M131.81,-98.22C163.94,-84.48 231.65,-61.64 280,-87.83 331.7,-115.83 360.56,-184.05 372.27,-218.38"/>
<polygon fill="#63b8ff" stroke="#63b8ff" points="368.83,-219.11 375.23,-227.55 375.49,-216.96 368.83,-219.11"/>
</g>
<!-- Node14&#45;&gt;Node5 -->
<g id="edge24" class="edge">
<title>Node14&#45;&gt;Node5</title>
<path fill="none" stroke="#63b8ff" d="M117.54,-96.9C126.48,-76.43 150.12,-29.93 187,-11.83 224.11,6.38 240.56,0.53 280,-11.83 377.28,-42.33 469.76,-126.71 507.12,-163.87"/>
<polygon fill="#63b8ff" stroke="#63b8ff" points="504.43,-166.12 513.95,-170.76 509.4,-161.2 504.43,-166.12"/>
</g>
<!-- Node14&#45;&gt;Node6 -->
<g id="edge25" class="edge">
<title>Node14&#45;&gt;Node6</title>
<path fill="none" stroke="#63b8ff" d="M117.23,-116.62C130.37,-150.98 174.47,-264.69 187,-276.83 187.62,-277.43 188.26,-278.01 188.92,-278.57"/>
<polygon fill="#63b8ff" stroke="#63b8ff" points="186.85,-281.4 197.11,-284.02 190.72,-275.57 186.85,-281.4"/>
</g>
<!-- Node14&#45;&gt;Node9 -->
<g id="edge26" class="edge">
<title>Node14&#45;&gt;Node9</title>
<path fill="none" stroke="#63b8ff" d="M131.83,-112.53C147.16,-117.3 169.65,-124.29 189.48,-130.45"/>
<polygon fill="#63b8ff" stroke="#63b8ff" points="188.43,-133.79 199.02,-133.42 190.51,-127.11 188.43,-133.79"/>
</g>
<!-- Node14&#45;&gt;Node10 -->
<g id="edge27" class="edge">
<title>Node14&#45;&gt;Node10</title>
<path fill="none" stroke="#63b8ff" d="M131.83,-106.83C145.2,-106.83 164.01,-106.83 181.76,-106.83"/>
<polygon fill="#63b8ff" stroke="#63b8ff" points="181.69,-110.33 191.69,-106.83 181.69,-103.33 181.69,-110.33"/>
</g>
<!-- Node15 -->
<g id="node15" class="node">
<title>Node15</title>
<g id="a_node15"><a xlink:href="../../d2/df6/kohonen__som__topology_8c.html#a5bb02a8322d717ead1b11182c5f02a3a" target="_top" xlink:title="Creates a random set of points distributed in four clusters in 3D space with centroids at the points.">
<polygon fill="white" stroke="#666666" points="280,-40.33 187,-40.33 187,-21.33 280,-21.33 280,-40.33"/>
<text text-anchor="middle" x="233.5" y="-28.33" font-family="Helvetica,sans-Serif" font-size="10.00">test_3d_classes2</text>
</a>
</g>
</g>
<!-- Node14&#45;&gt;Node15 -->
<g id="edge28" class="edge">
<title>Node14&#45;&gt;Node15</title>
<path fill="none" stroke="#63b8ff" d="M126.43,-96.9C140.84,-86.02 165.02,-68.32 187,-54.83 191.92,-51.81 197.25,-48.79 202.47,-45.96"/>
<polygon fill="#63b8ff" stroke="#63b8ff" points="203.71,-49.26 210.91,-41.5 200.44,-43.07 203.71,-49.26"/>
</g>
<!-- Node15&#45;&gt;Node4 -->
<g id="edge29" class="edge">
<title>Node15&#45;&gt;Node4</title>
<path fill="none" stroke="#63b8ff" d="M259.42,-40.63C266.66,-44.31 274.17,-49.04 280,-54.83 328.95,-103.48 359.59,-181.59 372.06,-218.4"/>
<polygon fill="#63b8ff" stroke="#63b8ff" points="368.69,-219.34 375.13,-227.75 375.34,-217.16 368.69,-219.34"/>
</g>
</g>
</svg>
        <g id="navigator" transform="translate(0 0)" fill="#404254">
                <rect fill="#f2f5e9" fill-opacity="0.5" stroke="#606060" stroke-width=".5" x="0" y="0" width="60" height="60"/>
                <use id="zoomplus" xlink:href="#zoomPlus" x="17" y="9" onmousedown="handleZoom(evt,'in')"/>
                <use id="zoomminus" xlink:href="#zoomMin" x="42" y="9" onmousedown="handleZoom(evt,'out')"/>
                <use id="reset" xlink:href="#resetDef" x="30" y="36" onmousedown="handleReset()"/>
                <g id="arrowUp" xlink:href="#dirArrow" transform="translate(30 24)" onmousedown="handlePan(0,-1)">
                  <use xlink:href="#rim" fill="#404040">
                        <set attributeName="fill" to="#808080" begin="arrowUp.mouseover" end="arrowUp.mouseout"/>
                  </use>
                  <path fill="none" stroke="white" stroke-width="1.5" d="M0,-3.0v7 M-2.5,-0.5L0,-3.0L2.5,-0.5"/>
                </g>
                <g id="arrowRight" xlink:href="#dirArrow" transform="rotate(90) translate(36 -43)" onmousedown="handlePan(1,0)">
                  <use xlink:href="#rim" fill="#404040">
                        <set attributeName="fill" to="#808080" begin="arrowRight.mouseover" end="arrowRight.mouseout"/>
                  </use>
                  <path fill="none" stroke="white" stroke-width="1.5" d="M0,-3.0v7 M-2.5,-0.5L0,-3.0L2.5,-0.5"/>
                </g>
                <g id="arrowDown" xlink:href="#dirArrow" transform="rotate(180) translate(-30 -48)" onmousedown="handlePan(0,1)">
                  <use xlink:href="#rim" fill="#404040">
                        <set attributeName="fill" to="#808080" begin="arrowDown.mouseover" end="arrowDown.mouseout"/>
                  </use>
                  <path fill="none" stroke="white" stroke-width="1.5" d="M0,-3.0v7 M-2.5,-0.5L0,-3.0L2.5,-0.5"/>
                </g>
                <g id="arrowLeft" xlink:href="#dirArrow" transform="rotate(270) translate(-36 17)" onmousedown="handlePan(-1,0)">
                  <use xlink:href="#rim" fill="#404040">
                        <set attributeName="fill" to="#808080" begin="arrowLeft.mouseover" end="arrowLeft.mouseout"/>
                  </use>
                  <path fill="none" stroke="white" stroke-width="1.5" d="M0,-3.0v7 M-2.5,-0.5L0,-3.0L2.5,-0.5"/>
                </g>
        </g>
        <svg viewBox="0 0 15 15" width="100%" height="30px" preserveAspectRatio="xMaxYMin meet">
         <g id="arrow_out" transform="scale(0.3 0.3)">
          <a xlink:href="kohonen__som__topology_8c_a3c04138a5bfe5d72780bb7e82a18e627_cgraph_org.svg" target="_base">
           <rect id="button" ry="5" rx="5" y="6" x="6" height="38" width="38"
                fill="#f2f5e9" fill-opacity="0.5" stroke="#606060" stroke-width="1.0"/>
           <path id="arrow"
             d="M 11.500037,31.436501 C 11.940474,20.09759 22.043105,11.32322 32.158766,21.979434 L 37.068811,17.246167 C 37.068811,17.246167 37.088388,32 37.088388,32 L 22.160133,31.978069 C 22.160133,31.978069 26.997745,27.140456 26.997745,27.140456 C 18.528582,18.264221 13.291696,25.230495 11.500037,31.436501 z"
             style="fill:#404040;"/>
          </a>
         </g>
        </svg>
</svg>
