<?xml version="1.0" encoding="UTF-8" standalone="no"?>
<!DOCTYPE svg PUBLIC "-//W3C//DTD SVG 1.1//EN"
 "http://www.w3.org/Graphics/SVG/1.1/DTD/svg11.dtd">
<!-- Generated by graphviz version 2.49.3 (20211023.0002)
 -->
<!-- Title: test1 Pages: 1 -->
<svg width="469pt" height="204pt"
 viewBox="0.00 0.00 469.00 204.13" xmlns="http://www.w3.org/2000/svg" xmlns:xlink="http://www.w3.org/1999/xlink">
<g id="graph0" class="graph" transform="scale(1 1) rotate(0) translate(4 200.13)">
<title>test1</title>
<polygon fill="white" stroke="transparent" points="-4,4 -4,-200.13 465,-200.13 465,4 -4,4"/>
<!-- Node1 -->
<g id="node1" class="node">
<title>Node1</title>
<g id="a_node1"><a xlink:title="Test that creates a random set of points distributed in four clusters in 2D space and trains an SOM t...">
<polygon fill="#bfbfbf" stroke="black" points="0,-95.5 0,-114.5 38,-114.5 38,-95.5 0,-95.5"/>
<text text-anchor="middle" x="19" y="-102.5" font-family="Helvetica,sans-Serif" font-size="10.00">test1</text>
</a>
</g>
</g>
<!-- Node2 -->
<g id="node2" class="node">
<title>Node2</title>
<g id="a_node2"><a xlink:href="../../d1/d6b/group__kohonen__2d.html#gaf5ce14f026d6d231bef29161bac2b485" target="_top" xlink:title="Helper function to generate a random number in a given interval.">
<polygon fill="white" stroke="black" points="235,-95.5 235,-114.5 291,-114.5 291,-95.5 235,-95.5"/>
<text text-anchor="middle" x="263" y="-102.5" font-family="Helvetica,sans-Serif" font-size="10.00">_random</text>
</a>
</g>
</g>
<!-- Node1&#45;&gt;Node2 -->
<g id="edge1" class="edge">
<title>Node1&#45;&gt;Node2</title>
<path fill="none" stroke="midnightblue" d="M29.71,-95.31C39.79,-86 56.51,-72.54 74,-67 129.95,-49.29 197.97,-73.98 234.92,-91.08"/>
<polygon fill="midnightblue" stroke="midnightblue" points="233.52,-94.29 244.05,-95.44 236.54,-87.97 233.52,-94.29"/>
</g>
<!-- Node3 -->
<g id="node3" class="node">
<title>Node3</title>
<g id="a_node3"><a xlink:href="../../d1/d6b/group__kohonen__2d.html#gac78022076d889bf2ebfb2c41d4527ceb" target="_top" xlink:title="Function that returns the pointer to (x, y, z) ^th location in the linear 3D array given by:">
<polygon fill="white" stroke="black" points="364,-152.5 364,-171.5 461,-171.5 461,-152.5 364,-152.5"/>
<text text-anchor="middle" x="412.5" y="-159.5" font-family="Helvetica,sans-Serif" font-size="10.00">kohonen_data_3d</text>
</a>
</g>
</g>
<!-- Node1&#45;&gt;Node3 -->
<g id="edge2" class="edge">
<title>Node1&#45;&gt;Node3</title>
<path fill="none" stroke="midnightblue" d="M25.49,-114.81C33.92,-128.82 51.46,-154.17 74,-166 170.24,-216.51 304.19,-191.73 370.69,-174.24"/>
<polygon fill="midnightblue" stroke="midnightblue" points="371.64,-177.61 380.38,-171.62 369.81,-170.85 371.64,-177.61"/>
</g>
<!-- Node4 -->
<g id="node4" class="node">
<title>Node4</title>
<g id="a_node4"><a xlink:href="../../d1/d6b/group__kohonen__2d.html#gacb42eda8af6ebd6a141a34ab00a0b710" target="_top" xlink:title="Apply incremental algorithm with updating neighborhood and learning rates on all samples in the given...">
<polygon fill="white" stroke="black" points="78.5,-0.5 78.5,-19.5 157.5,-19.5 157.5,-0.5 78.5,-0.5"/>
<text text-anchor="middle" x="118" y="-7.5" font-family="Helvetica,sans-Serif" font-size="10.00">kohonen_som</text>
</a>
</g>
</g>
<!-- Node1&#45;&gt;Node4 -->
<g id="edge3" class="edge">
<title>Node1&#45;&gt;Node4</title>
<path fill="none" stroke="midnightblue" d="M25.59,-95.26C34.4,-80.57 52.71,-52.47 74,-34 77.93,-30.59 82.43,-27.44 87,-24.62"/>
<polygon fill="midnightblue" stroke="midnightblue" points="88.8,-27.63 95.75,-19.63 85.33,-21.54 88.8,-27.63"/>
</g>
<!-- Node7 -->
<g id="node7" class="node">
<title>Node7</title>
<g id="a_node7"><a xlink:href="../../d1/d6b/group__kohonen__2d.html#ga6824dc6d973eb3339af7aef5fea78b0c" target="_top" xlink:title="Save a given n&#45;dimensional data martix to file.">
<polygon fill="white" stroke="black" points="78.5,-76.5 78.5,-95.5 157.5,-95.5 157.5,-76.5 78.5,-76.5"/>
<text text-anchor="middle" x="118" y="-83.5" font-family="Helvetica,sans-Serif" font-size="10.00">save_2d_data</text>
</a>
</g>
</g>
<!-- Node1&#45;&gt;Node7 -->
<g id="edge7" class="edge">
<title>Node1&#45;&gt;Node7</title>
<path fill="none" stroke="midnightblue" d="M38.24,-101.43C46.9,-99.73 57.7,-97.62 68.49,-95.5"/>
<polygon fill="midnightblue" stroke="midnightblue" points="69.21,-98.93 78.35,-93.57 67.86,-92.06 69.21,-98.93"/>
</g>
<!-- Node8 -->
<g id="node8" class="node">
<title>Node8</title>
<g id="a_node8"><a xlink:href="../../d1/d6b/group__kohonen__2d.html#ga49d35f68f5d11d8ef6f8cce0d0e7bcba" target="_top" xlink:title="Create the distance matrix or U&#45;matrix from the trained weights and save to disk.">
<polygon fill="white" stroke="black" points="222,-152.5 222,-171.5 304,-171.5 304,-152.5 222,-152.5"/>
<text text-anchor="middle" x="263" y="-159.5" font-family="Helvetica,sans-Serif" font-size="10.00">save_u_matrix</text>
</a>
</g>
</g>
<!-- Node1&#45;&gt;Node8 -->
<g id="edge8" class="edge">
<title>Node1&#45;&gt;Node8</title>
<path fill="none" stroke="midnightblue" d="M30.22,-114.66C40.44,-123.68 57.03,-136.67 74,-143 118.58,-159.63 172.99,-163.51 211.79,-163.76"/>
<polygon fill="midnightblue" stroke="midnightblue" points="211.8,-167.26 221.79,-163.74 211.79,-160.26 211.8,-167.26"/>
</g>
<!-- Node9 -->
<g id="node9" class="node">
<title>Node9</title>
<g id="a_node9"><a xlink:href="../../d2/df6/kohonen__som__topology_8c.html#adb5ded007be1fd666fab9affe6764018" target="_top" xlink:title="Creates a random set of points distributed in four clusters in 3D space with centroids at the points.">
<polygon fill="white" stroke="black" points="74,-114.5 74,-133.5 162,-133.5 162,-114.5 74,-114.5"/>
<text text-anchor="middle" x="118" y="-121.5" font-family="Helvetica,sans-Serif" font-size="10.00">test_2d_classes</text>
</a>
</g>
</g>
<!-- Node1&#45;&gt;Node9 -->
<g id="edge10" class="edge">
<title>Node1&#45;&gt;Node9</title>
<path fill="none" stroke="midnightblue" d="M38.24,-108.57C45.66,-110.03 54.65,-111.79 63.86,-113.59"/>
<polygon fill="midnightblue" stroke="midnightblue" points="63.39,-117.07 73.88,-115.55 64.74,-110.2 63.39,-117.07"/>
</g>
<!-- Node5 -->
<g id="node5" class="node">
<title>Node5</title>
<g id="a_node5"><a xlink:href="../../d1/d6b/group__kohonen__2d.html#ga83abb572c60d202e100595a989dfe123" target="_top" xlink:title="Update weights of the SOM using Kohonen algorithm.">
<polygon fill="white" stroke="black" points="198,-19.5 198,-38.5 328,-38.5 328,-19.5 198,-19.5"/>
<text text-anchor="middle" x="263" y="-26.5" font-family="Helvetica,sans-Serif" font-size="10.00">kohonen_update_weights</text>
</a>
</g>
</g>
<!-- Node4&#45;&gt;Node5 -->
<g id="edge4" class="edge">
<title>Node4&#45;&gt;Node5</title>
<path fill="none" stroke="midnightblue" d="M157.7,-15.14C167.1,-16.39 177.47,-17.77 187.91,-19.16"/>
<polygon fill="midnightblue" stroke="midnightblue" points="187.54,-22.64 197.92,-20.49 188.46,-15.7 187.54,-22.64"/>
</g>
<!-- Node5&#45;&gt;Node3 -->
<g id="edge6" class="edge">
<title>Node5&#45;&gt;Node3</title>
<path fill="none" stroke="midnightblue" d="M274.9,-38.65C287.67,-49.95 309.42,-69.27 328,-86 350.66,-106.4 376.61,-130.07 393.49,-145.5"/>
<polygon fill="midnightblue" stroke="midnightblue" points="391.25,-148.2 400.99,-152.37 395.97,-143.03 391.25,-148.2"/>
</g>
<!-- Node6 -->
<g id="node6" class="node">
<title>Node6</title>
<g id="a_node6"><a xlink:href="../../d1/d6b/group__kohonen__2d.html#gadc22d512c00a9f5799ee067f4fb90b4b" target="_top" xlink:title="Get minimum value and index of the value in a matrix.">
<polygon fill="white" stroke="black" points="378,-19.5 378,-38.5 447,-38.5 447,-19.5 378,-19.5"/>
<text text-anchor="middle" x="412.5" y="-26.5" font-family="Helvetica,sans-Serif" font-size="10.00">get_min_2d</text>
</a>
</g>
</g>
<!-- Node5&#45;&gt;Node6 -->
<g id="edge5" class="edge">
<title>Node5&#45;&gt;Node6</title>
<path fill="none" stroke="midnightblue" d="M328.27,-29C341.61,-29 355.37,-29 367.77,-29"/>
<polygon fill="midnightblue" stroke="midnightblue" points="367.83,-32.5 377.83,-29 367.83,-25.5 367.83,-32.5"/>
</g>
<!-- Node8&#45;&gt;Node3 -->
<g id="edge9" class="edge">
<title>Node8&#45;&gt;Node3</title>
<path fill="none" stroke="midnightblue" d="M304.31,-162C319.56,-162 337.24,-162 353.79,-162"/>
<polygon fill="midnightblue" stroke="midnightblue" points="353.92,-165.5 363.92,-162 353.92,-158.5 353.92,-165.5"/>
</g>
<!-- Node9&#45;&gt;Node2 -->
<g id="edge11" class="edge">
<title>Node9&#45;&gt;Node2</title>
<path fill="none" stroke="midnightblue" d="M162.29,-118.25C182.13,-115.61 205.42,-112.52 224.49,-109.98"/>
<polygon fill="midnightblue" stroke="midnightblue" points="225.16,-113.43 234.61,-108.64 224.24,-106.49 225.16,-113.43"/>
</g>
</g>
</svg>
