<?xml version="1.0" encoding="UTF-8" standalone="no"?>
<!DOCTYPE svg PUBLIC "-//W3C//DTD SVG 1.1//EN"
 "http://www.w3.org/Graphics/SVG/1.1/DTD/svg11.dtd">
<!-- Generated by graphviz version 2.49.3 (20211023.0002)
 -->
<!-- Title: main Pages: 1 -->
<svg width="588pt" height="467pt"
 viewBox="0.00 0.00 588.00 466.89" xmlns="http://www.w3.org/2000/svg" xmlns:xlink="http://www.w3.org/1999/xlink">
<g id="graph0" class="graph" transform="scale(1 1) rotate(0) translate(4 462.89)">
<title>main</title>
<polygon fill="white" stroke="transparent" points="-4,4 -4,-462.89 584,-462.89 584,4 -4,4"/>
<!-- Node1 -->
<g id="node1" class="node">
<title>Node1</title>
<g id="a_node1"><a xlink:title="Main function.">
<polygon fill="#bfbfbf" stroke="black" points="0,-230.39 0,-249.39 38,-249.39 38,-230.39 0,-230.39"/>
<text text-anchor="middle" x="19" y="-237.39" font-family="Helvetica,sans-Serif" font-size="10.00">main</text>
</a>
</g>
</g>
<!-- Node2 -->
<g id="node2" class="node">
<title>Node2</title>
<g id="a_node2"><a xlink:href="../../d2/df6/kohonen__som__topology_8c.html#a2256c10b16edba377b64a44b6c656908" target="_top" xlink:title="Convert clock cycle difference to time in seconds.">
<polygon fill="white" stroke="black" points="74,-306.39 74,-325.39 151,-325.39 151,-306.39 74,-306.39"/>
<text text-anchor="middle" x="112.5" y="-313.39" font-family="Helvetica,sans-Serif" font-size="10.00">get_clock_diff</text>
</a>
</g>
</g>
<!-- Node1&#45;&gt;Node2 -->
<g id="edge1" class="edge">
<title>Node1&#45;&gt;Node2</title>
<path fill="none" stroke="midnightblue" d="M27.56,-249.75C37.29,-261.97 55.2,-282.88 74,-296.89 76.05,-298.42 78.24,-299.89 80.49,-301.28"/>
<polygon fill="midnightblue" stroke="midnightblue" points="78.9,-304.4 89.33,-306.25 82.33,-298.3 78.9,-304.4"/>
</g>
<!-- Node3 -->
<g id="node3" class="node">
<title>Node3</title>
<g id="a_node3"><a xlink:href="../../d2/df6/kohonen__som__topology_8c.html#a1440a7779ac56f47a3f355ce4a8c7da0" target="_top" xlink:title="Test that creates a random set of points distributed in four clusters in 2D space and trains an SOM t...">
<polygon fill="white" stroke="black" points="93.5,-268.39 93.5,-287.39 131.5,-287.39 131.5,-268.39 93.5,-268.39"/>
<text text-anchor="middle" x="112.5" y="-275.39" font-family="Helvetica,sans-Serif" font-size="10.00">test1</text>
</a>
</g>
</g>
<!-- Node1&#45;&gt;Node3 -->
<g id="edge2" class="edge">
<title>Node1&#45;&gt;Node3</title>
<path fill="none" stroke="midnightblue" d="M38.08,-247.4C51.24,-252.87 69.29,-260.36 84.2,-266.56"/>
<polygon fill="midnightblue" stroke="midnightblue" points="82.88,-269.8 93.46,-270.4 85.57,-263.34 82.88,-269.8"/>
</g>
<!-- Node12 -->
<g id="node12" class="node">
<title>Node12</title>
<g id="a_node12"><a xlink:href="../../d2/df6/kohonen__som__topology_8c.html#a0283886819c7c140a023582b7269e2d0" target="_top" xlink:title="Test that creates a random set of points distributed in 4 clusters in 3D space and trains an SOM that...">
<polygon fill="white" stroke="black" points="93.5,-211.39 93.5,-230.39 131.5,-230.39 131.5,-211.39 93.5,-211.39"/>
<text text-anchor="middle" x="112.5" y="-218.39" font-family="Helvetica,sans-Serif" font-size="10.00">test2</text>
</a>
</g>
</g>
<!-- Node1&#45;&gt;Node12 -->
<g id="edge14" class="edge">
<title>Node1&#45;&gt;Node12</title>
<path fill="none" stroke="midnightblue" d="M38.08,-236.14C50.99,-233.46 68.6,-229.8 83.34,-226.74"/>
<polygon fill="midnightblue" stroke="midnightblue" points="84.38,-230.1 93.46,-224.64 82.96,-223.25 84.38,-230.1"/>
</g>
<!-- Node14 -->
<g id="node14" class="node">
<title>Node14</title>
<g id="a_node14"><a xlink:href="../../d2/df6/kohonen__som__topology_8c.html#a6d0455dd5c30adda100e95f0423c786e" target="_top" xlink:title="Test that creates a random set of points distributed in eight clusters in 3D space and trains an SOM ...">
<polygon fill="white" stroke="black" points="93.5,-97.39 93.5,-116.39 131.5,-116.39 131.5,-97.39 93.5,-97.39"/>
<text text-anchor="middle" x="112.5" y="-104.39" font-family="Helvetica,sans-Serif" font-size="10.00">test3</text>
</a>
</g>
</g>
<!-- Node1&#45;&gt;Node14 -->
<g id="edge22" class="edge">
<title>Node1&#45;&gt;Node14</title>
<path fill="none" stroke="midnightblue" d="M26.58,-230.33C41.74,-208.29 79.33,-153.66 99.02,-125.04"/>
<polygon fill="midnightblue" stroke="midnightblue" points="101.95,-126.95 104.73,-116.73 96.18,-122.99 101.95,-126.95"/>
</g>
<!-- Node4 -->
<g id="node4" class="node">
<title>Node4</title>
<g id="a_node4"><a xlink:href="../../d1/d6b/group__kohonen__2d.html#gaf5ce14f026d6d231bef29161bac2b485" target="_top" xlink:title="Helper function to generate a random number in a given interval.">
<polygon fill="white" stroke="black" points="354,-230.39 354,-249.39 410,-249.39 410,-230.39 354,-230.39"/>
<text text-anchor="middle" x="382" y="-237.39" font-family="Helvetica,sans-Serif" font-size="10.00">_random</text>
</a>
</g>
</g>
<!-- Node3&#45;&gt;Node4 -->
<g id="edge3" class="edge">
<title>Node3&#45;&gt;Node4</title>
<path fill="none" stroke="midnightblue" d="M131.52,-284.63C138.14,-287.69 145.39,-291.79 151,-296.89 173.16,-317.06 160.76,-339.43 187,-353.89 223.59,-374.06 242.95,-371.13 281,-353.89 324.36,-334.25 356.35,-285.5 371.41,-258.54"/>
<polygon fill="midnightblue" stroke="midnightblue" points="374.51,-260.16 376.18,-249.69 368.35,-256.84 374.51,-260.16"/>
</g>
<!-- Node5 -->
<g id="node5" class="node">
<title>Node5</title>
<g id="a_node5"><a xlink:href="../../d1/d6b/group__kohonen__2d.html#gac78022076d889bf2ebfb2c41d4527ceb" target="_top" xlink:title="Function that returns the pointer to (x, y, z) ^th location in the linear 3D array given by:">
<polygon fill="white" stroke="black" points="483,-173.39 483,-192.39 580,-192.39 580,-173.39 483,-173.39"/>
<text text-anchor="middle" x="531.5" y="-180.39" font-family="Helvetica,sans-Serif" font-size="10.00">kohonen_data_3d</text>
</a>
</g>
</g>
<!-- Node3&#45;&gt;Node5 -->
<g id="edge4" class="edge">
<title>Node3&#45;&gt;Node5</title>
<path fill="none" stroke="midnightblue" d="M131.51,-284.08C138.28,-287.11 145.63,-291.33 151,-296.89 177.5,-324.38 154.84,-354.32 187,-374.89 222.19,-397.41 241.15,-387.44 281,-374.89 386.62,-341.65 481.32,-240.78 516.24,-200.14"/>
<polygon fill="midnightblue" stroke="midnightblue" points="518.98,-202.32 522.77,-192.43 513.64,-197.8 518.98,-202.32"/>
</g>
<!-- Node6 -->
<g id="node6" class="node">
<title>Node6</title>
<g id="a_node6"><a xlink:href="../../d1/d6b/group__kohonen__2d.html#gacb42eda8af6ebd6a141a34ab00a0b710" target="_top" xlink:title="Apply incremental algorithm with updating neighborhood and learning rates on all samples in the given...">
<polygon fill="white" stroke="black" points="194.5,-287.39 194.5,-306.39 273.5,-306.39 273.5,-287.39 194.5,-287.39"/>
<text text-anchor="middle" x="234" y="-294.39" font-family="Helvetica,sans-Serif" font-size="10.00">kohonen_som</text>
</a>
</g>
</g>
<!-- Node3&#45;&gt;Node6 -->
<g id="edge5" class="edge">
<title>Node3&#45;&gt;Node6</title>
<path fill="none" stroke="midnightblue" d="M131.65,-280.78C145.64,-283.01 165.68,-286.19 184.25,-289.14"/>
<polygon fill="midnightblue" stroke="midnightblue" points="183.94,-292.64 194.36,-290.75 185.04,-285.73 183.94,-292.64"/>
</g>
<!-- Node9 -->
<g id="node9" class="node">
<title>Node9</title>
<g id="a_node9"><a xlink:href="../../d1/d6b/group__kohonen__2d.html#ga6824dc6d973eb3339af7aef5fea78b0c" target="_top" xlink:title="Save a given n&#45;dimensional data martix to file.">
<polygon fill="white" stroke="black" points="194.5,-135.39 194.5,-154.39 273.5,-154.39 273.5,-135.39 194.5,-135.39"/>
<text text-anchor="middle" x="234" y="-142.39" font-family="Helvetica,sans-Serif" font-size="10.00">save_2d_data</text>
</a>
</g>
</g>
<!-- Node3&#45;&gt;Node9 -->
<g id="edge9" class="edge">
<title>Node3&#45;&gt;Node9</title>
<path fill="none" stroke="midnightblue" d="M123.24,-268.38C130.91,-260.8 141.82,-249.84 151,-239.89 175.35,-213.52 202.32,-181.74 218.46,-162.44"/>
<polygon fill="midnightblue" stroke="midnightblue" points="221.35,-164.44 225.06,-154.52 215.97,-159.96 221.35,-164.44"/>
</g>
<!-- Node10 -->
<g id="node10" class="node">
<title>Node10</title>
<g id="a_node10"><a xlink:href="../../d1/d6b/group__kohonen__2d.html#ga49d35f68f5d11d8ef6f8cce0d0e7bcba" target="_top" xlink:title="Create the distance matrix or U&#45;matrix from the trained weights and save to disk.">
<polygon fill="white" stroke="black" points="193,-97.39 193,-116.39 275,-116.39 275,-97.39 193,-97.39"/>
<text text-anchor="middle" x="234" y="-104.39" font-family="Helvetica,sans-Serif" font-size="10.00">save_u_matrix</text>
</a>
</g>
</g>
<!-- Node3&#45;&gt;Node10 -->
<g id="edge10" class="edge">
<title>Node3&#45;&gt;Node10</title>
<path fill="none" stroke="midnightblue" d="M125.85,-268.1C134.02,-261.04 144.4,-250.85 151,-239.89 178.42,-194.39 151.08,-165.04 187,-125.89 188.2,-124.58 189.51,-123.36 190.9,-122.21"/>
<polygon fill="midnightblue" stroke="midnightblue" points="193.12,-124.95 199.56,-116.54 189.28,-119.09 193.12,-124.95"/>
</g>
<!-- Node11 -->
<g id="node11" class="node">
<title>Node11</title>
<g id="a_node11"><a xlink:href="../../d2/df6/kohonen__som__topology_8c.html#adb5ded007be1fd666fab9affe6764018" target="_top" xlink:title="Creates a random set of points distributed in four clusters in 3D space with centroids at the points.">
<polygon fill="white" stroke="black" points="190,-325.39 190,-344.39 278,-344.39 278,-325.39 190,-325.39"/>
<text text-anchor="middle" x="234" y="-332.39" font-family="Helvetica,sans-Serif" font-size="10.00">test_2d_classes</text>
</a>
</g>
</g>
<!-- Node3&#45;&gt;Node11 -->
<g id="edge12" class="edge">
<title>Node3&#45;&gt;Node11</title>
<path fill="none" stroke="midnightblue" d="M131.84,-287.11C137.95,-290.2 144.78,-293.68 151,-296.89 167.07,-305.21 170.62,-308.21 187,-315.89 190.87,-317.71 194.97,-319.54 199.05,-321.3"/>
<polygon fill="midnightblue" stroke="midnightblue" points="197.89,-324.6 208.46,-325.26 200.61,-318.15 197.89,-324.6"/>
</g>
<!-- Node7 -->
<g id="node7" class="node">
<title>Node7</title>
<g id="a_node7"><a xlink:href="../../d1/d6b/group__kohonen__2d.html#ga83abb572c60d202e100595a989dfe123" target="_top" xlink:title="Update weights of the SOM using Kohonen algorithm.">
<polygon fill="white" stroke="black" points="317,-439.39 317,-458.39 447,-458.39 447,-439.39 317,-439.39"/>
<text text-anchor="middle" x="382" y="-446.39" font-family="Helvetica,sans-Serif" font-size="10.00">kohonen_update_weights</text>
</a>
</g>
</g>
<!-- Node6&#45;&gt;Node7 -->
<g id="edge6" class="edge">
<title>Node6&#45;&gt;Node7</title>
<path fill="none" stroke="midnightblue" d="M264.99,-306.55C270.61,-309.09 276.22,-312.19 281,-315.89 322.68,-348.17 355.75,-402.01 371.31,-430.28"/>
<polygon fill="midnightblue" stroke="midnightblue" points="368.25,-431.98 376.07,-439.13 374.42,-428.66 368.25,-431.98"/>
</g>
<!-- Node7&#45;&gt;Node5 -->
<g id="edge8" class="edge">
<title>Node7&#45;&gt;Node5</title>
<path fill="none" stroke="midnightblue" d="M424.76,-439.29C432.94,-435.85 440.87,-431.19 447,-424.89 509.32,-360.9 525.25,-248.24 529.22,-202.76"/>
<polygon fill="midnightblue" stroke="midnightblue" points="532.72,-202.96 529.99,-192.72 525.74,-202.42 532.72,-202.96"/>
</g>
<!-- Node8 -->
<g id="node8" class="node">
<title>Node8</title>
<g id="a_node8"><a xlink:href="../../d1/d6b/group__kohonen__2d.html#gadc22d512c00a9f5799ee067f4fb90b4b" target="_top" xlink:title="Get minimum value and index of the value in a matrix.">
<polygon fill="white" stroke="black" points="497,-439.39 497,-458.39 566,-458.39 566,-439.39 497,-439.39"/>
<text text-anchor="middle" x="531.5" y="-446.39" font-family="Helvetica,sans-Serif" font-size="10.00">get_min_2d</text>
</a>
</g>
</g>
<!-- Node7&#45;&gt;Node8 -->
<g id="edge7" class="edge">
<title>Node7&#45;&gt;Node8</title>
<path fill="none" stroke="midnightblue" d="M447.27,-448.89C460.61,-448.89 474.37,-448.89 486.77,-448.89"/>
<polygon fill="midnightblue" stroke="midnightblue" points="486.83,-452.4 496.83,-448.89 486.83,-445.4 486.83,-452.4"/>
</g>
<!-- Node10&#45;&gt;Node5 -->
<g id="edge11" class="edge">
<title>Node10&#45;&gt;Node5</title>
<path fill="none" stroke="midnightblue" d="M272.13,-116.44C325.76,-130.24 424.89,-155.73 483.54,-170.82"/>
<polygon fill="midnightblue" stroke="midnightblue" points="482.74,-174.22 493.29,-173.33 484.48,-167.45 482.74,-174.22"/>
</g>
<!-- Node11&#45;&gt;Node4 -->
<g id="edge13" class="edge">
<title>Node11&#45;&gt;Node4</title>
<path fill="none" stroke="midnightblue" d="M261.35,-325.38C267.93,-322.64 274.85,-319.42 281,-315.89 311.48,-298.41 343.21,-272.82 362.54,-256.26"/>
<polygon fill="midnightblue" stroke="midnightblue" points="365.01,-258.76 370.27,-249.56 360.42,-253.47 365.01,-258.76"/>
</g>
<!-- Node12&#45;&gt;Node4 -->
<g id="edge15" class="edge">
<title>Node12&#45;&gt;Node4</title>
<path fill="none" stroke="midnightblue" d="M131.89,-222.2C175.45,-225.29 285.63,-233.12 343.77,-237.25"/>
<polygon fill="midnightblue" stroke="midnightblue" points="343.76,-240.76 353.99,-237.98 344.26,-233.78 343.76,-240.76"/>
</g>
<!-- Node12&#45;&gt;Node5 -->
<g id="edge16" class="edge">
<title>Node12&#45;&gt;Node5</title>
<path fill="none" stroke="midnightblue" d="M131.69,-219.24C190.45,-213.88 376.93,-196.89 472.62,-188.17"/>
<polygon fill="midnightblue" stroke="midnightblue" points="473.07,-191.64 482.71,-187.25 472.44,-184.67 473.07,-191.64"/>
</g>
<!-- Node12&#45;&gt;Node6 -->
<g id="edge17" class="edge">
<title>Node12&#45;&gt;Node6</title>
<path fill="none" stroke="midnightblue" d="M124.29,-230.78C138.05,-243.02 162.98,-263.96 187,-277.89 190.18,-279.74 193.57,-281.49 197.01,-283.14"/>
<polygon fill="midnightblue" stroke="midnightblue" points="195.59,-286.34 206.15,-287.22 198.45,-279.94 195.59,-286.34"/>
</g>
<!-- Node12&#45;&gt;Node9 -->
<g id="edge18" class="edge">
<title>Node12&#45;&gt;Node9</title>
<path fill="none" stroke="midnightblue" d="M125.9,-211.34C140.23,-200.48 164.72,-182.5 187,-168.89 192.32,-165.65 198.12,-162.4 203.76,-159.39"/>
<polygon fill="midnightblue" stroke="midnightblue" points="205.72,-162.32 212.98,-154.6 202.49,-156.11 205.72,-162.32"/>
</g>
<!-- Node12&#45;&gt;Node10 -->
<g id="edge19" class="edge">
<title>Node12&#45;&gt;Node10</title>
<path fill="none" stroke="midnightblue" d="M118.69,-211.2C129.21,-192.34 154.84,-150.44 187,-125.89 189.18,-124.23 191.52,-122.69 193.96,-121.26"/>
<polygon fill="midnightblue" stroke="midnightblue" points="195.75,-124.28 203.05,-116.6 192.56,-118.05 195.75,-124.28"/>
</g>
<!-- Node13 -->
<g id="node13" class="node">
<title>Node13</title>
<g id="a_node13"><a xlink:href="../../d2/df6/kohonen__som__topology_8c.html#ad9e25202bb8b481461f932668f249dbc" target="_top" xlink:title="Creates a random set of points distributed in four clusters in 3D space with centroids at the points.">
<polygon fill="white" stroke="black" points="187,-249.39 187,-268.39 281,-268.39 281,-249.39 187,-249.39"/>
<text text-anchor="middle" x="234" y="-256.39" font-family="Helvetica,sans-Serif" font-size="10.00">test_3d_classes1</text>
</a>
</g>
</g>
<!-- Node12&#45;&gt;Node13 -->
<g id="edge20" class="edge">
<title>Node12&#45;&gt;Node13</title>
<path fill="none" stroke="midnightblue" d="M131.65,-226.67C148,-231.86 172.59,-239.68 193.45,-246.32"/>
<polygon fill="midnightblue" stroke="midnightblue" points="192.45,-249.67 203.04,-249.37 194.57,-243 192.45,-249.67"/>
</g>
<!-- Node13&#45;&gt;Node4 -->
<g id="edge21" class="edge">
<title>Node13&#45;&gt;Node4</title>
<path fill="none" stroke="midnightblue" d="M281.2,-252.88C301.36,-250.26 324.68,-247.22 343.71,-244.75"/>
<polygon fill="midnightblue" stroke="midnightblue" points="344.33,-248.2 353.8,-243.44 343.43,-241.26 344.33,-248.2"/>
</g>
<!-- Node14&#45;&gt;Node4 -->
<g id="edge23" class="edge">
<title>Node14&#45;&gt;Node4</title>
<path fill="none" stroke="midnightblue" d="M131.65,-98.39C163.86,-84.63 232.18,-61.58 281,-87.89 333.94,-116.43 363.45,-186.6 375.09,-220.69"/>
<polygon fill="midnightblue" stroke="midnightblue" points="371.83,-221.96 378.25,-230.39 378.48,-219.8 371.83,-221.96"/>
</g>
<!-- Node14&#45;&gt;Node5 -->
<g id="edge24" class="edge">
<title>Node14&#45;&gt;Node5</title>
<path fill="none" stroke="midnightblue" d="M117.4,-97.28C126.24,-76.97 149.93,-30.08 187,-11.89 224.51,6.51 241.07,0.4 281,-11.89 380.85,-42.65 476.19,-128.88 513.73,-165.79"/>
<polygon fill="midnightblue" stroke="midnightblue" points="511.68,-168.69 521.23,-173.27 516.62,-163.73 511.68,-168.69"/>
</g>
<!-- Node14&#45;&gt;Node6 -->
<g id="edge25" class="edge">
<title>Node14&#45;&gt;Node6</title>
<path fill="none" stroke="midnightblue" d="M117.46,-116.67C131.84,-152.06 180.73,-271.71 187,-277.89 188.43,-279.31 189.98,-280.62 191.62,-281.83"/>
<polygon fill="midnightblue" stroke="midnightblue" points="190,-284.95 200.36,-287.18 193.65,-278.98 190,-284.95"/>
</g>
<!-- Node14&#45;&gt;Node9 -->
<g id="edge26" class="edge">
<title>Node14&#45;&gt;Node9</title>
<path fill="none" stroke="midnightblue" d="M131.65,-112.67C148,-117.86 172.59,-125.68 193.45,-132.32"/>
<polygon fill="midnightblue" stroke="midnightblue" points="192.45,-135.67 203.04,-135.37 194.57,-129 192.45,-135.67"/>
</g>
<!-- Node14&#45;&gt;Node10 -->
<g id="edge27" class="edge">
<title>Node14&#45;&gt;Node10</title>
<path fill="none" stroke="midnightblue" d="M131.65,-106.89C145.25,-106.89 164.56,-106.89 182.68,-106.89"/>
<polygon fill="midnightblue" stroke="midnightblue" points="182.87,-110.4 192.87,-106.89 182.87,-103.4 182.87,-110.4"/>
</g>
<!-- Node15 -->
<g id="node15" class="node">
<title>Node15</title>
<g id="a_node15"><a xlink:href="../../d2/df6/kohonen__som__topology_8c.html#a5bb02a8322d717ead1b11182c5f02a3a" target="_top" xlink:title="Creates a random set of points distributed in four clusters in 3D space with centroids at the points.">
<polygon fill="white" stroke="black" points="187,-21.39 187,-40.39 281,-40.39 281,-21.39 187,-21.39"/>
<text text-anchor="middle" x="234" y="-28.39" font-family="Helvetica,sans-Serif" font-size="10.00">test_3d_classes2</text>
</a>
</g>
</g>
<!-- Node14&#45;&gt;Node15 -->
<g id="edge28" class="edge">
<title>Node14&#45;&gt;Node15</title>
<path fill="none" stroke="midnightblue" d="M125.9,-97.34C140.23,-86.48 164.72,-68.5 187,-54.89 192.32,-51.65 198.12,-48.4 203.76,-45.39"/>
<polygon fill="midnightblue" stroke="midnightblue" points="205.72,-48.32 212.98,-40.6 202.49,-42.11 205.72,-48.32"/>
</g>
<!-- Node15&#45;&gt;Node4 -->
<g id="edge29" class="edge">
<title>Node15&#45;&gt;Node4</title>
<path fill="none" stroke="midnightblue" d="M259.7,-40.42C267.16,-44.14 274.97,-48.95 281,-54.89 330.96,-104.13 362.26,-183.66 374.76,-220.29"/>
<polygon fill="midnightblue" stroke="midnightblue" points="371.58,-221.8 378.04,-230.19 378.22,-219.6 371.58,-221.8"/>
</g>
</g>
</svg>
