<?xml version="1.0" encoding="UTF-8" standalone="no"?>
<!DOCTYPE svg PUBLIC "-//W3C//DTD SVG 1.1//EN"
 "http://www.w3.org/Graphics/SVG/1.1/DTD/svg11.dtd">
<!-- Generated by graphviz version 6.0.1 (20220911.1526)
 -->
<!-- Title: readWordsInFileToTree Pages: 1 -->
<svg width="546pt" height="64pt"
 viewBox="0.00 0.00 546.00 64.00" xmlns="http://www.w3.org/2000/svg" xmlns:xlink="http://www.w3.org/1999/xlink">
<g id="graph0" class="graph" transform="scale(1 1) rotate(0) translate(4 60)">
<title>readWordsInFileToTree</title>
<!-- Node1 -->
<g id="node1" class="node">
<title>Node1</title>
<g id="a_node1"><a xlink:title="Reads words from file to tree.">
<polygon fill="#999999" stroke="#666666" points="117,-37 0,-37 0,-18 117,-18 117,-37"/>
<text text-anchor="middle" x="58.5" y="-25" font-family="Helvetica,sans-Serif" font-size="10.00">readWordsInFileToTree</text>
</a>
</g>
</g>
<!-- Node2 -->
<g id="node2" class="node">
<title>Node2</title>
<g id="a_node2"><a xlink:href="../../d3/d78/words__alphabetical_8c.html#a0ac11529daf94e98f7114a6e938679a9" target="_top" xlink:title="Adds word (node) to the correct position in tree.">
<polygon fill="white" stroke="#666666" points="238,-37 153,-37 153,-18 238,-18 238,-37"/>
<text text-anchor="middle" x="195.5" y="-25" font-family="Helvetica,sans-Serif" font-size="10.00">addWordToTree</text>
</a>
</g>
</g>
<!-- Node1&#45;&gt;Node2 -->
<g id="edge1" class="edge">
<title>Node1&#45;&gt;Node2</title>
<path fill="none" stroke="#63b8ff" d="M117.14,-27.5C125.7,-27.5 134.48,-27.5 142.9,-27.5"/>
<polygon fill="#63b8ff" stroke="#63b8ff" points="142.97,-31 152.97,-27.5 142.97,-24 142.97,-31"/>
</g>
<!-- Node2&#45;&gt;Node2 -->
<g id="edge2" class="edge">
<title>Node2&#45;&gt;Node2</title>
<path fill="none" stroke="#63b8ff" d="M174.38,-37.08C164.11,-45.73 171.15,-55 195.5,-55 211.1,-55 219.59,-51.2 220.98,-46.19"/>
<polygon fill="#63b8ff" stroke="#63b8ff" points="224.1,-44.59 216.62,-37.08 217.78,-47.61 224.1,-44.59"/>
</g>
<!-- Node3 -->
<g id="node3" class="node">
<title>Node3</title>
<g id="a_node3"><a xlink:href="../../d3/d78/words__alphabetical_8c.html#a1e5ad8401396df36ab585d79f3309fd9" target="_top" xlink:title="Reserves memory for new node.">
<polygon fill="white" stroke="#666666" points="397,-56 274,-56 274,-37 397,-37 397,-56"/>
<text text-anchor="middle" x="335.5" y="-44" font-family="Helvetica,sans-Serif" font-size="10.00">allocateMemoryForNode</text>
</a>
</g>
</g>
<!-- Node2&#45;&gt;Node3 -->
<g id="edge3" class="edge">
<title>Node2&#45;&gt;Node3</title>
<path fill="none" stroke="#63b8ff" d="M238.28,-33.25C246.32,-34.36 254.95,-35.55 263.61,-36.74"/>
<polygon fill="#63b8ff" stroke="#63b8ff" points="263.39,-40.24 273.77,-38.14 264.34,-33.31 263.39,-40.24"/>
</g>
<!-- Node5 -->
<g id="node5" class="node">
<title>Node5</title>
<g id="a_node5"><a xlink:href="../../d3/d78/words__alphabetical_8c.html#a9e3cab68cf6557024f0073f674a307a1" target="_top" xlink:title="Stores word in memory.">
<polygon fill="white" stroke="#666666" points="382.5,-19 288.5,-19 288.5,0 382.5,0 382.5,-19"/>
<text text-anchor="middle" x="335.5" y="-7" font-family="Helvetica,sans-Serif" font-size="10.00">getPointerToWord</text>
</a>
</g>
</g>
<!-- Node2&#45;&gt;Node5 -->
<g id="edge5" class="edge">
<title>Node2&#45;&gt;Node5</title>
<path fill="none" stroke="#63b8ff" d="M238.28,-22.05C250.8,-20.42 264.74,-18.6 278.03,-16.87"/>
<polygon fill="#63b8ff" stroke="#63b8ff" points="278.58,-20.32 288.04,-15.56 277.67,-13.38 278.58,-20.32"/>
</g>
<!-- Node4 -->
<g id="node4" class="node">
<title>Node4</title>
<g id="a_node4"><a xlink:href="../../d3/d78/words__alphabetical_8c.html#a5157a5b4e164f934602fa78413504029" target="_top" xlink:title="Ends program due to an error.">
<polygon fill="white" stroke="#666666" points="538,-37 433,-37 433,-18 538,-18 538,-37"/>
<text text-anchor="middle" x="485.5" y="-25" font-family="Helvetica,sans-Serif" font-size="10.00">endProgramAbruptly</text>
</a>
</g>
</g>
<!-- Node3&#45;&gt;Node4 -->
<g id="edge4" class="edge">
<title>Node3&#45;&gt;Node4</title>
<path fill="none" stroke="#63b8ff" d="M397.12,-38.72C405.52,-37.64 414.16,-36.53 422.58,-35.45"/>
<polygon fill="#63b8ff" stroke="#63b8ff" points="423.25,-38.89 432.72,-34.15 422.36,-31.95 423.25,-38.89"/>
</g>
<!-- Node5&#45;&gt;Node4 -->
<g id="edge6" class="edge">
<title>Node5&#45;&gt;Node4</title>
<path fill="none" stroke="#63b8ff" d="M382.52,-15.1C395.23,-16.64 409.23,-18.35 422.69,-19.98"/>
<polygon fill="#63b8ff" stroke="#63b8ff" points="422.48,-23.48 432.83,-21.22 423.33,-16.53 422.48,-23.48"/>
</g>
</g>
</svg>
