<?xml version="1.0" encoding="UTF-8" standalone="no"?>
<!DOCTYPE svg PUBLIC "-//W3C//DTD SVG 1.1//EN"
 "http://www.w3.org/Graphics/SVG/1.1/DTD/svg11.dtd">
<!-- Generated by graphviz version 8.0.2 (20230410.1723)
 -->
<!-- Title: readWordsInFileToTree Pages: 1 -->
<svg width="546pt" height="64pt"
 viewBox="0.00 0.00 546.00 64.00" xmlns="http://www.w3.org/2000/svg" xmlns:xlink="http://www.w3.org/1999/xlink">
<g id="graph0" class="graph" transform="scale(1 1) rotate(0) translate(4 60)">
<title>readWordsInFileToTree</title>
<!-- Node1 -->
<g id="node1" class="node">
<title>Node1</title>
<g id="a_node1"><a xlink:title="Reads words from file to tree.">
<polygon fill="#999999" stroke="#666666" points="117,-37 0,-37 0,-18 117,-18 117,-37"/>
<text text-anchor="middle" x="58.5" y="-25" font-family="Helvetica,sans-Serif" font-size="10.00">readWordsInFileToTree</text>
</a>
</g>
</g>
<!-- Node2 -->
<g id="node2" class="node">
<title>Node2</title>
<g id="a_node2"><a xlink:href="../../d3/d78/words__alphabetical_8c.html#a0ac11529daf94e98f7114a6e938679a9" target="_top" xlink:title="Adds word (node) to the correct position in tree.">
<polygon fill="white" stroke="#666666" points="238,-37 153,-37 153,-18 238,-18 238,-37"/>
<text text-anchor="middle" x="195.5" y="-25" font-family="Helvetica,sans-Serif" font-size="10.00">addWordToTree</text>
</a>
</g>
</g>
<!-- Node1&#45;&gt;Node2 -->
<g id="edge1" class="edge">
<title>Node1&#45;&gt;Node2</title>
<path fill="none" stroke="#63b8ff" d="M117.14,-27.5C125.32,-27.5 133.7,-27.5 141.78,-27.5"/>
<polygon fill="#63b8ff" stroke="#63b8ff" points="141.56,-31 151.56,-27.5 141.56,-24 141.56,-31"/>
</g>
<!-- Node2&#45;&gt;Node2 -->
<g id="edge2" class="edge">
<title>Node2&#45;&gt;Node2</title>
<path fill="none" stroke="#63b8ff" d="M174.05,-37.37C164.27,-45.94 171.42,-55 195.5,-55 209.42,-55 217.69,-51.97 220.29,-47.76"/>
<polygon fill="#63b8ff" stroke="#63b8ff" points="223.34,-46.82 216.95,-38.37 216.68,-48.96 223.34,-46.82"/>
</g>
<!-- Node3 -->
<g id="node3" class="node">
<title>Node3</title>
<g id="a_node3"><a xlink:href="../../d3/d78/words__alphabetical_8c.html#a1e5ad8401396df36ab585d79f3309fd9" target="_top" xlink:title="Reserves memory for new node.">
<polygon fill="white" stroke="#666666" points="397,-56 274,-56 274,-37 397,-37 397,-56"/>
<text text-anchor="middle" x="335.5" y="-44" font-family="Helvetica,sans-Serif" font-size="10.00">allocateMemoryForNode</text>
</a>
</g>
</g>
<!-- Node2&#45;&gt;Node3 -->
<g id="edge3" class="edge">
<title>Node2&#45;&gt;Node3</title>
<path fill="none" stroke="#63b8ff" d="M238.28,-33.25C246.09,-34.33 254.45,-35.48 262.87,-36.64"/>
<polygon fill="#63b8ff" stroke="#63b8ff" points="262.13,-40.21 272.52,-38.1 263.09,-33.27 262.13,-40.21"/>
</g>
<!-- Node5 -->
<g id="node5" class="node">
<title>Node5</title>
<g id="a_node5"><a xlink:href="../../d3/d78/words__alphabetical_8c.html#a9e3cab68cf6557024f0073f674a307a1" target="_top" xlink:title="Stores word in memory.">
<polygon fill="white" stroke="#666666" points="382.5,-19 288.5,-19 288.5,0 382.5,0 382.5,-19"/>
<text text-anchor="middle" x="335.5" y="-7" font-family="Helvetica,sans-Serif" font-size="10.00">getPointerToWord</text>
</a>
</g>
</g>
<!-- Node2&#45;&gt;Node5 -->
<g id="edge5" class="edge">
<title>Node2&#45;&gt;Node5</title>
<path fill="none" stroke="#63b8ff" d="M238.28,-22.05C250.55,-20.45 264.19,-18.67 277.25,-16.97"/>
<polygon fill="#63b8ff" stroke="#63b8ff" points="277.58,-20.32 287.04,-15.56 276.67,-13.38 277.58,-20.32"/>
</g>
<!-- Node4 -->
<g id="node4" class="node">
<title>Node4</title>
<g id="a_node4"><a xlink:href="../../d3/d78/words__alphabetical_8c.html#a5157a5b4e164f934602fa78413504029" target="_top" xlink:title="Ends program due to an error.">
<polygon fill="white" stroke="#666666" points="538,-37 433,-37 433,-18 538,-18 538,-37"/>
<text text-anchor="middle" x="485.5" y="-25" font-family="Helvetica,sans-Serif" font-size="10.00">endProgramAbruptly</text>
</a>
</g>
</g>
<!-- Node3&#45;&gt;Node4 -->
<g id="edge4" class="edge">
<title>Node3&#45;&gt;Node4</title>
<path fill="none" stroke="#63b8ff" d="M397.12,-38.72C405.34,-37.66 413.78,-36.58 422.03,-35.52"/>
<polygon fill="#63b8ff" stroke="#63b8ff" points="422.25,-38.89 431.72,-34.15 421.36,-31.95 422.25,-38.89"/>
</g>
<!-- Node5&#45;&gt;Node4 -->
<g id="edge6" class="edge">
<title>Node5&#45;&gt;Node4</title>
<path fill="none" stroke="#63b8ff" d="M382.92,-15.15C395.24,-16.64 408.75,-18.29 421.78,-19.87"/>
<polygon fill="#63b8ff" stroke="#63b8ff" points="421.23,-23.45 431.58,-21.18 422.07,-16.5 421.23,-23.45"/>
</g>
</g>
</svg>
