<?xml version="1.0" encoding="UTF-8" standalone="no"?>
<!DOCTYPE svg PUBLIC "-//W3C//DTD SVG 1.1//EN"
 "http://www.w3.org/Graphics/SVG/1.1/DTD/svg11.dtd">
<!-- Generated by graphviz version 2.49.3 (20211023.0002)
 -->
<!-- Title: test Pages: 1 -->
<svg width="637pt" height="175pt"
 viewBox="0.00 0.00 637.00 175.00" xmlns="http://www.w3.org/2000/svg" xmlns:xlink="http://www.w3.org/1999/xlink">
<g id="graph0" class="graph" transform="scale(1 1) rotate(0) translate(4 171)">
<title>test</title>
<polygon fill="white" stroke="transparent" points="-4,4 -4,-171 633,-171 633,4 -4,4"/>
<!-- Node1 -->
<g id="node1" class="node">
<title>Node1</title>
<g id="a_node1"><a xlink:title="Self&#45;test implementations.">
<polygon fill="#bfbfbf" stroke="black" points="0,-75.5 0,-94.5 33,-94.5 33,-75.5 0,-75.5"/>
<text text-anchor="middle" x="16.5" y="-82.5" font-family="Helvetica,sans-Serif" font-size="10.00">test</text>
</a>
</g>
</g>
<!-- Node2 -->
<g id="node2" class="node">
<title>Node2</title>
<g id="a_node2"><a xlink:href="../../d3/d78/words__alphabetical_8c.html#af1f9b6eb320d872ba0766dc8bd070075" target="_top" xlink:title="Closes the file after reading or writing.">
<polygon fill="white" stroke="black" points="251,-147.5 251,-166.5 307,-166.5 307,-147.5 251,-147.5"/>
<text text-anchor="middle" x="279" y="-154.5" font-family="Helvetica,sans-Serif" font-size="10.00">closeFile</text>
</a>
</g>
</g>
<!-- Node1&#45;&gt;Node2 -->
<g id="edge1" class="edge">
<title>Node1&#45;&gt;Node2</title>
<path fill="none" stroke="midnightblue" d="M23.04,-94.57C31.21,-107.67 47.85,-130.74 69,-141 124.2,-167.79 197.34,-166.23 240.85,-162.05"/>
<polygon fill="midnightblue" stroke="midnightblue" points="241.41,-165.51 250.98,-160.97 240.67,-158.55 241.41,-165.51"/>
</g>
<!-- Node4 -->
<g id="node4" class="node">
<title>Node4</title>
<g id="a_node4"><a xlink:href="../../d3/d78/words__alphabetical_8c.html#a840902ada0e956eb01b529be178748cc" target="_top" xlink:title="Frees memory when program is terminating.">
<polygon fill="white" stroke="black" points="89,-94.5 89,-113.5 179,-113.5 179,-94.5 89,-94.5"/>
<text text-anchor="middle" x="134" y="-101.5" font-family="Helvetica,sans-Serif" font-size="10.00">freeTreeMemory</text>
</a>
</g>
</g>
<!-- Node1&#45;&gt;Node4 -->
<g id="edge3" class="edge">
<title>Node1&#45;&gt;Node4</title>
<path fill="none" stroke="midnightblue" d="M33.08,-87.56C44.91,-89.51 61.93,-92.31 78.58,-95.05"/>
<polygon fill="midnightblue" stroke="midnightblue" points="78.41,-98.57 88.85,-96.74 79.55,-91.66 78.41,-98.57"/>
</g>
<!-- Node5 -->
<g id="node5" class="node">
<title>Node5</title>
<g id="a_node5"><a xlink:href="../../d3/d78/words__alphabetical_8c.html#a151b2c78ae821d0495faf936a1c2530f" target="_top" xlink:title="Reads words from file to tree.">
<polygon fill="white" stroke="black" points="74,-56.5 74,-75.5 194,-75.5 194,-56.5 74,-56.5"/>
<text text-anchor="middle" x="134" y="-63.5" font-family="Helvetica,sans-Serif" font-size="10.00">readWordsInFileToTree</text>
</a>
</g>
</g>
<!-- Node1&#45;&gt;Node5 -->
<g id="edge5" class="edge">
<title>Node1&#45;&gt;Node5</title>
<path fill="none" stroke="midnightblue" d="M33.08,-82.44C41.69,-81.02 53.05,-79.15 65.02,-77.18"/>
<polygon fill="midnightblue" stroke="midnightblue" points="65.86,-80.59 75.16,-75.51 64.73,-73.68 65.86,-80.59"/>
</g>
<!-- Node9 -->
<g id="node9" class="node">
<title>Node9</title>
<g id="a_node9"><a xlink:href="../../d3/d78/words__alphabetical_8c.html#a22516c70583c9fa78e4edffb063836cc" target="_top" xlink:title="Writes contents of tree to another file alphabetically.">
<polygon fill="white" stroke="black" points="69,-0.5 69,-19.5 199,-19.5 199,-0.5 69,-0.5"/>
<text text-anchor="middle" x="134" y="-7.5" font-family="Helvetica,sans-Serif" font-size="10.00">writeContentOfTreeToFile</text>
</a>
</g>
</g>
<!-- Node1&#45;&gt;Node9 -->
<g id="edge12" class="edge">
<title>Node1&#45;&gt;Node9</title>
<path fill="none" stroke="midnightblue" d="M29.92,-75.23C40.18,-67.3 55.24,-56.01 69,-47 81.03,-39.12 94.79,-31.05 106.46,-24.47"/>
<polygon fill="midnightblue" stroke="midnightblue" points="108.27,-27.46 115.3,-19.54 104.86,-21.35 108.27,-27.46"/>
</g>
<!-- Node3 -->
<g id="node3" class="node">
<title>Node3</title>
<g id="a_node3"><a xlink:href="../../d3/d78/words__alphabetical_8c.html#a5157a5b4e164f934602fa78413504029" target="_top" xlink:title="Ends program due to an error.">
<polygon fill="white" stroke="black" points="521,-103.5 521,-122.5 629,-122.5 629,-103.5 521,-103.5"/>
<text text-anchor="middle" x="575" y="-110.5" font-family="Helvetica,sans-Serif" font-size="10.00">endProgramAbruptly</text>
</a>
</g>
</g>
<!-- Node2&#45;&gt;Node3 -->
<g id="edge2" class="edge">
<title>Node2&#45;&gt;Node3</title>
<path fill="none" stroke="midnightblue" d="M307.3,-154.45C346.7,-150.6 421.7,-142.59 485,-132 497.3,-129.94 510.47,-127.35 522.81,-124.74"/>
<polygon fill="midnightblue" stroke="midnightblue" points="523.9,-128.09 532.94,-122.56 522.43,-121.24 523.9,-128.09"/>
</g>
<!-- Node4&#45;&gt;Node4 -->
<g id="edge4" class="edge">
<title>Node4&#45;&gt;Node4</title>
<path fill="none" stroke="midnightblue" d="M116.12,-113.76C107.42,-122.57 113.38,-132 134,-132 146.89,-132 154.05,-128.31 155.48,-123.4"/>
<polygon fill="midnightblue" stroke="midnightblue" points="158.66,-121.9 151.88,-113.76 152.1,-124.35 158.66,-121.9"/>
</g>
<!-- Node6 -->
<g id="node6" class="node">
<title>Node6</title>
<g id="a_node6"><a xlink:href="../../d3/d78/words__alphabetical_8c.html#a0ac11529daf94e98f7114a6e938679a9" target="_top" xlink:title="Adds word (node) to the correct position in tree.">
<polygon fill="white" stroke="black" points="235,-65.5 235,-84.5 323,-84.5 323,-65.5 235,-65.5"/>
<text text-anchor="middle" x="279" y="-72.5" font-family="Helvetica,sans-Serif" font-size="10.00">addWordToTree</text>
</a>
</g>
</g>
<!-- Node5&#45;&gt;Node6 -->
<g id="edge6" class="edge">
<title>Node5&#45;&gt;Node6</title>
<path fill="none" stroke="midnightblue" d="M194.4,-69.74C204.43,-70.37 214.78,-71.02 224.63,-71.64"/>
<polygon fill="midnightblue" stroke="midnightblue" points="224.49,-75.14 234.7,-72.27 224.93,-68.15 224.49,-75.14"/>
</g>
<!-- Node6&#45;&gt;Node6 -->
<g id="edge7" class="edge">
<title>Node6&#45;&gt;Node6</title>
<path fill="none" stroke="midnightblue" d="M257.11,-84.76C246.47,-93.57 253.76,-103 279,-103 295.56,-103 304.4,-98.94 305.51,-93.65"/>
<polygon fill="midnightblue" stroke="midnightblue" points="308.6,-92.02 300.89,-84.76 302.39,-95.24 308.6,-92.02"/>
</g>
<!-- Node7 -->
<g id="node7" class="node">
<title>Node7</title>
<g id="a_node7"><a xlink:href="../../d3/d78/words__alphabetical_8c.html#a1e5ad8401396df36ab585d79f3309fd9" target="_top" xlink:title="Reserves memory for new node.">
<polygon fill="white" stroke="black" points="359,-103.5 359,-122.5 485,-122.5 485,-103.5 359,-103.5"/>
<text text-anchor="middle" x="422" y="-110.5" font-family="Helvetica,sans-Serif" font-size="10.00">allocateMemoryForNode</text>
</a>
</g>
</g>
<!-- Node6&#45;&gt;Node7 -->
<g id="edge8" class="edge">
<title>Node6&#45;&gt;Node7</title>
<path fill="none" stroke="midnightblue" d="M315.58,-84.59C333.78,-89.49 356.14,-95.52 375.57,-100.76"/>
<polygon fill="midnightblue" stroke="midnightblue" points="374.86,-104.19 385.43,-103.41 376.69,-97.43 374.86,-104.19"/>
</g>
<!-- Node8 -->
<g id="node8" class="node">
<title>Node8</title>
<g id="a_node8"><a xlink:href="../../d3/d78/words__alphabetical_8c.html#a9e3cab68cf6557024f0073f674a307a1" target="_top" xlink:title="Stores word in memory.">
<polygon fill="white" stroke="black" points="374,-65.5 374,-84.5 470,-84.5 470,-65.5 374,-65.5"/>
<text text-anchor="middle" x="422" y="-72.5" font-family="Helvetica,sans-Serif" font-size="10.00">getPointerToWord</text>
</a>
</g>
</g>
<!-- Node6&#45;&gt;Node8 -->
<g id="edge10" class="edge">
<title>Node6&#45;&gt;Node8</title>
<path fill="none" stroke="midnightblue" d="M323.07,-75C335.85,-75 350.05,-75 363.59,-75"/>
<polygon fill="midnightblue" stroke="midnightblue" points="363.77,-78.5 373.77,-75 363.77,-71.5 363.77,-78.5"/>
</g>
<!-- Node7&#45;&gt;Node3 -->
<g id="edge9" class="edge">
<title>Node7&#45;&gt;Node3</title>
<path fill="none" stroke="midnightblue" d="M485.29,-113C493.72,-113 502.38,-113 510.83,-113"/>
<polygon fill="midnightblue" stroke="midnightblue" points="511,-116.5 521,-113 511,-109.5 511,-116.5"/>
</g>
<!-- Node8&#45;&gt;Node3 -->
<g id="edge11" class="edge">
<title>Node8&#45;&gt;Node3</title>
<path fill="none" stroke="midnightblue" d="M461.1,-84.59C480.94,-89.58 505.38,-95.73 526.45,-101.03"/>
<polygon fill="midnightblue" stroke="midnightblue" points="525.62,-104.43 536.17,-103.48 527.33,-97.65 525.62,-104.43"/>
</g>
<!-- Node9&#45;&gt;Node9 -->
<g id="edge13" class="edge">
<title>Node9&#45;&gt;Node9</title>
<path fill="none" stroke="midnightblue" d="M116.12,-19.76C107.42,-28.57 113.38,-38 134,-38 146.89,-38 154.05,-34.31 155.48,-29.4"/>
<polygon fill="midnightblue" stroke="midnightblue" points="158.66,-27.9 151.88,-19.76 152.1,-30.35 158.66,-27.9"/>
</g>
</g>
</svg>
