<?xml version="1.0" encoding="UTF-8" standalone="no"?>
<!DOCTYPE svg PUBLIC "-//W3C//DTD SVG 1.1//EN"
 "http://www.w3.org/Graphics/SVG/1.1/DTD/svg11.dtd">
<!-- Generated by graphviz version 8.0.2 (20230410.1723)
 -->
<!-- Title: main Pages: 1 -->
<svg width="700pt" height="172pt"
 viewBox="0.00 0.00 700.00 172.00" xmlns="http://www.w3.org/2000/svg" xmlns:xlink="http://www.w3.org/1999/xlink">
<g id="graph0" class="graph" transform="scale(1 1) rotate(0) translate(4 168)">
<title>main</title>
<!-- Node1 -->
<g id="node1" class="node">
<title>Node1</title>
<g id="a_node1"><a xlink:title="Main function.">
<polygon fill="#999999" stroke="#666666" points="38,-92 0,-92 0,-73 38,-73 38,-92"/>
<text text-anchor="middle" x="19" y="-80" font-family="Helvetica,sans-Serif" font-size="10.00">main</text>
</a>
</g>
</g>
<!-- Node2 -->
<g id="node2" class="node">
<title>Node2</title>
<g id="a_node2"><a xlink:href="../../d3/d78/words__alphabetical_8c.html#aa8dca7b867074164d5f45b0f3851269d" target="_top" xlink:title="Self&#45;test implementations.">
<polygon fill="white" stroke="#666666" points="107,-92 74,-92 74,-73 107,-73 107,-92"/>
<text text-anchor="middle" x="90.5" y="-80" font-family="Helvetica,sans-Serif" font-size="10.00">test</text>
</a>
</g>
</g>
<!-- Node1&#45;&gt;Node2 -->
<g id="edge1" class="edge">
<title>Node1&#45;&gt;Node2</title>
<path fill="none" stroke="#63b8ff" d="M38.26,-82.5C45.89,-82.5 54.9,-82.5 63.23,-82.5"/>
<polygon fill="#63b8ff" stroke="#63b8ff" points="62.95,-86 72.95,-82.5 62.95,-79 62.95,-86"/>
</g>
<!-- Node3 -->
<g id="node3" class="node">
<title>Node3</title>
<g id="a_node3"><a xlink:href="../../d3/d78/words__alphabetical_8c.html#af1f9b6eb320d872ba0766dc8bd070075" target="_top" xlink:title="Closes the file after reading or writing.">
<polygon fill="white" stroke="#666666" points="377.5,-164 321.5,-164 321.5,-145 377.5,-145 377.5,-164"/>
<text text-anchor="middle" x="349.5" y="-152" font-family="Helvetica,sans-Serif" font-size="10.00">closeFile</text>
</a>
</g>
</g>
<!-- Node2&#45;&gt;Node3 -->
<g id="edge2" class="edge">
<title>Node2&#45;&gt;Node3</title>
<path fill="none" stroke="#63b8ff" d="M97.04,-92.07C105.22,-105.16 121.85,-128.22 143,-138.5 196.62,-164.57 267.49,-163.48 310.45,-159.54"/>
<polygon fill="#63b8ff" stroke="#63b8ff" points="310.67,-162.94 320.26,-158.44 309.96,-155.97 310.67,-162.94"/>
</g>
<!-- Node5 -->
<g id="node5" class="node">
<title>Node5</title>
<g id="a_node5"><a xlink:href="../../d3/d78/words__alphabetical_8c.html#a840902ada0e956eb01b529be178748cc" target="_top" xlink:title="Frees memory when program is terminating.">
<polygon fill="white" stroke="#666666" points="251,-111 163,-111 163,-92 251,-92 251,-111"/>
<text text-anchor="middle" x="207" y="-99" font-family="Helvetica,sans-Serif" font-size="10.00">freeTreeMemory</text>
</a>
</g>
</g>
<!-- Node2&#45;&gt;Node5 -->
<g id="edge4" class="edge">
<title>Node2&#45;&gt;Node5</title>
<path fill="none" stroke="#63b8ff" d="M107.42,-85.14C119.12,-87.08 135.74,-89.84 152,-92.54"/>
<polygon fill="#63b8ff" stroke="#63b8ff" points="151.15,-96.11 161.59,-94.3 152.3,-89.21 151.15,-96.11"/>
</g>
<!-- Node6 -->
<g id="node6" class="node">
<title>Node6</title>
<g id="a_node6"><a xlink:href="../../d3/d78/words__alphabetical_8c.html#a151b2c78ae821d0495faf936a1c2530f" target="_top" xlink:title="Reads words from file to tree.">
<polygon fill="white" stroke="#666666" points="265.5,-74 148.5,-74 148.5,-55 265.5,-55 265.5,-74"/>
<text text-anchor="middle" x="207" y="-62" font-family="Helvetica,sans-Serif" font-size="10.00">readWordsInFileToTree</text>
</a>
</g>
</g>
<!-- Node2&#45;&gt;Node6 -->
<g id="edge6" class="edge">
<title>Node2&#45;&gt;Node6</title>
<path fill="none" stroke="#63b8ff" d="M107.42,-80C115.57,-78.72 126.11,-77.06 137.26,-75.31"/>
<polygon fill="#63b8ff" stroke="#63b8ff" points="137.74,-78.62 147.07,-73.61 136.65,-71.7 137.74,-78.62"/>
</g>
<!-- Node10 -->
<g id="node10" class="node">
<title>Node10</title>
<g id="a_node10"><a xlink:href="../../d3/d78/words__alphabetical_8c.html#a22516c70583c9fa78e4edffb063836cc" target="_top" xlink:title="Writes contents of tree to another file alphabetically.">
<polygon fill="white" stroke="#666666" points="271,-19 143,-19 143,0 271,0 271,-19"/>
<text text-anchor="middle" x="207" y="-7" font-family="Helvetica,sans-Serif" font-size="10.00">writeContentOfTreeToFile</text>
</a>
</g>
</g>
<!-- Node2&#45;&gt;Node10 -->
<g id="edge13" class="edge">
<title>Node2&#45;&gt;Node10</title>
<path fill="none" stroke="#63b8ff" d="M104.36,-72.69C114.63,-65 129.48,-54.19 143,-45.5 154.2,-38.31 166.88,-30.92 177.92,-24.72"/>
<polygon fill="#63b8ff" stroke="#63b8ff" points="179.46,-27.32 186.51,-19.41 176.06,-21.2 179.46,-27.32"/>
</g>
<!-- Node4 -->
<g id="node4" class="node">
<title>Node4</title>
<g id="a_node4"><a xlink:href="../../d3/d78/words__alphabetical_8c.html#a5157a5b4e164f934602fa78413504029" target="_top" xlink:title="Ends program due to an error.">
<polygon fill="white" stroke="#666666" points="692,-120 587,-120 587,-101 692,-101 692,-120"/>
<text text-anchor="middle" x="639.5" y="-108" font-family="Helvetica,sans-Serif" font-size="10.00">endProgramAbruptly</text>
</a>
</g>
</g>
<!-- Node3&#45;&gt;Node4 -->
<g id="edge3" class="edge">
<title>Node3&#45;&gt;Node4</title>
<path fill="none" stroke="#63b8ff" d="M377.86,-151.88C416.56,-147.98 489.45,-140 551,-129.5 562.26,-127.58 574.27,-125.19 585.67,-122.77"/>
<polygon fill="#63b8ff" stroke="#63b8ff" points="586.34,-125.99 595.37,-120.45 584.85,-119.15 586.34,-125.99"/>
</g>
<!-- Node5&#45;&gt;Node5 -->
<g id="edge5" class="edge">
<title>Node5&#45;&gt;Node5</title>
<path fill="none" stroke="#63b8ff" d="M188.76,-111.37C180.44,-119.94 186.52,-129 207,-129 218.84,-129 225.87,-125.97 228.08,-121.76"/>
<polygon fill="#63b8ff" stroke="#63b8ff" points="231.25,-121.09 225.24,-112.37 224.5,-122.94 231.25,-121.09"/>
</g>
<!-- Node7 -->
<g id="node7" class="node">
<title>Node7</title>
<g id="a_node7"><a xlink:href="../../d3/d78/words__alphabetical_8c.html#a0ac11529daf94e98f7114a6e938679a9" target="_top" xlink:title="Adds word (node) to the correct position in tree.">
<polygon fill="white" stroke="#666666" points="392,-83 307,-83 307,-64 392,-64 392,-83"/>
<text text-anchor="middle" x="349.5" y="-71" font-family="Helvetica,sans-Serif" font-size="10.00">addWordToTree</text>
</a>
</g>
</g>
<!-- Node6&#45;&gt;Node7 -->
<g id="edge7" class="edge">
<title>Node6&#45;&gt;Node7</title>
<path fill="none" stroke="#63b8ff" d="M265.96,-68.21C275.84,-68.85 286.06,-69.5 295.8,-70.12"/>
<polygon fill="#63b8ff" stroke="#63b8ff" points="295.35,-73.67 305.55,-70.81 295.8,-66.68 295.35,-73.67"/>
</g>
<!-- Node7&#45;&gt;Node7 -->
<g id="edge8" class="edge">
<title>Node7&#45;&gt;Node7</title>
<path fill="none" stroke="#63b8ff" d="M327.58,-83.37C317.58,-91.94 324.89,-101 349.5,-101 363.73,-101 372.17,-97.97 374.83,-93.76"/>
<polygon fill="#63b8ff" stroke="#63b8ff" points="377.86,-92.78 371.42,-84.37 371.21,-94.96 377.86,-92.78"/>
</g>
<!-- Node8 -->
<g id="node8" class="node">
<title>Node8</title>
<g id="a_node8"><a xlink:href="../../d3/d78/words__alphabetical_8c.html#a1e5ad8401396df36ab585d79f3309fd9" target="_top" xlink:title="Reserves memory for new node.">
<polygon fill="white" stroke="#666666" points="551,-120 428,-120 428,-101 551,-101 551,-120"/>
<text text-anchor="middle" x="489.5" y="-108" font-family="Helvetica,sans-Serif" font-size="10.00">allocateMemoryForNode</text>
</a>
</g>
</g>
<!-- Node7&#45;&gt;Node8 -->
<g id="edge9" class="edge">
<title>Node7&#45;&gt;Node8</title>
<path fill="none" stroke="#63b8ff" d="M387.48,-83.42C403.88,-87.81 423.37,-93.04 440.85,-97.72"/>
<polygon fill="#63b8ff" stroke="#63b8ff" points="439.85,-101.35 450.42,-100.56 441.66,-94.59 439.85,-101.35"/>
</g>
<!-- Node9 -->
<g id="node9" class="node">
<title>Node9</title>
<g id="a_node9"><a xlink:href="../../d3/d78/words__alphabetical_8c.html#a9e3cab68cf6557024f0073f674a307a1" target="_top" xlink:title="Stores word in memory.">
<polygon fill="white" stroke="#666666" points="536.5,-83 442.5,-83 442.5,-64 536.5,-64 536.5,-83"/>
<text text-anchor="middle" x="489.5" y="-71" font-family="Helvetica,sans-Serif" font-size="10.00">getPointerToWord</text>
</a>
</g>
</g>
<!-- Node7&#45;&gt;Node9 -->
<g id="edge11" class="edge">
<title>Node7&#45;&gt;Node9</title>
<path fill="none" stroke="#63b8ff" d="M392.28,-73.5C404.55,-73.5 418.19,-73.5 431.25,-73.5"/>
<polygon fill="#63b8ff" stroke="#63b8ff" points="431.04,-77 441.04,-73.5 431.04,-70 431.04,-77"/>
</g>
<!-- Node8&#45;&gt;Node4 -->
<g id="edge10" class="edge">
<title>Node8&#45;&gt;Node4</title>
<path fill="none" stroke="#63b8ff" d="M551.12,-110.5C559.25,-110.5 567.59,-110.5 575.75,-110.5"/>
<polygon fill="#63b8ff" stroke="#63b8ff" points="575.72,-114 585.72,-110.5 575.72,-107 575.72,-114"/>
</g>
<!-- Node9&#45;&gt;Node4 -->
<g id="edge12" class="edge">
<title>Node9&#45;&gt;Node4</title>
<path fill="none" stroke="#63b8ff" d="M530.16,-83.42C548,-87.87 569.25,-93.19 588.19,-97.92"/>
<polygon fill="#63b8ff" stroke="#63b8ff" points="587.18,-101.53 597.73,-100.56 588.88,-94.74 587.18,-101.53"/>
</g>
<!-- Node10&#45;&gt;Node10 -->
<g id="edge14" class="edge">
<title>Node10&#45;&gt;Node10</title>
<path fill="none" stroke="#63b8ff" d="M188.76,-19.37C180.44,-27.94 186.52,-37 207,-37 218.84,-37 225.87,-33.97 228.08,-29.76"/>
<polygon fill="#63b8ff" stroke="#63b8ff" points="231.25,-29.09 225.24,-20.37 224.5,-30.94 231.25,-29.09"/>
</g>
</g>
</svg>
