<?xml version="1.0" encoding="UTF-8" standalone="no"?>
<!DOCTYPE svg PUBLIC "-//W3C//DTD SVG 1.1//EN"
 "http://www.w3.org/Graphics/SVG/1.1/DTD/svg11.dtd">
<!-- Generated by graphviz version 8.0.5 (20230430.1635)
 -->
<!-- Title: main Pages: 1 -->
<svg width="697pt" height="172pt"
 viewBox="0.00 0.00 696.50 172.25" xmlns="http://www.w3.org/2000/svg" xmlns:xlink="http://www.w3.org/1999/xlink">
<g id="graph0" class="graph" transform="scale(1 1) rotate(0) translate(4 168.25)">
<title>main</title>
<!-- Node1 -->
<g id="Node000001" class="node">
<title>Node1</title>
<g id="a_Node000001"><a xlink:title="Main function.">
<polygon fill="#999999" stroke="#666666" points="37,-92.25 0,-92.25 0,-73 37,-73 37,-92.25"/>
<text text-anchor="middle" x="18.5" y="-78.75" font-family="Helvetica,sans-Serif" font-size="10.00">main</text>
</a>
</g>
</g>
<!-- Node2 -->
<g id="Node000002" class="node">
<title>Node2</title>
<g id="a_Node000002"><a xlink:href="../../d3/d78/words__alphabetical_8c.html#aa8dca7b867074164d5f45b0f3851269d" target="_top" xlink:title="Self&#45;test implementations.">
<polygon fill="white" stroke="#666666" points="105.5,-92.25 73,-92.25 73,-73 105.5,-73 105.5,-92.25"/>
<text text-anchor="middle" x="89.25" y="-78.75" font-family="Helvetica,sans-Serif" font-size="10.00">test</text>
</a>
</g>
</g>
<!-- Node1&#45;&gt;Node2 -->
<g id="edge1_Node000001_Node000002" class="edge">
<title>Node1&#45;&gt;Node2</title>
<g id="a_edge1_Node000001_Node000002"><a xlink:title=" ">
<path fill="none" stroke="#63b8ff" d="M37.2,-82.62C44.67,-82.62 53.52,-82.62 61.73,-82.62"/>
<polygon fill="#63b8ff" stroke="#63b8ff" points="61.71,-86.13 71.71,-82.62 61.71,-79.13 61.71,-86.13"/>
</a>
</g>
</g>
<!-- Node3 -->
<g id="Node000003" class="node">
<title>Node3</title>
<g id="a_Node000003"><a xlink:href="../../d3/d78/words__alphabetical_8c.html#af1f9b6eb320d872ba0766dc8bd070075" target="_top" xlink:title="Closes the file after reading or writing.">
<polygon fill="white" stroke="#666666" points="374.88,-164.25 319.88,-164.25 319.88,-145 374.88,-145 374.88,-164.25"/>
<text text-anchor="middle" x="347.38" y="-150.75" font-family="Helvetica,sans-Serif" font-size="10.00">closeFile</text>
</a>
</g>
</g>
<!-- Node2&#45;&gt;Node3 -->
<g id="edge2_Node000002_Node000003" class="edge">
<title>Node2&#45;&gt;Node3</title>
<g id="a_edge2_Node000002_Node000003"><a xlink:title=" ">
<path fill="none" stroke="#63b8ff" d="M96.03,-92.63C104.25,-105.8 120.65,-128.46 141.5,-138.62 195.07,-164.75 265.98,-163.59 308.78,-159.63"/>
<polygon fill="#63b8ff" stroke="#63b8ff" points="308.96,-163.03 318.54,-158.52 308.24,-156.07 308.96,-163.03"/>
</a>
</g>
</g>
<!-- Node5 -->
<g id="Node000005" class="node">
<title>Node5</title>
<g id="a_Node000005"><a xlink:href="../../d3/d78/words__alphabetical_8c.html#a840902ada0e956eb01b529be178748cc" target="_top" xlink:title="Frees memory when program is terminating.">
<polygon fill="white" stroke="#666666" points="249,-111.25 161.75,-111.25 161.75,-92 249,-92 249,-111.25"/>
<text text-anchor="middle" x="205.38" y="-97.75" font-family="Helvetica,sans-Serif" font-size="10.00">freeTreeMemory</text>
</a>
</g>
</g>
<!-- Node2&#45;&gt;Node5 -->
<g id="edge4_Node000002_Node000005" class="edge">
<title>Node2&#45;&gt;Node5</title>
<g id="a_edge4_Node000002_Node000005"><a xlink:title=" ">
<path fill="none" stroke="#63b8ff" d="M105.64,-85.19C117.32,-87.13 134.12,-89.93 150.56,-92.67"/>
<polygon fill="#63b8ff" stroke="#63b8ff" points="149.81,-96.26 160.25,-94.45 150.96,-89.35 149.81,-96.26"/>
</a>
</g>
</g>
<!-- Node6 -->
<g id="Node000006" class="node">
<title>Node6</title>
<g id="a_Node000006"><a xlink:href="../../d3/d78/words__alphabetical_8c.html#a151b2c78ae821d0495faf936a1c2530f" target="_top" xlink:title="Reads words from file to tree.">
<polygon fill="white" stroke="#666666" points="263.62,-74.25 147.12,-74.25 147.12,-55 263.62,-55 263.62,-74.25"/>
<text text-anchor="middle" x="205.38" y="-60.75" font-family="Helvetica,sans-Serif" font-size="10.00">readWordsInFileToTree</text>
</a>
</g>
</g>
<!-- Node2&#45;&gt;Node6 -->
<g id="edge6_Node000002_Node000006" class="edge">
<title>Node2&#45;&gt;Node6</title>
<g id="a_edge6_Node000002_Node000006"><a xlink:title=" ">
<path fill="none" stroke="#63b8ff" d="M105.64,-80.2C113.89,-78.9 124.68,-77.19 136.1,-75.39"/>
<polygon fill="#63b8ff" stroke="#63b8ff" points="136.38,-78.73 145.71,-73.72 135.29,-71.82 136.38,-78.73"/>
</a>
</g>
</g>
<!-- Node10 -->
<g id="Node000010" class="node">
<title>Node10</title>
<g id="a_Node000010"><a xlink:href="../../d3/d78/words__alphabetical_8c.html#a22516c70583c9fa78e4edffb063836cc" target="_top" xlink:title="Writes contents of tree to another file alphabetically.">
<polygon fill="white" stroke="#666666" points="269.25,-19.25 141.5,-19.25 141.5,0 269.25,0 269.25,-19.25"/>
<text text-anchor="middle" x="205.38" y="-5.75" font-family="Helvetica,sans-Serif" font-size="10.00">writeContentOfTreeToFile</text>
</a>
</g>
</g>
<!-- Node2&#45;&gt;Node10 -->
<g id="edge13_Node000002_Node000010" class="edge">
<title>Node2&#45;&gt;Node10</title>
<g id="a_edge13_Node000002_Node000010"><a xlink:title=" ">
<path fill="none" stroke="#63b8ff" d="M103.05,-72.81C113.26,-65.12 128.03,-54.31 141.5,-45.62 152.59,-38.48 165.15,-31.14 176.11,-24.97"/>
<polygon fill="#63b8ff" stroke="#63b8ff" points="177.6,-27.59 184.64,-19.68 174.2,-21.48 177.6,-27.59"/>
</a>
</g>
</g>
<!-- Node4 -->
<g id="Node000004" class="node">
<title>Node4</title>
<g id="a_Node000004"><a xlink:href="../../d3/d78/words__alphabetical_8c.html#a5157a5b4e164f934602fa78413504029" target="_top" xlink:title="Ends program due to an error.">
<polygon fill="white" stroke="#666666" points="688.5,-120.25 584,-120.25 584,-101 688.5,-101 688.5,-120.25"/>
<text text-anchor="middle" x="636.25" y="-106.75" font-family="Helvetica,sans-Serif" font-size="10.00">endProgramAbruptly</text>
</a>
</g>
</g>
<!-- Node3&#45;&gt;Node4 -->
<g id="edge3_Node000003_Node000004" class="edge">
<title>Node3&#45;&gt;Node4</title>
<g id="a_edge3_Node000003_Node000004"><a xlink:title=" ">
<path fill="none" stroke="#63b8ff" d="M375.29,-152.03C413.74,-148.15 486.55,-140.14 548,-129.62 559.12,-127.72 570.96,-125.37 582.22,-122.97"/>
<polygon fill="#63b8ff" stroke="#63b8ff" points="582.77,-126.22 591.8,-120.67 581.28,-119.37 582.77,-126.22"/>
</a>
</g>
</g>
<!-- Node5&#45;&gt;Node5 -->
<g id="edge5_Node000005_Node000005" class="edge">
<title>Node5&#45;&gt;Node5</title>
<g id="a_edge5_Node000005_Node000005"><a xlink:title=" ">
<path fill="none" stroke="#63b8ff" d="M187.2,-111.54C178.9,-120.15 184.96,-129.25 205.38,-129.25 217.18,-129.25 224.18,-126.21 226.39,-121.98"/>
<polygon fill="#63b8ff" stroke="#63b8ff" points="229.55,-121.27 223.55,-112.54 222.8,-123.11 229.55,-121.27"/>
</a>
</g>
</g>
<!-- Node7 -->
<g id="Node000007" class="node">
<title>Node7</title>
<g id="a_Node000007"><a xlink:href="../../d3/d78/words__alphabetical_8c.html#a0ac11529daf94e98f7114a6e938679a9" target="_top" xlink:title="Adds word (node) to the correct position in tree.">
<polygon fill="white" stroke="#666666" points="389.5,-83.25 305.25,-83.25 305.25,-64 389.5,-64 389.5,-83.25"/>
<text text-anchor="middle" x="347.38" y="-69.75" font-family="Helvetica,sans-Serif" font-size="10.00">addWordToTree</text>
</a>
</g>
</g>
<!-- Node6&#45;&gt;Node7 -->
<g id="edge7_Node000006_Node000007" class="edge">
<title>Node6&#45;&gt;Node7</title>
<g id="a_edge7_Node000006_Node000007"><a xlink:title=" ">
<path fill="none" stroke="#63b8ff" d="M263.72,-68.31C273.71,-68.95 284.05,-69.62 293.9,-70.25"/>
<polygon fill="#63b8ff" stroke="#63b8ff" points="293.55,-73.8 303.76,-70.95 294,-66.82 293.55,-73.8"/>
</a>
</g>
</g>
<!-- Node7&#45;&gt;Node7 -->
<g id="edge8_Node000007_Node000007" class="edge">
<title>Node7&#45;&gt;Node7</title>
<g id="a_edge8_Node000007_Node000007"><a xlink:title=" ">
<path fill="none" stroke="#63b8ff" d="M325.56,-83.54C315.6,-92.15 322.88,-101.25 347.38,-101.25 361.54,-101.25 369.95,-98.21 372.59,-93.98"/>
<polygon fill="#63b8ff" stroke="#63b8ff" points="375.62,-92.96 369.19,-84.54 368.96,-95.13 375.62,-92.96"/>
</a>
</g>
</g>
<!-- Node8 -->
<g id="Node000008" class="node">
<title>Node8</title>
<g id="a_Node000008"><a xlink:href="../../d3/d78/words__alphabetical_8c.html#a1e5ad8401396df36ab585d79f3309fd9" target="_top" xlink:title="Reserves memory for new node.">
<polygon fill="white" stroke="#666666" points="548,-120.25 425.5,-120.25 425.5,-101 548,-101 548,-120.25"/>
<text text-anchor="middle" x="486.75" y="-106.75" font-family="Helvetica,sans-Serif" font-size="10.00">allocateMemoryForNode</text>
</a>
</g>
</g>
<!-- Node7&#45;&gt;Node8 -->
<g id="edge9_Node000007_Node000008" class="edge">
<title>Node7&#45;&gt;Node8</title>
<g id="a_edge9_Node000007_Node000008"><a xlink:title=" ">
<path fill="none" stroke="#63b8ff" d="M385.91,-83.74C401.97,-88.06 420.9,-93.16 437.94,-97.75"/>
<polygon fill="#63b8ff" stroke="#63b8ff" points="436.69,-101.31 447.26,-100.53 438.51,-94.55 436.69,-101.31"/>
</a>
</g>
</g>
<!-- Node9 -->
<g id="Node000009" class="node">
<title>Node9</title>
<g id="a_Node000009"><a xlink:href="../../d3/d78/words__alphabetical_8c.html#a9e3cab68cf6557024f0073f674a307a1" target="_top" xlink:title="Stores word in memory.">
<polygon fill="white" stroke="#666666" points="533.38,-83.25 440.12,-83.25 440.12,-64 533.38,-64 533.38,-83.25"/>
<text text-anchor="middle" x="486.75" y="-69.75" font-family="Helvetica,sans-Serif" font-size="10.00">getPointerToWord</text>
</a>
</g>
</g>
<!-- Node7&#45;&gt;Node9 -->
<g id="edge11_Node000007_Node000009" class="edge">
<title>Node7&#45;&gt;Node9</title>
<g id="a_edge11_Node000007_Node000009"><a xlink:title=" ">
<path fill="none" stroke="#63b8ff" d="M389.96,-73.62C402.3,-73.62 416.03,-73.62 429.15,-73.62"/>
<polygon fill="#63b8ff" stroke="#63b8ff" points="428.99,-77.13 438.99,-73.62 428.99,-70.13 428.99,-77.13"/>
</a>
</g>
</g>
<!-- Node8&#45;&gt;Node4 -->
<g id="edge10_Node000008_Node000004" class="edge">
<title>Node8&#45;&gt;Node4</title>
<g id="a_edge10_Node000008_Node000004"><a xlink:title=" ">
<path fill="none" stroke="#63b8ff" d="M548.17,-110.62C556.26,-110.62 564.58,-110.62 572.71,-110.62"/>
<polygon fill="#63b8ff" stroke="#63b8ff" points="572.65,-114.13 582.65,-110.62 572.65,-107.13 572.65,-114.13"/>
</a>
</g>
</g>
<!-- Node9&#45;&gt;Node4 -->
<g id="edge12_Node000009_Node000004" class="edge">
<title>Node9&#45;&gt;Node4</title>
<g id="a_edge12_Node000009_Node000004"><a xlink:title=" ">
<path fill="none" stroke="#63b8ff" d="M528.06,-83.74C545.45,-88.1 566,-93.25 584.43,-97.88"/>
<polygon fill="#63b8ff" stroke="#63b8ff" points="583.44,-101.49 593.99,-100.53 585.15,-94.7 583.44,-101.49"/>
</a>
</g>
</g>
<!-- Node10&#45;&gt;Node10 -->
<g id="edge14_Node000010_Node000010" class="edge">
<title>Node10&#45;&gt;Node10</title>
<g id="a_edge14_Node000010_Node000010"><a xlink:title=" ">
<path fill="none" stroke="#63b8ff" d="M187.2,-19.54C178.9,-28.15 184.96,-37.25 205.38,-37.25 217.18,-37.25 224.18,-34.21 226.39,-29.98"/>
<polygon fill="#63b8ff" stroke="#63b8ff" points="229.55,-29.27 223.55,-20.54 222.8,-31.11 229.55,-29.27"/>
</a>
</g>
</g>
</g>
</svg>
