<?xml version="1.0" encoding="UTF-8" standalone="no"?>
<!DOCTYPE svg PUBLIC "-//W3C//DTD SVG 1.1//EN"
 "http://www.w3.org/Graphics/SVG/1.1/DTD/svg11.dtd">
<!-- Generated by graphviz version 3.0.0 (20220226.1711)
 -->
<!-- Title: test Pages: 1 -->
<svg width="626pt" height="175pt"
 viewBox="0.00 0.00 626.00 175.00" xmlns="http://www.w3.org/2000/svg" xmlns:xlink="http://www.w3.org/1999/xlink">
<g id="graph0" class="graph" transform="scale(1 1) rotate(0) translate(4 171)">
<title>test</title>
<polygon fill="white" stroke="transparent" points="-4,4 -4,-171 622,-171 622,4 -4,4"/>
<!-- Node1 -->
<g id="node1" class="node">
<title>Node1</title>
<g id="a_node1"><a xlink:title="Self&#45;test implementations.">
<polygon fill="#bfbfbf" stroke="black" points="0,-75.5 0,-94.5 33,-94.5 33,-75.5 0,-75.5"/>
<text text-anchor="middle" x="16.5" y="-82.5" font-family="Helvetica,sans-Serif" font-size="10.00">test</text>
</a>
</g>
</g>
<!-- Node2 -->
<g id="node2" class="node">
<title>Node2</title>
<g id="a_node2"><a xlink:href="../../d3/d78/words__alphabetical_8c.html#af1f9b6eb320d872ba0766dc8bd070075" target="_top" xlink:title="Closes the file after reading or writing.">
<polygon fill="white" stroke="black" points="247.5,-147.5 247.5,-166.5 303.5,-166.5 303.5,-147.5 247.5,-147.5"/>
<text text-anchor="middle" x="275.5" y="-154.5" font-family="Helvetica,sans-Serif" font-size="10.00">closeFile</text>
</a>
</g>
</g>
<!-- Node1&#45;&gt;Node2 -->
<g id="edge1" class="edge">
<title>Node1&#45;&gt;Node2</title>
<path fill="none" stroke="midnightblue" d="M23.04,-94.57C31.22,-107.66 47.85,-130.72 69,-141 122.96,-167.23 194.4,-165.97 237.26,-161.97"/>
<polygon fill="midnightblue" stroke="midnightblue" points="237.67,-165.45 247.26,-160.94 236.95,-158.48 237.67,-165.45"/>
</g>
<!-- Node4 -->
<g id="node4" class="node">
<title>Node4</title>
<g id="a_node4"><a xlink:href="../../d3/d78/words__alphabetical_8c.html#a840902ada0e956eb01b529be178748cc" target="_top" xlink:title="Frees memory when program is terminating.">
<polygon fill="white" stroke="black" points="89,-94.5 89,-113.5 177,-113.5 177,-94.5 89,-94.5"/>
<text text-anchor="middle" x="133" y="-101.5" font-family="Helvetica,sans-Serif" font-size="10.00">freeTreeMemory</text>
</a>
</g>
</g>
<!-- Node1&#45;&gt;Node4 -->
<g id="edge3" class="edge">
<title>Node1&#45;&gt;Node4</title>
<path fill="none" stroke="midnightblue" d="M33.42,-87.64C45.23,-89.6 62.05,-92.39 78.47,-95.12"/>
<polygon fill="midnightblue" stroke="midnightblue" points="78.15,-98.61 88.59,-96.8 79.3,-91.71 78.15,-98.61"/>
</g>
<!-- Node5 -->
<g id="node5" class="node">
<title>Node5</title>
<g id="a_node5"><a xlink:href="../../d3/d78/words__alphabetical_8c.html#a151b2c78ae821d0495faf936a1c2530f" target="_top" xlink:title="Reads words from file to tree.">
<polygon fill="white" stroke="black" points="74.5,-56.5 74.5,-75.5 191.5,-75.5 191.5,-56.5 74.5,-56.5"/>
<text text-anchor="middle" x="133" y="-63.5" font-family="Helvetica,sans-Serif" font-size="10.00">readWordsInFileToTree</text>
</a>
</g>
</g>
<!-- Node1&#45;&gt;Node5 -->
<g id="edge5" class="edge">
<title>Node1&#45;&gt;Node5</title>
<path fill="none" stroke="midnightblue" d="M33.42,-82.36C41.92,-80.95 53.02,-79.11 64.69,-77.17"/>
<polygon fill="midnightblue" stroke="midnightblue" points="65.3,-80.62 74.59,-75.53 64.15,-73.71 65.3,-80.62"/>
</g>
<!-- Node9 -->
<g id="node9" class="node">
<title>Node9</title>
<g id="a_node9"><a xlink:href="../../d3/d78/words__alphabetical_8c.html#a22516c70583c9fa78e4edffb063836cc" target="_top" xlink:title="Writes contents of tree to another file alphabetically.">
<polygon fill="white" stroke="black" points="69,-0.5 69,-19.5 197,-19.5 197,-0.5 69,-0.5"/>
<text text-anchor="middle" x="133" y="-7.5" font-family="Helvetica,sans-Serif" font-size="10.00">writeContentOfTreeToFile</text>
</a>
</g>
</g>
<!-- Node1&#45;&gt;Node9 -->
<g id="edge12" class="edge">
<title>Node1&#45;&gt;Node9</title>
<path fill="none" stroke="midnightblue" d="M29.94,-75.25C40.21,-67.34 55.27,-56.06 69,-47 80.86,-39.17 94.41,-31.11 105.89,-24.51"/>
<polygon fill="midnightblue" stroke="midnightblue" points="107.62,-27.56 114.59,-19.57 104.17,-21.47 107.62,-27.56"/>
</g>
<!-- Node3 -->
<g id="node3" class="node">
<title>Node3</title>
<g id="a_node3"><a xlink:href="../../d3/d78/words__alphabetical_8c.html#a5157a5b4e164f934602fa78413504029" target="_top" xlink:title="Ends program due to an error.">
<polygon fill="white" stroke="black" points="513,-103.5 513,-122.5 618,-122.5 618,-103.5 513,-103.5"/>
<text text-anchor="middle" x="565.5" y="-110.5" font-family="Helvetica,sans-Serif" font-size="10.00">endProgramAbruptly</text>
</a>
</g>
</g>
<!-- Node2&#45;&gt;Node3 -->
<g id="edge2" class="edge">
<title>Node2&#45;&gt;Node3</title>
<path fill="none" stroke="midnightblue" d="M303.53,-154.41C342.15,-150.53 415.28,-142.53 477,-132 489.09,-129.94 502.04,-127.34 514.17,-124.74"/>
<polygon fill="midnightblue" stroke="midnightblue" points="515.11,-128.11 524.13,-122.56 513.62,-121.28 515.11,-128.11"/>
</g>
<!-- Node4&#45;&gt;Node4 -->
<g id="edge4" class="edge">
<title>Node4&#45;&gt;Node4</title>
<path fill="none" stroke="midnightblue" d="M115.12,-113.76C106.42,-122.57 112.38,-132 133,-132 145.89,-132 153.05,-128.31 154.48,-123.4"/>
<polygon fill="midnightblue" stroke="midnightblue" points="157.66,-121.9 150.88,-113.76 151.1,-124.35 157.66,-121.9"/>
</g>
<!-- Node6 -->
<g id="node6" class="node">
<title>Node6</title>
<g id="a_node6"><a xlink:href="../../d3/d78/words__alphabetical_8c.html#a0ac11529daf94e98f7114a6e938679a9" target="_top" xlink:title="Adds word (node) to the correct position in tree.">
<polygon fill="white" stroke="black" points="233,-65.5 233,-84.5 318,-84.5 318,-65.5 233,-65.5"/>
<text text-anchor="middle" x="275.5" y="-72.5" font-family="Helvetica,sans-Serif" font-size="10.00">addWordToTree</text>
</a>
</g>
</g>
<!-- Node5&#45;&gt;Node6 -->
<g id="edge6" class="edge">
<title>Node5&#45;&gt;Node6</title>
<path fill="none" stroke="midnightblue" d="M191.55,-69.69C201.79,-70.34 212.4,-71.02 222.47,-71.67"/>
<polygon fill="midnightblue" stroke="midnightblue" points="222.53,-75.18 232.73,-72.32 222.98,-68.19 222.53,-75.18"/>
</g>
<!-- Node6&#45;&gt;Node6 -->
<g id="edge7" class="edge">
<title>Node6&#45;&gt;Node6</title>
<path fill="none" stroke="midnightblue" d="M253.92,-84.76C243.42,-93.57 250.62,-103 275.5,-103 291.44,-103 300.12,-99.13 301.54,-94.03"/>
<polygon fill="midnightblue" stroke="midnightblue" points="304.57,-92.25 297.08,-84.76 298.26,-95.29 304.57,-92.25"/>
</g>
<!-- Node7 -->
<g id="node7" class="node">
<title>Node7</title>
<g id="a_node7"><a xlink:href="../../d3/d78/words__alphabetical_8c.html#a1e5ad8401396df36ab585d79f3309fd9" target="_top" xlink:title="Reserves memory for new node.">
<polygon fill="white" stroke="black" points="354,-103.5 354,-122.5 477,-122.5 477,-103.5 354,-103.5"/>
<text text-anchor="middle" x="415.5" y="-110.5" font-family="Helvetica,sans-Serif" font-size="10.00">allocateMemoryForNode</text>
</a>
</g>
</g>
<!-- Node6&#45;&gt;Node7 -->
<g id="edge8" class="edge">
<title>Node6&#45;&gt;Node7</title>
<path fill="none" stroke="midnightblue" d="M311.32,-84.59C329.14,-89.49 351.02,-95.52 370.04,-100.76"/>
<polygon fill="midnightblue" stroke="midnightblue" points="369.12,-104.13 379.69,-103.41 370.98,-97.38 369.12,-104.13"/>
</g>
<!-- Node8 -->
<g id="node8" class="node">
<title>Node8</title>
<g id="a_node8"><a xlink:href="../../d3/d78/words__alphabetical_8c.html#a9e3cab68cf6557024f0073f674a307a1" target="_top" xlink:title="Stores word in memory.">
<polygon fill="white" stroke="black" points="368.5,-65.5 368.5,-84.5 462.5,-84.5 462.5,-65.5 368.5,-65.5"/>
<text text-anchor="middle" x="415.5" y="-72.5" font-family="Helvetica,sans-Serif" font-size="10.00">getPointerToWord</text>
</a>
</g>
</g>
<!-- Node6&#45;&gt;Node8 -->
<g id="edge10" class="edge">
<title>Node6&#45;&gt;Node8</title>
<path fill="none" stroke="midnightblue" d="M318.28,-75C330.8,-75 344.74,-75 358.03,-75"/>
<polygon fill="midnightblue" stroke="midnightblue" points="358.04,-78.5 368.04,-75 358.04,-71.5 358.04,-78.5"/>
</g>
<!-- Node7&#45;&gt;Node3 -->
<g id="edge9" class="edge">
<title>Node7&#45;&gt;Node3</title>
<path fill="none" stroke="midnightblue" d="M477.12,-113C485.52,-113 494.16,-113 502.58,-113"/>
<polygon fill="midnightblue" stroke="midnightblue" points="502.72,-116.5 512.72,-113 502.72,-109.5 502.72,-116.5"/>
</g>
<!-- Node8&#45;&gt;Node3 -->
<g id="edge11" class="edge">
<title>Node8&#45;&gt;Node3</title>
<path fill="none" stroke="midnightblue" d="M453.85,-84.59C473.2,-89.56 497.03,-95.68 517.61,-100.96"/>
<polygon fill="midnightblue" stroke="midnightblue" points="516.87,-104.38 527.42,-103.48 518.61,-97.6 516.87,-104.38"/>
</g>
<!-- Node9&#45;&gt;Node9 -->
<g id="edge13" class="edge">
<title>Node9&#45;&gt;Node9</title>
<path fill="none" stroke="midnightblue" d="M115.12,-19.76C106.42,-28.57 112.38,-38 133,-38 145.89,-38 153.05,-34.31 154.48,-29.4"/>
<polygon fill="midnightblue" stroke="midnightblue" points="157.66,-27.9 150.88,-19.76 151.1,-30.35 157.66,-27.9"/>
</g>
</g>
</svg>
