<?xml version="1.0" encoding="UTF-8" standalone="no"?>
<!DOCTYPE svg PUBLIC "-//W3C//DTD SVG 1.1//EN"
 "http://www.w3.org/Graphics/SVG/1.1/DTD/svg11.dtd">
<!-- Generated by graphviz version 8.0.2 (20230410.1723)
 -->
<!-- Title: test Pages: 1 -->
<svg width="626pt" height="172pt"
 viewBox="0.00 0.00 626.00 172.00" xmlns="http://www.w3.org/2000/svg" xmlns:xlink="http://www.w3.org/1999/xlink">
<g id="graph0" class="graph" transform="scale(1 1) rotate(0) translate(4 168)">
<title>test</title>
<!-- Node1 -->
<g id="node1" class="node">
<title>Node1</title>
<g id="a_node1"><a xlink:title="Self&#45;test implementations.">
<polygon fill="#999999" stroke="#666666" points="33,-92 0,-92 0,-73 33,-73 33,-92"/>
<text text-anchor="middle" x="16.5" y="-80" font-family="Helvetica,sans-Serif" font-size="10.00">test</text>
</a>
</g>
</g>
<!-- Node2 -->
<g id="node2" class="node">
<title>Node2</title>
<g id="a_node2"><a xlink:href="../../d3/d78/words__alphabetical_8c.html#af1f9b6eb320d872ba0766dc8bd070075" target="_top" xlink:title="Closes the file after reading or writing.">
<polygon fill="white" stroke="#666666" points="303.5,-164 247.5,-164 247.5,-145 303.5,-145 303.5,-164"/>
<text text-anchor="middle" x="275.5" y="-152" font-family="Helvetica,sans-Serif" font-size="10.00">closeFile</text>
</a>
</g>
</g>
<!-- Node1&#45;&gt;Node2 -->
<g id="edge1" class="edge">
<title>Node1&#45;&gt;Node2</title>
<path fill="none" stroke="#63b8ff" d="M23.04,-92.07C31.22,-105.16 47.85,-128.22 69,-138.5 122.62,-164.57 193.49,-163.48 236.45,-159.54"/>
<polygon fill="#63b8ff" stroke="#63b8ff" points="236.67,-162.94 246.26,-158.44 235.96,-155.97 236.67,-162.94"/>
</g>
<!-- Node4 -->
<g id="node4" class="node">
<title>Node4</title>
<g id="a_node4"><a xlink:href="../../d3/d78/words__alphabetical_8c.html#a840902ada0e956eb01b529be178748cc" target="_top" xlink:title="Frees memory when program is terminating.">
<polygon fill="white" stroke="#666666" points="177,-111 89,-111 89,-92 177,-92 177,-111"/>
<text text-anchor="middle" x="133" y="-99" font-family="Helvetica,sans-Serif" font-size="10.00">freeTreeMemory</text>
</a>
</g>
</g>
<!-- Node1&#45;&gt;Node4 -->
<g id="edge3" class="edge">
<title>Node1&#45;&gt;Node4</title>
<path fill="none" stroke="#63b8ff" d="M33.42,-85.14C45.12,-87.08 61.74,-89.84 78,-92.54"/>
<polygon fill="#63b8ff" stroke="#63b8ff" points="77.15,-96.11 87.59,-94.3 78.3,-89.21 77.15,-96.11"/>
</g>
<!-- Node5 -->
<g id="node5" class="node">
<title>Node5</title>
<g id="a_node5"><a xlink:href="../../d3/d78/words__alphabetical_8c.html#a151b2c78ae821d0495faf936a1c2530f" target="_top" xlink:title="Reads words from file to tree.">
<polygon fill="white" stroke="#666666" points="191.5,-74 74.5,-74 74.5,-55 191.5,-55 191.5,-74"/>
<text text-anchor="middle" x="133" y="-62" font-family="Helvetica,sans-Serif" font-size="10.00">readWordsInFileToTree</text>
</a>
</g>
</g>
<!-- Node1&#45;&gt;Node5 -->
<g id="edge5" class="edge">
<title>Node1&#45;&gt;Node5</title>
<path fill="none" stroke="#63b8ff" d="M33.42,-80C41.57,-78.72 52.11,-77.06 63.26,-75.31"/>
<polygon fill="#63b8ff" stroke="#63b8ff" points="63.74,-78.62 73.07,-73.61 62.65,-71.7 63.74,-78.62"/>
</g>
<!-- Node9 -->
<g id="node9" class="node">
<title>Node9</title>
<g id="a_node9"><a xlink:href="../../d3/d78/words__alphabetical_8c.html#a22516c70583c9fa78e4edffb063836cc" target="_top" xlink:title="Writes contents of tree to another file alphabetically.">
<polygon fill="white" stroke="#666666" points="197,-19 69,-19 69,0 197,0 197,-19"/>
<text text-anchor="middle" x="133" y="-7" font-family="Helvetica,sans-Serif" font-size="10.00">writeContentOfTreeToFile</text>
</a>
</g>
</g>
<!-- Node1&#45;&gt;Node9 -->
<g id="edge12" class="edge">
<title>Node1&#45;&gt;Node9</title>
<path fill="none" stroke="#63b8ff" d="M30.36,-72.69C40.63,-65 55.48,-54.19 69,-45.5 80.2,-38.31 92.88,-30.92 103.92,-24.72"/>
<polygon fill="#63b8ff" stroke="#63b8ff" points="105.46,-27.32 112.51,-19.41 102.06,-21.2 105.46,-27.32"/>
</g>
<!-- Node3 -->
<g id="node3" class="node">
<title>Node3</title>
<g id="a_node3"><a xlink:href="../../d3/d78/words__alphabetical_8c.html#a5157a5b4e164f934602fa78413504029" target="_top" xlink:title="Ends program due to an error.">
<polygon fill="white" stroke="#666666" points="618,-120 513,-120 513,-101 618,-101 618,-120"/>
<text text-anchor="middle" x="565.5" y="-108" font-family="Helvetica,sans-Serif" font-size="10.00">endProgramAbruptly</text>
</a>
</g>
</g>
<!-- Node2&#45;&gt;Node3 -->
<g id="edge2" class="edge">
<title>Node2&#45;&gt;Node3</title>
<path fill="none" stroke="#63b8ff" d="M303.86,-151.88C342.56,-147.98 415.45,-140 477,-129.5 488.26,-127.58 500.27,-125.19 511.67,-122.77"/>
<polygon fill="#63b8ff" stroke="#63b8ff" points="512.34,-125.99 521.37,-120.45 510.85,-119.15 512.34,-125.99"/>
</g>
<!-- Node4&#45;&gt;Node4 -->
<g id="edge4" class="edge">
<title>Node4&#45;&gt;Node4</title>
<path fill="none" stroke="#63b8ff" d="M114.76,-111.37C106.44,-119.94 112.52,-129 133,-129 144.84,-129 151.87,-125.97 154.08,-121.76"/>
<polygon fill="#63b8ff" stroke="#63b8ff" points="157.25,-121.09 151.24,-112.37 150.5,-122.94 157.25,-121.09"/>
</g>
<!-- Node6 -->
<g id="node6" class="node">
<title>Node6</title>
<g id="a_node6"><a xlink:href="../../d3/d78/words__alphabetical_8c.html#a0ac11529daf94e98f7114a6e938679a9" target="_top" xlink:title="Adds word (node) to the correct position in tree.">
<polygon fill="white" stroke="#666666" points="318,-83 233,-83 233,-64 318,-64 318,-83"/>
<text text-anchor="middle" x="275.5" y="-71" font-family="Helvetica,sans-Serif" font-size="10.00">addWordToTree</text>
</a>
</g>
</g>
<!-- Node5&#45;&gt;Node6 -->
<g id="edge6" class="edge">
<title>Node5&#45;&gt;Node6</title>
<path fill="none" stroke="#63b8ff" d="M191.96,-68.21C201.84,-68.85 212.06,-69.5 221.8,-70.12"/>
<polygon fill="#63b8ff" stroke="#63b8ff" points="221.35,-73.67 231.55,-70.81 221.8,-66.68 221.35,-73.67"/>
</g>
<!-- Node6&#45;&gt;Node6 -->
<g id="edge7" class="edge">
<title>Node6&#45;&gt;Node6</title>
<path fill="none" stroke="#63b8ff" d="M253.58,-83.37C243.58,-91.94 250.89,-101 275.5,-101 289.73,-101 298.17,-97.97 300.83,-93.76"/>
<polygon fill="#63b8ff" stroke="#63b8ff" points="303.86,-92.78 297.42,-84.37 297.21,-94.96 303.86,-92.78"/>
</g>
<!-- Node7 -->
<g id="node7" class="node">
<title>Node7</title>
<g id="a_node7"><a xlink:href="../../d3/d78/words__alphabetical_8c.html#a1e5ad8401396df36ab585d79f3309fd9" target="_top" xlink:title="Reserves memory for new node.">
<polygon fill="white" stroke="#666666" points="477,-120 354,-120 354,-101 477,-101 477,-120"/>
<text text-anchor="middle" x="415.5" y="-108" font-family="Helvetica,sans-Serif" font-size="10.00">allocateMemoryForNode</text>
</a>
</g>
</g>
<!-- Node6&#45;&gt;Node7 -->
<g id="edge8" class="edge">
<title>Node6&#45;&gt;Node7</title>
<path fill="none" stroke="#63b8ff" d="M313.48,-83.42C329.88,-87.81 349.37,-93.04 366.85,-97.72"/>
<polygon fill="#63b8ff" stroke="#63b8ff" points="365.85,-101.35 376.42,-100.56 367.66,-94.59 365.85,-101.35"/>
</g>
<!-- Node8 -->
<g id="node8" class="node">
<title>Node8</title>
<g id="a_node8"><a xlink:href="../../d3/d78/words__alphabetical_8c.html#a9e3cab68cf6557024f0073f674a307a1" target="_top" xlink:title="Stores word in memory.">
<polygon fill="white" stroke="#666666" points="462.5,-83 368.5,-83 368.5,-64 462.5,-64 462.5,-83"/>
<text text-anchor="middle" x="415.5" y="-71" font-family="Helvetica,sans-Serif" font-size="10.00">getPointerToWord</text>
</a>
</g>
</g>
<!-- Node6&#45;&gt;Node8 -->
<g id="edge10" class="edge">
<title>Node6&#45;&gt;Node8</title>
<path fill="none" stroke="#63b8ff" d="M318.28,-73.5C330.55,-73.5 344.19,-73.5 357.25,-73.5"/>
<polygon fill="#63b8ff" stroke="#63b8ff" points="357.04,-77 367.04,-73.5 357.04,-70 357.04,-77"/>
</g>
<!-- Node7&#45;&gt;Node3 -->
<g id="edge9" class="edge">
<title>Node7&#45;&gt;Node3</title>
<path fill="none" stroke="#63b8ff" d="M477.12,-110.5C485.25,-110.5 493.59,-110.5 501.75,-110.5"/>
<polygon fill="#63b8ff" stroke="#63b8ff" points="501.72,-114 511.72,-110.5 501.72,-107 501.72,-114"/>
</g>
<!-- Node8&#45;&gt;Node3 -->
<g id="edge11" class="edge">
<title>Node8&#45;&gt;Node3</title>
<path fill="none" stroke="#63b8ff" d="M456.16,-83.42C474,-87.87 495.25,-93.19 514.19,-97.92"/>
<polygon fill="#63b8ff" stroke="#63b8ff" points="513.18,-101.53 523.73,-100.56 514.88,-94.74 513.18,-101.53"/>
</g>
<!-- Node9&#45;&gt;Node9 -->
<g id="edge13" class="edge">
<title>Node9&#45;&gt;Node9</title>
<path fill="none" stroke="#63b8ff" d="M114.76,-19.37C106.44,-27.94 112.52,-37 133,-37 144.84,-37 151.87,-33.97 154.08,-29.76"/>
<polygon fill="#63b8ff" stroke="#63b8ff" points="157.25,-29.09 151.24,-20.37 150.5,-30.94 157.25,-29.09"/>
</g>
</g>
</svg>
