<?xml version="1.0" encoding="UTF-8" standalone="no"?>
<!DOCTYPE svg PUBLIC "-//W3C//DTD SVG 1.1//EN"
 "http://www.w3.org/Graphics/SVG/1.1/DTD/svg11.dtd">
<!-- Generated by graphviz version 9.0.0 (20230911.1827)
 -->
<!-- Title: test Pages: 1 -->
<svg width="624pt" height="172pt"
 viewBox="0.00 0.00 623.50 172.25" xmlns="http://www.w3.org/2000/svg" xmlns:xlink="http://www.w3.org/1999/xlink">
<g id="graph0" class="graph" transform="scale(1 1) rotate(0) translate(4 168.25)">
<title>test</title>
<!-- Node1 -->
<g id="Node000001" class="node">
<title>Node1</title>
<g id="a_Node000001"><a xlink:title="Self&#45;test implementations.">
<polygon fill="#999999" stroke="#666666" points="32.5,-92.25 0,-92.25 0,-73 32.5,-73 32.5,-92.25"/>
<text text-anchor="middle" x="16.25" y="-78.75" font-family="Helvetica,sans-Serif" font-size="10.00">test</text>
</a>
</g>
</g>
<!-- Node2 -->
<g id="Node000002" class="node">
<title>Node2</title>
<g id="a_Node000002"><a xlink:href="../../d3/d78/words__alphabetical_8c.html#af1f9b6eb320d872ba0766dc8bd070075" target="_top" xlink:title="Closes the file after reading or writing.">
<polygon fill="white" stroke="#666666" points="301.88,-164.25 246.88,-164.25 246.88,-145 301.88,-145 301.88,-164.25"/>
<text text-anchor="middle" x="274.38" y="-150.75" font-family="Helvetica,sans-Serif" font-size="10.00">closeFile</text>
</a>
</g>
</g>
<!-- Node1&#45;&gt;Node2 -->
<g id="edge1_Node000001_Node000002" class="edge">
<title>Node1&#45;&gt;Node2</title>
<g id="a_edge1_Node000001_Node000002"><a xlink:title=" ">
<path fill="none" stroke="#63b8ff" d="M23.03,-92.63C31.25,-105.8 47.65,-128.46 68.5,-138.62 121.84,-164.64 192.38,-163.6 235.23,-159.68"/>
<polygon fill="#63b8ff" stroke="#63b8ff" points="235.45,-163.18 245.04,-158.68 234.73,-156.22 235.45,-163.18"/>
</a>
</g>
</g>
<!-- Node4 -->
<g id="Node000004" class="node">
<title>Node4</title>
<g id="a_Node000004"><a xlink:href="../../d3/d78/words__alphabetical_8c.html#a840902ada0e956eb01b529be178748cc" target="_top" xlink:title="Frees memory when program is terminating.">
<polygon fill="white" stroke="#666666" points="176,-111.25 88.75,-111.25 88.75,-92 176,-92 176,-111.25"/>
<text text-anchor="middle" x="132.38" y="-97.75" font-family="Helvetica,sans-Serif" font-size="10.00">freeTreeMemory</text>
</a>
</g>
</g>
<!-- Node1&#45;&gt;Node4 -->
<g id="edge3_Node000001_Node000004" class="edge">
<title>Node1&#45;&gt;Node4</title>
<g id="a_edge3_Node000001_Node000004"><a xlink:title=" ">
<path fill="none" stroke="#63b8ff" d="M32.64,-85.19C44.21,-87.11 60.8,-89.88 77.09,-92.59"/>
<polygon fill="#63b8ff" stroke="#63b8ff" points="76.32,-96.01 86.76,-94.2 77.47,-89.1 76.32,-96.01"/>
</a>
</g>
</g>
<!-- Node5 -->
<g id="Node000005" class="node">
<title>Node5</title>
<g id="a_Node000005"><a xlink:href="../../d3/d78/words__alphabetical_8c.html#a151b2c78ae821d0495faf936a1c2530f" target="_top" xlink:title="Reads words from file to tree.">
<polygon fill="white" stroke="#666666" points="190.62,-74.25 74.12,-74.25 74.12,-55 190.62,-55 190.62,-74.25"/>
<text text-anchor="middle" x="132.38" y="-60.75" font-family="Helvetica,sans-Serif" font-size="10.00">readWordsInFileToTree</text>
</a>
</g>
</g>
<!-- Node1&#45;&gt;Node5 -->
<g id="edge5_Node000001_Node000005" class="edge">
<title>Node1&#45;&gt;Node5</title>
<g id="a_edge5_Node000001_Node000005"><a xlink:title=" ">
<path fill="none" stroke="#63b8ff" d="M32.64,-80.2C40.72,-78.92 51.24,-77.26 62.41,-75.5"/>
<polygon fill="#63b8ff" stroke="#63b8ff" points="62.89,-78.97 72.22,-73.96 61.79,-72.06 62.89,-78.97"/>
</a>
</g>
</g>
<!-- Node9 -->
<g id="Node000009" class="node">
<title>Node9</title>
<g id="a_Node000009"><a xlink:href="../../d3/d78/words__alphabetical_8c.html#a22516c70583c9fa78e4edffb063836cc" target="_top" xlink:title="Writes contents of tree to another file alphabetically.">
<polygon fill="white" stroke="#666666" points="196.25,-19.25 68.5,-19.25 68.5,0 196.25,0 196.25,-19.25"/>
<text text-anchor="middle" x="132.38" y="-5.75" font-family="Helvetica,sans-Serif" font-size="10.00">writeContentOfTreeToFile</text>
</a>
</g>
</g>
<!-- Node1&#45;&gt;Node9 -->
<g id="edge12_Node000001_Node000009" class="edge">
<title>Node1&#45;&gt;Node9</title>
<g id="a_edge12_Node000001_Node000009"><a xlink:title=" ">
<path fill="none" stroke="#63b8ff" d="M30.05,-72.81C40.26,-65.12 55.03,-54.31 68.5,-45.62 79.48,-38.55 91.89,-31.29 102.77,-25.16"/>
<polygon fill="#63b8ff" stroke="#63b8ff" points="104.28,-28.33 111.31,-20.41 100.87,-22.21 104.28,-28.33"/>
</a>
</g>
</g>
<!-- Node3 -->
<g id="Node000003" class="node">
<title>Node3</title>
<g id="a_Node000003"><a xlink:href="../../d3/d78/words__alphabetical_8c.html#a5157a5b4e164f934602fa78413504029" target="_top" xlink:title="Ends program due to an error.">
<polygon fill="white" stroke="#666666" points="615.5,-120.25 511,-120.25 511,-101 615.5,-101 615.5,-120.25"/>
<text text-anchor="middle" x="563.25" y="-106.75" font-family="Helvetica,sans-Serif" font-size="10.00">endProgramAbruptly</text>
</a>
</g>
</g>
<!-- Node2&#45;&gt;Node3 -->
<g id="edge2_Node000002_Node000003" class="edge">
<title>Node2&#45;&gt;Node3</title>
<g id="a_edge2_Node000002_Node000003"><a xlink:title=" ">
<path fill="none" stroke="#63b8ff" d="M302.29,-152.03C340.74,-148.15 413.55,-140.14 475,-129.62 486,-127.74 497.72,-125.42 508.87,-123.04"/>
<polygon fill="#63b8ff" stroke="#63b8ff" points="509.29,-126.54 518.32,-120.99 507.8,-119.69 509.29,-126.54"/>
</a>
</g>
</g>
<!-- Node4&#45;&gt;Node4 -->
<g id="edge4_Node000004_Node000004" class="edge">
<title>Node4&#45;&gt;Node4</title>
<g id="a_edge4_Node000004_Node000004"><a xlink:title=" ">
<path fill="none" stroke="#63b8ff" d="M114.2,-111.54C105.9,-120.15 111.96,-129.25 132.38,-129.25 143.54,-129.25 150.41,-126.53 152.99,-122.65"/>
<polygon fill="#63b8ff" stroke="#63b8ff" points="156.44,-122.04 150.88,-113.02 149.6,-123.53 156.44,-122.04"/>
</a>
</g>
</g>
<!-- Node6 -->
<g id="Node000006" class="node">
<title>Node6</title>
<g id="a_Node000006"><a xlink:href="../../d3/d78/words__alphabetical_8c.html#a0ac11529daf94e98f7114a6e938679a9" target="_top" xlink:title="Adds word (node) to the correct position in tree.">
<polygon fill="white" stroke="#666666" points="316.5,-83.25 232.25,-83.25 232.25,-64 316.5,-64 316.5,-83.25"/>
<text text-anchor="middle" x="274.38" y="-69.75" font-family="Helvetica,sans-Serif" font-size="10.00">addWordToTree</text>
</a>
</g>
</g>
<!-- Node5&#45;&gt;Node6 -->
<g id="edge6_Node000005_Node000006" class="edge">
<title>Node5&#45;&gt;Node6</title>
<g id="a_edge6_Node000005_Node000006"><a xlink:title=" ">
<path fill="none" stroke="#63b8ff" d="M190.72,-68.31C200.6,-68.95 210.83,-69.6 220.58,-70.23"/>
<polygon fill="#63b8ff" stroke="#63b8ff" points="220.04,-73.7 230.25,-70.85 220.49,-66.72 220.04,-73.7"/>
</a>
</g>
</g>
<!-- Node6&#45;&gt;Node6 -->
<g id="edge7_Node000006_Node000006" class="edge">
<title>Node6&#45;&gt;Node6</title>
<g id="a_edge7_Node000006_Node000006"><a xlink:title=" ">
<path fill="none" stroke="#63b8ff" d="M252.56,-83.54C242.6,-92.15 249.88,-101.25 274.38,-101.25 287.77,-101.25 296.02,-98.53 299.11,-94.65"/>
<polygon fill="#63b8ff" stroke="#63b8ff" points="302.51,-93.78 296.58,-85 295.73,-95.56 302.51,-93.78"/>
</a>
</g>
</g>
<!-- Node7 -->
<g id="Node000007" class="node">
<title>Node7</title>
<g id="a_Node000007"><a xlink:href="../../d3/d78/words__alphabetical_8c.html#a1e5ad8401396df36ab585d79f3309fd9" target="_top" xlink:title="Reserves memory for new node.">
<polygon fill="white" stroke="#666666" points="475,-120.25 352.5,-120.25 352.5,-101 475,-101 475,-120.25"/>
<text text-anchor="middle" x="413.75" y="-106.75" font-family="Helvetica,sans-Serif" font-size="10.00">allocateMemoryForNode</text>
</a>
</g>
</g>
<!-- Node6&#45;&gt;Node7 -->
<g id="edge8_Node000006_Node000007" class="edge">
<title>Node6&#45;&gt;Node7</title>
<g id="a_edge8_Node000006_Node000007"><a xlink:title=" ">
<path fill="none" stroke="#63b8ff" d="M312.91,-83.74C328.81,-88.02 347.54,-93.06 364.45,-97.62"/>
<polygon fill="#63b8ff" stroke="#63b8ff" points="363.23,-100.91 373.8,-100.13 365.05,-94.15 363.23,-100.91"/>
</a>
</g>
</g>
<!-- Node8 -->
<g id="Node000008" class="node">
<title>Node8</title>
<g id="a_Node000008"><a xlink:href="../../d3/d78/words__alphabetical_8c.html#a9e3cab68cf6557024f0073f674a307a1" target="_top" xlink:title="Stores word in memory.">
<polygon fill="white" stroke="#666666" points="460.38,-83.25 367.12,-83.25 367.12,-64 460.38,-64 460.38,-83.25"/>
<text text-anchor="middle" x="413.75" y="-69.75" font-family="Helvetica,sans-Serif" font-size="10.00">getPointerToWord</text>
</a>
</g>
</g>
<!-- Node6&#45;&gt;Node8 -->
<g id="edge10_Node000006_Node000008" class="edge">
<title>Node6&#45;&gt;Node8</title>
<g id="a_edge10_Node000006_Node000008"><a xlink:title=" ">
<path fill="none" stroke="#63b8ff" d="M316.96,-73.62C329.18,-73.62 342.76,-73.62 355.76,-73.62"/>
<polygon fill="#63b8ff" stroke="#63b8ff" points="355.47,-77.13 365.47,-73.63 355.47,-70.13 355.47,-77.13"/>
</a>
</g>
</g>
<!-- Node7&#45;&gt;Node3 -->
<g id="edge9_Node000007_Node000003" class="edge">
<title>Node7&#45;&gt;Node3</title>
<g id="a_edge9_Node000007_Node000003"><a xlink:title=" ">
<path fill="none" stroke="#63b8ff" d="M475.17,-110.62C483.08,-110.62 491.2,-110.62 499.16,-110.62"/>
<polygon fill="#63b8ff" stroke="#63b8ff" points="499.13,-114.13 509.13,-110.63 499.13,-107.13 499.13,-114.13"/>
</a>
</g>
</g>
<!-- Node8&#45;&gt;Node3 -->
<g id="edge11_Node000008_Node000003" class="edge">
<title>Node8&#45;&gt;Node3</title>
<g id="a_edge11_Node000008_Node000003"><a xlink:title=" ">
<path fill="none" stroke="#63b8ff" d="M455.06,-83.74C472.29,-88.06 492.62,-93.16 510.91,-97.75"/>
<polygon fill="#63b8ff" stroke="#63b8ff" points="509.97,-101.12 520.53,-100.16 511.68,-94.33 509.97,-101.12"/>
</a>
</g>
</g>
<!-- Node9&#45;&gt;Node9 -->
<g id="edge13_Node000009_Node000009" class="edge">
<title>Node9&#45;&gt;Node9</title>
<g id="a_edge13_Node000009_Node000009"><a xlink:title=" ">
<path fill="none" stroke="#63b8ff" d="M114.2,-19.54C105.9,-28.15 111.96,-37.25 132.38,-37.25 143.54,-37.25 150.41,-34.53 152.99,-30.65"/>
<polygon fill="#63b8ff" stroke="#63b8ff" points="156.44,-30.04 150.88,-21.02 149.6,-31.53 156.44,-30.04"/>
</a>
</g>
</g>
</g>
</svg>
