<?xml version="1.0" encoding="UTF-8" standalone="no"?>
<!DOCTYPE svg PUBLIC "-//W3C//DTD SVG 1.1//EN"
 "http://www.w3.org/Graphics/SVG/1.1/DTD/svg11.dtd">
<!-- Generated by graphviz version 6.0.1 (20220911.1526)
 -->
<!-- Title: main Pages: 1 -->
<svg width="700pt" height="172pt"
 viewBox="0.00 0.00 700.00 172.00" xmlns="http://www.w3.org/2000/svg" xmlns:xlink="http://www.w3.org/1999/xlink">
<g id="graph0" class="graph" transform="scale(1 1) rotate(0) translate(4 168)">
<title>main</title>
<!-- Node1 -->
<g id="node1" class="node">
<title>Node1</title>
<g id="a_node1"><a xlink:title="Main function.">
<polygon fill="#999999" stroke="#666666" points="38,-92 0,-92 0,-73 38,-73 38,-92"/>
<text text-anchor="middle" x="19" y="-80" font-family="Helvetica,sans-Serif" font-size="10.00">main</text>
</a>
</g>
</g>
<!-- Node2 -->
<g id="node2" class="node">
<title>Node2</title>
<g id="a_node2"><a xlink:href="../../d3/d78/words__alphabetical_8c.html#aa8dca7b867074164d5f45b0f3851269d" target="_top" xlink:title="Self&#45;test implementations.">
<polygon fill="white" stroke="#666666" points="107,-92 74,-92 74,-73 107,-73 107,-92"/>
<text text-anchor="middle" x="90.5" y="-80" font-family="Helvetica,sans-Serif" font-size="10.00">test</text>
</a>
</g>
</g>
<!-- Node1&#45;&gt;Node2 -->
<g id="edge1" class="edge">
<title>Node1&#45;&gt;Node2</title>
<path fill="none" stroke="#63b8ff" d="M38.26,-82.5C46.07,-82.5 55.31,-82.5 63.79,-82.5"/>
<polygon fill="#63b8ff" stroke="#63b8ff" points="63.95,-86 73.95,-82.5 63.95,-79 63.95,-86"/>
</g>
<!-- Node3 -->
<g id="node3" class="node">
<title>Node3</title>
<g id="a_node3"><a xlink:href="../../d3/d78/words__alphabetical_8c.html#af1f9b6eb320d872ba0766dc8bd070075" target="_top" xlink:title="Closes the file after reading or writing.">
<polygon fill="white" stroke="#666666" points="377.5,-164 321.5,-164 321.5,-145 377.5,-145 377.5,-164"/>
<text text-anchor="middle" x="349.5" y="-152" font-family="Helvetica,sans-Serif" font-size="10.00">closeFile</text>
</a>
</g>
</g>
<!-- Node2&#45;&gt;Node3 -->
<g id="edge2" class="edge">
<title>Node2&#45;&gt;Node3</title>
<path fill="none" stroke="#63b8ff" d="M97.04,-92.07C105.22,-105.16 121.85,-128.22 143,-138.5 196.96,-164.73 268.4,-163.47 311.26,-159.47"/>
<polygon fill="#63b8ff" stroke="#63b8ff" points="311.67,-162.95 321.26,-158.44 310.95,-155.98 311.67,-162.95"/>
</g>
<!-- Node5 -->
<g id="node5" class="node">
<title>Node5</title>
<g id="a_node5"><a xlink:href="../../d3/d78/words__alphabetical_8c.html#a840902ada0e956eb01b529be178748cc" target="_top" xlink:title="Frees memory when program is terminating.">
<polygon fill="white" stroke="#666666" points="251,-111 163,-111 163,-92 251,-92 251,-111"/>
<text text-anchor="middle" x="207" y="-99" font-family="Helvetica,sans-Serif" font-size="10.00">freeTreeMemory</text>
</a>
</g>
</g>
<!-- Node2&#45;&gt;Node5 -->
<g id="edge4" class="edge">
<title>Node2&#45;&gt;Node5</title>
<path fill="none" stroke="#63b8ff" d="M107.42,-85.14C119.23,-87.1 136.05,-89.89 152.47,-92.62"/>
<polygon fill="#63b8ff" stroke="#63b8ff" points="152.15,-96.11 162.59,-94.3 153.3,-89.21 152.15,-96.11"/>
</g>
<!-- Node6 -->
<g id="node6" class="node">
<title>Node6</title>
<g id="a_node6"><a xlink:href="../../d3/d78/words__alphabetical_8c.html#a151b2c78ae821d0495faf936a1c2530f" target="_top" xlink:title="Reads words from file to tree.">
<polygon fill="white" stroke="#666666" points="265.5,-74 148.5,-74 148.5,-55 265.5,-55 265.5,-74"/>
<text text-anchor="middle" x="207" y="-62" font-family="Helvetica,sans-Serif" font-size="10.00">readWordsInFileToTree</text>
</a>
</g>
</g>
<!-- Node2&#45;&gt;Node6 -->
<g id="edge6" class="edge">
<title>Node2&#45;&gt;Node6</title>
<path fill="none" stroke="#63b8ff" d="M107.42,-80C115.79,-78.68 126.67,-76.97 138.14,-75.17"/>
<polygon fill="#63b8ff" stroke="#63b8ff" points="139,-78.58 148.33,-73.57 137.91,-71.66 139,-78.58"/>
</g>
<!-- Node10 -->
<g id="node10" class="node">
<title>Node10</title>
<g id="a_node10"><a xlink:href="../../d3/d78/words__alphabetical_8c.html#a22516c70583c9fa78e4edffb063836cc" target="_top" xlink:title="Writes contents of tree to another file alphabetically.">
<polygon fill="white" stroke="#666666" points="271,-19 143,-19 143,0 271,0 271,-19"/>
<text text-anchor="middle" x="207" y="-7" font-family="Helvetica,sans-Serif" font-size="10.00">writeContentOfTreeToFile</text>
</a>
</g>
</g>
<!-- Node2&#45;&gt;Node10 -->
<g id="edge13" class="edge">
<title>Node2&#45;&gt;Node10</title>
<path fill="none" stroke="#63b8ff" d="M104.36,-72.69C114.63,-65 129.48,-54.19 143,-45.5 154.59,-38.05 167.78,-30.4 179.08,-24.07"/>
<polygon fill="#63b8ff" stroke="#63b8ff" points="181,-27.01 188.06,-19.1 177.61,-20.88 181,-27.01"/>
</g>
<!-- Node4 -->
<g id="node4" class="node">
<title>Node4</title>
<g id="a_node4"><a xlink:href="../../d3/d78/words__alphabetical_8c.html#a5157a5b4e164f934602fa78413504029" target="_top" xlink:title="Ends program due to an error.">
<polygon fill="white" stroke="#666666" points="692,-120 587,-120 587,-101 692,-101 692,-120"/>
<text text-anchor="middle" x="639.5" y="-108" font-family="Helvetica,sans-Serif" font-size="10.00">endProgramAbruptly</text>
</a>
</g>
</g>
<!-- Node3&#45;&gt;Node4 -->
<g id="edge3" class="edge">
<title>Node3&#45;&gt;Node4</title>
<path fill="none" stroke="#63b8ff" d="M377.53,-151.91C416.15,-148.03 489.28,-140.03 551,-129.5 563.09,-127.44 576.04,-124.84 588.17,-122.24"/>
<polygon fill="#63b8ff" stroke="#63b8ff" points="589.11,-125.61 598.13,-120.06 587.62,-118.78 589.11,-125.61"/>
</g>
<!-- Node5&#45;&gt;Node5 -->
<g id="edge5" class="edge">
<title>Node5&#45;&gt;Node5</title>
<path fill="none" stroke="#63b8ff" d="M189.04,-111.08C180.31,-119.73 186.29,-129 207,-129 219.94,-129 227.13,-125.38 228.57,-120.55"/>
<polygon fill="#63b8ff" stroke="#63b8ff" points="231.79,-119.18 224.96,-111.08 225.25,-121.67 231.79,-119.18"/>
</g>
<!-- Node7 -->
<g id="node7" class="node">
<title>Node7</title>
<g id="a_node7"><a xlink:href="../../d3/d78/words__alphabetical_8c.html#a0ac11529daf94e98f7114a6e938679a9" target="_top" xlink:title="Adds word (node) to the correct position in tree.">
<polygon fill="white" stroke="#666666" points="392,-83 307,-83 307,-64 392,-64 392,-83"/>
<text text-anchor="middle" x="349.5" y="-71" font-family="Helvetica,sans-Serif" font-size="10.00">addWordToTree</text>
</a>
</g>
</g>
<!-- Node6&#45;&gt;Node7 -->
<g id="edge7" class="edge">
<title>Node6&#45;&gt;Node7</title>
<path fill="none" stroke="#63b8ff" d="M265.55,-68.19C275.79,-68.84 286.4,-69.52 296.47,-70.17"/>
<polygon fill="#63b8ff" stroke="#63b8ff" points="296.53,-73.68 306.73,-70.82 296.98,-66.69 296.53,-73.68"/>
</g>
<!-- Node7&#45;&gt;Node7 -->
<g id="edge8" class="edge">
<title>Node7&#45;&gt;Node7</title>
<path fill="none" stroke="#63b8ff" d="M327.92,-83.08C317.42,-91.73 324.62,-101 349.5,-101 365.44,-101 374.12,-97.2 375.54,-92.19"/>
<polygon fill="#63b8ff" stroke="#63b8ff" points="378.62,-90.52 371.08,-83.08 372.34,-93.6 378.62,-90.52"/>
</g>
<!-- Node8 -->
<g id="node8" class="node">
<title>Node8</title>
<g id="a_node8"><a xlink:href="../../d3/d78/words__alphabetical_8c.html#a1e5ad8401396df36ab585d79f3309fd9" target="_top" xlink:title="Reserves memory for new node.">
<polygon fill="white" stroke="#666666" points="551,-120 428,-120 428,-101 551,-101 551,-120"/>
<text text-anchor="middle" x="489.5" y="-108" font-family="Helvetica,sans-Serif" font-size="10.00">allocateMemoryForNode</text>
</a>
</g>
</g>
<!-- Node7&#45;&gt;Node8 -->
<g id="edge9" class="edge">
<title>Node7&#45;&gt;Node8</title>
<path fill="none" stroke="#63b8ff" d="M386.04,-83.03C403.37,-87.67 424.41,-93.32 442.91,-98.28"/>
<polygon fill="#63b8ff" stroke="#63b8ff" points="442.04,-101.67 452.6,-100.88 443.85,-94.9 442.04,-101.67"/>
</g>
<!-- Node9 -->
<g id="node9" class="node">
<title>Node9</title>
<g id="a_node9"><a xlink:href="../../d3/d78/words__alphabetical_8c.html#a9e3cab68cf6557024f0073f674a307a1" target="_top" xlink:title="Stores word in memory.">
<polygon fill="white" stroke="#666666" points="536.5,-83 442.5,-83 442.5,-64 536.5,-64 536.5,-83"/>
<text text-anchor="middle" x="489.5" y="-71" font-family="Helvetica,sans-Serif" font-size="10.00">getPointerToWord</text>
</a>
</g>
</g>
<!-- Node7&#45;&gt;Node9 -->
<g id="edge11" class="edge">
<title>Node7&#45;&gt;Node9</title>
<path fill="none" stroke="#63b8ff" d="M392.28,-73.5C404.8,-73.5 418.74,-73.5 432.03,-73.5"/>
<polygon fill="#63b8ff" stroke="#63b8ff" points="432.04,-77 442.04,-73.5 432.04,-70 432.04,-77"/>
</g>
<!-- Node8&#45;&gt;Node4 -->
<g id="edge10" class="edge">
<title>Node8&#45;&gt;Node4</title>
<path fill="none" stroke="#63b8ff" d="M551.12,-110.5C559.52,-110.5 568.16,-110.5 576.58,-110.5"/>
<polygon fill="#63b8ff" stroke="#63b8ff" points="576.72,-114 586.72,-110.5 576.72,-107 576.72,-114"/>
</g>
<!-- Node9&#45;&gt;Node4 -->
<g id="edge12" class="edge">
<title>Node9&#45;&gt;Node4</title>
<path fill="none" stroke="#63b8ff" d="M528.61,-83.03C547.44,-87.74 570.36,-93.47 590.39,-98.47"/>
<polygon fill="#63b8ff" stroke="#63b8ff" points="589.71,-101.91 600.26,-100.94 591.41,-95.12 589.71,-101.91"/>
</g>
<!-- Node10&#45;&gt;Node10 -->
<g id="edge14" class="edge">
<title>Node10&#45;&gt;Node10</title>
<path fill="none" stroke="#63b8ff" d="M189.04,-19.08C180.31,-27.73 186.29,-37 207,-37 219.94,-37 227.13,-33.38 228.57,-28.55"/>
<polygon fill="#63b8ff" stroke="#63b8ff" points="231.79,-27.18 224.96,-19.08 225.25,-29.67 231.79,-27.18"/>
</g>
</g>
</svg>
