<?xml version="1.0" encoding="UTF-8" standalone="no"?>
<!DOCTYPE svg PUBLIC "-//W3C//DTD SVG 1.1//EN"
 "http://www.w3.org/Graphics/SVG/1.1/DTD/svg11.dtd">
<!-- Generated by graphviz version 8.0.5 (20230430.1635)
 -->
<!-- Title: readWordsInFileToTree Pages: 1 -->
<svg width="544pt" height="64pt"
 viewBox="0.00 0.00 543.75 64.25" xmlns="http://www.w3.org/2000/svg" xmlns:xlink="http://www.w3.org/1999/xlink">
<g id="graph0" class="graph" transform="scale(1 1) rotate(0) translate(4 60.25)">
<title>readWordsInFileToTree</title>
<!-- Node1 -->
<g id="Node000001" class="node">
<title>Node1</title>
<g id="a_Node000001"><a xlink:title="Reads words from file to tree.">
<polygon fill="#999999" stroke="#666666" points="116.5,-37.25 0,-37.25 0,-18 116.5,-18 116.5,-37.25"/>
<text text-anchor="middle" x="58.25" y="-23.75" font-family="Helvetica,sans-Serif" font-size="10.00">readWordsInFileToTree</text>
</a>
</g>
</g>
<!-- Node2 -->
<g id="Node000002" class="node">
<title>Node2</title>
<g id="a_Node000002"><a xlink:href="../../d3/d78/words__alphabetical_8c.html#a0ac11529daf94e98f7114a6e938679a9" target="_top" xlink:title="Adds word (node) to the correct position in tree.">
<polygon fill="white" stroke="#666666" points="236.75,-37.25 152.5,-37.25 152.5,-18 236.75,-18 236.75,-37.25"/>
<text text-anchor="middle" x="194.62" y="-23.75" font-family="Helvetica,sans-Serif" font-size="10.00">addWordToTree</text>
</a>
</g>
</g>
<!-- Node1&#45;&gt;Node2 -->
<g id="edge1_Node000001_Node000002" class="edge">
<title>Node1&#45;&gt;Node2</title>
<g id="a_edge1_Node000001_Node000002"><a xlink:title=" ">
<path fill="none" stroke="#63b8ff" d="M116.63,-27.62C124.87,-27.62 133.31,-27.62 141.44,-27.62"/>
<polygon fill="#63b8ff" stroke="#63b8ff" points="141.29,-31.13 151.29,-27.62 141.29,-24.13 141.29,-31.13"/>
</a>
</g>
</g>
<!-- Node2&#45;&gt;Node2 -->
<g id="edge2_Node000002_Node000002" class="edge">
<title>Node2&#45;&gt;Node2</title>
<g id="a_edge2_Node000002_Node000002"><a xlink:title=" ">
<path fill="none" stroke="#63b8ff" d="M173.27,-37.54C163.54,-46.15 170.65,-55.25 194.62,-55.25 208.48,-55.25 216.71,-52.21 219.3,-47.98"/>
<polygon fill="#63b8ff" stroke="#63b8ff" points="222.35,-47 215.98,-38.54 215.68,-49.13 222.35,-47"/>
</a>
</g>
</g>
<!-- Node3 -->
<g id="Node000003" class="node">
<title>Node3</title>
<g id="a_Node000003"><a xlink:href="../../d3/d78/words__alphabetical_8c.html#a1e5ad8401396df36ab585d79f3309fd9" target="_top" xlink:title="Reserves memory for new node.">
<polygon fill="white" stroke="#666666" points="395.25,-56.25 272.75,-56.25 272.75,-37 395.25,-37 395.25,-56.25"/>
<text text-anchor="middle" x="334" y="-42.75" font-family="Helvetica,sans-Serif" font-size="10.00">allocateMemoryForNode</text>
</a>
</g>
</g>
<!-- Node2&#45;&gt;Node3 -->
<g id="edge3_Node000002_Node000003" class="edge">
<title>Node2&#45;&gt;Node3</title>
<g id="a_edge3_Node000002_Node000003"><a xlink:title=" ">
<path fill="none" stroke="#63b8ff" d="M237.21,-33.38C244.9,-34.44 253.13,-35.58 261.41,-36.72"/>
<polygon fill="#63b8ff" stroke="#63b8ff" points="260.91,-40.33 271.29,-38.23 261.87,-33.39 260.91,-40.33"/>
</a>
</g>
</g>
<!-- Node5 -->
<g id="Node000005" class="node">
<title>Node5</title>
<g id="a_Node000005"><a xlink:href="../../d3/d78/words__alphabetical_8c.html#a9e3cab68cf6557024f0073f674a307a1" target="_top" xlink:title="Stores word in memory.">
<polygon fill="white" stroke="#666666" points="380.62,-19.25 287.38,-19.25 287.38,0 380.62,0 380.62,-19.25"/>
<text text-anchor="middle" x="334" y="-5.75" font-family="Helvetica,sans-Serif" font-size="10.00">getPointerToWord</text>
</a>
</g>
</g>
<!-- Node2&#45;&gt;Node5 -->
<g id="edge5_Node000002_Node000005" class="edge">
<title>Node2&#45;&gt;Node5</title>
<g id="a_edge5_Node000002_Node000005"><a xlink:title=" ">
<path fill="none" stroke="#63b8ff" d="M237.21,-22.18C249.55,-20.56 263.28,-18.76 276.4,-17.04"/>
<polygon fill="#63b8ff" stroke="#63b8ff" points="276.78,-20.39 286.24,-15.62 275.87,-13.45 276.78,-20.39"/>
</a>
</g>
</g>
<!-- Node4 -->
<g id="Node000004" class="node">
<title>Node4</title>
<g id="a_Node000004"><a xlink:href="../../d3/d78/words__alphabetical_8c.html#a5157a5b4e164f934602fa78413504029" target="_top" xlink:title="Ends program due to an error.">
<polygon fill="white" stroke="#666666" points="535.75,-37.25 431.25,-37.25 431.25,-18 535.75,-18 535.75,-37.25"/>
<text text-anchor="middle" x="483.5" y="-23.75" font-family="Helvetica,sans-Serif" font-size="10.00">endProgramAbruptly</text>
</a>
</g>
</g>
<!-- Node3&#45;&gt;Node4 -->
<g id="edge4_Node000003_Node000004" class="edge">
<title>Node3&#45;&gt;Node4</title>
<g id="a_edge4_Node000003_Node000004"><a xlink:title=" ">
<path fill="none" stroke="#63b8ff" d="M395.42,-38.84C403.61,-37.79 412.02,-36.7 420.24,-35.65"/>
<polygon fill="#63b8ff" stroke="#63b8ff" points="420.42,-39.02 429.9,-34.27 419.53,-32.08 420.42,-39.02"/>
</a>
</g>
</g>
<!-- Node5&#45;&gt;Node4 -->
<g id="edge6_Node000005_Node000004" class="edge">
<title>Node5&#45;&gt;Node4</title>
<g id="a_edge6_Node000005_Node000004"><a xlink:title=" ">
<path fill="none" stroke="#63b8ff" d="M380.86,-15.22C393.28,-16.74 406.94,-18.4 420.11,-20.01"/>
<polygon fill="#63b8ff" stroke="#63b8ff" points="419.66,-23.6 430.01,-21.34 420.51,-16.66 419.66,-23.6"/>
</a>
</g>
</g>
</g>
</svg>
