<?xml version="1.0" encoding="UTF-8" standalone="no"?>
<!DOCTYPE svg PUBLIC "-//W3C//DTD SVG 1.1//EN"
 "http://www.w3.org/Graphics/SVG/1.1/DTD/svg11.dtd">
<!-- Generated by graphviz version 5.0.1 (20220820.1526)
 -->
<!-- Title: addWordToTree Pages: 1 -->
<svg width="393pt" height="64pt"
 viewBox="0.00 0.00 393.00 64.00" xmlns="http://www.w3.org/2000/svg" xmlns:xlink="http://www.w3.org/1999/xlink">
<g id="graph0" class="graph" transform="scale(1 1) rotate(0) translate(4 60)">
<title>addWordToTree</title>
<!-- Node1 -->
<g id="node1" class="node">
<title>Node1</title>
<g id="a_node1"><a xlink:title="Adds word (node) to the correct position in tree.">
<polygon fill="#999999" stroke="#666666" points="85,-37 0,-37 0,-18 85,-18 85,-37"/>
<text text-anchor="middle" x="42.5" y="-25" font-family="Helvetica,sans-Serif" font-size="10.00">addWordToTree</text>
</a>
</g>
</g>
<!-- Node1&#45;&gt;Node1 -->
<g id="edge1" class="edge">
<title>Node1&#45;&gt;Node1</title>
<path fill="none" stroke="#63b8ff" d="M20.92,-37.08C10.42,-45.73 17.62,-55 42.5,-55 58.44,-55 67.12,-51.2 68.54,-46.19"/>
<polygon fill="#63b8ff" stroke="#63b8ff" points="71.62,-44.52 64.08,-37.08 65.34,-47.6 71.62,-44.52"/>
</g>
<!-- Node2 -->
<g id="node2" class="node">
<title>Node2</title>
<g id="a_node2"><a xlink:href="../../d3/d78/words__alphabetical_8c.html#a1e5ad8401396df36ab585d79f3309fd9" target="_top" xlink:title="Reserves memory for new node.">
<polygon fill="white" stroke="#666666" points="244,-56 121,-56 121,-37 244,-37 244,-56"/>
<text text-anchor="middle" x="182.5" y="-44" font-family="Helvetica,sans-Serif" font-size="10.00">allocateMemoryForNode</text>
</a>
</g>
</g>
<!-- Node1&#45;&gt;Node2 -->
<g id="edge2" class="edge">
<title>Node1&#45;&gt;Node2</title>
<path fill="none" stroke="#63b8ff" d="M85.28,-33.25C93.32,-34.36 101.95,-35.55 110.61,-36.74"/>
<polygon fill="#63b8ff" stroke="#63b8ff" points="110.39,-40.24 120.77,-38.14 111.34,-33.31 110.39,-40.24"/>
</g>
<!-- Node4 -->
<g id="node4" class="node">
<title>Node4</title>
<g id="a_node4"><a xlink:href="../../d3/d78/words__alphabetical_8c.html#a9e3cab68cf6557024f0073f674a307a1" target="_top" xlink:title="Stores word in memory.">
<polygon fill="white" stroke="#666666" points="229.5,-19 135.5,-19 135.5,0 229.5,0 229.5,-19"/>
<text text-anchor="middle" x="182.5" y="-7" font-family="Helvetica,sans-Serif" font-size="10.00">getPointerToWord</text>
</a>
</g>
</g>
<!-- Node1&#45;&gt;Node4 -->
<g id="edge4" class="edge">
<title>Node1&#45;&gt;Node4</title>
<path fill="none" stroke="#63b8ff" d="M85.28,-22.05C97.8,-20.42 111.74,-18.6 125.03,-16.87"/>
<polygon fill="#63b8ff" stroke="#63b8ff" points="125.58,-20.32 135.04,-15.56 124.67,-13.38 125.58,-20.32"/>
</g>
<!-- Node3 -->
<g id="node3" class="node">
<title>Node3</title>
<g id="a_node3"><a xlink:href="../../d3/d78/words__alphabetical_8c.html#a5157a5b4e164f934602fa78413504029" target="_top" xlink:title="Ends program due to an error.">
<polygon fill="white" stroke="#666666" points="385,-37 280,-37 280,-18 385,-18 385,-37"/>
<text text-anchor="middle" x="332.5" y="-25" font-family="Helvetica,sans-Serif" font-size="10.00">endProgramAbruptly</text>
</a>
</g>
</g>
<!-- Node2&#45;&gt;Node3 -->
<g id="edge3" class="edge">
<title>Node2&#45;&gt;Node3</title>
<path fill="none" stroke="#63b8ff" d="M244.12,-38.72C252.52,-37.64 261.16,-36.53 269.58,-35.45"/>
<polygon fill="#63b8ff" stroke="#63b8ff" points="270.25,-38.89 279.72,-34.15 269.36,-31.95 270.25,-38.89"/>
</g>
<!-- Node4&#45;&gt;Node3 -->
<g id="edge5" class="edge">
<title>Node4&#45;&gt;Node3</title>
<path fill="none" stroke="#63b8ff" d="M229.52,-15.1C242.23,-16.64 256.23,-18.35 269.69,-19.98"/>
<polygon fill="#63b8ff" stroke="#63b8ff" points="269.48,-23.48 279.83,-21.22 270.33,-16.53 269.48,-23.48"/>
</g>
</g>
</svg>
