<?xml version="1.0" encoding="UTF-8" standalone="no"?>
<!DOCTYPE svg PUBLIC "-//W3C//DTD SVG 1.1//EN"
 "http://www.w3.org/Graphics/SVG/1.1/DTD/svg11.dtd">
<!-- Generated by graphviz version 7.0.6 (20230106.0513)
 -->
<!-- Title: process_scheduling_algorithms/non_preemptive_priority_scheduling.c Pages: 1 -->
<svg width="264pt" height="104pt"
 viewBox="0.00 0.00 264.00 104.00" xmlns="http://www.w3.org/2000/svg" xmlns:xlink="http://www.w3.org/1999/xlink">
<g id="graph0" class="graph" transform="scale(1 1) rotate(0) translate(4 100)">
<title>process_scheduling_algorithms/non_preemptive_priority_scheduling.c</title>
<!-- Node1 -->
<g id="node1" class="node">
<title>Node1</title>
<g id="a_node1"><a xlink:title="Non&#45;Preemptive Priority Scheduling is a scheduling algorithm that selects the tasks to execute based ...">
<polygon fill="#999999" stroke="#666666" points="201.5,-96 62.5,-96 62.5,-55 201.5,-55 201.5,-96"/>
<text text-anchor="start" x="70.5" y="-84" font-family="Helvetica,sans-Serif" font-size="10.00">process_scheduling</text>
<text text-anchor="start" x="70.5" y="-73" font-family="Helvetica,sans-Serif" font-size="10.00">_algorithms/non_preemptive</text>
<text text-anchor="middle" x="132" y="-62" font-family="Helvetica,sans-Serif" font-size="10.00">_priority_scheduling.c</text>
</a>
</g>
</g>
<!-- Node2 -->
<g id="node2" class="node">
<title>Node2</title>
<g id="a_node2"><a xlink:title=" ">
<polygon fill="#e0e0e0" stroke="#999999" points="52,-19 0,-19 0,0 52,0 52,-19"/>
<text text-anchor="middle" x="26" y="-7" font-family="Helvetica,sans-Serif" font-size="10.00">assert.h</text>
</a>
</g>
</g>
<!-- Node1&#45;&gt;Node2 -->
<g id="edge1" class="edge">
<title>Node1&#45;&gt;Node2</title>
<path fill="none" stroke="#63b8ff" d="M99.04,-54.6C83.29,-45.09 64.78,-33.91 50.33,-25.19"/>
<polygon fill="#63b8ff" stroke="#63b8ff" points="52.29,-22.29 41.92,-20.11 48.67,-28.28 52.29,-22.29"/>
</g>
<!-- Node3 -->
<g id="node3" class="node">
<title>Node3</title>
<g id="a_node3"><a xlink:title=" ">
<polygon fill="#e0e0e0" stroke="#999999" points="126,-19 70,-19 70,0 126,0 126,-19"/>
<text text-anchor="middle" x="98" y="-7" font-family="Helvetica,sans-Serif" font-size="10.00">stdbool.h</text>
</a>
</g>
</g>
<!-- Node1&#45;&gt;Node3 -->
<g id="edge2" class="edge">
<title>Node1&#45;&gt;Node3</title>
<path fill="none" stroke="#63b8ff" d="M121.43,-54.6C117.14,-46.52 112.2,-37.23 107.97,-29.27"/>
<polygon fill="#63b8ff" stroke="#63b8ff" points="111.09,-27.69 103.31,-20.5 104.91,-30.97 111.09,-27.69"/>
</g>
<!-- Node4 -->
<g id="node4" class="node">
<title>Node4</title>
<g id="a_node4"><a xlink:title=" ">
<polygon fill="#e0e0e0" stroke="#999999" points="190,-19 144,-19 144,0 190,0 190,-19"/>
<text text-anchor="middle" x="167" y="-7" font-family="Helvetica,sans-Serif" font-size="10.00">stdio.h</text>
</a>
</g>
</g>
<!-- Node1&#45;&gt;Node4 -->
<g id="edge3" class="edge">
<title>Node1&#45;&gt;Node4</title>
<path fill="none" stroke="#63b8ff" d="M142.88,-54.6C147.35,-46.43 152.5,-37.02 156.88,-29"/>
<polygon fill="#63b8ff" stroke="#63b8ff" points="159.81,-30.94 161.54,-20.49 153.67,-27.58 159.81,-30.94"/>
</g>
<!-- Node5 -->
<g id="node5" class="node">
<title>Node5</title>
<g id="a_node5"><a xlink:title=" ">
<polygon fill="#e0e0e0" stroke="#999999" points="256,-19 208,-19 208,0 256,0 256,-19"/>
<text text-anchor="middle" x="232" y="-7" font-family="Helvetica,sans-Serif" font-size="10.00">stdlib.h</text>
</a>
</g>
</g>
<!-- Node1&#45;&gt;Node5 -->
<g id="edge4" class="edge">
<title>Node1&#45;&gt;Node5</title>
<path fill="none" stroke="#63b8ff" d="M163.09,-54.6C177.8,-45.19 195.08,-34.13 208.65,-25.44"/>
<polygon fill="#63b8ff" stroke="#63b8ff" points="210.39,-28.49 216.93,-20.15 206.62,-22.59 210.39,-28.49"/>
</g>
</g>
</svg>
