<?xml version="1.0" encoding="UTF-8" standalone="no"?>
<!DOCTYPE svg PUBLIC "-//W3C//DTD SVG 1.1//EN"
 "http://www.w3.org/Graphics/SVG/1.1/DTD/svg11.dtd">
<!-- Generated by graphviz version 9.0.0 (20230911.1827)
 -->
<!-- Title: process_scheduling_algorithms/non_preemptive_priority_scheduling.c Pages: 1 -->
<svg width="262pt" height="105pt"
 viewBox="0.00 0.00 262.38 105.00" xmlns="http://www.w3.org/2000/svg" xmlns:xlink="http://www.w3.org/1999/xlink">
<g id="graph0" class="graph" transform="scale(1 1) rotate(0) translate(4 101)">
<title>process_scheduling_algorithms/non_preemptive_priority_scheduling.c</title>
<!-- Node1 -->
<g id="Node000001" class="node">
<title>Node1</title>
<g id="a_Node000001"><a xlink:title="Non&#45;Preemptive Priority Scheduling is a scheduling algorithm that selects the tasks to execute based ...">
<polygon fill="#999999" stroke="#666666" points="200.75,-97 62.5,-97 62.5,-55.25 200.75,-55.25 200.75,-97"/>
<text text-anchor="start" x="70.5" y="-83.5" font-family="Helvetica,sans-Serif" font-size="10.00">process_scheduling</text>
<text text-anchor="start" x="70.5" y="-72.25" font-family="Helvetica,sans-Serif" font-size="10.00">_algorithms/non_preemptive</text>
<text text-anchor="middle" x="131.62" y="-61" font-family="Helvetica,sans-Serif" font-size="10.00">_priority_scheduling.c</text>
</a>
</g>
</g>
<!-- Node2 -->
<g id="Node000002" class="node">
<title>Node2</title>
<g id="a_Node000002"><a xlink:title=" ">
<polygon fill="#e0e0e0" stroke="#999999" points="51.25,-19.25 0,-19.25 0,0 51.25,0 51.25,-19.25"/>
<text text-anchor="middle" x="25.62" y="-5.75" font-family="Helvetica,sans-Serif" font-size="10.00">assert.h</text>
</a>
</g>
</g>
<!-- Node1&#45;&gt;Node2 -->
<g id="edge1_Node000001_Node000002" class="edge">
<title>Node1&#45;&gt;Node2</title>
<g id="a_edge1_Node000001_Node000002"><a xlink:title=" ">
<path fill="none" stroke="#63b8ff" d="M98.38,-54.89C82.74,-45.38 64.43,-34.24 50.09,-25.51"/>
<polygon fill="#63b8ff" stroke="#63b8ff" points="52.1,-22.64 41.74,-20.43 48.46,-28.62 52.1,-22.64"/>
</a>
</g>
</g>
<!-- Node3 -->
<g id="Node000003" class="node">
<title>Node3</title>
<g id="a_Node000003"><a xlink:title=" ">
<polygon fill="#e0e0e0" stroke="#999999" points="125.5,-19.25 69.75,-19.25 69.75,0 125.5,0 125.5,-19.25"/>
<text text-anchor="middle" x="97.62" y="-5.75" font-family="Helvetica,sans-Serif" font-size="10.00">stdbool.h</text>
</a>
</g>
</g>
<!-- Node1&#45;&gt;Node3 -->
<g id="edge2_Node000001_Node000003" class="edge">
<title>Node1&#45;&gt;Node3</title>
<g id="a_edge2_Node000001_Node000003"><a xlink:title=" ">
<path fill="none" stroke="#63b8ff" d="M121.05,-55.07C116.81,-47.03 111.95,-37.8 107.75,-29.84"/>
<polygon fill="#63b8ff" stroke="#63b8ff" points="110.87,-28.25 103.11,-21.03 104.68,-31.51 110.87,-28.25"/>
</a>
</g>
</g>
<!-- Node4 -->
<g id="Node000004" class="node">
<title>Node4</title>
<g id="a_Node000004"><a xlink:title=" ">
<polygon fill="#e0e0e0" stroke="#999999" points="189.25,-19.25 144,-19.25 144,0 189.25,0 189.25,-19.25"/>
<text text-anchor="middle" x="166.62" y="-5.75" font-family="Helvetica,sans-Serif" font-size="10.00">stdio.h</text>
</a>
</g>
</g>
<!-- Node1&#45;&gt;Node4 -->
<g id="edge3_Node000001_Node000004" class="edge">
<title>Node1&#45;&gt;Node4</title>
<g id="a_edge3_Node000001_Node000004"><a xlink:title=" ">
<path fill="none" stroke="#63b8ff" d="M142.51,-55.07C146.92,-46.93 152,-37.58 156.35,-29.57"/>
<polygon fill="#63b8ff" stroke="#63b8ff" points="159.29,-31.48 160.98,-21.03 153.14,-28.15 159.29,-31.48"/>
</a>
</g>
</g>
<!-- Node5 -->
<g id="Node000005" class="node">
<title>Node5</title>
<g id="a_Node000005"><a xlink:title=" ">
<polygon fill="#e0e0e0" stroke="#999999" points="254.38,-19.25 206.88,-19.25 206.88,0 254.38,0 254.38,-19.25"/>
<text text-anchor="middle" x="230.62" y="-5.75" font-family="Helvetica,sans-Serif" font-size="10.00">stdlib.h</text>
</a>
</g>
</g>
<!-- Node1&#45;&gt;Node5 -->
<g id="edge4_Node000001_Node000005" class="edge">
<title>Node1&#45;&gt;Node5</title>
<g id="a_edge4_Node000001_Node000005"><a xlink:title=" ">
<path fill="none" stroke="#63b8ff" d="M162.68,-54.89C177.14,-45.47 194.05,-34.46 207.38,-25.77"/>
<polygon fill="#63b8ff" stroke="#63b8ff" points="209.05,-28.86 215.51,-20.47 205.22,-23 209.05,-28.86"/>
</a>
</g>
</g>
</g>
</svg>
