<?xml version="1.0" encoding="UTF-8" standalone="no"?>
<!DOCTYPE svg PUBLIC "-//W3C//DTD SVG 1.1//EN"
 "http://www.w3.org/Graphics/SVG/1.1/DTD/svg11.dtd">
<!-- Generated by graphviz version 8.0.2 (20230410.1723)
 -->
<!-- Title: conversions/octal_to_hexadecimal.c Pages: 1 -->
<svg width="324pt" height="93pt"
 viewBox="0.00 0.00 323.50 93.00" xmlns="http://www.w3.org/2000/svg" xmlns:xlink="http://www.w3.org/1999/xlink">
<g id="graph0" class="graph" transform="scale(1 1) rotate(0) translate(4 89)">
<title>conversions/octal_to_hexadecimal.c</title>
<!-- Node1 -->
<g id="node1" class="node">
<title>Node1</title>
<g id="a_node1"><a xlink:title="Octal to hexadecimal conversion by scanning user input.">
<polygon fill="#999999" stroke="#666666" points="212.5,-85 105.5,-85 105.5,-55 212.5,-55 212.5,-85"/>
<text text-anchor="start" x="113.5" y="-73" font-family="Helvetica,sans-Serif" font-size="10.00">conversions/octal_to</text>
<text text-anchor="middle" x="159" y="-62" font-family="Helvetica,sans-Serif" font-size="10.00">_hexadecimal.c</text>
</a>
</g>
</g>
<!-- Node2 -->
<g id="node2" class="node">
<title>Node2</title>
<g id="a_node2"><a xlink:title=" ">
<polygon fill="#e0e0e0" stroke="#999999" points="52,-19 0,-19 0,0 52,0 52,-19"/>
<text text-anchor="middle" x="26" y="-7" font-family="Helvetica,sans-Serif" font-size="10.00">assert.h</text>
</a>
</g>
</g>
<!-- Node1&#45;&gt;Node2 -->
<g id="edge1" class="edge">
<title>Node1&#45;&gt;Node2</title>
<path fill="none" stroke="#63b8ff" d="M126.12,-54.54C104.67,-45.1 76.88,-32.88 56.03,-23.71"/>
<polygon fill="#63b8ff" stroke="#63b8ff" points="57.67,-20.17 47.11,-19.35 54.86,-26.58 57.67,-20.17"/>
</g>
<!-- Node3 -->
<g id="node3" class="node">
<title>Node3</title>
<g id="a_node3"><a xlink:title=" ">
<polygon fill="#e0e0e0" stroke="#999999" points="117.5,-19 70.5,-19 70.5,0 117.5,0 117.5,-19"/>
<text text-anchor="middle" x="94" y="-7" font-family="Helvetica,sans-Serif" font-size="10.00">math.h</text>
</a>
</g>
</g>
<!-- Node1&#45;&gt;Node3 -->
<g id="edge2" class="edge">
<title>Node1&#45;&gt;Node3</title>
<path fill="none" stroke="#63b8ff" d="M142.93,-54.54C133.49,-46.04 121.54,-35.29 111.81,-26.53"/>
<polygon fill="#63b8ff" stroke="#63b8ff" points="114.41,-24.26 104.64,-20.18 109.73,-29.47 114.41,-24.26"/>
</g>
<!-- Node4 -->
<g id="node4" class="node">
<title>Node4</title>
<g id="a_node4"><a xlink:title=" ">
<polygon fill="#e0e0e0" stroke="#999999" points="182,-19 136,-19 136,0 182,0 182,-19"/>
<text text-anchor="middle" x="159" y="-7" font-family="Helvetica,sans-Serif" font-size="10.00">stdio.h</text>
</a>
</g>
</g>
<!-- Node1&#45;&gt;Node4 -->
<g id="edge3" class="edge">
<title>Node1&#45;&gt;Node4</title>
<path fill="none" stroke="#63b8ff" d="M159,-54.54C159,-47.17 159,-38.1 159,-30.11"/>
<polygon fill="#63b8ff" stroke="#63b8ff" points="162.5,-30.18 159,-20.18 155.5,-30.18 162.5,-30.18"/>
</g>
<!-- Node5 -->
<g id="node5" class="node">
<title>Node5</title>
<g id="a_node5"><a xlink:title=" ">
<polygon fill="#e0e0e0" stroke="#999999" points="248,-19 200,-19 200,0 248,0 248,-19"/>
<text text-anchor="middle" x="224" y="-7" font-family="Helvetica,sans-Serif" font-size="10.00">stdlib.h</text>
</a>
</g>
</g>
<!-- Node1&#45;&gt;Node5 -->
<g id="edge4" class="edge">
<title>Node1&#45;&gt;Node5</title>
<path fill="none" stroke="#63b8ff" d="M175.07,-54.54C184.51,-46.04 196.46,-35.29 206.19,-26.53"/>
<polygon fill="#63b8ff" stroke="#63b8ff" points="208.27,-29.47 213.36,-20.18 203.59,-24.26 208.27,-29.47"/>
</g>
<!-- Node6 -->
<g id="node6" class="node">
<title>Node6</title>
<g id="a_node6"><a xlink:title=" ">
<polygon fill="#e0e0e0" stroke="#999999" points="315.5,-19 266.5,-19 266.5,0 315.5,0 315.5,-19"/>
<text text-anchor="middle" x="291" y="-7" font-family="Helvetica,sans-Serif" font-size="10.00">string.h</text>
</a>
</g>
</g>
<!-- Node1&#45;&gt;Node6 -->
<g id="edge5" class="edge">
<title>Node1&#45;&gt;Node6</title>
<path fill="none" stroke="#63b8ff" d="M191.63,-54.54C212.92,-45.1 240.5,-32.88 261.2,-23.71"/>
<polygon fill="#63b8ff" stroke="#63b8ff" points="262.32,-26.6 270.04,-19.35 259.48,-20.2 262.32,-26.6"/>
</g>
</g>
</svg>
