<?xml version="1.0" encoding="UTF-8" standalone="no"?>
<!DOCTYPE svg PUBLIC "-//W3C//DTD SVG 1.1//EN"
 "http://www.w3.org/Graphics/SVG/1.1/DTD/svg11.dtd">
<!-- Generated by graphviz version 6.0.1 (20220911.1526)
 -->
<!-- Title: conversions/octal_to_hexadecimal.c Pages: 1 -->
<svg width="324pt" height="93pt"
 viewBox="0.00 0.00 323.50 93.00" xmlns="http://www.w3.org/2000/svg" xmlns:xlink="http://www.w3.org/1999/xlink">
<g id="graph0" class="graph" transform="scale(1 1) rotate(0) translate(4 89)">
<title>conversions/octal_to_hexadecimal.c</title>
<!-- Node1 -->
<g id="node1" class="node">
<title>Node1</title>
<g id="a_node1"><a xlink:title="Octal to hexadecimal conversion by scanning user input.">
<polygon fill="#999999" stroke="#666666" points="212.5,-85 105.5,-85 105.5,-55 212.5,-55 212.5,-85"/>
<text text-anchor="start" x="113.5" y="-73" font-family="Helvetica,sans-Serif" font-size="10.00">conversions/octal_to</text>
<text text-anchor="middle" x="159" y="-62" font-family="Helvetica,sans-Serif" font-size="10.00">_hexadecimal.c</text>
</a>
</g>
</g>
<!-- Node2 -->
<g id="node2" class="node">
<title>Node2</title>
<g id="a_node2"><a xlink:title=" ">
<polygon fill="#e0e0e0" stroke="#999999" points="52,-19 0,-19 0,0 52,0 52,-19"/>
<text text-anchor="middle" x="26" y="-7" font-family="Helvetica,sans-Serif" font-size="10.00">assert.h</text>
</a>
</g>
</g>
<!-- Node1&#45;&gt;Node2 -->
<g id="edge1" class="edge">
<title>Node1&#45;&gt;Node2</title>
<path fill="none" stroke="#63b8ff" d="M127.14,-54.99C105.15,-45.31 76.15,-32.56 54.84,-23.18"/>
<polygon fill="#63b8ff" stroke="#63b8ff" points="56.2,-19.96 45.64,-19.14 53.39,-26.37 56.2,-19.96"/>
</g>
<!-- Node3 -->
<g id="node3" class="node">
<title>Node3</title>
<g id="a_node3"><a xlink:title=" ">
<polygon fill="#e0e0e0" stroke="#999999" points="117.5,-19 70.5,-19 70.5,0 117.5,0 117.5,-19"/>
<text text-anchor="middle" x="94" y="-7" font-family="Helvetica,sans-Serif" font-size="10.00">math.h</text>
</a>
</g>
</g>
<!-- Node1&#45;&gt;Node3 -->
<g id="edge2" class="edge">
<title>Node1&#45;&gt;Node3</title>
<path fill="none" stroke="#63b8ff" d="M143.27,-54.84C133.64,-46.17 121.31,-35.08 111.39,-26.15"/>
<polygon fill="#63b8ff" stroke="#63b8ff" points="113.51,-23.35 103.74,-19.27 108.83,-28.56 113.51,-23.35"/>
</g>
<!-- Node4 -->
<g id="node4" class="node">
<title>Node4</title>
<g id="a_node4"><a xlink:title=" ">
<polygon fill="#e0e0e0" stroke="#999999" points="182,-19 136,-19 136,0 182,0 182,-19"/>
<text text-anchor="middle" x="159" y="-7" font-family="Helvetica,sans-Serif" font-size="10.00">stdio.h</text>
</a>
</g>
</g>
<!-- Node1&#45;&gt;Node4 -->
<g id="edge3" class="edge">
<title>Node1&#45;&gt;Node4</title>
<path fill="none" stroke="#63b8ff" d="M159,-54.84C159,-47.21 159,-37.7 159,-29.45"/>
<polygon fill="#63b8ff" stroke="#63b8ff" points="162.5,-29.27 159,-19.27 155.5,-29.27 162.5,-29.27"/>
</g>
<!-- Node5 -->
<g id="node5" class="node">
<title>Node5</title>
<g id="a_node5"><a xlink:title=" ">
<polygon fill="#e0e0e0" stroke="#999999" points="248,-19 200,-19 200,0 248,0 248,-19"/>
<text text-anchor="middle" x="224" y="-7" font-family="Helvetica,sans-Serif" font-size="10.00">stdlib.h</text>
</a>
</g>
</g>
<!-- Node1&#45;&gt;Node5 -->
<g id="edge4" class="edge">
<title>Node1&#45;&gt;Node5</title>
<path fill="none" stroke="#63b8ff" d="M174.73,-54.84C184.36,-46.17 196.69,-35.08 206.61,-26.15"/>
<polygon fill="#63b8ff" stroke="#63b8ff" points="209.17,-28.56 214.26,-19.27 204.49,-23.35 209.17,-28.56"/>
</g>
<!-- Node6 -->
<g id="node6" class="node">
<title>Node6</title>
<g id="a_node6"><a xlink:title=" ">
<polygon fill="#e0e0e0" stroke="#999999" points="315.5,-19 266.5,-19 266.5,0 315.5,0 315.5,-19"/>
<text text-anchor="middle" x="291" y="-7" font-family="Helvetica,sans-Serif" font-size="10.00">string.h</text>
</a>
</g>
</g>
<!-- Node1&#45;&gt;Node6 -->
<g id="edge5" class="edge">
<title>Node1&#45;&gt;Node6</title>
<path fill="none" stroke="#63b8ff" d="M190.62,-54.99C212.35,-45.36 240.97,-32.67 262.09,-23.31"/>
<polygon fill="#63b8ff" stroke="#63b8ff" points="263.78,-26.39 271.51,-19.14 260.95,-19.99 263.78,-26.39"/>
</g>
</g>
</svg>
