<?xml version="1.0" encoding="UTF-8" standalone="no"?>
<!DOCTYPE svg PUBLIC "-//W3C//DTD SVG 1.1//EN"
 "http://www.w3.org/Graphics/SVG/1.1/DTD/svg11.dtd">
<!-- Generated by graphviz version 7.0.6 (20230106.0513)
 -->
<!-- Title: sorting/bubble_sort.c Pages: 1 -->
<svg width="326pt" height="82pt"
 viewBox="0.00 0.00 326.00 82.00" xmlns="http://www.w3.org/2000/svg" xmlns:xlink="http://www.w3.org/1999/xlink">
<g id="graph0" class="graph" transform="scale(1 1) rotate(0) translate(4 78)">
<title>sorting/bubble_sort.c</title>
<!-- Node1 -->
<g id="node1" class="node">
<title>Node1</title>
<g id="a_node1"><a xlink:title="Bubble sort algorithm implementation">
<polygon fill="#999999" stroke="#666666" points="220.5,-74 113.5,-74 113.5,-55 220.5,-55 220.5,-74"/>
<text text-anchor="middle" x="167" y="-62" font-family="Helvetica,sans-Serif" font-size="10.00">sorting/bubble_sort.c</text>
</a>
</g>
</g>
<!-- Node2 -->
<g id="node2" class="node">
<title>Node2</title>
<g id="a_node2"><a xlink:title=" ">
<polygon fill="#e0e0e0" stroke="#999999" points="52,-19 0,-19 0,0 52,0 52,-19"/>
<text text-anchor="middle" x="26" y="-7" font-family="Helvetica,sans-Serif" font-size="10.00">assert.h</text>
</a>
</g>
</g>
<!-- Node1&#45;&gt;Node2 -->
<g id="edge1" class="edge">
<title>Node1&#45;&gt;Node2</title>
<path fill="none" stroke="#63b8ff" d="M143.08,-54.51C120.36,-45.97 85.95,-33.03 60.31,-23.4"/>
<polygon fill="#63b8ff" stroke="#63b8ff" points="61.57,-20.13 50.98,-19.89 59.11,-26.69 61.57,-20.13"/>
</g>
<!-- Node3 -->
<g id="node3" class="node">
<title>Node3</title>
<g id="a_node3"><a xlink:title=" ">
<polygon fill="#e0e0e0" stroke="#999999" points="126,-19 70,-19 70,0 126,0 126,-19"/>
<text text-anchor="middle" x="98" y="-7" font-family="Helvetica,sans-Serif" font-size="10.00">stdbool.h</text>
</a>
</g>
</g>
<!-- Node1&#45;&gt;Node3 -->
<g id="edge2" class="edge">
<title>Node1&#45;&gt;Node3</title>
<path fill="none" stroke="#63b8ff" d="M155.3,-54.51C145.22,-46.77 130.46,-35.43 118.44,-26.2"/>
<polygon fill="#63b8ff" stroke="#63b8ff" points="120.79,-23.6 110.73,-20.28 116.53,-29.15 120.79,-23.6"/>
</g>
<!-- Node4 -->
<g id="node4" class="node">
<title>Node4</title>
<g id="a_node4"><a xlink:title=" ">
<polygon fill="#e0e0e0" stroke="#999999" points="190,-19 144,-19 144,0 190,0 190,-19"/>
<text text-anchor="middle" x="167" y="-7" font-family="Helvetica,sans-Serif" font-size="10.00">stdio.h</text>
</a>
</g>
</g>
<!-- Node1&#45;&gt;Node4 -->
<g id="edge3" class="edge">
<title>Node1&#45;&gt;Node4</title>
<path fill="none" stroke="#63b8ff" d="M167,-54.75C167,-48.27 167,-39.16 167,-30.9"/>
<polygon fill="#63b8ff" stroke="#63b8ff" points="170.5,-30.96 167,-20.96 163.5,-30.96 170.5,-30.96"/>
</g>
<!-- Node5 -->
<g id="node5" class="node">
<title>Node5</title>
<g id="a_node5"><a xlink:title=" ">
<polygon fill="#e0e0e0" stroke="#999999" points="256,-19 208,-19 208,0 256,0 256,-19"/>
<text text-anchor="middle" x="232" y="-7" font-family="Helvetica,sans-Serif" font-size="10.00">stdlib.h</text>
</a>
</g>
</g>
<!-- Node1&#45;&gt;Node5 -->
<g id="edge4" class="edge">
<title>Node1&#45;&gt;Node5</title>
<path fill="none" stroke="#63b8ff" d="M178.03,-54.51C187.42,-46.85 201.15,-35.66 212.41,-26.47"/>
<polygon fill="#63b8ff" stroke="#63b8ff" points="214.43,-29.35 219.96,-20.31 210,-23.92 214.43,-29.35"/>
</g>
<!-- Node6 -->
<g id="node6" class="node">
<title>Node6</title>
<g id="a_node6"><a xlink:title=" ">
<polygon fill="#e0e0e0" stroke="#999999" points="318,-19 274,-19 274,0 318,0 318,-19"/>
<text text-anchor="middle" x="296" y="-7" font-family="Helvetica,sans-Serif" font-size="10.00">time.h</text>
</a>
</g>
</g>
<!-- Node1&#45;&gt;Node6 -->
<g id="edge5" class="edge">
<title>Node1&#45;&gt;Node6</title>
<path fill="none" stroke="#63b8ff" d="M188.88,-54.51C209.49,-46.04 240.59,-33.27 263.98,-23.66"/>
<polygon fill="#63b8ff" stroke="#63b8ff" points="265.12,-26.97 273.04,-19.93 262.46,-20.5 265.12,-26.97"/>
</g>
</g>
</svg>
