<?xml version="1.0" encoding="UTF-8" standalone="no"?>
<!DOCTYPE svg PUBLIC "-//W3C//DTD SVG 1.1//EN"
 "http://www.w3.org/Graphics/SVG/1.1/DTD/svg11.dtd">
<!-- Generated by graphviz version 8.0.2 (20230410.1723)
 -->
<!-- Title: BLAKE2B Pages: 1 -->
<svg width="256pt" height="64pt"
 viewBox="0.00 0.00 256.00 64.00" xmlns="http://www.w3.org/2000/svg" xmlns:xlink="http://www.w3.org/1999/xlink">
<g id="graph0" class="graph" transform="scale(1 1) rotate(0) translate(4 60)">
<title>BLAKE2B</title>
<!-- Node1 -->
<g id="node1" class="node">
<title>Node1</title>
<g id="a_node1"><a xlink:title="driver function to perform the hashing as described in specification">
<polygon fill="#999999" stroke="#666666" points="61,-37 0,-37 0,-18 61,-18 61,-37"/>
<text text-anchor="middle" x="30.5" y="-25" font-family="Helvetica,sans-Serif" font-size="10.00">BLAKE2B</text>
</a>
</g>
</g>
<!-- Node2 -->
<g id="node2" class="node">
<title>Node2</title>
<g id="a_node2"><a xlink:href="../../d7/d3b/group__hash.html#ga37e02cbf2df2247d31ab92f443990dbd" target="_top" xlink:title="compression function F">
<polygon fill="white" stroke="#666666" points="154.5,-56 125.5,-56 125.5,-37 154.5,-37 154.5,-56"/>
<text text-anchor="middle" x="140" y="-44" font-family="Helvetica,sans-Serif" font-size="10.00">F</text>
</a>
</g>
</g>
<!-- Node1&#45;&gt;Node2 -->
<g id="edge1" class="edge">
<title>Node1&#45;&gt;Node2</title>
<path fill="none" stroke="#63b8ff" d="M61.44,-32.79C78.24,-35.76 98.93,-39.42 114.71,-42.21"/>
<polygon fill="#63b8ff" stroke="#63b8ff" points="113.75,-45.77 124.21,-44.06 114.97,-38.88 113.75,-45.77"/>
</g>
<!-- Node4 -->
<g id="node4" class="node">
<title>Node4</title>
<g id="a_node4"><a xlink:href="../../d7/d3b/group__hash.html#gaead2e4f50d0c512905c07ddd564e082e" target="_top" xlink:title="increment an 128&#45;bit number by a given amount">
<polygon fill="white" stroke="#666666" points="183,-19 97,-19 97,0 183,0 183,-19"/>
<text text-anchor="middle" x="140" y="-7" font-family="Helvetica,sans-Serif" font-size="10.00">u128_increment</text>
</a>
</g>
</g>
<!-- Node1&#45;&gt;Node4 -->
<g id="edge3" class="edge">
<title>Node1&#45;&gt;Node4</title>
<path fill="none" stroke="#63b8ff" d="M61.44,-22.49C69.13,-21.2 77.64,-19.78 86.11,-18.36"/>
<polygon fill="#63b8ff" stroke="#63b8ff" points="86.48,-21.68 95.76,-16.57 85.32,-14.77 86.48,-21.68"/>
</g>
<!-- Node3 -->
<g id="node3" class="node">
<title>Node3</title>
<g id="a_node3"><a xlink:href="../../d7/d3b/group__hash.html#ga049d44b5a4804ca5a1b7a290f3fa3202" target="_top" xlink:title="blake2b mixing function G">
<polygon fill="white" stroke="#666666" points="248,-56 219,-56 219,-37 248,-37 248,-56"/>
<text text-anchor="middle" x="233.5" y="-44" font-family="Helvetica,sans-Serif" font-size="10.00">G</text>
</a>
</g>
</g>
<!-- Node2&#45;&gt;Node3 -->
<g id="edge2" class="edge">
<title>Node2&#45;&gt;Node3</title>
<path fill="none" stroke="#63b8ff" d="M154.9,-46.5C168.95,-46.5 190.97,-46.5 207.97,-46.5"/>
<polygon fill="#63b8ff" stroke="#63b8ff" points="207.77,-50 217.77,-46.5 207.77,-43 207.77,-50"/>
</g>
</g>
</svg>
