<?xml version="1.0" encoding="UTF-8" standalone="no"?>
<!DOCTYPE svg PUBLIC "-//W3C//DTD SVG 1.1//EN"
 "http://www.w3.org/Graphics/SVG/1.1/DTD/svg11.dtd">
<!-- Generated by graphviz version 8.0.2 (20230410.1723)
 -->
<!-- Title: postProcessing Pages: 1 -->
<svg width="192pt" height="64pt"
 viewBox="0.00 0.00 192.00 64.00" xmlns="http://www.w3.org/2000/svg" xmlns:xlink="http://www.w3.org/1999/xlink">
<g id="graph0" class="graph" transform="scale(1 1) rotate(0) translate(4 60)">
<title>postProcessing</title>
<!-- Node1 -->
<g id="node1" class="node">
<title>Node1</title>
<g id="a_node1"><a xlink:title="performs postprocessing on a compiled NFA, add circular empty character transition rules where it&#39;s n...">
<polygon fill="#999999" stroke="#666666" points="84,-37 0,-37 0,-18 84,-18 84,-37"/>
<text text-anchor="middle" x="42" y="-25" font-family="Helvetica,sans-Serif" font-size="10.00">postProcessing</text>
</a>
</g>
</g>
<!-- Node1&#45;&gt;Node1 -->
<g id="edge3" class="edge">
<title>Node1&#45;&gt;Node1</title>
<path fill="none" stroke="#63b8ff" d="M24.78,-37.37C16.92,-45.94 22.66,-55 42,-55 53.18,-55 59.81,-51.97 61.9,-47.76"/>
<polygon fill="#63b8ff" stroke="#63b8ff" points="65.11,-47.18 59.22,-38.37 58.33,-48.93 65.11,-47.18"/>
</g>
<!-- Node2 -->
<g id="node2" class="node">
<title>Node2</title>
<g id="a_node2"><a xlink:href="../../dd/d2e/mcnaughton__yamada__thompson_8c.html#a4ed0049e15d45e0d75a991fbb6f8963c" target="_top" xlink:title="adds a transition rule to a NFA">
<polygon fill="white" stroke="#666666" points="178.5,-56 125.5,-56 125.5,-37 178.5,-37 178.5,-56"/>
<text text-anchor="middle" x="152" y="-44" font-family="Helvetica,sans-Serif" font-size="10.00">addRule</text>
</a>
</g>
</g>
<!-- Node1&#45;&gt;Node2 -->
<g id="edge1" class="edge">
<title>Node1&#45;&gt;Node2</title>
<path fill="none" stroke="#63b8ff" d="M84.45,-34.79C94.28,-36.52 104.7,-38.36 114.31,-40.04"/>
<polygon fill="#63b8ff" stroke="#63b8ff" points="113.67,-43.66 124.12,-41.95 114.88,-36.77 113.67,-43.66"/>
</g>
<!-- Node3 -->
<g id="node3" class="node">
<title>Node3</title>
<g id="a_node3"><a xlink:href="../../dd/d2e/mcnaughton__yamada__thompson_8c.html#a0b8d037bf2841dede90be41f5fe1ccdc" target="_top" xlink:title="creates and initializes a transition rule">
<polygon fill="white" stroke="#666666" points="184,-19 120,-19 120,0 184,0 184,-19"/>
<text text-anchor="middle" x="152" y="-7" font-family="Helvetica,sans-Serif" font-size="10.00">createRule</text>
</a>
</g>
</g>
<!-- Node1&#45;&gt;Node3 -->
<g id="edge2" class="edge">
<title>Node1&#45;&gt;Node3</title>
<path fill="none" stroke="#63b8ff" d="M84.45,-20.59C92.46,-19.26 100.87,-17.86 108.9,-16.52"/>
<polygon fill="#63b8ff" stroke="#63b8ff" points="109.27,-19.84 118.56,-14.74 108.12,-12.93 109.27,-19.84"/>
</g>
</g>
</svg>
