<?xml version="1.0" encoding="UTF-8" standalone="no"?>
<!DOCTYPE svg PUBLIC "-//W3C//DTD SVG 1.1//EN"
 "http://www.w3.org/Graphics/SVG/1.1/DTD/svg11.dtd">
<!-- Generated by graphviz version 8.0.2 (20230410.1723)
 -->
<!-- Title: transit Pages: 1 -->
<svg width="238pt" height="56pt"
 viewBox="0.00 0.00 238.00 56.05" xmlns="http://www.w3.org/2000/svg" xmlns:xlink="http://www.w3.org/1999/xlink">
<g id="graph0" class="graph" transform="scale(1 1) rotate(0) translate(4 52.05)">
<title>transit</title>
<!-- Node1 -->
<g id="node1" class="node">
<title>Node1</title>
<g id="a_node1"><a xlink:title="moves a NFA forward">
<polygon fill="#999999" stroke="#666666" points="44,-47 0,-47 0,-28 44,-28 44,-47"/>
<text text-anchor="middle" x="22" y="-35" font-family="Helvetica,sans-Serif" font-size="10.00">transit</text>
</a>
</g>
</g>
<!-- Node2 -->
<g id="node2" class="node">
<title>Node2</title>
<g id="a_node2"><a xlink:href="../../dd/d2e/mcnaughton__yamada__thompson_8c.html#a709e32f5905536216abb03efb4f4db2b" target="_top" xlink:title="helper function to determine an element&#39;s presence in an array">
<polygon fill="white" stroke="#666666" points="230,-47 177,-47 177,-28 230,-28 230,-47"/>
<text text-anchor="middle" x="203.5" y="-35" font-family="Helvetica,sans-Serif" font-size="10.00">contains</text>
</a>
</g>
</g>
<!-- Node1&#45;&gt;Node2 -->
<g id="edge1" class="edge">
<title>Node1&#45;&gt;Node2</title>
<path fill="none" stroke="#63b8ff" d="M44.29,-41.67C54.96,-43.56 68.11,-45.57 80,-46.5 107.03,-48.62 113.96,-48.47 141,-46.5 149.07,-45.91 157.68,-44.9 165.83,-43.76"/>
<polygon fill="#63b8ff" stroke="#63b8ff" points="166.19,-47.09 175.56,-42.15 165.15,-40.17 166.19,-47.09"/>
</g>
<!-- Node3 -->
<g id="node3" class="node">
<title>Node3</title>
<g id="a_node3"><a xlink:href="../../dd/d2e/mcnaughton__yamada__thompson_8c.html#a34774f1859a742ea1c3eaf3f6726b66c" target="_top" xlink:title="helper function to manage empty character transitions">
<polygon fill="white" stroke="#666666" points="141,-19 80,-19 80,0 141,0 141,-19"/>
<text text-anchor="middle" x="110.5" y="-7" font-family="Helvetica,sans-Serif" font-size="10.00">findEmpty</text>
</a>
</g>
</g>
<!-- Node1&#45;&gt;Node3 -->
<g id="edge2" class="edge">
<title>Node1&#45;&gt;Node3</title>
<path fill="none" stroke="#63b8ff" d="M44.38,-30.58C51.92,-28.14 60.67,-25.31 69.25,-22.53"/>
<polygon fill="#63b8ff" stroke="#63b8ff" points="70.12,-25.6 78.55,-19.19 67.96,-18.94 70.12,-25.6"/>
</g>
<!-- Node3&#45;&gt;Node2 -->
<g id="edge3" class="edge">
<title>Node3&#45;&gt;Node2</title>
<path fill="none" stroke="#63b8ff" d="M141.3,-18.67C149.23,-21.11 157.88,-23.77 166.12,-26.31"/>
<polygon fill="#63b8ff" stroke="#63b8ff" points="165.03,-29.94 175.61,-29.53 167.08,-23.25 165.03,-29.94"/>
</g>
<!-- Node3&#45;&gt;Node3 -->
<g id="edge4" class="edge">
<title>Node3&#45;&gt;Node3</title>
<path fill="none" stroke="#63b8ff" d="M96.64,-19.37C90.32,-27.94 94.94,-37 110.5,-37 119.25,-37 124.54,-34.13 126.37,-30.1"/>
<polygon fill="#63b8ff" stroke="#63b8ff" points="129.64,-29.55 124.36,-20.37 122.76,-30.84 129.64,-29.55"/>
</g>
</g>
</svg>
