<?xml version="1.0" encoding="UTF-8" standalone="no"?>
<!DOCTYPE svg PUBLIC "-//W3C//DTD SVG 1.1//EN"
 "http://www.w3.org/Graphics/SVG/1.1/DTD/svg11.dtd">
<!-- Generated by graphviz version 8.0.2 (20230410.1723)
 -->
<!-- Title: testHelper Pages: 1 -->
<svg width="387pt" height="435pt"
 viewBox="0.00 0.00 387.00 435.00" xmlns="http://www.w3.org/2000/svg" xmlns:xlink="http://www.w3.org/1999/xlink">
<g id="graph0" class="graph" transform="scale(1 1) rotate(0) translate(4 431)">
<title>testHelper</title>
<!-- Node1 -->
<g id="node1" class="node">
<title>Node1</title>
<g id="a_node1"><a xlink:title="Testing helper function.">
<polygon fill="#999999" stroke="#666666" points="62,-219 0,-219 0,-200 62,-200 62,-219"/>
<text text-anchor="middle" x="31" y="-207" font-family="Helvetica,sans-Serif" font-size="10.00">testHelper</text>
</a>
</g>
</g>
<!-- Node2 -->
<g id="node2" class="node">
<title>Node2</title>
<g id="a_node2"><a xlink:href="../../dd/d2e/mcnaughton__yamada__thompson_8c.html#a496e9b4e45417ac56dac40bbbb769d7a" target="_top" xlink:title="recursively constructs a AST from a preprocessed regex string">
<polygon fill="white" stroke="#666666" points="168,-335 112,-335 112,-316 168,-316 168,-335"/>
<text text-anchor="middle" x="140" y="-323" font-family="Helvetica,sans-Serif" font-size="10.00">buildAST</text>
</a>
</g>
</g>
<!-- Node1&#45;&gt;Node2 -->
<g id="edge1" class="edge">
<title>Node1&#45;&gt;Node2</title>
<path fill="none" stroke="#63b8ff" d="M40.41,-219.2C52.82,-233.46 76.86,-260.85 98,-283.5 105.66,-291.71 114.32,-300.63 121.7,-308.13"/>
<polygon fill="#63b8ff" stroke="#63b8ff" points="118.58,-309.96 128.1,-314.61 123.55,-305.04 118.58,-309.96"/>
</g>
<!-- Node4 -->
<g id="node4" class="node">
<title>Node4</title>
<g id="a_node4"><a xlink:href="../../dd/d2e/mcnaughton__yamada__thompson_8c.html#a6a97ab2db6392f262b03370689872348" target="_top" xlink:title="recursively destroys a AST">
<polygon fill="white" stroke="#666666" points="290,-409 218,-409 218,-390 290,-390 290,-409"/>
<text text-anchor="middle" x="254" y="-397" font-family="Helvetica,sans-Serif" font-size="10.00">destroyNode</text>
</a>
</g>
</g>
<!-- Node1&#45;&gt;Node4 -->
<g id="edge13" class="edge">
<title>Node1&#45;&gt;Node4</title>
<path fill="none" stroke="#63b8ff" d="M33.18,-219.14C37.01,-246.24 51.72,-323.6 98,-362.5 128.25,-387.93 173.01,-396.5 206.66,-399.11"/>
<polygon fill="#63b8ff" stroke="#63b8ff" points="206.41,-402.66 216.61,-399.78 206.84,-395.67 206.41,-402.66"/>
</g>
<!-- Node8 -->
<g id="node8" class="node">
<title>Node8</title>
<g id="a_node8"><a xlink:href="../../dd/d2e/mcnaughton__yamada__thompson_8c.html#a684ed3494e22ee17d7b3e19a4d1fe977" target="_top" xlink:title="recursively destroys a NFA">
<polygon fill="white" stroke="#666666" points="174.5,-256 105.5,-256 105.5,-237 174.5,-237 174.5,-256"/>
<text text-anchor="middle" x="140" y="-244" font-family="Helvetica,sans-Serif" font-size="10.00">destroyNFA</text>
</a>
</g>
</g>
<!-- Node1&#45;&gt;Node8 -->
<g id="edge9" class="edge">
<title>Node1&#45;&gt;Node8</title>
<path fill="none" stroke="#63b8ff" d="M60.67,-219.42C72.79,-223.6 87.08,-228.55 100.12,-233.06"/>
<polygon fill="#63b8ff" stroke="#63b8ff" points="98.65,-236.6 109.25,-236.56 100.94,-229.98 98.65,-236.6"/>
</g>
<!-- Node11 -->
<g id="node11" class="node">
<title>Node11</title>
<g id="a_node11"><a xlink:href="../../dd/d2e/mcnaughton__yamada__thompson_8c.html#a2dabcd5c410a4b0cac1b4ab378c9dcdc" target="_top" xlink:title="determines whether the NFA is currently in its accepting state">
<polygon fill="white" stroke="#666666" points="174,-219 106,-219 106,-200 174,-200 174,-219"/>
<text text-anchor="middle" x="140" y="-207" font-family="Helvetica,sans-Serif" font-size="10.00">isAccepting</text>
</a>
</g>
</g>
<!-- Node1&#45;&gt;Node11 -->
<g id="edge14" class="edge">
<title>Node1&#45;&gt;Node11</title>
<path fill="none" stroke="#63b8ff" d="M62.38,-209.5C72.48,-209.5 83.94,-209.5 94.87,-209.5"/>
<polygon fill="#63b8ff" stroke="#63b8ff" points="94.54,-213 104.54,-209.5 94.54,-206 94.54,-213"/>
</g>
<!-- Node12 -->
<g id="node12" class="node">
<title>Node12</title>
<g id="a_node12"><a xlink:href="../../dd/d2e/mcnaughton__yamada__thompson_8c.html#a86e0f235783b005e4e6e951c9603bbe1" target="_top" xlink:title="performs postprocessing on a compiled NFA, add circular empty character transition rules where it&#39;s n...">
<polygon fill="white" stroke="#666666" points="182,-164 98,-164 98,-145 182,-145 182,-164"/>
<text text-anchor="middle" x="140" y="-152" font-family="Helvetica,sans-Serif" font-size="10.00">postProcessing</text>
</a>
</g>
</g>
<!-- Node1&#45;&gt;Node12 -->
<g id="edge15" class="edge">
<title>Node1&#45;&gt;Node12</title>
<path fill="none" stroke="#63b8ff" d="M51.13,-199.67C67.54,-191.23 91.42,-178.96 110.15,-169.33"/>
<polygon fill="#63b8ff" stroke="#63b8ff" points="111.38,-172.12 118.68,-164.43 108.18,-165.89 111.38,-172.12"/>
</g>
<!-- Node15 -->
<g id="node15" class="node">
<title>Node15</title>
<g id="a_node15"><a xlink:href="../../dd/d2e/mcnaughton__yamada__thompson_8c.html#ae9a5eac7c0d8ac478eb1b97529638fb6" target="_top" xlink:title="performs preprocessing on a regex string, making all implicit concatenations explicit">
<polygon fill="white" stroke="#666666" points="179.5,-122 100.5,-122 100.5,-103 179.5,-103 179.5,-122"/>
<text text-anchor="middle" x="140" y="-110" font-family="Helvetica,sans-Serif" font-size="10.00">preProcessing</text>
</a>
</g>
</g>
<!-- Node1&#45;&gt;Node15 -->
<g id="edge19" class="edge">
<title>Node1&#45;&gt;Node15</title>
<path fill="none" stroke="#63b8ff" d="M39.31,-199.64C50.69,-184.74 73.87,-156.12 98,-136.5 101.77,-133.43 105.98,-130.5 110.23,-127.81"/>
<polygon fill="#63b8ff" stroke="#63b8ff" points="111.62,-130.46 118.43,-122.34 108.04,-124.45 111.62,-130.46"/>
</g>
<!-- Node17 -->
<g id="node17" class="node">
<title>Node17</title>
<g id="a_node17"><a xlink:href="../../dd/d2e/mcnaughton__yamada__thompson_8c.html#aebe16fbf12c8ac089501ebcae6f0c050" target="_top" xlink:title="moves a NFA forward">
<polygon fill="white" stroke="#666666" points="162,-75 118,-75 118,-56 162,-56 162,-75"/>
<text text-anchor="middle" x="140" y="-63" font-family="Helvetica,sans-Serif" font-size="10.00">transit</text>
</a>
</g>
</g>
<!-- Node1&#45;&gt;Node17 -->
<g id="edge21" class="edge">
<title>Node1&#45;&gt;Node17</title>
<path fill="none" stroke="#63b8ff" d="M35.91,-199.66C44.62,-178.57 67.33,-128.22 98,-94.5 102.36,-89.71 107.64,-85.25 112.95,-81.35"/>
<polygon fill="#63b8ff" stroke="#63b8ff" points="114.46,-83.86 120.73,-75.32 110.5,-78.09 114.46,-83.86"/>
</g>
<!-- Node2&#45;&gt;Node2 -->
<g id="edge2" class="edge">
<title>Node2&#45;&gt;Node2</title>
<path fill="none" stroke="#63b8ff" d="M122.94,-335.37C115.15,-343.94 120.84,-353 140,-353 151.08,-353 157.65,-349.97 159.72,-345.76"/>
<polygon fill="#63b8ff" stroke="#63b8ff" points="162.93,-345.19 157.06,-336.37 156.15,-346.92 162.93,-345.19"/>
</g>
<!-- Node3 -->
<g id="node3" class="node">
<title>Node3</title>
<g id="a_node3"><a xlink:href="../../dd/d2e/mcnaughton__yamada__thompson_8c.html#a12df013d848665fdcdcb01870c322af6" target="_top" xlink:title="creates and initializes a AST node">
<polygon fill="white" stroke="#666666" points="287.5,-372 220.5,-372 220.5,-353 287.5,-353 287.5,-372"/>
<text text-anchor="middle" x="254" y="-360" font-family="Helvetica,sans-Serif" font-size="10.00">createNode</text>
</a>
</g>
</g>
<!-- Node2&#45;&gt;Node3 -->
<g id="edge3" class="edge">
<title>Node2&#45;&gt;Node3</title>
<path fill="none" stroke="#63b8ff" d="M168.4,-334.55C181.63,-338.92 197.79,-344.26 212.41,-349.09"/>
<polygon fill="#63b8ff" stroke="#63b8ff" points="211.14,-352.69 221.73,-352.5 213.34,-346.04 211.14,-352.69"/>
</g>
<!-- Node2&#45;&gt;Node4 -->
<g id="edge4" class="edge">
<title>Node2&#45;&gt;Node4</title>
<path fill="none" stroke="#63b8ff" d="M153.39,-335.43C168.27,-347.14 194.21,-366.85 218,-381.5 219.56,-382.46 221.18,-383.42 222.82,-384.36"/>
<polygon fill="#63b8ff" stroke="#63b8ff" points="220.89,-387.84 231.35,-389.55 224.24,-381.69 220.89,-387.84"/>
</g>
<!-- Node5 -->
<g id="node5" class="node">
<title>Node5</title>
<g id="a_node5"><a xlink:href="../../dd/d2e/mcnaughton__yamada__thompson_8c.html#aab463320a19667bd604db2405abefd55" target="_top" xlink:title="utility function to locate the first occurrence of a character in a string while respecting parenthes...">
<polygon fill="white" stroke="#666666" points="279,-335 229,-335 229,-316 279,-316 279,-335"/>
<text text-anchor="middle" x="254" y="-323" font-family="Helvetica,sans-Serif" font-size="10.00">indexOf</text>
</a>
</g>
</g>
<!-- Node2&#45;&gt;Node5 -->
<g id="edge6" class="edge">
<title>Node2&#45;&gt;Node5</title>
<path fill="none" stroke="#63b8ff" d="M168.4,-325.5C183.34,-325.5 202,-325.5 217.99,-325.5"/>
<polygon fill="#63b8ff" stroke="#63b8ff" points="217.55,-329 227.55,-325.5 217.55,-322 217.55,-329"/>
</g>
<!-- Node6 -->
<g id="node6" class="node">
<title>Node6</title>
<g id="a_node6"><a xlink:href="../../dd/d2e/mcnaughton__yamada__thompson_8c.html#a072d13f905ab9438d38d7415df222817" target="_top" xlink:title="utility function to create a subString">
<polygon fill="white" stroke="#666666" points="283,-298 225,-298 225,-279 283,-279 283,-298"/>
<text text-anchor="middle" x="254" y="-286" font-family="Helvetica,sans-Serif" font-size="10.00">subString</text>
</a>
</g>
</g>
<!-- Node2&#45;&gt;Node6 -->
<g id="edge7" class="edge">
<title>Node2&#45;&gt;Node6</title>
<path fill="none" stroke="#63b8ff" d="M168.4,-316.45C182.29,-311.86 199.39,-306.21 214.57,-301.19"/>
<polygon fill="#63b8ff" stroke="#63b8ff" points="215.32,-304.3 223.72,-297.84 213.12,-297.66 215.32,-304.3"/>
</g>
<!-- Node4&#45;&gt;Node4 -->
<g id="edge5" class="edge">
<title>Node4&#45;&gt;Node4</title>
<path fill="none" stroke="#63b8ff" d="M238.58,-409.37C231.55,-417.94 236.69,-427 254,-427 263.74,-427 269.63,-424.13 271.66,-420.1"/>
<polygon fill="#63b8ff" stroke="#63b8ff" points="274.89,-419.44 269.42,-410.37 268.04,-420.87 274.89,-419.44"/>
</g>
<!-- Node7 -->
<g id="node7" class="node">
<title>Node7</title>
<g id="a_node7"><a xlink:href="../../df/dfa/vector_8c.html#a1afee8aaf33d741df31a73048cff4473" target="_top" xlink:title="This function returns the pointer to the begining of the Vector.">
<polygon fill="white" stroke="#666666" points="372.5,-298 332.5,-298 332.5,-279 372.5,-279 372.5,-298"/>
<text text-anchor="middle" x="352.5" y="-286" font-family="Helvetica,sans-Serif" font-size="10.00">begin</text>
</a>
</g>
</g>
<!-- Node6&#45;&gt;Node7 -->
<g id="edge8" class="edge">
<title>Node6&#45;&gt;Node7</title>
<path fill="none" stroke="#63b8ff" d="M283.43,-288.5C295.31,-288.5 309.13,-288.5 321.21,-288.5"/>
<polygon fill="#63b8ff" stroke="#63b8ff" points="321.12,-292 331.12,-288.5 321.12,-285 321.12,-292"/>
</g>
<!-- Node8&#45;&gt;Node8 -->
<g id="edge10" class="edge">
<title>Node8&#45;&gt;Node8</title>
<path fill="none" stroke="#63b8ff" d="M122.94,-256.37C115.15,-264.94 120.84,-274 140,-274 151.08,-274 157.65,-270.97 159.72,-266.76"/>
<polygon fill="#63b8ff" stroke="#63b8ff" points="162.93,-266.19 157.06,-257.37 156.15,-267.92 162.93,-266.19"/>
</g>
<!-- Node9 -->
<g id="node9" class="node">
<title>Node9</title>
<g id="a_node9"><a xlink:href="../../dd/d2e/mcnaughton__yamada__thompson_8c.html#ade1398311f666988b895f41c3e36d70e" target="_top" xlink:title="destroys a transition rule object">
<polygon fill="white" stroke="#666666" points="288.5,-261 219.5,-261 219.5,-242 288.5,-242 288.5,-261"/>
<text text-anchor="middle" x="254" y="-249" font-family="Helvetica,sans-Serif" font-size="10.00">destroyRule</text>
</a>
</g>
</g>
<!-- Node8&#45;&gt;Node9 -->
<g id="edge11" class="edge">
<title>Node8&#45;&gt;Node9</title>
<path fill="none" stroke="#63b8ff" d="M174.91,-248.01C185.43,-248.48 197.2,-249.01 208.34,-249.51"/>
<polygon fill="#63b8ff" stroke="#63b8ff" points="208.06,-253.04 218.21,-249.99 208.37,-246.05 208.06,-253.04"/>
</g>
<!-- Node10 -->
<g id="node10" class="node">
<title>Node10</title>
<g id="a_node10"><a xlink:href="../../dd/d2e/mcnaughton__yamada__thompson_8c.html#a9a361f55b51ce6d677e907396fbc1652" target="_top" xlink:title="destroys a NFA state">
<polygon fill="white" stroke="#666666" points="290,-224 218,-224 218,-205 290,-205 290,-224"/>
<text text-anchor="middle" x="254" y="-212" font-family="Helvetica,sans-Serif" font-size="10.00">destroyState</text>
</a>
</g>
</g>
<!-- Node8&#45;&gt;Node10 -->
<g id="edge12" class="edge">
<title>Node8&#45;&gt;Node10</title>
<path fill="none" stroke="#63b8ff" d="M174.91,-236.81C185.25,-233.86 196.79,-230.56 207.76,-227.43"/>
<polygon fill="#63b8ff" stroke="#63b8ff" points="208.39,-230.6 217.04,-224.49 206.47,-223.87 208.39,-230.6"/>
</g>
<!-- Node12&#45;&gt;Node12 -->
<g id="edge18" class="edge">
<title>Node12&#45;&gt;Node12</title>
<path fill="none" stroke="#63b8ff" d="M122.94,-164.37C115.15,-172.94 120.84,-182 140,-182 151.08,-182 157.65,-178.97 159.72,-174.76"/>
<polygon fill="#63b8ff" stroke="#63b8ff" points="162.93,-174.19 157.06,-165.37 156.15,-175.92 162.93,-174.19"/>
</g>
<!-- Node13 -->
<g id="node13" class="node">
<title>Node13</title>
<g id="a_node13"><a xlink:href="../../dd/d2e/mcnaughton__yamada__thompson_8c.html#a4ed0049e15d45e0d75a991fbb6f8963c" target="_top" xlink:title="adds a transition rule to a NFA">
<polygon fill="white" stroke="#666666" points="280.5,-187 227.5,-187 227.5,-168 280.5,-168 280.5,-187"/>
<text text-anchor="middle" x="254" y="-175" font-family="Helvetica,sans-Serif" font-size="10.00">addRule</text>
</a>
</g>
</g>
<!-- Node12&#45;&gt;Node13 -->
<g id="edge16" class="edge">
<title>Node12&#45;&gt;Node13</title>
<path fill="none" stroke="#63b8ff" d="M182.39,-163C193.6,-165.3 205.66,-167.78 216.58,-170.02"/>
<polygon fill="#63b8ff" stroke="#63b8ff" points="215.55,-173.59 226.05,-172.17 216.96,-166.73 215.55,-173.59"/>
</g>
<!-- Node14 -->
<g id="node14" class="node">
<title>Node14</title>
<g id="a_node14"><a xlink:href="../../dd/d2e/mcnaughton__yamada__thompson_8c.html#a0b8d037bf2841dede90be41f5fe1ccdc" target="_top" xlink:title="creates and initializes a transition rule">
<polygon fill="white" stroke="#666666" points="286,-150 222,-150 222,-131 286,-131 286,-150"/>
<text text-anchor="middle" x="254" y="-138" font-family="Helvetica,sans-Serif" font-size="10.00">createRule</text>
</a>
</g>
</g>
<!-- Node12&#45;&gt;Node14 -->
<g id="edge17" class="edge">
<title>Node12&#45;&gt;Node14</title>
<path fill="none" stroke="#63b8ff" d="M182.39,-149.33C191.7,-148.16 201.6,-146.93 210.94,-145.76"/>
<polygon fill="#63b8ff" stroke="#63b8ff" points="211.1,-149.14 220.59,-144.43 210.23,-142.19 211.1,-149.14"/>
</g>
<!-- Node16 -->
<g id="node16" class="node">
<title>Node16</title>
<g id="a_node16"><a xlink:href="../../dd/d2e/mcnaughton__yamada__thompson_8c.html#a6eaf52853f2b39a1299cc16972a3298e" target="_top" xlink:title="helper function to determine whether a character should be considered a character literal">
<polygon fill="white" stroke="#666666" points="279,-113 229,-113 229,-94 279,-94 279,-113"/>
<text text-anchor="middle" x="254" y="-101" font-family="Helvetica,sans-Serif" font-size="10.00">isLiteral</text>
</a>
</g>
</g>
<!-- Node15&#45;&gt;Node16 -->
<g id="edge20" class="edge">
<title>Node15&#45;&gt;Node16</title>
<path fill="none" stroke="#63b8ff" d="M179.86,-109.38C192.24,-108.38 205.86,-107.29 217.96,-106.32"/>
<polygon fill="#63b8ff" stroke="#63b8ff" points="217.87,-109.75 227.56,-105.46 217.31,-102.78 217.87,-109.75"/>
</g>
<!-- Node18 -->
<g id="node18" class="node">
<title>Node18</title>
<g id="a_node18"><a xlink:href="../../dd/d2e/mcnaughton__yamada__thompson_8c.html#a709e32f5905536216abb03efb4f4db2b" target="_top" xlink:title="helper function to determine an element&#39;s presence in an array">
<polygon fill="white" stroke="#666666" points="379,-47 326,-47 326,-28 379,-28 379,-47"/>
<text text-anchor="middle" x="352.5" y="-35" font-family="Helvetica,sans-Serif" font-size="10.00">contains</text>
</a>
</g>
</g>
<!-- Node17&#45;&gt;Node18 -->
<g id="edge22" class="edge">
<title>Node17&#45;&gt;Node18</title>
<path fill="none" stroke="#63b8ff" d="M162.24,-62.92C191.15,-59.37 244.53,-52.73 290,-46.5 298.09,-45.39 306.76,-44.15 314.97,-42.96"/>
<polygon fill="#63b8ff" stroke="#63b8ff" points="315.4,-46.29 324.78,-41.37 314.38,-39.36 315.4,-46.29"/>
</g>
<!-- Node19 -->
<g id="node19" class="node">
<title>Node19</title>
<g id="a_node19"><a xlink:href="../../dd/d2e/mcnaughton__yamada__thompson_8c.html#a34774f1859a742ea1c3eaf3f6726b66c" target="_top" xlink:title="helper function to manage empty character transitions">
<polygon fill="white" stroke="#666666" points="284.5,-19 223.5,-19 223.5,0 284.5,0 284.5,-19"/>
<text text-anchor="middle" x="254" y="-7" font-family="Helvetica,sans-Serif" font-size="10.00">findEmpty</text>
</a>
</g>
</g>
<!-- Node17&#45;&gt;Node19 -->
<g id="edge23" class="edge">
<title>Node17&#45;&gt;Node19</title>
<path fill="none" stroke="#63b8ff" d="M160.77,-55.62C178.09,-46.95 203.53,-34.24 223.3,-24.35"/>
<polygon fill="#63b8ff" stroke="#63b8ff" points="224.68,-27.08 232.06,-19.47 221.55,-20.81 224.68,-27.08"/>
</g>
<!-- Node19&#45;&gt;Node18 -->
<g id="edge24" class="edge">
<title>Node19&#45;&gt;Node18</title>
<path fill="none" stroke="#63b8ff" d="M284.74,-18.13C294.34,-20.91 305.09,-24.03 315.11,-26.94"/>
<polygon fill="#63b8ff" stroke="#63b8ff" points="314.03,-30.56 324.61,-29.99 315.98,-23.84 314.03,-30.56"/>
</g>
<!-- Node19&#45;&gt;Node19 -->
<g id="edge25" class="edge">
<title>Node19&#45;&gt;Node19</title>
<path fill="none" stroke="#63b8ff" d="M238.58,-19.37C231.55,-27.94 236.69,-37 254,-37 263.74,-37 269.63,-34.13 271.66,-30.1"/>
<polygon fill="#63b8ff" stroke="#63b8ff" points="274.89,-29.44 269.42,-20.37 268.04,-30.87 274.89,-29.44"/>
</g>
</g>
</svg>
