<?xml version="1.0" encoding="UTF-8" standalone="no"?>
<!DOCTYPE svg PUBLIC "-//W3C//DTD SVG 1.1//EN"
 "http://www.w3.org/Graphics/SVG/1.1/DTD/svg11.dtd">
<!-- Generated by graphviz version 8.0.2 (20230410.1723)
 -->
<!-- Title: main Pages: 1 -->
<!--zoomable 435 -->
<svg id="main" version="1.1" xmlns="http://www.w3.org/2000/svg" xmlns:xlink="http://www.w3.org/1999/xlink" xml:space="preserve" onload="init(evt)">
<style type="text/css"><![CDATA[
.edge:hover path { stroke: red; }
.edge:hover polygon { stroke: red; fill: red; }
]]></style>
<script type="text/javascript"><![CDATA[
var edges = document.getElementsByTagName('g');
if (edges && edges.length) {
  for (var i=0;i<edges.length;i++) {
    if (edges[i].id.substr(0,4)=='edge') {
      edges[i].setAttribute('class','edge');
    }
  }
}
]]></script>
        <defs>
                <circle id="rim" cx="0" cy="0" r="7"/>
                <circle id="rim2" cx="0" cy="0" r="3.5"/>
                <g id="zoomPlus">
                        <use xlink:href="#rim" fill="#404040">
                                <set attributeName="fill" to="#808080" begin="zoomplus.mouseover" end="zoomplus.mouseout"/>
                        </use>
                        <path d="M-4,0h8M0,-4v8" fill="none" stroke="white" stroke-width="1.5" pointer-events="none"/>
                </g>
                <g id="zoomMin">
                        <use xlink:href="#rim" fill="#404040">
                                <set attributeName="fill" to="#808080" begin="zoomminus.mouseover" end="zoomminus.mouseout"/>
                        </use>
                        <path d="M-4,0h8" fill="none" stroke="white" stroke-width="1.5" pointer-events="none"/>
                </g>
                <g id="dirArrow">
                        <path fill="none" stroke="white" stroke-width="1.5" d="M0,-3.0v7 M-2.5,-0.5L0,-3.0L2.5,-0.5"/>
                </g>
               <g id="resetDef">
                       <use xlink:href="#rim2" fill="#404040">
                               <set attributeName="fill" to="#808080" begin="reset.mouseover" end="reset.mouseout"/>
                       </use>
               </g>
        </defs>

<script type="text/javascript">
var viewWidth = 530;
var viewHeight = 435;
var sectionId = 'dynsection-6';
</script>
<script xlink:href="../../svgpan.js"/>
<svg id="graph" class="graph">
<g id="viewport">
<title>main</title>
<!-- Node1 -->
<g id="node1" class="node">
<title>Node1</title>
<g id="a_node1"><a xlink:title="Main function.">
<polygon fill="#999999" stroke="#666666" points="38,-219 0,-219 0,-200 38,-200 38,-219"/>
<text text-anchor="middle" x="19" y="-207" font-family="Helvetica,sans-Serif" font-size="10.00">main</text>
</a>
</g>
</g>
<!-- Node2 -->
<g id="node2" class="node">
<title>Node2</title>
<g id="a_node2"><a xlink:href="../../dd/d2e/mcnaughton__yamada__thompson_8c.html#a13eda00dd5efd9440b0eaf5430b73e84" target="_top" xlink:title="Self&#45;test implementations.">
<polygon fill="white" stroke="#666666" points="107,-219 74,-219 74,-200 107,-200 107,-219"/>
<text text-anchor="middle" x="90.5" y="-207" font-family="Helvetica,sans-Serif" font-size="10.00">test</text>
</a>
</g>
</g>
<!-- Node1&#45;&gt;Node2 -->
<g id="edge1" class="edge">
<title>Node1&#45;&gt;Node2</title>
<path fill="none" stroke="#63b8ff" d="M38.26,-209.5C45.89,-209.5 54.9,-209.5 63.23,-209.5"/>
<polygon fill="#63b8ff" stroke="#63b8ff" points="62.95,-213 72.95,-209.5 62.95,-206 62.95,-213"/>
</g>
<!-- Node3 -->
<g id="node3" class="node">
<title>Node3</title>
<g id="a_node3"><a xlink:href="../../dd/d2e/mcnaughton__yamada__thompson_8c.html#a38faadeab39bb48716f1065bc05abec8" target="_top" xlink:title="Testing helper function.">
<polygon fill="white" stroke="#666666" points="205,-219 143,-219 143,-200 205,-200 205,-219"/>
<text text-anchor="middle" x="174" y="-207" font-family="Helvetica,sans-Serif" font-size="10.00">testHelper</text>
</a>
</g>
</g>
<!-- Node2&#45;&gt;Node3 -->
<g id="edge2" class="edge">
<title>Node2&#45;&gt;Node3</title>
<path fill="none" stroke="#63b8ff" d="M107.21,-209.5C114.3,-209.5 123.05,-209.5 131.81,-209.5"/>
<polygon fill="#63b8ff" stroke="#63b8ff" points="131.81,-213 141.81,-209.5 131.81,-206 131.81,-213"/>
</g>
<!-- Node4 -->
<g id="node4" class="node">
<title>Node4</title>
<g id="a_node4"><a xlink:href="../../dd/d2e/mcnaughton__yamada__thompson_8c.html#a496e9b4e45417ac56dac40bbbb769d7a" target="_top" xlink:title="recursively constructs a AST from a preprocessed regex string">
<polygon fill="white" stroke="#666666" points="311,-335 255,-335 255,-316 311,-316 311,-335"/>
<text text-anchor="middle" x="283" y="-323" font-family="Helvetica,sans-Serif" font-size="10.00">buildAST</text>
</a>
</g>
</g>
<!-- Node3&#45;&gt;Node4 -->
<g id="edge3" class="edge">
<title>Node3&#45;&gt;Node4</title>
<path fill="none" stroke="#63b8ff" d="M183.41,-219.2C195.82,-233.46 219.86,-260.85 241,-283.5 248.66,-291.71 257.32,-300.63 264.7,-308.13"/>
<polygon fill="#63b8ff" stroke="#63b8ff" points="261.58,-309.96 271.1,-314.61 266.55,-305.04 261.58,-309.96"/>
</g>
<!-- Node6 -->
<g id="node6" class="node">
<title>Node6</title>
<g id="a_node6"><a xlink:href="../../dd/d2e/mcnaughton__yamada__thompson_8c.html#a6a97ab2db6392f262b03370689872348" target="_top" xlink:title="recursively destroys a AST">
<polygon fill="white" stroke="#666666" points="433,-409 361,-409 361,-390 433,-390 433,-409"/>
<text text-anchor="middle" x="397" y="-397" font-family="Helvetica,sans-Serif" font-size="10.00">destroyNode</text>
</a>
</g>
</g>
<!-- Node3&#45;&gt;Node6 -->
<g id="edge15" class="edge">
<title>Node3&#45;&gt;Node6</title>
<path fill="none" stroke="#63b8ff" d="M176.18,-219.14C180.01,-246.24 194.72,-323.6 241,-362.5 271.25,-387.93 316.01,-396.5 349.66,-399.11"/>
<polygon fill="#63b8ff" stroke="#63b8ff" points="349.41,-402.66 359.61,-399.78 349.84,-395.67 349.41,-402.66"/>
</g>
<!-- Node10 -->
<g id="node10" class="node">
<title>Node10</title>
<g id="a_node10"><a xlink:href="../../dd/d2e/mcnaughton__yamada__thompson_8c.html#a684ed3494e22ee17d7b3e19a4d1fe977" target="_top" xlink:title="recursively destroys a NFA">
<polygon fill="white" stroke="#666666" points="317.5,-256 248.5,-256 248.5,-237 317.5,-237 317.5,-256"/>
<text text-anchor="middle" x="283" y="-244" font-family="Helvetica,sans-Serif" font-size="10.00">destroyNFA</text>
</a>
</g>
</g>
<!-- Node3&#45;&gt;Node10 -->
<g id="edge11" class="edge">
<title>Node3&#45;&gt;Node10</title>
<path fill="none" stroke="#63b8ff" d="M203.67,-219.42C215.79,-223.6 230.08,-228.55 243.12,-233.06"/>
<polygon fill="#63b8ff" stroke="#63b8ff" points="241.65,-236.6 252.25,-236.56 243.94,-229.98 241.65,-236.6"/>
</g>
<!-- Node13 -->
<g id="node13" class="node">
<title>Node13</title>
<g id="a_node13"><a xlink:href="../../dd/d2e/mcnaughton__yamada__thompson_8c.html#a2dabcd5c410a4b0cac1b4ab378c9dcdc" target="_top" xlink:title="determines whether the NFA is currently in its accepting state">
<polygon fill="white" stroke="#666666" points="317,-219 249,-219 249,-200 317,-200 317,-219"/>
<text text-anchor="middle" x="283" y="-207" font-family="Helvetica,sans-Serif" font-size="10.00">isAccepting</text>
</a>
</g>
</g>
<!-- Node3&#45;&gt;Node13 -->
<g id="edge16" class="edge">
<title>Node3&#45;&gt;Node13</title>
<path fill="none" stroke="#63b8ff" d="M205.38,-209.5C215.48,-209.5 226.94,-209.5 237.87,-209.5"/>
<polygon fill="#63b8ff" stroke="#63b8ff" points="237.54,-213 247.54,-209.5 237.54,-206 237.54,-213"/>
</g>
<!-- Node14 -->
<g id="node14" class="node">
<title>Node14</title>
<g id="a_node14"><a xlink:href="../../dd/d2e/mcnaughton__yamada__thompson_8c.html#a86e0f235783b005e4e6e951c9603bbe1" target="_top" xlink:title="performs postprocessing on a compiled NFA, add circular empty character transition rules where it&#39;s n...">
<polygon fill="white" stroke="#666666" points="325,-164 241,-164 241,-145 325,-145 325,-164"/>
<text text-anchor="middle" x="283" y="-152" font-family="Helvetica,sans-Serif" font-size="10.00">postProcessing</text>
</a>
</g>
</g>
<!-- Node3&#45;&gt;Node14 -->
<g id="edge17" class="edge">
<title>Node3&#45;&gt;Node14</title>
<path fill="none" stroke="#63b8ff" d="M194.13,-199.67C210.54,-191.23 234.42,-178.96 253.15,-169.33"/>
<polygon fill="#63b8ff" stroke="#63b8ff" points="254.38,-172.12 261.68,-164.43 251.18,-165.89 254.38,-172.12"/>
</g>
<!-- Node17 -->
<g id="node17" class="node">
<title>Node17</title>
<g id="a_node17"><a xlink:href="../../dd/d2e/mcnaughton__yamada__thompson_8c.html#ae9a5eac7c0d8ac478eb1b97529638fb6" target="_top" xlink:title="performs preprocessing on a regex string, making all implicit concatenations explicit">
<polygon fill="white" stroke="#666666" points="322.5,-122 243.5,-122 243.5,-103 322.5,-103 322.5,-122"/>
<text text-anchor="middle" x="283" y="-110" font-family="Helvetica,sans-Serif" font-size="10.00">preProcessing</text>
</a>
</g>
</g>
<!-- Node3&#45;&gt;Node17 -->
<g id="edge21" class="edge">
<title>Node3&#45;&gt;Node17</title>
<path fill="none" stroke="#63b8ff" d="M182.31,-199.64C193.69,-184.74 216.87,-156.12 241,-136.5 244.77,-133.43 248.98,-130.5 253.23,-127.81"/>
<polygon fill="#63b8ff" stroke="#63b8ff" points="254.62,-130.46 261.43,-122.34 251.04,-124.45 254.62,-130.46"/>
</g>
<!-- Node19 -->
<g id="node19" class="node">
<title>Node19</title>
<g id="a_node19"><a xlink:href="../../dd/d2e/mcnaughton__yamada__thompson_8c.html#aebe16fbf12c8ac089501ebcae6f0c050" target="_top" xlink:title="moves a NFA forward">
<polygon fill="white" stroke="#666666" points="305,-75 261,-75 261,-56 305,-56 305,-75"/>
<text text-anchor="middle" x="283" y="-63" font-family="Helvetica,sans-Serif" font-size="10.00">transit</text>
</a>
</g>
</g>
<!-- Node3&#45;&gt;Node19 -->
<g id="edge23" class="edge">
<title>Node3&#45;&gt;Node19</title>
<path fill="none" stroke="#63b8ff" d="M178.91,-199.66C187.62,-178.57 210.33,-128.22 241,-94.5 245.36,-89.71 250.64,-85.25 255.95,-81.35"/>
<polygon fill="#63b8ff" stroke="#63b8ff" points="257.46,-83.86 263.73,-75.32 253.5,-78.09 257.46,-83.86"/>
</g>
<!-- Node4&#45;&gt;Node4 -->
<g id="edge4" class="edge">
<title>Node4&#45;&gt;Node4</title>
<path fill="none" stroke="#63b8ff" d="M265.94,-335.37C258.15,-343.94 263.84,-353 283,-353 294.08,-353 300.65,-349.97 302.72,-345.76"/>
<polygon fill="#63b8ff" stroke="#63b8ff" points="305.93,-345.19 300.06,-336.37 299.15,-346.92 305.93,-345.19"/>
</g>
<!-- Node5 -->
<g id="node5" class="node">
<title>Node5</title>
<g id="a_node5"><a xlink:href="../../dd/d2e/mcnaughton__yamada__thompson_8c.html#a12df013d848665fdcdcb01870c322af6" target="_top" xlink:title="creates and initializes a AST node">
<polygon fill="white" stroke="#666666" points="430.5,-372 363.5,-372 363.5,-353 430.5,-353 430.5,-372"/>
<text text-anchor="middle" x="397" y="-360" font-family="Helvetica,sans-Serif" font-size="10.00">createNode</text>
</a>
</g>
</g>
<!-- Node4&#45;&gt;Node5 -->
<g id="edge5" class="edge">
<title>Node4&#45;&gt;Node5</title>
<path fill="none" stroke="#63b8ff" d="M311.4,-334.55C324.63,-338.92 340.79,-344.26 355.41,-349.09"/>
<polygon fill="#63b8ff" stroke="#63b8ff" points="354.14,-352.69 364.73,-352.5 356.34,-346.04 354.14,-352.69"/>
</g>
<!-- Node4&#45;&gt;Node6 -->
<g id="edge6" class="edge">
<title>Node4&#45;&gt;Node6</title>
<path fill="none" stroke="#63b8ff" d="M296.39,-335.43C311.27,-347.14 337.21,-366.85 361,-381.5 362.56,-382.46 364.18,-383.42 365.82,-384.36"/>
<polygon fill="#63b8ff" stroke="#63b8ff" points="363.89,-387.84 374.35,-389.55 367.24,-381.69 363.89,-387.84"/>
</g>
<!-- Node7 -->
<g id="node7" class="node">
<title>Node7</title>
<g id="a_node7"><a xlink:href="../../dd/d2e/mcnaughton__yamada__thompson_8c.html#aab463320a19667bd604db2405abefd55" target="_top" xlink:title="utility function to locate the first occurrence of a character in a string while respecting parenthes...">
<polygon fill="white" stroke="#666666" points="422,-335 372,-335 372,-316 422,-316 422,-335"/>
<text text-anchor="middle" x="397" y="-323" font-family="Helvetica,sans-Serif" font-size="10.00">indexOf</text>
</a>
</g>
</g>
<!-- Node4&#45;&gt;Node7 -->
<g id="edge8" class="edge">
<title>Node4&#45;&gt;Node7</title>
<path fill="none" stroke="#63b8ff" d="M311.4,-325.5C326.34,-325.5 345,-325.5 360.99,-325.5"/>
<polygon fill="#63b8ff" stroke="#63b8ff" points="360.55,-329 370.55,-325.5 360.55,-322 360.55,-329"/>
</g>
<!-- Node8 -->
<g id="node8" class="node">
<title>Node8</title>
<g id="a_node8"><a xlink:href="../../dd/d2e/mcnaughton__yamada__thompson_8c.html#a072d13f905ab9438d38d7415df222817" target="_top" xlink:title="utility function to create a subString">
<polygon fill="white" stroke="#666666" points="426,-298 368,-298 368,-279 426,-279 426,-298"/>
<text text-anchor="middle" x="397" y="-286" font-family="Helvetica,sans-Serif" font-size="10.00">subString</text>
</a>
</g>
</g>
<!-- Node4&#45;&gt;Node8 -->
<g id="edge9" class="edge">
<title>Node4&#45;&gt;Node8</title>
<path fill="none" stroke="#63b8ff" d="M311.4,-316.45C325.29,-311.86 342.39,-306.21 357.57,-301.19"/>
<polygon fill="#63b8ff" stroke="#63b8ff" points="358.32,-304.3 366.72,-297.84 356.12,-297.66 358.32,-304.3"/>
</g>
<!-- Node6&#45;&gt;Node6 -->
<g id="edge7" class="edge">
<title>Node6&#45;&gt;Node6</title>
<path fill="none" stroke="#63b8ff" d="M381.58,-409.37C374.55,-417.94 379.69,-427 397,-427 406.74,-427 412.63,-424.13 414.66,-420.1"/>
<polygon fill="#63b8ff" stroke="#63b8ff" points="417.89,-419.44 412.42,-410.37 411.04,-420.87 417.89,-419.44"/>
</g>
<!-- Node9 -->
<g id="node9" class="node">
<title>Node9</title>
<g id="a_node9"><a xlink:href="../../df/dfa/vector_8c.html#a1afee8aaf33d741df31a73048cff4473" target="_top" xlink:title="This function returns the pointer to the begining of the Vector.">
<polygon fill="white" stroke="#666666" points="515.5,-298 475.5,-298 475.5,-279 515.5,-279 515.5,-298"/>
<text text-anchor="middle" x="495.5" y="-286" font-family="Helvetica,sans-Serif" font-size="10.00">begin</text>
</a>
</g>
</g>
<!-- Node8&#45;&gt;Node9 -->
<g id="edge10" class="edge">
<title>Node8&#45;&gt;Node9</title>
<path fill="none" stroke="#63b8ff" d="M426.43,-288.5C438.31,-288.5 452.13,-288.5 464.21,-288.5"/>
<polygon fill="#63b8ff" stroke="#63b8ff" points="464.12,-292 474.12,-288.5 464.12,-285 464.12,-292"/>
</g>
<!-- Node10&#45;&gt;Node10 -->
<g id="edge12" class="edge">
<title>Node10&#45;&gt;Node10</title>
<path fill="none" stroke="#63b8ff" d="M265.94,-256.37C258.15,-264.94 263.84,-274 283,-274 294.08,-274 300.65,-270.97 302.72,-266.76"/>
<polygon fill="#63b8ff" stroke="#63b8ff" points="305.93,-266.19 300.06,-257.37 299.15,-267.92 305.93,-266.19"/>
</g>
<!-- Node11 -->
<g id="node11" class="node">
<title>Node11</title>
<g id="a_node11"><a xlink:href="../../dd/d2e/mcnaughton__yamada__thompson_8c.html#ade1398311f666988b895f41c3e36d70e" target="_top" xlink:title="destroys a transition rule object">
<polygon fill="white" stroke="#666666" points="431.5,-261 362.5,-261 362.5,-242 431.5,-242 431.5,-261"/>
<text text-anchor="middle" x="397" y="-249" font-family="Helvetica,sans-Serif" font-size="10.00">destroyRule</text>
</a>
</g>
</g>
<!-- Node10&#45;&gt;Node11 -->
<g id="edge13" class="edge">
<title>Node10&#45;&gt;Node11</title>
<path fill="none" stroke="#63b8ff" d="M317.91,-248.01C328.43,-248.48 340.2,-249.01 351.34,-249.51"/>
<polygon fill="#63b8ff" stroke="#63b8ff" points="351.06,-253.04 361.21,-249.99 351.37,-246.05 351.06,-253.04"/>
</g>
<!-- Node12 -->
<g id="node12" class="node">
<title>Node12</title>
<g id="a_node12"><a xlink:href="../../dd/d2e/mcnaughton__yamada__thompson_8c.html#a9a361f55b51ce6d677e907396fbc1652" target="_top" xlink:title="destroys a NFA state">
<polygon fill="white" stroke="#666666" points="433,-224 361,-224 361,-205 433,-205 433,-224"/>
<text text-anchor="middle" x="397" y="-212" font-family="Helvetica,sans-Serif" font-size="10.00">destroyState</text>
</a>
</g>
</g>
<!-- Node10&#45;&gt;Node12 -->
<g id="edge14" class="edge">
<title>Node10&#45;&gt;Node12</title>
<path fill="none" stroke="#63b8ff" d="M317.91,-236.81C328.25,-233.86 339.79,-230.56 350.76,-227.43"/>
<polygon fill="#63b8ff" stroke="#63b8ff" points="351.39,-230.6 360.04,-224.49 349.47,-223.87 351.39,-230.6"/>
</g>
<!-- Node14&#45;&gt;Node14 -->
<g id="edge20" class="edge">
<title>Node14&#45;&gt;Node14</title>
<path fill="none" stroke="#63b8ff" d="M265.94,-164.37C258.15,-172.94 263.84,-182 283,-182 294.08,-182 300.65,-178.97 302.72,-174.76"/>
<polygon fill="#63b8ff" stroke="#63b8ff" points="305.93,-174.19 300.06,-165.37 299.15,-175.92 305.93,-174.19"/>
</g>
<!-- Node15 -->
<g id="node15" class="node">
<title>Node15</title>
<g id="a_node15"><a xlink:href="../../dd/d2e/mcnaughton__yamada__thompson_8c.html#a4ed0049e15d45e0d75a991fbb6f8963c" target="_top" xlink:title="adds a transition rule to a NFA">
<polygon fill="white" stroke="#666666" points="423.5,-187 370.5,-187 370.5,-168 423.5,-168 423.5,-187"/>
<text text-anchor="middle" x="397" y="-175" font-family="Helvetica,sans-Serif" font-size="10.00">addRule</text>
</a>
</g>
</g>
<!-- Node14&#45;&gt;Node15 -->
<g id="edge18" class="edge">
<title>Node14&#45;&gt;Node15</title>
<path fill="none" stroke="#63b8ff" d="M325.39,-163C336.6,-165.3 348.66,-167.78 359.58,-170.02"/>
<polygon fill="#63b8ff" stroke="#63b8ff" points="358.55,-173.59 369.05,-172.17 359.96,-166.73 358.55,-173.59"/>
</g>
<!-- Node16 -->
<g id="node16" class="node">
<title>Node16</title>
<g id="a_node16"><a xlink:href="../../dd/d2e/mcnaughton__yamada__thompson_8c.html#a0b8d037bf2841dede90be41f5fe1ccdc" target="_top" xlink:title="creates and initializes a transition rule">
<polygon fill="white" stroke="#666666" points="429,-150 365,-150 365,-131 429,-131 429,-150"/>
<text text-anchor="middle" x="397" y="-138" font-family="Helvetica,sans-Serif" font-size="10.00">createRule</text>
</a>
</g>
</g>
<!-- Node14&#45;&gt;Node16 -->
<g id="edge19" class="edge">
<title>Node14&#45;&gt;Node16</title>
<path fill="none" stroke="#63b8ff" d="M325.39,-149.33C334.7,-148.16 344.6,-146.93 353.94,-145.76"/>
<polygon fill="#63b8ff" stroke="#63b8ff" points="354.1,-149.14 363.59,-144.43 353.23,-142.19 354.1,-149.14"/>
</g>
<!-- Node18 -->
<g id="node18" class="node">
<title>Node18</title>
<g id="a_node18"><a xlink:href="../../dd/d2e/mcnaughton__yamada__thompson_8c.html#a6eaf52853f2b39a1299cc16972a3298e" target="_top" xlink:title="helper function to determine whether a character should be considered a character literal">
<polygon fill="white" stroke="#666666" points="422,-113 372,-113 372,-94 422,-94 422,-113"/>
<text text-anchor="middle" x="397" y="-101" font-family="Helvetica,sans-Serif" font-size="10.00">isLiteral</text>
</a>
</g>
</g>
<!-- Node17&#45;&gt;Node18 -->
<g id="edge22" class="edge">
<title>Node17&#45;&gt;Node18</title>
<path fill="none" stroke="#63b8ff" d="M322.86,-109.38C335.24,-108.38 348.86,-107.29 360.96,-106.32"/>
<polygon fill="#63b8ff" stroke="#63b8ff" points="360.87,-109.75 370.56,-105.46 360.31,-102.78 360.87,-109.75"/>
</g>
<!-- Node20 -->
<g id="node20" class="node">
<title>Node20</title>
<g id="a_node20"><a xlink:href="../../dd/d2e/mcnaughton__yamada__thompson_8c.html#a709e32f5905536216abb03efb4f4db2b" target="_top" xlink:title="helper function to determine an element&#39;s presence in an array">
<polygon fill="white" stroke="#666666" points="522,-47 469,-47 469,-28 522,-28 522,-47"/>
<text text-anchor="middle" x="495.5" y="-35" font-family="Helvetica,sans-Serif" font-size="10.00">contains</text>
</a>
</g>
</g>
<!-- Node19&#45;&gt;Node20 -->
<g id="edge24" class="edge">
<title>Node19&#45;&gt;Node20</title>
<path fill="none" stroke="#63b8ff" d="M305.24,-62.92C334.15,-59.37 387.53,-52.73 433,-46.5 441.09,-45.39 449.76,-44.15 457.97,-42.96"/>
<polygon fill="#63b8ff" stroke="#63b8ff" points="458.4,-46.29 467.78,-41.37 457.38,-39.36 458.4,-46.29"/>
</g>
<!-- Node21 -->
<g id="node21" class="node">
<title>Node21</title>
<g id="a_node21"><a xlink:href="../../dd/d2e/mcnaughton__yamada__thompson_8c.html#a34774f1859a742ea1c3eaf3f6726b66c" target="_top" xlink:title="helper function to manage empty character transitions">
<polygon fill="white" stroke="#666666" points="427.5,-19 366.5,-19 366.5,0 427.5,0 427.5,-19"/>
<text text-anchor="middle" x="397" y="-7" font-family="Helvetica,sans-Serif" font-size="10.00">findEmpty</text>
</a>
</g>
</g>
<!-- Node19&#45;&gt;Node21 -->
<g id="edge25" class="edge">
<title>Node19&#45;&gt;Node21</title>
<path fill="none" stroke="#63b8ff" d="M303.77,-55.62C321.09,-46.95 346.53,-34.24 366.3,-24.35"/>
<polygon fill="#63b8ff" stroke="#63b8ff" points="367.68,-27.08 375.06,-19.47 364.55,-20.81 367.68,-27.08"/>
</g>
<!-- Node21&#45;&gt;Node20 -->
<g id="edge26" class="edge">
<title>Node21&#45;&gt;Node20</title>
<path fill="none" stroke="#63b8ff" d="M427.74,-18.13C437.34,-20.91 448.09,-24.03 458.11,-26.94"/>
<polygon fill="#63b8ff" stroke="#63b8ff" points="457.03,-30.56 467.61,-29.99 458.98,-23.84 457.03,-30.56"/>
</g>
<!-- Node21&#45;&gt;Node21 -->
<g id="edge27" class="edge">
<title>Node21&#45;&gt;Node21</title>
<path fill="none" stroke="#63b8ff" d="M381.58,-19.37C374.55,-27.94 379.69,-37 397,-37 406.74,-37 412.63,-34.13 414.66,-30.1"/>
<polygon fill="#63b8ff" stroke="#63b8ff" points="417.89,-29.44 412.42,-20.37 411.04,-30.87 417.89,-29.44"/>
</g>
</g>
</svg>
        <g id="navigator" transform="translate(0 0)" fill="#404254">
                <rect fill="#f2f5e9" fill-opacity="0.5" stroke="#606060" stroke-width=".5" x="0" y="0" width="60" height="60"/>
                <use id="zoomplus" xlink:href="#zoomPlus" x="17" y="9" onmousedown="handleZoom(evt,'in')"/>
                <use id="zoomminus" xlink:href="#zoomMin" x="42" y="9" onmousedown="handleZoom(evt,'out')"/>
                <use id="reset" xlink:href="#resetDef" x="30" y="36" onmousedown="handleReset()"/>
                <g id="arrowUp" xlink:href="#dirArrow" transform="translate(30 24)" onmousedown="handlePan(0,-1)">
                  <use xlink:href="#rim" fill="#404040">
                        <set attributeName="fill" to="#808080" begin="arrowUp.mouseover" end="arrowUp.mouseout"/>
                  </use>
                  <path fill="none" stroke="white" stroke-width="1.5" d="M0,-3.0v7 M-2.5,-0.5L0,-3.0L2.5,-0.5"/>
                </g>
                <g id="arrowRight" xlink:href="#dirArrow" transform="rotate(90) translate(36 -43)" onmousedown="handlePan(1,0)">
                  <use xlink:href="#rim" fill="#404040">
                        <set attributeName="fill" to="#808080" begin="arrowRight.mouseover" end="arrowRight.mouseout"/>
                  </use>
                  <path fill="none" stroke="white" stroke-width="1.5" d="M0,-3.0v7 M-2.5,-0.5L0,-3.0L2.5,-0.5"/>
                </g>
                <g id="arrowDown" xlink:href="#dirArrow" transform="rotate(180) translate(-30 -48)" onmousedown="handlePan(0,1)">
                  <use xlink:href="#rim" fill="#404040">
                        <set attributeName="fill" to="#808080" begin="arrowDown.mouseover" end="arrowDown.mouseout"/>
                  </use>
                  <path fill="none" stroke="white" stroke-width="1.5" d="M0,-3.0v7 M-2.5,-0.5L0,-3.0L2.5,-0.5"/>
                </g>
                <g id="arrowLeft" xlink:href="#dirArrow" transform="rotate(270) translate(-36 17)" onmousedown="handlePan(-1,0)">
                  <use xlink:href="#rim" fill="#404040">
                        <set attributeName="fill" to="#808080" begin="arrowLeft.mouseover" end="arrowLeft.mouseout"/>
                  </use>
                  <path fill="none" stroke="white" stroke-width="1.5" d="M0,-3.0v7 M-2.5,-0.5L0,-3.0L2.5,-0.5"/>
                </g>
        </g>
        <svg viewBox="0 0 15 15" width="100%" height="30px" preserveAspectRatio="xMaxYMin meet">
         <g id="arrow_out" transform="scale(0.3 0.3)">
          <a xlink:href="mcnaughton__yamada__thompson_8c_a840291bc02cba5474a4cb46a9b9566fe_cgraph_org.svg" target="_base">
           <rect id="button" ry="5" rx="5" y="6" x="6" height="38" width="38"
                fill="#f2f5e9" fill-opacity="0.5" stroke="#606060" stroke-width="1.0"/>
           <path id="arrow"
             d="M 11.500037,31.436501 C 11.940474,20.09759 22.043105,11.32322 32.158766,21.979434 L 37.068811,17.246167 C 37.068811,17.246167 37.088388,32 37.088388,32 L 22.160133,31.978069 C 22.160133,31.978069 26.997745,27.140456 26.997745,27.140456 C 18.528582,18.264221 13.291696,25.230495 11.500037,31.436501 z"
             style="fill:#404040;"/>
          </a>
         </g>
        </svg>
</svg>
