<?xml version="1.0" encoding="UTF-8" standalone="no"?>
<!DOCTYPE svg PUBLIC "-//W3C//DTD SVG 1.1//EN"
 "http://www.w3.org/Graphics/SVG/1.1/DTD/svg11.dtd">
<!-- Generated by graphviz version 8.0.5 (20230430.1635)
 -->
<!-- Title: findEmpty Pages: 1 -->
<svg width="157pt" height="45pt"
 viewBox="0.00 0.00 157.00 45.25" xmlns="http://www.w3.org/2000/svg" xmlns:xlink="http://www.w3.org/1999/xlink">
<g id="graph0" class="graph" transform="scale(1 1) rotate(0) translate(4 41.25)">
<title>findEmpty</title>
<!-- Node1 -->
<g id="Node000001" class="node">
<title>Node1</title>
<g id="a_Node000001"><a xlink:title="helper function to manage empty character transitions">
<polygon fill="#999999" stroke="#666666" points="60.25,-19.25 0,-19.25 0,0 60.25,0 60.25,-19.25"/>
<text text-anchor="middle" x="30.12" y="-5.75" font-family="Helvetica,sans-Serif" font-size="10.00">findEmpty</text>
</a>
</g>
</g>
<!-- Node1&#45;&gt;Node1 -->
<g id="edge2_Node000001_Node000001" class="edge">
<title>Node1&#45;&gt;Node1</title>
<g id="a_edge2_Node000001_Node000001"><a xlink:title=" ">
<path fill="none" stroke="#63b8ff" d="M15.64,-19.54C9.04,-28.15 13.87,-37.25 30.12,-37.25 39.27,-37.25 44.8,-34.37 46.71,-30.32"/>
<polygon fill="#63b8ff" stroke="#63b8ff" points="49.96,-29.68 44.61,-20.54 43.09,-31.02 49.96,-29.68"/>
</a>
</g>
</g>
<!-- Node2 -->
<g id="Node000002" class="node">
<title>Node2</title>
<g id="a_Node000002"><a xlink:href="../../dd/d2e/mcnaughton__yamada__thompson_8c.html#a709e32f5905536216abb03efb4f4db2b" target="_top" xlink:title="helper function to determine an element&#39;s presence in an array">
<polygon fill="white" stroke="#666666" points="149,-19.25 96.25,-19.25 96.25,0 149,0 149,-19.25"/>
<text text-anchor="middle" x="122.62" y="-5.75" font-family="Helvetica,sans-Serif" font-size="10.00">contains</text>
</a>
</g>
</g>
<!-- Node1&#45;&gt;Node2 -->
<g id="edge1_Node000001_Node000002" class="edge">
<title>Node1&#45;&gt;Node2</title>
<g id="a_edge1_Node000001_Node000002"><a xlink:title=" ">
<path fill="none" stroke="#63b8ff" d="M60.51,-9.62C68.39,-9.62 77,-9.62 85.21,-9.62"/>
<polygon fill="#63b8ff" stroke="#63b8ff" points="85.04,-13.13 95.04,-9.62 85.04,-6.13 85.04,-13.13"/>
</a>
</g>
</g>
</g>
</svg>
