<?xml version="1.0" encoding="UTF-8" standalone="no"?>
<!DOCTYPE svg PUBLIC "-//W3C//DTD SVG 1.1//EN"
 "http://www.w3.org/Graphics/SVG/1.1/DTD/svg11.dtd">
<!-- Generated by graphviz version 9.0.0 (20230911.1827)
 -->
<!-- Title: test Pages: 1 -->
<svg width="453pt" height="435pt"
 viewBox="0.00 0.00 453.25 435.25" xmlns="http://www.w3.org/2000/svg" xmlns:xlink="http://www.w3.org/1999/xlink">
<g id="graph0" class="graph" transform="scale(1 1) rotate(0) translate(4 431.25)">
<title>test</title>
<!-- Node1 -->
<g id="Node000001" class="node">
<title>Node1</title>
<g id="a_Node000001"><a xlink:title="Self&#45;test implementations.">
<polygon fill="#999999" stroke="#666666" points="32.5,-219.25 0,-219.25 0,-200 32.5,-200 32.5,-219.25"/>
<text text-anchor="middle" x="16.25" y="-205.75" font-family="Helvetica,sans-Serif" font-size="10.00">test</text>
</a>
</g>
</g>
<!-- Node2 -->
<g id="Node000002" class="node">
<title>Node2</title>
<g id="a_Node000002"><a xlink:href="../../dd/d2e/mcnaughton__yamada__thompson_8c.html#a38faadeab39bb48716f1065bc05abec8" target="_top" xlink:title="Testing helper function.">
<polygon fill="white" stroke="#666666" points="129.5,-219.25 68.5,-219.25 68.5,-200 129.5,-200 129.5,-219.25"/>
<text text-anchor="middle" x="99" y="-205.75" font-family="Helvetica,sans-Serif" font-size="10.00">testHelper</text>
</a>
</g>
</g>
<!-- Node1&#45;&gt;Node2 -->
<g id="edge1_Node000001_Node000002" class="edge">
<title>Node1&#45;&gt;Node2</title>
<g id="a_edge1_Node000001_Node000002"><a xlink:title=" ">
<path fill="none" stroke="#63b8ff" d="M32.82,-209.62C39.69,-209.62 48.12,-209.62 56.61,-209.62"/>
<polygon fill="#63b8ff" stroke="#63b8ff" points="56.58,-213.13 66.58,-209.63 56.58,-206.13 56.58,-213.13"/>
</a>
</g>
</g>
<!-- Node3 -->
<g id="Node000003" class="node">
<title>Node3</title>
<g id="a_Node000003"><a xlink:href="../../dd/d2e/mcnaughton__yamada__thompson_8c.html#a496e9b4e45417ac56dac40bbbb769d7a" target="_top" xlink:title="recursively constructs a AST from a preprocessed regex string">
<polygon fill="white" stroke="#666666" points="235.12,-335.25 179.38,-335.25 179.38,-316 235.12,-316 235.12,-335.25"/>
<text text-anchor="middle" x="207.25" y="-321.75" font-family="Helvetica,sans-Serif" font-size="10.00">buildAST</text>
</a>
</g>
</g>
<!-- Node2&#45;&gt;Node3 -->
<g id="edge2_Node000002_Node000003" class="edge">
<title>Node2&#45;&gt;Node3</title>
<g id="a_edge2_Node000002_Node000003"><a xlink:title=" ">
<path fill="none" stroke="#63b8ff" d="M108.34,-219.33C120.65,-233.59 144.51,-260.97 165.5,-283.62 172.95,-291.66 181.35,-300.37 188.58,-307.77"/>
<polygon fill="#63b8ff" stroke="#63b8ff" points="185.84,-309.98 195.34,-314.66 190.83,-305.07 185.84,-309.98"/>
</a>
</g>
</g>
<!-- Node5 -->
<g id="Node000005" class="node">
<title>Node5</title>
<g id="a_Node000005"><a xlink:href="../../dd/d2e/mcnaughton__yamada__thompson_8c.html#a6a97ab2db6392f262b03370689872348" target="_top" xlink:title="recursively destroys a AST">
<polygon fill="white" stroke="#666666" points="356.5,-409.25 285,-409.25 285,-390 356.5,-390 356.5,-409.25"/>
<text text-anchor="middle" x="320.75" y="-395.75" font-family="Helvetica,sans-Serif" font-size="10.00">destroyNode</text>
</a>
</g>
</g>
<!-- Node2&#45;&gt;Node5 -->
<g id="edge14_Node000002_Node000005" class="edge">
<title>Node2&#45;&gt;Node5</title>
<g id="a_edge14_Node000002_Node000005"><a xlink:title=" ">
<path fill="none" stroke="#63b8ff" d="M101.2,-219.66C105.03,-247.09 119.57,-323.87 165.5,-362.62 195.44,-387.88 239.72,-396.5 273.17,-399.16"/>
<polygon fill="#63b8ff" stroke="#63b8ff" points="272.8,-402.65 283,-399.78 273.24,-395.66 272.8,-402.65"/>
</a>
</g>
</g>
<!-- Node9 -->
<g id="Node000009" class="node">
<title>Node9</title>
<g id="a_Node000009"><a xlink:href="../../dd/d2e/mcnaughton__yamada__thompson_8c.html#a684ed3494e22ee17d7b3e19a4d1fe977" target="_top" xlink:title="recursively destroys a NFA">
<polygon fill="white" stroke="#666666" points="241.5,-256.25 173,-256.25 173,-237 241.5,-237 241.5,-256.25"/>
<text text-anchor="middle" x="207.25" y="-242.75" font-family="Helvetica,sans-Serif" font-size="10.00">destroyNFA</text>
</a>
</g>
</g>
<!-- Node2&#45;&gt;Node9 -->
<g id="edge10_Node000002_Node000009" class="edge">
<title>Node2&#45;&gt;Node9</title>
<g id="a_edge10_Node000002_Node000009"><a xlink:title=" ">
<path fill="none" stroke="#63b8ff" d="M129.03,-219.74C140.63,-223.77 154.17,-228.49 166.64,-232.83"/>
<polygon fill="#63b8ff" stroke="#63b8ff" points="165.23,-236.05 175.82,-236.03 167.53,-229.44 165.23,-236.05"/>
</a>
</g>
</g>
<!-- Node12 -->
<g id="Node000012" class="node">
<title>Node12</title>
<g id="a_Node000012"><a xlink:href="../../dd/d2e/mcnaughton__yamada__thompson_8c.html#a2dabcd5c410a4b0cac1b4ab378c9dcdc" target="_top" xlink:title="determines whether the NFA is currently in its accepting state">
<polygon fill="white" stroke="#666666" points="240.75,-219.25 173.75,-219.25 173.75,-200 240.75,-200 240.75,-219.25"/>
<text text-anchor="middle" x="207.25" y="-205.75" font-family="Helvetica,sans-Serif" font-size="10.00">isAccepting</text>
</a>
</g>
</g>
<!-- Node2&#45;&gt;Node12 -->
<g id="edge15_Node000002_Node000012" class="edge">
<title>Node2&#45;&gt;Node12</title>
<g id="a_edge15_Node000002_Node000012"><a xlink:title=" ">
<path fill="none" stroke="#63b8ff" d="M129.88,-209.62C139.89,-209.62 151.26,-209.62 162.12,-209.62"/>
<polygon fill="#63b8ff" stroke="#63b8ff" points="162.1,-213.13 172.1,-209.63 162.1,-206.13 162.1,-213.13"/>
</a>
</g>
</g>
<!-- Node13 -->
<g id="Node000013" class="node">
<title>Node13</title>
<g id="a_Node000013"><a xlink:href="../../dd/d2e/mcnaughton__yamada__thompson_8c.html#a86e0f235783b005e4e6e951c9603bbe1" target="_top" xlink:title="performs postprocessing on a compiled NFA, add circular empty character transition rules where it&#39;s n...">
<polygon fill="white" stroke="#666666" points="249,-164.25 165.5,-164.25 165.5,-145 249,-145 249,-164.25"/>
<text text-anchor="middle" x="207.25" y="-150.75" font-family="Helvetica,sans-Serif" font-size="10.00">postProcessing</text>
</a>
</g>
</g>
<!-- Node2&#45;&gt;Node13 -->
<g id="edge16_Node000002_Node000013" class="edge">
<title>Node2&#45;&gt;Node13</title>
<g id="a_edge16_Node000002_Node000013"><a xlink:title=" ">
<path fill="none" stroke="#63b8ff" d="M119.49,-199.54C135.51,-191.24 158.48,-179.35 176.75,-169.89"/>
<polygon fill="#63b8ff" stroke="#63b8ff" points="178.27,-173.05 185.54,-165.34 175.05,-166.83 178.27,-173.05"/>
</a>
</g>
</g>
<!-- Node16 -->
<g id="Node000016" class="node">
<title>Node16</title>
<g id="a_Node000016"><a xlink:href="../../dd/d2e/mcnaughton__yamada__thompson_8c.html#ae9a5eac7c0d8ac478eb1b97529638fb6" target="_top" xlink:title="performs preprocessing on a regex string, making all implicit concatenations explicit">
<polygon fill="white" stroke="#666666" points="246.38,-122.25 168.12,-122.25 168.12,-103 246.38,-103 246.38,-122.25"/>
<text text-anchor="middle" x="207.25" y="-108.75" font-family="Helvetica,sans-Serif" font-size="10.00">preProcessing</text>
</a>
</g>
</g>
<!-- Node2&#45;&gt;Node16 -->
<g id="edge20_Node000002_Node000016" class="edge">
<title>Node2&#45;&gt;Node16</title>
<g id="a_edge20_Node000002_Node000016"><a xlink:title=" ">
<path fill="none" stroke="#63b8ff" d="M107.17,-199.57C118.36,-184.38 141.22,-155.26 165.5,-135.62 168.63,-133.1 172.07,-130.69 175.58,-128.44"/>
<polygon fill="#63b8ff" stroke="#63b8ff" points="177.36,-131.46 184.2,-123.37 173.8,-125.43 177.36,-131.46"/>
</a>
</g>
</g>
<!-- Node18 -->
<g id="Node000018" class="node">
<title>Node18</title>
<g id="a_Node000018"><a xlink:href="../../dd/d2e/mcnaughton__yamada__thompson_8c.html#aebe16fbf12c8ac089501ebcae6f0c050" target="_top" xlink:title="moves a NFA forward">
<polygon fill="white" stroke="#666666" points="228.75,-75.25 185.75,-75.25 185.75,-56 228.75,-56 228.75,-75.25"/>
<text text-anchor="middle" x="207.25" y="-61.75" font-family="Helvetica,sans-Serif" font-size="10.00">transit</text>
</a>
</g>
</g>
<!-- Node2&#45;&gt;Node18 -->
<g id="edge22_Node000002_Node000018" class="edge">
<title>Node2&#45;&gt;Node18</title>
<g id="a_edge22_Node000002_Node000018"><a xlink:title=" ">
<path fill="none" stroke="#63b8ff" d="M103.8,-199.66C112.3,-178.32 134.58,-127.4 165.5,-93.62 169.46,-89.3 174.2,-85.3 179.03,-81.74"/>
<polygon fill="#63b8ff" stroke="#63b8ff" points="180.67,-84.86 186.98,-76.35 176.74,-79.07 180.67,-84.86"/>
</a>
</g>
</g>
<!-- Node3&#45;&gt;Node3 -->
<g id="edge3_Node000003_Node000003" class="edge">
<title>Node3&#45;&gt;Node3</title>
<g id="a_edge3_Node000003_Node000003"><a xlink:title=" ">
<path fill="none" stroke="#63b8ff" d="M190.3,-335.54C182.57,-344.15 188.22,-353.25 207.25,-353.25 217.66,-353.25 224.06,-350.53 226.46,-346.65"/>
<polygon fill="#63b8ff" stroke="#63b8ff" points="229.93,-346.12 224.5,-337.02 223.07,-347.52 229.93,-346.12"/>
</a>
</g>
</g>
<!-- Node4 -->
<g id="Node000004" class="node">
<title>Node4</title>
<g id="a_Node000004"><a xlink:href="../../dd/d2e/mcnaughton__yamada__thompson_8c.html#a12df013d848665fdcdcb01870c322af6" target="_top" xlink:title="creates and initializes a AST node">
<polygon fill="white" stroke="#666666" points="353.88,-372.25 287.62,-372.25 287.62,-353 353.88,-353 353.88,-372.25"/>
<text text-anchor="middle" x="320.75" y="-358.75" font-family="Helvetica,sans-Serif" font-size="10.00">createNode</text>
</a>
</g>
</g>
<!-- Node3&#45;&gt;Node4 -->
<g id="edge4_Node000003_Node000004" class="edge">
<title>Node3&#45;&gt;Node4</title>
<g id="a_edge4_Node000003_Node000004"><a xlink:title=" ">
<path fill="none" stroke="#63b8ff" d="M235.53,-334.68C248.58,-339.01 264.47,-344.28 278.92,-349.08"/>
<polygon fill="#63b8ff" stroke="#63b8ff" points="277.59,-352.32 288.18,-352.15 279.79,-345.68 277.59,-352.32"/>
</a>
</g>
</g>
<!-- Node3&#45;&gt;Node5 -->
<g id="edge5_Node000003_Node000005" class="edge">
<title>Node3&#45;&gt;Node5</title>
<g id="a_edge5_Node000003_Node000005"><a xlink:title=" ">
<path fill="none" stroke="#63b8ff" d="M220.6,-335.55C235.44,-347.25 261.3,-366.96 285,-381.62 286.41,-382.5 287.86,-383.37 289.34,-384.22"/>
<polygon fill="#63b8ff" stroke="#63b8ff" points="287.47,-387.19 297.92,-388.94 290.84,-381.05 287.47,-387.19"/>
</a>
</g>
</g>
<!-- Node6 -->
<g id="Node000006" class="node">
<title>Node6</title>
<g id="a_Node000006"><a xlink:href="../../dd/d2e/mcnaughton__yamada__thompson_8c.html#aab463320a19667bd604db2405abefd55" target="_top" xlink:title="utility function to locate the first occurrence of a character in a string while respecting parenthes...">
<polygon fill="white" stroke="#666666" points="345.62,-335.25 295.88,-335.25 295.88,-316 345.62,-316 345.62,-335.25"/>
<text text-anchor="middle" x="320.75" y="-321.75" font-family="Helvetica,sans-Serif" font-size="10.00">indexOf</text>
</a>
</g>
</g>
<!-- Node3&#45;&gt;Node6 -->
<g id="edge7_Node000003_Node000006" class="edge">
<title>Node3&#45;&gt;Node6</title>
<g id="a_edge7_Node000003_Node000006"><a xlink:title=" ">
<path fill="none" stroke="#63b8ff" d="M235.53,-325.62C250.12,-325.62 268.26,-325.62 283.97,-325.62"/>
<polygon fill="#63b8ff" stroke="#63b8ff" points="283.9,-329.13 293.9,-325.63 283.9,-322.13 283.9,-329.13"/>
</a>
</g>
</g>
<!-- Node7 -->
<g id="Node000007" class="node">
<title>Node7</title>
<g id="a_Node000007"><a xlink:href="../../dd/d2e/mcnaughton__yamada__thompson_8c.html#a072d13f905ab9438d38d7415df222817" target="_top" xlink:title="utility function to create a subString">
<polygon fill="white" stroke="#666666" points="349.38,-298.25 292.12,-298.25 292.12,-279 349.38,-279 349.38,-298.25"/>
<text text-anchor="middle" x="320.75" y="-284.75" font-family="Helvetica,sans-Serif" font-size="10.00">subString</text>
</a>
</g>
</g>
<!-- Node3&#45;&gt;Node7 -->
<g id="edge8_Node000003_Node000007" class="edge">
<title>Node3&#45;&gt;Node7</title>
<g id="a_edge8_Node000003_Node000007"><a xlink:title=" ">
<path fill="none" stroke="#63b8ff" d="M235.53,-316.57C249.33,-311.99 266.31,-306.36 281.4,-301.35"/>
<polygon fill="#63b8ff" stroke="#63b8ff" points="282.16,-304.79 290.54,-298.32 279.95,-298.14 282.16,-304.79"/>
</a>
</g>
</g>
<!-- Node5&#45;&gt;Node5 -->
<g id="edge6_Node000005_Node000005" class="edge">
<title>Node5&#45;&gt;Node5</title>
<g id="a_edge6_Node000005_Node000005"><a xlink:title=" ">
<path fill="none" stroke="#63b8ff" d="M305.39,-409.54C298.38,-418.15 303.5,-427.25 320.75,-427.25 330.18,-427.25 335.99,-424.53 338.17,-420.65"/>
<polygon fill="#63b8ff" stroke="#63b8ff" points="341.65,-420.22 336.39,-411.03 334.76,-421.5 341.65,-420.22"/>
</a>
</g>
</g>
<!-- Node8 -->
<g id="Node000008" class="node">
<title>Node8</title>
<g id="a_Node000008"><a xlink:href="../../df/dfa/vector_8c.html#a1afee8aaf33d741df31a73048cff4473" target="_top" xlink:title="This function returns the pointer to the begining of the Vector.">
<polygon fill="white" stroke="#666666" points="438.5,-298.25 399.25,-298.25 399.25,-279 438.5,-279 438.5,-298.25"/>
<text text-anchor="middle" x="418.88" y="-284.75" font-family="Helvetica,sans-Serif" font-size="10.00">begin</text>
</a>
</g>
</g>
<!-- Node7&#45;&gt;Node8 -->
<g id="edge9_Node000007_Node000008" class="edge">
<title>Node7&#45;&gt;Node8</title>
<g id="a_edge9_Node000007_Node000008"><a xlink:title=" ">
<path fill="none" stroke="#63b8ff" d="M349.81,-288.62C361.62,-288.62 375.38,-288.62 387.43,-288.62"/>
<polygon fill="#63b8ff" stroke="#63b8ff" points="387.25,-292.13 397.25,-288.63 387.25,-285.13 387.25,-292.13"/>
</a>
</g>
</g>
<!-- Node9&#45;&gt;Node9 -->
<g id="edge11_Node000009_Node000009" class="edge">
<title>Node9&#45;&gt;Node9</title>
<g id="a_edge11_Node000009_Node000009"><a xlink:title=" ">
<path fill="none" stroke="#63b8ff" d="M190.3,-256.54C182.57,-265.15 188.22,-274.25 207.25,-274.25 217.66,-274.25 224.06,-271.53 226.46,-267.65"/>
<polygon fill="#63b8ff" stroke="#63b8ff" points="229.93,-267.12 224.5,-258.02 223.07,-268.52 229.93,-267.12"/>
</a>
</g>
</g>
<!-- Node10 -->
<g id="Node000010" class="node">
<title>Node10</title>
<g id="a_Node000010"><a xlink:href="../../dd/d2e/mcnaughton__yamada__thompson_8c.html#ade1398311f666988b895f41c3e36d70e" target="_top" xlink:title="destroys a transition rule object">
<polygon fill="white" stroke="#666666" points="355,-261.25 286.5,-261.25 286.5,-242 355,-242 355,-261.25"/>
<text text-anchor="middle" x="320.75" y="-247.75" font-family="Helvetica,sans-Serif" font-size="10.00">destroyRule</text>
</a>
</g>
</g>
<!-- Node9&#45;&gt;Node10 -->
<g id="edge12_Node000009_Node000010" class="edge">
<title>Node9&#45;&gt;Node10</title>
<g id="a_edge12_Node000009_Node000010"><a xlink:title=" ">
<path fill="none" stroke="#63b8ff" d="M241.7,-248.13C252.18,-248.59 263.91,-249.12 275.03,-249.62"/>
<polygon fill="#63b8ff" stroke="#63b8ff" points="274.66,-253.11 284.81,-250.06 274.97,-246.11 274.66,-253.11"/>
</a>
</g>
</g>
<!-- Node11 -->
<g id="Node000011" class="node">
<title>Node11</title>
<g id="a_Node000011"><a xlink:href="../../dd/d2e/mcnaughton__yamada__thompson_8c.html#a9a361f55b51ce6d677e907396fbc1652" target="_top" xlink:title="destroys a NFA state">
<polygon fill="white" stroke="#666666" points="356.5,-224.25 285,-224.25 285,-205 356.5,-205 356.5,-224.25"/>
<text text-anchor="middle" x="320.75" y="-210.75" font-family="Helvetica,sans-Serif" font-size="10.00">destroyState</text>
</a>
</g>
</g>
<!-- Node9&#45;&gt;Node11 -->
<g id="edge13_Node000009_Node000011" class="edge">
<title>Node9&#45;&gt;Node11</title>
<g id="a_edge13_Node000009_Node000011"><a xlink:title=" ">
<path fill="none" stroke="#63b8ff" d="M241.7,-237.02C251.8,-234.13 263.06,-230.9 273.81,-227.81"/>
<polygon fill="#63b8ff" stroke="#63b8ff" points="274.67,-231.2 283.32,-225.08 272.74,-224.48 274.67,-231.2"/>
</a>
</g>
</g>
<!-- Node13&#45;&gt;Node13 -->
<g id="edge19_Node000013_Node000013" class="edge">
<title>Node13&#45;&gt;Node13</title>
<g id="a_edge19_Node000013_Node000013"><a xlink:title=" ">
<path fill="none" stroke="#63b8ff" d="M190.3,-164.54C182.57,-173.15 188.22,-182.25 207.25,-182.25 217.66,-182.25 224.06,-179.53 226.46,-175.65"/>
<polygon fill="#63b8ff" stroke="#63b8ff" points="229.93,-175.12 224.5,-166.02 223.07,-176.52 229.93,-175.12"/>
</a>
</g>
</g>
<!-- Node14 -->
<g id="Node000014" class="node">
<title>Node14</title>
<g id="a_Node000014"><a xlink:href="../../dd/d2e/mcnaughton__yamada__thompson_8c.html#a4ed0049e15d45e0d75a991fbb6f8963c" target="_top" xlink:title="adds a transition rule to a NFA">
<polygon fill="white" stroke="#666666" points="346.75,-187.25 294.75,-187.25 294.75,-168 346.75,-168 346.75,-187.25"/>
<text text-anchor="middle" x="320.75" y="-173.75" font-family="Helvetica,sans-Serif" font-size="10.00">addRule</text>
</a>
</g>
</g>
<!-- Node13&#45;&gt;Node14 -->
<g id="edge17_Node000013_Node000014" class="edge">
<title>Node13&#45;&gt;Node14</title>
<g id="a_edge17_Node000013_Node000014"><a xlink:title=" ">
<path fill="none" stroke="#63b8ff" d="M249.45,-163.12C260.57,-165.42 272.51,-167.88 283.35,-170.12"/>
<polygon fill="#63b8ff" stroke="#63b8ff" points="282.59,-173.53 293.09,-172.13 284,-166.68 282.59,-173.53"/>
</a>
</g>
</g>
<!-- Node15 -->
<g id="Node000015" class="node">
<title>Node15</title>
<g id="a_Node000015"><a xlink:href="../../dd/d2e/mcnaughton__yamada__thompson_8c.html#a0b8d037bf2841dede90be41f5fe1ccdc" target="_top" xlink:title="creates and initializes a transition rule">
<polygon fill="white" stroke="#666666" points="352.38,-150.25 289.12,-150.25 289.12,-131 352.38,-131 352.38,-150.25"/>
<text text-anchor="middle" x="320.75" y="-136.75" font-family="Helvetica,sans-Serif" font-size="10.00">createRule</text>
</a>
</g>
</g>
<!-- Node13&#45;&gt;Node15 -->
<g id="edge18_Node000013_Node000015" class="edge">
<title>Node13&#45;&gt;Node15</title>
<g id="a_edge18_Node000013_Node000015"><a xlink:title=" ">
<path fill="none" stroke="#63b8ff" d="M249.45,-149.45C258.61,-148.3 268.33,-147.08 277.53,-145.93"/>
<polygon fill="#63b8ff" stroke="#63b8ff" points="277.84,-149.41 287.32,-144.7 276.97,-142.47 277.84,-149.41"/>
</a>
</g>
</g>
<!-- Node17 -->
<g id="Node000017" class="node">
<title>Node17</title>
<g id="a_Node000017"><a xlink:href="../../dd/d2e/mcnaughton__yamada__thompson_8c.html#a6eaf52853f2b39a1299cc16972a3298e" target="_top" xlink:title="helper function to determine whether a character should be considered a character literal">
<polygon fill="white" stroke="#666666" points="345.62,-113.25 295.88,-113.25 295.88,-94 345.62,-94 345.62,-113.25"/>
<text text-anchor="middle" x="320.75" y="-99.75" font-family="Helvetica,sans-Serif" font-size="10.00">isLiteral</text>
</a>
</g>
</g>
<!-- Node16&#45;&gt;Node17 -->
<g id="edge21_Node000016_Node000017" class="edge">
<title>Node16&#45;&gt;Node17</title>
<g id="a_edge21_Node000016_Node000017"><a xlink:title=" ">
<path fill="none" stroke="#63b8ff" d="M246.62,-109.53C258.81,-108.54 272.23,-107.46 284.21,-106.49"/>
<polygon fill="#63b8ff" stroke="#63b8ff" points="284.42,-109.99 294.11,-105.69 283.86,-103.01 284.42,-109.99"/>
</a>
</g>
</g>
<!-- Node19 -->
<g id="Node000019" class="node">
<title>Node19</title>
<g id="a_Node000019"><a xlink:href="../../dd/d2e/mcnaughton__yamada__thompson_8c.html#a709e32f5905536216abb03efb4f4db2b" target="_top" xlink:title="helper function to determine an element&#39;s presence in an array">
<polygon fill="white" stroke="#666666" points="445.25,-47.25 392.5,-47.25 392.5,-28 445.25,-28 445.25,-47.25"/>
<text text-anchor="middle" x="418.88" y="-33.75" font-family="Helvetica,sans-Serif" font-size="10.00">contains</text>
</a>
</g>
</g>
<!-- Node18&#45;&gt;Node19 -->
<g id="edge23_Node000018_Node000019" class="edge">
<title>Node18&#45;&gt;Node19</title>
<g id="a_edge23_Node000018_Node000019"><a xlink:title=" ">
<path fill="none" stroke="#63b8ff" d="M228.89,-63.1C257.55,-59.57 311,-52.88 356.5,-46.62 364.39,-45.54 372.83,-44.33 380.86,-43.16"/>
<polygon fill="#63b8ff" stroke="#63b8ff" points="381.33,-46.63 390.71,-41.71 380.31,-39.71 381.33,-46.63"/>
</a>
</g>
</g>
<!-- Node20 -->
<g id="Node000020" class="node">
<title>Node20</title>
<g id="a_Node000020"><a xlink:href="../../dd/d2e/mcnaughton__yamada__thompson_8c.html#a34774f1859a742ea1c3eaf3f6726b66c" target="_top" xlink:title="helper function to manage empty character transitions">
<polygon fill="white" stroke="#666666" points="350.88,-19.25 290.62,-19.25 290.62,0 350.88,0 350.88,-19.25"/>
<text text-anchor="middle" x="320.75" y="-5.75" font-family="Helvetica,sans-Serif" font-size="10.00">findEmpty</text>
</a>
</g>
</g>
<!-- Node18&#45;&gt;Node20 -->
<g id="edge24_Node000018_Node000020" class="edge">
<title>Node18&#45;&gt;Node20</title>
<g id="a_edge24_Node000018_Node000020"><a xlink:title=" ">
<path fill="none" stroke="#63b8ff" d="M228.18,-55.61C245.2,-47.07 269.94,-34.64 289.42,-24.86"/>
<polygon fill="#63b8ff" stroke="#63b8ff" points="290.89,-28.03 298.26,-20.42 287.75,-21.78 290.89,-28.03"/>
</a>
</g>
</g>
<!-- Node20&#45;&gt;Node19 -->
<g id="edge25_Node000020_Node000019" class="edge">
<title>Node20&#45;&gt;Node19</title>
<g id="a_edge25_Node000020_Node000019"><a xlink:title=" ">
<path fill="none" stroke="#63b8ff" d="M351.11,-18.18C360.66,-20.96 371.37,-24.08 381.38,-26.99"/>
<polygon fill="#63b8ff" stroke="#63b8ff" points="380.24,-30.31 390.82,-29.74 382.19,-23.59 380.24,-30.31"/>
</a>
</g>
</g>
<!-- Node20&#45;&gt;Node20 -->
<g id="edge26_Node000020_Node000020" class="edge">
<title>Node20&#45;&gt;Node20</title>
<g id="a_edge26_Node000020_Node000020"><a xlink:title=" ">
<path fill="none" stroke="#63b8ff" d="M305.39,-19.54C298.38,-28.15 303.5,-37.25 320.75,-37.25 330.18,-37.25 335.99,-34.53 338.17,-30.65"/>
<polygon fill="#63b8ff" stroke="#63b8ff" points="341.65,-30.22 336.39,-21.03 334.76,-31.5 341.65,-30.22"/>
</a>
</g>
</g>
</g>
</svg>
