<?xml version="1.0" encoding="UTF-8" standalone="no"?>
<!DOCTYPE svg PUBLIC "-//W3C//DTD SVG 1.1//EN"
 "http://www.w3.org/Graphics/SVG/1.1/DTD/svg11.dtd">
<!-- Generated by graphviz version 8.0.5 (20230430.1635)
 -->
<!-- Title: buildAST Pages: 1 -->
<svg width="247pt" height="156pt"
 viewBox="0.00 0.00 246.50 156.25" xmlns="http://www.w3.org/2000/svg" xmlns:xlink="http://www.w3.org/1999/xlink">
<g id="graph0" class="graph" transform="scale(1 1) rotate(0) translate(4 152.25)">
<title>buildAST</title>
<!-- Node1 -->
<g id="Node000001" class="node">
<title>Node1</title>
<g id="a_Node000001"><a xlink:title="recursively constructs a AST from a preprocessed regex string">
<polygon fill="#999999" stroke="#666666" points="55.75,-74.25 0,-74.25 0,-55 55.75,-55 55.75,-74.25"/>
<text text-anchor="middle" x="27.88" y="-60.75" font-family="Helvetica,sans-Serif" font-size="10.00">buildAST</text>
</a>
</g>
</g>
<!-- Node1&#45;&gt;Node1 -->
<g id="edge1_Node000001_Node000001" class="edge">
<title>Node1&#45;&gt;Node1</title>
<g id="a_edge1_Node000001_Node000001"><a xlink:title=" ">
<path fill="none" stroke="#63b8ff" d="M12.28,-74.54C5.16,-83.15 10.36,-92.25 27.88,-92.25 38,-92.25 44.01,-89.21 45.9,-84.98"/>
<polygon fill="#63b8ff" stroke="#63b8ff" points="49.15,-84.48 43.47,-75.54 42.33,-86.07 49.15,-84.48"/>
</a>
</g>
</g>
<!-- Node2 -->
<g id="Node000002" class="node">
<title>Node2</title>
<g id="a_Node000002"><a xlink:href="../../dd/d2e/mcnaughton__yamada__thompson_8c.html#a12df013d848665fdcdcb01870c322af6" target="_top" xlink:title="creates and initializes a AST node">
<polygon fill="white" stroke="#666666" points="160.62,-148.25 94.38,-148.25 94.38,-129 160.62,-129 160.62,-148.25"/>
<text text-anchor="middle" x="127.5" y="-134.75" font-family="Helvetica,sans-Serif" font-size="10.00">createNode</text>
</a>
</g>
</g>
<!-- Node1&#45;&gt;Node2 -->
<g id="edge2_Node000001_Node000002" class="edge">
<title>Node1&#45;&gt;Node2</title>
<g id="a_edge2_Node000001_Node000002"><a xlink:title=" ">
<path fill="none" stroke="#63b8ff" d="M38.46,-74.57C50.27,-86.46 71.28,-106.54 91.75,-120.62 93.04,-121.52 94.39,-122.39 95.76,-123.25"/>
<polygon fill="#63b8ff" stroke="#63b8ff" points="93.65,-126.65 104.06,-128.59 97.13,-120.58 93.65,-126.65"/>
</a>
</g>
</g>
<!-- Node3 -->
<g id="Node000003" class="node">
<title>Node3</title>
<g id="a_Node000003"><a xlink:href="../../dd/d2e/mcnaughton__yamada__thompson_8c.html#a6a97ab2db6392f262b03370689872348" target="_top" xlink:title="recursively destroys a AST">
<polygon fill="white" stroke="#666666" points="163.25,-93.25 91.75,-93.25 91.75,-74 163.25,-74 163.25,-93.25"/>
<text text-anchor="middle" x="127.5" y="-79.75" font-family="Helvetica,sans-Serif" font-size="10.00">destroyNode</text>
</a>
</g>
</g>
<!-- Node1&#45;&gt;Node3 -->
<g id="edge3_Node000001_Node000003" class="edge">
<title>Node1&#45;&gt;Node3</title>
<g id="a_edge3_Node000001_Node000003"><a xlink:title=" ">
<path fill="none" stroke="#63b8ff" d="M56.07,-69.92C63.76,-71.42 72.36,-73.09 80.83,-74.74"/>
<polygon fill="#63b8ff" stroke="#63b8ff" points="79.92,-78.32 90.41,-76.8 81.26,-71.45 79.92,-78.32"/>
</a>
</g>
</g>
<!-- Node4 -->
<g id="Node000004" class="node">
<title>Node4</title>
<g id="a_Node000004"><a xlink:href="../../dd/d2e/mcnaughton__yamada__thompson_8c.html#aab463320a19667bd604db2405abefd55" target="_top" xlink:title="utility function to locate the first occurrence of a character in a string while respecting parenthes...">
<polygon fill="white" stroke="#666666" points="152.38,-56.25 102.62,-56.25 102.62,-37 152.38,-37 152.38,-56.25"/>
<text text-anchor="middle" x="127.5" y="-42.75" font-family="Helvetica,sans-Serif" font-size="10.00">indexOf</text>
</a>
</g>
</g>
<!-- Node1&#45;&gt;Node4 -->
<g id="edge5_Node000001_Node000004" class="edge">
<title>Node1&#45;&gt;Node4</title>
<g id="a_edge5_Node000001_Node000004"><a xlink:title=" ">
<path fill="none" stroke="#63b8ff" d="M56.07,-59.61C67.1,-57.58 79.98,-55.2 91.68,-53.04"/>
<polygon fill="#63b8ff" stroke="#63b8ff" points="92.24,-56.32 101.44,-51.06 90.98,-49.43 92.24,-56.32"/>
</a>
</g>
</g>
<!-- Node5 -->
<g id="Node000005" class="node">
<title>Node5</title>
<g id="a_Node000005"><a xlink:href="../../dd/d2e/mcnaughton__yamada__thompson_8c.html#a072d13f905ab9438d38d7415df222817" target="_top" xlink:title="utility function to create a subString">
<polygon fill="white" stroke="#666666" points="156.12,-19.25 98.88,-19.25 98.88,0 156.12,0 156.12,-19.25"/>
<text text-anchor="middle" x="127.5" y="-5.75" font-family="Helvetica,sans-Serif" font-size="10.00">subString</text>
</a>
</g>
</g>
<!-- Node1&#45;&gt;Node5 -->
<g id="edge6_Node000001_Node000005" class="edge">
<title>Node1&#45;&gt;Node5</title>
<g id="a_edge6_Node000001_Node000005"><a xlink:title=" ">
<path fill="none" stroke="#63b8ff" d="M45.28,-54.64C57.89,-47.05 75.79,-36.45 91.75,-27.62 93.53,-26.64 95.38,-25.64 97.24,-24.64"/>
<polygon fill="#63b8ff" stroke="#63b8ff" points="98.34,-27.48 105.56,-19.72 95.08,-21.29 98.34,-27.48"/>
</a>
</g>
</g>
<!-- Node3&#45;&gt;Node3 -->
<g id="edge4_Node000003_Node000003" class="edge">
<title>Node3&#45;&gt;Node3</title>
<g id="a_edge4_Node000003_Node000003"><a xlink:title=" ">
<path fill="none" stroke="#63b8ff" d="M113.19,-93.54C106.67,-102.15 111.44,-111.25 127.5,-111.25 136.53,-111.25 142,-108.37 143.88,-104.32"/>
<polygon fill="#63b8ff" stroke="#63b8ff" points="147.14,-103.69 141.81,-94.54 140.26,-105.02 147.14,-103.69"/>
</a>
</g>
</g>
<!-- Node6 -->
<g id="Node000006" class="node">
<title>Node6</title>
<g id="a_Node000006"><a xlink:href="../../df/dfa/vector_8c.html#a1afee8aaf33d741df31a73048cff4473" target="_top" xlink:title="This function returns the pointer to the begining of the Vector.">
<polygon fill="white" stroke="#666666" points="238.5,-19.25 199.25,-19.25 199.25,0 238.5,0 238.5,-19.25"/>
<text text-anchor="middle" x="218.88" y="-5.75" font-family="Helvetica,sans-Serif" font-size="10.00">begin</text>
</a>
</g>
</g>
<!-- Node5&#45;&gt;Node6 -->
<g id="edge7_Node000005_Node000006" class="edge">
<title>Node5&#45;&gt;Node6</title>
<g id="a_edge7_Node000005_Node000006"><a xlink:title=" ">
<path fill="none" stroke="#63b8ff" d="M156.29,-9.62C166.34,-9.62 177.73,-9.62 187.96,-9.62"/>
<polygon fill="#63b8ff" stroke="#63b8ff" points="187.88,-13.13 197.88,-9.62 187.88,-6.13 187.88,-13.13"/>
</a>
</g>
</g>
</g>
</svg>
