<?xml version="1.0" encoding="UTF-8" standalone="no"?>
<!DOCTYPE svg PUBLIC "-//W3C//DTD SVG 1.1//EN"
 "http://www.w3.org/Graphics/SVG/1.1/DTD/svg11.dtd">
<!-- Generated by graphviz version 8.0.4 (20230421.1958)
 -->
<!-- Title: testHelper Pages: 1 -->
<svg width="385pt" height="435pt"
 viewBox="0.00 0.00 384.75 435.25" xmlns="http://www.w3.org/2000/svg" xmlns:xlink="http://www.w3.org/1999/xlink">
<g id="graph0" class="graph" transform="scale(1 1) rotate(0) translate(4 431.25)">
<title>testHelper</title>
<!-- Node1 -->
<g id="node1" class="node">
<title>Node1</title>
<g id="a_node1"><a xlink:title="Testing helper function.">
<polygon fill="#999999" stroke="#666666" points="61,-219.25 0,-219.25 0,-200 61,-200 61,-219.25"/>
<text text-anchor="middle" x="30.5" y="-205.75" font-family="Helvetica,sans-Serif" font-size="10.00">testHelper</text>
</a>
</g>
</g>
<!-- Node2 -->
<g id="node2" class="node">
<title>Node2</title>
<g id="a_node2"><a xlink:href="../../dd/d2e/mcnaughton__yamada__thompson_8c.html#a496e9b4e45417ac56dac40bbbb769d7a" target="_top" xlink:title="recursively constructs a AST from a preprocessed regex string">
<polygon fill="white" stroke="#666666" points="166.62,-335.25 110.88,-335.25 110.88,-316 166.62,-316 166.62,-335.25"/>
<text text-anchor="middle" x="138.75" y="-321.75" font-family="Helvetica,sans-Serif" font-size="10.00">buildAST</text>
</a>
</g>
</g>
<!-- Node1&#45;&gt;Node2 -->
<g id="edge1" class="edge">
<title>Node1&#45;&gt;Node2</title>
<path fill="none" stroke="#63b8ff" d="M39.84,-219.33C52.15,-233.59 76.01,-260.97 97,-283.62 104.61,-291.83 113.21,-300.75 120.55,-308.25"/>
<polygon fill="#63b8ff" stroke="#63b8ff" points="117.4,-310.06 126.9,-314.73 122.39,-305.15 117.4,-310.06"/>
</g>
<!-- Node4 -->
<g id="node4" class="node">
<title>Node4</title>
<g id="a_node4"><a xlink:href="../../dd/d2e/mcnaughton__yamada__thompson_8c.html#a6a97ab2db6392f262b03370689872348" target="_top" xlink:title="recursively destroys a AST">
<polygon fill="white" stroke="#666666" points="288,-409.25 216.5,-409.25 216.5,-390 288,-390 288,-409.25"/>
<text text-anchor="middle" x="252.25" y="-395.75" font-family="Helvetica,sans-Serif" font-size="10.00">destroyNode</text>
</a>
</g>
</g>
<!-- Node1&#45;&gt;Node4 -->
<g id="edge13" class="edge">
<title>Node1&#45;&gt;Node4</title>
<path fill="none" stroke="#63b8ff" d="M32.7,-219.66C36.53,-247.09 51.07,-323.87 97,-362.62 127.07,-387.99 171.61,-396.57 205.11,-399.2"/>
<polygon fill="#63b8ff" stroke="#63b8ff" points="204.81,-402.75 215.01,-399.88 205.25,-395.76 204.81,-402.75"/>
</g>
<!-- Node8 -->
<g id="node8" class="node">
<title>Node8</title>
<g id="a_node8"><a xlink:href="../../dd/d2e/mcnaughton__yamada__thompson_8c.html#a684ed3494e22ee17d7b3e19a4d1fe977" target="_top" xlink:title="recursively destroys a NFA">
<polygon fill="white" stroke="#666666" points="173,-256.25 104.5,-256.25 104.5,-237 173,-237 173,-256.25"/>
<text text-anchor="middle" x="138.75" y="-242.75" font-family="Helvetica,sans-Serif" font-size="10.00">destroyNFA</text>
</a>
</g>
</g>
<!-- Node1&#45;&gt;Node8 -->
<g id="edge9" class="edge">
<title>Node1&#45;&gt;Node8</title>
<path fill="none" stroke="#63b8ff" d="M60.53,-219.74C72.25,-223.81 85.94,-228.58 98.52,-232.96"/>
<polygon fill="#63b8ff" stroke="#63b8ff" points="97.16,-236.54 107.75,-236.53 99.46,-229.93 97.16,-236.54"/>
</g>
<!-- Node11 -->
<g id="node11" class="node">
<title>Node11</title>
<g id="a_node11"><a xlink:href="../../dd/d2e/mcnaughton__yamada__thompson_8c.html#a2dabcd5c410a4b0cac1b4ab378c9dcdc" target="_top" xlink:title="determines whether the NFA is currently in its accepting state">
<polygon fill="white" stroke="#666666" points="172.25,-219.25 105.25,-219.25 105.25,-200 172.25,-200 172.25,-219.25"/>
<text text-anchor="middle" x="138.75" y="-205.75" font-family="Helvetica,sans-Serif" font-size="10.00">isAccepting</text>
</a>
</g>
</g>
<!-- Node1&#45;&gt;Node11 -->
<g id="edge14" class="edge">
<title>Node1&#45;&gt;Node11</title>
<path fill="none" stroke="#63b8ff" d="M61.38,-209.62C71.6,-209.62 83.25,-209.62 94.32,-209.62"/>
<polygon fill="#63b8ff" stroke="#63b8ff" points="94.12,-213.13 104.12,-209.62 94.12,-206.13 94.12,-213.13"/>
</g>
<!-- Node12 -->
<g id="node12" class="node">
<title>Node12</title>
<g id="a_node12"><a xlink:href="../../dd/d2e/mcnaughton__yamada__thompson_8c.html#a86e0f235783b005e4e6e951c9603bbe1" target="_top" xlink:title="performs postprocessing on a compiled NFA, add circular empty character transition rules where it&#39;s n...">
<polygon fill="white" stroke="#666666" points="180.5,-164.25 97,-164.25 97,-145 180.5,-145 180.5,-164.25"/>
<text text-anchor="middle" x="138.75" y="-150.75" font-family="Helvetica,sans-Serif" font-size="10.00">postProcessing</text>
</a>
</g>
</g>
<!-- Node1&#45;&gt;Node12 -->
<g id="edge15" class="edge">
<title>Node1&#45;&gt;Node12</title>
<path fill="none" stroke="#63b8ff" d="M50.99,-199.54C67.16,-191.16 90.41,-179.13 108.76,-169.63"/>
<polygon fill="#63b8ff" stroke="#63b8ff" points="110.11,-172.35 117.39,-164.65 106.9,-166.14 110.11,-172.35"/>
</g>
<!-- Node15 -->
<g id="node15" class="node">
<title>Node15</title>
<g id="a_node15"><a xlink:href="../../dd/d2e/mcnaughton__yamada__thompson_8c.html#ae9a5eac7c0d8ac478eb1b97529638fb6" target="_top" xlink:title="performs preprocessing on a regex string, making all implicit concatenations explicit">
<polygon fill="white" stroke="#666666" points="177.88,-122.25 99.62,-122.25 99.62,-103 177.88,-103 177.88,-122.25"/>
<text text-anchor="middle" x="138.75" y="-108.75" font-family="Helvetica,sans-Serif" font-size="10.00">preProcessing</text>
</a>
</g>
</g>
<!-- Node1&#45;&gt;Node15 -->
<g id="edge19" class="edge">
<title>Node1&#45;&gt;Node15</title>
<path fill="none" stroke="#63b8ff" d="M38.67,-199.57C49.86,-184.38 72.72,-155.26 97,-135.62 100.32,-132.94 103.99,-130.39 107.73,-128.04"/>
<polygon fill="#63b8ff" stroke="#63b8ff" points="109.14,-130.68 116,-122.6 105.6,-124.64 109.14,-130.68"/>
</g>
<!-- Node17 -->
<g id="node17" class="node">
<title>Node17</title>
<g id="a_node17"><a xlink:href="../../dd/d2e/mcnaughton__yamada__thompson_8c.html#aebe16fbf12c8ac089501ebcae6f0c050" target="_top" xlink:title="moves a NFA forward">
<polygon fill="white" stroke="#666666" points="160.25,-75.25 117.25,-75.25 117.25,-56 160.25,-56 160.25,-75.25"/>
<text text-anchor="middle" x="138.75" y="-61.75" font-family="Helvetica,sans-Serif" font-size="10.00">transit</text>
</a>
</g>
</g>
<!-- Node1&#45;&gt;Node17 -->
<g id="edge21" class="edge">
<title>Node1&#45;&gt;Node17</title>
<path fill="none" stroke="#63b8ff" d="M35.3,-199.66C43.8,-178.32 66.08,-127.4 97,-93.62 101.06,-89.19 105.94,-85.09 110.9,-81.47"/>
<polygon fill="#63b8ff" stroke="#63b8ff" points="112.41,-84 118.74,-75.51 108.49,-78.2 112.41,-84"/>
</g>
<!-- Node2&#45;&gt;Node2 -->
<g id="edge2" class="edge">
<title>Node2&#45;&gt;Node2</title>
<path fill="none" stroke="#63b8ff" d="M121.8,-335.54C114.07,-344.15 119.72,-353.25 138.75,-353.25 149.75,-353.25 156.28,-350.21 158.34,-345.98"/>
<polygon fill="#63b8ff" stroke="#63b8ff" points="161.54,-345.37 155.7,-336.54 154.76,-347.09 161.54,-345.37"/>
</g>
<!-- Node3 -->
<g id="node3" class="node">
<title>Node3</title>
<g id="a_node3"><a xlink:href="../../dd/d2e/mcnaughton__yamada__thompson_8c.html#a12df013d848665fdcdcb01870c322af6" target="_top" xlink:title="creates and initializes a AST node">
<polygon fill="white" stroke="#666666" points="285.38,-372.25 219.12,-372.25 219.12,-353 285.38,-353 285.38,-372.25"/>
<text text-anchor="middle" x="252.25" y="-358.75" font-family="Helvetica,sans-Serif" font-size="10.00">createNode</text>
</a>
</g>
</g>
<!-- Node2&#45;&gt;Node3 -->
<g id="edge3" class="edge">
<title>Node2&#45;&gt;Node3</title>
<path fill="none" stroke="#63b8ff" d="M167.03,-334.68C180.2,-339.05 196.28,-344.38 210.85,-349.22"/>
<polygon fill="#63b8ff" stroke="#63b8ff" points="209.53,-352.8 220.12,-352.63 211.73,-346.15 209.53,-352.8"/>
</g>
<!-- Node2&#45;&gt;Node4 -->
<g id="edge4" class="edge">
<title>Node2&#45;&gt;Node4</title>
<path fill="none" stroke="#63b8ff" d="M152.1,-335.55C166.94,-347.25 192.8,-366.96 216.5,-381.62 218.05,-382.58 219.65,-383.54 221.29,-384.48"/>
<polygon fill="#63b8ff" stroke="#63b8ff" points="219.3,-387.93 229.75,-389.66 222.66,-381.79 219.3,-387.93"/>
</g>
<!-- Node5 -->
<g id="node5" class="node">
<title>Node5</title>
<g id="a_node5"><a xlink:href="../../dd/d2e/mcnaughton__yamada__thompson_8c.html#aab463320a19667bd604db2405abefd55" target="_top" xlink:title="utility function to locate the first occurrence of a character in a string while respecting parenthes...">
<polygon fill="white" stroke="#666666" points="277.12,-335.25 227.38,-335.25 227.38,-316 277.12,-316 277.12,-335.25"/>
<text text-anchor="middle" x="252.25" y="-321.75" font-family="Helvetica,sans-Serif" font-size="10.00">indexOf</text>
</a>
</g>
</g>
<!-- Node2&#45;&gt;Node5 -->
<g id="edge6" class="edge">
<title>Node2&#45;&gt;Node5</title>
<path fill="none" stroke="#63b8ff" d="M167.03,-325.62C181.76,-325.62 200.12,-325.62 215.94,-325.62"/>
<polygon fill="#63b8ff" stroke="#63b8ff" points="215.91,-329.13 225.91,-325.62 215.91,-322.13 215.91,-329.13"/>
</g>
<!-- Node6 -->
<g id="node6" class="node">
<title>Node6</title>
<g id="a_node6"><a xlink:href="../../dd/d2e/mcnaughton__yamada__thompson_8c.html#a072d13f905ab9438d38d7415df222817" target="_top" xlink:title="utility function to create a subString">
<polygon fill="white" stroke="#666666" points="280.88,-298.25 223.62,-298.25 223.62,-279 280.88,-279 280.88,-298.25"/>
<text text-anchor="middle" x="252.25" y="-284.75" font-family="Helvetica,sans-Serif" font-size="10.00">subString</text>
</a>
</g>
</g>
<!-- Node2&#45;&gt;Node6 -->
<g id="edge7" class="edge">
<title>Node2&#45;&gt;Node6</title>
<path fill="none" stroke="#63b8ff" d="M167.03,-316.57C180.96,-311.95 198.14,-306.25 213.34,-301.21"/>
<polygon fill="#63b8ff" stroke="#63b8ff" points="214.09,-304.31 222.48,-297.84 211.89,-297.67 214.09,-304.31"/>
</g>
<!-- Node4&#45;&gt;Node4 -->
<g id="edge5" class="edge">
<title>Node4&#45;&gt;Node4</title>
<path fill="none" stroke="#63b8ff" d="M236.89,-409.54C229.88,-418.15 235,-427.25 252.25,-427.25 262.22,-427.25 268.14,-424.21 270,-419.98"/>
<polygon fill="#63b8ff" stroke="#63b8ff" points="273.26,-419.5 267.61,-410.54 266.44,-421.07 273.26,-419.5"/>
</g>
<!-- Node7 -->
<g id="node7" class="node">
<title>Node7</title>
<g id="a_node7"><a xlink:href="../../df/dfa/vector_8c.html#a1afee8aaf33d741df31a73048cff4473" target="_top" xlink:title="This function returns the pointer to the begining of the Vector.">
<polygon fill="white" stroke="#666666" points="370,-298.25 330.75,-298.25 330.75,-279 370,-279 370,-298.25"/>
<text text-anchor="middle" x="350.38" y="-284.75" font-family="Helvetica,sans-Serif" font-size="10.00">begin</text>
</a>
</g>
</g>
<!-- Node6&#45;&gt;Node7 -->
<g id="edge8" class="edge">
<title>Node6&#45;&gt;Node7</title>
<path fill="none" stroke="#63b8ff" d="M281.31,-288.62C293.24,-288.62 307.16,-288.62 319.3,-288.62"/>
<polygon fill="#63b8ff" stroke="#63b8ff" points="319.27,-292.13 329.27,-288.62 319.27,-285.13 319.27,-292.13"/>
</g>
<!-- Node8&#45;&gt;Node8 -->
<g id="edge10" class="edge">
<title>Node8&#45;&gt;Node8</title>
<path fill="none" stroke="#63b8ff" d="M121.8,-256.54C114.07,-265.15 119.72,-274.25 138.75,-274.25 149.75,-274.25 156.28,-271.21 158.34,-266.98"/>
<polygon fill="#63b8ff" stroke="#63b8ff" points="161.54,-266.37 155.7,-257.54 154.76,-268.09 161.54,-266.37"/>
</g>
<!-- Node9 -->
<g id="node9" class="node">
<title>Node9</title>
<g id="a_node9"><a xlink:href="../../dd/d2e/mcnaughton__yamada__thompson_8c.html#ade1398311f666988b895f41c3e36d70e" target="_top" xlink:title="destroys a transition rule object">
<polygon fill="white" stroke="#666666" points="286.5,-261.25 218,-261.25 218,-242 286.5,-242 286.5,-261.25"/>
<text text-anchor="middle" x="252.25" y="-247.75" font-family="Helvetica,sans-Serif" font-size="10.00">destroyRule</text>
</a>
</g>
</g>
<!-- Node8&#45;&gt;Node9 -->
<g id="edge11" class="edge">
<title>Node8&#45;&gt;Node9</title>
<path fill="none" stroke="#63b8ff" d="M173.2,-248.13C183.79,-248.6 195.66,-249.13 206.88,-249.64"/>
<polygon fill="#63b8ff" stroke="#63b8ff" points="206.67,-253.17 216.82,-250.13 206.99,-246.18 206.67,-253.17"/>
</g>
<!-- Node10 -->
<g id="node10" class="node">
<title>Node10</title>
<g id="a_node10"><a xlink:href="../../dd/d2e/mcnaughton__yamada__thompson_8c.html#a9a361f55b51ce6d677e907396fbc1652" target="_top" xlink:title="destroys a NFA state">
<polygon fill="white" stroke="#666666" points="288,-224.25 216.5,-224.25 216.5,-205 288,-205 288,-224.25"/>
<text text-anchor="middle" x="252.25" y="-210.75" font-family="Helvetica,sans-Serif" font-size="10.00">destroyState</text>
</a>
</g>
</g>
<!-- Node8&#45;&gt;Node10 -->
<g id="edge12" class="edge">
<title>Node8&#45;&gt;Node10</title>
<path fill="none" stroke="#63b8ff" d="M173.2,-237.02C183.51,-234.07 195.03,-230.76 205.99,-227.61"/>
<polygon fill="#63b8ff" stroke="#63b8ff" points="206.63,-230.79 215.27,-224.66 204.69,-224.06 206.63,-230.79"/>
</g>
<!-- Node12&#45;&gt;Node12 -->
<g id="edge18" class="edge">
<title>Node12&#45;&gt;Node12</title>
<path fill="none" stroke="#63b8ff" d="M121.8,-164.54C114.07,-173.15 119.72,-182.25 138.75,-182.25 149.75,-182.25 156.28,-179.21 158.34,-174.98"/>
<polygon fill="#63b8ff" stroke="#63b8ff" points="161.54,-174.37 155.7,-165.54 154.76,-176.09 161.54,-174.37"/>
</g>
<!-- Node13 -->
<g id="node13" class="node">
<title>Node13</title>
<g id="a_node13"><a xlink:href="../../dd/d2e/mcnaughton__yamada__thompson_8c.html#a4ed0049e15d45e0d75a991fbb6f8963c" target="_top" xlink:title="adds a transition rule to a NFA">
<polygon fill="white" stroke="#666666" points="278.25,-187.25 226.25,-187.25 226.25,-168 278.25,-168 278.25,-187.25"/>
<text text-anchor="middle" x="252.25" y="-173.75" font-family="Helvetica,sans-Serif" font-size="10.00">addRule</text>
</a>
</g>
</g>
<!-- Node12&#45;&gt;Node13 -->
<g id="edge16" class="edge">
<title>Node12&#45;&gt;Node13</title>
<path fill="none" stroke="#63b8ff" d="M180.95,-163.12C192.3,-165.47 204.52,-167.99 215.54,-170.26"/>
<polygon fill="#63b8ff" stroke="#63b8ff" points="214.57,-173.84 225.07,-172.43 215.99,-166.98 214.57,-173.84"/>
</g>
<!-- Node14 -->
<g id="node14" class="node">
<title>Node14</title>
<g id="a_node14"><a xlink:href="../../dd/d2e/mcnaughton__yamada__thompson_8c.html#a0b8d037bf2841dede90be41f5fe1ccdc" target="_top" xlink:title="creates and initializes a transition rule">
<polygon fill="white" stroke="#666666" points="283.88,-150.25 220.62,-150.25 220.62,-131 283.88,-131 283.88,-150.25"/>
<text text-anchor="middle" x="252.25" y="-136.75" font-family="Helvetica,sans-Serif" font-size="10.00">createRule</text>
</a>
</g>
</g>
<!-- Node12&#45;&gt;Node14 -->
<g id="edge17" class="edge">
<title>Node12&#45;&gt;Node14</title>
<path fill="none" stroke="#63b8ff" d="M180.95,-149.45C190.32,-148.28 200.27,-147.03 209.65,-145.85"/>
<polygon fill="#63b8ff" stroke="#63b8ff" points="209.84,-149.23 219.33,-144.51 208.97,-142.28 209.84,-149.23"/>
</g>
<!-- Node16 -->
<g id="node16" class="node">
<title>Node16</title>
<g id="a_node16"><a xlink:href="../../dd/d2e/mcnaughton__yamada__thompson_8c.html#a6eaf52853f2b39a1299cc16972a3298e" target="_top" xlink:title="helper function to determine whether a character should be considered a character literal">
<polygon fill="white" stroke="#666666" points="277.12,-113.25 227.38,-113.25 227.38,-94 277.12,-94 277.12,-113.25"/>
<text text-anchor="middle" x="252.25" y="-99.75" font-family="Helvetica,sans-Serif" font-size="10.00">isLiteral</text>
</a>
</g>
</g>
<!-- Node15&#45;&gt;Node16 -->
<g id="edge20" class="edge">
<title>Node15&#45;&gt;Node16</title>
<path fill="none" stroke="#63b8ff" d="M178.12,-109.53C190.57,-108.52 204.29,-107.42 216.46,-106.43"/>
<polygon fill="#63b8ff" stroke="#63b8ff" points="216.43,-109.87 226.11,-105.57 215.86,-102.89 216.43,-109.87"/>
</g>
<!-- Node18 -->
<g id="node18" class="node">
<title>Node18</title>
<g id="a_node18"><a xlink:href="../../dd/d2e/mcnaughton__yamada__thompson_8c.html#a709e32f5905536216abb03efb4f4db2b" target="_top" xlink:title="helper function to determine an element&#39;s presence in an array">
<polygon fill="white" stroke="#666666" points="376.75,-47.25 324,-47.25 324,-28 376.75,-28 376.75,-47.25"/>
<text text-anchor="middle" x="350.38" y="-33.75" font-family="Helvetica,sans-Serif" font-size="10.00">contains</text>
</a>
</g>
</g>
<!-- Node17&#45;&gt;Node18 -->
<g id="edge22" class="edge">
<title>Node17&#45;&gt;Node18</title>
<path fill="none" stroke="#63b8ff" d="M160.39,-63.1C189.05,-59.57 242.5,-52.88 288,-46.62 296.07,-45.52 304.73,-44.28 312.92,-43.08"/>
<polygon fill="#63b8ff" stroke="#63b8ff" points="313.32,-46.41 322.71,-41.49 312.31,-39.49 313.32,-46.41"/>
</g>
<!-- Node19 -->
<g id="node19" class="node">
<title>Node19</title>
<g id="a_node19"><a xlink:href="../../dd/d2e/mcnaughton__yamada__thompson_8c.html#a34774f1859a742ea1c3eaf3f6726b66c" target="_top" xlink:title="helper function to manage empty character transitions">
<polygon fill="white" stroke="#666666" points="282.38,-19.25 222.12,-19.25 222.12,0 282.38,0 282.38,-19.25"/>
<text text-anchor="middle" x="252.25" y="-5.75" font-family="Helvetica,sans-Serif" font-size="10.00">findEmpty</text>
</a>
</g>
</g>
<!-- Node17&#45;&gt;Node19 -->
<g id="edge23" class="edge">
<title>Node17&#45;&gt;Node19</title>
<path fill="none" stroke="#63b8ff" d="M159.68,-55.61C176.86,-46.99 201.9,-34.41 221.46,-24.59"/>
<polygon fill="#63b8ff" stroke="#63b8ff" points="222.75,-27.35 230.11,-19.74 219.61,-21.1 222.75,-27.35"/>
</g>
<!-- Node19&#45;&gt;Node18 -->
<g id="edge24" class="edge">
<title>Node19&#45;&gt;Node18</title>
<path fill="none" stroke="#63b8ff" d="M282.61,-18.18C292.37,-21.02 303.34,-24.21 313.52,-27.18"/>
<polygon fill="#63b8ff" stroke="#63b8ff" points="312.19,-30.73 322.77,-30.17 314.15,-24.01 312.19,-30.73"/>
</g>
<!-- Node19&#45;&gt;Node19 -->
<g id="edge25" class="edge">
<title>Node19&#45;&gt;Node19</title>
<path fill="none" stroke="#63b8ff" d="M236.89,-19.54C229.88,-28.15 235,-37.25 252.25,-37.25 262.22,-37.25 268.14,-34.21 270,-29.98"/>
<polygon fill="#63b8ff" stroke="#63b8ff" points="273.26,-29.5 267.61,-20.54 266.44,-31.07 273.26,-29.5"/>
</g>
</g>
</svg>
