<?xml version="1.0" encoding="UTF-8" standalone="no"?>
<!DOCTYPE svg PUBLIC "-//W3C//DTD SVG 1.1//EN"
 "http://www.w3.org/Graphics/SVG/1.1/DTD/svg11.dtd">
<!-- Generated by graphviz version 8.0.5 (20230430.1635)
 -->
<!-- Title: main Pages: 1 -->
<!--zoomable 435 -->

<svg id="main" version="1.1" xmlns="http://www.w3.org/2000/svg" xmlns:xlink="http://www.w3.org/1999/xlink" xml:space="preserve" onload="init(evt)">
<style type="text/css"><![CDATA[
.node, .edge {opacity: 0.7;}
.node.selected, .edge.selected {opacity: 1;}
.edge:hover path { stroke: red; }
.edge:hover polygon { stroke: red; fill: red; }
]]></style>

<defs>
  <circle id="rim" cx="0" cy="0" r="7"/>
  <circle id="rim2" cx="0" cy="0" r="3.5"/>
  <g id="zoomPlus">
    <use xlink:href="#rim" fill="#404040"><set attributeName="fill" to="#808080" begin="zoomplus.mouseover" end="zoomplus.mouseout"/></use>
    <path d="M-4,0h8M0,-4v8" fill="none" stroke="white" stroke-width="1.5" pointer-events="none"/>
  </g>
  <g id="zoomMin">
    <use xlink:href="#rim" fill="#404040"><set attributeName="fill" to="#808080" begin="zoomminus.mouseover" end="zoomminus.mouseout"/></use>
    <path d="M-4,0h8" fill="none" stroke="white" stroke-width="1.5" pointer-events="none"/>
  </g>
  <g id="arrowUp" transform="translate(30 24)">
    <use xlink:href="#rim"/>
    <path pointer-events="none" fill="none" stroke="white" stroke-width="1.5" d="M0,-3.0v7 M-2.5,-0.5L0,-3.0L2.5,-0.5"/>
  </g>
  <g id="arrowRight" transform="rotate(90) translate(36 -43)">
    <use xlink:href="#rim"/>
    <path pointer-events="none" fill="none" stroke="white" stroke-width="1.5" d="M0,-3.0v7 M-2.5,-0.5L0,-3.0L2.5,-0.5"/>
  </g>
  <g id="arrowDown" transform="rotate(180) translate(-30 -48)">
    <use xlink:href="#rim"/>
    <path pointer-events="none" fill="none" stroke="white" stroke-width="1.5" d="M0,-3.0v7 M-2.5,-0.5L0,-3.0L2.5,-0.5"/>
  </g>
  <g id="arrowLeft" transform="rotate(270) translate(-36 17)">
    <use xlink:href="#rim"/>
    <path pointer-events="none" fill="none" stroke="white" stroke-width="1.5" d="M0,-3.0v7 M-2.5,-0.5L0,-3.0L2.5,-0.5"/>
  </g>
  <g id="resetDef">
    <use xlink:href="#rim2" fill="#404040"><set attributeName="fill" to="#808080" begin="reset.mouseover" end="reset.mouseout"/></use>
  </g>
</defs>
<script type="application/ecmascript">
var viewWidth = 526;
var viewHeight = 435;
var sectionId = 'dynsection-6';
</script>
<script type="application/ecmascript" xlink:href="../../svg.min.js"/>
<svg id="graph" class="graph">
<g id="viewport">
<title>main</title>
<!-- Node1 -->
<g id="Node000001" class="node">
<title>Node1</title>
<g id="a_Node000001"><a xlink:title="Main function.">
<polygon fill="#999999" stroke="#666666" points="37,-219.25 0,-219.25 0,-200 37,-200 37,-219.25"/>
<text text-anchor="middle" x="18.5" y="-205.75" font-family="Helvetica,sans-Serif" font-size="10.00">main</text>
</a>
</g>
</g>
<!-- Node2 -->
<g id="Node000002" class="node">
<title>Node2</title>
<g id="a_Node000002"><a xlink:href="../../dd/d2e/mcnaughton__yamada__thompson_8c.html#a13eda00dd5efd9440b0eaf5430b73e84" target="_top" xlink:title="Self&#45;test implementations.">
<polygon fill="white" stroke="#666666" points="105.5,-219.25 73,-219.25 73,-200 105.5,-200 105.5,-219.25"/>
<text text-anchor="middle" x="89.25" y="-205.75" font-family="Helvetica,sans-Serif" font-size="10.00">test</text>
</a>
</g>
</g>
<!-- Node1&#45;&gt;Node2 -->
<g id="edge1_Node000001_Node000002" class="edge">
<title>Node1&#45;&gt;Node2</title>
<g id="a_edge1_Node000001_Node000002"><a xlink:title=" ">
<path fill="none" stroke="#63b8ff" d="M37.2,-209.62C44.67,-209.62 53.52,-209.62 61.73,-209.62"/>
<polygon fill="#63b8ff" stroke="#63b8ff" points="61.71,-213.13 71.71,-209.62 61.71,-206.13 61.71,-213.13"/>
</a>
</g>
</g>
<!-- Node3 -->
<g id="Node000003" class="node">
<title>Node3</title>
<g id="a_Node000003"><a xlink:href="../../dd/d2e/mcnaughton__yamada__thompson_8c.html#a38faadeab39bb48716f1065bc05abec8" target="_top" xlink:title="Testing helper function.">
<polygon fill="white" stroke="#666666" points="202.5,-219.25 141.5,-219.25 141.5,-200 202.5,-200 202.5,-219.25"/>
<text text-anchor="middle" x="172" y="-205.75" font-family="Helvetica,sans-Serif" font-size="10.00">testHelper</text>
</a>
</g>
</g>
<!-- Node2&#45;&gt;Node3 -->
<g id="edge2_Node000002_Node000003" class="edge">
<title>Node2&#45;&gt;Node3</title>
<g id="a_edge2_Node000002_Node000003"><a xlink:title=" ">
<path fill="none" stroke="#63b8ff" d="M105.82,-209.62C112.84,-209.62 121.5,-209.62 130.19,-209.62"/>
<polygon fill="#63b8ff" stroke="#63b8ff" points="130.09,-213.13 140.09,-209.62 130.09,-206.13 130.09,-213.13"/>
</a>
</g>
</g>
<!-- Node4 -->
<g id="Node000004" class="node">
<title>Node4</title>
<g id="a_Node000004"><a xlink:href="../../dd/d2e/mcnaughton__yamada__thompson_8c.html#a496e9b4e45417ac56dac40bbbb769d7a" target="_top" xlink:title="recursively constructs a AST from a preprocessed regex string">
<polygon fill="white" stroke="#666666" points="308.12,-335.25 252.38,-335.25 252.38,-316 308.12,-316 308.12,-335.25"/>
<text text-anchor="middle" x="280.25" y="-321.75" font-family="Helvetica,sans-Serif" font-size="10.00">buildAST</text>
</a>
</g>
</g>
<!-- Node3&#45;&gt;Node4 -->
<g id="edge3_Node000003_Node000004" class="edge">
<title>Node3&#45;&gt;Node4</title>
<g id="a_edge3_Node000003_Node000004"><a xlink:title=" ">
<path fill="none" stroke="#63b8ff" d="M181.34,-219.33C193.65,-233.59 217.51,-260.97 238.5,-283.62 246.11,-291.83 254.71,-300.75 262.05,-308.25"/>
<polygon fill="#63b8ff" stroke="#63b8ff" points="258.9,-310.06 268.4,-314.73 263.89,-305.15 258.9,-310.06"/>
</a>
</g>
</g>
<!-- Node6 -->
<g id="Node000006" class="node">
<title>Node6</title>
<g id="a_Node000006"><a xlink:href="../../dd/d2e/mcnaughton__yamada__thompson_8c.html#a6a97ab2db6392f262b03370689872348" target="_top" xlink:title="recursively destroys a AST">
<polygon fill="white" stroke="#666666" points="429.5,-409.25 358,-409.25 358,-390 429.5,-390 429.5,-409.25"/>
<text text-anchor="middle" x="393.75" y="-395.75" font-family="Helvetica,sans-Serif" font-size="10.00">destroyNode</text>
</a>
</g>
</g>
<!-- Node3&#45;&gt;Node6 -->
<g id="edge15_Node000003_Node000006" class="edge">
<title>Node3&#45;&gt;Node6</title>
<g id="a_edge15_Node000003_Node000006"><a xlink:title=" ">
<path fill="none" stroke="#63b8ff" d="M174.2,-219.66C178.03,-247.09 192.57,-323.87 238.5,-362.62 268.57,-387.99 313.11,-396.57 346.61,-399.2"/>
<polygon fill="#63b8ff" stroke="#63b8ff" points="346.31,-402.75 356.51,-399.88 346.75,-395.76 346.31,-402.75"/>
</a>
</g>
</g>
<!-- Node10 -->
<g id="Node000010" class="node">
<title>Node10</title>
<g id="a_Node000010"><a xlink:href="../../dd/d2e/mcnaughton__yamada__thompson_8c.html#a684ed3494e22ee17d7b3e19a4d1fe977" target="_top" xlink:title="recursively destroys a NFA">
<polygon fill="white" stroke="#666666" points="314.5,-256.25 246,-256.25 246,-237 314.5,-237 314.5,-256.25"/>
<text text-anchor="middle" x="280.25" y="-242.75" font-family="Helvetica,sans-Serif" font-size="10.00">destroyNFA</text>
</a>
</g>
</g>
<!-- Node3&#45;&gt;Node10 -->
<g id="edge11_Node000003_Node000010" class="edge">
<title>Node3&#45;&gt;Node10</title>
<g id="a_edge11_Node000003_Node000010"><a xlink:title=" ">
<path fill="none" stroke="#63b8ff" d="M202.03,-219.74C213.75,-223.81 227.44,-228.58 240.02,-232.96"/>
<polygon fill="#63b8ff" stroke="#63b8ff" points="238.66,-236.54 249.25,-236.53 240.96,-229.93 238.66,-236.54"/>
</a>
</g>
</g>
<!-- Node13 -->
<g id="Node000013" class="node">
<title>Node13</title>
<g id="a_Node000013"><a xlink:href="../../dd/d2e/mcnaughton__yamada__thompson_8c.html#a2dabcd5c410a4b0cac1b4ab378c9dcdc" target="_top" xlink:title="determines whether the NFA is currently in its accepting state">
<polygon fill="white" stroke="#666666" points="313.75,-219.25 246.75,-219.25 246.75,-200 313.75,-200 313.75,-219.25"/>
<text text-anchor="middle" x="280.25" y="-205.75" font-family="Helvetica,sans-Serif" font-size="10.00">isAccepting</text>
</a>
</g>
</g>
<!-- Node3&#45;&gt;Node13 -->
<g id="edge16_Node000003_Node000013" class="edge">
<title>Node3&#45;&gt;Node13</title>
<g id="a_edge16_Node000003_Node000013"><a xlink:title=" ">
<path fill="none" stroke="#63b8ff" d="M202.88,-209.62C213.1,-209.62 224.75,-209.62 235.82,-209.62"/>
<polygon fill="#63b8ff" stroke="#63b8ff" points="235.62,-213.13 245.62,-209.62 235.62,-206.13 235.62,-213.13"/>
</a>
</g>
</g>
<!-- Node14 -->
<g id="Node000014" class="node">
<title>Node14</title>
<g id="a_Node000014"><a xlink:href="../../dd/d2e/mcnaughton__yamada__thompson_8c.html#a86e0f235783b005e4e6e951c9603bbe1" target="_top" xlink:title="performs postprocessing on a compiled NFA, add circular empty character transition rules where it&#39;s n...">
<polygon fill="white" stroke="#666666" points="322,-164.25 238.5,-164.25 238.5,-145 322,-145 322,-164.25"/>
<text text-anchor="middle" x="280.25" y="-150.75" font-family="Helvetica,sans-Serif" font-size="10.00">postProcessing</text>
</a>
</g>
</g>
<!-- Node3&#45;&gt;Node14 -->
<g id="edge17_Node000003_Node000014" class="edge">
<title>Node3&#45;&gt;Node14</title>
<g id="a_edge17_Node000003_Node000014"><a xlink:title=" ">
<path fill="none" stroke="#63b8ff" d="M192.49,-199.54C208.66,-191.16 231.91,-179.13 250.26,-169.63"/>
<polygon fill="#63b8ff" stroke="#63b8ff" points="251.61,-172.35 258.89,-164.65 248.4,-166.14 251.61,-172.35"/>
</a>
</g>
</g>
<!-- Node17 -->
<g id="Node000017" class="node">
<title>Node17</title>
<g id="a_Node000017"><a xlink:href="../../dd/d2e/mcnaughton__yamada__thompson_8c.html#ae9a5eac7c0d8ac478eb1b97529638fb6" target="_top" xlink:title="performs preprocessing on a regex string, making all implicit concatenations explicit">
<polygon fill="white" stroke="#666666" points="319.38,-122.25 241.12,-122.25 241.12,-103 319.38,-103 319.38,-122.25"/>
<text text-anchor="middle" x="280.25" y="-108.75" font-family="Helvetica,sans-Serif" font-size="10.00">preProcessing</text>
</a>
</g>
</g>
<!-- Node3&#45;&gt;Node17 -->
<g id="edge21_Node000003_Node000017" class="edge">
<title>Node3&#45;&gt;Node17</title>
<g id="a_edge21_Node000003_Node000017"><a xlink:title=" ">
<path fill="none" stroke="#63b8ff" d="M180.17,-199.57C191.36,-184.38 214.22,-155.26 238.5,-135.62 241.82,-132.94 245.49,-130.39 249.23,-128.04"/>
<polygon fill="#63b8ff" stroke="#63b8ff" points="250.64,-130.68 257.5,-122.6 247.1,-124.64 250.64,-130.68"/>
</a>
</g>
</g>
<!-- Node19 -->
<g id="Node000019" class="node">
<title>Node19</title>
<g id="a_Node000019"><a xlink:href="../../dd/d2e/mcnaughton__yamada__thompson_8c.html#aebe16fbf12c8ac089501ebcae6f0c050" target="_top" xlink:title="moves a NFA forward">
<polygon fill="white" stroke="#666666" points="301.75,-75.25 258.75,-75.25 258.75,-56 301.75,-56 301.75,-75.25"/>
<text text-anchor="middle" x="280.25" y="-61.75" font-family="Helvetica,sans-Serif" font-size="10.00">transit</text>
</a>
</g>
</g>
<!-- Node3&#45;&gt;Node19 -->
<g id="edge23_Node000003_Node000019" class="edge">
<title>Node3&#45;&gt;Node19</title>
<g id="a_edge23_Node000003_Node000019"><a xlink:title=" ">
<path fill="none" stroke="#63b8ff" d="M176.8,-199.66C185.3,-178.32 207.58,-127.4 238.5,-93.62 242.56,-89.19 247.44,-85.09 252.4,-81.47"/>
<polygon fill="#63b8ff" stroke="#63b8ff" points="253.91,-84 260.24,-75.51 249.99,-78.2 253.91,-84"/>
</a>
</g>
</g>
<!-- Node4&#45;&gt;Node4 -->
<g id="edge4_Node000004_Node000004" class="edge">
<title>Node4&#45;&gt;Node4</title>
<g id="a_edge4_Node000004_Node000004"><a xlink:title=" ">
<path fill="none" stroke="#63b8ff" d="M263.3,-335.54C255.57,-344.15 261.22,-353.25 280.25,-353.25 291.25,-353.25 297.78,-350.21 299.84,-345.98"/>
<polygon fill="#63b8ff" stroke="#63b8ff" points="303.04,-345.37 297.2,-336.54 296.26,-347.09 303.04,-345.37"/>
</a>
</g>
</g>
<!-- Node5 -->
<g id="Node000005" class="node">
<title>Node5</title>
<g id="a_Node000005"><a xlink:href="../../dd/d2e/mcnaughton__yamada__thompson_8c.html#a12df013d848665fdcdcb01870c322af6" target="_top" xlink:title="creates and initializes a AST node">
<polygon fill="white" stroke="#666666" points="426.88,-372.25 360.62,-372.25 360.62,-353 426.88,-353 426.88,-372.25"/>
<text text-anchor="middle" x="393.75" y="-358.75" font-family="Helvetica,sans-Serif" font-size="10.00">createNode</text>
</a>
</g>
</g>
<!-- Node4&#45;&gt;Node5 -->
<g id="edge5_Node000004_Node000005" class="edge">
<title>Node4&#45;&gt;Node5</title>
<g id="a_edge5_Node000004_Node000005"><a xlink:title=" ">
<path fill="none" stroke="#63b8ff" d="M308.53,-334.68C321.7,-339.05 337.78,-344.38 352.35,-349.22"/>
<polygon fill="#63b8ff" stroke="#63b8ff" points="351.03,-352.8 361.62,-352.63 353.23,-346.15 351.03,-352.8"/>
</a>
</g>
</g>
<!-- Node4&#45;&gt;Node6 -->
<g id="edge6_Node000004_Node000006" class="edge">
<title>Node4&#45;&gt;Node6</title>
<g id="a_edge6_Node000004_Node000006"><a xlink:title=" ">
<path fill="none" stroke="#63b8ff" d="M293.6,-335.55C308.44,-347.25 334.3,-366.96 358,-381.62 359.55,-382.58 361.15,-383.54 362.79,-384.48"/>
<polygon fill="#63b8ff" stroke="#63b8ff" points="360.8,-387.93 371.25,-389.66 364.16,-381.79 360.8,-387.93"/>
</a>
</g>
</g>
<!-- Node7 -->
<g id="Node000007" class="node">
<title>Node7</title>
<g id="a_Node000007"><a xlink:href="../../dd/d2e/mcnaughton__yamada__thompson_8c.html#aab463320a19667bd604db2405abefd55" target="_top" xlink:title="utility function to locate the first occurrence of a character in a string while respecting parenthes...">
<polygon fill="white" stroke="#666666" points="418.62,-335.25 368.88,-335.25 368.88,-316 418.62,-316 418.62,-335.25"/>
<text text-anchor="middle" x="393.75" y="-321.75" font-family="Helvetica,sans-Serif" font-size="10.00">indexOf</text>
</a>
</g>
</g>
<!-- Node4&#45;&gt;Node7 -->
<g id="edge8_Node000004_Node000007" class="edge">
<title>Node4&#45;&gt;Node7</title>
<g id="a_edge8_Node000004_Node000007"><a xlink:title=" ">
<path fill="none" stroke="#63b8ff" d="M308.53,-325.62C323.26,-325.62 341.62,-325.62 357.44,-325.62"/>
<polygon fill="#63b8ff" stroke="#63b8ff" points="357.41,-329.13 367.41,-325.62 357.41,-322.13 357.41,-329.13"/>
</a>
</g>
</g>
<!-- Node8 -->
<g id="Node000008" class="node">
<title>Node8</title>
<g id="a_Node000008"><a xlink:href="../../dd/d2e/mcnaughton__yamada__thompson_8c.html#a072d13f905ab9438d38d7415df222817" target="_top" xlink:title="utility function to create a subString">
<polygon fill="white" stroke="#666666" points="422.38,-298.25 365.12,-298.25 365.12,-279 422.38,-279 422.38,-298.25"/>
<text text-anchor="middle" x="393.75" y="-284.75" font-family="Helvetica,sans-Serif" font-size="10.00">subString</text>
</a>
</g>
</g>
<!-- Node4&#45;&gt;Node8 -->
<g id="edge9_Node000004_Node000008" class="edge">
<title>Node4&#45;&gt;Node8</title>
<g id="a_edge9_Node000004_Node000008"><a xlink:title=" ">
<path fill="none" stroke="#63b8ff" d="M308.53,-316.57C322.46,-311.95 339.64,-306.25 354.84,-301.21"/>
<polygon fill="#63b8ff" stroke="#63b8ff" points="355.59,-304.31 363.98,-297.84 353.39,-297.67 355.59,-304.31"/>
</a>
</g>
</g>
<!-- Node6&#45;&gt;Node6 -->
<g id="edge7_Node000006_Node000006" class="edge">
<title>Node6&#45;&gt;Node6</title>
<g id="a_edge7_Node000006_Node000006"><a xlink:title=" ">
<path fill="none" stroke="#63b8ff" d="M378.39,-409.54C371.38,-418.15 376.5,-427.25 393.75,-427.25 403.72,-427.25 409.64,-424.21 411.5,-419.98"/>
<polygon fill="#63b8ff" stroke="#63b8ff" points="414.76,-419.5 409.11,-410.54 407.94,-421.07 414.76,-419.5"/>
</a>
</g>
</g>
<!-- Node9 -->
<g id="Node000009" class="node">
<title>Node9</title>
<g id="a_Node000009"><a xlink:href="../../df/dfa/vector_8c.html#a1afee8aaf33d741df31a73048cff4473" target="_top" xlink:title="This function returns the pointer to the begining of the Vector.">
<polygon fill="white" stroke="#666666" points="511.5,-298.25 472.25,-298.25 472.25,-279 511.5,-279 511.5,-298.25"/>
<text text-anchor="middle" x="491.88" y="-284.75" font-family="Helvetica,sans-Serif" font-size="10.00">begin</text>
</a>
</g>
</g>
<!-- Node8&#45;&gt;Node9 -->
<g id="edge10_Node000008_Node000009" class="edge">
<title>Node8&#45;&gt;Node9</title>
<g id="a_edge10_Node000008_Node000009"><a xlink:title=" ">
<path fill="none" stroke="#63b8ff" d="M422.81,-288.62C434.74,-288.62 448.66,-288.62 460.8,-288.62"/>
<polygon fill="#63b8ff" stroke="#63b8ff" points="460.77,-292.13 470.77,-288.62 460.77,-285.13 460.77,-292.13"/>
</a>
</g>
</g>
<!-- Node10&#45;&gt;Node10 -->
<g id="edge12_Node000010_Node000010" class="edge">
<title>Node10&#45;&gt;Node10</title>
<g id="a_edge12_Node000010_Node000010"><a xlink:title=" ">
<path fill="none" stroke="#63b8ff" d="M263.3,-256.54C255.57,-265.15 261.22,-274.25 280.25,-274.25 291.25,-274.25 297.78,-271.21 299.84,-266.98"/>
<polygon fill="#63b8ff" stroke="#63b8ff" points="303.04,-266.37 297.2,-257.54 296.26,-268.09 303.04,-266.37"/>
</a>
</g>
</g>
<!-- Node11 -->
<g id="Node000011" class="node">
<title>Node11</title>
<g id="a_Node000011"><a xlink:href="../../dd/d2e/mcnaughton__yamada__thompson_8c.html#ade1398311f666988b895f41c3e36d70e" target="_top" xlink:title="destroys a transition rule object">
<polygon fill="white" stroke="#666666" points="428,-261.25 359.5,-261.25 359.5,-242 428,-242 428,-261.25"/>
<text text-anchor="middle" x="393.75" y="-247.75" font-family="Helvetica,sans-Serif" font-size="10.00">destroyRule</text>
</a>
</g>
</g>
<!-- Node10&#45;&gt;Node11 -->
<g id="edge13_Node000010_Node000011" class="edge">
<title>Node10&#45;&gt;Node11</title>
<g id="a_edge13_Node000010_Node000011"><a xlink:title=" ">
<path fill="none" stroke="#63b8ff" d="M314.7,-248.13C325.29,-248.6 337.16,-249.13 348.38,-249.64"/>
<polygon fill="#63b8ff" stroke="#63b8ff" points="348.17,-253.17 358.32,-250.13 348.49,-246.18 348.17,-253.17"/>
</a>
</g>
</g>
<!-- Node12 -->
<g id="Node000012" class="node">
<title>Node12</title>
<g id="a_Node000012"><a xlink:href="../../dd/d2e/mcnaughton__yamada__thompson_8c.html#a9a361f55b51ce6d677e907396fbc1652" target="_top" xlink:title="destroys a NFA state">
<polygon fill="white" stroke="#666666" points="429.5,-224.25 358,-224.25 358,-205 429.5,-205 429.5,-224.25"/>
<text text-anchor="middle" x="393.75" y="-210.75" font-family="Helvetica,sans-Serif" font-size="10.00">destroyState</text>
</a>
</g>
</g>
<!-- Node10&#45;&gt;Node12 -->
<g id="edge14_Node000010_Node000012" class="edge">
<title>Node10&#45;&gt;Node12</title>
<g id="a_edge14_Node000010_Node000012"><a xlink:title=" ">
<path fill="none" stroke="#63b8ff" d="M314.7,-237.02C325.01,-234.07 336.53,-230.76 347.49,-227.61"/>
<polygon fill="#63b8ff" stroke="#63b8ff" points="348.13,-230.79 356.77,-224.66 346.19,-224.06 348.13,-230.79"/>
</a>
</g>
</g>
<!-- Node14&#45;&gt;Node14 -->
<g id="edge20_Node000014_Node000014" class="edge">
<title>Node14&#45;&gt;Node14</title>
<g id="a_edge20_Node000014_Node000014"><a xlink:title=" ">
<path fill="none" stroke="#63b8ff" d="M263.3,-164.54C255.57,-173.15 261.22,-182.25 280.25,-182.25 291.25,-182.25 297.78,-179.21 299.84,-174.98"/>
<polygon fill="#63b8ff" stroke="#63b8ff" points="303.04,-174.37 297.2,-165.54 296.26,-176.09 303.04,-174.37"/>
</a>
</g>
</g>
<!-- Node15 -->
<g id="Node000015" class="node">
<title>Node15</title>
<g id="a_Node000015"><a xlink:href="../../dd/d2e/mcnaughton__yamada__thompson_8c.html#a4ed0049e15d45e0d75a991fbb6f8963c" target="_top" xlink:title="adds a transition rule to a NFA">
<polygon fill="white" stroke="#666666" points="419.75,-187.25 367.75,-187.25 367.75,-168 419.75,-168 419.75,-187.25"/>
<text text-anchor="middle" x="393.75" y="-173.75" font-family="Helvetica,sans-Serif" font-size="10.00">addRule</text>
</a>
</g>
</g>
<!-- Node14&#45;&gt;Node15 -->
<g id="edge18_Node000014_Node000015" class="edge">
<title>Node14&#45;&gt;Node15</title>
<g id="a_edge18_Node000014_Node000015"><a xlink:title=" ">
<path fill="none" stroke="#63b8ff" d="M322.45,-163.12C333.8,-165.47 346.02,-167.99 357.04,-170.26"/>
<polygon fill="#63b8ff" stroke="#63b8ff" points="356.07,-173.84 366.57,-172.43 357.49,-166.98 356.07,-173.84"/>
</a>
</g>
</g>
<!-- Node16 -->
<g id="Node000016" class="node">
<title>Node16</title>
<g id="a_Node000016"><a xlink:href="../../dd/d2e/mcnaughton__yamada__thompson_8c.html#a0b8d037bf2841dede90be41f5fe1ccdc" target="_top" xlink:title="creates and initializes a transition rule">
<polygon fill="white" stroke="#666666" points="425.38,-150.25 362.12,-150.25 362.12,-131 425.38,-131 425.38,-150.25"/>
<text text-anchor="middle" x="393.75" y="-136.75" font-family="Helvetica,sans-Serif" font-size="10.00">createRule</text>
</a>
</g>
</g>
<!-- Node14&#45;&gt;Node16 -->
<g id="edge19_Node000014_Node000016" class="edge">
<title>Node14&#45;&gt;Node16</title>
<g id="a_edge19_Node000014_Node000016"><a xlink:title=" ">
<path fill="none" stroke="#63b8ff" d="M322.45,-149.45C331.82,-148.28 341.77,-147.03 351.15,-145.85"/>
<polygon fill="#63b8ff" stroke="#63b8ff" points="351.34,-149.23 360.83,-144.51 350.47,-142.28 351.34,-149.23"/>
</a>
</g>
</g>
<!-- Node18 -->
<g id="Node000018" class="node">
<title>Node18</title>
<g id="a_Node000018"><a xlink:href="../../dd/d2e/mcnaughton__yamada__thompson_8c.html#a6eaf52853f2b39a1299cc16972a3298e" target="_top" xlink:title="helper function to determine whether a character should be considered a character literal">
<polygon fill="white" stroke="#666666" points="418.62,-113.25 368.88,-113.25 368.88,-94 418.62,-94 418.62,-113.25"/>
<text text-anchor="middle" x="393.75" y="-99.75" font-family="Helvetica,sans-Serif" font-size="10.00">isLiteral</text>
</a>
</g>
</g>
<!-- Node17&#45;&gt;Node18 -->
<g id="edge22_Node000017_Node000018" class="edge">
<title>Node17&#45;&gt;Node18</title>
<g id="a_edge22_Node000017_Node000018"><a xlink:title=" ">
<path fill="none" stroke="#63b8ff" d="M319.62,-109.53C332.07,-108.52 345.79,-107.42 357.96,-106.43"/>
<polygon fill="#63b8ff" stroke="#63b8ff" points="357.93,-109.87 367.61,-105.57 357.36,-102.89 357.93,-109.87"/>
</a>
</g>
</g>
<!-- Node20 -->
<g id="Node000020" class="node">
<title>Node20</title>
<g id="a_Node000020"><a xlink:href="../../dd/d2e/mcnaughton__yamada__thompson_8c.html#a709e32f5905536216abb03efb4f4db2b" target="_top" xlink:title="helper function to determine an element&#39;s presence in an array">
<polygon fill="white" stroke="#666666" points="518.25,-47.25 465.5,-47.25 465.5,-28 518.25,-28 518.25,-47.25"/>
<text text-anchor="middle" x="491.88" y="-33.75" font-family="Helvetica,sans-Serif" font-size="10.00">contains</text>
</a>
</g>
</g>
<!-- Node19&#45;&gt;Node20 -->
<g id="edge24_Node000019_Node000020" class="edge">
<title>Node19&#45;&gt;Node20</title>
<g id="a_edge24_Node000019_Node000020"><a xlink:title=" ">
<path fill="none" stroke="#63b8ff" d="M301.89,-63.1C330.55,-59.57 384,-52.88 429.5,-46.62 437.57,-45.52 446.23,-44.28 454.42,-43.08"/>
<polygon fill="#63b8ff" stroke="#63b8ff" points="454.82,-46.41 464.21,-41.49 453.81,-39.49 454.82,-46.41"/>
</a>
</g>
</g>
<!-- Node21 -->
<g id="Node000021" class="node">
<title>Node21</title>
<g id="a_Node000021"><a xlink:href="../../dd/d2e/mcnaughton__yamada__thompson_8c.html#a34774f1859a742ea1c3eaf3f6726b66c" target="_top" xlink:title="helper function to manage empty character transitions">
<polygon fill="white" stroke="#666666" points="423.88,-19.25 363.62,-19.25 363.62,0 423.88,0 423.88,-19.25"/>
<text text-anchor="middle" x="393.75" y="-5.75" font-family="Helvetica,sans-Serif" font-size="10.00">findEmpty</text>
</a>
</g>
</g>
<!-- Node19&#45;&gt;Node21 -->
<g id="edge25_Node000019_Node000021" class="edge">
<title>Node19&#45;&gt;Node21</title>
<g id="a_edge25_Node000019_Node000021"><a xlink:title=" ">
<path fill="none" stroke="#63b8ff" d="M301.18,-55.61C318.36,-46.99 343.4,-34.41 362.96,-24.59"/>
<polygon fill="#63b8ff" stroke="#63b8ff" points="364.25,-27.35 371.61,-19.74 361.11,-21.1 364.25,-27.35"/>
</a>
</g>
</g>
<!-- Node21&#45;&gt;Node20 -->
<g id="edge26_Node000021_Node000020" class="edge">
<title>Node21&#45;&gt;Node20</title>
<g id="a_edge26_Node000021_Node000020"><a xlink:title=" ">
<path fill="none" stroke="#63b8ff" d="M424.11,-18.18C433.87,-21.02 444.84,-24.21 455.02,-27.18"/>
<polygon fill="#63b8ff" stroke="#63b8ff" points="453.69,-30.73 464.27,-30.17 455.65,-24.01 453.69,-30.73"/>
</a>
</g>
</g>
<!-- Node21&#45;&gt;Node21 -->
<g id="edge27_Node000021_Node000021" class="edge">
<title>Node21&#45;&gt;Node21</title>
<g id="a_edge27_Node000021_Node000021"><a xlink:title=" ">
<path fill="none" stroke="#63b8ff" d="M378.39,-19.54C371.38,-28.15 376.5,-37.25 393.75,-37.25 403.72,-37.25 409.64,-34.21 411.5,-29.98"/>
<polygon fill="#63b8ff" stroke="#63b8ff" points="414.76,-29.5 409.11,-20.54 407.94,-31.07 414.76,-29.5"/>
</a>
</g>
</g>
</g>
</svg>

<g id="navigator" transform="translate(0 0)" fill="#404254">
  <rect fill="#f2f5e9" fill-opacity="0.5" stroke="#606060" stroke-width=".5" x="0" y="0" width="60" height="60"/>
  <use id="zoomplus" xlink:href="#zoomPlus" x="17" y="9" onmousedown="handleZoom(evt,'in')"/>
  <use id="zoomminus" xlink:href="#zoomMin" x="42" y="9" onmousedown="handleZoom(evt,'out')"/>
  <use id="reset" xlink:href="#resetDef" x="30" y="36" onmousedown="handleReset()"/>
   <use id="arrowup" xlink:href="#arrowUp" x="0" y="0" onmousedown="handlePan(0,-1)"/>
  <use id="arrowright" xlink:href="#arrowRight" x="0" y="0" onmousedown="handlePan(1,0)"/>
  <use id="arrowdown" xlink:href="#arrowDown" x="0" y="0" onmousedown="handlePan(0,1)"/>
  <use id="arrowleft" xlink:href="#arrowLeft" x="0" y="0" onmousedown="handlePan(-1,0)"/>
</g>
<svg viewBox="0 0 15 15" width="100%" height="30px" preserveAspectRatio="xMaxYMin meet">
 <g id="arrow_out" transform="scale(0.3 0.3)">
  <a xlink:href="mcnaughton__yamada__thompson_8c_a840291bc02cba5474a4cb46a9b9566fe_cgraph_org.svg" target="_base">
   <rect id="button" ry="5" rx="5" y="6" x="6" height="38" width="38"
        fill="#f2f5e9" fill-opacity="0.5" stroke="#606060" stroke-width="1.0"/>
   <path id="arrow"
     d="M 11.500037,31.436501 C 11.940474,20.09759 22.043105,11.32322 32.158766,21.979434 L 37.068811,17.246167 C 37.068811,17.246167 37.088388,32 37.088388,32 L 22.160133,31.978069 C 22.160133,31.978069 26.997745,27.140456 26.997745,27.140456 C 18.528582,18.264221 13.291696,25.230495 11.500037,31.436501 z"
     style="fill:#404040;"/>
  </a>
 </g>
</svg>

<style type='text/css'>
<![CDATA[
[data-mouse-over-selected='false'] { opacity: 0.7; }
[data-mouse-over-selected='true']  { opacity: 1.0; }
]]>
</style>
<script type="application/ecmascript"><![CDATA[
document.addEventListener('DOMContentLoaded', (event) => {
  highlightEdges();
  highlightAdjacentNodes();
});
]]></script>
</svg>
