<?xml version="1.0" encoding="UTF-8" standalone="no"?>
<!DOCTYPE svg PUBLIC "-//W3C//DTD SVG 1.1//EN"
 "http://www.w3.org/Graphics/SVG/1.1/DTD/svg11.dtd">
<!-- Generated by graphviz version 8.0.2 (20230410.1723)
 -->
<!-- Title: greedy_approach/prim.c Pages: 1 -->
<svg width="270pt" height="82pt"
 viewBox="0.00 0.00 269.50 82.00" xmlns="http://www.w3.org/2000/svg" xmlns:xlink="http://www.w3.org/1999/xlink">
<g id="graph0" class="graph" transform="scale(1 1) rotate(0) translate(4 78)">
<title>greedy_approach/prim.c</title>
<!-- Node1 -->
<g id="node1" class="node">
<title>Node1</title>
<g id="a_node1"><a xlink:title="Prim&#39;s algorithm implementation in C to find the MST of a weighted, connected graph.">
<polygon fill="#999999" stroke="#666666" points="183.5,-74 62.5,-74 62.5,-55 183.5,-55 183.5,-74"/>
<text text-anchor="middle" x="123" y="-62" font-family="Helvetica,sans-Serif" font-size="10.00">greedy_approach/prim.c</text>
</a>
</g>
</g>
<!-- Node2 -->
<g id="node2" class="node">
<title>Node2</title>
<g id="a_node2"><a xlink:title=" ">
<polygon fill="#e0e0e0" stroke="#999999" points="46,-19 0,-19 0,0 46,0 46,-19"/>
<text text-anchor="middle" x="23" y="-7" font-family="Helvetica,sans-Serif" font-size="10.00">stdio.h</text>
</a>
</g>
</g>
<!-- Node1&#45;&gt;Node2 -->
<g id="edge1" class="edge">
<title>Node1&#45;&gt;Node2</title>
<path fill="none" stroke="#63b8ff" d="M106.04,-54.51C90.5,-46.27 67.26,-33.96 49.31,-24.45"/>
<polygon fill="#63b8ff" stroke="#63b8ff" points="51.19,-20.95 40.71,-19.36 47.91,-27.13 51.19,-20.95"/>
</g>
<!-- Node3 -->
<g id="node3" class="node">
<title>Node3</title>
<g id="a_node3"><a xlink:title=" ">
<polygon fill="#e0e0e0" stroke="#999999" points="113.5,-19 64.5,-19 64.5,0 113.5,0 113.5,-19"/>
<text text-anchor="middle" x="89" y="-7" font-family="Helvetica,sans-Serif" font-size="10.00">string.h</text>
</a>
</g>
</g>
<!-- Node1&#45;&gt;Node3 -->
<g id="edge2" class="edge">
<title>Node1&#45;&gt;Node3</title>
<path fill="none" stroke="#63b8ff" d="M117.39,-54.75C112.84,-47.66 106.27,-37.42 100.6,-28.59"/>
<polygon fill="#63b8ff" stroke="#63b8ff" points="103.08,-26.97 94.74,-20.44 97.19,-30.75 103.08,-26.97"/>
</g>
<!-- Node4 -->
<g id="node4" class="node">
<title>Node4</title>
<g id="a_node4"><a xlink:title=" ">
<polygon fill="#e0e0e0" stroke="#999999" points="184,-19 132,-19 132,0 184,0 184,-19"/>
<text text-anchor="middle" x="158" y="-7" font-family="Helvetica,sans-Serif" font-size="10.00">assert.h</text>
</a>
</g>
</g>
<!-- Node1&#45;&gt;Node4 -->
<g id="edge3" class="edge">
<title>Node1&#45;&gt;Node4</title>
<path fill="none" stroke="#63b8ff" d="M128.78,-54.75C133.46,-47.66 140.22,-37.42 146.06,-28.59"/>
<polygon fill="#63b8ff" stroke="#63b8ff" points="149.5,-30.72 152.09,-20.44 143.66,-26.86 149.5,-30.72"/>
</g>
<!-- Node5 -->
<g id="node5" class="node">
<title>Node5</title>
<g id="a_node5"><a xlink:title=" ">
<polygon fill="#e0e0e0" stroke="#999999" points="261.5,-19 202.5,-19 202.5,0 261.5,0 261.5,-19"/>
<text text-anchor="middle" x="232" y="-7" font-family="Helvetica,sans-Serif" font-size="10.00">inttypes.h</text>
</a>
</g>
</g>
<!-- Node1&#45;&gt;Node5 -->
<g id="edge4" class="edge">
<title>Node1&#45;&gt;Node5</title>
<path fill="none" stroke="#63b8ff" d="M141.49,-54.51C158.66,-46.16 184.47,-33.61 204.14,-24.05"/>
<polygon fill="#63b8ff" stroke="#63b8ff" points="205.32,-26.88 212.78,-19.36 202.26,-20.58 205.32,-26.88"/>
</g>
</g>
</svg>
