<?xml version="1.0" encoding="UTF-8" standalone="no"?>
<!DOCTYPE svg PUBLIC "-//W3C//DTD SVG 1.1//EN"
 "http://www.w3.org/Graphics/SVG/1.1/DTD/svg11.dtd">
<!-- Generated by graphviz version 8.0.5 (20230430.1635)
 -->
<!-- Title: test Pages: 1 -->
<svg width="275pt" height="249pt"
 viewBox="0.00 0.00 275.00 249.25" xmlns="http://www.w3.org/2000/svg" xmlns:xlink="http://www.w3.org/1999/xlink">
<g id="graph0" class="graph" transform="scale(1 1) rotate(0) translate(4 245.25)">
<title>test</title>
<!-- Node1 -->
<g id="Node000001" class="node">
<title>Node1</title>
<g id="a_Node000001"><a xlink:title="Self&#45;test implementations.">
<polygon fill="#999999" stroke="#666666" points="32.5,-130.25 0,-130.25 0,-111 32.5,-111 32.5,-130.25"/>
<text text-anchor="middle" x="16.25" y="-116.75" font-family="Helvetica,sans-Serif" font-size="10.00">test</text>
</a>
</g>
</g>
<!-- Node2 -->
<g id="Node000002" class="node">
<title>Node2</title>
<g id="a_Node000002"><a xlink:href="../../dd/d19/circular__doubly__linked__list_8c.html#a1418cac5ddf9edb58fca97afce27b456" target="_top" xlink:title="Function for deletion of the first node in list.">
<polygon fill="white" stroke="#666666" points="161.75,-241.25 68.5,-241.25 68.5,-222 161.75,-222 161.75,-241.25"/>
<text text-anchor="middle" x="115.12" y="-227.75" font-family="Helvetica,sans-Serif" font-size="10.00">delete_from_head</text>
</a>
</g>
</g>
<!-- Node1&#45;&gt;Node2 -->
<g id="edge1_Node000001_Node000002" class="edge">
<title>Node1&#45;&gt;Node2</title>
<g id="a_edge1_Node000001_Node000002"><a xlink:title=" ">
<path fill="none" stroke="#63b8ff" d="M20.18,-130.48C26.22,-149.2 41.78,-190.13 68.5,-213.62 69.4,-214.41 70.33,-215.17 71.29,-215.89"/>
<polygon fill="#63b8ff" stroke="#63b8ff" points="69.29,-219.38 79.65,-221.6 72.94,-213.4 69.29,-219.38"/>
</a>
</g>
</g>
<!-- Node3 -->
<g id="Node000003" class="node">
<title>Node3</title>
<g id="a_Node000003"><a xlink:href="../../dd/d19/circular__doubly__linked__list_8c.html#abf4cdda9fbace9822612349d19ec2e72" target="_top" xlink:title="Function for deletion of the last node in list.">
<polygon fill="white" stroke="#666666" points="157.62,-204.25 72.62,-204.25 72.62,-185 157.62,-185 157.62,-204.25"/>
<text text-anchor="middle" x="115.12" y="-190.75" font-family="Helvetica,sans-Serif" font-size="10.00">delete_from_tail</text>
</a>
</g>
</g>
<!-- Node1&#45;&gt;Node3 -->
<g id="edge2_Node000001_Node000003" class="edge">
<title>Node1&#45;&gt;Node3</title>
<g id="a_edge2_Node000001_Node000003"><a xlink:title=" ">
<path fill="none" stroke="#63b8ff" d="M24.15,-130.61C33.11,-142.91 49.83,-163.77 68.5,-176.62 70.18,-177.78 71.95,-178.88 73.78,-179.92"/>
<polygon fill="#63b8ff" stroke="#63b8ff" points="71.7,-183.3 82.2,-184.65 74.83,-177.04 71.7,-183.3"/>
</a>
</g>
</g>
<!-- Node5 -->
<g id="Node000005" class="node">
<title>Node5</title>
<g id="a_Node000005"><a xlink:href="../../dd/d19/circular__doubly__linked__list_8c.html#a5411df421a94177700868b34887d5d0e" target="_top" xlink:title="Display list function.">
<polygon fill="white" stroke="#666666" points="147.5,-167.25 82.75,-167.25 82.75,-148 147.5,-148 147.5,-167.25"/>
<text text-anchor="middle" x="115.12" y="-153.75" font-family="Helvetica,sans-Serif" font-size="10.00">display_list</text>
</a>
</g>
</g>
<!-- Node1&#45;&gt;Node5 -->
<g id="edge4_Node000001_Node000005" class="edge">
<title>Node1&#45;&gt;Node5</title>
<g id="a_edge4_Node000001_Node000005"><a xlink:title=" ">
<path fill="none" stroke="#63b8ff" d="M32.81,-126.57C44.92,-131.19 62.22,-137.8 77.75,-143.73"/>
<polygon fill="#63b8ff" stroke="#63b8ff" points="76.04,-147.21 86.63,-147.51 78.54,-140.67 76.04,-147.21"/>
</a>
</g>
</g>
<!-- Node6 -->
<g id="Node000006" class="node">
<title>Node6</title>
<g id="a_Node000006"><a xlink:href="../../dd/d19/circular__doubly__linked__list_8c.html#ac53a0550fa74838246bc783ddc005ec1" target="_top" xlink:title="access the list by index">
<polygon fill="white" stroke="#666666" points="129.88,-130.25 100.38,-130.25 100.38,-111 129.88,-111 129.88,-130.25"/>
<text text-anchor="middle" x="115.12" y="-116.75" font-family="Helvetica,sans-Serif" font-size="10.00">get</text>
</a>
</g>
</g>
<!-- Node1&#45;&gt;Node6 -->
<g id="edge5_Node000001_Node000006" class="edge">
<title>Node1&#45;&gt;Node6</title>
<g id="a_edge5_Node000001_Node000006"><a xlink:title=" ">
<path fill="none" stroke="#63b8ff" d="M32.81,-120.62C48.08,-120.62 71.6,-120.62 89.43,-120.62"/>
<polygon fill="#63b8ff" stroke="#63b8ff" points="89.17,-124.13 99.17,-120.62 89.17,-117.13 89.17,-124.13"/>
</a>
</g>
</g>
<!-- Node7 -->
<g id="Node000007" class="node">
<title>Node7</title>
<g id="a_Node000007"><a xlink:href="../../dd/d19/circular__doubly__linked__list_8c.html#a6a64eb6265e703639bbfec9c3db93e0c" target="_top" xlink:title="The function that will return current size of list.">
<polygon fill="white" stroke="#666666" points="138.88,-93.25 91.38,-93.25 91.38,-74 138.88,-74 138.88,-93.25"/>
<text text-anchor="middle" x="115.12" y="-79.75" font-family="Helvetica,sans-Serif" font-size="10.00">getsize</text>
</a>
</g>
</g>
<!-- Node1&#45;&gt;Node7 -->
<g id="edge6_Node000001_Node000007" class="edge">
<title>Node1&#45;&gt;Node7</title>
<g id="a_edge6_Node000001_Node000007"><a xlink:title=" ">
<path fill="none" stroke="#63b8ff" d="M32.81,-114.68C45.71,-109.75 64.5,-102.58 80.77,-96.36"/>
<polygon fill="#63b8ff" stroke="#63b8ff" points="81.91,-99.29 90.01,-92.45 79.42,-92.75 81.91,-99.29"/>
</a>
</g>
</g>
<!-- Node8 -->
<g id="Node000008" class="node">
<title>Node8</title>
<g id="a_Node000008"><a xlink:href="../../dd/d19/circular__doubly__linked__list_8c.html#a964882e633c25a29b12237e29f20fa9a" target="_top" xlink:title="Insert a node at start of list.">
<polygon fill="white" stroke="#666666" points="155,-56.25 75.25,-56.25 75.25,-37 155,-37 155,-56.25"/>
<text text-anchor="middle" x="115.12" y="-42.75" font-family="Helvetica,sans-Serif" font-size="10.00">insert_at_head</text>
</a>
</g>
</g>
<!-- Node1&#45;&gt;Node8 -->
<g id="edge7_Node000001_Node000008" class="edge">
<title>Node1&#45;&gt;Node8</title>
<g id="a_edge7_Node000001_Node000008"><a xlink:title=" ">
<path fill="none" stroke="#63b8ff" d="M24.15,-110.64C33.11,-98.34 49.83,-77.48 68.5,-64.62 70.18,-63.47 71.95,-62.37 73.78,-61.33"/>
<polygon fill="#63b8ff" stroke="#63b8ff" points="74.83,-64.21 82.2,-56.6 71.7,-57.95 74.83,-64.21"/>
</a>
</g>
</g>
<!-- Node10 -->
<g id="Node000010" class="node">
<title>Node10</title>
<g id="a_Node000010"><a xlink:href="../../dd/d19/circular__doubly__linked__list_8c.html#aee328f691615862c4298fe730d66027b" target="_top" xlink:title="Insert a node at end of list.">
<polygon fill="white" stroke="#666666" points="150.88,-19.25 79.38,-19.25 79.38,0 150.88,0 150.88,-19.25"/>
<text text-anchor="middle" x="115.12" y="-5.75" font-family="Helvetica,sans-Serif" font-size="10.00">insert_at_tail</text>
</a>
</g>
</g>
<!-- Node1&#45;&gt;Node10 -->
<g id="edge9_Node000001_Node000010" class="edge">
<title>Node1&#45;&gt;Node10</title>
<g id="a_edge9_Node000001_Node000010"><a xlink:title=" ">
<path fill="none" stroke="#63b8ff" d="M20.18,-110.77C26.22,-92.05 41.78,-51.12 68.5,-27.62 69.4,-26.84 70.33,-26.08 71.29,-25.36"/>
<polygon fill="#63b8ff" stroke="#63b8ff" points="72.94,-27.85 79.65,-19.65 69.29,-21.87 72.94,-27.85"/>
</a>
</g>
</g>
<!-- Node4 -->
<g id="Node000004" class="node">
<title>Node4</title>
<g id="a_Node000004"><a xlink:href="../../df/dfa/vector_8c.html#af2f92e8cc55e764980bc0573ab5cd06f" target="_top" xlink:title="This function gets the next item from the Vector each time it&#39;s called.">
<polygon fill="white" stroke="#666666" points="249.75,-204.25 215,-204.25 215,-185 249.75,-185 249.75,-204.25"/>
<text text-anchor="middle" x="232.38" y="-190.75" font-family="Helvetica,sans-Serif" font-size="10.00">next</text>
</a>
</g>
</g>
<!-- Node3&#45;&gt;Node4 -->
<g id="edge3_Node000003_Node000004" class="edge">
<title>Node3&#45;&gt;Node4</title>
<g id="a_edge3_Node000003_Node000004"><a xlink:title=" ">
<path fill="none" stroke="#63b8ff" d="M158.06,-194.62C173.34,-194.62 190.22,-194.62 203.93,-194.62"/>
<polygon fill="#63b8ff" stroke="#63b8ff" points="203.59,-198.13 213.59,-194.62 203.59,-191.13 203.59,-198.13"/>
</a>
</g>
</g>
<!-- Node9 -->
<g id="Node000009" class="node">
<title>Node9</title>
<g id="a_Node000009"><a xlink:href="../../dd/d19/circular__doubly__linked__list_8c.html#a4a89f96b090dfdb505b714195e59ca5b" target="_top" xlink:title="Create a list node.">
<polygon fill="white" stroke="#666666" points="267,-38.25 197.75,-38.25 197.75,-19 267,-19 267,-38.25"/>
<text text-anchor="middle" x="232.38" y="-24.75" font-family="Helvetica,sans-Serif" font-size="10.00">create_node</text>
</a>
</g>
</g>
<!-- Node8&#45;&gt;Node9 -->
<g id="edge8_Node000008_Node000009" class="edge">
<title>Node8&#45;&gt;Node9</title>
<g id="a_edge8_Node000008_Node000009"><a xlink:title=" ">
<path fill="none" stroke="#63b8ff" d="M155.47,-40.48C165.63,-38.89 176.64,-37.17 187.04,-35.55"/>
<polygon fill="#63b8ff" stroke="#63b8ff" points="187.25,-38.9 196.59,-33.9 186.17,-31.99 187.25,-38.9"/>
</a>
</g>
</g>
<!-- Node10&#45;&gt;Node9 -->
<g id="edge10_Node000010_Node000009" class="edge">
<title>Node10&#45;&gt;Node9</title>
<g id="a_edge10_Node000010_Node000009"><a xlink:title=" ">
<path fill="none" stroke="#63b8ff" d="M151.33,-15.43C162.58,-17.28 175.18,-19.36 187,-21.31"/>
<polygon fill="#63b8ff" stroke="#63b8ff" points="186.13,-24.88 196.57,-23.05 187.27,-17.97 186.13,-24.88"/>
</a>
</g>
</g>
</g>
</svg>
