<?xml version="1.0" encoding="UTF-8" standalone="no"?>
<!DOCTYPE svg PUBLIC "-//W3C//DTD SVG 1.1//EN"
 "http://www.w3.org/Graphics/SVG/1.1/DTD/svg11.dtd">
<!-- Generated by graphviz version 8.0.5 (20230430.1635)
 -->
<!-- Title: main Pages: 1 -->
<svg width="348pt" height="249pt"
 viewBox="0.00 0.00 348.00 249.25" xmlns="http://www.w3.org/2000/svg" xmlns:xlink="http://www.w3.org/1999/xlink">

<svg id="main" version="1.1" xmlns="http://www.w3.org/2000/svg" xmlns:xlink="http://www.w3.org/1999/xlink" xml:space="preserve" onload="init(evt)">
<style type="text/css"><![CDATA[
.node, .edge {opacity: 0.7;}
.node.selected, .edge.selected {opacity: 1;}
.edge:hover path { stroke: red; }
.edge:hover polygon { stroke: red; fill: red; }
]]></style>
<script type="application/ecmascript" xlink:href="../../svg.min.js"/>
<svg id="graph" class="graph">
<g id="graph0" class="graph" transform="scale(1 1) rotate(0) translate(4 245.25)">
<title>main</title>
<!-- Node1 -->
<g id="Node000001" class="node">
<title>Node1</title>
<g id="a_Node000001"><a xlink:title="Main function.">
<polygon fill="#999999" stroke="#666666" points="37,-130.25 0,-130.25 0,-111 37,-111 37,-130.25"/>
<text text-anchor="middle" x="18.5" y="-116.75" font-family="Helvetica,sans-Serif" font-size="10.00">main</text>
</a>
</g>
</g>
<!-- Node2 -->
<g id="Node000002" class="node">
<title>Node2</title>
<g id="a_Node000002"><a xlink:href="../../dd/d19/circular__doubly__linked__list_8c.html#aa8dca7b867074164d5f45b0f3851269d" target="_top" xlink:title="Self&#45;test implementations.">
<polygon fill="white" stroke="#666666" points="105.5,-130.25 73,-130.25 73,-111 105.5,-111 105.5,-130.25"/>
<text text-anchor="middle" x="89.25" y="-116.75" font-family="Helvetica,sans-Serif" font-size="10.00">test</text>
</a>
</g>
</g>
<!-- Node1&#45;&gt;Node2 -->
<g id="edge1_Node000001_Node000002" class="edge">
<title>Node1&#45;&gt;Node2</title>
<g id="a_edge1_Node000001_Node000002"><a xlink:title=" ">
<path fill="none" stroke="#63b8ff" d="M37.2,-120.62C44.67,-120.62 53.52,-120.62 61.73,-120.62"/>
<polygon fill="#63b8ff" stroke="#63b8ff" points="61.71,-124.13 71.71,-120.62 61.71,-117.13 61.71,-124.13"/>
</a>
</g>
</g>
<!-- Node3 -->
<g id="Node000003" class="node">
<title>Node3</title>
<g id="a_Node000003"><a xlink:href="../../dd/d19/circular__doubly__linked__list_8c.html#a1418cac5ddf9edb58fca97afce27b456" target="_top" xlink:title="Function for deletion of the first node in list.">
<polygon fill="white" stroke="#666666" points="234.75,-241.25 141.5,-241.25 141.5,-222 234.75,-222 234.75,-241.25"/>
<text text-anchor="middle" x="188.12" y="-227.75" font-family="Helvetica,sans-Serif" font-size="10.00">delete_from_head</text>
</a>
</g>
</g>
<!-- Node2&#45;&gt;Node3 -->
<g id="edge2_Node000002_Node000003" class="edge">
<title>Node2&#45;&gt;Node3</title>
<g id="a_edge2_Node000002_Node000003"><a xlink:title=" ">
<path fill="none" stroke="#63b8ff" d="M93.18,-130.48C99.22,-149.2 114.78,-190.13 141.5,-213.62 142.4,-214.41 143.33,-215.17 144.29,-215.89"/>
<polygon fill="#63b8ff" stroke="#63b8ff" points="142.29,-219.38 152.65,-221.6 145.94,-213.4 142.29,-219.38"/>
</a>
</g>
</g>
<!-- Node4 -->
<g id="Node000004" class="node">
<title>Node4</title>
<g id="a_Node000004"><a xlink:href="../../dd/d19/circular__doubly__linked__list_8c.html#abf4cdda9fbace9822612349d19ec2e72" target="_top" xlink:title="Function for deletion of the last node in list.">
<polygon fill="white" stroke="#666666" points="230.62,-204.25 145.62,-204.25 145.62,-185 230.62,-185 230.62,-204.25"/>
<text text-anchor="middle" x="188.12" y="-190.75" font-family="Helvetica,sans-Serif" font-size="10.00">delete_from_tail</text>
</a>
</g>
</g>
<!-- Node2&#45;&gt;Node4 -->
<g id="edge3_Node000002_Node000004" class="edge">
<title>Node2&#45;&gt;Node4</title>
<g id="a_edge3_Node000002_Node000004"><a xlink:title=" ">
<path fill="none" stroke="#63b8ff" d="M97.15,-130.61C106.11,-142.91 122.83,-163.77 141.5,-176.62 143.18,-177.78 144.95,-178.88 146.78,-179.92"/>
<polygon fill="#63b8ff" stroke="#63b8ff" points="144.7,-183.3 155.2,-184.65 147.83,-177.04 144.7,-183.3"/>
</a>
</g>
</g>
<!-- Node6 -->
<g id="Node000006" class="node">
<title>Node6</title>
<g id="a_Node000006"><a xlink:href="../../dd/d19/circular__doubly__linked__list_8c.html#a5411df421a94177700868b34887d5d0e" target="_top" xlink:title="Display list function.">
<polygon fill="white" stroke="#666666" points="220.5,-167.25 155.75,-167.25 155.75,-148 220.5,-148 220.5,-167.25"/>
<text text-anchor="middle" x="188.12" y="-153.75" font-family="Helvetica,sans-Serif" font-size="10.00">display_list</text>
</a>
</g>
</g>
<!-- Node2&#45;&gt;Node6 -->
<g id="edge5_Node000002_Node000006" class="edge">
<title>Node2&#45;&gt;Node6</title>
<g id="a_edge5_Node000002_Node000006"><a xlink:title=" ">
<path fill="none" stroke="#63b8ff" d="M105.81,-126.57C117.92,-131.19 135.22,-137.8 150.75,-143.73"/>
<polygon fill="#63b8ff" stroke="#63b8ff" points="149.04,-147.21 159.63,-147.51 151.54,-140.67 149.04,-147.21"/>
</a>
</g>
</g>
<!-- Node7 -->
<g id="Node000007" class="node">
<title>Node7</title>
<g id="a_Node000007"><a xlink:href="../../dd/d19/circular__doubly__linked__list_8c.html#ac53a0550fa74838246bc783ddc005ec1" target="_top" xlink:title="access the list by index">
<polygon fill="white" stroke="#666666" points="202.88,-130.25 173.38,-130.25 173.38,-111 202.88,-111 202.88,-130.25"/>
<text text-anchor="middle" x="188.12" y="-116.75" font-family="Helvetica,sans-Serif" font-size="10.00">get</text>
</a>
</g>
</g>
<!-- Node2&#45;&gt;Node7 -->
<g id="edge6_Node000002_Node000007" class="edge">
<title>Node2&#45;&gt;Node7</title>
<g id="a_edge6_Node000002_Node000007"><a xlink:title=" ">
<path fill="none" stroke="#63b8ff" d="M105.81,-120.62C121.08,-120.62 144.6,-120.62 162.43,-120.62"/>
<polygon fill="#63b8ff" stroke="#63b8ff" points="162.17,-124.13 172.17,-120.62 162.17,-117.13 162.17,-124.13"/>
</a>
</g>
</g>
<!-- Node8 -->
<g id="Node000008" class="node">
<title>Node8</title>
<g id="a_Node000008"><a xlink:href="../../dd/d19/circular__doubly__linked__list_8c.html#a6a64eb6265e703639bbfec9c3db93e0c" target="_top" xlink:title="The function that will return current size of list.">
<polygon fill="white" stroke="#666666" points="211.88,-93.25 164.38,-93.25 164.38,-74 211.88,-74 211.88,-93.25"/>
<text text-anchor="middle" x="188.12" y="-79.75" font-family="Helvetica,sans-Serif" font-size="10.00">getsize</text>
</a>
</g>
</g>
<!-- Node2&#45;&gt;Node8 -->
<g id="edge7_Node000002_Node000008" class="edge">
<title>Node2&#45;&gt;Node8</title>
<g id="a_edge7_Node000002_Node000008"><a xlink:title=" ">
<path fill="none" stroke="#63b8ff" d="M105.81,-114.68C118.71,-109.75 137.5,-102.58 153.77,-96.36"/>
<polygon fill="#63b8ff" stroke="#63b8ff" points="154.91,-99.29 163.01,-92.45 152.42,-92.75 154.91,-99.29"/>
</a>
</g>
</g>
<!-- Node9 -->
<g id="Node000009" class="node">
<title>Node9</title>
<g id="a_Node000009"><a xlink:href="../../dd/d19/circular__doubly__linked__list_8c.html#a964882e633c25a29b12237e29f20fa9a" target="_top" xlink:title="Insert a node at start of list.">
<polygon fill="white" stroke="#666666" points="228,-56.25 148.25,-56.25 148.25,-37 228,-37 228,-56.25"/>
<text text-anchor="middle" x="188.12" y="-42.75" font-family="Helvetica,sans-Serif" font-size="10.00">insert_at_head</text>
</a>
</g>
</g>
<!-- Node2&#45;&gt;Node9 -->
<g id="edge8_Node000002_Node000009" class="edge">
<title>Node2&#45;&gt;Node9</title>
<g id="a_edge8_Node000002_Node000009"><a xlink:title=" ">
<path fill="none" stroke="#63b8ff" d="M97.15,-110.64C106.11,-98.34 122.83,-77.48 141.5,-64.62 143.18,-63.47 144.95,-62.37 146.78,-61.33"/>
<polygon fill="#63b8ff" stroke="#63b8ff" points="147.83,-64.21 155.2,-56.6 144.7,-57.95 147.83,-64.21"/>
</a>
</g>
</g>
<!-- Node11 -->
<g id="Node000011" class="node">
<title>Node11</title>
<g id="a_Node000011"><a xlink:href="../../dd/d19/circular__doubly__linked__list_8c.html#aee328f691615862c4298fe730d66027b" target="_top" xlink:title="Insert a node at end of list.">
<polygon fill="white" stroke="#666666" points="223.88,-19.25 152.38,-19.25 152.38,0 223.88,0 223.88,-19.25"/>
<text text-anchor="middle" x="188.12" y="-5.75" font-family="Helvetica,sans-Serif" font-size="10.00">insert_at_tail</text>
</a>
</g>
</g>
<!-- Node2&#45;&gt;Node11 -->
<g id="edge10_Node000002_Node000011" class="edge">
<title>Node2&#45;&gt;Node11</title>
<g id="a_edge10_Node000002_Node000011"><a xlink:title=" ">
<path fill="none" stroke="#63b8ff" d="M93.18,-110.77C99.22,-92.05 114.78,-51.12 141.5,-27.62 142.4,-26.84 143.33,-26.08 144.29,-25.36"/>
<polygon fill="#63b8ff" stroke="#63b8ff" points="145.94,-27.85 152.65,-19.65 142.29,-21.87 145.94,-27.85"/>
</a>
</g>
</g>
<!-- Node5 -->
<g id="Node000005" class="node">
<title>Node5</title>
<g id="a_Node000005"><a xlink:href="../../df/dfa/vector_8c.html#af2f92e8cc55e764980bc0573ab5cd06f" target="_top" xlink:title="This function gets the next item from the Vector each time it&#39;s called.">
<polygon fill="white" stroke="#666666" points="322.75,-204.25 288,-204.25 288,-185 322.75,-185 322.75,-204.25"/>
<text text-anchor="middle" x="305.38" y="-190.75" font-family="Helvetica,sans-Serif" font-size="10.00">next</text>
</a>
</g>
</g>
<!-- Node4&#45;&gt;Node5 -->
<g id="edge4_Node000004_Node000005" class="edge">
<title>Node4&#45;&gt;Node5</title>
<g id="a_edge4_Node000004_Node000005"><a xlink:title=" ">
<path fill="none" stroke="#63b8ff" d="M231.06,-194.62C246.34,-194.62 263.22,-194.62 276.93,-194.62"/>
<polygon fill="#63b8ff" stroke="#63b8ff" points="276.59,-198.13 286.59,-194.62 276.59,-191.13 276.59,-198.13"/>
</a>
</g>
</g>
<!-- Node10 -->
<g id="Node000010" class="node">
<title>Node10</title>
<g id="a_Node000010"><a xlink:href="../../dd/d19/circular__doubly__linked__list_8c.html#a4a89f96b090dfdb505b714195e59ca5b" target="_top" xlink:title="Create a list node.">
<polygon fill="white" stroke="#666666" points="340,-38.25 270.75,-38.25 270.75,-19 340,-19 340,-38.25"/>
<text text-anchor="middle" x="305.38" y="-24.75" font-family="Helvetica,sans-Serif" font-size="10.00">create_node</text>
</a>
</g>
</g>
<!-- Node9&#45;&gt;Node10 -->
<g id="edge9_Node000009_Node000010" class="edge">
<title>Node9&#45;&gt;Node10</title>
<g id="a_edge9_Node000009_Node000010"><a xlink:title=" ">
<path fill="none" stroke="#63b8ff" d="M228.47,-40.48C238.63,-38.89 249.64,-37.17 260.04,-35.55"/>
<polygon fill="#63b8ff" stroke="#63b8ff" points="260.25,-38.9 269.59,-33.9 259.17,-31.99 260.25,-38.9"/>
</a>
</g>
</g>
<!-- Node11&#45;&gt;Node10 -->
<g id="edge11_Node000011_Node000010" class="edge">
<title>Node11&#45;&gt;Node10</title>
<g id="a_edge11_Node000011_Node000010"><a xlink:title=" ">
<path fill="none" stroke="#63b8ff" d="M224.33,-15.43C235.58,-17.28 248.18,-19.36 260,-21.31"/>
<polygon fill="#63b8ff" stroke="#63b8ff" points="259.13,-24.88 269.57,-23.05 260.27,-17.97 259.13,-24.88"/>
</a>
</g>
</g>
</g>
</svg>
</svg>

<style type='text/css'>
<![CDATA[
[data-mouse-over-selected='false'] { opacity: 0.7; }
[data-mouse-over-selected='true']  { opacity: 1.0; }
]]>
</style>
<script type="application/ecmascript"><![CDATA[
document.addEventListener('DOMContentLoaded', (event) => {
  highlightEdges();
  highlightAdjacentNodes();
});
]]></script>
</svg>
