<?xml version="1.0" encoding="UTF-8" standalone="no"?>
<!DOCTYPE svg PUBLIC "-//W3C//DTD SVG 1.1//EN"
 "http://www.w3.org/Graphics/SVG/1.1/DTD/svg11.dtd">
<!-- Generated by graphviz version 8.0.2 (20230410.1723)
 -->
<!-- Title: main Pages: 1 -->
<svg width="351pt" height="249pt"
 viewBox="0.00 0.00 351.00 249.00" xmlns="http://www.w3.org/2000/svg" xmlns:xlink="http://www.w3.org/1999/xlink">
<g id="graph0" class="graph" transform="scale(1 1) rotate(0) translate(4 245)">
<title>main</title>
<!-- Node1 -->
<g id="node1" class="node">
<title>Node1</title>
<g id="a_node1"><a xlink:title="Main function.">
<polygon fill="#999999" stroke="#666666" points="38,-130 0,-130 0,-111 38,-111 38,-130"/>
<text text-anchor="middle" x="19" y="-118" font-family="Helvetica,sans-Serif" font-size="10.00">main</text>
</a>
</g>
</g>
<!-- Node2 -->
<g id="node2" class="node">
<title>Node2</title>
<g id="a_node2"><a xlink:href="../../dd/d19/circular__doubly__linked__list_8c.html#aa8dca7b867074164d5f45b0f3851269d" target="_top" xlink:title="Self&#45;test implementations.">
<polygon fill="white" stroke="#666666" points="107,-130 74,-130 74,-111 107,-111 107,-130"/>
<text text-anchor="middle" x="90.5" y="-118" font-family="Helvetica,sans-Serif" font-size="10.00">test</text>
</a>
</g>
</g>
<!-- Node1&#45;&gt;Node2 -->
<g id="edge1" class="edge">
<title>Node1&#45;&gt;Node2</title>
<path fill="none" stroke="#63b8ff" d="M38.26,-120.5C45.89,-120.5 54.9,-120.5 63.23,-120.5"/>
<polygon fill="#63b8ff" stroke="#63b8ff" points="62.95,-124 72.95,-120.5 62.95,-117 62.95,-124"/>
</g>
<!-- Node3 -->
<g id="node3" class="node">
<title>Node3</title>
<g id="a_node3"><a xlink:href="../../dd/d19/circular__doubly__linked__list_8c.html#a1418cac5ddf9edb58fca97afce27b456" target="_top" xlink:title="Function for deletion of the first node in list.">
<polygon fill="white" stroke="#666666" points="237,-241 143,-241 143,-222 237,-222 237,-241"/>
<text text-anchor="middle" x="190" y="-229" font-family="Helvetica,sans-Serif" font-size="10.00">delete_from_head</text>
</a>
</g>
</g>
<!-- Node2&#45;&gt;Node3 -->
<g id="edge2" class="edge">
<title>Node2&#45;&gt;Node3</title>
<path fill="none" stroke="#63b8ff" d="M94.45,-130.36C100.54,-149.09 116.2,-190.04 143,-213.5 144.05,-214.42 145.16,-215.3 146.3,-216.13"/>
<polygon fill="#63b8ff" stroke="#63b8ff" points="144.35,-219.63 154.73,-221.73 147.92,-213.62 144.35,-219.63"/>
</g>
<!-- Node4 -->
<g id="node4" class="node">
<title>Node4</title>
<g id="a_node4"><a xlink:href="../../dd/d19/circular__doubly__linked__list_8c.html#abf4cdda9fbace9822612349d19ec2e72" target="_top" xlink:title="Function for deletion of the last node in list.">
<polygon fill="white" stroke="#666666" points="233,-204 147,-204 147,-185 233,-185 233,-204"/>
<text text-anchor="middle" x="190" y="-192" font-family="Helvetica,sans-Serif" font-size="10.00">delete_from_tail</text>
</a>
</g>
</g>
<!-- Node2&#45;&gt;Node4 -->
<g id="edge3" class="edge">
<title>Node2&#45;&gt;Node4</title>
<path fill="none" stroke="#63b8ff" d="M98.44,-130.49C107.45,-142.8 124.25,-163.67 143,-176.5 144.7,-177.66 146.48,-178.76 148.32,-179.81"/>
<polygon fill="#63b8ff" stroke="#63b8ff" points="146.32,-183.22 156.83,-184.54 149.44,-176.95 146.32,-183.22"/>
</g>
<!-- Node6 -->
<g id="node6" class="node">
<title>Node6</title>
<g id="a_node6"><a xlink:href="../../dd/d19/circular__doubly__linked__list_8c.html#a5411df421a94177700868b34887d5d0e" target="_top" xlink:title="Display list function.">
<polygon fill="white" stroke="#666666" points="222.5,-167 157.5,-167 157.5,-148 222.5,-148 222.5,-167"/>
<text text-anchor="middle" x="190" y="-155" font-family="Helvetica,sans-Serif" font-size="10.00">display_list</text>
</a>
</g>
</g>
<!-- Node2&#45;&gt;Node6 -->
<g id="edge5" class="edge">
<title>Node2&#45;&gt;Node6</title>
<path fill="none" stroke="#63b8ff" d="M107.17,-126.44C119.44,-131.1 137.02,-137.77 152.73,-143.74"/>
<polygon fill="#63b8ff" stroke="#63b8ff" points="151.13,-147.25 161.72,-147.53 153.61,-140.71 151.13,-147.25"/>
</g>
<!-- Node7 -->
<g id="node7" class="node">
<title>Node7</title>
<g id="a_node7"><a xlink:href="../../dd/d19/circular__doubly__linked__list_8c.html#ac53a0550fa74838246bc783ddc005ec1" target="_top" xlink:title="access the list by index">
<polygon fill="white" stroke="#666666" points="205,-130 175,-130 175,-111 205,-111 205,-130"/>
<text text-anchor="middle" x="190" y="-118" font-family="Helvetica,sans-Serif" font-size="10.00">get</text>
</a>
</g>
</g>
<!-- Node2&#45;&gt;Node7 -->
<g id="edge6" class="edge">
<title>Node2&#45;&gt;Node7</title>
<path fill="none" stroke="#63b8ff" d="M107.17,-120.5C122.44,-120.5 145.93,-120.5 163.83,-120.5"/>
<polygon fill="#63b8ff" stroke="#63b8ff" points="163.64,-124 173.64,-120.5 163.64,-117 163.64,-124"/>
</g>
<!-- Node8 -->
<g id="node8" class="node">
<title>Node8</title>
<g id="a_node8"><a xlink:href="../../dd/d19/circular__doubly__linked__list_8c.html#a6a64eb6265e703639bbfec9c3db93e0c" target="_top" xlink:title="The function that will return current size of list.">
<polygon fill="white" stroke="#666666" points="214,-93 166,-93 166,-74 214,-74 214,-93"/>
<text text-anchor="middle" x="190" y="-81" font-family="Helvetica,sans-Serif" font-size="10.00">getsize</text>
</a>
</g>
</g>
<!-- Node2&#45;&gt;Node8 -->
<g id="edge7" class="edge">
<title>Node2&#45;&gt;Node8</title>
<path fill="none" stroke="#63b8ff" d="M107.17,-114.56C120.27,-109.58 139.42,-102.32 155.9,-96.06"/>
<polygon fill="#63b8ff" stroke="#63b8ff" points="156.63,-99.15 164.73,-92.33 154.14,-92.61 156.63,-99.15"/>
</g>
<!-- Node9 -->
<g id="node9" class="node">
<title>Node9</title>
<g id="a_node9"><a xlink:href="../../dd/d19/circular__doubly__linked__list_8c.html#a964882e633c25a29b12237e29f20fa9a" target="_top" xlink:title="Insert a node at start of list.">
<polygon fill="white" stroke="#666666" points="230,-56 150,-56 150,-37 230,-37 230,-56"/>
<text text-anchor="middle" x="190" y="-44" font-family="Helvetica,sans-Serif" font-size="10.00">insert_at_head</text>
</a>
</g>
</g>
<!-- Node2&#45;&gt;Node9 -->
<g id="edge8" class="edge">
<title>Node2&#45;&gt;Node9</title>
<path fill="none" stroke="#63b8ff" d="M98.52,-110.75C107.61,-98.73 124.49,-78.3 143,-65.5 145.24,-63.95 147.62,-62.5 150.08,-61.14"/>
<polygon fill="#63b8ff" stroke="#63b8ff" points="151.37,-63.91 158.8,-56.35 148.28,-57.63 151.37,-63.91"/>
</g>
<!-- Node11 -->
<g id="node11" class="node">
<title>Node11</title>
<g id="a_node11"><a xlink:href="../../dd/d19/circular__doubly__linked__list_8c.html#aee328f691615862c4298fe730d66027b" target="_top" xlink:title="Insert a node at end of list.">
<polygon fill="white" stroke="#666666" points="226,-19 154,-19 154,0 226,0 226,-19"/>
<text text-anchor="middle" x="190" y="-7" font-family="Helvetica,sans-Serif" font-size="10.00">insert_at_tail</text>
</a>
</g>
</g>
<!-- Node2&#45;&gt;Node11 -->
<g id="edge10" class="edge">
<title>Node2&#45;&gt;Node11</title>
<path fill="none" stroke="#63b8ff" d="M94.62,-110.5C100.89,-91.92 116.72,-51.83 143,-28.5 144.55,-27.12 146.21,-25.84 147.96,-24.64"/>
<polygon fill="#63b8ff" stroke="#63b8ff" points="149.25,-27.36 156.17,-19.34 145.75,-21.29 149.25,-27.36"/>
</g>
<!-- Node5 -->
<g id="node5" class="node">
<title>Node5</title>
<g id="a_node5"><a xlink:href="../../df/dfa/vector_8c.html#af2f92e8cc55e764980bc0573ab5cd06f" target="_top" xlink:title="This function gets the next item from the Vector each time it&#39;s called.">
<polygon fill="white" stroke="#666666" points="325.5,-204 290.5,-204 290.5,-185 325.5,-185 325.5,-204"/>
<text text-anchor="middle" x="308" y="-192" font-family="Helvetica,sans-Serif" font-size="10.00">next</text>
</a>
</g>
</g>
<!-- Node4&#45;&gt;Node5 -->
<g id="edge4" class="edge">
<title>Node4&#45;&gt;Node5</title>
<path fill="none" stroke="#63b8ff" d="M233.21,-194.5C248.59,-194.5 265.58,-194.5 279.38,-194.5"/>
<polygon fill="#63b8ff" stroke="#63b8ff" points="279.11,-198 289.11,-194.5 279.11,-191 279.11,-198"/>
</g>
<!-- Node10 -->
<g id="node10" class="node">
<title>Node10</title>
<g id="a_node10"><a xlink:href="../../dd/d19/circular__doubly__linked__list_8c.html#a4a89f96b090dfdb505b714195e59ca5b" target="_top" xlink:title="Create a list node.">
<polygon fill="white" stroke="#666666" points="343,-38 273,-38 273,-19 343,-19 343,-38"/>
<text text-anchor="middle" x="308" y="-26" font-family="Helvetica,sans-Serif" font-size="10.00">create_node</text>
</a>
</g>
</g>
<!-- Node9&#45;&gt;Node10 -->
<g id="edge9" class="edge">
<title>Node9&#45;&gt;Node10</title>
<path fill="none" stroke="#63b8ff" d="M230.27,-40.41C240.52,-38.82 251.63,-37.09 262.14,-35.46"/>
<polygon fill="#63b8ff" stroke="#63b8ff" points="262.47,-38.8 271.81,-33.8 261.4,-31.88 262.47,-38.8"/>
</g>
<!-- Node11&#45;&gt;Node10 -->
<g id="edge11" class="edge">
<title>Node11&#45;&gt;Node10</title>
<path fill="none" stroke="#63b8ff" d="M226.43,-15.3C237.66,-17.14 250.21,-19.2 262.02,-21.13"/>
<polygon fill="#63b8ff" stroke="#63b8ff" points="261.14,-24.7 271.58,-22.86 262.28,-17.79 261.14,-24.7"/>
</g>
</g>
</svg>
