<?xml version="1.0" encoding="UTF-8" standalone="no"?>
<!DOCTYPE svg PUBLIC "-//W3C//DTD SVG 1.1//EN"
 "http://www.w3.org/Graphics/SVG/1.1/DTD/svg11.dtd">
<!-- Generated by graphviz version 8.0.2 (20230410.1723)
 -->
<!-- Title: test Pages: 1 -->
<svg width="277pt" height="249pt"
 viewBox="0.00 0.00 277.00 249.00" xmlns="http://www.w3.org/2000/svg" xmlns:xlink="http://www.w3.org/1999/xlink">
<g id="graph0" class="graph" transform="scale(1 1) rotate(0) translate(4 245)">
<title>test</title>
<!-- Node1 -->
<g id="node1" class="node">
<title>Node1</title>
<g id="a_node1"><a xlink:title="Self&#45;test implementations.">
<polygon fill="#999999" stroke="#666666" points="33,-130 0,-130 0,-111 33,-111 33,-130"/>
<text text-anchor="middle" x="16.5" y="-118" font-family="Helvetica,sans-Serif" font-size="10.00">test</text>
</a>
</g>
</g>
<!-- Node2 -->
<g id="node2" class="node">
<title>Node2</title>
<g id="a_node2"><a xlink:href="../../dd/d19/circular__doubly__linked__list_8c.html#a1418cac5ddf9edb58fca97afce27b456" target="_top" xlink:title="Function for deletion of the first node in list.">
<polygon fill="white" stroke="#666666" points="163,-241 69,-241 69,-222 163,-222 163,-241"/>
<text text-anchor="middle" x="116" y="-229" font-family="Helvetica,sans-Serif" font-size="10.00">delete_from_head</text>
</a>
</g>
</g>
<!-- Node1&#45;&gt;Node2 -->
<g id="edge1" class="edge">
<title>Node1&#45;&gt;Node2</title>
<path fill="none" stroke="#63b8ff" d="M20.45,-130.36C26.54,-149.09 42.2,-190.04 69,-213.5 70.05,-214.42 71.16,-215.3 72.3,-216.13"/>
<polygon fill="#63b8ff" stroke="#63b8ff" points="70.35,-219.63 80.73,-221.73 73.92,-213.62 70.35,-219.63"/>
</g>
<!-- Node3 -->
<g id="node3" class="node">
<title>Node3</title>
<g id="a_node3"><a xlink:href="../../dd/d19/circular__doubly__linked__list_8c.html#abf4cdda9fbace9822612349d19ec2e72" target="_top" xlink:title="Function for deletion of the last node in list.">
<polygon fill="white" stroke="#666666" points="159,-204 73,-204 73,-185 159,-185 159,-204"/>
<text text-anchor="middle" x="116" y="-192" font-family="Helvetica,sans-Serif" font-size="10.00">delete_from_tail</text>
</a>
</g>
</g>
<!-- Node1&#45;&gt;Node3 -->
<g id="edge2" class="edge">
<title>Node1&#45;&gt;Node3</title>
<path fill="none" stroke="#63b8ff" d="M24.44,-130.49C33.45,-142.8 50.25,-163.67 69,-176.5 70.7,-177.66 72.48,-178.76 74.32,-179.81"/>
<polygon fill="#63b8ff" stroke="#63b8ff" points="72.32,-183.22 82.83,-184.54 75.44,-176.95 72.32,-183.22"/>
</g>
<!-- Node5 -->
<g id="node5" class="node">
<title>Node5</title>
<g id="a_node5"><a xlink:href="../../dd/d19/circular__doubly__linked__list_8c.html#a5411df421a94177700868b34887d5d0e" target="_top" xlink:title="Display list function.">
<polygon fill="white" stroke="#666666" points="148.5,-167 83.5,-167 83.5,-148 148.5,-148 148.5,-167"/>
<text text-anchor="middle" x="116" y="-155" font-family="Helvetica,sans-Serif" font-size="10.00">display_list</text>
</a>
</g>
</g>
<!-- Node1&#45;&gt;Node5 -->
<g id="edge4" class="edge">
<title>Node1&#45;&gt;Node5</title>
<path fill="none" stroke="#63b8ff" d="M33.17,-126.44C45.44,-131.1 63.02,-137.77 78.73,-143.74"/>
<polygon fill="#63b8ff" stroke="#63b8ff" points="77.13,-147.25 87.72,-147.53 79.61,-140.71 77.13,-147.25"/>
</g>
<!-- Node6 -->
<g id="node6" class="node">
<title>Node6</title>
<g id="a_node6"><a xlink:href="../../dd/d19/circular__doubly__linked__list_8c.html#ac53a0550fa74838246bc783ddc005ec1" target="_top" xlink:title="access the list by index">
<polygon fill="white" stroke="#666666" points="131,-130 101,-130 101,-111 131,-111 131,-130"/>
<text text-anchor="middle" x="116" y="-118" font-family="Helvetica,sans-Serif" font-size="10.00">get</text>
</a>
</g>
</g>
<!-- Node1&#45;&gt;Node6 -->
<g id="edge5" class="edge">
<title>Node1&#45;&gt;Node6</title>
<path fill="none" stroke="#63b8ff" d="M33.17,-120.5C48.44,-120.5 71.93,-120.5 89.83,-120.5"/>
<polygon fill="#63b8ff" stroke="#63b8ff" points="89.64,-124 99.64,-120.5 89.64,-117 89.64,-124"/>
</g>
<!-- Node7 -->
<g id="node7" class="node">
<title>Node7</title>
<g id="a_node7"><a xlink:href="../../dd/d19/circular__doubly__linked__list_8c.html#a6a64eb6265e703639bbfec9c3db93e0c" target="_top" xlink:title="The function that will return current size of list.">
<polygon fill="white" stroke="#666666" points="140,-93 92,-93 92,-74 140,-74 140,-93"/>
<text text-anchor="middle" x="116" y="-81" font-family="Helvetica,sans-Serif" font-size="10.00">getsize</text>
</a>
</g>
</g>
<!-- Node1&#45;&gt;Node7 -->
<g id="edge6" class="edge">
<title>Node1&#45;&gt;Node7</title>
<path fill="none" stroke="#63b8ff" d="M33.17,-114.56C46.27,-109.58 65.42,-102.32 81.9,-96.06"/>
<polygon fill="#63b8ff" stroke="#63b8ff" points="82.63,-99.15 90.73,-92.33 80.14,-92.61 82.63,-99.15"/>
</g>
<!-- Node8 -->
<g id="node8" class="node">
<title>Node8</title>
<g id="a_node8"><a xlink:href="../../dd/d19/circular__doubly__linked__list_8c.html#a964882e633c25a29b12237e29f20fa9a" target="_top" xlink:title="Insert a node at start of list.">
<polygon fill="white" stroke="#666666" points="156,-56 76,-56 76,-37 156,-37 156,-56"/>
<text text-anchor="middle" x="116" y="-44" font-family="Helvetica,sans-Serif" font-size="10.00">insert_at_head</text>
</a>
</g>
</g>
<!-- Node1&#45;&gt;Node8 -->
<g id="edge7" class="edge">
<title>Node1&#45;&gt;Node8</title>
<path fill="none" stroke="#63b8ff" d="M24.52,-110.75C33.61,-98.73 50.49,-78.3 69,-65.5 71.24,-63.95 73.62,-62.5 76.08,-61.14"/>
<polygon fill="#63b8ff" stroke="#63b8ff" points="77.37,-63.91 84.8,-56.35 74.28,-57.63 77.37,-63.91"/>
</g>
<!-- Node10 -->
<g id="node10" class="node">
<title>Node10</title>
<g id="a_node10"><a xlink:href="../../dd/d19/circular__doubly__linked__list_8c.html#aee328f691615862c4298fe730d66027b" target="_top" xlink:title="Insert a node at end of list.">
<polygon fill="white" stroke="#666666" points="152,-19 80,-19 80,0 152,0 152,-19"/>
<text text-anchor="middle" x="116" y="-7" font-family="Helvetica,sans-Serif" font-size="10.00">insert_at_tail</text>
</a>
</g>
</g>
<!-- Node1&#45;&gt;Node10 -->
<g id="edge9" class="edge">
<title>Node1&#45;&gt;Node10</title>
<path fill="none" stroke="#63b8ff" d="M20.62,-110.5C26.89,-91.92 42.72,-51.83 69,-28.5 70.55,-27.12 72.21,-25.84 73.96,-24.64"/>
<polygon fill="#63b8ff" stroke="#63b8ff" points="75.25,-27.36 82.17,-19.34 71.75,-21.29 75.25,-27.36"/>
</g>
<!-- Node4 -->
<g id="node4" class="node">
<title>Node4</title>
<g id="a_node4"><a xlink:href="../../df/dfa/vector_8c.html#af2f92e8cc55e764980bc0573ab5cd06f" target="_top" xlink:title="This function gets the next item from the Vector each time it&#39;s called.">
<polygon fill="white" stroke="#666666" points="251.5,-204 216.5,-204 216.5,-185 251.5,-185 251.5,-204"/>
<text text-anchor="middle" x="234" y="-192" font-family="Helvetica,sans-Serif" font-size="10.00">next</text>
</a>
</g>
</g>
<!-- Node3&#45;&gt;Node4 -->
<g id="edge3" class="edge">
<title>Node3&#45;&gt;Node4</title>
<path fill="none" stroke="#63b8ff" d="M159.21,-194.5C174.59,-194.5 191.58,-194.5 205.38,-194.5"/>
<polygon fill="#63b8ff" stroke="#63b8ff" points="205.11,-198 215.11,-194.5 205.11,-191 205.11,-198"/>
</g>
<!-- Node9 -->
<g id="node9" class="node">
<title>Node9</title>
<g id="a_node9"><a xlink:href="../../dd/d19/circular__doubly__linked__list_8c.html#a4a89f96b090dfdb505b714195e59ca5b" target="_top" xlink:title="Create a list node.">
<polygon fill="white" stroke="#666666" points="269,-38 199,-38 199,-19 269,-19 269,-38"/>
<text text-anchor="middle" x="234" y="-26" font-family="Helvetica,sans-Serif" font-size="10.00">create_node</text>
</a>
</g>
</g>
<!-- Node8&#45;&gt;Node9 -->
<g id="edge8" class="edge">
<title>Node8&#45;&gt;Node9</title>
<path fill="none" stroke="#63b8ff" d="M156.27,-40.41C166.52,-38.82 177.63,-37.09 188.14,-35.46"/>
<polygon fill="#63b8ff" stroke="#63b8ff" points="188.47,-38.8 197.81,-33.8 187.4,-31.88 188.47,-38.8"/>
</g>
<!-- Node10&#45;&gt;Node9 -->
<g id="edge10" class="edge">
<title>Node10&#45;&gt;Node9</title>
<path fill="none" stroke="#63b8ff" d="M152.43,-15.3C163.66,-17.14 176.21,-19.2 188.02,-21.13"/>
<polygon fill="#63b8ff" stroke="#63b8ff" points="187.14,-24.7 197.58,-22.86 188.28,-17.79 187.14,-24.7"/>
</g>
</g>
</svg>
