<?xml version="1.0" encoding="UTF-8" standalone="no"?>
<!DOCTYPE svg PUBLIC "-//W3C//DTD SVG 1.1//EN"
 "http://www.w3.org/Graphics/SVG/1.1/DTD/svg11.dtd">
<!-- Generated by graphviz version 8.0.5 (20230430.1635)
 -->
<!-- Title: qr_decompose Pages: 1 -->
<svg width="289pt" height="114pt"
 viewBox="0.00 0.00 288.50 114.25" xmlns="http://www.w3.org/2000/svg" xmlns:xlink="http://www.w3.org/1999/xlink">
<g id="graph0" class="graph" transform="scale(1 1) rotate(0) translate(4 110.25)">
<title>qr_decompose</title>
<!-- Node1 -->
<g id="Node000001" class="node">
<title>Node1</title>
<g id="a_Node000001"><a xlink:title="Decompose matrix &#160;using Gram&#45;Schmidt process.">
<polygon fill="#999999" stroke="#666666" points="79.75,-74.25 0,-74.25 0,-55 79.75,-55 79.75,-74.25"/>
<text text-anchor="middle" x="39.88" y="-60.75" font-family="Helvetica,sans-Serif" font-size="10.00">qr_decompose</text>
</a>
</g>
</g>
<!-- Node2 -->
<g id="Node000002" class="node">
<title>Node2</title>
<g id="a_Node000002"><a xlink:href="../../d4/d68/qr__decompose_8h.html#a3a584b79941a43d775f9d4ce446dbe05" target="_top" xlink:title="Compute dot product of two vectors of equal lengths.">
<polygon fill="white" stroke="#666666" points="280.5,-93.25 218.75,-93.25 218.75,-74 280.5,-74 280.5,-93.25"/>
<text text-anchor="middle" x="249.62" y="-79.75" font-family="Helvetica,sans-Serif" font-size="10.00">vector_dot</text>
</a>
</g>
</g>
<!-- Node1&#45;&gt;Node2 -->
<g id="edge1_Node000001_Node000002" class="edge">
<title>Node1&#45;&gt;Node2</title>
<g id="a_edge1_Node000001_Node000002"><a xlink:title=" ">
<path fill="none" stroke="#63b8ff" d="M55.54,-74.71C70.08,-84.05 93.35,-97.27 115.75,-102.62 147.12,-110.13 183.42,-103.96 210.14,-96.72"/>
<polygon fill="#63b8ff" stroke="#63b8ff" points="210.97,-99.83 219.6,-93.69 209.02,-93.11 210.97,-99.83"/>
</a>
</g>
</g>
<!-- Node3 -->
<g id="Node000003" class="node">
<title>Node3</title>
<g id="a_Node000003"><a xlink:href="../../d4/d68/qr__decompose_8h.html#abeec1f78a7a7e7251687e75340331212" target="_top" xlink:title="Compute magnitude of vector.">
<polygon fill="white" stroke="#666666" points="182.75,-93.25 115.75,-93.25 115.75,-74 182.75,-74 182.75,-93.25"/>
<text text-anchor="middle" x="149.25" y="-79.75" font-family="Helvetica,sans-Serif" font-size="10.00">vector_mag</text>
</a>
</g>
</g>
<!-- Node1&#45;&gt;Node3 -->
<g id="edge2_Node000001_Node000003" class="edge">
<title>Node1&#45;&gt;Node3</title>
<g id="a_edge2_Node000001_Node000003"><a xlink:title=" ">
<path fill="none" stroke="#63b8ff" d="M80.25,-71.59C88.23,-73 96.67,-74.5 104.78,-75.93"/>
<polygon fill="#63b8ff" stroke="#63b8ff" points="104.12,-79.55 114.58,-77.84 105.34,-72.65 104.12,-79.55"/>
</a>
</g>
</g>
<!-- Node4 -->
<g id="Node000004" class="node">
<title>Node4</title>
<g id="a_Node000004"><a xlink:href="../../d4/d68/qr__decompose_8h.html#a2ed4977f38642dca8b10c16a823c740b" target="_top" xlink:title="Compute projection of vector &#160;on &#160;defined as.">
<polygon fill="white" stroke="#666666" points="181.25,-56.25 117.25,-56.25 117.25,-37 181.25,-37 181.25,-56.25"/>
<text text-anchor="middle" x="149.25" y="-42.75" font-family="Helvetica,sans-Serif" font-size="10.00">vector_proj</text>
</a>
</g>
</g>
<!-- Node1&#45;&gt;Node4 -->
<g id="edge4_Node000001_Node000004" class="edge">
<title>Node1&#45;&gt;Node4</title>
<g id="a_edge4_Node000001_Node000004"><a xlink:title=" ">
<path fill="none" stroke="#63b8ff" d="M80.25,-58.02C88.75,-56.6 97.77,-55.09 106.36,-53.65"/>
<polygon fill="#63b8ff" stroke="#63b8ff" points="106.66,-56.98 115.95,-51.87 105.51,-50.07 106.66,-56.98"/>
</a>
</g>
</g>
<!-- Node5 -->
<g id="Node000005" class="node">
<title>Node5</title>
<g id="a_Node000005"><a xlink:href="../../d4/d68/qr__decompose_8h.html#a5ee39e7c8fce8a604dcf7009ce101c02" target="_top" xlink:title="Compute vector subtraction.">
<polygon fill="white" stroke="#666666" points="181.25,-19.25 117.25,-19.25 117.25,0 181.25,0 181.25,-19.25"/>
<text text-anchor="middle" x="149.25" y="-5.75" font-family="Helvetica,sans-Serif" font-size="10.00">vector_sub</text>
</a>
</g>
</g>
<!-- Node1&#45;&gt;Node5 -->
<g id="edge6_Node000001_Node000005" class="edge">
<title>Node1&#45;&gt;Node5</title>
<g id="a_edge6_Node000001_Node000005"><a xlink:title=" ">
<path fill="none" stroke="#63b8ff" d="M60.57,-54.54C76.92,-46.16 100.41,-34.13 118.96,-24.63"/>
<polygon fill="#63b8ff" stroke="#63b8ff" points="120.38,-27.32 127.68,-19.65 117.18,-21.09 120.38,-27.32"/>
</a>
</g>
</g>
<!-- Node3&#45;&gt;Node2 -->
<g id="edge3_Node000003_Node000002" class="edge">
<title>Node3&#45;&gt;Node2</title>
<g id="a_edge3_Node000003_Node000002"><a xlink:title=" ">
<path fill="none" stroke="#63b8ff" d="M183.01,-83.62C190.85,-83.62 199.31,-83.62 207.48,-83.62"/>
<polygon fill="#63b8ff" stroke="#63b8ff" points="207.34,-87.13 217.34,-83.62 207.34,-80.13 207.34,-87.13"/>
</a>
</g>
</g>
<!-- Node4&#45;&gt;Node2 -->
<g id="edge5_Node000004_Node000002" class="edge">
<title>Node4&#45;&gt;Node2</title>
<g id="a_edge5_Node000004_Node000002"><a xlink:title=" ">
<path fill="none" stroke="#63b8ff" d="M177.13,-56.74C187.76,-60.73 200.15,-65.39 211.6,-69.7"/>
<polygon fill="#63b8ff" stroke="#63b8ff" points="210.18,-73.28 220.78,-73.53 212.65,-66.73 210.18,-73.28"/>
</a>
</g>
</g>
</g>
</svg>
