<?xml version="1.0" encoding="UTF-8" standalone="no"?>
<!DOCTYPE svg PUBLIC "-//W3C//DTD SVG 1.1//EN"
 "http://www.w3.org/Graphics/SVG/1.1/DTD/svg11.dtd">
<!-- Generated by graphviz version 7.0.6 (20230106.0513)
 -->
<!-- Title: main Pages: 1 -->
<svg width="346pt" height="101pt"
 viewBox="0.00 0.00 346.00 101.00" xmlns="http://www.w3.org/2000/svg" xmlns:xlink="http://www.w3.org/1999/xlink">
<g id="graph0" class="graph" transform="scale(1 1) rotate(0) translate(4 97)">
<title>main</title>
<!-- Node1 -->
<g id="node1" class="node">
<title>Node1</title>
<g id="a_node1"><a xlink:title="Main function.">
<polygon fill="#999999" stroke="#666666" points="38,-74 0,-74 0,-55 38,-55 38,-74"/>
<text text-anchor="middle" x="19" y="-62" font-family="Helvetica,sans-Serif" font-size="10.00">main</text>
</a>
</g>
</g>
<!-- Node2 -->
<g id="node2" class="node">
<title>Node2</title>
<g id="a_node2"><a xlink:href="../../d7/d98/spirograph_8c.html#a708a4c1a4d0c4acc4c447310dd4db27f" target="_top" xlink:title="Test function to save resulting points to a CSV file.">
<polygon fill="white" stroke="#666666" points="109.5,-93 76.5,-93 76.5,-74 109.5,-74 109.5,-93"/>
<text text-anchor="middle" x="93" y="-81" font-family="Helvetica,sans-Serif" font-size="10.00">test</text>
</a>
</g>
</g>
<!-- Node1&#45;&gt;Node2 -->
<g id="edge1" class="edge">
<title>Node1&#45;&gt;Node2</title>
<path fill="none" stroke="#63b8ff" d="M38.17,-69.29C46.28,-71.43 56.01,-74 64.95,-76.36"/>
<polygon fill="#63b8ff" stroke="#63b8ff" points="64.02,-79.74 74.58,-78.9 65.8,-72.97 64.02,-79.74"/>
</g>
<!-- Node4 -->
<g id="node4" class="node">
<title>Node4</title>
<g id="a_node4"><a xlink:href="../../d6/d76/k__means__clustering_8c.html#a0283886819c7c140a023582b7269e2d0" target="_top" xlink:title=" ">
<polygon fill="white" stroke="#666666" points="112,-56 74,-56 74,-37 112,-37 112,-56"/>
<text text-anchor="middle" x="93" y="-44" font-family="Helvetica,sans-Serif" font-size="10.00">test2</text>
</a>
</g>
</g>
<!-- Node1&#45;&gt;Node4 -->
<g id="edge3" class="edge">
<title>Node1&#45;&gt;Node4</title>
<path fill="none" stroke="#63b8ff" d="M38.17,-59.96C45.53,-58.12 54.22,-55.94 62.45,-53.89"/>
<polygon fill="#63b8ff" stroke="#63b8ff" points="63.27,-57.29 72.12,-51.47 61.57,-50.5 63.27,-57.29"/>
</g>
<!-- Node3 -->
<g id="node3" class="node">
<title>Node3</title>
<g id="a_node3"><a xlink:href="../../d7/d98/spirograph_8c.html#a0daa148091ec953809fc172289f773d3" target="_top" xlink:title="Generate spirograph curve into arrays x and y such that the i^th point in 2D is represented by (x[i],...">
<polygon fill="white" stroke="#666666" points="210,-93 148,-93 148,-74 210,-74 210,-93"/>
<text text-anchor="middle" x="179" y="-81" font-family="Helvetica,sans-Serif" font-size="10.00">spirograph</text>
</a>
</g>
</g>
<!-- Node2&#45;&gt;Node3 -->
<g id="edge2" class="edge">
<title>Node2&#45;&gt;Node3</title>
<path fill="none" stroke="#63b8ff" d="M109.8,-83.5C117.37,-83.5 126.83,-83.5 136.27,-83.5"/>
<polygon fill="#63b8ff" stroke="#63b8ff" points="136.13,-87 146.13,-83.5 136.13,-80 136.13,-87"/>
</g>
<!-- Node5 -->
<g id="node5" class="node">
<title>Node5</title>
<g id="a_node5"><a xlink:href="../../d8/d71/group__k__means.html#gaf6259432561e794dea0e060f482d15e2" target="_top" xlink:title=" ">
<polygon fill="white" stroke="#666666" points="204.5,-56 153.5,-56 153.5,-37 204.5,-37 204.5,-56"/>
<text text-anchor="middle" x="179" y="-44" font-family="Helvetica,sans-Serif" font-size="10.00">kMeans</text>
</a>
</g>
</g>
<!-- Node4&#45;&gt;Node5 -->
<g id="edge4" class="edge">
<title>Node4&#45;&gt;Node5</title>
<path fill="none" stroke="#63b8ff" d="M112.23,-46.5C120.92,-46.5 131.64,-46.5 141.89,-46.5"/>
<polygon fill="#63b8ff" stroke="#63b8ff" points="141.6,-50 151.6,-46.5 141.6,-43 141.6,-50"/>
</g>
<!-- Node8 -->
<g id="node8" class="node">
<title>Node8</title>
<g id="a_node8"><a xlink:href="../../d6/d76/k__means__clustering_8c.html#a5b4ba704e02672e59cfa35f82e3db28a" target="_top" xlink:title=" ">
<polygon fill="white" stroke="#666666" points="207,-19 151,-19 151,0 207,0 207,-19"/>
<text text-anchor="middle" x="179" y="-7" font-family="Helvetica,sans-Serif" font-size="10.00">printEPS</text>
</a>
</g>
</g>
<!-- Node4&#45;&gt;Node8 -->
<g id="edge7" class="edge">
<title>Node4&#45;&gt;Node8</title>
<path fill="none" stroke="#63b8ff" d="M112.23,-38.47C121.81,-34.25 133.85,-28.95 145,-24.04"/>
<polygon fill="#63b8ff" stroke="#63b8ff" points="146.19,-27.34 153.93,-20.1 143.36,-20.93 146.19,-27.34"/>
</g>
<!-- Node6 -->
<g id="node6" class="node">
<title>Node6</title>
<g id="a_node6"><a xlink:href="../../d8/d71/group__k__means.html#gadee39a3f17bf5144df5592e48dbfc9f7" target="_top" xlink:title=" ">
<polygon fill="white" stroke="#666666" points="338,-74 246,-74 246,-55 338,-55 338,-74"/>
<text text-anchor="middle" x="292" y="-62" font-family="Helvetica,sans-Serif" font-size="10.00">calculateCentroid</text>
</a>
</g>
</g>
<!-- Node5&#45;&gt;Node6 -->
<g id="edge5" class="edge">
<title>Node5&#45;&gt;Node6</title>
<path fill="none" stroke="#63b8ff" d="M204.91,-50.54C213.74,-51.97 224.06,-53.64 234.44,-55.33"/>
<polygon fill="#63b8ff" stroke="#63b8ff" points="233.72,-58.76 244.15,-56.9 234.84,-51.85 233.72,-58.76"/>
</g>
<!-- Node7 -->
<g id="node7" class="node">
<title>Node7</title>
<g id="a_node7"><a xlink:href="../../d8/d71/group__k__means.html#gad339c41d3ee9e6729aca9e9ab3f7d2d9" target="_top" xlink:title=" ">
<polygon fill="white" stroke="#666666" points="334.5,-37 249.5,-37 249.5,-18 334.5,-18 334.5,-37"/>
<text text-anchor="middle" x="292" y="-25" font-family="Helvetica,sans-Serif" font-size="10.00">calculateNearst</text>
</a>
</g>
</g>
<!-- Node5&#45;&gt;Node7 -->
<g id="edge6" class="edge">
<title>Node5&#45;&gt;Node7</title>
<path fill="none" stroke="#63b8ff" d="M204.91,-42.24C214.79,-40.54 226.55,-38.53 238.16,-36.54"/>
<polygon fill="#63b8ff" stroke="#63b8ff" points="238.42,-40.05 247.68,-34.91 237.24,-33.15 238.42,-40.05"/>
</g>
</g>
</svg>
