<?xml version="1.0" encoding="UTF-8" standalone="no"?>
<!DOCTYPE svg PUBLIC "-//W3C//DTD SVG 1.1//EN"
 "http://www.w3.org/Graphics/SVG/1.1/DTD/svg11.dtd">
<!-- Generated by graphviz version 8.0.5 (20230430.1635)
 -->
<!-- Title: main Pages: 1 -->
<svg width="219pt" height="27pt"
 viewBox="0.00 0.00 218.75 27.25" xmlns="http://www.w3.org/2000/svg" xmlns:xlink="http://www.w3.org/1999/xlink">
<g id="graph0" class="graph" transform="scale(1 1) rotate(0) translate(4 23.25)">
<title>main</title>
<!-- Node1 -->
<g id="Node000001" class="node">
<title>Node1</title>
<g id="a_Node000001"><a xlink:title="Main function.">
<polygon fill="#999999" stroke="#666666" points="37,-19.25 0,-19.25 0,0 37,0 37,-19.25"/>
<text text-anchor="middle" x="18.5" y="-5.75" font-family="Helvetica,sans-Serif" font-size="10.00">main</text>
</a>
</g>
</g>
<!-- Node2 -->
<g id="Node000002" class="node">
<title>Node2</title>
<g id="a_Node000002"><a xlink:href="../../d7/d3b/group__hash.html#gab87679863646255178427a56dc33e453" target="_top" xlink:title="Test function for sdbm.">
<polygon fill="white" stroke="#666666" points="134.75,-19.25 73,-19.25 73,0 134.75,0 134.75,-19.25"/>
<text text-anchor="middle" x="103.88" y="-5.75" font-family="Helvetica,sans-Serif" font-size="10.00">test_sdbm</text>
</a>
</g>
</g>
<!-- Node1&#45;&gt;Node2 -->
<g id="edge1_Node000001_Node000002" class="edge">
<title>Node1&#45;&gt;Node2</title>
<g id="a_edge1_Node000001_Node000002"><a xlink:title=" ">
<path fill="none" stroke="#63b8ff" d="M37.18,-9.62C44.44,-9.62 53.17,-9.62 61.87,-9.62"/>
<polygon fill="#63b8ff" stroke="#63b8ff" points="61.75,-13.13 71.75,-9.62 61.75,-6.13 61.75,-13.13"/>
</a>
</g>
</g>
<!-- Node3 -->
<g id="Node000003" class="node">
<title>Node3</title>
<g id="a_Node000003"><a xlink:href="../../d7/d3b/group__hash.html#ga8ab8eeb35f8ccfcad89091b5fdd4f605" target="_top" xlink:title="SDBM algorithm implementation.">
<polygon fill="white" stroke="#666666" points="210.75,-19.25 170.75,-19.25 170.75,0 210.75,0 210.75,-19.25"/>
<text text-anchor="middle" x="190.75" y="-5.75" font-family="Helvetica,sans-Serif" font-size="10.00">sdbm</text>
</a>
</g>
</g>
<!-- Node2&#45;&gt;Node3 -->
<g id="edge2_Node000002_Node000003" class="edge">
<title>Node2&#45;&gt;Node3</title>
<g id="a_edge2_Node000002_Node000003"><a xlink:title=" ">
<path fill="none" stroke="#63b8ff" d="M135.04,-9.62C142.91,-9.62 151.41,-9.62 159.3,-9.62"/>
<polygon fill="#63b8ff" stroke="#63b8ff" points="159.28,-13.13 169.28,-9.62 159.28,-6.13 159.28,-13.13"/>
</a>
</g>
</g>
</g>
</svg>
