<?xml version="1.0" encoding="UTF-8" standalone="no"?>
<!DOCTYPE svg PUBLIC "-//W3C//DTD SVG 1.1//EN"
 "http://www.w3.org/Graphics/SVG/1.1/DTD/svg11.dtd">
<!-- Generated by graphviz version 5.0.1 (20220820.1526)
 -->
<!-- Title: main Pages: 1 -->
<svg width="221pt" height="27pt"
 viewBox="0.00 0.00 221.00 27.00" xmlns="http://www.w3.org/2000/svg" xmlns:xlink="http://www.w3.org/1999/xlink">
<g id="graph0" class="graph" transform="scale(1 1) rotate(0) translate(4 23)">
<title>main</title>
<!-- Node1 -->
<g id="node1" class="node">
<title>Node1</title>
<g id="a_node1"><a xlink:title="Main function.">
<polygon fill="#999999" stroke="#666666" points="38,-19 0,-19 0,0 38,0 38,-19"/>
<text text-anchor="middle" x="19" y="-7" font-family="Helvetica,sans-Serif" font-size="10.00">main</text>
</a>
</g>
</g>
<!-- Node2 -->
<g id="node2" class="node">
<title>Node2</title>
<g id="a_node2"><a xlink:href="../../d7/d3b/group__hash.html#gab87679863646255178427a56dc33e453" target="_top" xlink:title="Test function for sdbm.">
<polygon fill="white" stroke="#666666" points="136,-19 74,-19 74,0 136,0 136,-19"/>
<text text-anchor="middle" x="105" y="-7" font-family="Helvetica,sans-Serif" font-size="10.00">test_sdbm</text>
</a>
</g>
</g>
<!-- Node1&#45;&gt;Node2 -->
<g id="edge1" class="edge">
<title>Node1&#45;&gt;Node2</title>
<path fill="none" stroke="#63b8ff" d="M38.23,-9.5C45.8,-9.5 54.91,-9.5 63.9,-9.5"/>
<polygon fill="#63b8ff" stroke="#63b8ff" points="63.92,-13 73.92,-9.5 63.92,-6 63.92,-13"/>
</g>
<!-- Node3 -->
<g id="node3" class="node">
<title>Node3</title>
<g id="a_node3"><a xlink:href="../../d7/d3b/group__hash.html#ga8ab8eeb35f8ccfcad89091b5fdd4f605" target="_top" xlink:title="SDBM algorithm implementation.">
<polygon fill="white" stroke="#666666" points="213,-19 172,-19 172,0 213,0 213,-19"/>
<text text-anchor="middle" x="192.5" y="-7" font-family="Helvetica,sans-Serif" font-size="10.00">sdbm</text>
</a>
</g>
</g>
<!-- Node2&#45;&gt;Node3 -->
<g id="edge2" class="edge">
<title>Node2&#45;&gt;Node3</title>
<path fill="none" stroke="#63b8ff" d="M136.38,-9.5C144.59,-9.5 153.47,-9.5 161.65,-9.5"/>
<polygon fill="#63b8ff" stroke="#63b8ff" points="161.89,-13 171.89,-9.5 161.89,-6 161.89,-13"/>
</g>
</g>
</svg>
