<?xml version="1.0" encoding="UTF-8" standalone="no"?>
<!DOCTYPE svg PUBLIC "-//W3C//DTD SVG 1.1//EN"
 "http://www.w3.org/Graphics/SVG/1.1/DTD/svg11.dtd">
<!-- Generated by graphviz version 9.0.0 (20230911.1827)
 -->
<!-- Title: cipher/rot13.c Pages: 1 -->
<svg width="189pt" height="83pt"
 viewBox="0.00 0.00 189.25 82.50" xmlns="http://www.w3.org/2000/svg" xmlns:xlink="http://www.w3.org/1999/xlink">
<g id="graph0" class="graph" transform="scale(1 1) rotate(0) translate(4 78.5)">
<title>cipher/rot13.c</title>
<!-- Node1 -->
<g id="Node000001" class="node">
<title>Node1</title>
<g id="a_Node000001"><a xlink:title="ROT13 is a simple letter substitution cipher that replaces a letter with the 13th letter after it in ...">
<polygon fill="#999999" stroke="#666666" points="125.25,-74.5 50,-74.5 50,-55.25 125.25,-55.25 125.25,-74.5"/>
<text text-anchor="middle" x="87.62" y="-61" font-family="Helvetica,sans-Serif" font-size="10.00">cipher/rot13.c</text>
</a>
</g>
</g>
<!-- Node2 -->
<g id="Node000002" class="node">
<title>Node2</title>
<g id="a_Node000002"><a xlink:title=" ">
<polygon fill="#e0e0e0" stroke="#999999" points="45.25,-19.25 0,-19.25 0,0 45.25,0 45.25,-19.25"/>
<text text-anchor="middle" x="22.62" y="-5.75" font-family="Helvetica,sans-Serif" font-size="10.00">stdio.h</text>
</a>
</g>
</g>
<!-- Node1&#45;&gt;Node2 -->
<g id="edge1_Node000001_Node000002" class="edge">
<title>Node1&#45;&gt;Node2</title>
<g id="a_edge1_Node000001_Node000002"><a xlink:title=" ">
<path fill="none" stroke="#63b8ff" d="M76.6,-54.84C67.2,-47.15 53.48,-35.9 42.22,-26.68"/>
<polygon fill="#63b8ff" stroke="#63b8ff" points="44.61,-24.11 34.66,-20.48 40.18,-29.53 44.61,-24.11"/>
</a>
</g>
</g>
<!-- Node3 -->
<g id="Node000003" class="node">
<title>Node3</title>
<g id="a_Node000003"><a xlink:title=" ">
<polygon fill="#e0e0e0" stroke="#999999" points="111.75,-19.25 63.5,-19.25 63.5,0 111.75,0 111.75,-19.25"/>
<text text-anchor="middle" x="87.62" y="-5.75" font-family="Helvetica,sans-Serif" font-size="10.00">string.h</text>
</a>
</g>
</g>
<!-- Node1&#45;&gt;Node3 -->
<g id="edge2_Node000001_Node000003" class="edge">
<title>Node1&#45;&gt;Node3</title>
<g id="a_edge2_Node000001_Node000003"><a xlink:title=" ">
<path fill="none" stroke="#63b8ff" d="M87.62,-55.08C87.62,-48.57 87.62,-39.42 87.62,-31.12"/>
<polygon fill="#63b8ff" stroke="#63b8ff" points="91.13,-31.12 87.63,-21.12 84.13,-31.12 91.13,-31.12"/>
</a>
</g>
</g>
<!-- Node4 -->
<g id="Node000004" class="node">
<title>Node4</title>
<g id="a_Node000004"><a xlink:title=" ">
<polygon fill="#e0e0e0" stroke="#999999" points="181.25,-19.25 130,-19.25 130,0 181.25,0 181.25,-19.25"/>
<text text-anchor="middle" x="155.62" y="-5.75" font-family="Helvetica,sans-Serif" font-size="10.00">assert.h</text>
</a>
</g>
</g>
<!-- Node1&#45;&gt;Node4 -->
<g id="edge3_Node000001_Node000004" class="edge">
<title>Node1&#45;&gt;Node4</title>
<g id="a_edge3_Node000001_Node000004"><a xlink:title=" ">
<path fill="none" stroke="#63b8ff" d="M99.16,-54.84C109.09,-47.07 123.64,-35.67 135.48,-26.4"/>
<polygon fill="#63b8ff" stroke="#63b8ff" points="137.35,-29.38 143.07,-20.46 133.04,-23.87 137.35,-29.38"/>
</a>
</g>
</g>
</g>
</svg>
