<?xml version="1.0" encoding="utf-8" standalone="no"?>
<!DOCTYPE svg PUBLIC "-//W3C//DTD SVG 1.1//EN"
  "http://www.w3.org/Graphics/SVG/1.1/DTD/svg11.dtd">
<!-- Created with matplotlib (https://matplotlib.org/) -->
<svg height="386.034375pt" version="1.1" viewBox="0 0 396.221141 386.034375" width="396.221141pt" xmlns="http://www.w3.org/2000/svg" xmlns:xlink="http://www.w3.org/1999/xlink">
 <defs>
  <style type="text/css">
*{stroke-linecap:butt;stroke-linejoin:round;}
  </style>
 </defs>
 <g id="figure_1">
  <g id="patch_1">
   <path d="M -0 386.034375 
L 396.221141 386.034375 
L 396.221141 0 
L -0 0 
z
" style="fill:none;"/>
  </g>
  <g id="axes_1">
   <g id="patch_2">
    <path d="M 52.160938 170.57267 
L 200.415483 170.57267 
L 200.415483 22.318125 
L 52.160938 22.318125 
z
" style="fill:none;"/>
   </g>
   <g id="matplotlib.axis_1">
    <g id="xtick_1">
     <g id="line2d_1">
      <defs>
       <path d="M 0 0 
L 0 3.5 
" id="mfe788a9831" style="stroke:#000000;stroke-width:0.8;"/>
      </defs>
      <g>
       <use style="stroke:#000000;stroke-width:0.8;" x="67.676507" xlink:href="#mfe788a9831" y="170.57267"/>
      </g>
     </g>
     <g id="text_1">
      <text style="font-family:DejaVu Sans;font-size:10px;font-style:normal;font-weight:normal;text-anchor:middle;" transform="rotate(-0, 67.676507, 185.171108)" x="67.676507" y="185.171108">−1</text>
     </g>
    </g>
    <g id="xtick_2">
     <g id="line2d_2">
      <g>
       <use style="stroke:#000000;stroke-width:0.8;" x="127.791074" xlink:href="#mfe788a9831" y="170.57267"/>
      </g>
     </g>
     <g id="text_2">
      <text style="font-family:DejaVu Sans;font-size:10px;font-style:normal;font-weight:normal;text-anchor:middle;" transform="rotate(-0, 127.791074, 185.171108)" x="127.791074" y="185.171108">0</text>
     </g>
    </g>
    <g id="xtick_3">
     <g id="line2d_3">
      <g>
       <use style="stroke:#000000;stroke-width:0.8;" x="187.905642" xlink:href="#mfe788a9831" y="170.57267"/>
      </g>
     </g>
     <g id="text_3">
      <text style="font-family:DejaVu Sans;font-size:10px;font-style:normal;font-weight:normal;text-anchor:middle;" transform="rotate(-0, 187.905642, 185.171108)" x="187.905642" y="185.171108">1</text>
     </g>
    </g>
    <g id="text_4">
     <text style="font-family:DejaVu Sans;font-size:10px;font-style:normal;font-weight:normal;text-anchor:middle;" transform="rotate(-0, 126.28821, 198.849233)" x="126.28821" y="198.849233">u</text>
    </g>
   </g>
   <g id="matplotlib.axis_2">
    <g id="ytick_1">
     <g id="line2d_4">
      <defs>
       <path d="M 0 0 
L -3.5 0 
" id="m04e79eb1f0" style="stroke:#000000;stroke-width:0.8;"/>
      </defs>
      <g>
       <use style="stroke:#000000;stroke-width:0.8;" x="52.160938" xlink:href="#m04e79eb1f0" y="156.710251"/>
      </g>
     </g>
     <g id="text_5">
      <text style="font-family:DejaVu Sans;font-size:10px;font-style:normal;font-weight:normal;text-anchor:end;" transform="rotate(-0, 45.160938, 160.50947)" x="45.160938" y="160.50947">−1.0</text>
     </g>
    </g>
    <g id="ytick_2">
     <g id="line2d_5">
      <g>
       <use style="stroke:#000000;stroke-width:0.8;" x="52.160938" xlink:href="#m04e79eb1f0" y="126.652968"/>
      </g>
     </g>
     <g id="text_6">
      <text style="font-family:DejaVu Sans;font-size:10px;font-style:normal;font-weight:normal;text-anchor:end;" transform="rotate(-0, 45.160938, 130.452186)" x="45.160938" y="130.452186">−0.5</text>
     </g>
    </g>
    <g id="ytick_3">
     <g id="line2d_6">
      <g>
       <use style="stroke:#000000;stroke-width:0.8;" x="52.160938" xlink:href="#m04e79eb1f0" y="96.595684"/>
      </g>
     </g>
     <g id="text_7">
      <text style="font-family:DejaVu Sans;font-size:10px;font-style:normal;font-weight:normal;text-anchor:end;" transform="rotate(-0, 45.160938, 100.394903)" x="45.160938" y="100.394903">0.0</text>
     </g>
    </g>
    <g id="ytick_4">
     <g id="line2d_7">
      <g>
       <use style="stroke:#000000;stroke-width:0.8;" x="52.160938" xlink:href="#m04e79eb1f0" y="66.538401"/>
      </g>
     </g>
     <g id="text_8">
      <text style="font-family:DejaVu Sans;font-size:10px;font-style:normal;font-weight:normal;text-anchor:end;" transform="rotate(-0, 45.160938, 70.337619)" x="45.160938" y="70.337619">0.5</text>
     </g>
    </g>
    <g id="ytick_5">
     <g id="line2d_8">
      <g>
       <use style="stroke:#000000;stroke-width:0.8;" x="52.160938" xlink:href="#m04e79eb1f0" y="36.481117"/>
      </g>
     </g>
     <g id="text_9">
      <text style="font-family:DejaVu Sans;font-size:10px;font-style:normal;font-weight:normal;text-anchor:end;" transform="rotate(-0, 45.160938, 40.280336)" x="45.160938" y="40.280336">1.0</text>
     </g>
    </g>
    <g id="text_10">
     <text style="font-family:DejaVu Sans;font-size:10px;font-style:normal;font-weight:normal;text-anchor:middle;" transform="rotate(-90, 14.798438, 96.445398)" x="14.798438" y="96.445398">v</text>
    </g>
   </g>
   <g id="line2d_9">
    <path clip-path="url(#pc25e6a43b7)" d="M 180.391321 126.652968 
L 158.786145 149.19593 
L 128.612841 158.092886 
L 97.745814 150.837058 
L 74.379282 129.039516 
L 64.851123 98.27769 
L 71.866493 66.592504 
L 93.856401 42.378356 
L 125.208553 32.212983 
L 157.73414 38.945814 
L 182.813938 61.12809 
L 193.67664 93.072369 
L 187.19629 126.45459 
L 164.845694 152.424083 
L 132.297864 163.984114 
L 98.046387 157.792313 
L 71.163152 135.279408 
L 58.89978 102.12923 
L 64.730893 66.98926 
L 87.424143 39.168238 
" style="fill:none;stroke:#1f77b4;stroke-linecap:square;stroke-width:1.5;"/>
   </g>
   <g id="line2d_10">
    <path clip-path="url(#pc25e6a43b7)" d="M 187.905642 96.595684 
L 180.547619 125.414608 
L 160.270975 147.182092 
L 132.043579 156.559965 
L 102.777403 151.25786 
L 79.633295 132.574253 
L 68.277653 105.07785 
L 71.493782 75.507494 
L 88.500193 51.10098 
L 115.118924 37.833695 
L 144.845577 38.951826 
L 170.394268 54.184857 
L 185.513082 79.799674 
L 186.498961 109.526328 
L 173.111447 136.090955 
L 148.626783 152.983148 
L 119.044405 156.073037 
L 91.602105 144.597166 
L 73.020692 121.368897 
L 67.844828 92.078074 
" style="fill:none;stroke:#ff7f0e;stroke-linecap:square;stroke-width:1.5;"/>
   </g>
   <g id="patch_3">
    <path d="M 52.160938 170.57267 
L 52.160938 22.318125 
" style="fill:none;stroke:#000000;stroke-linecap:square;stroke-linejoin:miter;stroke-width:0.8;"/>
   </g>
   <g id="patch_4">
    <path d="M 200.415483 170.57267 
L 200.415483 22.318125 
" style="fill:none;stroke:#000000;stroke-linecap:square;stroke-linejoin:miter;stroke-width:0.8;"/>
   </g>
   <g id="patch_5">
    <path d="M 52.160938 170.57267 
L 200.415483 170.57267 
" style="fill:none;stroke:#000000;stroke-linecap:square;stroke-linejoin:miter;stroke-width:0.8;"/>
   </g>
   <g id="patch_6">
    <path d="M 52.160938 22.318125 
L 200.415483 22.318125 
" style="fill:none;stroke:#000000;stroke-linecap:square;stroke-linejoin:miter;stroke-width:0.8;"/>
   </g>
   <g id="text_11">
    <text style="font-family:DejaVu Sans;font-size:12px;font-style:normal;font-weight:normal;text-anchor:middle;" transform="rotate(-0, 126.28821, 16.318125)" x="126.28821" y="16.318125">Step size = 0.5</text>
   </g>
   <g id="legend_1">
    <g id="patch_7">
     <path d="M 92.805398 112.623523 
L 159.771023 112.623523 
Q 161.771023 112.623523 161.771023 110.623523 
L 161.771023 82.267273 
Q 161.771023 80.267273 159.771023 80.267273 
L 92.805398 80.267273 
Q 90.805398 80.267273 90.805398 82.267273 
L 90.805398 110.623523 
Q 90.805398 112.623523 92.805398 112.623523 
z
" style="fill:#ffffff;opacity:0.8;stroke:#cccccc;stroke-linejoin:miter;"/>
    </g>
    <g id="line2d_11">
     <path d="M 94.805398 88.36571 
L 114.805398 88.36571 
" style="fill:none;stroke:#1f77b4;stroke-linecap:square;stroke-width:1.5;"/>
    </g>
    <g id="line2d_12"/>
    <g id="text_12">
     <text style="font-family:DejaVu Sans;font-size:10px;font-style:normal;font-weight:normal;text-anchor:start;" transform="rotate(-0, 122.805398, 91.86571)" x="122.805398" y="91.86571">approx</text>
    </g>
    <g id="line2d_13">
     <path d="M 94.805398 103.043835 
L 114.805398 103.043835 
" style="fill:none;stroke:#ff7f0e;stroke-linecap:square;stroke-width:1.5;"/>
    </g>
    <g id="line2d_14"/>
    <g id="text_13">
     <text style="font-family:DejaVu Sans;font-size:10px;font-style:normal;font-weight:normal;text-anchor:start;" transform="rotate(-0, 122.805398, 106.543835)" x="122.805398" y="106.543835">exact</text>
    </g>
   </g>
  </g>
  <g id="axes_2">
   <g id="patch_8">
    <path d="M 234.779119 170.57267 
L 383.033665 170.57267 
L 383.033665 22.318125 
L 234.779119 22.318125 
z
" style="fill:none;"/>
   </g>
   <g id="matplotlib.axis_3">
    <g id="xtick_4">
     <g id="line2d_15">
      <g>
       <use style="stroke:#000000;stroke-width:0.8;" x="241.585317" xlink:href="#mfe788a9831" y="170.57267"/>
      </g>
     </g>
     <g id="text_14">
      <text style="font-family:DejaVu Sans;font-size:10px;font-style:normal;font-weight:normal;text-anchor:middle;" transform="rotate(-0, 241.585317, 185.171108)" x="241.585317" y="185.171108">−1</text>
     </g>
    </g>
    <g id="xtick_5">
     <g id="line2d_16">
      <g>
       <use style="stroke:#000000;stroke-width:0.8;" x="308.940069" xlink:href="#mfe788a9831" y="170.57267"/>
      </g>
     </g>
     <g id="text_15">
      <text style="font-family:DejaVu Sans;font-size:10px;font-style:normal;font-weight:normal;text-anchor:middle;" transform="rotate(-0, 308.940069, 185.171108)" x="308.940069" y="185.171108">0</text>
     </g>
    </g>
    <g id="xtick_6">
     <g id="line2d_17">
      <g>
       <use style="stroke:#000000;stroke-width:0.8;" x="376.294822" xlink:href="#mfe788a9831" y="170.57267"/>
      </g>
     </g>
     <g id="text_16">
      <text style="font-family:DejaVu Sans;font-size:10px;font-style:normal;font-weight:normal;text-anchor:middle;" transform="rotate(-0, 376.294822, 185.171108)" x="376.294822" y="185.171108">1</text>
     </g>
    </g>
    <g id="text_17">
     <text style="font-family:DejaVu Sans;font-size:10px;font-style:normal;font-weight:normal;text-anchor:middle;" transform="rotate(-0, 308.906392, 198.849233)" x="308.906392" y="198.849233">u</text>
    </g>
   </g>
   <g id="matplotlib.axis_4">
    <g id="ytick_6">
     <g id="line2d_18">
      <g>
       <use style="stroke:#000000;stroke-width:0.8;" x="234.779119" xlink:href="#m04e79eb1f0" y="163.833827"/>
      </g>
     </g>
     <g id="text_18">
      <text style="font-family:DejaVu Sans;font-size:10px;font-style:normal;font-weight:normal;text-anchor:end;" transform="rotate(-0, 227.779119, 167.633046)" x="227.779119" y="167.633046">−1.0</text>
     </g>
    </g>
    <g id="ytick_7">
     <g id="line2d_19">
      <g>
       <use style="stroke:#000000;stroke-width:0.8;" x="234.779119" xlink:href="#m04e79eb1f0" y="130.156451"/>
      </g>
     </g>
     <g id="text_19">
      <text style="font-family:DejaVu Sans;font-size:10px;font-style:normal;font-weight:normal;text-anchor:end;" transform="rotate(-0, 227.779119, 133.95567)" x="227.779119" y="133.95567">−0.5</text>
     </g>
    </g>
    <g id="ytick_8">
     <g id="line2d_20">
      <g>
       <use style="stroke:#000000;stroke-width:0.8;" x="234.779119" xlink:href="#m04e79eb1f0" y="96.479075"/>
      </g>
     </g>
     <g id="text_20">
      <text style="font-family:DejaVu Sans;font-size:10px;font-style:normal;font-weight:normal;text-anchor:end;" transform="rotate(-0, 227.779119, 100.278294)" x="227.779119" y="100.278294">0.0</text>
     </g>
    </g>
    <g id="ytick_9">
     <g id="line2d_21">
      <g>
       <use style="stroke:#000000;stroke-width:0.8;" x="234.779119" xlink:href="#m04e79eb1f0" y="62.801699"/>
      </g>
     </g>
     <g id="text_21">
      <text style="font-family:DejaVu Sans;font-size:10px;font-style:normal;font-weight:normal;text-anchor:end;" transform="rotate(-0, 227.779119, 66.600918)" x="227.779119" y="66.600918">0.5</text>
     </g>
    </g>
    <g id="ytick_10">
     <g id="line2d_22">
      <g>
       <use style="stroke:#000000;stroke-width:0.8;" x="234.779119" xlink:href="#m04e79eb1f0" y="29.124323"/>
      </g>
     </g>
     <g id="text_22">
      <text style="font-family:DejaVu Sans;font-size:10px;font-style:normal;font-weight:normal;text-anchor:end;" transform="rotate(-0, 227.779119, 32.923541)" x="227.779119" y="32.923541">1.0</text>
     </g>
    </g>
   </g>
   <g id="line2d_23">
    <path clip-path="url(#p8f1dc8651a)" d="M 375.958048 103.21455 
L 374.947727 109.882671 
L 373.277329 116.416082 
L 370.960325 122.747429 
L 368.023658 128.822827 
L 364.494269 134.568188 
L 360.412571 139.936361 
L 355.805506 144.866729 
L 350.733693 149.305407 
L 345.244281 153.225454 
L 339.384417 156.572985 
L 333.228193 159.314324 
L 326.822756 161.429263 
L 320.235461 162.890861 
L 313.537705 163.692382 
L 306.794147 163.813621 
L 300.069449 163.261312 
L 293.435005 162.042191 
L 286.955478 160.162993 
L 280.698222 157.643926 
L 274.723855 154.518665 
L 269.092998 150.807418 
L 263.859534 146.550598 
L 259.077346 141.788617 
L 254.793584 136.575359 
L 251.055395 130.964708 
L 247.896457 125.003813 
L 245.350448 118.753292 
L 243.437573 112.287235 
L 242.184774 105.652792 
L 241.605523 98.934156 
L 241.693085 92.187904 
L 242.460929 85.48678 
L 243.895585 78.892749 
L 245.976847 72.473841 
L 248.691243 66.297411 
L 252.011833 60.424076 
L 255.898202 54.914457 
L 260.323409 49.815703 
L 265.233571 45.188431 
L 270.581538 41.073056 
L 276.313427 37.516725 
L 282.36862 34.54638 
L 288.699966 32.202435 
L 295.226642 30.49836 
L 301.894762 29.454361 
L 308.63145 29.056968 
L 315.372448 29.393742 
L 322.047304 30.370386 
L 328.594186 32.013842 
L 334.945739 34.297168 
L 341.027873 37.213628 
L 346.800176 40.716076 
L 352.18182 44.777567 
L 357.13913 49.364426 
L 361.611486 54.416032 
L 365.551739 59.898709 
L 368.926212 65.738366 
L 371.701228 71.89459 
L 373.843109 78.293292 
L 375.338384 84.873851 
L 376.166848 91.570261 
L 376.294822 98.31786 
L 375.803132 105.0466 
L 374.610953 111.687778 
L 372.758697 118.180776 
L 370.273307 124.458239 
L 367.168253 130.446077 
L 363.477212 136.103876 
L 359.247334 141.357547 
L 354.505559 146.15994 
L 349.312508 150.470645 
L 343.708593 154.235775 
L 337.761168 157.428391 
L 331.517382 160.001342 
L 325.051326 161.941159 
L 318.430354 163.227635 
L 311.704982 163.833827 
L 304.954689 163.779944 
L 298.244135 163.045777 
L 291.643369 161.644798 
L 285.21099 159.590478 
L 279.021088 156.903023 
L 273.127548 153.609376 
L 267.590987 149.736478 
L 262.472026 145.338212 
L 257.817812 140.448257 
L 253.675495 135.113761 
L 250.092222 129.395343 
L 247.094936 123.346886 
L 244.717313 117.02901 
L 242.97956 110.502335 
L 241.90862 103.834214 
L 241.517962 97.096651 
L 241.787381 90.350466 
L 242.730348 83.668201 
L 244.346862 77.107848 
L 246.603246 70.74956 
L 249.492765 64.640484 
L 252.96827 58.85471 
" style="fill:none;stroke:#1f77b4;stroke-linecap:square;stroke-width:1.5;"/>
   </g>
   <g id="line2d_24">
    <path clip-path="url(#p8f1dc8651a)" d="M 376.294822 96.479075 
L 375.958048 103.2031 
L 374.954462 109.862464 
L 373.284064 116.382404 
L 370.980532 122.707016 
L 368.0506 128.768943 
L 364.527947 134.507568 
L 360.452984 139.869007 
L 355.866125 144.799374 
L 350.807783 149.238053 
L 345.331842 153.158099 
L 339.492185 156.50563 
L 333.349432 159.253704 
L 326.957466 161.382114 
L 320.390377 162.850448 
L 313.704745 163.665441 
L 306.973311 163.806886 
L 300.264777 163.274783 
L 293.63707 162.069133 
L 287.164278 160.216877 
L 280.913757 157.724751 
L 274.93939 154.619697 
L 269.301798 150.935392 
L 264.061598 146.705514 
L 259.272675 141.97721 
L 254.982177 136.790894 
L 251.223782 131.20045 
L 248.044638 125.266496 
L 245.478422 119.042917 
L 243.538605 112.590332 
L 242.258865 105.982831 
L 241.645936 99.279686 
L 241.69982 92.547578 
L 242.427251 85.857231 
L 243.821495 79.269936 
L 245.862344 72.851028 
L 248.536327 66.674597 
L 251.816504 60.794527 
L 255.66246 55.264702 
L 260.047255 50.152476 
L 264.917003 45.504999 
L 270.224558 41.362681 
L 275.916034 37.772673 
L 281.944285 34.768651 
L 288.241954 32.384293 
L 294.741688 30.639805 
L 301.382866 29.548658 
L 308.105544 29.131058 
L 314.83361 29.380271 
L 321.501731 30.303031 
L 328.048613 31.892603 
L 334.400166 34.122045 
L 340.495771 36.971151 
L 346.281544 40.419715 
L 351.690131 44.427322 
L 356.674382 48.960297 
L 361.180415 53.95802 
L 365.161081 59.386813 
L 368.582703 65.186057 
L 371.411602 71.295133 
L 373.614103 77.660157 
L 375.169997 84.207039 
L 376.05908 90.882569 
L 376.288086 97.611308 
L 375.836809 104.325904 
L 374.718721 110.967082 
L 372.940555 117.46008 
L 370.529255 123.744279 
L 367.498291 129.759058 
L 363.881341 135.437064 
L 359.718817 140.731147 
L 355.044397 145.58069 
L 349.918701 149.938542 
L 344.375405 153.757557 
L 338.475128 157.010791 
L 332.285227 159.657833 
L 325.866319 161.67174 
L 319.272288 163.039041 
L 312.574532 163.732795 
L 305.841751 163.759737 
L 299.139953 163.119867 
L 292.539187 161.806449 
L 286.093337 159.839691 
L 279.883229 157.246533 
L 273.962747 154.040446 
L 268.392508 150.261845 
L 263.226399 145.944405 
L 258.518302 141.135276 
L 254.30863 135.87487 
L 250.651267 130.223806 
L 247.573155 124.235969 
L 245.107971 117.971977 
L 243.282657 111.492449 
L 242.110684 104.864742 
L 241.605523 98.148126 
L 241.77391 91.417365 
L 242.615845 84.739142 
L 244.117856 78.172053 
L 246.273208 71.793558 
L 249.048224 65.664276 
" style="fill:none;stroke:#ff7f0e;stroke-linecap:square;stroke-width:1.5;"/>
   </g>
   <g id="patch_9">
    <path d="M 234.779119 170.57267 
L 234.779119 22.318125 
" style="fill:none;stroke:#000000;stroke-linecap:square;stroke-linejoin:miter;stroke-width:0.8;"/>
   </g>
   <g id="patch_10">
    <path d="M 383.033665 170.57267 
L 383.033665 22.318125 
" style="fill:none;stroke:#000000;stroke-linecap:square;stroke-linejoin:miter;stroke-width:0.8;"/>
   </g>
   <g id="patch_11">
    <path d="M 234.779119 170.57267 
L 383.033665 170.57267 
" style="fill:none;stroke:#000000;stroke-linecap:square;stroke-linejoin:miter;stroke-width:0.8;"/>
   </g>
   <g id="patch_12">
    <path d="M 234.779119 22.318125 
L 383.033665 22.318125 
" style="fill:none;stroke:#000000;stroke-linecap:square;stroke-linejoin:miter;stroke-width:0.8;"/>
   </g>
   <g id="text_23">
    <text style="font-family:DejaVu Sans;font-size:12px;font-style:normal;font-weight:normal;text-anchor:middle;" transform="rotate(-0, 308.906392, 16.318125)" x="308.906392" y="16.318125">Step size = 0.1</text>
   </g>
   <g id="legend_2">
    <g id="patch_13">
     <path d="M 275.42358 112.623523 
L 342.389205 112.623523 
Q 344.389205 112.623523 344.389205 110.623523 
L 344.389205 82.267273 
Q 344.389205 80.267273 342.389205 80.267273 
L 275.42358 80.267273 
Q 273.42358 80.267273 273.42358 82.267273 
L 273.42358 110.623523 
Q 273.42358 112.623523 275.42358 112.623523 
z
" style="fill:#ffffff;opacity:0.8;stroke:#cccccc;stroke-linejoin:miter;"/>
    </g>
    <g id="line2d_25">
     <path d="M 277.42358 88.36571 
L 297.42358 88.36571 
" style="fill:none;stroke:#1f77b4;stroke-linecap:square;stroke-width:1.5;"/>
    </g>
    <g id="line2d_26"/>
    <g id="text_24">
     <text style="font-family:DejaVu Sans;font-size:10px;font-style:normal;font-weight:normal;text-anchor:start;" transform="rotate(-0, 305.42358, 91.86571)" x="305.42358" y="91.86571">approx</text>
    </g>
    <g id="line2d_27">
     <path d="M 277.42358 103.043835 
L 297.42358 103.043835 
" style="fill:none;stroke:#ff7f0e;stroke-linecap:square;stroke-width:1.5;"/>
    </g>
    <g id="line2d_28"/>
    <g id="text_25">
     <text style="font-family:DejaVu Sans;font-size:10px;font-style:normal;font-weight:normal;text-anchor:start;" transform="rotate(-0, 305.42358, 106.543835)" x="305.42358" y="106.543835">exact</text>
    </g>
   </g>
  </g>
  <g id="axes_3">
   <g id="patch_14">
    <path d="M 50.197301 348.478125 
L 202.379119 348.478125 
L 202.379119 200.22358 
L 50.197301 200.22358 
z
" style="fill:none;"/>
   </g>
   <g id="matplotlib.axis_5">
    <g id="xtick_7">
     <g id="line2d_29">
      <path clip-path="url(#p72789b503b)" d="M 57.114657 348.478125 
L 57.114657 200.22358 
" style="fill:none;stroke:#b0b0b0;stroke-linecap:square;stroke-width:0.8;"/>
     </g>
     <g id="line2d_30">
      <g>
       <use style="stroke:#000000;stroke-width:0.8;" x="57.114657" xlink:href="#mfe788a9831" y="348.478125"/>
      </g>
     </g>
     <g id="text_26">
      <text style="font-family:DejaVu Sans;font-size:10px;font-style:normal;font-weight:normal;text-anchor:middle;" transform="rotate(-0, 57.114657, 363.076562)" x="57.114657" y="363.076562">0</text>
     </g>
    </g>
    <g id="xtick_8">
     <g id="line2d_31">
      <path clip-path="url(#p72789b503b)" d="M 93.52179 348.478125 
L 93.52179 200.22358 
" style="fill:none;stroke:#b0b0b0;stroke-linecap:square;stroke-width:0.8;"/>
     </g>
     <g id="line2d_32">
      <g>
       <use style="stroke:#000000;stroke-width:0.8;" x="93.52179" xlink:href="#mfe788a9831" y="348.478125"/>
      </g>
     </g>
     <g id="text_27">
      <text style="font-family:DejaVu Sans;font-size:10px;font-style:normal;font-weight:normal;text-anchor:middle;" transform="rotate(-0, 93.52179, 363.076562)" x="93.52179" y="363.076562">5</text>
     </g>
    </g>
    <g id="xtick_9">
     <g id="line2d_33">
      <path clip-path="url(#p72789b503b)" d="M 129.928924 348.478125 
L 129.928924 200.22358 
" style="fill:none;stroke:#b0b0b0;stroke-linecap:square;stroke-width:0.8;"/>
     </g>
     <g id="line2d_34">
      <g>
       <use style="stroke:#000000;stroke-width:0.8;" x="129.928924" xlink:href="#mfe788a9831" y="348.478125"/>
      </g>
     </g>
     <g id="text_28">
      <text style="font-family:DejaVu Sans;font-size:10px;font-style:normal;font-weight:normal;text-anchor:middle;" transform="rotate(-0, 129.928924, 363.076562)" x="129.928924" y="363.076562">10</text>
     </g>
    </g>
    <g id="xtick_10">
     <g id="line2d_35">
      <path clip-path="url(#p72789b503b)" d="M 166.336057 348.478125 
L 166.336057 200.22358 
" style="fill:none;stroke:#b0b0b0;stroke-linecap:square;stroke-width:0.8;"/>
     </g>
     <g id="line2d_36">
      <g>
       <use style="stroke:#000000;stroke-width:0.8;" x="166.336057" xlink:href="#mfe788a9831" y="348.478125"/>
      </g>
     </g>
     <g id="text_29">
      <text style="font-family:DejaVu Sans;font-size:10px;font-style:normal;font-weight:normal;text-anchor:middle;" transform="rotate(-0, 166.336057, 363.076562)" x="166.336057" y="363.076562">15</text>
     </g>
    </g>
    <g id="text_30">
     <text style="font-family:DejaVu Sans;font-size:10px;font-style:normal;font-weight:normal;text-anchor:middle;" transform="rotate(-0, 126.28821, 376.754687)" x="126.28821" y="376.754687">Iter #</text>
    </g>
   </g>
   <g id="matplotlib.axis_6">
    <g id="ytick_11">
     <g id="line2d_37">
      <path clip-path="url(#p72789b503b)" d="M 50.197301 346.641231 
L 202.379119 346.641231 
" style="fill:none;stroke:#b0b0b0;stroke-linecap:square;stroke-width:0.8;"/>
     </g>
     <g id="line2d_38">
      <g>
       <use style="stroke:#000000;stroke-width:0.8;" x="50.197301" xlink:href="#m04e79eb1f0" y="346.641231"/>
      </g>
     </g>
     <g id="text_31">
      <text style="font-family:DejaVu Sans;font-size:10px;font-style:normal;font-weight:normal;text-anchor:end;" transform="rotate(-0, 43.197301, 350.440449)" x="43.197301" y="350.440449">0.5</text>
     </g>
    </g>
    <g id="ytick_12">
     <g id="line2d_39">
      <path clip-path="url(#p72789b503b)" d="M 50.197301 314.785994 
L 202.379119 314.785994 
" style="fill:none;stroke:#b0b0b0;stroke-linecap:square;stroke-width:0.8;"/>
     </g>
     <g id="line2d_40">
      <g>
       <use style="stroke:#000000;stroke-width:0.8;" x="50.197301" xlink:href="#m04e79eb1f0" y="314.785994"/>
      </g>
     </g>
     <g id="text_32">
      <text style="font-family:DejaVu Sans;font-size:10px;font-style:normal;font-weight:normal;text-anchor:end;" transform="rotate(-0, 43.197301, 318.585213)" x="43.197301" y="318.585213">0.6</text>
     </g>
    </g>
    <g id="ytick_13">
     <g id="line2d_41">
      <path clip-path="url(#p72789b503b)" d="M 50.197301 282.930757 
L 202.379119 282.930757 
" style="fill:none;stroke:#b0b0b0;stroke-linecap:square;stroke-width:0.8;"/>
     </g>
     <g id="line2d_42">
      <g>
       <use style="stroke:#000000;stroke-width:0.8;" x="50.197301" xlink:href="#m04e79eb1f0" y="282.930757"/>
      </g>
     </g>
     <g id="text_33">
      <text style="font-family:DejaVu Sans;font-size:10px;font-style:normal;font-weight:normal;text-anchor:end;" transform="rotate(-0, 43.197301, 286.729976)" x="43.197301" y="286.729976">0.7</text>
     </g>
    </g>
    <g id="ytick_14">
     <g id="line2d_43">
      <path clip-path="url(#p72789b503b)" d="M 50.197301 251.075521 
L 202.379119 251.075521 
" style="fill:none;stroke:#b0b0b0;stroke-linecap:square;stroke-width:0.8;"/>
     </g>
     <g id="line2d_44">
      <g>
       <use style="stroke:#000000;stroke-width:0.8;" x="50.197301" xlink:href="#m04e79eb1f0" y="251.075521"/>
      </g>
     </g>
     <g id="text_34">
      <text style="font-family:DejaVu Sans;font-size:10px;font-style:normal;font-weight:normal;text-anchor:end;" transform="rotate(-0, 43.197301, 254.874739)" x="43.197301" y="254.874739">0.8</text>
     </g>
    </g>
    <g id="ytick_15">
     <g id="line2d_45">
      <path clip-path="url(#p72789b503b)" d="M 50.197301 219.220284 
L 202.379119 219.220284 
" style="fill:none;stroke:#b0b0b0;stroke-linecap:square;stroke-width:0.8;"/>
     </g>
     <g id="line2d_46">
      <g>
       <use style="stroke:#000000;stroke-width:0.8;" x="50.197301" xlink:href="#m04e79eb1f0" y="219.220284"/>
      </g>
     </g>
     <g id="text_35">
      <text style="font-family:DejaVu Sans;font-size:10px;font-style:normal;font-weight:normal;text-anchor:end;" transform="rotate(-0, 43.197301, 223.019503)" x="43.197301" y="223.019503">0.9</text>
     </g>
    </g>
    <g id="text_36">
     <text style="font-family:DejaVu Sans;font-size:10px;font-style:normal;font-weight:normal;text-anchor:middle;" transform="rotate(-90, 21.214489, 274.350852)" x="21.214489" y="274.350852">Integration Error</text>
    </g>
   </g>
   <g id="line2d_47">
    <path clip-path="url(#p72789b503b)" d="M 57.114657 341.739282 
L 64.396083 335.099856 
L 71.67751 328.474479 
L 78.958937 321.657811 
L 86.240363 314.848143 
L 93.52179 308.014624 
L 100.803217 301.095394 
L 108.084643 294.111179 
L 115.36607 287.156844 
L 122.647497 280.018757 
L 129.928924 272.915189 
L 137.21035 265.739077 
L 144.491777 258.528077 
L 151.773204 251.280871 
L 159.05463 243.95928 
L 166.336057 236.678665 
L 173.617484 229.297452 
L 180.898911 221.885934 
L 188.180337 214.425885 
L 195.461764 206.962423 
" style="fill:none;stroke:#1f77b4;stroke-linecap:square;stroke-width:1.5;"/>
   </g>
   <g id="patch_15">
    <path d="M 50.197301 348.478125 
L 50.197301 200.22358 
" style="fill:none;stroke:#000000;stroke-linecap:square;stroke-linejoin:miter;stroke-width:0.8;"/>
   </g>
   <g id="patch_16">
    <path d="M 202.379119 348.478125 
L 202.379119 200.22358 
" style="fill:none;stroke:#000000;stroke-linecap:square;stroke-linejoin:miter;stroke-width:0.8;"/>
   </g>
   <g id="patch_17">
    <path d="M 50.197301 348.478125 
L 202.379119 348.478125 
" style="fill:none;stroke:#000000;stroke-linecap:square;stroke-linejoin:miter;stroke-width:0.8;"/>
   </g>
   <g id="patch_18">
    <path d="M 50.197301 200.22358 
L 202.379119 200.22358 
" style="fill:none;stroke:#000000;stroke-linecap:square;stroke-linejoin:miter;stroke-width:0.8;"/>
   </g>
  </g>
  <g id="axes_4">
   <g id="patch_19">
    <path d="M 232.815483 348.478125 
L 384.997301 348.478125 
L 384.997301 200.22358 
L 232.815483 200.22358 
z
" style="fill:none;"/>
   </g>
   <g id="matplotlib.axis_7">
    <g id="xtick_11">
     <g id="line2d_48">
      <path clip-path="url(#p7eb42b5e4b)" d="M 239.732838 348.478125 
L 239.732838 200.22358 
" style="fill:none;stroke:#b0b0b0;stroke-linecap:square;stroke-width:0.8;"/>
     </g>
     <g id="line2d_49">
      <g>
       <use style="stroke:#000000;stroke-width:0.8;" x="239.732838" xlink:href="#mfe788a9831" y="348.478125"/>
      </g>
     </g>
     <g id="text_37">
      <text style="font-family:DejaVu Sans;font-size:10px;font-style:normal;font-weight:normal;text-anchor:middle;" transform="rotate(-0, 239.732838, 363.076562)" x="239.732838" y="363.076562">0</text>
     </g>
    </g>
    <g id="xtick_12">
     <g id="line2d_50">
      <path clip-path="url(#p7eb42b5e4b)" d="M 274.668977 348.478125 
L 274.668977 200.22358 
" style="fill:none;stroke:#b0b0b0;stroke-linecap:square;stroke-width:0.8;"/>
     </g>
     <g id="line2d_51">
      <g>
       <use style="stroke:#000000;stroke-width:0.8;" x="274.668977" xlink:href="#mfe788a9831" y="348.478125"/>
      </g>
     </g>
     <g id="text_38">
      <text style="font-family:DejaVu Sans;font-size:10px;font-style:normal;font-weight:normal;text-anchor:middle;" transform="rotate(-0, 274.668977, 363.076562)" x="274.668977" y="363.076562">25</text>
     </g>
    </g>
    <g id="xtick_13">
     <g id="line2d_52">
      <path clip-path="url(#p7eb42b5e4b)" d="M 309.605115 348.478125 
L 309.605115 200.22358 
" style="fill:none;stroke:#b0b0b0;stroke-linecap:square;stroke-width:0.8;"/>
     </g>
     <g id="line2d_53">
      <g>
       <use style="stroke:#000000;stroke-width:0.8;" x="309.605115" xlink:href="#mfe788a9831" y="348.478125"/>
      </g>
     </g>
     <g id="text_39">
      <text style="font-family:DejaVu Sans;font-size:10px;font-style:normal;font-weight:normal;text-anchor:middle;" transform="rotate(-0, 309.605115, 363.076562)" x="309.605115" y="363.076562">50</text>
     </g>
    </g>
    <g id="xtick_14">
     <g id="line2d_54">
      <path clip-path="url(#p7eb42b5e4b)" d="M 344.541253 348.478125 
L 344.541253 200.22358 
" style="fill:none;stroke:#b0b0b0;stroke-linecap:square;stroke-width:0.8;"/>
     </g>
     <g id="line2d_55">
      <g>
       <use style="stroke:#000000;stroke-width:0.8;" x="344.541253" xlink:href="#mfe788a9831" y="348.478125"/>
      </g>
     </g>
     <g id="text_40">
      <text style="font-family:DejaVu Sans;font-size:10px;font-style:normal;font-weight:normal;text-anchor:middle;" transform="rotate(-0, 344.541253, 363.076562)" x="344.541253" y="363.076562">75</text>
     </g>
    </g>
    <g id="xtick_15">
     <g id="line2d_56">
      <path clip-path="url(#p7eb42b5e4b)" d="M 379.477391 348.478125 
L 379.477391 200.22358 
" style="fill:none;stroke:#b0b0b0;stroke-linecap:square;stroke-width:0.8;"/>
     </g>
     <g id="line2d_57">
      <g>
       <use style="stroke:#000000;stroke-width:0.8;" x="379.477391" xlink:href="#mfe788a9831" y="348.478125"/>
      </g>
     </g>
     <g id="text_41">
      <text style="font-family:DejaVu Sans;font-size:10px;font-style:normal;font-weight:normal;text-anchor:middle;" transform="rotate(-0, 379.477391, 363.076562)" x="379.477391" y="363.076562">100</text>
     </g>
    </g>
    <g id="text_42">
     <text style="font-family:DejaVu Sans;font-size:10px;font-style:normal;font-weight:normal;text-anchor:middle;" transform="rotate(-0, 308.906392, 376.754687)" x="308.906392" y="376.754687">Iter #</text>
    </g>
   </g>
   <g id="matplotlib.axis_8">
    <g id="ytick_16">
     <g id="line2d_58">
      <path clip-path="url(#p7eb42b5e4b)" d="M 232.815483 342.757809 
L 384.997301 342.757809 
" style="fill:none;stroke:#b0b0b0;stroke-linecap:square;stroke-width:0.8;"/>
     </g>
     <g id="line2d_59">
      <g>
       <use style="stroke:#000000;stroke-width:0.8;" x="232.815483" xlink:href="#m04e79eb1f0" y="342.757809"/>
      </g>
     </g>
     <g id="text_43">
      <text style="font-family:DejaVu Sans;font-size:10px;font-style:normal;font-weight:normal;text-anchor:end;" transform="rotate(-0, 225.815483, 346.557027)" x="225.815483" y="346.557027">0.100</text>
     </g>
    </g>
    <g id="ytick_17">
     <g id="line2d_60">
      <path clip-path="url(#p7eb42b5e4b)" d="M 232.815483 301.991296 
L 384.997301 301.991296 
" style="fill:none;stroke:#b0b0b0;stroke-linecap:square;stroke-width:0.8;"/>
     </g>
     <g id="line2d_61">
      <g>
       <use style="stroke:#000000;stroke-width:0.8;" x="232.815483" xlink:href="#m04e79eb1f0" y="301.991296"/>
      </g>
     </g>
     <g id="text_44">
      <text style="font-family:DejaVu Sans;font-size:10px;font-style:normal;font-weight:normal;text-anchor:end;" transform="rotate(-0, 225.815483, 305.790514)" x="225.815483" y="305.790514">0.105</text>
     </g>
    </g>
    <g id="ytick_18">
     <g id="line2d_62">
      <path clip-path="url(#p7eb42b5e4b)" d="M 232.815483 261.224782 
L 384.997301 261.224782 
" style="fill:none;stroke:#b0b0b0;stroke-linecap:square;stroke-width:0.8;"/>
     </g>
     <g id="line2d_63">
      <g>
       <use style="stroke:#000000;stroke-width:0.8;" x="232.815483" xlink:href="#m04e79eb1f0" y="261.224782"/>
      </g>
     </g>
     <g id="text_45">
      <text style="font-family:DejaVu Sans;font-size:10px;font-style:normal;font-weight:normal;text-anchor:end;" transform="rotate(-0, 225.815483, 265.024001)" x="225.815483" y="265.024001">0.110</text>
     </g>
    </g>
    <g id="ytick_19">
     <g id="line2d_64">
      <path clip-path="url(#p7eb42b5e4b)" d="M 232.815483 220.458269 
L 384.997301 220.458269 
" style="fill:none;stroke:#b0b0b0;stroke-linecap:square;stroke-width:0.8;"/>
     </g>
     <g id="line2d_65">
      <g>
       <use style="stroke:#000000;stroke-width:0.8;" x="232.815483" xlink:href="#m04e79eb1f0" y="220.458269"/>
      </g>
     </g>
     <g id="text_46">
      <text style="font-family:DejaVu Sans;font-size:10px;font-style:normal;font-weight:normal;text-anchor:end;" transform="rotate(-0, 225.815483, 224.257488)" x="225.815483" y="224.257488">0.115</text>
     </g>
    </g>
   </g>
   <g id="line2d_66">
    <path clip-path="url(#p7eb42b5e4b)" d="M 239.732838 341.739282 
L 241.130284 340.328121 
L 242.527729 339.206626 
L 243.925175 337.860154 
L 245.32262 335.781926 
L 246.720066 334.602488 
L 248.117512 333.452145 
L 249.514957 331.959335 
L 250.912403 331.339567 
L 252.309848 329.518345 
L 253.707294 327.916091 
L 255.104739 327.095324 
L 256.502185 325.296953 
L 257.89963 324.144301 
L 259.297076 322.333683 
L 260.694521 321.366934 
L 262.091967 319.769159 
L 263.489412 317.987262 
L 264.886858 317.011377 
L 266.284303 315.680258 
L 267.681749 314.255912 
L 269.079194 313.215487 
L 270.47664 312.081259 
L 271.874086 310.575892 
L 273.271531 308.645011 
L 274.668977 307.595036 
L 276.066422 306.688058 
L 277.463868 304.873487 
L 278.861313 303.811028 
L 280.258759 302.456937 
L 281.656204 301.187505 
L 283.05365 299.607866 
L 284.451095 298.426062 
L 285.848541 296.503464 
L 287.245986 295.038362 
L 288.643432 294.019154 
L 290.040877 292.362428 
L 291.438323 291.62367 
L 292.835768 290.098257 
L 294.233214 289.055774 
L 295.63066 287.46003 
L 297.028105 286.310891 
L 298.425551 284.806937 
L 299.822996 283.29911 
L 301.220442 282.31216 
L 302.617887 280.397257 
L 304.015333 278.6296 
L 305.412778 277.853725 
L 306.810224 276.682494 
L 308.207669 274.921292 
L 309.605115 273.905725 
L 311.00256 272.811723 
L 312.400006 270.451379 
L 313.797451 270.169457 
L 315.194897 268.006546 
L 316.592342 267.402171 
L 317.989788 265.264205 
L 319.387234 264.294938 
L 320.784679 262.56552 
L 322.182125 261.28334 
L 323.57957 260.270242 
L 324.977016 258.637898 
L 326.374461 257.592721 
L 327.771907 256.132599 
L 329.169352 254.662037 
L 330.566798 253.210317 
L 331.964243 251.51671 
L 333.361689 250.531361 
L 334.759134 248.794491 
L 336.15658 247.98628 
L 337.554025 246.990886 
L 338.951471 246.055616 
L 340.348916 243.925761 
L 341.746362 242.392327 
L 343.143808 241.348983 
L 344.541253 239.837588 
L 345.938699 238.470349 
L 347.336144 237.026016 
L 348.73359 235.687288 
L 350.131035 234.343711 
L 351.528481 233.225348 
L 352.925926 231.338704 
L 354.323372 231.119593 
L 355.720817 229.323828 
L 357.118263 227.311886 
L 358.515708 225.968368 
L 359.913154 224.663104 
L 361.310599 222.695297 
L 362.708045 222.296336 
L 364.10549 220.910355 
L 365.502936 219.687213 
L 366.900382 217.896315 
L 368.297827 216.254562 
L 369.695273 215.026196 
L 371.092718 213.923556 
L 372.490164 212.932751 
L 373.887609 210.851843 
L 375.285055 210.561696 
L 376.6825 208.542252 
L 378.079946 206.962423 
" style="fill:none;stroke:#1f77b4;stroke-linecap:square;stroke-width:1.5;"/>
   </g>
   <g id="patch_20">
    <path d="M 232.815483 348.478125 
L 232.815483 200.22358 
" style="fill:none;stroke:#000000;stroke-linecap:square;stroke-linejoin:miter;stroke-width:0.8;"/>
   </g>
   <g id="patch_21">
    <path d="M 384.997301 348.478125 
L 384.997301 200.22358 
" style="fill:none;stroke:#000000;stroke-linecap:square;stroke-linejoin:miter;stroke-width:0.8;"/>
   </g>
   <g id="patch_22">
    <path d="M 232.815483 348.478125 
L 384.997301 348.478125 
" style="fill:none;stroke:#000000;stroke-linecap:square;stroke-linejoin:miter;stroke-width:0.8;"/>
   </g>
   <g id="patch_23">
    <path d="M 232.815483 200.22358 
L 384.997301 200.22358 
" style="fill:none;stroke:#000000;stroke-linecap:square;stroke-linejoin:miter;stroke-width:0.8;"/>
   </g>
  </g>
 </g>
 <defs>
  <clipPath id="pc25e6a43b7">
   <rect height="148.254545" width="148.254545" x="52.160938" y="22.318125"/>
  </clipPath>
  <clipPath id="p8f1dc8651a">
   <rect height="148.254545" width="148.254545" x="234.779119" y="22.318125"/>
  </clipPath>
  <clipPath id="p72789b503b">
   <rect height="148.254545" width="152.181818" x="50.197301" y="200.22358"/>
  </clipPath>
  <clipPath id="p7eb42b5e4b">
   <rect height="148.254545" width="152.181818" x="232.815483" y="200.22358"/>
  </clipPath>
 </defs>
</svg>
