<?xml version="1.0" encoding="UTF-8" standalone="no"?>
<!DOCTYPE svg PUBLIC "-//W3C//DTD SVG 1.1//EN"
 "http://www.w3.org/Graphics/SVG/1.1/DTD/svg11.dtd">
<!-- Generated by graphviz version 8.0.5 (20230430.1635)
 -->
<!-- Title: sigma Pages: 1 -->
<svg width="311pt" height="27pt"
 viewBox="0.00 0.00 310.50 27.25" xmlns="http://www.w3.org/2000/svg" xmlns:xlink="http://www.w3.org/1999/xlink">
<g id="graph0" class="graph" transform="scale(1 1) rotate(0) translate(4 23.25)">
<title>sigma</title>
<!-- Node1 -->
<g id="Node000001" class="node">
<title>Node1</title>
<g id="a_Node000001"><a xlink:title="sum of squares of factors of numbers from 1 thru N">
<polygon fill="#999999" stroke="#666666" points="42.25,-19.25 0,-19.25 0,0 42.25,0 42.25,-19.25"/>
<text text-anchor="middle" x="21.12" y="-5.75" font-family="Helvetica,sans-Serif" font-size="10.00">sigma</text>
</a>
</g>
</g>
<!-- Node2 -->
<g id="Node000002" class="node">
<title>Node2</title>
<g id="a_Node000002"><a xlink:href="../../d4/d83/problem__401_2sol1_8c.html#a236548478af932f1115a71f601a68788" target="_top" xlink:title="compute sum of squares of all integer factors of a number">
<polygon fill="white" stroke="#666666" points="125.75,-19.25 78.25,-19.25 78.25,0 125.75,0 125.75,-19.25"/>
<text text-anchor="middle" x="102" y="-5.75" font-family="Helvetica,sans-Serif" font-size="10.00">sigma2</text>
</a>
</g>
</g>
<!-- Node1&#45;&gt;Node2 -->
<g id="edge1_Node000001_Node000002" class="edge">
<title>Node1&#45;&gt;Node2</title>
<g id="a_edge1_Node000001_Node000002"><a xlink:title=" ">
<path fill="none" stroke="#63b8ff" d="M42.44,-9.62C49.99,-9.62 58.78,-9.62 67.22,-9.62"/>
<polygon fill="#63b8ff" stroke="#63b8ff" points="66.97,-13.13 76.97,-9.62 66.97,-6.13 66.97,-13.13"/>
</a>
</g>
</g>
<!-- Node3 -->
<g id="Node000003" class="node">
<title>Node3</title>
<g id="a_Node000003"><a xlink:href="../../d4/d83/problem__401_2sol1_8c.html#a7380e14d595d560007b02ce516b6b215" target="_top" xlink:title="Get all integer divisors of a number.">
<polygon fill="white" stroke="#666666" points="230.25,-19.25 161.75,-19.25 161.75,0 230.25,0 230.25,-19.25"/>
<text text-anchor="middle" x="196" y="-5.75" font-family="Helvetica,sans-Serif" font-size="10.00">get_divisors</text>
</a>
</g>
</g>
<!-- Node2&#45;&gt;Node3 -->
<g id="edge2_Node000002_Node000003" class="edge">
<title>Node2&#45;&gt;Node3</title>
<g id="a_edge2_Node000002_Node000003"><a xlink:title=" ">
<path fill="none" stroke="#63b8ff" d="M126.22,-9.62C133.62,-9.62 142.07,-9.62 150.46,-9.62"/>
<polygon fill="#63b8ff" stroke="#63b8ff" points="150.36,-13.13 160.36,-9.62 150.36,-6.13 150.36,-13.13"/>
</a>
</g>
</g>
<!-- Node4 -->
<g id="Node000004" class="node">
<title>Node4</title>
<g id="a_Node000004"><a xlink:href="../../d4/d83/problem__401_2sol1_8c.html#a4441a6d27134cf3aed05727800d99456" target="_top" xlink:title="Check if a number is present in given array.">
<polygon fill="white" stroke="#666666" points="302.5,-19.25 266.25,-19.25 266.25,0 302.5,0 302.5,-19.25"/>
<text text-anchor="middle" x="284.38" y="-5.75" font-family="Helvetica,sans-Serif" font-size="10.00">is_in</text>
</a>
</g>
</g>
<!-- Node3&#45;&gt;Node4 -->
<g id="edge3_Node000003_Node000004" class="edge">
<title>Node3&#45;&gt;Node4</title>
<g id="a_edge3_Node000003_Node000004"><a xlink:title=" ">
<path fill="none" stroke="#63b8ff" d="M230.64,-9.62C238.79,-9.62 247.41,-9.62 255.28,-9.62"/>
<polygon fill="#63b8ff" stroke="#63b8ff" points="255.1,-13.13 265.1,-9.62 255.1,-6.13 255.1,-13.13"/>
</a>
</g>
</g>
</g>
</svg>
