<?xml version="1.0" encoding="UTF-8" standalone="no"?>
<!DOCTYPE svg PUBLIC "-//W3C//DTD SVG 1.1//EN"
 "http://www.w3.org/Graphics/SVG/1.1/DTD/svg11.dtd">
<!-- Generated by graphviz version 8.0.2 (20230410.1723)
 -->
<!-- Title: main Pages: 1 -->
<svg width="387pt" height="27pt"
 viewBox="0.00 0.00 387.00 27.00" xmlns="http://www.w3.org/2000/svg" xmlns:xlink="http://www.w3.org/1999/xlink">
<g id="graph0" class="graph" transform="scale(1 1) rotate(0) translate(4 23)">
<title>main</title>
<!-- Node1 -->
<g id="node1" class="node">
<title>Node1</title>
<g id="a_node1"><a xlink:title="Main function.">
<polygon fill="#999999" stroke="#666666" points="38,-19 0,-19 0,0 38,0 38,-19"/>
<text text-anchor="middle" x="19" y="-7" font-family="Helvetica,sans-Serif" font-size="10.00">main</text>
</a>
</g>
</g>
<!-- Node2 -->
<g id="node2" class="node">
<title>Node2</title>
<g id="a_node2"><a xlink:href="../../d4/d83/problem__401_2sol1_8c.html#aaf964739be92adc2f500e7da11e3f6be" target="_top" xlink:title="sum of squares of factors of numbers from 1 thru N">
<polygon fill="white" stroke="#666666" points="117,-19 74,-19 74,0 117,0 117,-19"/>
<text text-anchor="middle" x="95.5" y="-7" font-family="Helvetica,sans-Serif" font-size="10.00">sigma</text>
</a>
</g>
</g>
<!-- Node1&#45;&gt;Node2 -->
<g id="edge1" class="edge">
<title>Node1&#45;&gt;Node2</title>
<path fill="none" stroke="#63b8ff" d="M38.42,-9.5C45.76,-9.5 54.44,-9.5 62.74,-9.5"/>
<polygon fill="#63b8ff" stroke="#63b8ff" points="62.67,-13 72.67,-9.5 62.67,-6 62.67,-13"/>
</g>
<!-- Node3 -->
<g id="node3" class="node">
<title>Node3</title>
<g id="a_node3"><a xlink:href="../../d4/d83/problem__401_2sol1_8c.html#a236548478af932f1115a71f601a68788" target="_top" xlink:title="compute sum of squares of all integer factors of a number">
<polygon fill="white" stroke="#666666" points="201,-19 153,-19 153,0 201,0 201,-19"/>
<text text-anchor="middle" x="177" y="-7" font-family="Helvetica,sans-Serif" font-size="10.00">sigma2</text>
</a>
</g>
</g>
<!-- Node2&#45;&gt;Node3 -->
<g id="edge2" class="edge">
<title>Node2&#45;&gt;Node3</title>
<path fill="none" stroke="#63b8ff" d="M117.39,-9.5C124.85,-9.5 133.47,-9.5 141.76,-9.5"/>
<polygon fill="#63b8ff" stroke="#63b8ff" points="141.73,-13 151.73,-9.5 141.73,-6 141.73,-13"/>
</g>
<!-- Node4 -->
<g id="node4" class="node">
<title>Node4</title>
<g id="a_node4"><a xlink:href="../../d4/d83/problem__401_2sol1_8c.html#a7380e14d595d560007b02ce516b6b215" target="_top" xlink:title="Get all integer divisors of a number.">
<polygon fill="white" stroke="#666666" points="306,-19 237,-19 237,0 306,0 306,-19"/>
<text text-anchor="middle" x="271.5" y="-7" font-family="Helvetica,sans-Serif" font-size="10.00">get_divisors</text>
</a>
</g>
</g>
<!-- Node3&#45;&gt;Node4 -->
<g id="edge3" class="edge">
<title>Node3&#45;&gt;Node4</title>
<path fill="none" stroke="#63b8ff" d="M201.34,-9.5C208.78,-9.5 217.29,-9.5 225.72,-9.5"/>
<polygon fill="#63b8ff" stroke="#63b8ff" points="225.68,-13 235.68,-9.5 225.68,-6 225.68,-13"/>
</g>
<!-- Node5 -->
<g id="node5" class="node">
<title>Node5</title>
<g id="a_node5"><a xlink:href="../../d4/d83/problem__401_2sol1_8c.html#a4441a6d27134cf3aed05727800d99456" target="_top" xlink:title="Check if a number is present in given array.">
<polygon fill="white" stroke="#666666" points="379,-19 342,-19 342,0 379,0 379,-19"/>
<text text-anchor="middle" x="360.5" y="-7" font-family="Helvetica,sans-Serif" font-size="10.00">is_in</text>
</a>
</g>
</g>
<!-- Node4&#45;&gt;Node5 -->
<g id="edge4" class="edge">
<title>Node4&#45;&gt;Node5</title>
<path fill="none" stroke="#63b8ff" d="M306.39,-9.5C314.46,-9.5 323.01,-9.5 330.83,-9.5"/>
<polygon fill="#63b8ff" stroke="#63b8ff" points="330.62,-13 340.62,-9.5 330.62,-6 330.62,-13"/>
</g>
</g>
</svg>
