<?xml version="1.0" encoding="UTF-8" standalone="no"?>
<!DOCTYPE svg PUBLIC "-//W3C//DTD SVG 1.1//EN"
 "http://www.w3.org/Graphics/SVG/1.1/DTD/svg11.dtd">
<!-- Generated by graphviz version 7.0.6 (20230106.0513)
 -->
<!-- Title: sigma2 Pages: 1 -->
<svg width="234pt" height="27pt"
 viewBox="0.00 0.00 234.00 27.00" xmlns="http://www.w3.org/2000/svg" xmlns:xlink="http://www.w3.org/1999/xlink">
<g id="graph0" class="graph" transform="scale(1 1) rotate(0) translate(4 23)">
<title>sigma2</title>
<!-- Node1 -->
<g id="node1" class="node">
<title>Node1</title>
<g id="a_node1"><a xlink:title="compute sum of squares of all integer factors of a number">
<polygon fill="#999999" stroke="#666666" points="48,-19 0,-19 0,0 48,0 48,-19"/>
<text text-anchor="middle" x="24" y="-7" font-family="Helvetica,sans-Serif" font-size="10.00">sigma2</text>
</a>
</g>
</g>
<!-- Node2 -->
<g id="node2" class="node">
<title>Node2</title>
<g id="a_node2"><a xlink:href="../../d4/d83/problem__401_2sol1_8c.html#a7380e14d595d560007b02ce516b6b215" target="_top" xlink:title="Get all integer divisors of a number.">
<polygon fill="white" stroke="#666666" points="153,-19 84,-19 84,0 153,0 153,-19"/>
<text text-anchor="middle" x="118.5" y="-7" font-family="Helvetica,sans-Serif" font-size="10.00">get_divisors</text>
</a>
</g>
</g>
<!-- Node1&#45;&gt;Node2 -->
<g id="edge1" class="edge">
<title>Node1&#45;&gt;Node2</title>
<path fill="none" stroke="#63b8ff" d="M48.34,-9.5C55.7,-9.5 64.09,-9.5 72.44,-9.5"/>
<polygon fill="#63b8ff" stroke="#63b8ff" points="72.17,-13 82.17,-9.5 72.17,-6 72.17,-13"/>
</g>
<!-- Node3 -->
<g id="node3" class="node">
<title>Node3</title>
<g id="a_node3"><a xlink:href="../../d4/d83/problem__401_2sol1_8c.html#a4441a6d27134cf3aed05727800d99456" target="_top" xlink:title="Check if a number is present in given array.">
<polygon fill="white" stroke="#666666" points="226,-19 189,-19 189,0 226,0 226,-19"/>
<text text-anchor="middle" x="207.5" y="-7" font-family="Helvetica,sans-Serif" font-size="10.00">is_in</text>
</a>
</g>
</g>
<!-- Node2&#45;&gt;Node3 -->
<g id="edge2" class="edge">
<title>Node2&#45;&gt;Node3</title>
<path fill="none" stroke="#63b8ff" d="M153.39,-9.5C161.28,-9.5 169.61,-9.5 177.28,-9.5"/>
<polygon fill="#63b8ff" stroke="#63b8ff" points="177.11,-13 187.11,-9.5 177.11,-6 177.11,-13"/>
</g>
</g>
</svg>
