<?xml version="1.0" encoding="UTF-8" standalone="no"?>
<!DOCTYPE svg PUBLIC "-//W3C//DTD SVG 1.1//EN"
 "http://www.w3.org/Graphics/SVG/1.1/DTD/svg11.dtd">
<!-- Generated by graphviz version 8.0.2 (20230410.1723)
 -->
<!-- Title: sigma Pages: 1 -->
<svg width="313pt" height="27pt"
 viewBox="0.00 0.00 313.00 27.00" xmlns="http://www.w3.org/2000/svg" xmlns:xlink="http://www.w3.org/1999/xlink">
<g id="graph0" class="graph" transform="scale(1 1) rotate(0) translate(4 23)">
<title>sigma</title>
<!-- Node1 -->
<g id="node1" class="node">
<title>Node1</title>
<g id="a_node1"><a xlink:title="sum of squares of factors of numbers from 1 thru N">
<polygon fill="#999999" stroke="#666666" points="43,-19 0,-19 0,0 43,0 43,-19"/>
<text text-anchor="middle" x="21.5" y="-7" font-family="Helvetica,sans-Serif" font-size="10.00">sigma</text>
</a>
</g>
</g>
<!-- Node2 -->
<g id="node2" class="node">
<title>Node2</title>
<g id="a_node2"><a xlink:href="../../d4/d83/problem__401_2sol1_8c.html#a236548478af932f1115a71f601a68788" target="_top" xlink:title="compute sum of squares of all integer factors of a number">
<polygon fill="white" stroke="#666666" points="127,-19 79,-19 79,0 127,0 127,-19"/>
<text text-anchor="middle" x="103" y="-7" font-family="Helvetica,sans-Serif" font-size="10.00">sigma2</text>
</a>
</g>
</g>
<!-- Node1&#45;&gt;Node2 -->
<g id="edge1" class="edge">
<title>Node1&#45;&gt;Node2</title>
<path fill="none" stroke="#63b8ff" d="M43.39,-9.5C50.85,-9.5 59.47,-9.5 67.76,-9.5"/>
<polygon fill="#63b8ff" stroke="#63b8ff" points="67.73,-13 77.73,-9.5 67.73,-6 67.73,-13"/>
</g>
<!-- Node3 -->
<g id="node3" class="node">
<title>Node3</title>
<g id="a_node3"><a xlink:href="../../d4/d83/problem__401_2sol1_8c.html#a7380e14d595d560007b02ce516b6b215" target="_top" xlink:title="Get all integer divisors of a number.">
<polygon fill="white" stroke="#666666" points="232,-19 163,-19 163,0 232,0 232,-19"/>
<text text-anchor="middle" x="197.5" y="-7" font-family="Helvetica,sans-Serif" font-size="10.00">get_divisors</text>
</a>
</g>
</g>
<!-- Node2&#45;&gt;Node3 -->
<g id="edge2" class="edge">
<title>Node2&#45;&gt;Node3</title>
<path fill="none" stroke="#63b8ff" d="M127.34,-9.5C134.78,-9.5 143.29,-9.5 151.72,-9.5"/>
<polygon fill="#63b8ff" stroke="#63b8ff" points="151.68,-13 161.68,-9.5 151.68,-6 151.68,-13"/>
</g>
<!-- Node4 -->
<g id="node4" class="node">
<title>Node4</title>
<g id="a_node4"><a xlink:href="../../d4/d83/problem__401_2sol1_8c.html#a4441a6d27134cf3aed05727800d99456" target="_top" xlink:title="Check if a number is present in given array.">
<polygon fill="white" stroke="#666666" points="305,-19 268,-19 268,0 305,0 305,-19"/>
<text text-anchor="middle" x="286.5" y="-7" font-family="Helvetica,sans-Serif" font-size="10.00">is_in</text>
</a>
</g>
</g>
<!-- Node3&#45;&gt;Node4 -->
<g id="edge3" class="edge">
<title>Node3&#45;&gt;Node4</title>
<path fill="none" stroke="#63b8ff" d="M232.39,-9.5C240.46,-9.5 249.01,-9.5 256.83,-9.5"/>
<polygon fill="#63b8ff" stroke="#63b8ff" points="256.62,-13 266.62,-9.5 256.62,-6 256.62,-13"/>
</g>
</g>
</svg>
