<?xml version="1.0" encoding="UTF-8" standalone="no"?>
<!DOCTYPE svg PUBLIC "-//W3C//DTD SVG 1.1//EN"
 "http://www.w3.org/Graphics/SVG/1.1/DTD/svg11.dtd">
<!-- Generated by graphviz version 2.49.3 (20211023.0002)
 -->
<!-- Title: main Pages: 1 -->
<svg width="389pt" height="28pt"
 viewBox="0.00 0.00 389.00 28.00" xmlns="http://www.w3.org/2000/svg" xmlns:xlink="http://www.w3.org/1999/xlink">
<g id="graph0" class="graph" transform="scale(1 1) rotate(0) translate(4 24)">
<title>main</title>
<polygon fill="white" stroke="transparent" points="-4,4 -4,-24 385,-24 385,4 -4,4"/>
<!-- Node1 -->
<g id="node1" class="node">
<title>Node1</title>
<g id="a_node1"><a xlink:title="Main function.">
<polygon fill="#bfbfbf" stroke="black" points="0,-0.5 0,-19.5 38,-19.5 38,-0.5 0,-0.5"/>
<text text-anchor="middle" x="19" y="-7.5" font-family="Helvetica,sans-Serif" font-size="10.00">main</text>
</a>
</g>
</g>
<!-- Node2 -->
<g id="node2" class="node">
<title>Node2</title>
<g id="a_node2"><a xlink:href="../../d4/d83/problem__401_2sol1_8c.html#aaf964739be92adc2f500e7da11e3f6be" target="_top" xlink:title="sum of squares of factors of numbers from 1 thru N">
<polygon fill="white" stroke="black" points="74,-0.5 74,-19.5 117,-19.5 117,-0.5 74,-0.5"/>
<text text-anchor="middle" x="95.5" y="-7.5" font-family="Helvetica,sans-Serif" font-size="10.00">sigma</text>
</a>
</g>
</g>
<!-- Node1&#45;&gt;Node2 -->
<g id="edge1" class="edge">
<title>Node1&#45;&gt;Node2</title>
<path fill="none" stroke="midnightblue" d="M38.03,-10C45.69,-10 54.83,-10 63.51,-10"/>
<polygon fill="midnightblue" stroke="midnightblue" points="63.73,-13.5 73.73,-10 63.73,-6.5 63.73,-13.5"/>
</g>
<!-- Node3 -->
<g id="node3" class="node">
<title>Node3</title>
<g id="a_node3"><a xlink:href="../../d4/d83/problem__401_2sol1_8c.html#a236548478af932f1115a71f601a68788" target="_top" xlink:title="compute sum of squares of all integer factors of a number">
<polygon fill="white" stroke="black" points="153,-0.5 153,-19.5 202,-19.5 202,-0.5 153,-0.5"/>
<text text-anchor="middle" x="177.5" y="-7.5" font-family="Helvetica,sans-Serif" font-size="10.00">sigma2</text>
</a>
</g>
</g>
<!-- Node2&#45;&gt;Node3 -->
<g id="edge2" class="edge">
<title>Node2&#45;&gt;Node3</title>
<path fill="none" stroke="midnightblue" d="M117.1,-10C124.87,-10 133.92,-10 142.59,-10"/>
<polygon fill="midnightblue" stroke="midnightblue" points="142.85,-13.5 152.85,-10 142.85,-6.5 142.85,-13.5"/>
</g>
<!-- Node4 -->
<g id="node4" class="node">
<title>Node4</title>
<g id="a_node4"><a xlink:href="../../d4/d83/problem__401_2sol1_8c.html#a7380e14d595d560007b02ce516b6b215" target="_top" xlink:title="Get all integer divisors of a number.">
<polygon fill="white" stroke="black" points="238,-0.5 238,-19.5 308,-19.5 308,-0.5 238,-0.5"/>
<text text-anchor="middle" x="273" y="-7.5" font-family="Helvetica,sans-Serif" font-size="10.00">get_divisors</text>
</a>
</g>
</g>
<!-- Node3&#45;&gt;Node4 -->
<g id="edge3" class="edge">
<title>Node3&#45;&gt;Node4</title>
<path fill="none" stroke="midnightblue" d="M202.09,-10C209.87,-10 218.79,-10 227.6,-10"/>
<polygon fill="midnightblue" stroke="midnightblue" points="227.81,-13.5 237.81,-10 227.81,-6.5 227.81,-13.5"/>
</g>
<!-- Node5 -->
<g id="node5" class="node">
<title>Node5</title>
<g id="a_node5"><a xlink:href="../../d4/d83/problem__401_2sol1_8c.html#a4441a6d27134cf3aed05727800d99456" target="_top" xlink:title="Check if a number is present in given array.">
<polygon fill="white" stroke="black" points="344,-0.5 344,-19.5 381,-19.5 381,-0.5 344,-0.5"/>
<text text-anchor="middle" x="362.5" y="-7.5" font-family="Helvetica,sans-Serif" font-size="10.00">is_in</text>
</a>
</g>
</g>
<!-- Node4&#45;&gt;Node5 -->
<g id="edge4" class="edge">
<title>Node4&#45;&gt;Node5</title>
<path fill="none" stroke="midnightblue" d="M308.08,-10C316.49,-10 325.4,-10 333.48,-10"/>
<polygon fill="midnightblue" stroke="midnightblue" points="333.52,-13.5 343.52,-10 333.52,-6.5 333.52,-13.5"/>
</g>
</g>
</svg>
