<?xml version="1.0" encoding="UTF-8" standalone="no"?>
<!DOCTYPE svg PUBLIC "-//W3C//DTD SVG 1.1//EN"
 "http://www.w3.org/Graphics/SVG/1.1/DTD/svg11.dtd">
<!-- Generated by graphviz version 8.0.2 (20230410.1723)
 -->
<!-- Title: forward_euler Pages: 1 -->
<svg width="305pt" height="27pt"
 viewBox="0.00 0.00 305.00 27.00" xmlns="http://www.w3.org/2000/svg" xmlns:xlink="http://www.w3.org/1999/xlink">
<g id="graph0" class="graph" transform="scale(1 1) rotate(0) translate(4 23)">
<title>forward_euler</title>
<!-- Node1 -->
<g id="node1" class="node">
<title>Node1</title>
<g id="a_node1"><a xlink:title="Compute approximation using the forward&#45;Euler method in the given limits.">
<polygon fill="#999999" stroke="#666666" points="75,-19 0,-19 0,0 75,0 75,-19"/>
<text text-anchor="middle" x="37.5" y="-7" font-family="Helvetica,sans-Serif" font-size="10.00">forward_euler</text>
</a>
</g>
</g>
<!-- Node2 -->
<g id="node2" class="node">
<title>Node2</title>
<g id="a_node2"><a xlink:href="../../d4/d07/ode__forward__euler_8c.html#ae6c9413953c8d9d4bc9e374b29586350" target="_top" xlink:title="Compute next step approximation using the forward&#45;Euler method.">
<polygon fill="white" stroke="#666666" points="210,-19 111,-19 111,0 210,0 210,-19"/>
<text text-anchor="middle" x="160.5" y="-7" font-family="Helvetica,sans-Serif" font-size="10.00">forward_euler_step</text>
</a>
</g>
</g>
<!-- Node1&#45;&gt;Node2 -->
<g id="edge1" class="edge">
<title>Node1&#45;&gt;Node2</title>
<path fill="none" stroke="#63b8ff" d="M75.46,-9.5C83.19,-9.5 91.53,-9.5 99.85,-9.5"/>
<polygon fill="#63b8ff" stroke="#63b8ff" points="99.72,-13 109.72,-9.5 99.72,-6 99.72,-13"/>
</g>
<!-- Node3 -->
<g id="node3" class="node">
<title>Node3</title>
<g id="a_node3"><a xlink:href="../../d4/d07/ode__forward__euler_8c.html#a97075291390a68c262ed66e157a57eb4" target="_top" xlink:title="Problem statement for a system with first&#45;order differential equations.">
<polygon fill="white" stroke="#666666" points="297,-19 246,-19 246,0 297,0 297,-19"/>
<text text-anchor="middle" x="271.5" y="-7" font-family="Helvetica,sans-Serif" font-size="10.00">problem</text>
</a>
</g>
</g>
<!-- Node2&#45;&gt;Node3 -->
<g id="edge2" class="edge">
<title>Node2&#45;&gt;Node3</title>
<path fill="none" stroke="#63b8ff" d="M210.26,-9.5C218.49,-9.5 226.89,-9.5 234.71,-9.5"/>
<polygon fill="#63b8ff" stroke="#63b8ff" points="234.66,-13 244.66,-9.5 234.66,-6 234.66,-13"/>
</g>
</g>
</svg>
