<?xml version="1.0" encoding="UTF-8" standalone="no"?>
<!DOCTYPE svg PUBLIC "-//W3C//DTD SVG 1.1//EN"
 "http://www.w3.org/Graphics/SVG/1.1/DTD/svg11.dtd">
<!-- Generated by graphviz version 8.0.5 (20230430.1635)
 -->
<!-- Title: forward_euler Pages: 1 -->
<svg width="304pt" height="27pt"
 viewBox="0.00 0.00 303.50 27.25" xmlns="http://www.w3.org/2000/svg" xmlns:xlink="http://www.w3.org/1999/xlink">
<g id="graph0" class="graph" transform="scale(1 1) rotate(0) translate(4 23.25)">
<title>forward_euler</title>
<!-- Node1 -->
<g id="Node000001" class="node">
<title>Node1</title>
<g id="a_Node000001"><a xlink:title="Compute approximation using the forward&#45;Euler method in the given limits.">
<polygon fill="#999999" stroke="#666666" points="74.5,-19.25 0,-19.25 0,0 74.5,0 74.5,-19.25"/>
<text text-anchor="middle" x="37.25" y="-5.75" font-family="Helvetica,sans-Serif" font-size="10.00">forward_euler</text>
</a>
</g>
</g>
<!-- Node2 -->
<g id="Node000002" class="node">
<title>Node2</title>
<g id="a_Node000002"><a xlink:href="../../d4/d07/ode__forward__euler_8c.html#ae6c9413953c8d9d4bc9e374b29586350" target="_top" xlink:title="Compute next step approximation using the forward&#45;Euler method.">
<polygon fill="white" stroke="#666666" points="209,-19.25 110.5,-19.25 110.5,0 209,0 209,-19.25"/>
<text text-anchor="middle" x="159.75" y="-5.75" font-family="Helvetica,sans-Serif" font-size="10.00">forward_euler_step</text>
</a>
</g>
</g>
<!-- Node1&#45;&gt;Node2 -->
<g id="edge1_Node000001_Node000002" class="edge">
<title>Node1&#45;&gt;Node2</title>
<g id="a_edge1_Node000001_Node000002"><a xlink:title=" ">
<path fill="none" stroke="#63b8ff" d="M74.73,-9.62C82.53,-9.62 90.97,-9.62 99.38,-9.62"/>
<polygon fill="#63b8ff" stroke="#63b8ff" points="99.37,-13.13 109.37,-9.62 99.37,-6.13 99.37,-13.13"/>
</a>
</g>
</g>
<!-- Node3 -->
<g id="Node000003" class="node">
<title>Node3</title>
<g id="a_Node000003"><a xlink:href="../../d4/d07/ode__forward__euler_8c.html#a97075291390a68c262ed66e157a57eb4" target="_top" xlink:title="Problem statement for a system with first&#45;order differential equations.">
<polygon fill="white" stroke="#666666" points="295.5,-19.25 245,-19.25 245,0 295.5,0 295.5,-19.25"/>
<text text-anchor="middle" x="270.25" y="-5.75" font-family="Helvetica,sans-Serif" font-size="10.00">problem</text>
</a>
</g>
</g>
<!-- Node2&#45;&gt;Node3 -->
<g id="edge2_Node000002_Node000003" class="edge">
<title>Node2&#45;&gt;Node3</title>
<g id="a_edge2_Node000002_Node000003"><a xlink:title=" ">
<path fill="none" stroke="#63b8ff" d="M209.29,-9.62C217.48,-9.62 225.84,-9.62 233.62,-9.62"/>
<polygon fill="#63b8ff" stroke="#63b8ff" points="233.52,-13.13 243.52,-9.62 233.52,-6.13 233.52,-13.13"/>
</a>
</g>
</g>
</g>
</svg>
