<?xml version="1.0" encoding="UTF-8" standalone="no"?>
<!DOCTYPE svg PUBLIC "-//W3C//DTD SVG 1.1//EN"
 "http://www.w3.org/Graphics/SVG/1.1/DTD/svg11.dtd">
<!-- Generated by graphviz version 8.0.5 (20230430.1635)
 -->
<!-- Title: main Pages: 1 -->
<svg width="381pt" height="64pt"
 viewBox="0.00 0.00 381.00 64.25" xmlns="http://www.w3.org/2000/svg" xmlns:xlink="http://www.w3.org/1999/xlink">

<svg id="main" version="1.1" xmlns="http://www.w3.org/2000/svg" xmlns:xlink="http://www.w3.org/1999/xlink" xml:space="preserve" onload="init(evt)">
<style type="text/css"><![CDATA[
.node, .edge {opacity: 0.7;}
.node.selected, .edge.selected {opacity: 1;}
.edge:hover path { stroke: red; }
.edge:hover polygon { stroke: red; fill: red; }
]]></style>
<script type="application/ecmascript" xlink:href="../../svg.min.js"/>
<svg id="graph" class="graph">
<g id="graph0" class="graph" transform="scale(1 1) rotate(0) translate(4 60.25)">
<title>main</title>
<!-- Node1 -->
<g id="Node000001" class="node">
<title>Node1</title>
<g id="a_Node000001"><a xlink:title="Main Function.">
<polygon fill="#999999" stroke="#666666" points="37,-37.25 0,-37.25 0,-18 37,-18 37,-37.25"/>
<text text-anchor="middle" x="18.5" y="-23.75" font-family="Helvetica,sans-Serif" font-size="10.00">main</text>
</a>
</g>
</g>
<!-- Node2 -->
<g id="Node000002" class="node">
<title>Node2</title>
<g id="a_Node000002"><a xlink:href="../../d4/d07/ode__forward__euler_8c.html#a8caee977b26888d34040b122e0e28e3a" target="_top" xlink:title="Exact solution of the problem.">
<polygon fill="white" stroke="#666666" points="152,-56.25 73,-56.25 73,-37 152,-37 152,-56.25"/>
<text text-anchor="middle" x="112.5" y="-42.75" font-family="Helvetica,sans-Serif" font-size="10.00">exact_solution</text>
</a>
</g>
</g>
<!-- Node1&#45;&gt;Node2 -->
<g id="edge1_Node000001_Node000002" class="edge">
<title>Node1&#45;&gt;Node2</title>
<g id="a_edge1_Node000001_Node000002"><a xlink:title=" ">
<path fill="none" stroke="#63b8ff" d="M37.24,-31.29C44.52,-32.79 53.34,-34.61 62.33,-36.47"/>
<polygon fill="#63b8ff" stroke="#63b8ff" points="61.37,-40.05 71.87,-38.65 62.78,-33.2 61.37,-40.05"/>
</a>
</g>
</g>
<!-- Node3 -->
<g id="Node000003" class="node">
<title>Node3</title>
<g id="a_Node000003"><a xlink:href="../../d4/d07/ode__forward__euler_8c.html#aaf88ad8f9f7c39fc38f3f03d6fea9df9" target="_top" xlink:title="Compute approximation using the forward&#45;Euler method in the given limits.">
<polygon fill="white" stroke="#666666" points="149.75,-19.25 75.25,-19.25 75.25,0 149.75,0 149.75,-19.25"/>
<text text-anchor="middle" x="112.5" y="-5.75" font-family="Helvetica,sans-Serif" font-size="10.00">forward_euler</text>
</a>
</g>
</g>
<!-- Node1&#45;&gt;Node3 -->
<g id="edge2_Node000001_Node000003" class="edge">
<title>Node1&#45;&gt;Node3</title>
<g id="a_edge2_Node000001_Node000003"><a xlink:title=" ">
<path fill="none" stroke="#63b8ff" d="M37.24,-24.15C44.98,-22.64 54.46,-20.79 64.03,-18.91"/>
<polygon fill="#63b8ff" stroke="#63b8ff" points="64.63,-22.17 73.78,-16.81 63.29,-15.3 64.63,-22.17"/>
</a>
</g>
</g>
<!-- Node4 -->
<g id="Node000004" class="node">
<title>Node4</title>
<g id="a_Node000004"><a xlink:href="../../d4/d07/ode__forward__euler_8c.html#ae6c9413953c8d9d4bc9e374b29586350" target="_top" xlink:title="Compute next step approximation using the forward&#45;Euler method.">
<polygon fill="white" stroke="#666666" points="286.5,-19.25 188,-19.25 188,0 286.5,0 286.5,-19.25"/>
<text text-anchor="middle" x="237.25" y="-5.75" font-family="Helvetica,sans-Serif" font-size="10.00">forward_euler_step</text>
</a>
</g>
</g>
<!-- Node3&#45;&gt;Node4 -->
<g id="edge3_Node000003_Node000004" class="edge">
<title>Node3&#45;&gt;Node4</title>
<g id="a_edge3_Node000003_Node000004"><a xlink:title=" ">
<path fill="none" stroke="#63b8ff" d="M150,-9.62C158.53,-9.62 167.84,-9.62 177.08,-9.62"/>
<polygon fill="#63b8ff" stroke="#63b8ff" points="176.84,-13.13 186.84,-9.62 176.84,-6.13 176.84,-13.13"/>
</a>
</g>
</g>
<!-- Node5 -->
<g id="Node000005" class="node">
<title>Node5</title>
<g id="a_Node000005"><a xlink:href="../../d4/d07/ode__forward__euler_8c.html#a97075291390a68c262ed66e157a57eb4" target="_top" xlink:title="Problem statement for a system with first&#45;order differential equations.">
<polygon fill="white" stroke="#666666" points="373,-19.25 322.5,-19.25 322.5,0 373,0 373,-19.25"/>
<text text-anchor="middle" x="347.75" y="-5.75" font-family="Helvetica,sans-Serif" font-size="10.00">problem</text>
</a>
</g>
</g>
<!-- Node4&#45;&gt;Node5 -->
<g id="edge4_Node000004_Node000005" class="edge">
<title>Node4&#45;&gt;Node5</title>
<g id="a_edge4_Node000004_Node000005"><a xlink:title=" ">
<path fill="none" stroke="#63b8ff" d="M286.79,-9.62C294.98,-9.62 303.34,-9.62 311.12,-9.62"/>
<polygon fill="#63b8ff" stroke="#63b8ff" points="311.02,-13.13 321.02,-9.62 311.02,-6.13 311.02,-13.13"/>
</a>
</g>
</g>
</g>
</svg>
</svg>

<style type='text/css'>
<![CDATA[
[data-mouse-over-selected='false'] { opacity: 0.7; }
[data-mouse-over-selected='true']  { opacity: 1.0; }
]]>
</style>
<script type="application/ecmascript"><![CDATA[
document.addEventListener('DOMContentLoaded', (event) => {
  highlightEdges();
  highlightAdjacentNodes();
});
]]></script>
</svg>
