<?xml version="1.0" encoding="UTF-8" standalone="no"?>
<!DOCTYPE svg PUBLIC "-//W3C//DTD SVG 1.1//EN"
 "http://www.w3.org/Graphics/SVG/1.1/DTD/svg11.dtd">
<!-- Generated by graphviz version 3.0.0 (20220226.1711)
 -->
<!-- Title: main Pages: 1 -->
<svg width="384pt" height="66pt"
 viewBox="0.00 0.00 384.00 66.00" xmlns="http://www.w3.org/2000/svg" xmlns:xlink="http://www.w3.org/1999/xlink">
<g id="graph0" class="graph" transform="scale(1 1) rotate(0) translate(4 62)">
<title>main</title>
<polygon fill="white" stroke="transparent" points="-4,4 -4,-62 380,-62 380,4 -4,4"/>
<!-- Node1 -->
<g id="node1" class="node">
<title>Node1</title>
<g id="a_node1"><a xlink:title="Main Function.">
<polygon fill="#bfbfbf" stroke="black" points="0,-19.5 0,-38.5 38,-38.5 38,-19.5 0,-19.5"/>
<text text-anchor="middle" x="19" y="-26.5" font-family="Helvetica,sans-Serif" font-size="10.00">main</text>
</a>
</g>
</g>
<!-- Node2 -->
<g id="node2" class="node">
<title>Node2</title>
<g id="a_node2"><a xlink:href="../../d4/d07/ode__forward__euler_8c.html#a8caee977b26888d34040b122e0e28e3a" target="_top" xlink:title="Exact solution of the problem.">
<polygon fill="white" stroke="black" points="74,-38.5 74,-57.5 154,-57.5 154,-38.5 74,-38.5"/>
<text text-anchor="middle" x="114" y="-45.5" font-family="Helvetica,sans-Serif" font-size="10.00">exact_solution</text>
</a>
</g>
</g>
<!-- Node1&#45;&gt;Node2 -->
<g id="edge1" class="edge">
<title>Node1&#45;&gt;Node2</title>
<path fill="none" stroke="midnightblue" d="M38.37,-32.75C45.84,-34.28 54.85,-36.12 63.99,-37.99"/>
<polygon fill="midnightblue" stroke="midnightblue" points="63.4,-41.44 73.9,-40.01 64.8,-34.58 63.4,-41.44"/>
</g>
<!-- Node3 -->
<g id="node3" class="node">
<title>Node3</title>
<g id="a_node3"><a xlink:href="../../d4/d07/ode__forward__euler_8c.html#aaf88ad8f9f7c39fc38f3f03d6fea9df9" target="_top" xlink:title="Compute approximation using the forward&#45;Euler method in the given limits.">
<polygon fill="white" stroke="black" points="76.5,-0.5 76.5,-19.5 151.5,-19.5 151.5,-0.5 76.5,-0.5"/>
<text text-anchor="middle" x="114" y="-7.5" font-family="Helvetica,sans-Serif" font-size="10.00">forward_euler</text>
</a>
</g>
</g>
<!-- Node1&#45;&gt;Node3 -->
<g id="edge2" class="edge">
<title>Node1&#45;&gt;Node3</title>
<path fill="none" stroke="midnightblue" d="M38.37,-25.25C46.47,-23.59 56.4,-21.56 66.33,-19.54"/>
<polygon fill="midnightblue" stroke="midnightblue" points="67.1,-22.95 76.2,-17.52 65.7,-16.09 67.1,-22.95"/>
</g>
<!-- Node4 -->
<g id="node4" class="node">
<title>Node4</title>
<g id="a_node4"><a xlink:href="../../d4/d07/ode__forward__euler_8c.html#ae6c9413953c8d9d4bc9e374b29586350" target="_top" xlink:title="Compute next step approximation using the forward&#45;Euler method.">
<polygon fill="white" stroke="black" points="190,-0.5 190,-19.5 289,-19.5 289,-0.5 190,-0.5"/>
<text text-anchor="middle" x="239.5" y="-7.5" font-family="Helvetica,sans-Serif" font-size="10.00">forward_euler_step</text>
</a>
</g>
</g>
<!-- Node3&#45;&gt;Node4 -->
<g id="edge3" class="edge">
<title>Node3&#45;&gt;Node4</title>
<path fill="none" stroke="midnightblue" d="M151.72,-10C160.49,-10 170.08,-10 179.57,-10"/>
<polygon fill="midnightblue" stroke="midnightblue" points="179.79,-13.5 189.79,-10 179.79,-6.5 179.79,-13.5"/>
</g>
<!-- Node5 -->
<g id="node5" class="node">
<title>Node5</title>
<g id="a_node5"><a xlink:href="../../d4/d07/ode__forward__euler_8c.html#a97075291390a68c262ed66e157a57eb4" target="_top" xlink:title="Problem statement for a system with first&#45;order differential equations.">
<polygon fill="white" stroke="black" points="325,-0.5 325,-19.5 376,-19.5 376,-0.5 325,-0.5"/>
<text text-anchor="middle" x="350.5" y="-7.5" font-family="Helvetica,sans-Serif" font-size="10.00">problem</text>
</a>
</g>
</g>
<!-- Node4&#45;&gt;Node5 -->
<g id="edge4" class="edge">
<title>Node4&#45;&gt;Node5</title>
<path fill="none" stroke="midnightblue" d="M289.26,-10C297.85,-10 306.64,-10 314.75,-10"/>
<polygon fill="midnightblue" stroke="midnightblue" points="314.95,-13.5 324.95,-10 314.95,-6.5 314.95,-13.5"/>
</g>
</g>
</svg>
