<?xml version="1.0" encoding="UTF-8" standalone="no"?>
<!DOCTYPE svg PUBLIC "-//W3C//DTD SVG 1.1//EN"
 "http://www.w3.org/Graphics/SVG/1.1/DTD/svg11.dtd">
<!-- Generated by graphviz version 5.0.1 (20220820.1526)
 -->
<!-- Title: main Pages: 1 -->
<svg width="384pt" height="64pt"
 viewBox="0.00 0.00 384.00 64.00" xmlns="http://www.w3.org/2000/svg" xmlns:xlink="http://www.w3.org/1999/xlink">
<g id="graph0" class="graph" transform="scale(1 1) rotate(0) translate(4 60)">
<title>main</title>
<!-- Node1 -->
<g id="node1" class="node">
<title>Node1</title>
<g id="a_node1"><a xlink:title="Main Function.">
<polygon fill="#999999" stroke="#666666" points="38,-37 0,-37 0,-18 38,-18 38,-37"/>
<text text-anchor="middle" x="19" y="-25" font-family="Helvetica,sans-Serif" font-size="10.00">main</text>
</a>
</g>
</g>
<!-- Node2 -->
<g id="node2" class="node">
<title>Node2</title>
<g id="a_node2"><a xlink:href="../../d4/d07/ode__forward__euler_8c.html#a8caee977b26888d34040b122e0e28e3a" target="_top" xlink:title="Exact solution of the problem.">
<polygon fill="white" stroke="#666666" points="154,-56 74,-56 74,-37 154,-37 154,-56"/>
<text text-anchor="middle" x="114" y="-44" font-family="Helvetica,sans-Serif" font-size="10.00">exact_solution</text>
</a>
</g>
</g>
<!-- Node1&#45;&gt;Node2 -->
<g id="edge1" class="edge">
<title>Node1&#45;&gt;Node2</title>
<path fill="none" stroke="#63b8ff" d="M38.37,-31.25C45.84,-32.78 54.85,-34.62 63.99,-36.49"/>
<polygon fill="#63b8ff" stroke="#63b8ff" points="63.4,-39.94 73.9,-38.51 64.8,-33.08 63.4,-39.94"/>
</g>
<!-- Node3 -->
<g id="node3" class="node">
<title>Node3</title>
<g id="a_node3"><a xlink:href="../../d4/d07/ode__forward__euler_8c.html#aaf88ad8f9f7c39fc38f3f03d6fea9df9" target="_top" xlink:title="Compute approximation using the forward&#45;Euler method in the given limits.">
<polygon fill="white" stroke="#666666" points="151.5,-19 76.5,-19 76.5,0 151.5,0 151.5,-19"/>
<text text-anchor="middle" x="114" y="-7" font-family="Helvetica,sans-Serif" font-size="10.00">forward_euler</text>
</a>
</g>
</g>
<!-- Node1&#45;&gt;Node3 -->
<g id="edge2" class="edge">
<title>Node1&#45;&gt;Node3</title>
<path fill="none" stroke="#63b8ff" d="M38.37,-23.94C46.47,-22.38 56.4,-20.46 66.33,-18.53"/>
<polygon fill="#63b8ff" stroke="#63b8ff" points="67.05,-21.96 76.2,-16.62 65.72,-15.09 67.05,-21.96"/>
</g>
<!-- Node4 -->
<g id="node4" class="node">
<title>Node4</title>
<g id="a_node4"><a xlink:href="../../d4/d07/ode__forward__euler_8c.html#ae6c9413953c8d9d4bc9e374b29586350" target="_top" xlink:title="Compute next step approximation using the forward&#45;Euler method.">
<polygon fill="white" stroke="#666666" points="289,-19 190,-19 190,0 289,0 289,-19"/>
<text text-anchor="middle" x="239.5" y="-7" font-family="Helvetica,sans-Serif" font-size="10.00">forward_euler_step</text>
</a>
</g>
</g>
<!-- Node3&#45;&gt;Node4 -->
<g id="edge3" class="edge">
<title>Node3&#45;&gt;Node4</title>
<path fill="none" stroke="#63b8ff" d="M151.72,-9.5C160.49,-9.5 170.08,-9.5 179.57,-9.5"/>
<polygon fill="#63b8ff" stroke="#63b8ff" points="179.79,-13 189.79,-9.5 179.79,-6 179.79,-13"/>
</g>
<!-- Node5 -->
<g id="node5" class="node">
<title>Node5</title>
<g id="a_node5"><a xlink:href="../../d4/d07/ode__forward__euler_8c.html#a97075291390a68c262ed66e157a57eb4" target="_top" xlink:title="Problem statement for a system with first&#45;order differential equations.">
<polygon fill="white" stroke="#666666" points="376,-19 325,-19 325,0 376,0 376,-19"/>
<text text-anchor="middle" x="350.5" y="-7" font-family="Helvetica,sans-Serif" font-size="10.00">problem</text>
</a>
</g>
</g>
<!-- Node4&#45;&gt;Node5 -->
<g id="edge4" class="edge">
<title>Node4&#45;&gt;Node5</title>
<path fill="none" stroke="#63b8ff" d="M289.26,-9.5C297.85,-9.5 306.64,-9.5 314.75,-9.5"/>
<polygon fill="#63b8ff" stroke="#63b8ff" points="314.95,-13 324.95,-9.5 314.95,-6 314.95,-13"/>
</g>
</g>
</svg>
