<?xml version="1.0" encoding="UTF-8" standalone="no"?>
<!DOCTYPE svg PUBLIC "-//W3C//DTD SVG 1.1//EN"
 "http://www.w3.org/Graphics/SVG/1.1/DTD/svg11.dtd">
<!-- Generated by graphviz version 9.0.0 (20230911.1827)
 -->
<!-- Title: test Pages: 1 -->
<svg width="169pt" height="82pt"
 viewBox="0.00 0.00 169.00 82.25" xmlns="http://www.w3.org/2000/svg" xmlns:xlink="http://www.w3.org/1999/xlink">

<svg id="main" version="1.1" xmlns="http://www.w3.org/2000/svg" xmlns:xlink="http://www.w3.org/1999/xlink" xml:space="preserve" onload="init(evt)">
<style type="text/css"><![CDATA[
.node, .edge {opacity: 0.7;}
.node.selected, .edge.selected {opacity: 1;}
.edge:hover path { stroke: red; }
.edge:hover polygon { stroke: red; fill: red; }
]]></style>
<script type="application/ecmascript" xlink:href="../../svg.min.js"/>
<svg id="graph" class="graph">
<g id="graph0" class="graph" transform="scale(1 1) rotate(0) translate(4 78.25)">
<title>test</title>
<!-- Node1 -->
<g id="Node000001" class="node">
<title>Node1</title>
<g id="a_Node000001"><a xlink:title="Self&#45;test implementations.">
<polygon fill="#999999" stroke="#666666" points="32.5,-46.25 0,-46.25 0,-27 32.5,-27 32.5,-46.25"/>
<text text-anchor="middle" x="16.25" y="-32.75" font-family="Helvetica,sans-Serif" font-size="10.00">test</text>
</a>
</g>
</g>
<!-- Node2 -->
<g id="Node000002" class="node">
<title>Node2</title>
<g id="a_Node000002"><a xlink:href="../../d8/d1e/matrix__chain__order_8c.html#aecddbc91839e5b13644eea4f1d34566b" target="_top" xlink:title="for assert for INT_MAX macro">
<polygon fill="white" stroke="#666666" points="161,-74.25 68.5,-74.25 68.5,-55 161,-55 161,-74.25"/>
<text text-anchor="middle" x="114.75" y="-60.75" font-family="Helvetica,sans-Serif" font-size="10.00">matrixChainOrder</text>
</a>
</g>
</g>
<!-- Node1&#45;&gt;Node2 -->
<g id="edge1_Node000001_Node000002" class="edge">
<title>Node1&#45;&gt;Node2</title>
<g id="a_edge1_Node000001_Node000002"><a xlink:title=" ">
<path fill="none" stroke="#63b8ff" d="M32.75,-41.12C42.4,-43.92 55.34,-47.68 68.05,-51.37"/>
<polygon fill="#63b8ff" stroke="#63b8ff" points="67.04,-54.72 77.62,-54.14 68.99,-47.99 67.04,-54.72"/>
</a>
</g>
</g>
<!-- Node3 -->
<g id="Node000003" class="node">
<title>Node3</title>
<g id="a_Node000003"><a xlink:href="../../d8/d1e/matrix__chain__order_8c.html#ab49bc6e377a4b72a1295a953bc2520f5" target="_top" xlink:title="Recursively prints the solution.">
<polygon fill="white" stroke="#666666" points="149.75,-19.25 79.75,-19.25 79.75,0 149.75,0 149.75,-19.25"/>
<text text-anchor="middle" x="114.75" y="-5.75" font-family="Helvetica,sans-Serif" font-size="10.00">printSolution</text>
</a>
</g>
</g>
<!-- Node1&#45;&gt;Node3 -->
<g id="edge2_Node000001_Node000003" class="edge">
<title>Node1&#45;&gt;Node3</title>
<g id="a_edge2_Node000001_Node000003"><a xlink:title=" ">
<path fill="none" stroke="#63b8ff" d="M32.75,-32.29C42.58,-29.54 55.83,-25.83 68.77,-22.21"/>
<polygon fill="#63b8ff" stroke="#63b8ff" points="69.33,-25.69 78.02,-19.62 67.45,-18.95 69.33,-25.69"/>
</a>
</g>
</g>
<!-- Node3&#45;&gt;Node3 -->
<g id="edge3_Node000003_Node000003" class="edge">
<title>Node3&#45;&gt;Node3</title>
<g id="a_edge3_Node000003_Node000003"><a xlink:title=" ">
<path fill="none" stroke="#63b8ff" d="M99.33,-19.54C92.3,-28.15 97.44,-37.25 114.75,-37.25 124.22,-37.25 130.05,-34.53 132.23,-30.65"/>
<polygon fill="#63b8ff" stroke="#63b8ff" points="135.71,-30.22 130.45,-21.03 128.83,-31.5 135.71,-30.22"/>
</a>
</g>
</g>
</g>
</svg>
</svg>

<style type='text/css'>
<![CDATA[
[data-mouse-over-selected='false'] { opacity: 0.7; }
[data-mouse-over-selected='true']  { opacity: 1.0; }
]]>
</style>
<script type="application/ecmascript"><![CDATA[
document.addEventListener('DOMContentLoaded', (event) => {
  highlightEdges();
  highlightAdjacentNodes();
});
]]></script>
</svg>
