<?xml version="1.0" encoding="UTF-8" standalone="no"?>
<!DOCTYPE svg PUBLIC "-//W3C//DTD SVG 1.1//EN"
 "http://www.w3.org/Graphics/SVG/1.1/DTD/svg11.dtd">
<!-- Generated by graphviz version 8.0.5 (20230430.1635)
 -->
<!-- Title: main Pages: 1 -->
<svg width="242pt" height="82pt"
 viewBox="0.00 0.00 242.00 82.25" xmlns="http://www.w3.org/2000/svg" xmlns:xlink="http://www.w3.org/1999/xlink">
<g id="graph0" class="graph" transform="scale(1 1) rotate(0) translate(4 78.25)">
<title>main</title>
<!-- Node1 -->
<g id="Node000001" class="node">
<title>Node1</title>
<g id="a_Node000001"><a xlink:title="Main function.">
<polygon fill="#999999" stroke="#666666" points="37,-46.25 0,-46.25 0,-27 37,-27 37,-46.25"/>
<text text-anchor="middle" x="18.5" y="-32.75" font-family="Helvetica,sans-Serif" font-size="10.00">main</text>
</a>
</g>
</g>
<!-- Node2 -->
<g id="Node000002" class="node">
<title>Node2</title>
<g id="a_Node000002"><a xlink:href="../../d8/d1e/matrix__chain__order_8c.html#aa8dca7b867074164d5f45b0f3851269d" target="_top" xlink:title="Self&#45;test implementations.">
<polygon fill="white" stroke="#666666" points="105.5,-46.25 73,-46.25 73,-27 105.5,-27 105.5,-46.25"/>
<text text-anchor="middle" x="89.25" y="-32.75" font-family="Helvetica,sans-Serif" font-size="10.00">test</text>
</a>
</g>
</g>
<!-- Node1&#45;&gt;Node2 -->
<g id="edge1_Node000001_Node000002" class="edge">
<title>Node1&#45;&gt;Node2</title>
<g id="a_edge1_Node000001_Node000002"><a xlink:title=" ">
<path fill="none" stroke="#63b8ff" d="M37.2,-36.62C44.67,-36.62 53.52,-36.62 61.73,-36.62"/>
<polygon fill="#63b8ff" stroke="#63b8ff" points="61.71,-40.13 71.71,-36.62 61.71,-33.13 61.71,-40.13"/>
</a>
</g>
</g>
<!-- Node3 -->
<g id="Node000003" class="node">
<title>Node3</title>
<g id="a_Node000003"><a xlink:href="../../d8/d1e/matrix__chain__order_8c.html#aecddbc91839e5b13644eea4f1d34566b" target="_top" xlink:title="for assert">
<polygon fill="white" stroke="#666666" points="234,-74.25 141.5,-74.25 141.5,-55 234,-55 234,-74.25"/>
<text text-anchor="middle" x="187.75" y="-60.75" font-family="Helvetica,sans-Serif" font-size="10.00">matrixChainOrder</text>
</a>
</g>
</g>
<!-- Node2&#45;&gt;Node3 -->
<g id="edge2_Node000002_Node000003" class="edge">
<title>Node2&#45;&gt;Node3</title>
<g id="a_edge2_Node000002_Node000003"><a xlink:title=" ">
<path fill="none" stroke="#63b8ff" d="M105.75,-41.12C115.59,-43.98 128.87,-47.83 141.82,-51.59"/>
<polygon fill="#63b8ff" stroke="#63b8ff" points="140.49,-55.14 151.07,-54.56 142.44,-48.41 140.49,-55.14"/>
</a>
</g>
</g>
<!-- Node4 -->
<g id="Node000004" class="node">
<title>Node4</title>
<g id="a_Node000004"><a xlink:href="../../d8/d1e/matrix__chain__order_8c.html#ab49bc6e377a4b72a1295a953bc2520f5" target="_top" xlink:title="Recursively prints the solution.">
<polygon fill="white" stroke="#666666" points="222.75,-19.25 152.75,-19.25 152.75,0 222.75,0 222.75,-19.25"/>
<text text-anchor="middle" x="187.75" y="-5.75" font-family="Helvetica,sans-Serif" font-size="10.00">printSolution</text>
</a>
</g>
</g>
<!-- Node2&#45;&gt;Node4 -->
<g id="edge3_Node000002_Node000004" class="edge">
<title>Node2&#45;&gt;Node4</title>
<g id="a_edge3_Node000002_Node000004"><a xlink:title=" ">
<path fill="none" stroke="#63b8ff" d="M105.75,-32.29C115.68,-29.51 129.09,-25.76 142.15,-22.1"/>
<polygon fill="#63b8ff" stroke="#63b8ff" points="142.79,-25.28 151.48,-19.21 140.9,-18.54 142.79,-25.28"/>
</a>
</g>
</g>
<!-- Node4&#45;&gt;Node4 -->
<g id="edge4_Node000004_Node000004" class="edge">
<title>Node4&#45;&gt;Node4</title>
<g id="a_edge4_Node000004_Node000004"><a xlink:title=" ">
<path fill="none" stroke="#63b8ff" d="M172.33,-19.54C165.3,-28.15 170.44,-37.25 187.75,-37.25 197.76,-37.25 203.7,-34.21 205.57,-29.98"/>
<polygon fill="#63b8ff" stroke="#63b8ff" points="208.82,-29.5 203.17,-20.54 202,-31.07 208.82,-29.5"/>
</a>
</g>
</g>
</g>
</svg>
