<?xml version="1.0" encoding="UTF-8" standalone="no"?>
<!DOCTYPE svg PUBLIC "-//W3C//DTD SVG 1.1//EN"
 "http://www.w3.org/Graphics/SVG/1.1/DTD/svg11.dtd">
<!-- Generated by graphviz version 8.0.2 (20230410.1723)
 -->
<!-- Title: test Pages: 1 -->
<svg width="170pt" height="82pt"
 viewBox="0.00 0.00 170.00 82.00" xmlns="http://www.w3.org/2000/svg" xmlns:xlink="http://www.w3.org/1999/xlink">
<g id="graph0" class="graph" transform="scale(1 1) rotate(0) translate(4 78)">
<title>test</title>
<!-- Node1 -->
<g id="node1" class="node">
<title>Node1</title>
<g id="a_node1"><a xlink:title="Self&#45;test implementations.">
<polygon fill="#999999" stroke="#666666" points="33,-46 0,-46 0,-27 33,-27 33,-46"/>
<text text-anchor="middle" x="16.5" y="-34" font-family="Helvetica,sans-Serif" font-size="10.00">test</text>
</a>
</g>
</g>
<!-- Node2 -->
<g id="node2" class="node">
<title>Node2</title>
<g id="a_node2"><a xlink:href="../../d8/d1e/matrix__chain__order_8c.html#aecddbc91839e5b13644eea4f1d34566b" target="_top" xlink:title="for assert">
<polygon fill="white" stroke="#666666" points="162,-74 69,-74 69,-55 162,-55 162,-74"/>
<text text-anchor="middle" x="115.5" y="-62" font-family="Helvetica,sans-Serif" font-size="10.00">matrixChainOrder</text>
</a>
</g>
</g>
<!-- Node1&#45;&gt;Node2 -->
<g id="edge1" class="edge">
<title>Node1&#45;&gt;Node2</title>
<path fill="none" stroke="#63b8ff" d="M33.08,-41C43.06,-43.88 56.55,-47.77 69.67,-51.56"/>
<polygon fill="#63b8ff" stroke="#63b8ff" points="68.47,-55.14 79.05,-54.56 70.41,-48.42 68.47,-55.14"/>
</g>
<!-- Node3 -->
<g id="node3" class="node">
<title>Node3</title>
<g id="a_node3"><a xlink:href="../../d8/d1e/matrix__chain__order_8c.html#ab49bc6e377a4b72a1295a953bc2520f5" target="_top" xlink:title="Recursively prints the solution.">
<polygon fill="white" stroke="#666666" points="151,-19 80,-19 80,0 151,0 151,-19"/>
<text text-anchor="middle" x="115.5" y="-7" font-family="Helvetica,sans-Serif" font-size="10.00">printSolution</text>
</a>
</g>
</g>
<!-- Node1&#45;&gt;Node3 -->
<g id="edge2" class="edge">
<title>Node1&#45;&gt;Node3</title>
<path fill="none" stroke="#63b8ff" d="M33.08,-32.16C42.97,-29.41 56.32,-25.7 69.34,-22.07"/>
<polygon fill="#63b8ff" stroke="#63b8ff" points="69.95,-25.26 78.64,-19.2 68.07,-18.51 69.95,-25.26"/>
</g>
<!-- Node3&#45;&gt;Node3 -->
<g id="edge3" class="edge">
<title>Node3&#45;&gt;Node3</title>
<path fill="none" stroke="#63b8ff" d="M100,-19.37C92.93,-27.94 98.1,-37 115.5,-37 125.29,-37 131.21,-34.13 133.25,-30.1"/>
<polygon fill="#63b8ff" stroke="#63b8ff" points="136.48,-29.44 131,-20.37 129.63,-30.87 136.48,-29.44"/>
</g>
</g>
</svg>
