<?xml version="1.0" encoding="UTF-8" standalone="no"?>
<!DOCTYPE svg PUBLIC "-//W3C//DTD SVG 1.1//EN"
 "http://www.w3.org/Graphics/SVG/1.1/DTD/svg11.dtd">
<!-- Generated by graphviz version 8.0.5 (20230430.1635)
 -->
<!-- Title: test Pages: 1 -->
<svg width="126pt" height="64pt"
 viewBox="0.00 0.00 125.50 64.25" xmlns="http://www.w3.org/2000/svg" xmlns:xlink="http://www.w3.org/1999/xlink">
<g id="graph0" class="graph" transform="scale(1 1) rotate(0) translate(4 60.25)">
<title>test</title>
<!-- Node1 -->
<g id="Node000001" class="node">
<title>Node1</title>
<g id="a_Node000001"><a xlink:title="Self&#45;test implementations.">
<polygon fill="#999999" stroke="#666666" points="32.5,-37.25 0,-37.25 0,-18 32.5,-18 32.5,-37.25"/>
<text text-anchor="middle" x="16.25" y="-23.75" font-family="Helvetica,sans-Serif" font-size="10.00">test</text>
</a>
</g>
</g>
<!-- Node2 -->
<g id="Node000002" class="node">
<title>Node2</title>
<g id="a_Node000002"><a xlink:href="../../db/de1/lcs_8c.html#a741c9173a9fef243518f5c2352b81fc0" target="_top" xlink:title="Builds the LCS according to B using a traceback approach.">
<polygon fill="white" stroke="#666666" points="117.5,-56.25 68.5,-56.25 68.5,-37 117.5,-37 117.5,-56.25"/>
<text text-anchor="middle" x="93" y="-42.75" font-family="Helvetica,sans-Serif" font-size="10.00">lcsbuild</text>
</a>
</g>
</g>
<!-- Node1&#45;&gt;Node2 -->
<g id="edge1_Node000001_Node000002" class="edge">
<title>Node1&#45;&gt;Node2</title>
<g id="a_edge1_Node000001_Node000002"><a xlink:title=" ">
<path fill="none" stroke="#63b8ff" d="M32.74,-31.56C40.03,-33.42 49.05,-35.71 57.83,-37.94"/>
<polygon fill="#63b8ff" stroke="#63b8ff" points="56.73,-41.53 67.28,-40.6 58.45,-34.74 56.73,-41.53"/>
</a>
</g>
</g>
<!-- Node3 -->
<g id="Node000003" class="node">
<title>Node3</title>
<g id="a_Node000003"><a xlink:href="../../db/de1/lcs_8c.html#ac107a0b0233dacb9e8cd3a983d6740b6" target="_top" xlink:title="Computes LCS between s1 and s2 using a dynamic&#45;programming approach.">
<polygon fill="white" stroke="#666666" points="113.75,-19.25 72.25,-19.25 72.25,0 113.75,0 113.75,-19.25"/>
<text text-anchor="middle" x="93" y="-5.75" font-family="Helvetica,sans-Serif" font-size="10.00">lcslen</text>
</a>
</g>
</g>
<!-- Node1&#45;&gt;Node3 -->
<g id="edge2_Node000001_Node000003" class="edge">
<title>Node1&#45;&gt;Node3</title>
<g id="a_edge2_Node000001_Node000003"><a xlink:title=" ">
<path fill="none" stroke="#63b8ff" d="M32.74,-23.9C41,-21.91 51.47,-19.38 61.3,-17.02"/>
<polygon fill="#63b8ff" stroke="#63b8ff" points="62.08,-20.19 70.98,-14.45 60.44,-13.38 62.08,-20.19"/>
</a>
</g>
</g>
</g>
</svg>
