<?xml version="1.0" encoding="UTF-8" standalone="no"?>
<!DOCTYPE svg PUBLIC "-//W3C//DTD SVG 1.1//EN"
 "http://www.w3.org/Graphics/SVG/1.1/DTD/svg11.dtd">
<!-- Generated by graphviz version 8.0.2 (20230410.1723)
 -->
<!-- Title: main Pages: 1 -->
<svg width="201pt" height="64pt"
 viewBox="0.00 0.00 201.00 64.00" xmlns="http://www.w3.org/2000/svg" xmlns:xlink="http://www.w3.org/1999/xlink">
<g id="graph0" class="graph" transform="scale(1 1) rotate(0) translate(4 60)">
<title>main</title>
<!-- Node1 -->
<g id="node1" class="node">
<title>Node1</title>
<g id="a_node1"><a xlink:title="Main function.">
<polygon fill="#999999" stroke="#666666" points="38,-37 0,-37 0,-18 38,-18 38,-37"/>
<text text-anchor="middle" x="19" y="-25" font-family="Helvetica,sans-Serif" font-size="10.00">main</text>
</a>
</g>
</g>
<!-- Node2 -->
<g id="node2" class="node">
<title>Node2</title>
<g id="a_node2"><a xlink:href="../../db/de1/lcs_8c.html#aa8dca7b867074164d5f45b0f3851269d" target="_top" xlink:title="Self&#45;test implementations.">
<polygon fill="white" stroke="#666666" points="107,-37 74,-37 74,-18 107,-18 107,-37"/>
<text text-anchor="middle" x="90.5" y="-25" font-family="Helvetica,sans-Serif" font-size="10.00">test</text>
</a>
</g>
</g>
<!-- Node1&#45;&gt;Node2 -->
<g id="edge1" class="edge">
<title>Node1&#45;&gt;Node2</title>
<path fill="none" stroke="#63b8ff" d="M38.26,-27.5C45.89,-27.5 54.9,-27.5 63.23,-27.5"/>
<polygon fill="#63b8ff" stroke="#63b8ff" points="62.95,-31 72.95,-27.5 62.95,-24 62.95,-31"/>
</g>
<!-- Node3 -->
<g id="node3" class="node">
<title>Node3</title>
<g id="a_node3"><a xlink:href="../../db/de1/lcs_8c.html#a741c9173a9fef243518f5c2352b81fc0" target="_top" xlink:title="@breif Builds the LCS according to B using a traceback approach">
<polygon fill="white" stroke="#666666" points="193,-56 143,-56 143,-37 193,-37 193,-56"/>
<text text-anchor="middle" x="168" y="-44" font-family="Helvetica,sans-Serif" font-size="10.00">lcsbuild</text>
</a>
</g>
</g>
<!-- Node2&#45;&gt;Node3 -->
<g id="edge2" class="edge">
<title>Node2&#45;&gt;Node3</title>
<path fill="none" stroke="#63b8ff" d="M107.14,-31.44C114.45,-33.28 123.47,-35.54 132.26,-37.76"/>
<polygon fill="#63b8ff" stroke="#63b8ff" points="131.2,-41.35 141.75,-40.4 132.91,-34.56 131.2,-41.35"/>
</g>
<!-- Node4 -->
<g id="node4" class="node">
<title>Node4</title>
<g id="a_node4"><a xlink:href="../../db/de1/lcs_8c.html#ac107a0b0233dacb9e8cd3a983d6740b6" target="_top" xlink:title="@breif Computes LCS between s1 and s2 using a dynamic&#45;programming approach">
<polygon fill="white" stroke="#666666" points="189,-19 147,-19 147,0 189,0 189,-19"/>
<text text-anchor="middle" x="168" y="-7" font-family="Helvetica,sans-Serif" font-size="10.00">lcslen</text>
</a>
</g>
</g>
<!-- Node2&#45;&gt;Node4 -->
<g id="edge3" class="edge">
<title>Node2&#45;&gt;Node4</title>
<path fill="none" stroke="#63b8ff" d="M107.14,-23.77C115.52,-21.77 126.13,-19.24 136.09,-16.87"/>
<polygon fill="#63b8ff" stroke="#63b8ff" points="136.58,-20.11 145.5,-14.39 134.96,-13.3 136.58,-20.11"/>
</g>
</g>
</svg>
