<?xml version="1.0" encoding="UTF-8" standalone="no"?>
<!DOCTYPE svg PUBLIC "-//W3C//DTD SVG 1.1//EN"
 "http://www.w3.org/Graphics/SVG/1.1/DTD/svg11.dtd">
<!-- Generated by graphviz version 8.0.2 (20230410.1723)
 -->
<!-- Title: main Pages: 1 -->
<svg width="508pt" height="82pt"
 viewBox="0.00 0.00 508.00 82.00" xmlns="http://www.w3.org/2000/svg" xmlns:xlink="http://www.w3.org/1999/xlink">
<g id="graph0" class="graph" transform="scale(1 1) rotate(0) translate(4 78)">
<title>main</title>
<!-- Node1 -->
<g id="node1" class="node">
<title>Node1</title>
<g id="a_node1"><a xlink:title="main function">
<polygon fill="#999999" stroke="#666666" points="38,-55 0,-55 0,-36 38,-36 38,-55"/>
<text text-anchor="middle" x="19" y="-43" font-family="Helvetica,sans-Serif" font-size="10.00">main</text>
</a>
</g>
</g>
<!-- Node2 -->
<g id="node2" class="node">
<title>Node2</title>
<g id="a_node2"><a xlink:href="../../dc/d1d/hash__blake2b_8c.html#aa8dca7b867074164d5f45b0f3851269d" target="_top" xlink:title="testing function">
<polygon fill="white" stroke="#666666" points="107,-55 74,-55 74,-36 107,-36 107,-55"/>
<text text-anchor="middle" x="90.5" y="-43" font-family="Helvetica,sans-Serif" font-size="10.00">test</text>
</a>
</g>
</g>
<!-- Node1&#45;&gt;Node2 -->
<g id="edge1" class="edge">
<title>Node1&#45;&gt;Node2</title>
<path fill="none" stroke="#63b8ff" d="M38.26,-45.5C45.89,-45.5 54.9,-45.5 63.23,-45.5"/>
<polygon fill="#63b8ff" stroke="#63b8ff" points="62.95,-49 72.95,-45.5 62.95,-42 62.95,-49"/>
</g>
<!-- Node3 -->
<g id="node3" class="node">
<title>Node3</title>
<g id="a_node3"><a xlink:href="../../dc/d1d/hash__blake2b_8c.html#a857feb4c0c5980c4c3807c721dd7b144" target="_top" xlink:title="Self&#45;test implementations.">
<polygon fill="white" stroke="#666666" points="216,-74 143,-74 143,-55 216,-55 216,-74"/>
<text text-anchor="middle" x="179.5" y="-62" font-family="Helvetica,sans-Serif" font-size="10.00">assert_bytes</text>
</a>
</g>
</g>
<!-- Node2&#45;&gt;Node3 -->
<g id="edge2" class="edge">
<title>Node2&#45;&gt;Node3</title>
<path fill="none" stroke="#63b8ff" d="M107.46,-48.98C114.58,-50.54 123.37,-52.46 132.32,-54.42"/>
<polygon fill="#63b8ff" stroke="#63b8ff" points="131.29,-57.99 141.8,-56.7 132.78,-51.15 131.29,-57.99"/>
</g>
<!-- Node4 -->
<g id="node4" class="node">
<title>Node4</title>
<g id="a_node4"><a xlink:href="../../d7/d3b/group__hash.html#gaf2cd4bc8e8097fff865741a0efc42eca" target="_top" xlink:title="blake2b hash function">
<polygon fill="white" stroke="#666666" points="204.5,-37 154.5,-37 154.5,-18 204.5,-18 204.5,-37"/>
<text text-anchor="middle" x="179.5" y="-25" font-family="Helvetica,sans-Serif" font-size="10.00">blake2b</text>
</a>
</g>
</g>
<!-- Node2&#45;&gt;Node4 -->
<g id="edge3" class="edge">
<title>Node2&#45;&gt;Node4</title>
<path fill="none" stroke="#63b8ff" d="M107.46,-42.2C117.55,-40.11 131,-37.33 143.48,-34.74"/>
<polygon fill="#63b8ff" stroke="#63b8ff" points="144.01,-38 153.1,-32.55 142.59,-31.15 144.01,-38"/>
</g>
<!-- Node5 -->
<g id="node5" class="node">
<title>Node5</title>
<g id="a_node5"><a xlink:href="../../d7/d3b/group__hash.html#gafa42f7c30fb9921ba2eafa8b68b23582" target="_top" xlink:title="driver function to perform the hashing as described in specification">
<polygon fill="white" stroke="#666666" points="313,-56 252,-56 252,-37 313,-37 313,-56"/>
<text text-anchor="middle" x="282.5" y="-44" font-family="Helvetica,sans-Serif" font-size="10.00">BLAKE2B</text>
</a>
</g>
</g>
<!-- Node4&#45;&gt;Node5 -->
<g id="edge4" class="edge">
<title>Node4&#45;&gt;Node5</title>
<path fill="none" stroke="#63b8ff" d="M204.95,-32.1C215.79,-34.14 228.83,-36.59 241.05,-38.89"/>
<polygon fill="#63b8ff" stroke="#63b8ff" points="240.03,-42.45 250.5,-40.86 241.32,-35.57 240.03,-42.45"/>
</g>
<!-- Node9 -->
<g id="node9" class="node">
<title>Node9</title>
<g id="a_node9"><a xlink:href="../../d7/d3b/group__hash.html#ga94c9f3e74306c2b7ac5f141d8454dbe9" target="_top" xlink:title="put value of n into dest">
<polygon fill="white" stroke="#666666" points="309,-19 256,-19 256,0 309,0 309,-19"/>
<text text-anchor="middle" x="282.5" y="-7" font-family="Helvetica,sans-Serif" font-size="10.00">u128_fill</text>
</a>
</g>
</g>
<!-- Node4&#45;&gt;Node9 -->
<g id="edge8" class="edge">
<title>Node4&#45;&gt;Node9</title>
<path fill="none" stroke="#63b8ff" d="M204.95,-23.14C216.9,-21.01 231.53,-18.41 244.79,-16.04"/>
<polygon fill="#63b8ff" stroke="#63b8ff" points="245.28,-19.33 254.51,-14.13 244.05,-12.44 245.28,-19.33"/>
</g>
<!-- Node6 -->
<g id="node6" class="node">
<title>Node6</title>
<g id="a_node6"><a xlink:href="../../d7/d3b/group__hash.html#ga37e02cbf2df2247d31ab92f443990dbd" target="_top" xlink:title="compression function F">
<polygon fill="white" stroke="#666666" points="406.5,-74 377.5,-74 377.5,-55 406.5,-55 406.5,-74"/>
<text text-anchor="middle" x="392" y="-62" font-family="Helvetica,sans-Serif" font-size="10.00">F</text>
</a>
</g>
</g>
<!-- Node5&#45;&gt;Node6 -->
<g id="edge5" class="edge">
<title>Node5&#45;&gt;Node6</title>
<path fill="none" stroke="#63b8ff" d="M313.44,-51.51C330.24,-54.33 350.93,-57.79 366.71,-60.43"/>
<polygon fill="#63b8ff" stroke="#63b8ff" points="365.77,-63.99 376.21,-62.19 366.92,-57.09 365.77,-63.99"/>
</g>
<!-- Node8 -->
<g id="node8" class="node">
<title>Node8</title>
<g id="a_node8"><a xlink:href="../../d7/d3b/group__hash.html#gaead2e4f50d0c512905c07ddd564e082e" target="_top" xlink:title="increment an 128&#45;bit number by a given amount">
<polygon fill="white" stroke="#666666" points="435,-37 349,-37 349,-18 435,-18 435,-37"/>
<text text-anchor="middle" x="392" y="-25" font-family="Helvetica,sans-Serif" font-size="10.00">u128_increment</text>
</a>
</g>
</g>
<!-- Node5&#45;&gt;Node8 -->
<g id="edge7" class="edge">
<title>Node5&#45;&gt;Node8</title>
<path fill="none" stroke="#63b8ff" d="M313.44,-41.21C321.13,-39.85 329.64,-38.35 338.11,-36.85"/>
<polygon fill="#63b8ff" stroke="#63b8ff" points="338.53,-40.15 347.76,-34.96 337.31,-33.26 338.53,-40.15"/>
</g>
<!-- Node7 -->
<g id="node7" class="node">
<title>Node7</title>
<g id="a_node7"><a xlink:href="../../d7/d3b/group__hash.html#ga049d44b5a4804ca5a1b7a290f3fa3202" target="_top" xlink:title="blake2b mixing function G">
<polygon fill="white" stroke="#666666" points="500,-74 471,-74 471,-55 500,-55 500,-74"/>
<text text-anchor="middle" x="485.5" y="-62" font-family="Helvetica,sans-Serif" font-size="10.00">G</text>
</a>
</g>
</g>
<!-- Node6&#45;&gt;Node7 -->
<g id="edge6" class="edge">
<title>Node6&#45;&gt;Node7</title>
<path fill="none" stroke="#63b8ff" d="M406.9,-64.5C420.95,-64.5 442.97,-64.5 459.97,-64.5"/>
<polygon fill="#63b8ff" stroke="#63b8ff" points="459.77,-68 469.77,-64.5 459.77,-61 459.77,-68"/>
</g>
</g>
</svg>
