<?xml version="1.0" encoding="UTF-8" standalone="no"?>
<!DOCTYPE svg PUBLIC "-//W3C//DTD SVG 1.1//EN"
 "http://www.w3.org/Graphics/SVG/1.1/DTD/svg11.dtd">
<!-- Generated by graphviz version 9.0.0 (20230911.1827)
 -->
<!-- Title: main Pages: 1 -->
<svg width="504pt" height="82pt"
 viewBox="0.00 0.00 503.80 82.25" xmlns="http://www.w3.org/2000/svg" xmlns:xlink="http://www.w3.org/1999/xlink">
<g id="graph0" class="graph" transform="scale(1 1) rotate(0) translate(4 78.25)">
<title>main</title>
<!-- Node1 -->
<g id="Node000001" class="node">
<title>Node1</title>
<g id="a_Node000001"><a xlink:title="main function">
<polygon fill="#999999" stroke="#666666" points="37,-55.25 0,-55.25 0,-36 37,-36 37,-55.25"/>
<text text-anchor="middle" x="18.5" y="-41.75" font-family="Helvetica,sans-Serif" font-size="10.00">main</text>
</a>
</g>
</g>
<!-- Node2 -->
<g id="Node000002" class="node">
<title>Node2</title>
<g id="a_Node000002"><a xlink:href="../../dc/d1d/hash__blake2b_8c.html#aa8dca7b867074164d5f45b0f3851269d" target="_top" xlink:title="testing function">
<polygon fill="white" stroke="#666666" points="105.5,-55.25 73,-55.25 73,-36 105.5,-36 105.5,-55.25"/>
<text text-anchor="middle" x="89.25" y="-41.75" font-family="Helvetica,sans-Serif" font-size="10.00">test</text>
</a>
</g>
</g>
<!-- Node1&#45;&gt;Node2 -->
<g id="edge1_Node000001_Node000002" class="edge">
<title>Node1&#45;&gt;Node2</title>
<g id="a_edge1_Node000001_Node000002"><a xlink:title=" ">
<path fill="none" stroke="#63b8ff" d="M37.2,-45.62C44.58,-45.62 53.31,-45.62 61.45,-45.62"/>
<polygon fill="#63b8ff" stroke="#63b8ff" points="61.2,-49.13 71.2,-45.63 61.2,-42.13 61.2,-49.13"/>
</a>
</g>
</g>
<!-- Node3 -->
<g id="Node000003" class="node">
<title>Node3</title>
<g id="a_Node000003"><a xlink:href="../../dc/d1d/hash__blake2b_8c.html#a857feb4c0c5980c4c3807c721dd7b144" target="_top" xlink:title="Self&#45;test implementations.">
<polygon fill="white" stroke="#666666" points="213.75,-74.25 141.5,-74.25 141.5,-55 213.75,-55 213.75,-74.25"/>
<text text-anchor="middle" x="177.62" y="-60.75" font-family="Helvetica,sans-Serif" font-size="10.00">assert_bytes</text>
</a>
</g>
</g>
<!-- Node2&#45;&gt;Node3 -->
<g id="edge2_Node000002_Node000003" class="edge">
<title>Node2&#45;&gt;Node3</title>
<g id="a_edge2_Node000002_Node000003"><a xlink:title=" ">
<path fill="none" stroke="#63b8ff" d="M105.69,-49.02C112.65,-50.55 121.28,-52.45 130.09,-54.39"/>
<polygon fill="#63b8ff" stroke="#63b8ff" points="129.25,-57.79 139.77,-56.52 130.75,-50.95 129.25,-57.79"/>
</a>
</g>
</g>
<!-- Node4 -->
<g id="Node000004" class="node">
<title>Node4</title>
<g id="a_Node000004"><a xlink:href="../../d7/d3b/group__hash.html#gaf2cd4bc8e8097fff865741a0efc42eca" target="_top" xlink:title="blake2b hash function">
<polygon fill="white" stroke="#666666" points="202.5,-37.25 152.75,-37.25 152.75,-18 202.5,-18 202.5,-37.25"/>
<text text-anchor="middle" x="177.62" y="-23.75" font-family="Helvetica,sans-Serif" font-size="10.00">blake2b</text>
</a>
</g>
</g>
<!-- Node2&#45;&gt;Node4 -->
<g id="edge3_Node000002_Node000004" class="edge">
<title>Node2&#45;&gt;Node4</title>
<g id="a_edge3_Node000002_Node000004"><a xlink:title=" ">
<path fill="none" stroke="#63b8ff" d="M105.69,-42.41C115.65,-40.33 129.02,-37.55 141.46,-34.95"/>
<polygon fill="#63b8ff" stroke="#63b8ff" points="141.95,-38.43 151.03,-32.96 140.53,-31.57 141.95,-38.43"/>
</a>
</g>
</g>
<!-- Node5 -->
<g id="Node000005" class="node">
<title>Node5</title>
<g id="a_Node000005"><a xlink:href="../../d7/d3b/group__hash.html#gafa42f7c30fb9921ba2eafa8b68b23582" target="_top" xlink:title="driver function to perform the hashing as described in specification">
<polygon fill="white" stroke="#666666" points="310,-56.25 249.75,-56.25 249.75,-37 310,-37 310,-56.25"/>
<text text-anchor="middle" x="279.88" y="-42.75" font-family="Helvetica,sans-Serif" font-size="10.00">BLAKE2B</text>
</a>
</g>
</g>
<!-- Node4&#45;&gt;Node5 -->
<g id="edge4_Node000004_Node000005" class="edge">
<title>Node4&#45;&gt;Node5</title>
<g id="a_edge4_Node000004_Node000005"><a xlink:title=" ">
<path fill="none" stroke="#63b8ff" d="M202.89,-32.22C213.52,-34.24 226.28,-36.66 238.29,-38.93"/>
<polygon fill="#63b8ff" stroke="#63b8ff" points="237.51,-42.35 247.98,-40.77 238.81,-35.47 237.51,-42.35"/>
</a>
</g>
</g>
<!-- Node9 -->
<g id="Node000009" class="node">
<title>Node9</title>
<g id="a_Node000009"><a xlink:href="../../d7/d3b/group__hash.html#ga94c9f3e74306c2b7ac5f141d8454dbe9" target="_top" xlink:title="put value of n into dest">
<polygon fill="white" stroke="#666666" points="305.88,-19.25 253.88,-19.25 253.88,0 305.88,0 305.88,-19.25"/>
<text text-anchor="middle" x="279.88" y="-5.75" font-family="Helvetica,sans-Serif" font-size="10.00">u128_fill</text>
</a>
</g>
</g>
<!-- Node4&#45;&gt;Node9 -->
<g id="edge8_Node000004_Node000009" class="edge">
<title>Node4&#45;&gt;Node9</title>
<g id="a_edge8_Node000004_Node000009"><a xlink:title=" ">
<path fill="none" stroke="#63b8ff" d="M202.89,-23.27C214.72,-21.14 229.2,-18.54 242.34,-16.19"/>
<polygon fill="#63b8ff" stroke="#63b8ff" points="242.72,-19.67 251.94,-14.46 241.48,-12.78 242.72,-19.67"/>
</a>
</g>
</g>
<!-- Node6 -->
<g id="Node000006" class="node">
<title>Node6</title>
<g id="a_Node000006"><a xlink:href="../../d7/d3b/group__hash.html#ga37e02cbf2df2247d31ab92f443990dbd" target="_top" xlink:title="compression function F">
<polygon fill="white" stroke="#666666" points="402.9,-74.25 374.1,-74.25 374.1,-55 402.9,-55 402.9,-74.25"/>
<text text-anchor="middle" x="388.5" y="-60.75" font-family="Helvetica,sans-Serif" font-size="10.00">F</text>
</a>
</g>
</g>
<!-- Node5&#45;&gt;Node6 -->
<g id="edge5_Node000005_Node000006" class="edge">
<title>Node5&#45;&gt;Node6</title>
<g id="a_edge5_Node000005_Node000006"><a xlink:title=" ">
<path fill="none" stroke="#63b8ff" d="M310.29,-51.59C326.8,-54.38 347.15,-57.81 362.82,-60.46"/>
<polygon fill="#63b8ff" stroke="#63b8ff" points="361.81,-63.84 372.25,-62.05 362.97,-56.94 361.81,-63.84"/>
</a>
</g>
</g>
<!-- Node8 -->
<g id="Node000008" class="node">
<title>Node8</title>
<g id="a_Node000008"><a xlink:href="../../d7/d3b/group__hash.html#gaead2e4f50d0c512905c07ddd564e082e" target="_top" xlink:title="increment an 128&#45;bit number by a given amount">
<polygon fill="white" stroke="#666666" points="431,-37.25 346,-37.25 346,-18 431,-18 431,-37.25"/>
<text text-anchor="middle" x="388.5" y="-23.75" font-family="Helvetica,sans-Serif" font-size="10.00">u128_increment</text>
</a>
</g>
</g>
<!-- Node5&#45;&gt;Node8 -->
<g id="edge7_Node000005_Node000008" class="edge">
<title>Node5&#45;&gt;Node8</title>
<g id="a_edge7_Node000005_Node000008"><a xlink:title=" ">
<path fill="none" stroke="#63b8ff" d="M310.29,-41.38C317.84,-40.04 326.18,-38.55 334.52,-37.07"/>
<polygon fill="#63b8ff" stroke="#63b8ff" points="335.09,-40.52 344.32,-35.32 333.86,-33.63 335.09,-40.52"/>
</a>
</g>
</g>
<!-- Node7 -->
<g id="Node000007" class="node">
<title>Node7</title>
<g id="a_Node000007"><a xlink:href="../../d7/d3b/group__hash.html#ga049d44b5a4804ca5a1b7a290f3fa3202" target="_top" xlink:title="blake2b mixing function G">
<polygon fill="white" stroke="#666666" points="495.8,-74.25 467,-74.25 467,-55 495.8,-55 495.8,-74.25"/>
<text text-anchor="middle" x="481.4" y="-60.75" font-family="Helvetica,sans-Serif" font-size="10.00">G</text>
</a>
</g>
</g>
<!-- Node6&#45;&gt;Node7 -->
<g id="edge6_Node000006_Node000007" class="edge">
<title>Node6&#45;&gt;Node7</title>
<g id="a_edge6_Node000006_Node000007"><a xlink:title=" ">
<path fill="none" stroke="#63b8ff" d="M403.31,-64.62C417.13,-64.62 438.72,-64.62 455.54,-64.62"/>
<polygon fill="#63b8ff" stroke="#63b8ff" points="455.25,-68.13 465.25,-64.63 455.25,-61.13 455.25,-68.13"/>
</a>
</g>
</g>
</g>
</svg>
