<?xml version="1.0" encoding="UTF-8" standalone="no"?>
<!DOCTYPE svg PUBLIC "-//W3C//DTD SVG 1.1//EN"
 "http://www.w3.org/Graphics/SVG/1.1/DTD/svg11.dtd">
<!-- Generated by graphviz version 2.50.0 (20211204.2007)
 -->
<!-- Title: numerical_methods/qr_decomposition.c Pages: 1 -->
<svg width="265pt" height="151pt"
 viewBox="0.00 0.00 264.50 151.00" xmlns="http://www.w3.org/2000/svg" xmlns:xlink="http://www.w3.org/1999/xlink">
<g id="graph0" class="graph" transform="scale(1 1) rotate(0) translate(4 147)">
<title>numerical_methods/qr_decomposition.c</title>
<polygon fill="white" stroke="transparent" points="-4,4 -4,-147 260.5,-147 260.5,4 -4,4"/>
<!-- Node1 -->
<g id="node1" class="node">
<title>Node1</title>
<g id="a_node1"><a xlink:title="Program to compute the QR decomposition of a given matrix.">
<polygon fill="#bfbfbf" stroke="black" points="55,-112.5 55,-142.5 168,-142.5 168,-112.5 55,-112.5"/>
<text text-anchor="start" x="63" y="-130.5" font-family="Helvetica,sans-Serif" font-size="10.00">numerical_methods/qr</text>
<text text-anchor="middle" x="111.5" y="-119.5" font-family="Helvetica,sans-Serif" font-size="10.00">_decomposition.c</text>
</a>
</g>
</g>
<!-- Node2 -->
<g id="node2" class="node">
<title>Node2</title>
<g id="a_node2"><a xlink:title=" ">
<polygon fill="white" stroke="#bfbfbf" points="0,-0.5 0,-19.5 47,-19.5 47,-0.5 0,-0.5"/>
<text text-anchor="middle" x="23.5" y="-7.5" font-family="Helvetica,sans-Serif" font-size="10.00">math.h</text>
</a>
</g>
</g>
<!-- Node1&#45;&gt;Node2 -->
<g id="edge1" class="edge">
<title>Node1&#45;&gt;Node2</title>
<path fill="none" stroke="midnightblue" d="M90.16,-112.38C77.6,-103.21 62.14,-90.32 51.5,-76 40.98,-61.84 33.45,-43.11 28.87,-29.39"/>
<polygon fill="midnightblue" stroke="midnightblue" points="32.15,-28.15 25.82,-19.65 25.47,-30.24 32.15,-28.15"/>
</g>
<!-- Node3 -->
<g id="node3" class="node">
<title>Node3</title>
<g id="a_node3"><a xlink:title=" ">
<polygon fill="white" stroke="#bfbfbf" points="76.5,-0.5 76.5,-19.5 122.5,-19.5 122.5,-0.5 76.5,-0.5"/>
<text text-anchor="middle" x="99.5" y="-7.5" font-family="Helvetica,sans-Serif" font-size="10.00">stdio.h</text>
</a>
</g>
</g>
<!-- Node1&#45;&gt;Node3 -->
<g id="edge2" class="edge">
<title>Node1&#45;&gt;Node3</title>
<path fill="none" stroke="midnightblue" d="M89.13,-112.35C77.33,-103.5 63.99,-90.95 57.5,-76 49.59,-57.76 64.85,-38.89 79.14,-26.22"/>
<polygon fill="midnightblue" stroke="midnightblue" points="81.78,-28.58 87.26,-19.52 77.32,-23.18 81.78,-28.58"/>
</g>
<!-- Node4 -->
<g id="node4" class="node">
<title>Node4</title>
<g id="a_node4"><a xlink:title=" ">
<polygon fill="white" stroke="#bfbfbf" points="150.5,-0.5 150.5,-19.5 198.5,-19.5 198.5,-0.5 150.5,-0.5"/>
<text text-anchor="middle" x="174.5" y="-7.5" font-family="Helvetica,sans-Serif" font-size="10.00">stdlib.h</text>
</a>
</g>
</g>
<!-- Node1&#45;&gt;Node4 -->
<g id="edge3" class="edge">
<title>Node1&#45;&gt;Node4</title>
<path fill="none" stroke="midnightblue" d="M132.56,-112.4C144.23,-103.41 157.88,-90.7 165.5,-76 172.95,-61.62 174.9,-43.16 175.17,-29.59"/>
<polygon fill="midnightblue" stroke="midnightblue" points="178.66,-29.51 175.07,-19.54 171.67,-29.57 178.66,-29.51"/>
</g>
<!-- Node5 -->
<g id="node5" class="node">
<title>Node5</title>
<g id="a_node5"><a xlink:title=" ">
<polygon fill="white" stroke="#bfbfbf" points="212.5,-56.5 212.5,-75.5 256.5,-75.5 256.5,-56.5 212.5,-56.5"/>
<text text-anchor="middle" x="234.5" y="-63.5" font-family="Helvetica,sans-Serif" font-size="10.00">time.h</text>
</a>
</g>
</g>
<!-- Node1&#45;&gt;Node5 -->
<g id="edge4" class="edge">
<title>Node1&#45;&gt;Node5</title>
<path fill="none" stroke="midnightblue" d="M140.65,-112.4C160.92,-102.59 187.74,-89.62 207.52,-80.05"/>
<polygon fill="midnightblue" stroke="midnightblue" points="209.12,-83.16 216.6,-75.66 206.08,-76.86 209.12,-83.16"/>
</g>
<!-- Node6 -->
<g id="node6" class="node">
<title>Node6</title>
<g id="a_node6"><a xlink:href="../../d4/d68/qr__decompose_8h.html" target="_top" xlink:title="Library functions to compute QR decomposition of a given matrix.">
<polygon fill="white" stroke="black" points="67,-56.5 67,-75.5 156,-75.5 156,-56.5 67,-56.5"/>
<text text-anchor="middle" x="111.5" y="-63.5" font-family="Helvetica,sans-Serif" font-size="10.00">qr_decompose.h</text>
</a>
</g>
</g>
<!-- Node1&#45;&gt;Node6 -->
<g id="edge5" class="edge">
<title>Node1&#45;&gt;Node6</title>
<path fill="none" stroke="midnightblue" d="M111.5,-112.4C111.5,-104.47 111.5,-94.46 111.5,-85.86"/>
<polygon fill="midnightblue" stroke="midnightblue" points="115,-85.66 111.5,-75.66 108,-85.66 115,-85.66"/>
</g>
<!-- Node6&#45;&gt;Node2 -->
<g id="edge6" class="edge">
<title>Node6&#45;&gt;Node2</title>
<path fill="none" stroke="midnightblue" d="M97.36,-56.32C83.63,-47.9 62.56,-34.97 46.44,-25.07"/>
<polygon fill="midnightblue" stroke="midnightblue" points="47.96,-21.9 37.6,-19.65 44.3,-27.87 47.96,-21.9"/>
</g>
<!-- Node6&#45;&gt;Node3 -->
<g id="edge7" class="edge">
<title>Node6&#45;&gt;Node3</title>
<path fill="none" stroke="midnightblue" d="M109.52,-56.08C107.93,-48.93 105.64,-38.64 103.65,-29.69"/>
<polygon fill="midnightblue" stroke="midnightblue" points="107.03,-28.75 101.44,-19.75 100.2,-30.27 107.03,-28.75"/>
</g>
<!-- Node6&#45;&gt;Node4 -->
<g id="edge8" class="edge">
<title>Node6&#45;&gt;Node4</title>
<path fill="none" stroke="midnightblue" d="M121.62,-56.32C131.03,-48.26 145.24,-36.08 156.57,-26.37"/>
<polygon fill="midnightblue" stroke="midnightblue" points="158.88,-29 164.19,-19.83 154.32,-23.68 158.88,-29"/>
</g>
</g>
</svg>
