<?xml version="1.0" encoding="UTF-8" standalone="no"?>
<!DOCTYPE svg PUBLIC "-//W3C//DTD SVG 1.1//EN"
 "http://www.w3.org/Graphics/SVG/1.1/DTD/svg11.dtd">
<!-- Generated by graphviz version 6.0.1 (20220911.1526)
 -->
<!-- Title: numerical_methods/qr_decomposition.c Pages: 1 -->
<svg width="296pt" height="148pt"
 viewBox="0.00 0.00 295.50 148.00" xmlns="http://www.w3.org/2000/svg" xmlns:xlink="http://www.w3.org/1999/xlink">
<g id="graph0" class="graph" transform="scale(1 1) rotate(0) translate(4 144)">
<title>numerical_methods/qr_decomposition.c</title>
<!-- Node1 -->
<g id="node1" class="node">
<title>Node1</title>
<g id="a_node1"><a xlink:title="Program to compute the QR decomposition of a given matrix.">
<polygon fill="#999999" stroke="#666666" points="199,-140 86,-140 86,-110 199,-110 199,-140"/>
<text text-anchor="start" x="94" y="-128" font-family="Helvetica,sans-Serif" font-size="10.00">numerical_methods/qr</text>
<text text-anchor="middle" x="142.5" y="-117" font-family="Helvetica,sans-Serif" font-size="10.00">_decomposition.c</text>
</a>
</g>
</g>
<!-- Node2 -->
<g id="node2" class="node">
<title>Node2</title>
<g id="a_node2"><a xlink:title=" ">
<polygon fill="#e0e0e0" stroke="#999999" points="47,-19 0,-19 0,0 47,0 47,-19"/>
<text text-anchor="middle" x="23.5" y="-7" font-family="Helvetica,sans-Serif" font-size="10.00">math.h</text>
</a>
</g>
</g>
<!-- Node1&#45;&gt;Node2 -->
<g id="edge1" class="edge">
<title>Node1&#45;&gt;Node2</title>
<path fill="none" stroke="#63b8ff" d="M123.4,-109.87C110.79,-100.24 94.14,-86.94 80.5,-74 64.63,-58.95 48.1,-40.13 36.96,-26.91"/>
<polygon fill="#63b8ff" stroke="#63b8ff" points="39.56,-24.56 30.47,-19.11 34.18,-29.04 39.56,-24.56"/>
</g>
<!-- Node3 -->
<g id="node3" class="node">
<title>Node3</title>
<g id="a_node3"><a xlink:title=" ">
<polygon fill="#e0e0e0" stroke="#999999" points="111.5,-19 65.5,-19 65.5,0 111.5,0 111.5,-19"/>
<text text-anchor="middle" x="88.5" y="-7" font-family="Helvetica,sans-Serif" font-size="10.00">stdio.h</text>
</a>
</g>
</g>
<!-- Node1&#45;&gt;Node3 -->
<g id="edge2" class="edge">
<title>Node1&#45;&gt;Node3</title>
<path fill="none" stroke="#63b8ff" d="M120.63,-109.91C109.07,-101.12 95.98,-88.7 89.5,-74 83.31,-59.95 83.56,-42.41 85.07,-29.32"/>
<polygon fill="#63b8ff" stroke="#63b8ff" points="88.57,-29.57 86.6,-19.16 81.65,-28.53 88.57,-29.57"/>
</g>
<!-- Node4 -->
<g id="node4" class="node">
<title>Node4</title>
<g id="a_node4"><a xlink:title=" ">
<polygon fill="#e0e0e0" stroke="#999999" points="239.5,-19 191.5,-19 191.5,0 239.5,0 239.5,-19"/>
<text text-anchor="middle" x="215.5" y="-7" font-family="Helvetica,sans-Serif" font-size="10.00">stdlib.h</text>
</a>
</g>
</g>
<!-- Node1&#45;&gt;Node4 -->
<g id="edge3" class="edge">
<title>Node1&#45;&gt;Node4</title>
<path fill="none" stroke="#63b8ff" d="M162.48,-109.83C173.93,-100.77 187.72,-88.1 196.5,-74 205.06,-60.27 209.95,-42.46 212.62,-29.2"/>
<polygon fill="#63b8ff" stroke="#63b8ff" points="216.07,-29.78 214.37,-19.32 209.18,-28.55 216.07,-29.78"/>
</g>
<!-- Node5 -->
<g id="node5" class="node">
<title>Node5</title>
<g id="a_node5"><a xlink:title=" ">
<polygon fill="#e0e0e0" stroke="#999999" points="287.5,-74 243.5,-74 243.5,-55 287.5,-55 287.5,-74"/>
<text text-anchor="middle" x="265.5" y="-62" font-family="Helvetica,sans-Serif" font-size="10.00">time.h</text>
</a>
</g>
</g>
<!-- Node1&#45;&gt;Node5 -->
<g id="edge4" class="edge">
<title>Node1&#45;&gt;Node5</title>
<path fill="none" stroke="#63b8ff" d="M171.96,-109.99C192.12,-100.4 218.64,-87.79 238.3,-78.44"/>
<polygon fill="#63b8ff" stroke="#63b8ff" points="239.81,-81.6 247.34,-74.14 236.8,-75.27 239.81,-81.6"/>
</g>
<!-- Node6 -->
<g id="node6" class="node">
<title>Node6</title>
<g id="a_node6"><a xlink:href="../../d4/d68/qr__decompose_8h.html" target="_top" xlink:title="Library functions to compute QR decomposition of a given matrix.">
<polygon fill="white" stroke="#666666" points="187,-74 98,-74 98,-55 187,-55 187,-74"/>
<text text-anchor="middle" x="142.5" y="-62" font-family="Helvetica,sans-Serif" font-size="10.00">qr_decompose.h</text>
</a>
</g>
</g>
<!-- Node1&#45;&gt;Node6 -->
<g id="edge5" class="edge">
<title>Node1&#45;&gt;Node6</title>
<path fill="none" stroke="#63b8ff" d="M142.5,-109.84C142.5,-102.21 142.5,-92.7 142.5,-84.45"/>
<polygon fill="#63b8ff" stroke="#63b8ff" points="146,-84.27 142.5,-74.27 139,-84.27 146,-84.27"/>
</g>
<!-- Node6&#45;&gt;Node2 -->
<g id="edge6" class="edge">
<title>Node6&#45;&gt;Node2</title>
<path fill="none" stroke="#63b8ff" d="M123.38,-54.98C104.15,-46.42 74.27,-33.11 52.19,-23.28"/>
<polygon fill="#63b8ff" stroke="#63b8ff" points="53.53,-20.04 42.97,-19.17 50.68,-26.44 53.53,-20.04"/>
</g>
<!-- Node6&#45;&gt;Node3 -->
<g id="edge7" class="edge">
<title>Node6&#45;&gt;Node3</title>
<path fill="none" stroke="#63b8ff" d="M133.58,-54.75C125.72,-47.03 114.07,-35.6 104.58,-26.28"/>
<polygon fill="#63b8ff" stroke="#63b8ff" points="106.84,-23.6 97.25,-19.09 101.94,-28.59 106.84,-23.6"/>
</g>
<!-- Node6&#45;&gt;Node4 -->
<g id="edge8" class="edge">
<title>Node6&#45;&gt;Node4</title>
<path fill="none" stroke="#63b8ff" d="M154.23,-54.98C165.23,-47 181.92,-34.88 195.1,-25.31"/>
<polygon fill="#63b8ff" stroke="#63b8ff" points="197.52,-27.88 203.56,-19.17 193.41,-22.21 197.52,-27.88"/>
</g>
<!-- Node7 -->
<g id="node7" class="node">
<title>Node7</title>
<g id="a_node7"><a xlink:title=" ">
<polygon fill="#e0e0e0" stroke="#999999" points="173.5,-19 129.5,-19 129.5,0 173.5,0 173.5,-19"/>
<text text-anchor="middle" x="151.5" y="-7" font-family="Helvetica,sans-Serif" font-size="10.00">omp.h</text>
</a>
</g>
</g>
<!-- Node6&#45;&gt;Node7 -->
<g id="edge9" class="edge">
<title>Node6&#45;&gt;Node7</title>
<path fill="none" stroke="#63b8ff" d="M143.99,-54.75C145.17,-47.8 146.86,-37.85 148.34,-29.13"/>
<polygon fill="#63b8ff" stroke="#63b8ff" points="151.82,-29.53 150.04,-19.09 144.92,-28.36 151.82,-29.53"/>
</g>
</g>
</svg>
