<?xml version="1.0" encoding="UTF-8" standalone="no"?>
<!DOCTYPE svg PUBLIC "-//W3C//DTD SVG 1.1//EN"
 "http://www.w3.org/Graphics/SVG/1.1/DTD/svg11.dtd">
<!-- Generated by graphviz version 9.0.0 (20230911.1827)
 -->
<!-- Title: numerical_methods/qr_decomposition.c Pages: 1 -->
<svg width="262pt" height="149pt"
 viewBox="0.00 0.00 261.50 149.00" xmlns="http://www.w3.org/2000/svg" xmlns:xlink="http://www.w3.org/1999/xlink">
<g id="graph0" class="graph" transform="scale(1 1) rotate(0) translate(4 145)">
<title>numerical_methods/qr_decomposition.c</title>
<!-- Node1 -->
<g id="Node000001" class="node">
<title>Node1</title>
<g id="a_Node000001"><a xlink:title="Program to compute the QR decomposition of a given matrix.">
<polygon fill="#999999" stroke="#666666" points="166,-141 54,-141 54,-110.5 166,-110.5 166,-141"/>
<text text-anchor="start" x="62" y="-127.5" font-family="Helvetica,sans-Serif" font-size="10.00">numerical_methods/qr</text>
<text text-anchor="middle" x="110" y="-116.25" font-family="Helvetica,sans-Serif" font-size="10.00">_decomposition.c</text>
</a>
</g>
</g>
<!-- Node2 -->
<g id="Node000002" class="node">
<title>Node2</title>
<g id="a_Node000002"><a xlink:title=" ">
<polygon fill="#e0e0e0" stroke="#999999" points="46,-19.25 0,-19.25 0,0 46,0 46,-19.25"/>
<text text-anchor="middle" x="23" y="-5.75" font-family="Helvetica,sans-Serif" font-size="10.00">math.h</text>
</a>
</g>
</g>
<!-- Node1&#45;&gt;Node2 -->
<g id="edge1_Node000001_Node000002" class="edge">
<title>Node1&#45;&gt;Node2</title>
<g id="a_edge1_Node000001_Node000002"><a xlink:title=" ">
<path fill="none" stroke="#63b8ff" d="M88.49,-110.2C76.25,-101.08 61.35,-88.43 51,-74.5 41.05,-61.11 33.69,-43.62 29.03,-30.33"/>
<polygon fill="#63b8ff" stroke="#63b8ff" points="32.41,-29.4 25.97,-20.99 25.75,-31.58 32.41,-29.4"/>
</a>
</g>
</g>
<!-- Node3 -->
<g id="Node000003" class="node">
<title>Node3</title>
<g id="a_Node000003"><a xlink:title=" ">
<polygon fill="#e0e0e0" stroke="#999999" points="120.62,-19.25 75.38,-19.25 75.38,0 120.62,0 120.62,-19.25"/>
<text text-anchor="middle" x="98" y="-5.75" font-family="Helvetica,sans-Serif" font-size="10.00">stdio.h</text>
</a>
</g>
</g>
<!-- Node1&#45;&gt;Node3 -->
<g id="edge2_Node000001_Node000003" class="edge">
<title>Node1&#45;&gt;Node3</title>
<g id="a_edge2_Node000001_Node000003"><a xlink:title=" ">
<path fill="none" stroke="#63b8ff" d="M87.49,-110.18C76.04,-101.38 63.26,-89.06 57,-74.5 49.57,-57.22 63.17,-39.35 76.66,-26.92"/>
<polygon fill="#63b8ff" stroke="#63b8ff" points="78.77,-29.72 84.13,-20.58 74.24,-24.39 78.77,-29.72"/>
</a>
</g>
</g>
<!-- Node4 -->
<g id="Node000004" class="node">
<title>Node4</title>
<g id="a_Node000004"><a xlink:title=" ">
<polygon fill="#e0e0e0" stroke="#999999" points="195.75,-19.25 148.25,-19.25 148.25,0 195.75,0 195.75,-19.25"/>
<text text-anchor="middle" x="172" y="-5.75" font-family="Helvetica,sans-Serif" font-size="10.00">stdlib.h</text>
</a>
</g>
</g>
<!-- Node1&#45;&gt;Node4 -->
<g id="edge3_Node000001_Node000004" class="edge">
<title>Node1&#45;&gt;Node4</title>
<g id="a_edge3_Node000001_Node000004"><a xlink:title=" ">
<path fill="none" stroke="#63b8ff" d="M131.46,-110.02C142.73,-101.1 155.68,-88.7 163,-74.5 169.93,-61.06 172.05,-44.03 172.51,-30.94"/>
<polygon fill="#63b8ff" stroke="#63b8ff" points="176.01,-30.95 172.53,-20.95 169.01,-30.94 176.01,-30.95"/>
</a>
</g>
</g>
<!-- Node5 -->
<g id="Node000005" class="node">
<title>Node5</title>
<g id="a_Node000005"><a xlink:title=" ">
<polygon fill="#e0e0e0" stroke="#999999" points="253.5,-74.5 210.5,-74.5 210.5,-55.25 253.5,-55.25 253.5,-74.5"/>
<text text-anchor="middle" x="232" y="-61" font-family="Helvetica,sans-Serif" font-size="10.00">time.h</text>
</a>
</g>
</g>
<!-- Node1&#45;&gt;Node5 -->
<g id="edge4_Node000001_Node000005" class="edge">
<title>Node1&#45;&gt;Node5</title>
<g id="a_edge4_Node000001_Node000005"><a xlink:title=" ">
<path fill="none" stroke="#63b8ff" d="M140.47,-110.05C159.59,-100.82 184.09,-89 202.93,-79.9"/>
<polygon fill="#63b8ff" stroke="#63b8ff" points="204.44,-83.06 211.93,-75.56 201.4,-76.76 204.44,-83.06"/>
</a>
</g>
</g>
<!-- Node6 -->
<g id="Node000006" class="node">
<title>Node6</title>
<g id="a_Node000006"><a xlink:href="../../d4/d68/qr__decompose_8h.html" target="_top" xlink:title="Library functions to compute QR decomposition of a given matrix.">
<polygon fill="white" stroke="#666666" points="154,-74.5 66,-74.5 66,-55.25 154,-55.25 154,-74.5"/>
<text text-anchor="middle" x="110" y="-61" font-family="Helvetica,sans-Serif" font-size="10.00">qr_decompose.h</text>
</a>
</g>
</g>
<!-- Node1&#45;&gt;Node6 -->
<g id="edge5_Node000001_Node000006" class="edge">
<title>Node1&#45;&gt;Node6</title>
<g id="a_edge5_Node000001_Node000006"><a xlink:title=" ">
<path fill="none" stroke="#63b8ff" d="M110,-110.2C110,-102.96 110,-94.09 110,-86.19"/>
<polygon fill="#63b8ff" stroke="#63b8ff" points="113.5,-86.46 110,-76.46 106.5,-86.46 113.5,-86.46"/>
</a>
</g>
</g>
<!-- Node6&#45;&gt;Node2 -->
<g id="edge6_Node000006_Node000002" class="edge">
<title>Node6&#45;&gt;Node2</title>
<g id="a_edge6_Node000006_Node000002"><a xlink:title=" ">
<path fill="none" stroke="#63b8ff" d="M95.24,-54.84C82.12,-46.81 62.68,-34.91 47.27,-25.48"/>
<polygon fill="#63b8ff" stroke="#63b8ff" points="49.48,-22.73 39.12,-20.49 45.82,-28.7 49.48,-22.73"/>
</a>
</g>
</g>
<!-- Node6&#45;&gt;Node3 -->
<g id="edge7_Node000006_Node000003" class="edge">
<title>Node6&#45;&gt;Node3</title>
<g id="a_edge7_Node000006_Node000003"><a xlink:title=" ">
<path fill="none" stroke="#63b8ff" d="M108.02,-55.08C106.53,-48.49 104.44,-39.21 102.55,-30.82"/>
<polygon fill="#63b8ff" stroke="#63b8ff" points="105.97,-30.07 100.36,-21.09 99.14,-31.61 105.97,-30.07"/>
</a>
</g>
</g>
<!-- Node6&#45;&gt;Node4 -->
<g id="edge8_Node000006_Node000004" class="edge">
<title>Node6&#45;&gt;Node4</title>
<g id="a_edge8_Node000006_Node000004"><a xlink:title=" ">
<path fill="none" stroke="#63b8ff" d="M120.52,-54.84C129.39,-47.22 142.31,-36.12 152.99,-26.95"/>
<polygon fill="#63b8ff" stroke="#63b8ff" points="155.18,-29.68 160.49,-20.51 150.62,-24.37 155.18,-29.68"/>
</a>
</g>
</g>
</g>
</svg>
