<?xml version="1.0" encoding="UTF-8" standalone="no"?>
<!DOCTYPE svg PUBLIC "-//W3C//DTD SVG 1.1//EN"
 "http://www.w3.org/Graphics/SVG/1.1/DTD/svg11.dtd">
<!-- Generated by graphviz version 7.0.6 (20230106.0513)
 -->
<!-- Title: numerical_methods/qr_decomposition.c Pages: 1 -->
<svg width="265pt" height="148pt"
 viewBox="0.00 0.00 264.50 148.00" xmlns="http://www.w3.org/2000/svg" xmlns:xlink="http://www.w3.org/1999/xlink">
<g id="graph0" class="graph" transform="scale(1 1) rotate(0) translate(4 144)">
<title>numerical_methods/qr_decomposition.c</title>
<!-- Node1 -->
<g id="node1" class="node">
<title>Node1</title>
<g id="a_node1"><a xlink:title="Program to compute the QR decomposition of a given matrix.">
<polygon fill="#999999" stroke="#666666" points="168,-140 55,-140 55,-110 168,-110 168,-140"/>
<text text-anchor="start" x="63" y="-128" font-family="Helvetica,sans-Serif" font-size="10.00">numerical_methods/qr</text>
<text text-anchor="middle" x="111.5" y="-117" font-family="Helvetica,sans-Serif" font-size="10.00">_decomposition.c</text>
</a>
</g>
</g>
<!-- Node2 -->
<g id="node2" class="node">
<title>Node2</title>
<g id="a_node2"><a xlink:title=" ">
<polygon fill="#e0e0e0" stroke="#999999" points="47,-19 0,-19 0,0 47,0 47,-19"/>
<text text-anchor="middle" x="23.5" y="-7" font-family="Helvetica,sans-Serif" font-size="10.00">math.h</text>
</a>
</g>
</g>
<!-- Node1&#45;&gt;Node2 -->
<g id="edge1" class="edge">
<title>Node1&#45;&gt;Node2</title>
<path fill="none" stroke="#63b8ff" d="M89.62,-109.61C77.18,-100.56 62.03,-87.97 51.5,-74 41.51,-60.74 34.16,-43.35 29.5,-30.13"/>
<polygon fill="#63b8ff" stroke="#63b8ff" points="32.9,-29.24 26.46,-20.83 26.24,-31.42 32.9,-29.24"/>
</g>
<!-- Node3 -->
<g id="node3" class="node">
<title>Node3</title>
<g id="a_node3"><a xlink:title=" ">
<polygon fill="#e0e0e0" stroke="#999999" points="122.5,-19 76.5,-19 76.5,0 122.5,0 122.5,-19"/>
<text text-anchor="middle" x="99.5" y="-7" font-family="Helvetica,sans-Serif" font-size="10.00">stdio.h</text>
</a>
</g>
</g>
<!-- Node1&#45;&gt;Node3 -->
<g id="edge2" class="edge">
<title>Node1&#45;&gt;Node3</title>
<path fill="none" stroke="#63b8ff" d="M88.57,-109.62C76.92,-100.9 63.89,-88.63 57.5,-74 49.95,-56.71 63.87,-38.96 77.67,-26.64"/>
<polygon fill="#63b8ff" stroke="#63b8ff" points="79.83,-29.4 85.33,-20.35 75.38,-23.99 79.83,-29.4"/>
</g>
<!-- Node4 -->
<g id="node4" class="node">
<title>Node4</title>
<g id="a_node4"><a xlink:title=" ">
<polygon fill="#e0e0e0" stroke="#999999" points="198.5,-19 150.5,-19 150.5,0 198.5,0 198.5,-19"/>
<text text-anchor="middle" x="174.5" y="-7" font-family="Helvetica,sans-Serif" font-size="10.00">stdlib.h</text>
</a>
</g>
</g>
<!-- Node1&#45;&gt;Node4 -->
<g id="edge3" class="edge">
<title>Node1&#45;&gt;Node4</title>
<path fill="none" stroke="#63b8ff" d="M133.08,-109.66C144.62,-100.79 157.97,-88.38 165.5,-74 172.47,-60.68 174.59,-43.75 175.04,-30.72"/>
<polygon fill="#63b8ff" stroke="#63b8ff" points="178.54,-30.79 175.05,-20.79 171.54,-30.78 178.54,-30.79"/>
</g>
<!-- Node5 -->
<g id="node5" class="node">
<title>Node5</title>
<g id="a_node5"><a xlink:title=" ">
<polygon fill="#e0e0e0" stroke="#999999" points="256.5,-74 212.5,-74 212.5,-55 256.5,-55 256.5,-74"/>
<text text-anchor="middle" x="234.5" y="-62" font-family="Helvetica,sans-Serif" font-size="10.00">time.h</text>
</a>
</g>
</g>
<!-- Node1&#45;&gt;Node5 -->
<g id="edge4" class="edge">
<title>Node1&#45;&gt;Node5</title>
<path fill="none" stroke="#63b8ff" d="M141.9,-109.54C161.38,-100.28 186.51,-88.33 205.67,-79.21"/>
<polygon fill="#63b8ff" stroke="#63b8ff" points="207.01,-82.45 214.53,-75 204,-76.13 207.01,-82.45"/>
</g>
<!-- Node6 -->
<g id="node6" class="node">
<title>Node6</title>
<g id="a_node6"><a xlink:href="../../d4/d68/qr__decompose_8h.html" target="_top" xlink:title="Library functions to compute QR decomposition of a given matrix.">
<polygon fill="white" stroke="#666666" points="156,-74 67,-74 67,-55 156,-55 156,-74"/>
<text text-anchor="middle" x="111.5" y="-62" font-family="Helvetica,sans-Serif" font-size="10.00">qr_decompose.h</text>
</a>
</g>
</g>
<!-- Node1&#45;&gt;Node6 -->
<g id="edge5" class="edge">
<title>Node1&#45;&gt;Node6</title>
<path fill="none" stroke="#63b8ff" d="M111.5,-109.54C111.5,-102.34 111.5,-93.53 111.5,-85.68"/>
<polygon fill="#63b8ff" stroke="#63b8ff" points="115,-85.69 111.5,-75.69 108,-85.69 115,-85.69"/>
</g>
<!-- Node6&#45;&gt;Node2 -->
<g id="edge6" class="edge">
<title>Node6&#45;&gt;Node2</title>
<path fill="none" stroke="#63b8ff" d="M96.57,-54.51C83.22,-46.47 63.39,-34.53 47.76,-25.11"/>
<polygon fill="#63b8ff" stroke="#63b8ff" points="49.88,-22.3 39.5,-20.14 46.26,-28.3 49.88,-22.3"/>
</g>
<!-- Node6&#45;&gt;Node3 -->
<g id="edge7" class="edge">
<title>Node6&#45;&gt;Node3</title>
<path fill="none" stroke="#63b8ff" d="M109.52,-54.75C108.03,-48.19 105.94,-38.95 104.05,-30.6"/>
<polygon fill="#63b8ff" stroke="#63b8ff" points="107.48,-29.9 101.86,-20.92 100.65,-31.44 107.48,-29.9"/>
</g>
<!-- Node6&#45;&gt;Node4 -->
<g id="edge8" class="edge">
<title>Node6&#45;&gt;Node4</title>
<path fill="none" stroke="#63b8ff" d="M122.19,-54.51C131.2,-46.93 144.33,-35.88 155.18,-26.75"/>
<polygon fill="#63b8ff" stroke="#63b8ff" points="157.41,-29.45 162.81,-20.33 152.91,-24.09 157.41,-29.45"/>
</g>
</g>
</svg>
