<?xml version="1.0" encoding="UTF-8" standalone="no"?>
<!DOCTYPE svg PUBLIC "-//W3C//DTD SVG 1.1//EN"
 "http://www.w3.org/Graphics/SVG/1.1/DTD/svg11.dtd">
<!-- Generated by graphviz version 7.0.6 (20230106.0513)
 -->
<!-- Title: is_sum_of_abundant Pages: 1 -->
<svg width="355pt" height="46pt"
 viewBox="0.00 0.00 355.00 46.00" xmlns="http://www.w3.org/2000/svg" xmlns:xlink="http://www.w3.org/1999/xlink">
<g id="graph0" class="graph" transform="scale(1 1) rotate(0) translate(4 42)">
<title>is_sum_of_abundant</title>
<!-- Node1 -->
<g id="node1" class="node">
<title>Node1</title>
<g id="a_node1"><a xlink:title="check if a given number can be represented as a sum of two abundant numbers.">
<polygon fill="#999999" stroke="#666666" points="107,-19 0,-19 0,0 107,0 107,-19"/>
<text text-anchor="middle" x="53.5" y="-7" font-family="Helvetica,sans-Serif" font-size="10.00">is_sum_of_abundant</text>
</a>
</g>
</g>
<!-- Node2 -->
<g id="node2" class="node">
<title>Node2</title>
<g id="a_node2"><a xlink:href="../../d4/dbd/problem__23_2sol2_8c.html#ac5d600bf3077f4188afc4c5cd2c40eaf" target="_top" xlink:title="Find the next abundant number after N and not including N.">
<polygon fill="white" stroke="#666666" points="242,-38 143,-38 143,-19 242,-19 242,-38"/>
<text text-anchor="middle" x="192.5" y="-26" font-family="Helvetica,sans-Serif" font-size="10.00">get_next_abundant</text>
</a>
</g>
</g>
<!-- Node1&#45;&gt;Node2 -->
<g id="edge1" class="edge">
<title>Node1&#45;&gt;Node2</title>
<path fill="none" stroke="#63b8ff" d="M107.47,-16.85C115.35,-17.94 123.52,-19.07 131.53,-20.18"/>
<polygon fill="#63b8ff" stroke="#63b8ff" points="130.82,-23.62 141.21,-21.53 131.79,-16.68 130.82,-23.62"/>
</g>
<!-- Node3 -->
<g id="node3" class="node">
<title>Node3</title>
<g id="a_node3"><a xlink:href="../../d4/dbd/problem__23_2sol2_8c.html#a34f4ad85151e3a43368ae67f42347f56" target="_top" xlink:title="Is the given number an abundant number (1) or not (0)">
<polygon fill="white" stroke="#666666" points="347,-19 278,-19 278,0 347,0 347,-19"/>
<text text-anchor="middle" x="312.5" y="-7" font-family="Helvetica,sans-Serif" font-size="10.00">is_abundant</text>
</a>
</g>
</g>
<!-- Node1&#45;&gt;Node3 -->
<g id="edge3" class="edge">
<title>Node1&#45;&gt;Node3</title>
<path fill="none" stroke="#63b8ff" d="M107.44,-9.5C154.38,-9.5 222.18,-9.5 266.54,-9.5"/>
<polygon fill="#63b8ff" stroke="#63b8ff" points="266.33,-13 276.33,-9.5 266.33,-6 266.33,-13"/>
</g>
<!-- Node2&#45;&gt;Node3 -->
<g id="edge2" class="edge">
<title>Node2&#45;&gt;Node3</title>
<path fill="none" stroke="#63b8ff" d="M242.18,-20.66C250.2,-19.37 258.48,-18.04 266.4,-16.76"/>
<polygon fill="#63b8ff" stroke="#63b8ff" points="266.88,-20.23 276.2,-15.18 265.77,-13.32 266.88,-20.23"/>
</g>
</g>
</svg>
