<?xml version="1.0" encoding="UTF-8" standalone="no"?>
<!DOCTYPE svg PUBLIC "-//W3C//DTD SVG 1.1//EN"
 "http://www.w3.org/Graphics/SVG/1.1/DTD/svg11.dtd">
<!-- Generated by graphviz version 9.0.0 (20230911.1827)
 -->
<!-- Title: main Pages: 1 -->
<svg width="426pt" height="64pt"
 viewBox="0.00 0.00 426.00 64.25" xmlns="http://www.w3.org/2000/svg" xmlns:xlink="http://www.w3.org/1999/xlink">
<g id="graph0" class="graph" transform="scale(1 1) rotate(0) translate(4 60.25)">
<title>main</title>
<!-- Node1 -->
<g id="Node000001" class="node">
<title>Node1</title>
<g id="a_Node000001"><a xlink:title="Main function.">
<polygon fill="#999999" stroke="#666666" points="37,-37.25 0,-37.25 0,-18 37,-18 37,-37.25"/>
<text text-anchor="middle" x="18.5" y="-23.75" font-family="Helvetica,sans-Serif" font-size="10.00">main</text>
</a>
</g>
</g>
<!-- Node2 -->
<g id="Node000002" class="node">
<title>Node2</title>
<g id="a_Node000002"><a xlink:href="../../d4/dbd/problem__23_2sol2_8c.html#a1aca7f530f82b27100262adba9e7556b" target="_top" xlink:title=" ">
<polygon fill="white" stroke="#666666" points="177.12,-56.25 74.88,-56.25 74.88,-37 177.12,-37 177.12,-56.25"/>
<text text-anchor="middle" x="126" y="-42.75" font-family="Helvetica,sans-Serif" font-size="10.00">get_perfect_number</text>
</a>
</g>
</g>
<!-- Node1&#45;&gt;Node2 -->
<g id="edge1_Node000001_Node000002" class="edge">
<title>Node1&#45;&gt;Node2</title>
<g id="a_edge1_Node000001_Node000002"><a xlink:title=" ">
<path fill="none" stroke="#63b8ff" d="M37.4,-30.85C44.83,-32.19 53.94,-33.83 63.44,-35.54"/>
<polygon fill="#63b8ff" stroke="#63b8ff" points="62.75,-38.97 73.21,-37.3 63.99,-32.08 62.75,-38.97"/>
</a>
</g>
</g>
<!-- Node3 -->
<g id="Node000003" class="node">
<title>Node3</title>
<g id="a_Node000003"><a xlink:href="../../d4/dbd/problem__23_2sol2_8c.html#a3ab61b5a1c4f2288625d160aa0ea8478" target="_top" xlink:title="check if a given number can be represented as a sum of two abundant numbers.">
<polygon fill="white" stroke="#666666" points="179,-19.25 73,-19.25 73,0 179,0 179,-19.25"/>
<text text-anchor="middle" x="126" y="-5.75" font-family="Helvetica,sans-Serif" font-size="10.00">is_sum_of_abundant</text>
</a>
</g>
</g>
<!-- Node1&#45;&gt;Node3 -->
<g id="edge2_Node000001_Node000003" class="edge">
<title>Node1&#45;&gt;Node3</title>
<g id="a_edge2_Node000001_Node000003"><a xlink:title=" ">
<path fill="none" stroke="#63b8ff" d="M37.4,-24.57C44.34,-23.39 52.74,-21.95 61.56,-20.45"/>
<polygon fill="#63b8ff" stroke="#63b8ff" points="62.12,-23.9 71.39,-18.77 60.94,-17 62.12,-23.9"/>
</a>
</g>
</g>
<!-- Node4 -->
<g id="Node000004" class="node">
<title>Node4</title>
<g id="a_Node000004"><a xlink:href="../../d4/dbd/problem__23_2sol2_8c.html#ac5d600bf3077f4188afc4c5cd2c40eaf" target="_top" xlink:title="Find the next abundant number after N and not including N.">
<polygon fill="white" stroke="#666666" points="313.5,-38.25 215,-38.25 215,-19 313.5,-19 313.5,-38.25"/>
<text text-anchor="middle" x="264.25" y="-24.75" font-family="Helvetica,sans-Serif" font-size="10.00">get_next_abundant</text>
</a>
</g>
</g>
<!-- Node3&#45;&gt;Node4 -->
<g id="edge3_Node000003_Node000004" class="edge">
<title>Node3&#45;&gt;Node4</title>
<g id="a_edge3_Node000003_Node000004"><a xlink:title=" ">
<path fill="none" stroke="#63b8ff" d="M179.29,-16.92C187.25,-18.03 195.51,-19.18 203.61,-20.31"/>
<polygon fill="#63b8ff" stroke="#63b8ff" points="203.02,-23.76 213.4,-21.67 203.98,-16.83 203.02,-23.76"/>
</a>
</g>
</g>
<!-- Node5 -->
<g id="Node000005" class="node">
<title>Node5</title>
<g id="a_Node000005"><a xlink:href="../../d4/dbd/problem__23_2sol2_8c.html#a34f4ad85151e3a43368ae67f42347f56" target="_top" xlink:title="Is the given number an abundant number (1) or not (0)">
<polygon fill="white" stroke="#666666" points="418,-19.25 349.5,-19.25 349.5,0 418,0 418,-19.25"/>
<text text-anchor="middle" x="383.75" y="-5.75" font-family="Helvetica,sans-Serif" font-size="10.00">is_abundant</text>
</a>
</g>
</g>
<!-- Node3&#45;&gt;Node5 -->
<g id="edge5_Node000003_Node000005" class="edge">
<title>Node3&#45;&gt;Node5</title>
<g id="a_edge5_Node000003_Node000005"><a xlink:title=" ">
<path fill="none" stroke="#63b8ff" d="M179.37,-9.62C226.06,-9.62 293.66,-9.62 337.9,-9.62"/>
<polygon fill="#63b8ff" stroke="#63b8ff" points="337.66,-13.13 347.66,-9.63 337.66,-6.13 337.66,-13.13"/>
</a>
</g>
</g>
<!-- Node4&#45;&gt;Node5 -->
<g id="edge4_Node000004_Node000005" class="edge">
<title>Node4&#45;&gt;Node5</title>
<g id="a_edge4_Node000004_Node000005"><a xlink:title=" ">
<path fill="none" stroke="#63b8ff" d="M313.72,-20.79C321.71,-19.5 329.95,-18.16 337.84,-16.89"/>
<polygon fill="#63b8ff" stroke="#63b8ff" points="338.28,-20.36 347.59,-15.31 337.16,-13.45 338.28,-20.36"/>
</a>
</g>
</g>
</g>
</svg>
