<?xml version="1.0" encoding="UTF-8" standalone="no"?>
<!DOCTYPE svg PUBLIC "-//W3C//DTD SVG 1.1//EN"
 "http://www.w3.org/Graphics/SVG/1.1/DTD/svg11.dtd">
<!-- Generated by graphviz version 3.0.0 (20220226.1711)
 -->
<!-- Title: is_sum_of_abundant Pages: 1 -->
<svg width="355pt" height="47pt"
 viewBox="0.00 0.00 355.00 47.00" xmlns="http://www.w3.org/2000/svg" xmlns:xlink="http://www.w3.org/1999/xlink">
<g id="graph0" class="graph" transform="scale(1 1) rotate(0) translate(4 43)">
<title>is_sum_of_abundant</title>
<polygon fill="white" stroke="transparent" points="-4,4 -4,-43 351,-43 351,4 -4,4"/>
<!-- Node1 -->
<g id="node1" class="node">
<title>Node1</title>
<g id="a_node1"><a xlink:title="check if a given number can be represented as a sum of two abundant numbers.">
<polygon fill="#bfbfbf" stroke="black" points="0,-0.5 0,-19.5 107,-19.5 107,-0.5 0,-0.5"/>
<text text-anchor="middle" x="53.5" y="-7.5" font-family="Helvetica,sans-Serif" font-size="10.00">is_sum_of_abundant</text>
</a>
</g>
</g>
<!-- Node2 -->
<g id="node2" class="node">
<title>Node2</title>
<g id="a_node2"><a xlink:href="../../d4/dbd/problem__23_2sol2_8c.html#ac5d600bf3077f4188afc4c5cd2c40eaf" target="_top" xlink:title="Find the next abundant number after N and not including N.">
<polygon fill="white" stroke="black" points="143,-19.5 143,-38.5 242,-38.5 242,-19.5 143,-19.5"/>
<text text-anchor="middle" x="192.5" y="-26.5" font-family="Helvetica,sans-Serif" font-size="10.00">get_next_abundant</text>
</a>
</g>
</g>
<!-- Node1&#45;&gt;Node2 -->
<g id="edge1" class="edge">
<title>Node1&#45;&gt;Node2</title>
<path fill="none" stroke="midnightblue" d="M107.08,-17.29C115.54,-18.46 124.34,-19.69 132.93,-20.88"/>
<polygon fill="midnightblue" stroke="midnightblue" points="132.5,-24.35 142.89,-22.26 133.46,-17.42 132.5,-24.35"/>
</g>
<!-- Node3 -->
<g id="node3" class="node">
<title>Node3</title>
<g id="a_node3"><a xlink:href="../../d4/dbd/problem__23_2sol2_8c.html#a34f4ad85151e3a43368ae67f42347f56" target="_top" xlink:title="Is the given number an abundant number (1) or not (0)">
<polygon fill="white" stroke="black" points="278,-0.5 278,-19.5 347,-19.5 347,-0.5 278,-0.5"/>
<text text-anchor="middle" x="312.5" y="-7.5" font-family="Helvetica,sans-Serif" font-size="10.00">is_abundant</text>
</a>
</g>
</g>
<!-- Node1&#45;&gt;Node3 -->
<g id="edge3" class="edge">
<title>Node1&#45;&gt;Node3</title>
<path fill="none" stroke="midnightblue" d="M107.13,-10C154.44,-10 223.13,-10 267.56,-10"/>
<polygon fill="midnightblue" stroke="midnightblue" points="267.76,-13.5 277.76,-10 267.76,-6.5 267.76,-13.5"/>
</g>
<!-- Node2&#45;&gt;Node3 -->
<g id="edge2" class="edge">
<title>Node2&#45;&gt;Node3</title>
<path fill="none" stroke="midnightblue" d="M242.18,-21.16C250.66,-19.8 259.44,-18.38 267.78,-17.04"/>
<polygon fill="midnightblue" stroke="midnightblue" points="268.37,-20.49 277.69,-15.44 267.26,-13.58 268.37,-20.49"/>
</g>
</g>
</svg>
