<?xml version="1.0" encoding="UTF-8" standalone="no"?>
<!DOCTYPE svg PUBLIC "-//W3C//DTD SVG 1.1//EN"
 "http://www.w3.org/Graphics/SVG/1.1/DTD/svg11.dtd">
<!-- Generated by graphviz version 9.0.0 (20230911.1827)
 -->
<!-- Title: main Pages: 1 -->
<svg width="328pt" height="326pt"
 viewBox="0.00 0.00 328.25 326.25" xmlns="http://www.w3.org/2000/svg" xmlns:xlink="http://www.w3.org/1999/xlink">

<svg id="main" version="1.1" xmlns="http://www.w3.org/2000/svg" xmlns:xlink="http://www.w3.org/1999/xlink" xml:space="preserve" onload="init(evt)">
<style type="text/css"><![CDATA[
.node, .edge {opacity: 0.7;}
.node.selected, .edge.selected {opacity: 1;}
.edge:hover path { stroke: red; }
.edge:hover polygon { stroke: red; fill: red; }
]]></style>
<script type="application/ecmascript" xlink:href="../../svg.min.js"/>
<svg id="graph" class="graph">
<g id="graph0" class="graph" transform="scale(1 1) rotate(0) translate(4 322.25)">
<title>main</title>
<!-- Node1 -->
<g id="Node000001" class="node">
<title>Node1</title>
<g id="a_Node000001"><a xlink:title="Main function.">
<polygon fill="#999999" stroke="#666666" points="37,-168.25 0,-168.25 0,-149 37,-149 37,-168.25"/>
<text text-anchor="middle" x="18.5" y="-154.75" font-family="Helvetica,sans-Serif" font-size="10.00">main</text>
</a>
</g>
</g>
<!-- Node2 -->
<g id="Node000002" class="node">
<title>Node2</title>
<g id="a_Node000002"><a xlink:href="../../db/de2/naval__battle_8c.html#ab6e31f8df36de67ff967859069ccfc56" target="_top" xlink:title="Function calculateScore Responsible for calculating the score obtained during the game.">
<polygon fill="white" stroke="#666666" points="163.25,-318.25 82.75,-318.25 82.75,-299 163.25,-299 163.25,-318.25"/>
<text text-anchor="middle" x="123" y="-304.75" font-family="Helvetica,sans-Serif" font-size="10.00">calculateScore</text>
</a>
</g>
</g>
<!-- Node1&#45;&gt;Node2 -->
<g id="edge1_Node000001_Node000002" class="edge">
<title>Node1&#45;&gt;Node2</title>
<g id="a_edge1_Node000001_Node000002"><a xlink:title=" ">
<path fill="none" stroke="#63b8ff" d="M20.74,-168.41C24.3,-192.55 36.75,-255.55 73,-290.62 73.61,-291.22 74.24,-291.79 74.89,-292.34"/>
<polygon fill="#63b8ff" stroke="#63b8ff" points="72.68,-295.07 82.94,-297.7 76.56,-289.24 72.68,-295.07"/>
</a>
</g>
</g>
<!-- Node3 -->
<g id="Node000003" class="node">
<title>Node3</title>
<g id="a_Node000003"><a xlink:href="../../db/de2/naval__battle_8c.html#a59224afd73372b4f52415203e315f6e1" target="_top" xlink:title="Function canShoot Responsible to verify that it is a valid position to shoot.">
<polygon fill="white" stroke="#666666" points="151.62,-281.25 94.38,-281.25 94.38,-262 151.62,-262 151.62,-281.25"/>
<text text-anchor="middle" x="123" y="-267.75" font-family="Helvetica,sans-Serif" font-size="10.00">canShoot</text>
</a>
</g>
</g>
<!-- Node1&#45;&gt;Node3 -->
<g id="edge2_Node000001_Node000003" class="edge">
<title>Node1&#45;&gt;Node3</title>
<g id="a_edge2_Node000001_Node000003"><a xlink:title=" ">
<path fill="none" stroke="#63b8ff" d="M22.47,-168.46C28.73,-187.54 45.03,-229.83 73,-253.62 76.19,-256.34 79.83,-258.66 83.64,-260.64"/>
<polygon fill="#63b8ff" stroke="#63b8ff" points="82.03,-263.76 92.59,-264.53 84.81,-257.33 82.03,-263.76"/>
</a>
</g>
</g>
<!-- Node4 -->
<g id="Node000004" class="node">
<title>Node4</title>
<g id="a_Node000004"><a xlink:href="../../db/de2/naval__battle_8c.html#a3f7d3dc5931fba6164e73057859094d9" target="_top" xlink:title="Function positionBoat Responsible for placing the boats on the board, according to the size.">
<polygon fill="white" stroke="#666666" points="158,-244.25 88,-244.25 88,-225 158,-225 158,-244.25"/>
<text text-anchor="middle" x="123" y="-230.75" font-family="Helvetica,sans-Serif" font-size="10.00">positionBoat</text>
</a>
</g>
</g>
<!-- Node1&#45;&gt;Node4 -->
<g id="edge3_Node000001_Node000004" class="edge">
<title>Node1&#45;&gt;Node4</title>
<g id="a_edge3_Node000001_Node000004"><a xlink:title=" ">
<path fill="none" stroke="#63b8ff" d="M27.81,-168.39C37.73,-179.62 55.21,-198.1 73,-210.62 77.51,-213.8 82.5,-216.77 87.52,-219.46"/>
<polygon fill="#63b8ff" stroke="#63b8ff" points="85.86,-222.55 96.37,-223.91 89,-216.29 85.86,-222.55"/>
</a>
</g>
</g>
<!-- Node6 -->
<g id="Node000006" class="node">
<title>Node6</title>
<g id="a_Node000006"><a xlink:href="../../db/de2/naval__battle_8c.html#a7c5042bd35c4186b06ae28f06635b40e" target="_top" xlink:title="for Standard Input Output">
<polygon fill="white" stroke="#666666" points="320.25,-206.25 209,-206.25 209,-187 320.25,-187 320.25,-206.25"/>
<text text-anchor="middle" x="264.62" y="-192.75" font-family="Helvetica,sans-Serif" font-size="10.00">validEntryLineColumn</text>
</a>
</g>
</g>
<!-- Node1&#45;&gt;Node6 -->
<g id="edge13_Node000001_Node000006" class="edge">
<title>Node1&#45;&gt;Node6</title>
<g id="a_edge13_Node000001_Node000006"><a xlink:title=" ">
<path fill="none" stroke="#63b8ff" d="M37.45,-161.42C70.71,-166.6 143.43,-177.92 197.48,-186.33"/>
<polygon fill="#63b8ff" stroke="#63b8ff" points="196.8,-189.76 207.22,-187.84 197.88,-182.85 196.8,-189.76"/>
</a>
</g>
</g>
<!-- Node7 -->
<g id="Node000007" class="node">
<title>Node7</title>
<g id="a_Node000007"><a xlink:href="../../db/de2/naval__battle_8c.html#a521043b369238e618dcc9364b40448ef" target="_top" xlink:title="Function printMessage Responsible for printing the auxiliary message.">
<polygon fill="white" stroke="#666666" points="301.88,-131.25 227.38,-131.25 227.38,-112 301.88,-112 301.88,-131.25"/>
<text text-anchor="middle" x="264.62" y="-117.75" font-family="Helvetica,sans-Serif" font-size="10.00">printMessage</text>
</a>
</g>
</g>
<!-- Node1&#45;&gt;Node7 -->
<g id="edge6_Node000001_Node000007" class="edge">
<title>Node1&#45;&gt;Node7</title>
<g id="a_edge6_Node000001_Node000007"><a xlink:title=" ">
<path fill="none" stroke="#63b8ff" d="M37.05,-156.87C65.63,-153.93 123.95,-147.52 173,-139.62 186.98,-137.37 202.1,-134.54 215.9,-131.78"/>
<polygon fill="#63b8ff" stroke="#63b8ff" points="216.55,-135.22 225.65,-129.8 215.16,-128.36 216.55,-135.22"/>
</a>
</g>
</g>
<!-- Node8 -->
<g id="Node000008" class="node">
<title>Node8</title>
<g id="a_Node000008"><a xlink:href="../../db/de2/naval__battle_8c.html#a2d65de2c86c7015d7ca400dfca0f25dc" target="_top" xlink:title="Function printMessageScore Responsible for printing the score messages.">
<polygon fill="white" stroke="#666666" points="173,-130.25 73,-130.25 73,-111 173,-111 173,-130.25"/>
<text text-anchor="middle" x="123" y="-116.75" font-family="Helvetica,sans-Serif" font-size="10.00">printMessageScore</text>
</a>
</g>
</g>
<!-- Node1&#45;&gt;Node8 -->
<g id="edge7_Node000001_Node000008" class="edge">
<title>Node1&#45;&gt;Node8</title>
<g id="a_edge7_Node000001_Node000008"><a xlink:title=" ">
<path fill="none" stroke="#63b8ff" d="M37.35,-152.01C50.22,-147.24 68.05,-140.63 84.03,-134.7"/>
<polygon fill="#63b8ff" stroke="#63b8ff" points="85.14,-138.02 93.3,-131.27 82.7,-131.46 85.14,-138.02"/>
</a>
</g>
</g>
<!-- Node9 -->
<g id="Node000009" class="node">
<title>Node9</title>
<g id="a_Node000009"><a xlink:href="../../db/de2/naval__battle_8c.html#a5c84d83e31ca6a320b6ea8081402686a" target="_top" xlink:title="Function printPositioning Responsible for printing messages for positioning boats on the board; of pl...">
<polygon fill="white" stroke="#666666" points="164.38,-93.25 81.62,-93.25 81.62,-74 164.38,-74 164.38,-93.25"/>
<text text-anchor="middle" x="123" y="-79.75" font-family="Helvetica,sans-Serif" font-size="10.00">printPositioning</text>
</a>
</g>
</g>
<!-- Node1&#45;&gt;Node9 -->
<g id="edge8_Node000001_Node000009" class="edge">
<title>Node1&#45;&gt;Node9</title>
<g id="a_edge8_Node000001_Node000009"><a xlink:title=" ">
<path fill="none" stroke="#63b8ff" d="M26.39,-148.84C35.67,-136.31 53.31,-114.66 73,-101.62 74.58,-100.58 76.24,-99.58 77.94,-98.63"/>
<polygon fill="#63b8ff" stroke="#63b8ff" points="79.21,-101.9 86.68,-94.4 76.16,-95.61 79.21,-101.9"/>
</a>
</g>
</g>
<!-- Node10 -->
<g id="Node000010" class="node">
<title>Node10</title>
<g id="a_Node000010"><a xlink:href="../../db/de2/naval__battle_8c.html#ad527fa96e729742a231c4535e112526a" target="_top" xlink:title="Function printsTray Responsible for printing the visual board for the user.">
<polygon fill="white" stroke="#666666" points="152.75,-56.25 93.25,-56.25 93.25,-37 152.75,-37 152.75,-56.25"/>
<text text-anchor="middle" x="123" y="-42.75" font-family="Helvetica,sans-Serif" font-size="10.00">printsTray</text>
</a>
</g>
</g>
<!-- Node1&#45;&gt;Node10 -->
<g id="edge10_Node000001_Node000010" class="edge">
<title>Node1&#45;&gt;Node10</title>
<g id="a_edge10_Node000001_Node000010"><a xlink:title=" ">
<path fill="none" stroke="#63b8ff" d="M22.6,-148.6C28.98,-129.58 45.34,-88.05 73,-64.62 75.87,-62.19 79.1,-60.08 82.49,-58.24"/>
<polygon fill="#63b8ff" stroke="#63b8ff" points="83.92,-61.44 91.6,-54.14 81.04,-55.05 83.92,-61.44"/>
</a>
</g>
</g>
<!-- Node12 -->
<g id="Node000012" class="node">
<title>Node12</title>
<g id="a_Node000012"><a xlink:href="../../db/de2/naval__battle_8c.html#a23e98ed36ca08c1b4bb86c86f48f6e70" target="_top" xlink:title="Function shoot Responsible for saying if he hit a boat.">
<polygon fill="white" stroke="#666666" points="143,-19.25 103,-19.25 103,0 143,0 143,-19.25"/>
<text text-anchor="middle" x="123" y="-5.75" font-family="Helvetica,sans-Serif" font-size="10.00">shoot</text>
</a>
</g>
</g>
<!-- Node1&#45;&gt;Node12 -->
<g id="edge12_Node000001_Node000012" class="edge">
<title>Node1&#45;&gt;Node12</title>
<g id="a_edge12_Node000001_Node000012"><a xlink:title=" ">
<path fill="none" stroke="#63b8ff" d="M20.82,-148.56C24.5,-124.34 37.11,-62.25 73,-27.62 78.31,-22.5 85.19,-18.82 92.11,-16.18"/>
<polygon fill="#63b8ff" stroke="#63b8ff" points="92.86,-19.61 101.36,-13.28 90.77,-12.93 92.86,-19.61"/>
</a>
</g>
</g>
<!-- Node5 -->
<g id="Node000005" class="node">
<title>Node5</title>
<g id="a_Node000005"><a xlink:href="../../db/de2/naval__battle_8c.html#a4a5686c91f144d07eff1c6576303962d" target="_top" xlink:title="Function validatePosition Responsible for checking if the position can receive the boat.">
<polygon fill="white" stroke="#666666" points="307.12,-244.25 222.12,-244.25 222.12,-225 307.12,-225 307.12,-244.25"/>
<text text-anchor="middle" x="264.62" y="-230.75" font-family="Helvetica,sans-Serif" font-size="10.00">validatePosition</text>
</a>
</g>
</g>
<!-- Node4&#45;&gt;Node5 -->
<g id="edge4_Node000004_Node000005" class="edge">
<title>Node4&#45;&gt;Node5</title>
<g id="a_edge4_Node000004_Node000005"><a xlink:title=" ">
<path fill="none" stroke="#63b8ff" d="M158.16,-234.62C173.92,-234.62 192.99,-234.62 210.57,-234.62"/>
<polygon fill="#63b8ff" stroke="#63b8ff" points="210.33,-238.13 220.33,-234.63 210.33,-231.13 210.33,-238.13"/>
</a>
</g>
</g>
<!-- Node4&#45;&gt;Node6 -->
<g id="edge5_Node000004_Node000006" class="edge">
<title>Node4&#45;&gt;Node6</title>
<g id="a_edge5_Node000004_Node000006"><a xlink:title=" ">
<path fill="none" stroke="#63b8ff" d="M158.16,-225.33C175.57,-220.59 197.03,-214.75 216.03,-209.58"/>
<polygon fill="#63b8ff" stroke="#63b8ff" points="216.7,-213.02 225.43,-207.02 214.86,-206.27 216.7,-213.02"/>
</a>
</g>
</g>
<!-- Node9&#45;&gt;Node7 -->
<g id="edge9_Node000009_Node000007" class="edge">
<title>Node9&#45;&gt;Node7</title>
<g id="a_edge9_Node000009_Node000007"><a xlink:title=" ">
<path fill="none" stroke="#63b8ff" d="M161.05,-93.71C177.83,-98.28 197.88,-103.73 215.78,-108.6"/>
<polygon fill="#63b8ff" stroke="#63b8ff" points="214.86,-111.98 225.43,-111.23 216.7,-105.23 214.86,-111.98"/>
</a>
</g>
</g>
<!-- Node11 -->
<g id="Node000011" class="node">
<title>Node11</title>
<g id="a_Node000011"><a xlink:href="../../db/de2/naval__battle_8c.html#a3889e1ee574e03ffdde8804180d57543" target="_top" xlink:title="Function printTable Responsible for printing the board.">
<polygon fill="white" stroke="#666666" points="293.62,-56.25 235.62,-56.25 235.62,-37 293.62,-37 293.62,-56.25"/>
<text text-anchor="middle" x="264.62" y="-42.75" font-family="Helvetica,sans-Serif" font-size="10.00">printTable</text>
</a>
</g>
</g>
<!-- Node10&#45;&gt;Node11 -->
<g id="edge11_Node000010_Node000011" class="edge">
<title>Node10&#45;&gt;Node11</title>
<g id="a_edge11_Node000010_Node000011"><a xlink:title=" ">
<path fill="none" stroke="#63b8ff" d="M152.93,-46.62C173.47,-46.62 201.31,-46.62 223.92,-46.62"/>
<polygon fill="#63b8ff" stroke="#63b8ff" points="223.7,-50.13 233.7,-46.63 223.7,-43.13 223.7,-50.13"/>
</a>
</g>
</g>
</g>
</svg>
</svg>

<style type='text/css'>
<![CDATA[
[data-mouse-over-selected='false'] { opacity: 0.7; }
[data-mouse-over-selected='true']  { opacity: 1.0; }
]]>
</style>
<script type="application/ecmascript"><![CDATA[
document.addEventListener('DOMContentLoaded', (event) => {
  highlightEdges();
  highlightAdjacentNodes();
});
]]></script>
</svg>
