<?xml version="1.0" encoding="UTF-8" standalone="no"?>
<!DOCTYPE svg PUBLIC "-//W3C//DTD SVG 1.1//EN"
 "http://www.w3.org/Graphics/SVG/1.1/DTD/svg11.dtd">
<!-- Generated by graphviz version 8.0.4 (20230421.1958)
 -->
<!-- Title: data_structures/linked_list/circular_doubly_linked_list.c Pages: 1 -->
<svg width="264pt" height="105pt"
 viewBox="0.00 0.00 264.38 105.00" xmlns="http://www.w3.org/2000/svg" xmlns:xlink="http://www.w3.org/1999/xlink">
<g id="graph0" class="graph" transform="scale(1 1) rotate(0) translate(4 101)">
<title>data_structures/linked_list/circular_doubly_linked_list.c</title>
<!-- Node1 -->
<g id="node1" class="node">
<title>Node1</title>
<g id="a_node1"><a xlink:title=" ">
<polygon fill="#999999" stroke="#666666" points="189.62,-97 77.62,-97 77.62,-55.25 189.62,-55.25 189.62,-97"/>
<text text-anchor="start" x="85.62" y="-83.5" font-family="Helvetica,sans-Serif" font-size="10.00">data_structures/linked</text>
<text text-anchor="start" x="85.62" y="-72.25" font-family="Helvetica,sans-Serif" font-size="10.00">_list/circular_doubly</text>
<text text-anchor="middle" x="133.62" y="-61" font-family="Helvetica,sans-Serif" font-size="10.00">_linked_list.c</text>
</a>
</g>
</g>
<!-- Node2 -->
<g id="node2" class="node">
<title>Node2</title>
<g id="a_node2"><a xlink:title=" ">
<polygon fill="#e0e0e0" stroke="#999999" points="51.25,-19.25 0,-19.25 0,0 51.25,0 51.25,-19.25"/>
<text text-anchor="middle" x="25.62" y="-5.75" font-family="Helvetica,sans-Serif" font-size="10.00">assert.h</text>
</a>
</g>
</g>
<!-- Node1&#45;&gt;Node2 -->
<g id="edge1" class="edge">
<title>Node1&#45;&gt;Node2</title>
<path fill="none" stroke="#63b8ff" d="M99.75,-54.89C83.67,-45.29 64.8,-34.02 50.13,-25.26"/>
<polygon fill="#63b8ff" stroke="#63b8ff" points="52.11,-21.77 41.73,-19.64 48.52,-27.78 52.11,-21.77"/>
</g>
<!-- Node3 -->
<g id="node3" class="node">
<title>Node3</title>
<g id="a_node3"><a xlink:title=" ">
<polygon fill="#e0e0e0" stroke="#999999" points="128,-19.25 69.25,-19.25 69.25,0 128,0 128,-19.25"/>
<text text-anchor="middle" x="98.62" y="-5.75" font-family="Helvetica,sans-Serif" font-size="10.00">inttypes.h</text>
</a>
</g>
</g>
<!-- Node1&#45;&gt;Node3 -->
<g id="edge2" class="edge">
<title>Node1&#45;&gt;Node3</title>
<path fill="none" stroke="#63b8ff" d="M122.74,-55.07C118.28,-46.84 113.14,-37.37 108.75,-29.29"/>
<polygon fill="#63b8ff" stroke="#63b8ff" points="111.39,-27.82 103.55,-20.7 105.24,-31.15 111.39,-27.82"/>
</g>
<!-- Node4 -->
<g id="node4" class="node">
<title>Node4</title>
<g id="a_node4"><a xlink:title=" ">
<polygon fill="#e0e0e0" stroke="#999999" points="191.25,-19.25 146,-19.25 146,0 191.25,0 191.25,-19.25"/>
<text text-anchor="middle" x="168.62" y="-5.75" font-family="Helvetica,sans-Serif" font-size="10.00">stdio.h</text>
</a>
</g>
</g>
<!-- Node1&#45;&gt;Node4 -->
<g id="edge3" class="edge">
<title>Node1&#45;&gt;Node4</title>
<path fill="none" stroke="#63b8ff" d="M144.51,-55.07C148.97,-46.84 154.11,-37.37 158.5,-29.29"/>
<polygon fill="#63b8ff" stroke="#63b8ff" points="162.01,-31.15 163.7,-20.7 155.86,-27.82 162.01,-31.15"/>
</g>
<!-- Node5 -->
<g id="node5" class="node">
<title>Node5</title>
<g id="a_node5"><a xlink:title=" ">
<polygon fill="#e0e0e0" stroke="#999999" points="256.38,-19.25 208.88,-19.25 208.88,0 256.38,0 256.38,-19.25"/>
<text text-anchor="middle" x="232.62" y="-5.75" font-family="Helvetica,sans-Serif" font-size="10.00">stdlib.h</text>
</a>
</g>
</g>
<!-- Node1&#45;&gt;Node5 -->
<g id="edge4" class="edge">
<title>Node1&#45;&gt;Node5</title>
<path fill="none" stroke="#63b8ff" d="M164.68,-54.89C179.28,-45.38 196.38,-34.24 209.77,-25.51"/>
<polygon fill="#63b8ff" stroke="#63b8ff" points="211.31,-28.04 217.78,-19.64 207.49,-22.17 211.31,-28.04"/>
</g>
</g>
</svg>
