<?xml version="1.0" encoding="UTF-8" standalone="no"?>
<!DOCTYPE svg PUBLIC "-//W3C//DTD SVG 1.1//EN"
 "http://www.w3.org/Graphics/SVG/1.1/DTD/svg11.dtd">
<!-- Generated by graphviz version 7.0.6 (20230106.0513)
 -->
<!-- Title: calculate_tat Pages: 1 -->
<svg width="275pt" height="101pt"
 viewBox="0.00 0.00 275.00 101.00" xmlns="http://www.w3.org/2000/svg" xmlns:xlink="http://www.w3.org/1999/xlink">
<g id="graph0" class="graph" transform="scale(1 1) rotate(0) translate(4 97)">
<title>calculate_tat</title>
<!-- Node1 -->
<g id="node1" class="node">
<title>Node1</title>
<g id="a_node1"><a xlink:title="To calculate the average turn around time of all the processes.">
<polygon fill="#999999" stroke="#666666" points="72,-38 0,-38 0,-19 72,-19 72,-38"/>
<text text-anchor="middle" x="36" y="-26" font-family="Helvetica,sans-Serif" font-size="10.00">calculate_tat</text>
</a>
</g>
</g>
<!-- Node2 -->
<g id="node2" class="node">
<title>Node2</title>
<g id="a_node2"><a xlink:href="../../d2/d87/non__preemptive__priority__scheduling_8c.html#abbb2446313782dd3ba9ff2a7ad0ce1df" target="_top" xlink:title="To calculate the average completion time of all the processes.">
<polygon fill="white" stroke="#666666" points="177,-57 108,-57 108,-38 177,-38 177,-57"/>
<text text-anchor="middle" x="142.5" y="-45" font-family="Helvetica,sans-Serif" font-size="10.00">calculate_ct</text>
</a>
</g>
</g>
<!-- Node1&#45;&gt;Node2 -->
<g id="edge1" class="edge">
<title>Node1&#45;&gt;Node2</title>
<path fill="none" stroke="#63b8ff" d="M72.38,-34.93C80.11,-36.34 88.38,-37.84 96.43,-39.31"/>
<polygon fill="#63b8ff" stroke="#63b8ff" points="95.62,-42.72 106.08,-41.06 96.87,-35.83 95.62,-42.72"/>
</g>
<!-- Node5 -->
<g id="node5" class="node">
<title>Node5</title>
<g id="a_node5"><a xlink:href="../../d2/d87/non__preemptive__priority__scheduling_8c.html#a40e454ce0750e794007bf41a7102b3a9" target="_top" xlink:title="To length process queue.">
<polygon fill="white" stroke="#666666" points="265,-19 215,-19 215,0 265,0 265,-19"/>
<text text-anchor="middle" x="240" y="-7" font-family="Helvetica,sans-Serif" font-size="10.00">l_length</text>
</a>
</g>
</g>
<!-- Node1&#45;&gt;Node5 -->
<g id="edge5" class="edge">
<title>Node1&#45;&gt;Node5</title>
<path fill="none" stroke="#63b8ff" d="M72.19,-25.19C109.01,-21.73 166.5,-16.32 203.45,-12.84"/>
<polygon fill="#63b8ff" stroke="#63b8ff" points="203.54,-16.35 213.17,-11.93 202.89,-9.38 203.54,-16.35"/>
</g>
<!-- Node3 -->
<g id="node3" class="node">
<title>Node3</title>
<g id="a_node3"><a xlink:href="../../d2/d87/non__preemptive__priority__scheduling_8c.html#a01b8ee561d8532a44d665c2c854e0d09" target="_top" xlink:title="To compare the priority of two processes based on their arrival time and priority.">
<polygon fill="white" stroke="#666666" points="267,-93 213,-93 213,-74 267,-74 267,-93"/>
<text text-anchor="middle" x="240" y="-81" font-family="Helvetica,sans-Serif" font-size="10.00">compare</text>
</a>
</g>
</g>
<!-- Node2&#45;&gt;Node3 -->
<g id="edge2" class="edge">
<title>Node2&#45;&gt;Node3</title>
<path fill="none" stroke="#63b8ff" d="M169.85,-57.43C179.87,-61.21 191.48,-65.58 202.28,-69.66"/>
<polygon fill="#63b8ff" stroke="#63b8ff" points="200.73,-72.81 211.32,-73.07 203.2,-66.26 200.73,-72.81"/>
</g>
<!-- Node4 -->
<g id="node4" class="node">
<title>Node4</title>
<g id="a_node4"><a xlink:href="../../d2/d87/non__preemptive__priority__scheduling_8c.html#a5d0943b2e0e1b48b9c3a575a7f262c36" target="_top" xlink:title="To insert a new process in the queue.">
<polygon fill="white" stroke="#666666" points="260.5,-56 219.5,-56 219.5,-37 260.5,-37 260.5,-56"/>
<text text-anchor="middle" x="240" y="-44" font-family="Helvetica,sans-Serif" font-size="10.00">insert</text>
</a>
</g>
</g>
<!-- Node2&#45;&gt;Node4 -->
<g id="edge3" class="edge">
<title>Node2&#45;&gt;Node4</title>
<path fill="none" stroke="#63b8ff" d="M177.44,-47.14C187.35,-47.04 198.13,-46.93 207.85,-46.83"/>
<polygon fill="#63b8ff" stroke="#63b8ff" points="207.59,-50.33 217.56,-46.72 207.52,-43.33 207.59,-50.33"/>
</g>
<!-- Node2&#45;&gt;Node5 -->
<g id="edge4" class="edge">
<title>Node2&#45;&gt;Node5</title>
<path fill="none" stroke="#63b8ff" d="M168.59,-37.52C179.51,-33.17 192.48,-28.01 204.3,-23.31"/>
<polygon fill="#63b8ff" stroke="#63b8ff" points="205.33,-26.66 213.33,-19.71 202.74,-20.16 205.33,-26.66"/>
</g>
</g>
</svg>
