<?xml version="1.0" encoding="UTF-8" standalone="no"?>
<!DOCTYPE svg PUBLIC "-//W3C//DTD SVG 1.1//EN"
 "http://www.w3.org/Graphics/SVG/1.1/DTD/svg11.dtd">
<!-- Generated by graphviz version 7.0.4 (20221203.1631)
 -->
<!-- Title: main Pages: 1 -->
<svg width="418pt" height="102pt"
 viewBox="0.00 0.00 418.00 102.00" xmlns="http://www.w3.org/2000/svg" xmlns:xlink="http://www.w3.org/1999/xlink">
<g id="graph0" class="graph" transform="scale(1 1) rotate(0) translate(4 98)">
<title>main</title>
<!-- Node1 -->
<g id="node1" class="node">
<title>Node1</title>
<g id="a_node1"><a xlink:title="Main function.">
<polygon fill="#999999" stroke="#666666" points="38,-56 0,-56 0,-37 38,-37 38,-56"/>
<text text-anchor="middle" x="19" y="-44" font-family="Helvetica,sans-Serif" font-size="10.00">main</text>
</a>
</g>
</g>
<!-- Node2 -->
<g id="node2" class="node">
<title>Node2</title>
<g id="a_node2"><a xlink:href="../../d2/d87/non__preemptive__priority__scheduling_8c.html#aa8dca7b867074164d5f45b0f3851269d" target="_top" xlink:title="Self&#45;test implementations.">
<polygon fill="white" stroke="#666666" points="107,-56 74,-56 74,-37 107,-37 107,-56"/>
<text text-anchor="middle" x="90.5" y="-44" font-family="Helvetica,sans-Serif" font-size="10.00">test</text>
</a>
</g>
</g>
<!-- Node1&#45;&gt;Node2 -->
<g id="edge1" class="edge">
<title>Node1&#45;&gt;Node2</title>
<path fill="none" stroke="#63b8ff" d="M38.26,-46.5C45.72,-46.5 54.5,-46.5 62.66,-46.5"/>
<polygon fill="#63b8ff" stroke="#63b8ff" points="62.44,-50 72.44,-46.5 62.44,-43 62.44,-50"/>
</g>
<!-- Node3 -->
<g id="node3" class="node">
<title>Node3</title>
<g id="a_node3"><a xlink:href="../../d2/d87/non__preemptive__priority__scheduling_8c.html#abbb2446313782dd3ba9ff2a7ad0ce1df" target="_top" xlink:title="To calculate the average completion time of all the processes.">
<polygon fill="white" stroke="#666666" points="320,-94 251,-94 251,-75 320,-75 320,-94"/>
<text text-anchor="middle" x="285.5" y="-82" font-family="Helvetica,sans-Serif" font-size="10.00">calculate_ct</text>
</a>
</g>
</g>
<!-- Node2&#45;&gt;Node3 -->
<g id="edge2" class="edge">
<title>Node2&#45;&gt;Node3</title>
<path fill="none" stroke="#63b8ff" d="M107.45,-53.42C117.48,-57.51 130.79,-62.47 143,-65.5 174.68,-73.37 211.21,-78.17 239.22,-80.98"/>
<polygon fill="#63b8ff" stroke="#63b8ff" points="238.87,-84.46 249.15,-81.92 239.53,-77.49 238.87,-84.46"/>
</g>
<!-- Node6 -->
<g id="node6" class="node">
<title>Node6</title>
<g id="a_node6"><a xlink:href="../../d2/d87/non__preemptive__priority__scheduling_8c.html#a458803d3c3926a6bcc4d51540f297756" target="_top" xlink:title="To calculate the average turn around time of all the processes.">
<polygon fill="white" stroke="#666666" points="215,-56 143,-56 143,-37 215,-37 215,-56"/>
<text text-anchor="middle" x="179" y="-44" font-family="Helvetica,sans-Serif" font-size="10.00">calculate_tat</text>
</a>
</g>
</g>
<!-- Node2&#45;&gt;Node6 -->
<g id="edge5" class="edge">
<title>Node2&#45;&gt;Node6</title>
<path fill="none" stroke="#63b8ff" d="M107.37,-46.5C114.22,-46.5 122.62,-46.5 131.22,-46.5"/>
<polygon fill="#63b8ff" stroke="#63b8ff" points="131,-50 141,-46.5 131,-43 131,-50"/>
</g>
<!-- Node7 -->
<g id="node7" class="node">
<title>Node7</title>
<g id="a_node7"><a xlink:href="../../d2/d87/non__preemptive__priority__scheduling_8c.html#ae5e4de64ef6c5676d5013d90229a875c" target="_top" xlink:title="To calculate the average waiting time of all the processes.">
<polygon fill="white" stroke="#666666" points="214.5,-19 143.5,-19 143.5,0 214.5,0 214.5,-19"/>
<text text-anchor="middle" x="179" y="-7" font-family="Helvetica,sans-Serif" font-size="10.00">calculate_wt</text>
</a>
</g>
</g>
<!-- Node2&#45;&gt;Node7 -->
<g id="edge8" class="edge">
<title>Node2&#45;&gt;Node7</title>
<path fill="none" stroke="#63b8ff" d="M107.37,-39.71C117.73,-35.28 131.66,-29.32 144.41,-23.87"/>
<polygon fill="#63b8ff" stroke="#63b8ff" points="145.52,-27.2 153.34,-20.05 142.77,-20.76 145.52,-27.2"/>
</g>
<!-- Node4 -->
<g id="node4" class="node">
<title>Node4</title>
<g id="a_node4"><a xlink:href="../../d2/d87/non__preemptive__priority__scheduling_8c.html#a01b8ee561d8532a44d665c2c854e0d09" target="_top" xlink:title="To compare the priority of two processes based on their arrival time and priority.">
<polygon fill="white" stroke="#666666" points="410,-94 356,-94 356,-75 410,-75 410,-94"/>
<text text-anchor="middle" x="383" y="-82" font-family="Helvetica,sans-Serif" font-size="10.00">compare</text>
</a>
</g>
</g>
<!-- Node3&#45;&gt;Node4 -->
<g id="edge3" class="edge">
<title>Node3&#45;&gt;Node4</title>
<path fill="none" stroke="#63b8ff" d="M320.44,-84.5C328.13,-84.5 336.34,-84.5 344.18,-84.5"/>
<polygon fill="#63b8ff" stroke="#63b8ff" points="344.16,-88 354.16,-84.5 344.16,-81 344.16,-88"/>
</g>
<!-- Node5 -->
<g id="node5" class="node">
<title>Node5</title>
<g id="a_node5"><a xlink:href="../../d2/d87/non__preemptive__priority__scheduling_8c.html#a40e454ce0750e794007bf41a7102b3a9" target="_top" xlink:title="To length process queue.">
<polygon fill="white" stroke="#666666" points="408,-56 358,-56 358,-37 408,-37 408,-56"/>
<text text-anchor="middle" x="383" y="-44" font-family="Helvetica,sans-Serif" font-size="10.00">l_length</text>
</a>
</g>
</g>
<!-- Node3&#45;&gt;Node5 -->
<g id="edge4" class="edge">
<title>Node3&#45;&gt;Node5</title>
<path fill="none" stroke="#63b8ff" d="M311.59,-74.52C322.51,-70.17 335.48,-65.01 347.3,-60.31"/>
<polygon fill="#63b8ff" stroke="#63b8ff" points="348.33,-63.66 356.33,-56.71 345.74,-57.16 348.33,-63.66"/>
</g>
<!-- Node6&#45;&gt;Node3 -->
<g id="edge6" class="edge">
<title>Node6&#45;&gt;Node3</title>
<path fill="none" stroke="#63b8ff" d="M207.46,-56.48C219.46,-60.85 233.73,-66.04 246.71,-70.76"/>
<polygon fill="#63b8ff" stroke="#63b8ff" points="245.21,-73.94 255.8,-74.07 247.6,-67.36 245.21,-73.94"/>
</g>
<!-- Node6&#45;&gt;Node5 -->
<g id="edge7" class="edge">
<title>Node6&#45;&gt;Node5</title>
<path fill="none" stroke="#63b8ff" d="M215.19,-46.5C252.01,-46.5 309.5,-46.5 346.45,-46.5"/>
<polygon fill="#63b8ff" stroke="#63b8ff" points="346.16,-50 356.16,-46.5 346.16,-43 346.16,-50"/>
</g>
<!-- Node7&#45;&gt;Node3 -->
<g id="edge9" class="edge">
<title>Node7&#45;&gt;Node3</title>
<path fill="none" stroke="#63b8ff" d="M201.14,-19.46C205.81,-21.91 210.66,-24.65 215,-27.5 233.23,-39.47 252.27,-55.36 265.8,-67.32"/>
<polygon fill="#63b8ff" stroke="#63b8ff" points="263.31,-69.78 273.08,-73.86 267.98,-64.58 263.31,-69.78"/>
</g>
<!-- Node7&#45;&gt;Node5 -->
<g id="edge10" class="edge">
<title>Node7&#45;&gt;Node5</title>
<path fill="none" stroke="#63b8ff" d="M214.73,-15.86C251.47,-22.59 309.17,-33.16 346.28,-39.96"/>
<polygon fill="#63b8ff" stroke="#63b8ff" points="345.6,-43.39 356.07,-41.75 346.86,-36.51 345.6,-43.39"/>
</g>
</g>
</svg>
