<?xml version="1.0" encoding="UTF-8" standalone="no"?>
<!DOCTYPE svg PUBLIC "-//W3C//DTD SVG 1.1//EN"
 "http://www.w3.org/Graphics/SVG/1.1/DTD/svg11.dtd">
<!-- Generated by graphviz version 7.0.6 (20230106.0513)
 -->
<!-- Title: main Pages: 1 -->
<svg width="418pt" height="139pt"
 viewBox="0.00 0.00 418.00 139.00" xmlns="http://www.w3.org/2000/svg" xmlns:xlink="http://www.w3.org/1999/xlink">
<g id="graph0" class="graph" transform="scale(1 1) rotate(0) translate(4 135)">
<title>main</title>
<!-- Node1 -->
<g id="node1" class="node">
<title>Node1</title>
<g id="a_node1"><a xlink:title="Main function.">
<polygon fill="#999999" stroke="#666666" points="38,-75 0,-75 0,-56 38,-56 38,-75"/>
<text text-anchor="middle" x="19" y="-63" font-family="Helvetica,sans-Serif" font-size="10.00">main</text>
</a>
</g>
</g>
<!-- Node2 -->
<g id="node2" class="node">
<title>Node2</title>
<g id="a_node2"><a xlink:href="../../d2/d87/non__preemptive__priority__scheduling_8c.html#aa8dca7b867074164d5f45b0f3851269d" target="_top" xlink:title="Self&#45;test implementations.">
<polygon fill="white" stroke="#666666" points="107,-75 74,-75 74,-56 107,-56 107,-75"/>
<text text-anchor="middle" x="90.5" y="-63" font-family="Helvetica,sans-Serif" font-size="10.00">test</text>
</a>
</g>
</g>
<!-- Node1&#45;&gt;Node2 -->
<g id="edge1" class="edge">
<title>Node1&#45;&gt;Node2</title>
<path fill="none" stroke="#63b8ff" d="M38.26,-65.5C45.72,-65.5 54.5,-65.5 62.66,-65.5"/>
<polygon fill="#63b8ff" stroke="#63b8ff" points="62.44,-69 72.44,-65.5 62.44,-62 62.44,-69"/>
</g>
<!-- Node3 -->
<g id="node3" class="node">
<title>Node3</title>
<g id="a_node3"><a xlink:href="../../d2/d87/non__preemptive__priority__scheduling_8c.html#abbb2446313782dd3ba9ff2a7ad0ce1df" target="_top" xlink:title="To calculate the average completion time of all the processes.">
<polygon fill="white" stroke="#666666" points="320,-56 251,-56 251,-37 320,-37 320,-56"/>
<text text-anchor="middle" x="285.5" y="-44" font-family="Helvetica,sans-Serif" font-size="10.00">calculate_ct</text>
</a>
</g>
</g>
<!-- Node2&#45;&gt;Node3 -->
<g id="edge2" class="edge">
<title>Node2&#45;&gt;Node3</title>
<path fill="none" stroke="#63b8ff" d="M107.29,-63.95C135.77,-61.14 196.68,-55.15 239.09,-50.97"/>
<polygon fill="#63b8ff" stroke="#63b8ff" points="239.4,-54.46 249.01,-49.99 238.72,-47.49 239.4,-54.46"/>
</g>
<!-- Node5 -->
<g id="node5" class="node">
<title>Node5</title>
<g id="a_node5"><a xlink:href="../../d2/d87/non__preemptive__priority__scheduling_8c.html#a5d0943b2e0e1b48b9c3a575a7f262c36" target="_top" xlink:title="To insert a new process in the queue.">
<polygon fill="white" stroke="#666666" points="403.5,-19 362.5,-19 362.5,0 403.5,0 403.5,-19"/>
<text text-anchor="middle" x="383" y="-7" font-family="Helvetica,sans-Serif" font-size="10.00">insert</text>
</a>
</g>
</g>
<!-- Node2&#45;&gt;Node5 -->
<g id="edge12" class="edge">
<title>Node2&#45;&gt;Node5</title>
<path fill="none" stroke="#63b8ff" d="M107.16,-60.19C117.31,-56.85 130.85,-52.62 143,-49.5 216.51,-30.65 305.08,-18.5 351,-12.97"/>
<polygon fill="#63b8ff" stroke="#63b8ff" points="351.22,-16.47 360.74,-11.83 350.4,-9.52 351.22,-16.47"/>
</g>
<!-- Node7 -->
<g id="node7" class="node">
<title>Node7</title>
<g id="a_node7"><a xlink:href="../../d2/d87/non__preemptive__priority__scheduling_8c.html#a458803d3c3926a6bcc4d51540f297756" target="_top" xlink:title="To calculate the average turn around time of all the processes.">
<polygon fill="white" stroke="#666666" points="215,-94 143,-94 143,-75 215,-75 215,-94"/>
<text text-anchor="middle" x="179" y="-82" font-family="Helvetica,sans-Serif" font-size="10.00">calculate_tat</text>
</a>
</g>
</g>
<!-- Node2&#45;&gt;Node7 -->
<g id="edge6" class="edge">
<title>Node2&#45;&gt;Node7</title>
<path fill="none" stroke="#63b8ff" d="M107.37,-68.98C114.29,-70.51 122.81,-72.38 131.51,-74.29"/>
<polygon fill="#63b8ff" stroke="#63b8ff" points="130.51,-77.65 141.03,-76.38 132.01,-70.82 130.51,-77.65"/>
</g>
<!-- Node8 -->
<g id="node8" class="node">
<title>Node8</title>
<g id="a_node8"><a xlink:href="../../d2/d87/non__preemptive__priority__scheduling_8c.html#ae5e4de64ef6c5676d5013d90229a875c" target="_top" xlink:title="To calculate the average waiting time of all the processes.">
<polygon fill="white" stroke="#666666" points="214.5,-131 143.5,-131 143.5,-112 214.5,-112 214.5,-131"/>
<text text-anchor="middle" x="179" y="-119" font-family="Helvetica,sans-Serif" font-size="10.00">calculate_wt</text>
</a>
</g>
</g>
<!-- Node2&#45;&gt;Node8 -->
<g id="edge9" class="edge">
<title>Node2&#45;&gt;Node8</title>
<path fill="none" stroke="#63b8ff" d="M103.8,-75.45C114,-83.48 129.03,-94.83 143,-103.5 144.42,-104.38 145.88,-105.25 147.37,-106.12"/>
<polygon fill="#63b8ff" stroke="#63b8ff" points="145.56,-109.11 156.01,-110.84 148.92,-102.97 145.56,-109.11"/>
</g>
<!-- Node4 -->
<g id="node4" class="node">
<title>Node4</title>
<g id="a_node4"><a xlink:href="../../d2/d87/non__preemptive__priority__scheduling_8c.html#a01b8ee561d8532a44d665c2c854e0d09" target="_top" xlink:title="To compare the priority of two processes based on their arrival time and priority.">
<polygon fill="white" stroke="#666666" points="410,-56 356,-56 356,-37 410,-37 410,-56"/>
<text text-anchor="middle" x="383" y="-44" font-family="Helvetica,sans-Serif" font-size="10.00">compare</text>
</a>
</g>
</g>
<!-- Node3&#45;&gt;Node4 -->
<g id="edge3" class="edge">
<title>Node3&#45;&gt;Node4</title>
<path fill="none" stroke="#63b8ff" d="M320.44,-46.5C328.13,-46.5 336.34,-46.5 344.18,-46.5"/>
<polygon fill="#63b8ff" stroke="#63b8ff" points="344.16,-50 354.16,-46.5 344.16,-43 344.16,-50"/>
</g>
<!-- Node3&#45;&gt;Node5 -->
<g id="edge4" class="edge">
<title>Node3&#45;&gt;Node5</title>
<path fill="none" stroke="#63b8ff" d="M312.09,-36.58C324.23,-31.88 338.82,-26.23 351.52,-21.31"/>
<polygon fill="#63b8ff" stroke="#63b8ff" points="352.62,-24.64 360.68,-17.76 350.09,-18.11 352.62,-24.64"/>
</g>
<!-- Node6 -->
<g id="node6" class="node">
<title>Node6</title>
<g id="a_node6"><a xlink:href="../../d2/d87/non__preemptive__priority__scheduling_8c.html#a40e454ce0750e794007bf41a7102b3a9" target="_top" xlink:title="To length process queue.">
<polygon fill="white" stroke="#666666" points="408,-94 358,-94 358,-75 408,-75 408,-94"/>
<text text-anchor="middle" x="383" y="-82" font-family="Helvetica,sans-Serif" font-size="10.00">l_length</text>
</a>
</g>
</g>
<!-- Node3&#45;&gt;Node6 -->
<g id="edge5" class="edge">
<title>Node3&#45;&gt;Node6</title>
<path fill="none" stroke="#63b8ff" d="M311.59,-56.48C322.51,-60.83 335.48,-65.99 347.3,-70.69"/>
<polygon fill="#63b8ff" stroke="#63b8ff" points="345.74,-73.84 356.33,-74.29 348.33,-67.34 345.74,-73.84"/>
</g>
<!-- Node7&#45;&gt;Node3 -->
<g id="edge7" class="edge">
<title>Node7&#45;&gt;Node3</title>
<path fill="none" stroke="#63b8ff" d="M207.46,-74.52C219.46,-70.15 233.73,-64.96 246.71,-60.24"/>
<polygon fill="#63b8ff" stroke="#63b8ff" points="247.6,-63.64 255.8,-56.93 245.21,-57.06 247.6,-63.64"/>
</g>
<!-- Node7&#45;&gt;Node6 -->
<g id="edge8" class="edge">
<title>Node7&#45;&gt;Node6</title>
<path fill="none" stroke="#63b8ff" d="M215.19,-84.5C252.01,-84.5 309.5,-84.5 346.45,-84.5"/>
<polygon fill="#63b8ff" stroke="#63b8ff" points="346.16,-88 356.16,-84.5 346.16,-81 346.16,-88"/>
</g>
<!-- Node8&#45;&gt;Node3 -->
<g id="edge10" class="edge">
<title>Node8&#45;&gt;Node3</title>
<path fill="none" stroke="#63b8ff" d="M201.14,-111.54C205.81,-109.09 210.66,-106.35 215,-103.5 233.23,-91.53 252.27,-75.64 265.8,-63.68"/>
<polygon fill="#63b8ff" stroke="#63b8ff" points="267.98,-66.42 273.08,-57.14 263.31,-61.22 267.98,-66.42"/>
</g>
<!-- Node8&#45;&gt;Node6 -->
<g id="edge11" class="edge">
<title>Node8&#45;&gt;Node6</title>
<path fill="none" stroke="#63b8ff" d="M214.91,-116.35C243.3,-112.03 284.34,-105.45 320,-98.5 328.66,-96.81 337.96,-94.81 346.65,-92.86"/>
<polygon fill="#63b8ff" stroke="#63b8ff" points="347.18,-96.33 356.15,-90.69 345.63,-89.51 347.18,-96.33"/>
</g>
</g>
</svg>
