<?xml version="1.0" encoding="UTF-8" standalone="no"?>
<!DOCTYPE svg PUBLIC "-//W3C//DTD SVG 1.1//EN"
 "http://www.w3.org/Graphics/SVG/1.1/DTD/svg11.dtd">
<!-- Generated by graphviz version 8.0.2 (20230410.1723)
 -->
<!-- Title: calculate_wt Pages: 1 -->
<svg width="274pt" height="101pt"
 viewBox="0.00 0.00 274.00 101.00" xmlns="http://www.w3.org/2000/svg" xmlns:xlink="http://www.w3.org/1999/xlink">
<g id="graph0" class="graph" transform="scale(1 1) rotate(0) translate(4 97)">
<title>calculate_wt</title>
<!-- Node1 -->
<g id="node1" class="node">
<title>Node1</title>
<g id="a_node1"><a xlink:title="To calculate the average waiting time of all the processes.">
<polygon fill="#999999" stroke="#666666" points="71,-38 0,-38 0,-19 71,-19 71,-38"/>
<text text-anchor="middle" x="35.5" y="-26" font-family="Helvetica,sans-Serif" font-size="10.00">calculate_wt</text>
</a>
</g>
</g>
<!-- Node2 -->
<g id="node2" class="node">
<title>Node2</title>
<g id="a_node2"><a xlink:href="../../d2/d87/non__preemptive__priority__scheduling_8c.html#abbb2446313782dd3ba9ff2a7ad0ce1df" target="_top" xlink:title="To calculate the average completion time of all the processes.">
<polygon fill="white" stroke="#666666" points="176,-57 107,-57 107,-38 176,-38 176,-57"/>
<text text-anchor="middle" x="141.5" y="-45" font-family="Helvetica,sans-Serif" font-size="10.00">calculate_ct</text>
</a>
</g>
</g>
<!-- Node1&#45;&gt;Node2 -->
<g id="edge1" class="edge">
<title>Node1&#45;&gt;Node2</title>
<path fill="none" stroke="#63b8ff" d="M71.42,-34.88C79.3,-36.32 87.76,-37.87 95.98,-39.37"/>
<polygon fill="#63b8ff" stroke="#63b8ff" points="95.09,-42.94 105.55,-41.3 96.35,-36.06 95.09,-42.94"/>
</g>
<!-- Node5 -->
<g id="node5" class="node">
<title>Node5</title>
<g id="a_node5"><a xlink:href="../../d2/d87/non__preemptive__priority__scheduling_8c.html#a40e454ce0750e794007bf41a7102b3a9" target="_top" xlink:title="To length process queue.">
<polygon fill="white" stroke="#666666" points="264,-19 214,-19 214,0 264,0 264,-19"/>
<text text-anchor="middle" x="239" y="-7" font-family="Helvetica,sans-Serif" font-size="10.00">l_length</text>
</a>
</g>
</g>
<!-- Node1&#45;&gt;Node5 -->
<g id="edge5" class="edge">
<title>Node1&#45;&gt;Node5</title>
<path fill="none" stroke="#63b8ff" d="M71.14,-25.23C107.95,-21.76 165.85,-16.3 202.85,-12.81"/>
<polygon fill="#63b8ff" stroke="#63b8ff" points="202.99,-16.22 212.62,-11.8 202.34,-9.25 202.99,-16.22"/>
</g>
<!-- Node3 -->
<g id="node3" class="node">
<title>Node3</title>
<g id="a_node3"><a xlink:href="../../d2/d87/non__preemptive__priority__scheduling_8c.html#a01b8ee561d8532a44d665c2c854e0d09" target="_top" xlink:title="To compare the priority of two processes based on their arrival time and priority.">
<polygon fill="white" stroke="#666666" points="266,-93 212,-93 212,-74 266,-74 266,-93"/>
<text text-anchor="middle" x="239" y="-81" font-family="Helvetica,sans-Serif" font-size="10.00">compare</text>
</a>
</g>
</g>
<!-- Node2&#45;&gt;Node3 -->
<g id="edge2" class="edge">
<title>Node2&#45;&gt;Node3</title>
<path fill="none" stroke="#63b8ff" d="M168.85,-57.43C178.97,-61.25 190.72,-65.68 201.62,-69.79"/>
<polygon fill="#63b8ff" stroke="#63b8ff" points="200.15,-73.35 210.74,-73.6 202.61,-66.8 200.15,-73.35"/>
</g>
<!-- Node4 -->
<g id="node4" class="node">
<title>Node4</title>
<g id="a_node4"><a xlink:href="../../d2/d87/non__preemptive__priority__scheduling_8c.html#a5d0943b2e0e1b48b9c3a575a7f262c36" target="_top" xlink:title="To insert a new process in the queue.">
<polygon fill="white" stroke="#666666" points="259.5,-56 218.5,-56 218.5,-37 259.5,-37 259.5,-56"/>
<text text-anchor="middle" x="239" y="-44" font-family="Helvetica,sans-Serif" font-size="10.00">insert</text>
</a>
</g>
</g>
<!-- Node2&#45;&gt;Node4 -->
<g id="edge3" class="edge">
<title>Node2&#45;&gt;Node4</title>
<path fill="none" stroke="#63b8ff" d="M176.44,-47.14C186.46,-47.04 197.36,-46.93 207.18,-46.82"/>
<polygon fill="#63b8ff" stroke="#63b8ff" points="207.11,-50.31 217.07,-46.71 207.03,-43.31 207.11,-50.31"/>
</g>
<!-- Node2&#45;&gt;Node5 -->
<g id="edge4" class="edge">
<title>Node2&#45;&gt;Node5</title>
<path fill="none" stroke="#63b8ff" d="M167.59,-37.52C178.62,-33.13 191.75,-27.9 203.66,-23.16"/>
<polygon fill="#63b8ff" stroke="#63b8ff" points="204.74,-26.1 212.74,-19.16 202.15,-19.6 204.74,-26.1"/>
</g>
</g>
</svg>
