<?xml version="1.0" encoding="UTF-8" standalone="no"?>
<!DOCTYPE svg PUBLIC "-//W3C//DTD SVG 1.1//EN"
 "http://www.w3.org/Graphics/SVG/1.1/DTD/svg11.dtd">
<!-- Generated by graphviz version 9.0.0 (20230911.1827)
 -->
<!-- Title: main Pages: 1 -->
<svg width="415pt" height="139pt"
 viewBox="0.00 0.00 415.00 139.25" xmlns="http://www.w3.org/2000/svg" xmlns:xlink="http://www.w3.org/1999/xlink">
<g id="graph0" class="graph" transform="scale(1 1) rotate(0) translate(4 135.25)">
<title>main</title>
<!-- Node1 -->
<g id="Node000001" class="node">
<title>Node1</title>
<g id="a_Node000001"><a xlink:title="Main function.">
<polygon fill="#999999" stroke="#666666" points="37,-75.25 0,-75.25 0,-56 37,-56 37,-75.25"/>
<text text-anchor="middle" x="18.5" y="-61.75" font-family="Helvetica,sans-Serif" font-size="10.00">main</text>
</a>
</g>
</g>
<!-- Node2 -->
<g id="Node000002" class="node">
<title>Node2</title>
<g id="a_Node000002"><a xlink:href="../../d2/d87/non__preemptive__priority__scheduling_8c.html#aa8dca7b867074164d5f45b0f3851269d" target="_top" xlink:title="Self&#45;test implementations.">
<polygon fill="white" stroke="#666666" points="105.5,-75.25 73,-75.25 73,-56 105.5,-56 105.5,-75.25"/>
<text text-anchor="middle" x="89.25" y="-61.75" font-family="Helvetica,sans-Serif" font-size="10.00">test</text>
</a>
</g>
</g>
<!-- Node1&#45;&gt;Node2 -->
<g id="edge1_Node000001_Node000002" class="edge">
<title>Node1&#45;&gt;Node2</title>
<g id="a_edge1_Node000001_Node000002"><a xlink:title=" ">
<path fill="none" stroke="#63b8ff" d="M37.2,-65.62C44.58,-65.62 53.31,-65.62 61.45,-65.62"/>
<polygon fill="#63b8ff" stroke="#63b8ff" points="61.2,-69.13 71.2,-65.63 61.2,-62.13 61.2,-69.13"/>
</a>
</g>
</g>
<!-- Node3 -->
<g id="Node000003" class="node">
<title>Node3</title>
<g id="a_Node000003"><a xlink:href="../../d2/d87/non__preemptive__priority__scheduling_8c.html#abbb2446313782dd3ba9ff2a7ad0ce1df" target="_top" xlink:title="To calculate the average completion time of all the processes.">
<polygon fill="white" stroke="#666666" points="317.5,-56.25 249,-56.25 249,-37 317.5,-37 317.5,-56.25"/>
<text text-anchor="middle" x="283.25" y="-42.75" font-family="Helvetica,sans-Serif" font-size="10.00">calculate_ct</text>
</a>
</g>
</g>
<!-- Node2&#45;&gt;Node3 -->
<g id="edge2_Node000002_Node000003" class="edge">
<title>Node2&#45;&gt;Node3</title>
<g id="a_edge2_Node000002_Node000003"><a xlink:title=" ">
<path fill="none" stroke="#63b8ff" d="M105.96,-64.07C134.37,-61.26 195.23,-55.24 237.44,-51.06"/>
<polygon fill="#63b8ff" stroke="#63b8ff" points="237.69,-54.55 247.3,-50.08 237.01,-47.59 237.69,-54.55"/>
</a>
</g>
</g>
<!-- Node5 -->
<g id="Node000005" class="node">
<title>Node5</title>
<g id="a_Node000005"><a xlink:href="../../d2/d87/non__preemptive__priority__scheduling_8c.html#a5d0943b2e0e1b48b9c3a575a7f262c36" target="_top" xlink:title="To insert a new process in the queue.">
<polygon fill="white" stroke="#666666" points="400.25,-19.25 360.25,-19.25 360.25,0 400.25,0 400.25,-19.25"/>
<text text-anchor="middle" x="380.25" y="-5.75" font-family="Helvetica,sans-Serif" font-size="10.00">insert</text>
</a>
</g>
</g>
<!-- Node2&#45;&gt;Node5 -->
<g id="edge12_Node000002_Node000005" class="edge">
<title>Node2&#45;&gt;Node5</title>
<g id="a_edge12_Node000002_Node000005"><a xlink:title=" ">
<path fill="none" stroke="#63b8ff" d="M105.83,-60.31C115.93,-56.98 129.4,-52.74 141.5,-49.62 214.8,-30.73 303.18,-18.57 348.76,-13.06"/>
<polygon fill="#63b8ff" stroke="#63b8ff" points="348.89,-16.57 358.41,-11.92 348.06,-9.62 348.89,-16.57"/>
</a>
</g>
</g>
<!-- Node7 -->
<g id="Node000007" class="node">
<title>Node7</title>
<g id="a_Node000007"><a xlink:href="../../d2/d87/non__preemptive__priority__scheduling_8c.html#a458803d3c3926a6bcc4d51540f297756" target="_top" xlink:title="To calculate the average turn around time of all the processes.">
<polygon fill="white" stroke="#666666" points="213,-94.25 141.5,-94.25 141.5,-75 213,-75 213,-94.25"/>
<text text-anchor="middle" x="177.25" y="-80.75" font-family="Helvetica,sans-Serif" font-size="10.00">calculate_tat</text>
</a>
</g>
</g>
<!-- Node2&#45;&gt;Node7 -->
<g id="edge6_Node000002_Node000007" class="edge">
<title>Node2&#45;&gt;Node7</title>
<g id="a_edge6_Node000002_Node000007"><a xlink:title=" ">
<path fill="none" stroke="#63b8ff" d="M105.63,-69.02C112.56,-70.55 121.15,-72.45 129.92,-74.39"/>
<polygon fill="#63b8ff" stroke="#63b8ff" points="129.03,-77.78 139.55,-76.52 130.54,-70.94 129.03,-77.78"/>
</a>
</g>
</g>
<!-- Node8 -->
<g id="Node000008" class="node">
<title>Node8</title>
<g id="a_Node000008"><a xlink:href="../../d2/d87/non__preemptive__priority__scheduling_8c.html#ae5e4de64ef6c5676d5013d90229a875c" target="_top" xlink:title="To calculate the average waiting time of all the processes.">
<polygon fill="white" stroke="#666666" points="212.62,-131.25 141.88,-131.25 141.88,-112 212.62,-112 212.62,-131.25"/>
<text text-anchor="middle" x="177.25" y="-117.75" font-family="Helvetica,sans-Serif" font-size="10.00">calculate_wt</text>
</a>
</g>
</g>
<!-- Node2&#45;&gt;Node8 -->
<g id="edge9_Node000002_Node000008" class="edge">
<title>Node2&#45;&gt;Node8</title>
<g id="a_edge9_Node000002_Node000008"><a xlink:title=" ">
<path fill="none" stroke="#63b8ff" d="M102.49,-75.57C112.64,-83.6 127.59,-94.95 141.5,-103.62 142.9,-104.5 144.36,-105.37 145.84,-106.24"/>
<polygon fill="#63b8ff" stroke="#63b8ff" points="143.96,-109.2 154.41,-110.96 147.34,-103.07 143.96,-109.2"/>
</a>
</g>
</g>
<!-- Node4 -->
<g id="Node000004" class="node">
<title>Node4</title>
<g id="a_Node000004"><a xlink:href="../../d2/d87/non__preemptive__priority__scheduling_8c.html#a01b8ee561d8532a44d665c2c854e0d09" target="_top" xlink:title="To compare the priority of two processes based on their arrival time and priority.">
<polygon fill="white" stroke="#666666" points="407,-56.25 353.5,-56.25 353.5,-37 407,-37 407,-56.25"/>
<text text-anchor="middle" x="380.25" y="-42.75" font-family="Helvetica,sans-Serif" font-size="10.00">compare</text>
</a>
</g>
</g>
<!-- Node3&#45;&gt;Node4 -->
<g id="edge3_Node000003_Node000004" class="edge">
<title>Node3&#45;&gt;Node4</title>
<g id="a_edge3_Node000003_Node000004"><a xlink:title=" ">
<path fill="none" stroke="#63b8ff" d="M317.74,-46.62C325.57,-46.62 333.95,-46.62 341.93,-46.62"/>
<polygon fill="#63b8ff" stroke="#63b8ff" points="341.71,-50.13 351.71,-46.63 341.71,-43.13 341.71,-50.13"/>
</a>
</g>
</g>
<!-- Node3&#45;&gt;Node5 -->
<g id="edge4_Node000003_Node000005" class="edge">
<title>Node3&#45;&gt;Node5</title>
<g id="a_edge4_Node000003_Node000005"><a xlink:title=" ">
<path fill="none" stroke="#63b8ff" d="M310.21,-36.51C322.36,-31.78 336.9,-26.12 349.49,-21.21"/>
<polygon fill="#63b8ff" stroke="#63b8ff" points="350.5,-24.58 358.54,-17.69 347.95,-18.06 350.5,-24.58"/>
</a>
</g>
</g>
<!-- Node6 -->
<g id="Node000006" class="node">
<title>Node6</title>
<g id="a_Node000006"><a xlink:href="../../d2/d87/non__preemptive__priority__scheduling_8c.html#a40e454ce0750e794007bf41a7102b3a9" target="_top" xlink:title="To length process queue.">
<polygon fill="white" stroke="#666666" points="405.12,-94.25 355.38,-94.25 355.38,-75 405.12,-75 405.12,-94.25"/>
<text text-anchor="middle" x="380.25" y="-80.75" font-family="Helvetica,sans-Serif" font-size="10.00">l_length</text>
</a>
</g>
</g>
<!-- Node3&#45;&gt;Node6 -->
<g id="edge5_Node000003_Node000006" class="edge">
<title>Node3&#45;&gt;Node6</title>
<g id="a_edge5_Node000003_Node000006"><a xlink:title=" ">
<path fill="none" stroke="#63b8ff" d="M309.21,-56.61C320.07,-60.95 332.97,-66.11 344.73,-70.82"/>
<polygon fill="#63b8ff" stroke="#63b8ff" points="343.12,-73.94 353.71,-74.41 345.72,-67.44 343.12,-73.94"/>
</a>
</g>
</g>
<!-- Node7&#45;&gt;Node3 -->
<g id="edge7_Node000007_Node000003" class="edge">
<title>Node7&#45;&gt;Node3</title>
<g id="a_edge7_Node000007_Node000003"><a xlink:title=" ">
<path fill="none" stroke="#63b8ff" d="M205.85,-74.54C217.58,-70.26 231.45,-65.19 244.13,-60.55"/>
<polygon fill="#63b8ff" stroke="#63b8ff" points="245.27,-63.86 253.46,-57.14 242.87,-57.29 245.27,-63.86"/>
</a>
</g>
</g>
<!-- Node7&#45;&gt;Node6 -->
<g id="edge8_Node000007_Node000006" class="edge">
<title>Node7&#45;&gt;Node6</title>
<g id="a_edge8_Node000007_Node000006"><a xlink:title=" ">
<path fill="none" stroke="#63b8ff" d="M213.26,-84.62C249.9,-84.62 307.11,-84.62 343.88,-84.62"/>
<polygon fill="#63b8ff" stroke="#63b8ff" points="343.53,-88.13 353.53,-84.63 343.53,-81.13 343.53,-88.13"/>
</a>
</g>
</g>
<!-- Node8&#45;&gt;Node3 -->
<g id="edge10_Node000008_Node000003" class="edge">
<title>Node8&#45;&gt;Node3</title>
<g id="a_edge10_Node000008_Node000003"><a xlink:title=" ">
<path fill="none" stroke="#63b8ff" d="M199.24,-111.66C203.88,-109.21 208.69,-106.47 213,-103.62 230.95,-91.78 249.69,-76.12 263.14,-64.22"/>
<polygon fill="#63b8ff" stroke="#63b8ff" points="265.32,-66.97 270.41,-57.68 260.64,-61.76 265.32,-66.97"/>
</a>
</g>
</g>
<!-- Node8&#45;&gt;Node6 -->
<g id="edge11_Node000008_Node000006" class="edge">
<title>Node8&#45;&gt;Node6</title>
<g id="a_edge11_Node000008_Node000006"><a xlink:title=" ">
<path fill="none" stroke="#63b8ff" d="M212.97,-116.47C241.21,-112.15 282.03,-105.57 317.5,-98.62 326.13,-96.94 335.39,-94.94 344.05,-92.99"/>
<polygon fill="#63b8ff" stroke="#63b8ff" points="344.54,-96.46 353.5,-90.82 342.97,-89.64 344.54,-96.46"/>
</a>
</g>
</g>
</g>
</svg>
