<?xml version="1.0" encoding="UTF-8" standalone="no"?>
<!DOCTYPE svg PUBLIC "-//W3C//DTD SVG 1.1//EN"
 "http://www.w3.org/Graphics/SVG/1.1/DTD/svg11.dtd">
<!-- Generated by graphviz version 9.0.0 (20230911.1827)
 -->
<!-- Title: main Pages: 1 -->
<svg width="336pt" height="137pt"
 viewBox="0.00 0.00 336.00 137.25" xmlns="http://www.w3.org/2000/svg" xmlns:xlink="http://www.w3.org/1999/xlink">

<svg id="main" version="1.1" xmlns="http://www.w3.org/2000/svg" xmlns:xlink="http://www.w3.org/1999/xlink" xml:space="preserve" onload="init(evt)">
<style type="text/css"><![CDATA[
.node, .edge {opacity: 0.7;}
.node.selected, .edge.selected {opacity: 1;}
.edge:hover path { stroke: red; }
.edge:hover polygon { stroke: red; fill: red; }
]]></style>
<script type="application/ecmascript" xlink:href="../../svg.min.js"/>
<svg id="graph" class="graph">
<g id="graph0" class="graph" transform="scale(1 1) rotate(0) translate(4 133.25)">
<title>main</title>
<!-- Node1 -->
<g id="Node000001" class="node">
<title>Node1</title>
<g id="a_Node000001"><a xlink:title="Main function.">
<polygon fill="#999999" stroke="#666666" points="37,-74.25 0,-74.25 0,-55 37,-55 37,-74.25"/>
<text text-anchor="middle" x="18.5" y="-60.75" font-family="Helvetica,sans-Serif" font-size="10.00">main</text>
</a>
</g>
</g>
<!-- Node2 -->
<g id="Node000002" class="node">
<title>Node2</title>
<g id="a_Node000002"><a xlink:href="../../d5/df4/group__sudoku.html#ga702ff4f95dde780c7d04fcdd1021b6c1" target="_top" xlink:title="Print the matrix to stdout.">
<polygon fill="white" stroke="#666666" points="110,-129.25 75.25,-129.25 75.25,-110 110,-110 110,-129.25"/>
<text text-anchor="middle" x="92.62" y="-115.75" font-family="Helvetica,sans-Serif" font-size="10.00">print</text>
</a>
</g>
</g>
<!-- Node1&#45;&gt;Node2 -->
<g id="edge1_Node000001_Node000002" class="edge">
<title>Node1&#45;&gt;Node2</title>
<g id="a_edge1_Node000001_Node000002"><a xlink:title=" ">
<path fill="none" stroke="#63b8ff" d="M32.73,-74.71C43,-82.54 57.46,-93.57 69.49,-102.74"/>
<polygon fill="#63b8ff" stroke="#63b8ff" points="67.2,-105.4 77.28,-108.68 71.45,-99.84 67.2,-105.4"/>
</a>
</g>
</g>
<!-- Node3 -->
<g id="Node000003" class="node">
<title>Node3</title>
<g id="a_Node000003"><a xlink:href="../../d5/df4/group__sudoku.html#gadfe0ed5085b4775d8fa00b434cc0fdfc" target="_top" xlink:title="Function to solve a partially filled sudoku matrix.">
<polygon fill="white" stroke="#666666" points="112.25,-74.25 73,-74.25 73,-55 112.25,-55 112.25,-74.25"/>
<text text-anchor="middle" x="92.62" y="-60.75" font-family="Helvetica,sans-Serif" font-size="10.00">solve</text>
</a>
</g>
</g>
<!-- Node1&#45;&gt;Node3 -->
<g id="edge2_Node000001_Node000003" class="edge">
<title>Node1&#45;&gt;Node3</title>
<g id="a_edge2_Node000001_Node000003"><a xlink:title=" ">
<path fill="none" stroke="#63b8ff" d="M37.33,-64.62C44.56,-64.62 53.12,-64.62 61.28,-64.62"/>
<polygon fill="#63b8ff" stroke="#63b8ff" points="61.23,-68.13 71.23,-64.63 61.23,-61.13 61.23,-68.13"/>
</a>
</g>
</g>
<!-- Node9 -->
<g id="Node000009" class="node">
<title>Node9</title>
<g id="a_Node000009"><a xlink:href="../../d8/d30/decimal__to__binary__recursion_8c.html#aa8dca7b867074164d5f45b0f3851269d" target="_top" xlink:title="Test function.">
<polygon fill="white" stroke="#666666" points="108.88,-28.25 76.38,-28.25 76.38,-9 108.88,-9 108.88,-28.25"/>
<text text-anchor="middle" x="92.62" y="-14.75" font-family="Helvetica,sans-Serif" font-size="10.00">test</text>
</a>
</g>
</g>
<!-- Node1&#45;&gt;Node9 -->
<g id="edge9_Node000001_Node000009" class="edge">
<title>Node1&#45;&gt;Node9</title>
<g id="a_edge9_Node000001_Node000009"><a xlink:title=" ">
<path fill="none" stroke="#63b8ff" d="M35.15,-54.64C44.32,-48.8 56.11,-41.28 66.55,-34.62"/>
<polygon fill="#63b8ff" stroke="#63b8ff" points="68.18,-37.73 74.73,-29.4 64.42,-31.83 68.18,-37.73"/>
</a>
</g>
</g>
<!-- Node3&#45;&gt;Node3 -->
<g id="edge8_Node000003_Node000003" class="edge">
<title>Node3&#45;&gt;Node3</title>
<g id="a_edge8_Node000003_Node000003"><a xlink:title=" ">
<path fill="none" stroke="#63b8ff" d="M81.02,-74.54C75.73,-83.15 79.6,-92.25 92.62,-92.25 99.75,-92.25 104.14,-89.53 105.78,-85.65"/>
<polygon fill="#63b8ff" stroke="#63b8ff" points="109.29,-85.46 104.44,-76.04 102.36,-86.43 109.29,-85.46"/>
</a>
</g>
</g>
<!-- Node4 -->
<g id="Node000004" class="node">
<title>Node4</title>
<g id="a_Node000004"><a xlink:href="../../d5/df4/group__sudoku.html#ga62e94fc39f116e2c81daed8f5437431b" target="_top" xlink:title="Find and get the location for next empty cell.">
<polygon fill="white" stroke="#666666" points="246,-111.25 148.25,-111.25 148.25,-92 246,-92 246,-111.25"/>
<text text-anchor="middle" x="197.12" y="-97.75" font-family="Helvetica,sans-Serif" font-size="10.00">get_next_unknown</text>
</a>
</g>
</g>
<!-- Node3&#45;&gt;Node4 -->
<g id="edge3_Node000003_Node000004" class="edge">
<title>Node3&#45;&gt;Node4</title>
<g id="a_edge3_Node000003_Node000004"><a xlink:title=" ">
<path fill="none" stroke="#63b8ff" d="M112.43,-71.41C125.1,-75.99 142.28,-82.19 157.78,-87.78"/>
<polygon fill="#63b8ff" stroke="#63b8ff" points="156.15,-90.91 166.74,-91.02 158.52,-84.33 156.15,-90.91"/>
</a>
</g>
</g>
<!-- Node5 -->
<g id="Node000005" class="node">
<title>Node5</title>
<g id="a_Node000005"><a xlink:href="../../d5/df4/group__sudoku.html#ga3a0ec150ac9d0cb6b28279d36d95d72f" target="_top" xlink:title="Check if element v is valid to place at (x,y) location.">
<polygon fill="white" stroke="#666666" points="212.25,-74.25 182,-74.25 182,-55 212.25,-55 212.25,-74.25"/>
<text text-anchor="middle" x="197.12" y="-60.75" font-family="Helvetica,sans-Serif" font-size="10.00">OK</text>
</a>
</g>
</g>
<!-- Node3&#45;&gt;Node5 -->
<g id="edge4_Node000003_Node000005" class="edge">
<title>Node3&#45;&gt;Node5</title>
<g id="a_edge4_Node000003_Node000005"><a xlink:title=" ">
<path fill="none" stroke="#63b8ff" d="M112.43,-64.62C128.67,-64.62 152.31,-64.62 170.33,-64.62"/>
<polygon fill="#63b8ff" stroke="#63b8ff" points="170.23,-68.13 180.23,-64.63 170.23,-61.13 170.23,-68.13"/>
</a>
</g>
</g>
<!-- Node6 -->
<g id="Node000006" class="node">
<title>Node6</title>
<g id="a_Node000006"><a xlink:href="../../d5/df4/group__sudoku.html#ga1cd43df3f4187845ce186042fe53e6f1" target="_top" xlink:title="Check if a 3x3 box is valid.">
<polygon fill="white" stroke="#666666" points="328,-111.25 282,-111.25 282,-92 328,-92 328,-111.25"/>
<text text-anchor="middle" x="305" y="-97.75" font-family="Helvetica,sans-Serif" font-size="10.00">OKbox</text>
</a>
</g>
</g>
<!-- Node5&#45;&gt;Node6 -->
<g id="edge5_Node000005_Node000006" class="edge">
<title>Node5&#45;&gt;Node6</title>
<g id="a_edge5_Node000005_Node000006"><a xlink:title=" ">
<path fill="none" stroke="#63b8ff" d="M212.4,-69.61C227.38,-74.85 251.44,-83.26 271.15,-90.14"/>
<polygon fill="#63b8ff" stroke="#63b8ff" points="269.83,-93.39 280.42,-93.38 272.14,-86.78 269.83,-93.39"/>
</a>
</g>
</g>
<!-- Node7 -->
<g id="Node000007" class="node">
<title>Node7</title>
<g id="a_Node000007"><a xlink:href="../../d5/df4/group__sudoku.html#ga6503128d4f5ce0a0826f72f73f9e0b2a" target="_top" xlink:title="Check if y^th column is valid.">
<polygon fill="white" stroke="#666666" points="326.5,-74.25 283.5,-74.25 283.5,-55 326.5,-55 326.5,-74.25"/>
<text text-anchor="middle" x="305" y="-60.75" font-family="Helvetica,sans-Serif" font-size="10.00">OKcol</text>
</a>
</g>
</g>
<!-- Node5&#45;&gt;Node7 -->
<g id="edge6_Node000005_Node000007" class="edge">
<title>Node5&#45;&gt;Node7</title>
<g id="a_edge6_Node000005_Node000007"><a xlink:title=" ">
<path fill="none" stroke="#63b8ff" d="M212.4,-64.62C227.53,-64.62 251.9,-64.62 271.71,-64.62"/>
<polygon fill="#63b8ff" stroke="#63b8ff" points="271.52,-68.13 281.52,-64.63 271.52,-61.13 271.52,-68.13"/>
</a>
</g>
</g>
<!-- Node8 -->
<g id="Node000008" class="node">
<title>Node8</title>
<g id="a_Node000008"><a xlink:href="../../d5/df4/group__sudoku.html#ga85d25d3b40017436f264a103685e4c55" target="_top" xlink:title="Check if x^th row is valid.">
<polygon fill="white" stroke="#666666" points="328,-37.25 282,-37.25 282,-18 328,-18 328,-37.25"/>
<text text-anchor="middle" x="305" y="-23.75" font-family="Helvetica,sans-Serif" font-size="10.00">OKrow</text>
</a>
</g>
</g>
<!-- Node5&#45;&gt;Node8 -->
<g id="edge7_Node000005_Node000008" class="edge">
<title>Node5&#45;&gt;Node8</title>
<g id="a_edge7_Node000005_Node000008"><a xlink:title=" ">
<path fill="none" stroke="#63b8ff" d="M212.4,-59.64C227.38,-54.4 251.44,-45.99 271.15,-39.11"/>
<polygon fill="#63b8ff" stroke="#63b8ff" points="272.14,-42.47 280.42,-35.87 269.83,-35.86 272.14,-42.47"/>
</a>
</g>
</g>
<!-- Node10 -->
<g id="Node000010" class="node">
<title>Node10</title>
<g id="a_Node000010"><a xlink:href="../../d8/d30/decimal__to__binary__recursion_8c.html#acbbe6358ec95b3201865a72b2ac522c8" target="_top" xlink:title="Decimal to binary using recursion algorithm.">
<polygon fill="white" stroke="#666666" points="244.5,-19.25 149.75,-19.25 149.75,0 244.5,0 244.5,-19.25"/>
<text text-anchor="middle" x="197.12" y="-5.75" font-family="Helvetica,sans-Serif" font-size="10.00">decimal_to_binary</text>
</a>
</g>
</g>
<!-- Node9&#45;&gt;Node10 -->
<g id="edge10_Node000009_Node000010" class="edge">
<title>Node9&#45;&gt;Node10</title>
<g id="a_edge10_Node000009_Node000010"><a xlink:title=" ">
<path fill="none" stroke="#63b8ff" d="M109.19,-17.26C117.17,-16.56 127.45,-15.66 138.12,-14.72"/>
<polygon fill="#63b8ff" stroke="#63b8ff" points="138.14,-18.23 147.79,-13.87 137.52,-11.26 138.14,-18.23"/>
</a>
</g>
</g>
<!-- Node10&#45;&gt;Node10 -->
<g id="edge11_Node000010_Node000010" class="edge">
<title>Node10&#45;&gt;Node10</title>
<g id="a_edge11_Node000010_Node000010"><a xlink:title=" ">
<path fill="none" stroke="#63b8ff" d="M180.76,-19.54C173.3,-28.15 178.76,-37.25 197.12,-37.25 207.17,-37.25 213.35,-34.53 215.67,-30.65"/>
<polygon fill="#63b8ff" stroke="#63b8ff" points="219.14,-30.16 213.78,-21.02 212.28,-31.51 219.14,-30.16"/>
</a>
</g>
</g>
</g>
</svg>
</svg>

<style type='text/css'>
<![CDATA[
[data-mouse-over-selected='false'] { opacity: 0.7; }
[data-mouse-over-selected='true']  { opacity: 1.0; }
]]>
</style>
<script type="application/ecmascript"><![CDATA[
document.addEventListener('DOMContentLoaded', (event) => {
  highlightEdges();
  highlightAdjacentNodes();
});
]]></script>
</svg>
