<?xml version="1.0" encoding="UTF-8" standalone="no"?>
<!DOCTYPE svg PUBLIC "-//W3C//DTD SVG 1.1//EN"
 "http://www.w3.org/Graphics/SVG/1.1/DTD/svg11.dtd">
<!-- Generated by graphviz version 7.0.6 (20230106.0513)
 -->
<!-- Title: main Pages: 1 -->
<svg width="339pt" height="137pt"
 viewBox="0.00 0.00 339.00 137.00" xmlns="http://www.w3.org/2000/svg" xmlns:xlink="http://www.w3.org/1999/xlink">
<g id="graph0" class="graph" transform="scale(1 1) rotate(0) translate(4 133)">
<title>main</title>
<!-- Node1 -->
<g id="node1" class="node">
<title>Node1</title>
<g id="a_node1"><a xlink:title="Main function.">
<polygon fill="#999999" stroke="#666666" points="38,-74 0,-74 0,-55 38,-55 38,-74"/>
<text text-anchor="middle" x="19" y="-62" font-family="Helvetica,sans-Serif" font-size="10.00">main</text>
</a>
</g>
</g>
<!-- Node2 -->
<g id="node2" class="node">
<title>Node2</title>
<g id="a_node2"><a xlink:href="../../d5/df4/group__sudoku.html#ga702ff4f95dde780c7d04fcdd1021b6c1" target="_top" xlink:title="Print the matrix to stdout.">
<polygon fill="white" stroke="#666666" points="111.5,-129 76.5,-129 76.5,-110 111.5,-110 111.5,-129"/>
<text text-anchor="middle" x="94" y="-117" font-family="Helvetica,sans-Serif" font-size="10.00">print</text>
</a>
</g>
</g>
<!-- Node1&#45;&gt;Node2 -->
<g id="edge1" class="edge">
<title>Node1&#45;&gt;Node2</title>
<path fill="none" stroke="#63b8ff" d="M33.05,-74.33C43.64,-82.31 58.79,-93.73 71.22,-103.09"/>
<polygon fill="#63b8ff" stroke="#63b8ff" points="68.76,-105.62 78.85,-108.84 72.97,-100.03 68.76,-105.62"/>
</g>
<!-- Node3 -->
<g id="node3" class="node">
<title>Node3</title>
<g id="a_node3"><a xlink:href="../../d5/df4/group__sudoku.html#gadfe0ed5085b4775d8fa00b434cc0fdfc" target="_top" xlink:title="Function to solve a partially filled sudoku matrix.">
<polygon fill="white" stroke="#666666" points="114,-74 74,-74 74,-55 114,-55 114,-74"/>
<text text-anchor="middle" x="94" y="-62" font-family="Helvetica,sans-Serif" font-size="10.00">solve</text>
</a>
</g>
</g>
<!-- Node1&#45;&gt;Node3 -->
<g id="edge2" class="edge">
<title>Node1&#45;&gt;Node3</title>
<path fill="none" stroke="#63b8ff" d="M38.42,-64.5C45.63,-64.5 54.1,-64.5 62.18,-64.5"/>
<polygon fill="#63b8ff" stroke="#63b8ff" points="62.05,-68 72.05,-64.5 62.05,-61 62.05,-68"/>
</g>
<!-- Node9 -->
<g id="node9" class="node">
<title>Node9</title>
<g id="a_node9"><a xlink:href="../../d8/d30/decimal__to__binary__recursion_8c.html#aa8dca7b867074164d5f45b0f3851269d" target="_top" xlink:title="Test function.">
<polygon fill="white" stroke="#666666" points="110.5,-28 77.5,-28 77.5,-9 110.5,-9 110.5,-28"/>
<text text-anchor="middle" x="94" y="-16" font-family="Helvetica,sans-Serif" font-size="10.00">test</text>
</a>
</g>
</g>
<!-- Node1&#45;&gt;Node9 -->
<g id="edge9" class="edge">
<title>Node1&#45;&gt;Node9</title>
<path fill="none" stroke="#63b8ff" d="M35.84,-54.52C45.12,-48.67 57.05,-41.15 67.62,-34.5"/>
<polygon fill="#63b8ff" stroke="#63b8ff" points="69.32,-37.56 75.91,-29.27 65.58,-31.64 69.32,-37.56"/>
</g>
<!-- Node3&#45;&gt;Node3 -->
<g id="edge8" class="edge">
<title>Node3&#45;&gt;Node3</title>
<path fill="none" stroke="#63b8ff" d="M82.26,-74.37C76.9,-82.94 80.82,-92 94,-92 101,-92 105.39,-89.44 107.16,-85.76"/>
<polygon fill="#63b8ff" stroke="#63b8ff" points="110.64,-85.36 105.93,-75.87 103.69,-86.23 110.64,-85.36"/>
</g>
<!-- Node4 -->
<g id="node4" class="node">
<title>Node4</title>
<g id="a_node4"><a xlink:href="../../d5/df4/group__sudoku.html#ga62e94fc39f116e2c81daed8f5437431b" target="_top" xlink:title="Find and get the location for next empty cell.">
<polygon fill="white" stroke="#666666" points="248,-111 150,-111 150,-92 248,-92 248,-111"/>
<text text-anchor="middle" x="199" y="-99" font-family="Helvetica,sans-Serif" font-size="10.00">get_next_unknown</text>
</a>
</g>
</g>
<!-- Node3&#45;&gt;Node4 -->
<g id="edge3" class="edge">
<title>Node3&#45;&gt;Node4</title>
<path fill="none" stroke="#63b8ff" d="M114.37,-71.46C127.25,-76.09 144.59,-82.32 160.15,-87.9"/>
<polygon fill="#63b8ff" stroke="#63b8ff" points="158.53,-91.04 169.13,-91.13 160.9,-84.45 158.53,-91.04"/>
</g>
<!-- Node5 -->
<g id="node5" class="node">
<title>Node5</title>
<g id="a_node5"><a xlink:href="../../d5/df4/group__sudoku.html#ga3a0ec150ac9d0cb6b28279d36d95d72f" target="_top" xlink:title="Check if element v is valid to place at (x,y) location.">
<polygon fill="white" stroke="#666666" points="214.5,-74 183.5,-74 183.5,-55 214.5,-55 214.5,-74"/>
<text text-anchor="middle" x="199" y="-62" font-family="Helvetica,sans-Serif" font-size="10.00">OK</text>
</a>
</g>
</g>
<!-- Node3&#45;&gt;Node5 -->
<g id="edge4" class="edge">
<title>Node3&#45;&gt;Node5</title>
<path fill="none" stroke="#63b8ff" d="M114.37,-64.5C130.57,-64.5 153.82,-64.5 171.69,-64.5"/>
<polygon fill="#63b8ff" stroke="#63b8ff" points="171.54,-68 181.54,-64.5 171.54,-61 171.54,-68"/>
</g>
<!-- Node6 -->
<g id="node6" class="node">
<title>Node6</title>
<g id="a_node6"><a xlink:href="../../d5/df4/group__sudoku.html#ga1cd43df3f4187845ce186042fe53e6f1" target="_top" xlink:title="Check if a 3x3 box is valid.">
<polygon fill="white" stroke="#666666" points="331,-111 284,-111 284,-92 331,-92 331,-111"/>
<text text-anchor="middle" x="307.5" y="-99" font-family="Helvetica,sans-Serif" font-size="10.00">OKbox</text>
</a>
</g>
</g>
<!-- Node5&#45;&gt;Node6 -->
<g id="edge5" class="edge">
<title>Node5&#45;&gt;Node6</title>
<path fill="none" stroke="#63b8ff" d="M214.81,-69.64C229.78,-74.85 253.45,-83.07 272.98,-89.86"/>
<polygon fill="#63b8ff" stroke="#63b8ff" points="271.6,-93.08 282.19,-93.05 273.89,-86.47 271.6,-93.08"/>
</g>
<!-- Node7 -->
<g id="node7" class="node">
<title>Node7</title>
<g id="a_node7"><a xlink:href="../../d5/df4/group__sudoku.html#ga6503128d4f5ce0a0826f72f73f9e0b2a" target="_top" xlink:title="Check if y^th column is valid.">
<polygon fill="white" stroke="#666666" points="329.5,-74 285.5,-74 285.5,-55 329.5,-55 329.5,-74"/>
<text text-anchor="middle" x="307.5" y="-62" font-family="Helvetica,sans-Serif" font-size="10.00">OKcol</text>
</a>
</g>
</g>
<!-- Node5&#45;&gt;Node7 -->
<g id="edge6" class="edge">
<title>Node5&#45;&gt;Node7</title>
<path fill="none" stroke="#63b8ff" d="M214.81,-64.5C230.03,-64.5 254.21,-64.5 273.92,-64.5"/>
<polygon fill="#63b8ff" stroke="#63b8ff" points="273.69,-68 283.69,-64.5 273.69,-61 273.69,-68"/>
</g>
<!-- Node8 -->
<g id="node8" class="node">
<title>Node8</title>
<g id="a_node8"><a xlink:href="../../d5/df4/group__sudoku.html#ga85d25d3b40017436f264a103685e4c55" target="_top" xlink:title="Check if x^th row is valid.">
<polygon fill="white" stroke="#666666" points="331,-37 284,-37 284,-18 331,-18 331,-37"/>
<text text-anchor="middle" x="307.5" y="-25" font-family="Helvetica,sans-Serif" font-size="10.00">OKrow</text>
</a>
</g>
</g>
<!-- Node5&#45;&gt;Node8 -->
<g id="edge7" class="edge">
<title>Node5&#45;&gt;Node8</title>
<path fill="none" stroke="#63b8ff" d="M214.81,-59.36C229.78,-54.15 253.45,-45.93 272.98,-39.14"/>
<polygon fill="#63b8ff" stroke="#63b8ff" points="273.89,-42.53 282.19,-35.95 271.6,-35.92 273.89,-42.53"/>
</g>
<!-- Node10 -->
<g id="node10" class="node">
<title>Node10</title>
<g id="a_node10"><a xlink:href="../../d8/d30/decimal__to__binary__recursion_8c.html#acbbe6358ec95b3201865a72b2ac522c8" target="_top" xlink:title="Decimal to binary using recursion algorithm.">
<polygon fill="white" stroke="#666666" points="246.5,-19 151.5,-19 151.5,0 246.5,0 246.5,-19"/>
<text text-anchor="middle" x="199" y="-7" font-family="Helvetica,sans-Serif" font-size="10.00">decimal_to_binary</text>
</a>
</g>
</g>
<!-- Node9&#45;&gt;Node10 -->
<g id="edge10" class="edge">
<title>Node9&#45;&gt;Node10</title>
<path fill="none" stroke="#63b8ff" d="M110.64,-17.13C118.75,-16.43 129.2,-15.51 140.04,-14.56"/>
<polygon fill="#63b8ff" stroke="#63b8ff" points="140.23,-18.06 149.89,-13.7 139.62,-11.09 140.23,-18.06"/>
</g>
<!-- Node10&#45;&gt;Node10 -->
<g id="edge11" class="edge">
<title>Node10&#45;&gt;Node10</title>
<path fill="none" stroke="#63b8ff" d="M182.56,-19.37C175.06,-27.94 180.54,-37 199,-37 209.09,-37 215.31,-34.29 217.64,-30.43"/>
<polygon fill="#63b8ff" stroke="#63b8ff" points="221.12,-29.98 215.73,-20.85 214.25,-31.34 221.12,-29.98"/>
</g>
</g>
</svg>
