<?xml version="1.0" encoding="UTF-8" standalone="no"?>
<!DOCTYPE svg PUBLIC "-//W3C//DTD SVG 1.1//EN"
 "http://www.w3.org/Graphics/SVG/1.1/DTD/svg11.dtd">
<!-- Generated by graphviz version 9.0.0 (20230911.1827)
 -->
<!-- Title: conversions/celsius_to_fahrenheit.c Pages: 1 -->
<svg width="122pt" height="94pt"
 viewBox="0.00 0.00 122.25 93.75" xmlns="http://www.w3.org/2000/svg" xmlns:xlink="http://www.w3.org/1999/xlink">
<g id="graph0" class="graph" transform="scale(1 1) rotate(0) translate(4 89.75)">
<title>conversions/celsius_to_fahrenheit.c</title>
<!-- Node1 -->
<g id="Node000001" class="node">
<title>Node1</title>
<g id="a_Node000001"><a xlink:title="Conversion of temperature in degrees from Celsius to Fahrenheit.">
<polygon fill="#999999" stroke="#666666" points="109.75,-85.75 7.5,-85.75 7.5,-55.25 109.75,-55.25 109.75,-85.75"/>
<text text-anchor="start" x="15.5" y="-72.25" font-family="Helvetica,sans-Serif" font-size="10.00">conversions/celsius</text>
<text text-anchor="middle" x="58.62" y="-61" font-family="Helvetica,sans-Serif" font-size="10.00">_to_fahrenheit.c</text>
</a>
</g>
</g>
<!-- Node2 -->
<g id="Node000002" class="node">
<title>Node2</title>
<g id="a_Node000002"><a xlink:title=" ">
<polygon fill="#e0e0e0" stroke="#999999" points="51.25,-19.25 0,-19.25 0,0 51.25,0 51.25,-19.25"/>
<text text-anchor="middle" x="25.62" y="-5.75" font-family="Helvetica,sans-Serif" font-size="10.00">assert.h</text>
</a>
</g>
</g>
<!-- Node1&#45;&gt;Node2 -->
<g id="edge1_Node000001_Node000002" class="edge">
<title>Node1&#45;&gt;Node2</title>
<g id="a_edge1_Node000001_Node000002"><a xlink:title=" ">
<path fill="none" stroke="#63b8ff" d="M50.47,-54.95C46.17,-47.28 40.84,-37.77 36.23,-29.54"/>
<polygon fill="#63b8ff" stroke="#63b8ff" points="39.39,-28.03 31.45,-21.02 33.29,-31.46 39.39,-28.03"/>
</a>
</g>
</g>
<!-- Node3 -->
<g id="Node000003" class="node">
<title>Node3</title>
<g id="a_Node000003"><a xlink:title=" ">
<polygon fill="#e0e0e0" stroke="#999999" points="114.25,-19.25 69,-19.25 69,0 114.25,0 114.25,-19.25"/>
<text text-anchor="middle" x="91.62" y="-5.75" font-family="Helvetica,sans-Serif" font-size="10.00">stdio.h</text>
</a>
</g>
</g>
<!-- Node1&#45;&gt;Node3 -->
<g id="edge2_Node000001_Node000003" class="edge">
<title>Node1&#45;&gt;Node3</title>
<g id="a_edge2_Node000001_Node000003"><a xlink:title=" ">
<path fill="none" stroke="#63b8ff" d="M66.78,-54.95C71.08,-47.28 76.41,-37.77 81.02,-29.54"/>
<polygon fill="#63b8ff" stroke="#63b8ff" points="83.96,-31.46 85.8,-21.02 77.86,-28.03 83.96,-31.46"/>
</a>
</g>
</g>
</g>
</svg>
