<?xml version="1.0" encoding="UTF-8" standalone="no"?>
<!DOCTYPE svg PUBLIC "-//W3C//DTD SVG 1.1//EN"
 "http://www.w3.org/Graphics/SVG/1.1/DTD/svg11.dtd">
<!-- Generated by graphviz version 8.0.2 (20230410.1723)
 -->
<!-- Title: NFA Pages: 1 -->
<svg width="150pt" height="162pt"
 viewBox="0.00 0.00 150.00 162.00" xmlns="http://www.w3.org/2000/svg" xmlns:xlink="http://www.w3.org/1999/xlink">
<g id="graph0" class="graph" transform="scale(1 1) rotate(0) translate(4 158)">
<title>NFA</title>
<!-- Node1 -->
<g id="node1" class="node">
<title>Node1</title>
<g id="a_node1"><a xlink:title="Definition for the NFA itself.">
<polygon fill="#999999" stroke="#666666" points="37,-19 0,-19 0,0 37,0 37,-19"/>
<text text-anchor="middle" x="18.5" y="-7" font-family="Helvetica,sans-Serif" font-size="10.00">NFA</text>
</a>
</g>
</g>
<!-- Node1&#45;&gt;Node1 -->
<g id="edge5" class="edge">
<title>Node1&#45;&gt;Node1</title>
<path fill="none" stroke="#9a32cd" stroke-dasharray="5,2" d="M48.04,-15.04C52.21,-14.14 55,-12.29 55,-9.5 55,-4.67 46.65,-2.66 37.28,-3.5"/>
<polygon fill="#9a32cd" stroke="#9a32cd" points="48.12,-11.58 38.28,-15.5 48.42,-18.57 48.12,-11.58"/>
<text text-anchor="middle" x="67.5" y="-7" font-family="Helvetica,sans-Serif" font-size="10.00"> subs</text>
</g>
<!-- Node2 -->
<g id="node2" class="node">
<title>Node2</title>
<g id="a_node2"><a xlink:href="../../d4/d97/struct_n_f_a_state.html" target="_top" xlink:title="Definition for a NFA state.">
<polygon fill="white" stroke="#666666" points="91.5,-154 31.5,-154 31.5,-135 91.5,-135 91.5,-154"/>
<text text-anchor="middle" x="61.5" y="-142" font-family="Helvetica,sans-Serif" font-size="10.00">NFAState</text>
</a>
</g>
</g>
<!-- Node2&#45;&gt;Node1 -->
<g id="edge1" class="edge">
<title>Node2&#45;&gt;Node1</title>
<path fill="none" stroke="#9a32cd" stroke-dasharray="5,2" d="M41.72,-127.62C30.84,-117.57 18.38,-103.56 12.5,-88 3.62,-64.52 10.81,-34.25 15.41,-19.45"/>
<polygon fill="#9a32cd" stroke="#9a32cd" points="39.11,-130.86 48.95,-134.79 43.71,-125.58 39.11,-130.86"/>
<text text-anchor="middle" x="43.5" y="-80" font-family="Helvetica,sans-Serif" font-size="10.00"> currentStates</text>
<text text-anchor="middle" x="43.5" y="-69" font-family="Helvetica,sans-Serif" font-size="10.00">statePool</text>
</g>
<!-- Node3 -->
<g id="node3" class="node">
<title>Node3</title>
<g id="a_node3"><a xlink:href="../../d9/dd9/structtrans_rule.html" target="_top" xlink:title="Definition for a NFA state transition rule.">
<polygon fill="white" stroke="#666666" points="142,-86.5 83,-86.5 83,-67.5 142,-67.5 142,-86.5"/>
<text text-anchor="middle" x="112.5" y="-74.5" font-family="Helvetica,sans-Serif" font-size="10.00">transRule</text>
</a>
</g>
</g>
<!-- Node2&#45;&gt;Node3 -->
<g id="edge3" class="edge">
<title>Node2&#45;&gt;Node3</title>
<path fill="none" stroke="#9a32cd" stroke-dasharray="5,2" d="M55.67,-124.43C54.84,-118.18 55.19,-111.44 58.5,-106 63.93,-97.07 73.24,-90.86 82.61,-86.6"/>
<polygon fill="#9a32cd" stroke="#9a32cd" points="52.4,-124.83 58.06,-133.79 59.22,-123.26 52.4,-124.83"/>
<text text-anchor="middle" x="72.5" y="-109" font-family="Helvetica,sans-Serif" font-size="10.00"> target</text>
</g>
<!-- Node3&#45;&gt;Node1 -->
<g id="edge4" class="edge">
<title>Node3&#45;&gt;Node1</title>
<path fill="none" stroke="#9a32cd" stroke-dasharray="5,2" d="M90.96,-60.99C72.52,-48.14 46.6,-30.08 31.28,-19.4"/>
<polygon fill="#9a32cd" stroke="#9a32cd" points="88.62,-64.32 98.82,-67.17 92.62,-58.58 88.62,-64.32"/>
<text text-anchor="middle" x="90" y="-40" font-family="Helvetica,sans-Serif" font-size="10.00"> rulePool</text>
</g>
<!-- Node3&#45;&gt;Node2 -->
<g id="edge2" class="edge">
<title>Node3&#45;&gt;Node2</title>
<path fill="none" stroke="#9a32cd" stroke-dasharray="5,2" d="M103.59,-96.55C99.96,-103.29 95.45,-110.77 90.5,-117 85.32,-123.51 78.49,-129.84 72.76,-134.67"/>
<polygon fill="#9a32cd" stroke="#9a32cd" points="107.11,-98.36 108.51,-87.86 100.86,-95.19 107.11,-98.36"/>
<text text-anchor="middle" x="110" y="-109" font-family="Helvetica,sans-Serif" font-size="10.00"> rules</text>
</g>
</g>
</svg>
