<?xml version="1.0" encoding="UTF-8" standalone="no"?>
<!DOCTYPE svg PUBLIC "-//W3C//DTD SVG 1.1//EN"
 "http://www.w3.org/Graphics/SVG/1.1/DTD/svg11.dtd">
<!-- Generated by graphviz version 8.0.5 (20230430.1635)
 -->
<!-- Title: NFA Pages: 1 -->
<svg width="148pt" height="164pt"
 viewBox="0.00 0.00 148.12 163.50" xmlns="http://www.w3.org/2000/svg" xmlns:xlink="http://www.w3.org/1999/xlink">

<svg id="main" version="1.1" xmlns="http://www.w3.org/2000/svg" xmlns:xlink="http://www.w3.org/1999/xlink" xml:space="preserve" onload="init(evt)">
<style type="text/css"><![CDATA[
.node, .edge {opacity: 0.7;}
.node.selected, .edge.selected {opacity: 1;}
.edge:hover path { stroke: red; }
.edge:hover polygon { stroke: red; fill: red; }
]]></style>
<script type="application/ecmascript" xlink:href="../../svg.min.js"/>
<svg id="graph" class="graph">
<g id="graph0" class="graph" transform="scale(1 1) rotate(0) translate(4 159.5)">
<title>NFA</title>
<!-- Node1 -->
<g id="Node000001" class="node">
<title>Node1</title>
<g id="a_Node000001"><a xlink:title="Definition for the NFA itself.">
<polygon fill="#999999" stroke="#666666" points="36.25,-19.25 0,-19.25 0,0 36.25,0 36.25,-19.25"/>
<text text-anchor="middle" x="18.12" y="-5.75" font-family="Helvetica,sans-Serif" font-size="10.00">NFA</text>
</a>
</g>
</g>
<!-- Node1&#45;&gt;Node1 -->
<g id="edge5_Node000001_Node000001" class="edge">
<title>Node1&#45;&gt;Node1</title>
<g id="a_edge5_Node000001_Node000001"><a xlink:title=" ">
<path fill="none" stroke="#9a32cd" stroke-dasharray="5,2" d="M47.69,-15.14C51.63,-14.2 54.25,-12.36 54.25,-9.62 54.25,-4.75 45.98,-2.74 36.71,-3.57"/>
<polygon fill="#9a32cd" stroke="#9a32cd" points="47.53,-11.69 37.71,-15.68 47.87,-18.68 47.53,-11.69"/>
</a>
</g>
<text text-anchor="middle" x="66.25" y="-5.75" font-family="Helvetica,sans-Serif" font-size="10.00" fill="grey"> subs</text>
</g>
<!-- Node2 -->
<g id="Node000002" class="node">
<title>Node2</title>
<g id="a_Node000002"><a xlink:href="../../d4/d97/struct_n_f_a_state.html" target="_top" xlink:title="Definition for a NFA state.">
<polygon fill="white" stroke="#666666" points="89.88,-155.5 30.37,-155.5 30.37,-136.25 89.88,-136.25 89.88,-155.5"/>
<text text-anchor="middle" x="60.12" y="-142" font-family="Helvetica,sans-Serif" font-size="10.00">NFAState</text>
</a>
</g>
</g>
<!-- Node2&#45;&gt;Node1 -->
<g id="edge1_Node000001_Node000002" class="edge">
<title>Node2&#45;&gt;Node1</title>
<g id="a_edge1_Node000001_Node000002"><a xlink:title=" ">
<path fill="none" stroke="#9a32cd" stroke-dasharray="5,2" d="M40.54,-128.82C29.77,-118.68 17.44,-104.57 11.62,-89 2.74,-65.21 10.2,-34.62 14.94,-19.66"/>
<polygon fill="#9a32cd" stroke="#9a32cd" points="37.89,-131.04 47.69,-135.06 42.54,-125.8 37.89,-131.04"/>
</a>
</g>
<text text-anchor="middle" x="42.88" y="-79.5" font-family="Helvetica,sans-Serif" font-size="10.00" fill="grey"> currentStates</text>
<text text-anchor="middle" x="42.88" y="-68.25" font-family="Helvetica,sans-Serif" font-size="10.00" fill="grey">statePool</text>
</g>
<!-- Node3 -->
<g id="Node000003" class="node">
<title>Node3</title>
<g id="a_Node000003"><a xlink:href="../../d9/dd9/structtrans_rule.html" target="_top" xlink:title="Definition for a NFA state transition rule.">
<polygon fill="white" stroke="#666666" points="140.12,-87.38 82.12,-87.38 82.12,-68.12 140.12,-68.12 140.12,-87.38"/>
<text text-anchor="middle" x="111.12" y="-73.88" font-family="Helvetica,sans-Serif" font-size="10.00">transRule</text>
</a>
</g>
</g>
<!-- Node2&#45;&gt;Node3 -->
<g id="edge3_Node000003_Node000002" class="edge">
<title>Node2&#45;&gt;Node3</title>
<g id="a_edge3_Node000003_Node000002"><a xlink:title=" ">
<path fill="none" stroke="#9a32cd" stroke-dasharray="5,2" d="M54.42,-125.38C53.67,-119.13 54.09,-112.43 57.38,-107 62.83,-97.98 72.22,-91.69 81.64,-87.38"/>
<polygon fill="#9a32cd" stroke="#9a32cd" points="51.13,-125.73 56.66,-134.77 57.97,-124.25 51.13,-125.73"/>
</a>
</g>
<text text-anchor="middle" x="71" y="-108.75" font-family="Helvetica,sans-Serif" font-size="10.00" fill="grey"> target</text>
</g>
<!-- Node3&#45;&gt;Node1 -->
<g id="edge4_Node000001_Node000003" class="edge">
<title>Node3&#45;&gt;Node1</title>
<g id="a_edge4_Node000001_Node000003"><a xlink:title=" ">
<path fill="none" stroke="#9a32cd" stroke-dasharray="5,2" d="M89.81,-61.6C71.57,-48.63 45.93,-30.39 30.77,-19.61"/>
<polygon fill="#9a32cd" stroke="#9a32cd" points="87.4,-64.89 97.58,-67.83 91.46,-59.18 87.4,-64.89"/>
</a>
</g>
<text text-anchor="middle" x="89.25" y="-39" font-family="Helvetica,sans-Serif" font-size="10.00" fill="grey"> rulePool</text>
</g>
<!-- Node3&#45;&gt;Node2 -->
<g id="edge2_Node000002_Node000003" class="edge">
<title>Node3&#45;&gt;Node2</title>
<g id="a_edge2_Node000002_Node000003"><a xlink:title=" ">
<path fill="none" stroke="#9a32cd" stroke-dasharray="5,2" d="M102.24,-97.54C98.62,-104.36 94.1,-111.94 89.12,-118.25 84.04,-124.69 77.35,-130.94 71.68,-135.77"/>
<polygon fill="#9a32cd" stroke="#9a32cd" points="105.81,-99.23 107.15,-88.72 99.55,-96.1 105.81,-99.23"/>
</a>
</g>
<text text-anchor="middle" x="108.12" y="-108.75" font-family="Helvetica,sans-Serif" font-size="10.00" fill="grey"> rules</text>
</g>
</g>
</svg>
</svg>

<style type='text/css'>
<![CDATA[
[data-mouse-over-selected='false'] { opacity: 0.7; }
[data-mouse-over-selected='true']  { opacity: 1.0; }
]]>
</style>
<script type="application/ecmascript"><![CDATA[
document.addEventListener('DOMContentLoaded', (event) => {
  highlightEdges();
  highlightAdjacentNodes();
});
]]></script>
</svg>
