<?xml version="1.0" encoding="UTF-8" standalone="no"?>
<!DOCTYPE svg PUBLIC "-//W3C//DTD SVG 1.1//EN"
 "http://www.w3.org/Graphics/SVG/1.1/DTD/svg11.dtd">
<!-- Generated by graphviz version 5.0.1 (20220820.1526)
 -->
<!-- Title: misc/sudoku_solver.c Pages: 1 -->
<svg width="475pt" height="82pt"
 viewBox="0.00 0.00 474.50 82.00" xmlns="http://www.w3.org/2000/svg" xmlns:xlink="http://www.w3.org/1999/xlink">
<g id="graph0" class="graph" transform="scale(1 1) rotate(0) translate(4 78)">
<title>misc/sudoku_solver.c</title>
<!-- Node1 -->
<g id="node1" class="node">
<title>Node1</title>
<g id="a_node1"><a xlink:title="Sudoku Solver using recursive implementation of brute&#45;force algorithm.">
<polygon fill="#999999" stroke="#666666" points="296.5,-74 185.5,-74 185.5,-55 296.5,-55 296.5,-74"/>
<text text-anchor="middle" x="241" y="-62" font-family="Helvetica,sans-Serif" font-size="10.00">misc/sudoku_solver.c</text>
</a>
</g>
</g>
<!-- Node2 -->
<g id="node2" class="node">
<title>Node2</title>
<g id="a_node2"><a xlink:title=" ">
<polygon fill="#e0e0e0" stroke="#999999" points="52,-19 0,-19 0,0 52,0 52,-19"/>
<text text-anchor="middle" x="26" y="-7" font-family="Helvetica,sans-Serif" font-size="10.00">assert.h</text>
</a>
</g>
</g>
<!-- Node1&#45;&gt;Node2 -->
<g id="edge1" class="edge">
<title>Node1&#45;&gt;Node2</title>
<path fill="none" stroke="#63b8ff" d="M206.46,-54.98C166.82,-45.21 102.12,-29.27 61.92,-19.35"/>
<polygon fill="#63b8ff" stroke="#63b8ff" points="62.55,-15.91 52.01,-16.91 60.88,-22.7 62.55,-15.91"/>
</g>
<!-- Node3 -->
<g id="node3" class="node">
<title>Node3</title>
<g id="a_node3"><a xlink:title=" ">
<polygon fill="#e0e0e0" stroke="#999999" points="129.5,-19 70.5,-19 70.5,0 129.5,0 129.5,-19"/>
<text text-anchor="middle" x="100" y="-7" font-family="Helvetica,sans-Serif" font-size="10.00">inttypes.h</text>
</a>
</g>
</g>
<!-- Node1&#45;&gt;Node3 -->
<g id="edge2" class="edge">
<title>Node1&#45;&gt;Node3</title>
<path fill="none" stroke="#63b8ff" d="M218.35,-54.98C195.15,-46.27 158.88,-32.63 132.6,-22.75"/>
<polygon fill="#63b8ff" stroke="#63b8ff" points="133.66,-19.41 123.07,-19.17 131.2,-25.97 133.66,-19.41"/>
</g>
<!-- Node4 -->
<g id="node4" class="node">
<title>Node4</title>
<g id="a_node4"><a xlink:title=" ">
<polygon fill="#e0e0e0" stroke="#999999" points="194.5,-19 147.5,-19 147.5,0 194.5,0 194.5,-19"/>
<text text-anchor="middle" x="171" y="-7" font-family="Helvetica,sans-Serif" font-size="10.00">math.h</text>
</a>
</g>
</g>
<!-- Node1&#45;&gt;Node4 -->
<g id="edge3" class="edge">
<title>Node1&#45;&gt;Node4</title>
<path fill="none" stroke="#63b8ff" d="M229.75,-54.98C219.2,-47 203.2,-34.88 190.56,-25.31"/>
<polygon fill="#63b8ff" stroke="#63b8ff" points="192.54,-22.42 182.45,-19.17 188.31,-28 192.54,-22.42"/>
</g>
<!-- Node5 -->
<g id="node5" class="node">
<title>Node5</title>
<g id="a_node5"><a xlink:title=" ">
<polygon fill="#e0e0e0" stroke="#999999" points="269,-19 213,-19 213,0 269,0 269,-19"/>
<text text-anchor="middle" x="241" y="-7" font-family="Helvetica,sans-Serif" font-size="10.00">stdbool.h</text>
</a>
</g>
</g>
<!-- Node1&#45;&gt;Node5 -->
<g id="edge4" class="edge">
<title>Node1&#45;&gt;Node5</title>
<path fill="none" stroke="#63b8ff" d="M241,-54.75C241,-47.8 241,-37.85 241,-29.13"/>
<polygon fill="#63b8ff" stroke="#63b8ff" points="244.5,-29.09 241,-19.09 237.5,-29.09 244.5,-29.09"/>
</g>
<!-- Node6 -->
<g id="node6" class="node">
<title>Node6</title>
<g id="a_node6"><a xlink:title=" ">
<polygon fill="#e0e0e0" stroke="#999999" points="333,-19 287,-19 287,0 333,0 333,-19"/>
<text text-anchor="middle" x="310" y="-7" font-family="Helvetica,sans-Serif" font-size="10.00">stdio.h</text>
</a>
</g>
</g>
<!-- Node1&#45;&gt;Node6 -->
<g id="edge5" class="edge">
<title>Node1&#45;&gt;Node6</title>
<path fill="none" stroke="#63b8ff" d="M252.09,-54.98C262.49,-47 278.26,-34.88 290.72,-25.31"/>
<polygon fill="#63b8ff" stroke="#63b8ff" points="292.91,-28.04 298.71,-19.17 288.65,-22.49 292.91,-28.04"/>
</g>
<!-- Node7 -->
<g id="node7" class="node">
<title>Node7</title>
<g id="a_node7"><a xlink:title=" ">
<polygon fill="#e0e0e0" stroke="#999999" points="399,-19 351,-19 351,0 399,0 399,-19"/>
<text text-anchor="middle" x="375" y="-7" font-family="Helvetica,sans-Serif" font-size="10.00">stdlib.h</text>
</a>
</g>
</g>
<!-- Node1&#45;&gt;Node7 -->
<g id="edge6" class="edge">
<title>Node1&#45;&gt;Node7</title>
<path fill="none" stroke="#63b8ff" d="M262.53,-54.98C284.47,-46.3 318.74,-32.75 343.69,-22.88"/>
<polygon fill="#63b8ff" stroke="#63b8ff" points="345.07,-26.1 353.08,-19.17 342.49,-19.59 345.07,-26.1"/>
</g>
<!-- Node8 -->
<g id="node8" class="node">
<title>Node8</title>
<g id="a_node8"><a xlink:title=" ">
<polygon fill="#e0e0e0" stroke="#999999" points="466.5,-19 417.5,-19 417.5,0 466.5,0 466.5,-19"/>
<text text-anchor="middle" x="442" y="-7" font-family="Helvetica,sans-Serif" font-size="10.00">string.h</text>
</a>
</g>
</g>
<!-- Node1&#45;&gt;Node8 -->
<g id="edge7" class="edge">
<title>Node1&#45;&gt;Node8</title>
<path fill="none" stroke="#63b8ff" d="M273.29,-54.98C310.01,-45.3 369.73,-29.56 407.39,-19.63"/>
<polygon fill="#63b8ff" stroke="#63b8ff" points="408.61,-22.92 417.39,-16.99 406.83,-16.16 408.61,-22.92"/>
</g>
</g>
</svg>
