<?xml version="1.0" encoding="UTF-8" standalone="no"?>
<!DOCTYPE svg PUBLIC "-//W3C//DTD SVG 1.1//EN"
 "http://www.w3.org/Graphics/SVG/1.1/DTD/svg11.dtd">
<!-- Generated by graphviz version 3.0.0 (20220226.1711)
 -->
<!-- Title: project_euler/problem_401/sol1.c Pages: 1 -->
<svg width="390pt" height="95pt"
 viewBox="0.00 0.00 389.50 95.00" xmlns="http://www.w3.org/2000/svg" xmlns:xlink="http://www.w3.org/1999/xlink">
<g id="graph0" class="graph" transform="scale(1 1) rotate(0) translate(4 91)">
<title>project_euler/problem_401/sol1.c</title>
<polygon fill="white" stroke="transparent" points="-4,4 -4,-91 385.5,-91 385.5,4 -4,4"/>
<!-- Node1 -->
<g id="node1" class="node">
<title>Node1</title>
<g id="a_node1"><a xlink:title="Problem 401 solution &#45; Sum of squares of divisors">
<polygon fill="#bfbfbf" stroke="black" points="132.5,-56.5 132.5,-86.5 242.5,-86.5 242.5,-56.5 132.5,-56.5"/>
<text text-anchor="start" x="140.5" y="-74.5" font-family="Helvetica,sans-Serif" font-size="10.00">project_euler/problem</text>
<text text-anchor="middle" x="187.5" y="-63.5" font-family="Helvetica,sans-Serif" font-size="10.00">_401/sol1.c</text>
</a>
</g>
</g>
<!-- Node2 -->
<g id="node2" class="node">
<title>Node2</title>
<g id="a_node2"><a xlink:title=" ">
<polygon fill="white" stroke="#bfbfbf" points="0,-0.5 0,-19.5 49,-19.5 49,-0.5 0,-0.5"/>
<text text-anchor="middle" x="24.5" y="-7.5" font-family="Helvetica,sans-Serif" font-size="10.00">stdint.h</text>
</a>
</g>
</g>
<!-- Node1&#45;&gt;Node2 -->
<g id="edge1" class="edge">
<title>Node1&#45;&gt;Node2</title>
<path fill="none" stroke="midnightblue" d="M148.87,-56.4C121.16,-46.28 84.19,-32.79 57.78,-23.15"/>
<polygon fill="midnightblue" stroke="midnightblue" points="58.81,-19.8 48.22,-19.66 56.41,-26.37 58.81,-19.8"/>
</g>
<!-- Node3 -->
<g id="node3" class="node">
<title>Node3</title>
<g id="a_node3"><a xlink:title=" ">
<polygon fill="white" stroke="#bfbfbf" points="67.5,-0.5 67.5,-19.5 113.5,-19.5 113.5,-0.5 67.5,-0.5"/>
<text text-anchor="middle" x="90.5" y="-7.5" font-family="Helvetica,sans-Serif" font-size="10.00">stdio.h</text>
</a>
</g>
</g>
<!-- Node1&#45;&gt;Node3 -->
<g id="edge2" class="edge">
<title>Node1&#45;&gt;Node3</title>
<path fill="none" stroke="midnightblue" d="M164.51,-56.4C149.11,-46.95 128.91,-34.56 113.5,-25.11"/>
<polygon fill="midnightblue" stroke="midnightblue" points="114.97,-21.9 104.61,-19.66 111.31,-27.87 114.97,-21.9"/>
</g>
<!-- Node4 -->
<g id="node4" class="node">
<title>Node4</title>
<g id="a_node4"><a xlink:title=" ">
<polygon fill="white" stroke="#bfbfbf" points="131.5,-0.5 131.5,-19.5 179.5,-19.5 179.5,-0.5 131.5,-0.5"/>
<text text-anchor="middle" x="155.5" y="-7.5" font-family="Helvetica,sans-Serif" font-size="10.00">stdlib.h</text>
</a>
</g>
</g>
<!-- Node1&#45;&gt;Node4 -->
<g id="edge3" class="edge">
<title>Node1&#45;&gt;Node4</title>
<path fill="none" stroke="midnightblue" d="M179.92,-56.4C175.46,-48.11 169.78,-37.55 165.02,-28.71"/>
<polygon fill="midnightblue" stroke="midnightblue" points="167.98,-26.81 160.16,-19.66 161.81,-30.12 167.98,-26.81"/>
</g>
<!-- Node5 -->
<g id="node5" class="node">
<title>Node5</title>
<g id="a_node5"><a xlink:title=" ">
<polygon fill="white" stroke="#bfbfbf" points="197.5,-0.5 197.5,-19.5 241.5,-19.5 241.5,-0.5 197.5,-0.5"/>
<text text-anchor="middle" x="219.5" y="-7.5" font-family="Helvetica,sans-Serif" font-size="10.00">time.h</text>
</a>
</g>
</g>
<!-- Node1&#45;&gt;Node5 -->
<g id="edge4" class="edge">
<title>Node1&#45;&gt;Node5</title>
<path fill="none" stroke="midnightblue" d="M195.08,-56.4C199.54,-48.11 205.22,-37.55 209.98,-28.71"/>
<polygon fill="midnightblue" stroke="midnightblue" points="213.19,-30.12 214.84,-19.66 207.02,-26.81 213.19,-30.12"/>
</g>
<!-- Node6 -->
<g id="node6" class="node">
<title>Node6</title>
<g id="a_node6"><a xlink:title=" ">
<polygon fill="white" stroke="#bfbfbf" points="260,-0.5 260,-19.5 319,-19.5 319,-0.5 260,-0.5"/>
<text text-anchor="middle" x="289.5" y="-7.5" font-family="Helvetica,sans-Serif" font-size="10.00">inttypes.h</text>
</a>
</g>
</g>
<!-- Node1&#45;&gt;Node6 -->
<g id="edge5" class="edge">
<title>Node1&#45;&gt;Node6</title>
<path fill="none" stroke="midnightblue" d="M211.67,-56.4C228.02,-46.86 249.51,-34.32 265.77,-24.84"/>
<polygon fill="midnightblue" stroke="midnightblue" points="267.78,-27.72 274.66,-19.66 264.26,-21.67 267.78,-27.72"/>
</g>
<!-- Node7 -->
<g id="node7" class="node">
<title>Node7</title>
<g id="a_node7"><a xlink:title=" ">
<polygon fill="white" stroke="#bfbfbf" points="337.5,-0.5 337.5,-19.5 381.5,-19.5 381.5,-0.5 337.5,-0.5"/>
<text text-anchor="middle" x="359.5" y="-7.5" font-family="Helvetica,sans-Serif" font-size="10.00">omp.h</text>
</a>
</g>
</g>
<!-- Node1&#45;&gt;Node7 -->
<g id="edge6" class="edge">
<title>Node1&#45;&gt;Node7</title>
<path fill="none" stroke="midnightblue" d="M228.26,-56.4C258.7,-45.87 299.7,-31.69 327.73,-21.99"/>
<polygon fill="midnightblue" stroke="midnightblue" points="329.11,-25.21 337.42,-18.64 326.83,-18.6 329.11,-25.21"/>
</g>
</g>
</svg>
