<?xml version="1.0" encoding="UTF-8" standalone="no"?>
<!DOCTYPE svg PUBLIC "-//W3C//DTD SVG 1.1//EN"
 "http://www.w3.org/Graphics/SVG/1.1/DTD/svg11.dtd">
<!-- Generated by graphviz version 8.0.5 (20230430.1635)
 -->
<!-- Title: numerical_methods/durand_kerner_roots.c Pages: 1 -->
<svg width="455pt" height="94pt"
 viewBox="0.00 0.00 455.00 93.75" xmlns="http://www.w3.org/2000/svg" xmlns:xlink="http://www.w3.org/1999/xlink">

<svg id="main" version="1.1" xmlns="http://www.w3.org/2000/svg" xmlns:xlink="http://www.w3.org/1999/xlink" xml:space="preserve" onload="init(evt)">
<style type="text/css"><![CDATA[
.node, .edge {opacity: 0.7;}
.node.selected, .edge.selected {opacity: 1;}
.edge:hover path { stroke: red; }
.edge:hover polygon { stroke: red; fill: red; }
]]></style>
<script type="application/ecmascript" xlink:href="../../svg.min.js"/>
<svg id="graph" class="graph">
<g id="graph0" class="graph" transform="scale(1 1) rotate(0) translate(4 89.75)">
<title>numerical_methods/durand_kerner_roots.c</title>
<!-- Node1 -->
<g id="Node000001" class="node">
<title>Node1</title>
<g id="a_Node000001"><a xlink:title="Compute all possible approximate roots of any given polynomial using Durand Kerner algorithm">
<polygon fill="#999999" stroke="#666666" points="298,-85.75 165,-85.75 165,-55.25 298,-55.25 298,-85.75"/>
<text text-anchor="start" x="173" y="-72.25" font-family="Helvetica,sans-Serif" font-size="10.00">numerical_methods/durand</text>
<text text-anchor="middle" x="231.5" y="-61" font-family="Helvetica,sans-Serif" font-size="10.00">_kerner_roots.c</text>
</a>
</g>
</g>
<!-- Node2 -->
<g id="Node000002" class="node">
<title>Node2</title>
<g id="a_Node000002"><a xlink:title=" ">
<polygon fill="#e0e0e0" stroke="#999999" points="61,-19.25 0,-19.25 0,0 61,0 61,-19.25"/>
<text text-anchor="middle" x="30.5" y="-5.75" font-family="Helvetica,sans-Serif" font-size="10.00">complex.h</text>
</a>
</g>
</g>
<!-- Node1&#45;&gt;Node2 -->
<g id="edge1_Node000001_Node000002" class="edge">
<title>Node1&#45;&gt;Node2</title>
<g id="a_edge1_Node000001_Node000002"><a xlink:title=" ">
<path fill="none" stroke="#63b8ff" d="M181.3,-54.8C147.45,-44.88 103.35,-31.96 71.59,-22.66"/>
<polygon fill="#63b8ff" stroke="#63b8ff" points="72.91,-19.11 62.33,-19.65 70.94,-25.82 72.91,-19.11"/>
</a>
</g>
</g>
<!-- Node3 -->
<g id="Node000003" class="node">
<title>Node3</title>
<g id="a_Node000003"><a xlink:title=" ">
<polygon fill="#e0e0e0" stroke="#999999" points="126.25,-19.25 78.75,-19.25 78.75,0 126.25,0 126.25,-19.25"/>
<text text-anchor="middle" x="102.5" y="-5.75" font-family="Helvetica,sans-Serif" font-size="10.00">limits.h</text>
</a>
</g>
</g>
<!-- Node1&#45;&gt;Node3 -->
<g id="edge2_Node000001_Node000003" class="edge">
<title>Node1&#45;&gt;Node3</title>
<g id="a_edge2_Node000001_Node000003"><a xlink:title=" ">
<path fill="none" stroke="#63b8ff" d="M199.28,-54.8C178.69,-45.4 152.19,-33.3 132.12,-24.14"/>
<polygon fill="#63b8ff" stroke="#63b8ff" points="133.83,-20.62 123.28,-19.65 130.93,-26.99 133.83,-20.62"/>
</a>
</g>
</g>
<!-- Node4 -->
<g id="Node000004" class="node">
<title>Node4</title>
<g id="a_Node000004"><a xlink:title=" ">
<polygon fill="#e0e0e0" stroke="#999999" points="190.5,-19.25 144.5,-19.25 144.5,0 190.5,0 190.5,-19.25"/>
<text text-anchor="middle" x="167.5" y="-5.75" font-family="Helvetica,sans-Serif" font-size="10.00">math.h</text>
</a>
</g>
</g>
<!-- Node1&#45;&gt;Node4 -->
<g id="edge3_Node000001_Node000004" class="edge">
<title>Node1&#45;&gt;Node4</title>
<g id="a_edge3_Node000001_Node000004"><a xlink:title=" ">
<path fill="none" stroke="#63b8ff" d="M215.68,-54.95C206.5,-46.5 194.9,-35.83 185.39,-27.08"/>
<polygon fill="#63b8ff" stroke="#63b8ff" points="188.1,-24.9 178.37,-20.7 183.36,-30.05 188.1,-24.9"/>
</a>
</g>
</g>
<!-- Node5 -->
<g id="Node000005" class="node">
<title>Node5</title>
<g id="a_Node000005"><a xlink:title=" ">
<polygon fill="#e0e0e0" stroke="#999999" points="254.12,-19.25 208.88,-19.25 208.88,0 254.12,0 254.12,-19.25"/>
<text text-anchor="middle" x="231.5" y="-5.75" font-family="Helvetica,sans-Serif" font-size="10.00">stdio.h</text>
</a>
</g>
</g>
<!-- Node1&#45;&gt;Node5 -->
<g id="edge4_Node000001_Node000005" class="edge">
<title>Node1&#45;&gt;Node5</title>
<g id="a_edge4_Node000001_Node000005"><a xlink:title=" ">
<path fill="none" stroke="#63b8ff" d="M231.5,-54.95C231.5,-47.62 231.5,-38.62 231.5,-30.66"/>
<polygon fill="#63b8ff" stroke="#63b8ff" points="235,-30.7 231.5,-20.7 228,-30.7 235,-30.7"/>
</a>
</g>
</g>
<!-- Node6 -->
<g id="Node000006" class="node">
<title>Node6</title>
<g id="a_Node000006"><a xlink:title=" ">
<polygon fill="#e0e0e0" stroke="#999999" points="319.25,-19.25 271.75,-19.25 271.75,0 319.25,0 319.25,-19.25"/>
<text text-anchor="middle" x="295.5" y="-5.75" font-family="Helvetica,sans-Serif" font-size="10.00">stdlib.h</text>
</a>
</g>
</g>
<!-- Node1&#45;&gt;Node6 -->
<g id="edge5_Node000001_Node000006" class="edge">
<title>Node1&#45;&gt;Node6</title>
<g id="a_edge5_Node000001_Node000006"><a xlink:title=" ">
<path fill="none" stroke="#63b8ff" d="M247.32,-54.95C256.5,-46.5 268.1,-35.83 277.61,-27.08"/>
<polygon fill="#63b8ff" stroke="#63b8ff" points="279.64,-30.05 284.63,-20.7 274.9,-24.9 279.64,-30.05"/>
</a>
</g>
</g>
<!-- Node7 -->
<g id="Node000007" class="node">
<title>Node7</title>
<g id="a_Node000007"><a xlink:title=" ">
<polygon fill="#e0e0e0" stroke="#999999" points="385.62,-19.25 337.38,-19.25 337.38,0 385.62,0 385.62,-19.25"/>
<text text-anchor="middle" x="361.5" y="-5.75" font-family="Helvetica,sans-Serif" font-size="10.00">string.h</text>
</a>
</g>
</g>
<!-- Node1&#45;&gt;Node7 -->
<g id="edge6_Node000001_Node000007" class="edge">
<title>Node1&#45;&gt;Node7</title>
<g id="a_edge6_Node000001_Node000007"><a xlink:title=" ">
<path fill="none" stroke="#63b8ff" d="M263.97,-54.8C284.72,-45.4 311.43,-33.3 331.65,-24.14"/>
<polygon fill="#63b8ff" stroke="#63b8ff" points="332.9,-26.97 340.56,-19.65 330.01,-20.59 332.9,-26.97"/>
</a>
</g>
</g>
<!-- Node8 -->
<g id="Node000008" class="node">
<title>Node8</title>
<g id="a_Node000008"><a xlink:title=" ">
<polygon fill="#e0e0e0" stroke="#999999" points="447,-19.25 404,-19.25 404,0 447,0 447,-19.25"/>
<text text-anchor="middle" x="425.5" y="-5.75" font-family="Helvetica,sans-Serif" font-size="10.00">time.h</text>
</a>
</g>
</g>
<!-- Node1&#45;&gt;Node8 -->
<g id="edge7_Node000001_Node000008" class="edge">
<title>Node1&#45;&gt;Node8</title>
<g id="a_edge7_Node000001_Node000008"><a xlink:title=" ">
<path fill="none" stroke="#63b8ff" d="M279.95,-54.8C315.39,-44.04 362.48,-29.75 393.37,-20.38"/>
<polygon fill="#63b8ff" stroke="#63b8ff" points="394.02,-23.53 402.57,-17.28 391.99,-16.83 394.02,-23.53"/>
</a>
</g>
</g>
</g>
</svg>
</svg>

<style type='text/css'>
<![CDATA[
[data-mouse-over-selected='false'] { opacity: 0.7; }
[data-mouse-over-selected='true']  { opacity: 1.0; }
]]>
</style>
<script type="application/ecmascript"><![CDATA[
document.addEventListener('DOMContentLoaded', (event) => {
  highlightEdges();
  highlightAdjacentNodes();
});
]]></script>
</svg>
