<?xml version="1.0" encoding="UTF-8" standalone="no"?>
<!DOCTYPE svg PUBLIC "-//W3C//DTD SVG 1.1//EN"
 "http://www.w3.org/Graphics/SVG/1.1/DTD/svg11.dtd">
<!-- Generated by graphviz version 9.0.0 (20230911.1827)
 -->
<!-- Title: numerical_methods/durand_kerner_roots.c Pages: 1 -->
<svg width="455pt" height="94pt"
 viewBox="0.00 0.00 455.00 93.75" xmlns="http://www.w3.org/2000/svg" xmlns:xlink="http://www.w3.org/1999/xlink">
<g id="graph0" class="graph" transform="scale(1 1) rotate(0) translate(4 89.75)">
<title>numerical_methods/durand_kerner_roots.c</title>
<!-- Node1 -->
<g id="Node000001" class="node">
<title>Node1</title>
<g id="a_Node000001"><a xlink:title="Compute all possible approximate roots of any given polynomial using Durand Kerner algorithm">
<polygon fill="#999999" stroke="#666666" points="298,-85.75 165,-85.75 165,-55.25 298,-55.25 298,-85.75"/>
<text text-anchor="start" x="173" y="-72.25" font-family="Helvetica,sans-Serif" font-size="10.00">numerical_methods/durand</text>
<text text-anchor="middle" x="231.5" y="-61" font-family="Helvetica,sans-Serif" font-size="10.00">_kerner_roots.c</text>
</a>
</g>
</g>
<!-- Node2 -->
<g id="Node000002" class="node">
<title>Node2</title>
<g id="a_Node000002"><a xlink:title=" ">
<polygon fill="#e0e0e0" stroke="#999999" points="61,-19.25 0,-19.25 0,0 61,0 61,-19.25"/>
<text text-anchor="middle" x="30.5" y="-5.75" font-family="Helvetica,sans-Serif" font-size="10.00">complex.h</text>
</a>
</g>
</g>
<!-- Node1&#45;&gt;Node2 -->
<g id="edge1_Node000001_Node000002" class="edge">
<title>Node1&#45;&gt;Node2</title>
<g id="a_edge1_Node000001_Node000002"><a xlink:title=" ">
<path fill="none" stroke="#63b8ff" d="M181.3,-54.8C147.6,-44.92 103.73,-32.07 72,-22.78"/>
<polygon fill="#63b8ff" stroke="#63b8ff" points="73.36,-19.53 62.78,-20.08 71.39,-26.25 73.36,-19.53"/>
</a>
</g>
</g>
<!-- Node3 -->
<g id="Node000003" class="node">
<title>Node3</title>
<g id="a_Node000003"><a xlink:title=" ">
<polygon fill="#e0e0e0" stroke="#999999" points="126.25,-19.25 78.75,-19.25 78.75,0 126.25,0 126.25,-19.25"/>
<text text-anchor="middle" x="102.5" y="-5.75" font-family="Helvetica,sans-Serif" font-size="10.00">limits.h</text>
</a>
</g>
</g>
<!-- Node1&#45;&gt;Node3 -->
<g id="edge2_Node000001_Node000003" class="edge">
<title>Node1&#45;&gt;Node3</title>
<g id="a_edge2_Node000001_Node000003"><a xlink:title=" ">
<path fill="none" stroke="#63b8ff" d="M199.28,-54.8C178.88,-45.48 152.67,-33.52 132.68,-24.4"/>
<polygon fill="#63b8ff" stroke="#63b8ff" points="134.21,-21.25 123.66,-20.28 131.3,-27.62 134.21,-21.25"/>
</a>
</g>
</g>
<!-- Node4 -->
<g id="Node000004" class="node">
<title>Node4</title>
<g id="a_Node000004"><a xlink:title=" ">
<polygon fill="#e0e0e0" stroke="#999999" points="190.5,-19.25 144.5,-19.25 144.5,0 190.5,0 190.5,-19.25"/>
<text text-anchor="middle" x="167.5" y="-5.75" font-family="Helvetica,sans-Serif" font-size="10.00">math.h</text>
</a>
</g>
</g>
<!-- Node1&#45;&gt;Node4 -->
<g id="edge3_Node000001_Node000004" class="edge">
<title>Node1&#45;&gt;Node4</title>
<g id="a_edge3_Node000001_Node000004"><a xlink:title=" ">
<path fill="none" stroke="#63b8ff" d="M215.68,-54.95C206.59,-46.59 195.14,-36.05 185.68,-27.35"/>
<polygon fill="#63b8ff" stroke="#63b8ff" points="188.21,-24.92 178.48,-20.73 183.47,-30.07 188.21,-24.92"/>
</a>
</g>
</g>
<!-- Node5 -->
<g id="Node000005" class="node">
<title>Node5</title>
<g id="a_Node000005"><a xlink:title=" ">
<polygon fill="#e0e0e0" stroke="#999999" points="254.12,-19.25 208.88,-19.25 208.88,0 254.12,0 254.12,-19.25"/>
<text text-anchor="middle" x="231.5" y="-5.75" font-family="Helvetica,sans-Serif" font-size="10.00">stdio.h</text>
</a>
</g>
</g>
<!-- Node1&#45;&gt;Node5 -->
<g id="edge4_Node000001_Node000005" class="edge">
<title>Node1&#45;&gt;Node5</title>
<g id="a_edge4_Node000001_Node000005"><a xlink:title=" ">
<path fill="none" stroke="#63b8ff" d="M231.5,-54.95C231.5,-47.71 231.5,-38.84 231.5,-30.94"/>
<polygon fill="#63b8ff" stroke="#63b8ff" points="235,-31.21 231.5,-21.21 228,-31.21 235,-31.21"/>
</a>
</g>
</g>
<!-- Node6 -->
<g id="Node000006" class="node">
<title>Node6</title>
<g id="a_Node000006"><a xlink:title=" ">
<polygon fill="#e0e0e0" stroke="#999999" points="319.25,-19.25 271.75,-19.25 271.75,0 319.25,0 319.25,-19.25"/>
<text text-anchor="middle" x="295.5" y="-5.75" font-family="Helvetica,sans-Serif" font-size="10.00">stdlib.h</text>
</a>
</g>
</g>
<!-- Node1&#45;&gt;Node6 -->
<g id="edge5_Node000001_Node000006" class="edge">
<title>Node1&#45;&gt;Node6</title>
<g id="a_edge5_Node000001_Node000006"><a xlink:title=" ">
<path fill="none" stroke="#63b8ff" d="M247.32,-54.95C256.41,-46.59 267.86,-36.05 277.32,-27.35"/>
<polygon fill="#63b8ff" stroke="#63b8ff" points="279.53,-30.07 284.52,-20.73 274.79,-24.92 279.53,-30.07"/>
</a>
</g>
</g>
<!-- Node7 -->
<g id="Node000007" class="node">
<title>Node7</title>
<g id="a_Node000007"><a xlink:title=" ">
<polygon fill="#e0e0e0" stroke="#999999" points="385.62,-19.25 337.38,-19.25 337.38,0 385.62,0 385.62,-19.25"/>
<text text-anchor="middle" x="361.5" y="-5.75" font-family="Helvetica,sans-Serif" font-size="10.00">string.h</text>
</a>
</g>
</g>
<!-- Node1&#45;&gt;Node7 -->
<g id="edge6_Node000001_Node000007" class="edge">
<title>Node1&#45;&gt;Node7</title>
<g id="a_edge6_Node000001_Node000007"><a xlink:title=" ">
<path fill="none" stroke="#63b8ff" d="M263.97,-54.8C284.53,-45.48 310.94,-33.52 331.09,-24.4"/>
<polygon fill="#63b8ff" stroke="#63b8ff" points="332.52,-27.59 340.18,-20.28 329.63,-21.22 332.52,-27.59"/>
</a>
</g>
</g>
<!-- Node8 -->
<g id="Node000008" class="node">
<title>Node8</title>
<g id="a_Node000008"><a xlink:title=" ">
<polygon fill="#e0e0e0" stroke="#999999" points="447,-19.25 404,-19.25 404,0 447,0 447,-19.25"/>
<text text-anchor="middle" x="425.5" y="-5.75" font-family="Helvetica,sans-Serif" font-size="10.00">time.h</text>
</a>
</g>
</g>
<!-- Node1&#45;&gt;Node8 -->
<g id="edge7_Node000001_Node000008" class="edge">
<title>Node1&#45;&gt;Node8</title>
<g id="a_edge7_Node000001_Node000008"><a xlink:title=" ">
<path fill="none" stroke="#63b8ff" d="M279.95,-54.8C315.08,-44.13 361.66,-30 392.55,-20.62"/>
<polygon fill="#63b8ff" stroke="#63b8ff" points="393.57,-23.97 402.12,-17.72 391.54,-17.27 393.57,-23.97"/>
</a>
</g>
</g>
</g>
</svg>
