<?xml version="1.0" encoding="UTF-8" standalone="no"?>
<!DOCTYPE svg PUBLIC "-//W3C//DTD SVG 1.1//EN"
 "http://www.w3.org/Graphics/SVG/1.1/DTD/svg11.dtd">
<!-- Generated by graphviz version 5.0.1 (20220820.1526)
 -->
<!-- Title: numerical_methods/durand_kerner_roots.c Pages: 1 -->
<svg width="462pt" height="93pt"
 viewBox="0.00 0.00 462.00 93.00" xmlns="http://www.w3.org/2000/svg" xmlns:xlink="http://www.w3.org/1999/xlink">
<g id="graph0" class="graph" transform="scale(1 1) rotate(0) translate(4 89)">
<title>numerical_methods/durand_kerner_roots.c</title>
<!-- Node1 -->
<g id="node1" class="node">
<title>Node1</title>
<g id="a_node1"><a xlink:title="Compute all possible approximate roots of any given polynomial using Durand Kerner algorithm">
<polygon fill="#999999" stroke="#666666" points="302,-85 168,-85 168,-55 302,-55 302,-85"/>
<text text-anchor="start" x="176" y="-73" font-family="Helvetica,sans-Serif" font-size="10.00">numerical_methods/durand</text>
<text text-anchor="middle" x="235" y="-62" font-family="Helvetica,sans-Serif" font-size="10.00">_kerner_roots.c</text>
</a>
</g>
</g>
<!-- Node2 -->
<g id="node2" class="node">
<title>Node2</title>
<g id="a_node2"><a xlink:title=" ">
<polygon fill="#e0e0e0" stroke="#999999" points="62,-19 0,-19 0,0 62,0 62,-19"/>
<text text-anchor="middle" x="31" y="-7" font-family="Helvetica,sans-Serif" font-size="10.00">complex.h</text>
</a>
</g>
</g>
<!-- Node1&#45;&gt;Node2 -->
<g id="edge1" class="edge">
<title>Node1&#45;&gt;Node2</title>
<path fill="none" stroke="#63b8ff" d="M186.14,-54.99C150.78,-44.85 103.6,-31.32 70.59,-21.85"/>
<polygon fill="#63b8ff" stroke="#63b8ff" points="71.41,-18.45 60.83,-19.05 69.48,-25.17 71.41,-18.45"/>
</g>
<!-- Node3 -->
<g id="node3" class="node">
<title>Node3</title>
<g id="a_node3"><a xlink:title=" ">
<polygon fill="#e0e0e0" stroke="#999999" points="128,-19 80,-19 80,0 128,0 128,-19"/>
<text text-anchor="middle" x="104" y="-7" font-family="Helvetica,sans-Serif" font-size="10.00">limits.h</text>
</a>
</g>
</g>
<!-- Node1&#45;&gt;Node3 -->
<g id="edge2" class="edge">
<title>Node1&#45;&gt;Node3</title>
<path fill="none" stroke="#63b8ff" d="M203.62,-54.99C182.06,-45.36 153.65,-32.67 132.69,-23.31"/>
<polygon fill="#63b8ff" stroke="#63b8ff" points="133.9,-20.02 123.35,-19.14 131.05,-26.41 133.9,-20.02"/>
</g>
<!-- Node4 -->
<g id="node4" class="node">
<title>Node4</title>
<g id="a_node4"><a xlink:title=" ">
<polygon fill="#e0e0e0" stroke="#999999" points="193.5,-19 146.5,-19 146.5,0 193.5,0 193.5,-19"/>
<text text-anchor="middle" x="170" y="-7" font-family="Helvetica,sans-Serif" font-size="10.00">math.h</text>
</a>
</g>
</g>
<!-- Node1&#45;&gt;Node4 -->
<g id="edge3" class="edge">
<title>Node1&#45;&gt;Node4</title>
<path fill="none" stroke="#63b8ff" d="M219.27,-54.84C209.64,-46.17 197.31,-35.08 187.39,-26.15"/>
<polygon fill="#63b8ff" stroke="#63b8ff" points="189.51,-23.35 179.74,-19.27 184.83,-28.56 189.51,-23.35"/>
</g>
<!-- Node5 -->
<g id="node5" class="node">
<title>Node5</title>
<g id="a_node5"><a xlink:title=" ">
<polygon fill="#e0e0e0" stroke="#999999" points="258,-19 212,-19 212,0 258,0 258,-19"/>
<text text-anchor="middle" x="235" y="-7" font-family="Helvetica,sans-Serif" font-size="10.00">stdio.h</text>
</a>
</g>
</g>
<!-- Node1&#45;&gt;Node5 -->
<g id="edge4" class="edge">
<title>Node1&#45;&gt;Node5</title>
<path fill="none" stroke="#63b8ff" d="M235,-54.84C235,-47.21 235,-37.7 235,-29.45"/>
<polygon fill="#63b8ff" stroke="#63b8ff" points="238.5,-29.27 235,-19.27 231.5,-29.27 238.5,-29.27"/>
</g>
<!-- Node6 -->
<g id="node6" class="node">
<title>Node6</title>
<g id="a_node6"><a xlink:title=" ">
<polygon fill="#e0e0e0" stroke="#999999" points="324,-19 276,-19 276,0 324,0 324,-19"/>
<text text-anchor="middle" x="300" y="-7" font-family="Helvetica,sans-Serif" font-size="10.00">stdlib.h</text>
</a>
</g>
</g>
<!-- Node1&#45;&gt;Node6 -->
<g id="edge5" class="edge">
<title>Node1&#45;&gt;Node6</title>
<path fill="none" stroke="#63b8ff" d="M250.73,-54.84C260.36,-46.17 272.69,-35.08 282.61,-26.15"/>
<polygon fill="#63b8ff" stroke="#63b8ff" points="285.17,-28.56 290.26,-19.27 280.49,-23.35 285.17,-28.56"/>
</g>
<!-- Node7 -->
<g id="node7" class="node">
<title>Node7</title>
<g id="a_node7"><a xlink:title=" ">
<polygon fill="#e0e0e0" stroke="#999999" points="391.5,-19 342.5,-19 342.5,0 391.5,0 391.5,-19"/>
<text text-anchor="middle" x="367" y="-7" font-family="Helvetica,sans-Serif" font-size="10.00">string.h</text>
</a>
</g>
</g>
<!-- Node1&#45;&gt;Node7 -->
<g id="edge6" class="edge">
<title>Node1&#45;&gt;Node7</title>
<path fill="none" stroke="#63b8ff" d="M266.62,-54.99C288.35,-45.36 316.97,-32.67 338.09,-23.31"/>
<polygon fill="#63b8ff" stroke="#63b8ff" points="339.78,-26.39 347.51,-19.14 336.95,-19.99 339.78,-26.39"/>
</g>
<!-- Node8 -->
<g id="node8" class="node">
<title>Node8</title>
<g id="a_node8"><a xlink:title=" ">
<polygon fill="#e0e0e0" stroke="#999999" points="454,-19 410,-19 410,0 454,0 454,-19"/>
<text text-anchor="middle" x="432" y="-7" font-family="Helvetica,sans-Serif" font-size="10.00">time.h</text>
</a>
</g>
</g>
<!-- Node1&#45;&gt;Node8 -->
<g id="edge7" class="edge">
<title>Node1&#45;&gt;Node8</title>
<path fill="none" stroke="#63b8ff" d="M282.19,-54.99C318.65,-44.16 368.13,-29.47 400.06,-19.98"/>
<polygon fill="#63b8ff" stroke="#63b8ff" points="401.19,-23.3 409.78,-17.1 399.2,-16.59 401.19,-23.3"/>
</g>
</g>
</svg>
