<?xml version="1.0" encoding="UTF-8" standalone="no"?>
<!DOCTYPE svg PUBLIC "-//W3C//DTD SVG 1.1//EN"
 "http://www.w3.org/Graphics/SVG/1.1/DTD/svg11.dtd">
<!-- Generated by graphviz version 9.0.0 (20230911.1827)
 -->
<!-- Title: main Pages: 1 -->
<svg width="301pt" height="27pt"
 viewBox="0.00 0.00 301.25 27.25" xmlns="http://www.w3.org/2000/svg" xmlns:xlink="http://www.w3.org/1999/xlink">
<g id="graph0" class="graph" transform="scale(1 1) rotate(0) translate(4 23.25)">
<title>main</title>
<!-- Node1 -->
<g id="Node000001" class="node">
<title>Node1</title>
<g id="a_Node000001"><a xlink:title="Main function.">
<polygon fill="#999999" stroke="#666666" points="37,-19.25 0,-19.25 0,0 37,0 37,-19.25"/>
<text text-anchor="middle" x="18.5" y="-5.75" font-family="Helvetica,sans-Serif" font-size="10.00">main</text>
</a>
</g>
</g>
<!-- Node2 -->
<g id="Node000002" class="node">
<title>Node2</title>
<g id="a_Node000002"><a xlink:href="../../d3/d47/modified__binary__search_8c.html#a7df9a198e30cded6229d79bef7591f8f" target="_top" xlink:title="Function to perform binary search on the mid values of row to get the desired pair of rows where the ...">
<polygon fill="white" stroke="#666666" points="184.25,-19.25 73,-19.25 73,0 184.25,0 184.25,-19.25"/>
<text text-anchor="middle" x="128.62" y="-5.75" font-family="Helvetica,sans-Serif" font-size="10.00">modifiedBinarySearch</text>
</a>
</g>
</g>
<!-- Node1&#45;&gt;Node2 -->
<g id="edge1_Node000001_Node000002" class="edge">
<title>Node1&#45;&gt;Node2</title>
<g id="a_edge1_Node000001_Node000002"><a xlink:title=" ">
<path fill="none" stroke="#63b8ff" d="M37.35,-9.62C44.27,-9.62 52.65,-9.62 61.48,-9.62"/>
<polygon fill="#63b8ff" stroke="#63b8ff" points="61.33,-13.13 71.33,-9.63 61.33,-6.13 61.33,-13.13"/>
</a>
</g>
</g>
<!-- Node3 -->
<g id="Node000003" class="node">
<title>Node3</title>
<g id="a_Node000003"><a xlink:href="../../d3/d47/modified__binary__search_8c.html#a0cfaa56aacf960e4628a0fb27add8890" target="_top" xlink:title="This function does Binary search for x in i&#45;th row from j_low to j_high.">
<polygon fill="white" stroke="#666666" points="293.25,-19.25 220.25,-19.25 220.25,0 293.25,0 293.25,-19.25"/>
<text text-anchor="middle" x="256.75" y="-5.75" font-family="Helvetica,sans-Serif" font-size="10.00">binarySearch</text>
</a>
</g>
</g>
<!-- Node2&#45;&gt;Node3 -->
<g id="edge2_Node000002_Node000003" class="edge">
<title>Node2&#45;&gt;Node3</title>
<g id="a_edge2_Node000002_Node000003"><a xlink:title=" ">
<path fill="none" stroke="#63b8ff" d="M184.58,-9.62C192.51,-9.62 200.62,-9.62 208.39,-9.62"/>
<polygon fill="#63b8ff" stroke="#63b8ff" points="208.34,-13.13 218.34,-9.63 208.34,-6.13 208.34,-13.13"/>
</a>
</g>
</g>
</g>
</svg>
