<?xml version="1.0" encoding="UTF-8" standalone="no"?>
<!DOCTYPE svg PUBLIC "-//W3C//DTD SVG 1.1//EN"
 "http://www.w3.org/Graphics/SVG/1.1/DTD/svg11.dtd">
<!-- Generated by graphviz version 8.0.2 (20230410.1723)
 -->
<!-- Title: main Pages: 1 -->
<svg width="304pt" height="27pt"
 viewBox="0.00 0.00 304.00 27.00" xmlns="http://www.w3.org/2000/svg" xmlns:xlink="http://www.w3.org/1999/xlink">
<g id="graph0" class="graph" transform="scale(1 1) rotate(0) translate(4 23)">
<title>main</title>
<!-- Node1 -->
<g id="node1" class="node">
<title>Node1</title>
<g id="a_node1"><a xlink:title="Main function.">
<polygon fill="#999999" stroke="#666666" points="38,-19 0,-19 0,0 38,0 38,-19"/>
<text text-anchor="middle" x="19" y="-7" font-family="Helvetica,sans-Serif" font-size="10.00">main</text>
</a>
</g>
</g>
<!-- Node2 -->
<g id="node2" class="node">
<title>Node2</title>
<g id="a_node2"><a xlink:href="../../d3/d47/modified__binary__search_8c.html#a7df9a198e30cded6229d79bef7591f8f" target="_top" xlink:title="Function to perform binary search on the mid values of row to get the desired pair of rows where the ...">
<polygon fill="white" stroke="#666666" points="186,-19 74,-19 74,0 186,0 186,-19"/>
<text text-anchor="middle" x="130" y="-7" font-family="Helvetica,sans-Serif" font-size="10.00">modifiedBinarySearch</text>
</a>
</g>
</g>
<!-- Node1&#45;&gt;Node2 -->
<g id="edge1" class="edge">
<title>Node1&#45;&gt;Node2</title>
<path fill="none" stroke="#63b8ff" d="M38.49,-9.5C45.49,-9.5 53.91,-9.5 62.78,-9.5"/>
<polygon fill="#63b8ff" stroke="#63b8ff" points="62.73,-13 72.73,-9.5 62.73,-6 62.73,-13"/>
</g>
<!-- Node3 -->
<g id="node3" class="node">
<title>Node3</title>
<g id="a_node3"><a xlink:href="../../d3/d47/modified__binary__search_8c.html#a0cfaa56aacf960e4628a0fb27add8890" target="_top" xlink:title="This function does Binary search for x in i&#45;th row from j_low to j_high.">
<polygon fill="white" stroke="#666666" points="296,-19 222,-19 222,0 296,0 296,-19"/>
<text text-anchor="middle" x="259" y="-7" font-family="Helvetica,sans-Serif" font-size="10.00">binarySearch</text>
</a>
</g>
</g>
<!-- Node2&#45;&gt;Node3 -->
<g id="edge2" class="edge">
<title>Node2&#45;&gt;Node3</title>
<path fill="none" stroke="#63b8ff" d="M186.33,-9.5C194.51,-9.5 202.87,-9.5 210.86,-9.5"/>
<polygon fill="#63b8ff" stroke="#63b8ff" points="210.86,-13 220.86,-9.5 210.86,-6 210.86,-13"/>
</g>
</g>
</svg>
