<?xml version="1.0" encoding="UTF-8" standalone="no"?>
<!DOCTYPE svg PUBLIC "-//W3C//DTD SVG 1.1//EN"
 "http://www.w3.org/Graphics/SVG/1.1/DTD/svg11.dtd">
<!-- Generated by graphviz version 2.49.3 (20211023.0002)
 -->
<!-- Title: main Pages: 1 -->
<svg width="307pt" height="28pt"
 viewBox="0.00 0.00 307.00 28.00" xmlns="http://www.w3.org/2000/svg" xmlns:xlink="http://www.w3.org/1999/xlink">
<g id="graph0" class="graph" transform="scale(1 1) rotate(0) translate(4 24)">
<title>main</title>
<polygon fill="white" stroke="transparent" points="-4,4 -4,-24 303,-24 303,4 -4,4"/>
<!-- Node1 -->
<g id="node1" class="node">
<title>Node1</title>
<g id="a_node1"><a xlink:title="Main function.">
<polygon fill="#bfbfbf" stroke="black" points="0,-0.5 0,-19.5 38,-19.5 38,-0.5 0,-0.5"/>
<text text-anchor="middle" x="19" y="-7.5" font-family="Helvetica,sans-Serif" font-size="10.00">main</text>
</a>
</g>
</g>
<!-- Node2 -->
<g id="node2" class="node">
<title>Node2</title>
<g id="a_node2"><a xlink:href="../../d3/d47/modified__binary__search_8c.html#a7df9a198e30cded6229d79bef7591f8f" target="_top" xlink:title="Function to perform binary search on the mid values of row to get the desired pair of rows where the ...">
<polygon fill="white" stroke="black" points="74,-0.5 74,-19.5 188,-19.5 188,-0.5 74,-0.5"/>
<text text-anchor="middle" x="131" y="-7.5" font-family="Helvetica,sans-Serif" font-size="10.00">modifiedBinarySearch</text>
</a>
</g>
</g>
<!-- Node1&#45;&gt;Node2 -->
<g id="edge1" class="edge">
<title>Node1&#45;&gt;Node2</title>
<path fill="none" stroke="midnightblue" d="M38.16,-10C45.42,-10 54.27,-10 63.57,-10"/>
<polygon fill="midnightblue" stroke="midnightblue" points="63.79,-13.5 73.79,-10 63.79,-6.5 63.79,-13.5"/>
</g>
<!-- Node3 -->
<g id="node3" class="node">
<title>Node3</title>
<g id="a_node3"><a xlink:href="../../d3/d47/modified__binary__search_8c.html#a0cfaa56aacf960e4628a0fb27add8890" target="_top" xlink:title="This function does Binary search for x in i&#45;th row from j_low to j_high.">
<polygon fill="white" stroke="black" points="224,-0.5 224,-19.5 299,-19.5 299,-0.5 224,-0.5"/>
<text text-anchor="middle" x="261.5" y="-7.5" font-family="Helvetica,sans-Serif" font-size="10.00">binarySearch</text>
</a>
</g>
</g>
<!-- Node2&#45;&gt;Node3 -->
<g id="edge2" class="edge">
<title>Node2&#45;&gt;Node3</title>
<path fill="none" stroke="midnightblue" d="M188.36,-10C196.8,-10 205.43,-10 213.64,-10"/>
<polygon fill="midnightblue" stroke="midnightblue" points="213.78,-13.5 223.78,-10 213.78,-6.5 213.78,-13.5"/>
</g>
</g>
</svg>
