<?xml version="1.0" encoding="UTF-8" standalone="no"?>
<!DOCTYPE svg PUBLIC "-//W3C//DTD SVG 1.1//EN"
 "http://www.w3.org/Graphics/SVG/1.1/DTD/svg11.dtd">
<!-- Generated by graphviz version 5.0.1 (20220820.1526)
 -->
<!-- Title: client_server/tcp_half_duplex_client.c Pages: 1 -->
<svg width="652pt" height="93pt"
 viewBox="0.00 0.00 652.00 93.00" xmlns="http://www.w3.org/2000/svg" xmlns:xlink="http://www.w3.org/1999/xlink">
<g id="graph0" class="graph" transform="scale(1 1) rotate(0) translate(4 89)">
<title>client_server/tcp_half_duplex_client.c</title>
<!-- Node1 -->
<g id="node1" class="node">
<title>Node1</title>
<g id="a_node1"><a xlink:title="Client&#45;side implementation of TCP Half Duplex Communication">
<polygon fill="#999999" stroke="#666666" points="360.5,-85 250.5,-85 250.5,-55 360.5,-55 360.5,-85"/>
<text text-anchor="start" x="258.5" y="-73" font-family="Helvetica,sans-Serif" font-size="10.00">client_server/tcp_half</text>
<text text-anchor="middle" x="305.5" y="-62" font-family="Helvetica,sans-Serif" font-size="10.00">_duplex_client.c</text>
</a>
</g>
</g>
<!-- Node2 -->
<g id="node2" class="node">
<title>Node2</title>
<g id="a_node2"><a xlink:title=" ">
<polygon fill="#e0e0e0" stroke="#999999" points="49,-19 0,-19 0,0 49,0 49,-19"/>
<text text-anchor="middle" x="24.5" y="-7" font-family="Helvetica,sans-Serif" font-size="10.00">netdb.h</text>
</a>
</g>
</g>
<!-- Node1&#45;&gt;Node2 -->
<g id="edge1" class="edge">
<title>Node1&#45;&gt;Node2</title>
<path fill="none" stroke="#63b8ff" d="M250.16,-58.72C202.04,-49.58 130.23,-35.46 59.33,-19.34"/>
<polygon fill="#63b8ff" stroke="#63b8ff" points="59.86,-15.87 49.33,-17.05 58.3,-22.69 59.86,-15.87"/>
</g>
<!-- Node3 -->
<g id="node3" class="node">
<title>Node3</title>
<g id="a_node3"><a xlink:title=" ">
<polygon fill="#e0e0e0" stroke="#999999" points="132,-19 67,-19 67,0 132,0 132,-19"/>
<text text-anchor="middle" x="99.5" y="-7" font-family="Helvetica,sans-Serif" font-size="10.00">netinet/in.h</text>
</a>
</g>
</g>
<!-- Node1&#45;&gt;Node3 -->
<g id="edge2" class="edge">
<title>Node1&#45;&gt;Node3</title>
<path fill="none" stroke="#63b8ff" d="M256.16,-54.99C220.45,-44.85 172.81,-31.32 139.48,-21.85"/>
<polygon fill="#63b8ff" stroke="#63b8ff" points="140.2,-18.42 129.62,-19.05 138.28,-25.15 140.2,-18.42"/>
</g>
<!-- Node4 -->
<g id="node4" class="node">
<title>Node4</title>
<g id="a_node4"><a xlink:title=" ">
<polygon fill="#e0e0e0" stroke="#999999" points="199,-19 150,-19 150,0 199,0 199,-19"/>
<text text-anchor="middle" x="174.5" y="-7" font-family="Helvetica,sans-Serif" font-size="10.00">stdint.h</text>
</a>
</g>
</g>
<!-- Node1&#45;&gt;Node4 -->
<g id="edge3" class="edge">
<title>Node1&#45;&gt;Node4</title>
<path fill="none" stroke="#63b8ff" d="M274.12,-54.99C252.56,-45.36 224.15,-32.67 203.19,-23.31"/>
<polygon fill="#63b8ff" stroke="#63b8ff" points="204.4,-20.02 193.85,-19.14 201.55,-26.41 204.4,-20.02"/>
</g>
<!-- Node5 -->
<g id="node5" class="node">
<title>Node5</title>
<g id="a_node5"><a xlink:title=" ">
<polygon fill="#e0e0e0" stroke="#999999" points="263.5,-19 217.5,-19 217.5,0 263.5,0 263.5,-19"/>
<text text-anchor="middle" x="240.5" y="-7" font-family="Helvetica,sans-Serif" font-size="10.00">stdio.h</text>
</a>
</g>
</g>
<!-- Node1&#45;&gt;Node5 -->
<g id="edge4" class="edge">
<title>Node1&#45;&gt;Node5</title>
<path fill="none" stroke="#63b8ff" d="M289.77,-54.84C280.14,-46.17 267.81,-35.08 257.89,-26.15"/>
<polygon fill="#63b8ff" stroke="#63b8ff" points="260.01,-23.35 250.24,-19.27 255.33,-28.56 260.01,-23.35"/>
</g>
<!-- Node6 -->
<g id="node6" class="node">
<title>Node6</title>
<g id="a_node6"><a xlink:title=" ">
<polygon fill="#e0e0e0" stroke="#999999" points="329.5,-19 281.5,-19 281.5,0 329.5,0 329.5,-19"/>
<text text-anchor="middle" x="305.5" y="-7" font-family="Helvetica,sans-Serif" font-size="10.00">stdlib.h</text>
</a>
</g>
</g>
<!-- Node1&#45;&gt;Node6 -->
<g id="edge5" class="edge">
<title>Node1&#45;&gt;Node6</title>
<path fill="none" stroke="#63b8ff" d="M305.5,-54.84C305.5,-47.21 305.5,-37.7 305.5,-29.45"/>
<polygon fill="#63b8ff" stroke="#63b8ff" points="309,-29.27 305.5,-19.27 302,-29.27 309,-29.27"/>
</g>
<!-- Node7 -->
<g id="node7" class="node">
<title>Node7</title>
<g id="a_node7"><a xlink:title=" ">
<polygon fill="#e0e0e0" stroke="#999999" points="397,-19 348,-19 348,0 397,0 397,-19"/>
<text text-anchor="middle" x="372.5" y="-7" font-family="Helvetica,sans-Serif" font-size="10.00">string.h</text>
</a>
</g>
</g>
<!-- Node1&#45;&gt;Node7 -->
<g id="edge6" class="edge">
<title>Node1&#45;&gt;Node7</title>
<path fill="none" stroke="#63b8ff" d="M321.72,-54.84C331.74,-46.09 344.61,-34.85 354.88,-25.88"/>
<polygon fill="#63b8ff" stroke="#63b8ff" points="357.23,-28.48 362.46,-19.27 352.63,-23.21 357.23,-28.48"/>
</g>
<!-- Node8 -->
<g id="node8" class="node">
<title>Node8</title>
<g id="a_node8"><a xlink:title=" ">
<polygon fill="#e0e0e0" stroke="#999999" points="488,-19 415,-19 415,0 488,0 488,-19"/>
<text text-anchor="middle" x="451.5" y="-7" font-family="Helvetica,sans-Serif" font-size="10.00">sys/socket.h</text>
</a>
</g>
</g>
<!-- Node1&#45;&gt;Node8 -->
<g id="edge7" class="edge">
<title>Node1&#45;&gt;Node8</title>
<path fill="none" stroke="#63b8ff" d="M340.47,-54.99C364.83,-45.23 397.03,-32.33 420.47,-22.93"/>
<polygon fill="#63b8ff" stroke="#63b8ff" points="421.96,-26.11 429.94,-19.14 419.35,-19.61 421.96,-26.11"/>
</g>
<!-- Node9 -->
<g id="node9" class="node">
<title>Node9</title>
<g id="a_node9"><a xlink:title=" ">
<polygon fill="#e0e0e0" stroke="#999999" points="574.5,-19 506.5,-19 506.5,0 574.5,0 574.5,-19"/>
<text text-anchor="middle" x="540.5" y="-7" font-family="Helvetica,sans-Serif" font-size="10.00">sys/types.h</text>
</a>
</g>
</g>
<!-- Node1&#45;&gt;Node9 -->
<g id="edge8" class="edge">
<title>Node1&#45;&gt;Node9</title>
<path fill="none" stroke="#63b8ff" d="M360.6,-55.28C402.07,-44.96 458.15,-31 496.61,-21.43"/>
<polygon fill="#63b8ff" stroke="#63b8ff" points="497.61,-24.78 506.47,-18.97 495.92,-17.99 497.61,-24.78"/>
</g>
<!-- Node10 -->
<g id="node10" class="node">
<title>Node10</title>
<g id="a_node10"><a xlink:title=" ">
<polygon fill="#e0e0e0" stroke="#999999" points="644,-19 593,-19 593,0 644,0 644,-19"/>
<text text-anchor="middle" x="618.5" y="-7" font-family="Helvetica,sans-Serif" font-size="10.00">unistd.h</text>
</a>
</g>
</g>
<!-- Node1&#45;&gt;Node10 -->
<g id="edge9" class="edge">
<title>Node1&#45;&gt;Node10</title>
<path fill="none" stroke="#63b8ff" d="M360.55,-60.11C414.63,-51.14 499.71,-36.43 583.04,-18.98"/>
<polygon fill="#63b8ff" stroke="#63b8ff" points="583.86,-22.39 592.93,-16.9 582.42,-15.54 583.86,-22.39"/>
</g>
</g>
</svg>
