<?xml version="1.0" encoding="UTF-8" standalone="no"?>
<!DOCTYPE svg PUBLIC "-//W3C//DTD SVG 1.1//EN"
 "http://www.w3.org/Graphics/SVG/1.1/DTD/svg11.dtd">
<!-- Generated by graphviz version 9.0.0 (20230911.1827)
 -->
<!-- Title: sorting/heap_sort_2.c Pages: 1 -->
<svg width="325pt" height="83pt"
 viewBox="0.00 0.00 325.00 82.50" xmlns="http://www.w3.org/2000/svg" xmlns:xlink="http://www.w3.org/1999/xlink">
<g id="graph0" class="graph" transform="scale(1 1) rotate(0) translate(4 78.5)">
<title>sorting/heap_sort_2.c</title>
<!-- Node1 -->
<g id="Node000001" class="node">
<title>Node1</title>
<g id="a_Node000001"><a xlink:title="Heap Sort implementation">
<polygon fill="#999999" stroke="#666666" points="210.5,-74.5 100.75,-74.5 100.75,-55.25 210.5,-55.25 210.5,-74.5"/>
<text text-anchor="middle" x="155.62" y="-61" font-family="Helvetica,sans-Serif" font-size="10.00">sorting/heap_sort_2.c</text>
</a>
</g>
</g>
<!-- Node2 -->
<g id="Node000002" class="node">
<title>Node2</title>
<g id="a_Node000002"><a xlink:title=" ">
<polygon fill="#e0e0e0" stroke="#999999" points="51.25,-19.25 0,-19.25 0,0 51.25,0 51.25,-19.25"/>
<text text-anchor="middle" x="25.62" y="-5.75" font-family="Helvetica,sans-Serif" font-size="10.00">assert.h</text>
</a>
</g>
</g>
<!-- Node1&#45;&gt;Node2 -->
<g id="edge1_Node000001_Node000002" class="edge">
<title>Node1&#45;&gt;Node2</title>
<g id="a_edge1_Node000001_Node000002"><a xlink:title=" ">
<path fill="none" stroke="#63b8ff" d="M133.57,-54.84C112.94,-46.39 81.84,-33.65 58.32,-24.02"/>
<polygon fill="#63b8ff" stroke="#63b8ff" points="59.77,-20.83 49.19,-20.28 57.11,-27.31 59.77,-20.83"/>
</a>
</g>
</g>
<!-- Node3 -->
<g id="Node000003" class="node">
<title>Node3</title>
<g id="a_Node000003"><a xlink:title=" ">
<polygon fill="#e0e0e0" stroke="#999999" points="114.25,-19.25 69,-19.25 69,0 114.25,0 114.25,-19.25"/>
<text text-anchor="middle" x="91.62" y="-5.75" font-family="Helvetica,sans-Serif" font-size="10.00">stdio.h</text>
</a>
</g>
</g>
<!-- Node1&#45;&gt;Node3 -->
<g id="edge2_Node000001_Node000003" class="edge">
<title>Node1&#45;&gt;Node3</title>
<g id="a_edge2_Node000001_Node000003"><a xlink:title=" ">
<path fill="none" stroke="#63b8ff" d="M144.77,-54.84C135.52,-47.15 122,-35.9 110.92,-26.68"/>
<polygon fill="#63b8ff" stroke="#63b8ff" points="113.41,-24.2 103.48,-20.49 108.93,-29.58 113.41,-24.2"/>
</a>
</g>
</g>
<!-- Node4 -->
<g id="Node000004" class="node">
<title>Node4</title>
<g id="a_Node000004"><a xlink:title=" ">
<polygon fill="#e0e0e0" stroke="#999999" points="179.38,-19.25 131.88,-19.25 131.88,0 179.38,0 179.38,-19.25"/>
<text text-anchor="middle" x="155.62" y="-5.75" font-family="Helvetica,sans-Serif" font-size="10.00">stdlib.h</text>
</a>
</g>
</g>
<!-- Node1&#45;&gt;Node4 -->
<g id="edge3_Node000001_Node000004" class="edge">
<title>Node1&#45;&gt;Node4</title>
<g id="a_edge3_Node000001_Node000004"><a xlink:title=" ">
<path fill="none" stroke="#63b8ff" d="M155.62,-55.08C155.62,-48.57 155.62,-39.42 155.62,-31.12"/>
<polygon fill="#63b8ff" stroke="#63b8ff" points="159.13,-31.12 155.63,-21.12 152.13,-31.12 159.13,-31.12"/>
</a>
</g>
</g>
<!-- Node5 -->
<g id="Node000005" class="node">
<title>Node5</title>
<g id="a_Node000005"><a xlink:title=" ">
<polygon fill="#e0e0e0" stroke="#999999" points="240.12,-19.25 197.12,-19.25 197.12,0 240.12,0 240.12,-19.25"/>
<text text-anchor="middle" x="218.62" y="-5.75" font-family="Helvetica,sans-Serif" font-size="10.00">time.h</text>
</a>
</g>
</g>
<!-- Node1&#45;&gt;Node5 -->
<g id="edge4_Node000001_Node000005" class="edge">
<title>Node1&#45;&gt;Node5</title>
<g id="a_edge4_Node000001_Node000005"><a xlink:title=" ">
<path fill="none" stroke="#63b8ff" d="M166.31,-54.84C175.33,-47.22 188.46,-36.12 199.31,-26.95"/>
<polygon fill="#63b8ff" stroke="#63b8ff" points="201.56,-29.63 206.94,-20.5 197.04,-24.28 201.56,-29.63"/>
</a>
</g>
</g>
<!-- Node6 -->
<g id="Node000006" class="node">
<title>Node6</title>
<g id="a_Node000006"><a xlink:title=" ">
<polygon fill="#e0e0e0" stroke="#999999" points="317,-19.25 258.25,-19.25 258.25,0 317,0 317,-19.25"/>
<text text-anchor="middle" x="287.62" y="-5.75" font-family="Helvetica,sans-Serif" font-size="10.00">inttypes.h</text>
</a>
</g>
</g>
<!-- Node1&#45;&gt;Node6 -->
<g id="edge5_Node000001_Node000006" class="edge">
<title>Node1&#45;&gt;Node6</title>
<g id="a_edge5_Node000001_Node000006"><a xlink:title=" ">
<path fill="none" stroke="#63b8ff" d="M178.02,-54.84C199.07,-46.35 230.83,-33.54 254.75,-23.89"/>
<polygon fill="#63b8ff" stroke="#63b8ff" points="255.76,-27.26 263.72,-20.27 253.14,-20.76 255.76,-27.26"/>
</a>
</g>
</g>
</g>
</svg>
