<?xml version="1.0" encoding="UTF-8" standalone="no"?>
<!DOCTYPE svg PUBLIC "-//W3C//DTD SVG 1.1//EN"
 "http://www.w3.org/Graphics/SVG/1.1/DTD/svg11.dtd">
<!-- Generated by graphviz version 7.0.6 (20230106.0513)
 -->
<!-- Title: machine_learning/kohonen_som_topology.c Pages: 1 -->
<svg width="248pt" height="93pt"
 viewBox="0.00 0.00 247.50 93.00" xmlns="http://www.w3.org/2000/svg" xmlns:xlink="http://www.w3.org/1999/xlink">
<g id="graph0" class="graph" transform="scale(1 1) rotate(0) translate(4 89)">
<title>machine_learning/kohonen_som_topology.c</title>
<!-- Node1 -->
<g id="node1" class="node">
<title>Node1</title>
<g id="a_node1"><a xlink:title="Kohonen self organizing map (topological map)">
<polygon fill="#999999" stroke="#666666" points="186.5,-85 54.5,-85 54.5,-55 186.5,-55 186.5,-85"/>
<text text-anchor="start" x="62.5" y="-73" font-family="Helvetica,sans-Serif" font-size="10.00">machine_learning/kohonen</text>
<text text-anchor="middle" x="120.5" y="-62" font-family="Helvetica,sans-Serif" font-size="10.00">_som_topology.c</text>
</a>
</g>
</g>
<!-- Node2 -->
<g id="node2" class="node">
<title>Node2</title>
<g id="a_node2"><a xlink:title=" ">
<polygon fill="#e0e0e0" stroke="#999999" points="47,-19 0,-19 0,0 47,0 47,-19"/>
<text text-anchor="middle" x="23.5" y="-7" font-family="Helvetica,sans-Serif" font-size="10.00">math.h</text>
</a>
</g>
</g>
<!-- Node1&#45;&gt;Node2 -->
<g id="edge1" class="edge">
<title>Node1&#45;&gt;Node2</title>
<path fill="none" stroke="#63b8ff" d="M96.52,-54.54C81.66,-45.58 62.63,-34.1 47.73,-25.11"/>
<polygon fill="#63b8ff" stroke="#63b8ff" points="49.83,-22.3 39.46,-20.13 46.22,-28.29 49.83,-22.3"/>
</g>
<!-- Node3 -->
<g id="node3" class="node">
<title>Node3</title>
<g id="a_node3"><a xlink:title=" ">
<polygon fill="#e0e0e0" stroke="#999999" points="111.5,-19 65.5,-19 65.5,0 111.5,0 111.5,-19"/>
<text text-anchor="middle" x="88.5" y="-7" font-family="Helvetica,sans-Serif" font-size="10.00">stdio.h</text>
</a>
</g>
</g>
<!-- Node1&#45;&gt;Node3 -->
<g id="edge2" class="edge">
<title>Node1&#45;&gt;Node3</title>
<path fill="none" stroke="#63b8ff" d="M112.59,-54.54C108.42,-46.91 103.25,-37.46 98.77,-29.27"/>
<polygon fill="#63b8ff" stroke="#63b8ff" points="101.84,-27.6 93.97,-20.5 95.7,-30.96 101.84,-27.6"/>
</g>
<!-- Node4 -->
<g id="node4" class="node">
<title>Node4</title>
<g id="a_node4"><a xlink:title=" ">
<polygon fill="#e0e0e0" stroke="#999999" points="177.5,-19 129.5,-19 129.5,0 177.5,0 177.5,-19"/>
<text text-anchor="middle" x="153.5" y="-7" font-family="Helvetica,sans-Serif" font-size="10.00">stdlib.h</text>
</a>
</g>
</g>
<!-- Node1&#45;&gt;Node4 -->
<g id="edge3" class="edge">
<title>Node1&#45;&gt;Node4</title>
<path fill="none" stroke="#63b8ff" d="M128.66,-54.54C133.01,-46.82 138.41,-37.24 143.07,-28.99"/>
<polygon fill="#63b8ff" stroke="#63b8ff" points="146,-30.92 147.86,-20.49 139.9,-27.48 146,-30.92"/>
</g>
<!-- Node5 -->
<g id="node5" class="node">
<title>Node5</title>
<g id="a_node5"><a xlink:title=" ">
<polygon fill="#e0e0e0" stroke="#999999" points="239.5,-19 195.5,-19 195.5,0 239.5,0 239.5,-19"/>
<text text-anchor="middle" x="217.5" y="-7" font-family="Helvetica,sans-Serif" font-size="10.00">time.h</text>
</a>
</g>
</g>
<!-- Node1&#45;&gt;Node5 -->
<g id="edge4" class="edge">
<title>Node1&#45;&gt;Node5</title>
<path fill="none" stroke="#63b8ff" d="M144.48,-54.54C159.34,-45.58 178.37,-34.1 193.27,-25.11"/>
<polygon fill="#63b8ff" stroke="#63b8ff" points="194.78,-28.29 201.54,-20.13 191.17,-22.3 194.78,-28.29"/>
</g>
</g>
</svg>
