<?xml version="1.0" encoding="UTF-8" standalone="no"?>
<!DOCTYPE svg PUBLIC "-//W3C//DTD SVG 1.1//EN"
 "http://www.w3.org/Graphics/SVG/1.1/DTD/svg11.dtd">
<!-- Generated by graphviz version 3.0.0 (20220226.1711)
 -->
<!-- Title: sorting/selection_sort_recursive.c Pages: 1 -->
<svg width="330pt" height="95pt"
 viewBox="0.00 0.00 329.50 95.00" xmlns="http://www.w3.org/2000/svg" xmlns:xlink="http://www.w3.org/1999/xlink">
<g id="graph0" class="graph" transform="scale(1 1) rotate(0) translate(4 91)">
<title>sorting/selection_sort_recursive.c</title>
<polygon fill="white" stroke="transparent" points="-4,4 -4,-91 325.5,-91 325.5,4 -4,4"/>
<!-- Node1 -->
<g id="node1" class="node">
<title>Node1</title>
<g id="a_node1"><a xlink:title="Selection Sort implementation using recursion.">
<polygon fill="#bfbfbf" stroke="black" points="103,-56.5 103,-86.5 213,-86.5 213,-56.5 103,-56.5"/>
<text text-anchor="start" x="111" y="-74.5" font-family="Helvetica,sans-Serif" font-size="10.00">sorting/selection_sort</text>
<text text-anchor="middle" x="158" y="-63.5" font-family="Helvetica,sans-Serif" font-size="10.00">_recursive.c</text>
</a>
</g>
</g>
<!-- Node2 -->
<g id="node2" class="node">
<title>Node2</title>
<g id="a_node2"><a xlink:title=" ">
<polygon fill="white" stroke="#bfbfbf" points="0,-0.5 0,-19.5 52,-19.5 52,-0.5 0,-0.5"/>
<text text-anchor="middle" x="26" y="-7.5" font-family="Helvetica,sans-Serif" font-size="10.00">assert.h</text>
</a>
</g>
</g>
<!-- Node1&#45;&gt;Node2 -->
<g id="edge1" class="edge">
<title>Node1&#45;&gt;Node2</title>
<path fill="none" stroke="midnightblue" d="M126.72,-56.4C104.77,-46.51 75.66,-33.38 54.38,-23.79"/>
<polygon fill="midnightblue" stroke="midnightblue" points="55.76,-20.58 45.21,-19.66 52.89,-26.96 55.76,-20.58"/>
</g>
<!-- Node3 -->
<g id="node3" class="node">
<title>Node3</title>
<g id="a_node3"><a xlink:title=" ">
<polygon fill="white" stroke="#bfbfbf" points="70,-0.5 70,-19.5 116,-19.5 116,-0.5 70,-0.5"/>
<text text-anchor="middle" x="93" y="-7.5" font-family="Helvetica,sans-Serif" font-size="10.00">stdio.h</text>
</a>
</g>
</g>
<!-- Node1&#45;&gt;Node3 -->
<g id="edge2" class="edge">
<title>Node1&#45;&gt;Node3</title>
<path fill="none" stroke="midnightblue" d="M142.6,-56.4C132.76,-47.4 120.01,-35.72 109.89,-26.47"/>
<polygon fill="midnightblue" stroke="midnightblue" points="112.2,-23.83 102.46,-19.66 107.47,-28.99 112.2,-23.83"/>
</g>
<!-- Node4 -->
<g id="node4" class="node">
<title>Node4</title>
<g id="a_node4"><a xlink:title=" ">
<polygon fill="white" stroke="#bfbfbf" points="134,-0.5 134,-19.5 182,-19.5 182,-0.5 134,-0.5"/>
<text text-anchor="middle" x="158" y="-7.5" font-family="Helvetica,sans-Serif" font-size="10.00">stdlib.h</text>
</a>
</g>
</g>
<!-- Node1&#45;&gt;Node4 -->
<g id="edge3" class="edge">
<title>Node1&#45;&gt;Node4</title>
<path fill="none" stroke="midnightblue" d="M158,-56.4C158,-48.47 158,-38.46 158,-29.86"/>
<polygon fill="midnightblue" stroke="midnightblue" points="161.5,-29.66 158,-19.66 154.5,-29.66 161.5,-29.66"/>
</g>
<!-- Node5 -->
<g id="node5" class="node">
<title>Node5</title>
<g id="a_node5"><a xlink:title=" ">
<polygon fill="white" stroke="#bfbfbf" points="200,-0.5 200,-19.5 244,-19.5 244,-0.5 200,-0.5"/>
<text text-anchor="middle" x="222" y="-7.5" font-family="Helvetica,sans-Serif" font-size="10.00">time.h</text>
</a>
</g>
</g>
<!-- Node1&#45;&gt;Node5 -->
<g id="edge4" class="edge">
<title>Node1&#45;&gt;Node5</title>
<path fill="none" stroke="midnightblue" d="M173.17,-56.4C182.75,-47.49 195.16,-35.95 205.07,-26.74"/>
<polygon fill="midnightblue" stroke="midnightblue" points="207.75,-29.03 212.69,-19.66 202.98,-23.9 207.75,-29.03"/>
</g>
<!-- Node6 -->
<g id="node6" class="node">
<title>Node6</title>
<g id="a_node6"><a xlink:title=" ">
<polygon fill="white" stroke="#bfbfbf" points="262.5,-0.5 262.5,-19.5 321.5,-19.5 321.5,-0.5 262.5,-0.5"/>
<text text-anchor="middle" x="292" y="-7.5" font-family="Helvetica,sans-Serif" font-size="10.00">inttypes.h</text>
</a>
</g>
</g>
<!-- Node1&#45;&gt;Node6 -->
<g id="edge5" class="edge">
<title>Node1&#45;&gt;Node6</title>
<path fill="none" stroke="midnightblue" d="M189.76,-56.4C212.04,-46.51 241.59,-33.38 263.19,-23.79"/>
<polygon fill="midnightblue" stroke="midnightblue" points="264.78,-26.91 272.5,-19.66 261.94,-20.52 264.78,-26.91"/>
</g>
</g>
</svg>
