<?xml version="1.0" encoding="UTF-8" standalone="no"?>
<!DOCTYPE svg PUBLIC "-//W3C//DTD SVG 1.1//EN"
 "http://www.w3.org/Graphics/SVG/1.1/DTD/svg11.dtd">
<!-- Generated by graphviz version 5.0.1 (20220820.1526)
 -->
<!-- Title: sorting/selection_sort_recursive.c Pages: 1 -->
<svg width="330pt" height="93pt"
 viewBox="0.00 0.00 329.50 93.00" xmlns="http://www.w3.org/2000/svg" xmlns:xlink="http://www.w3.org/1999/xlink">
<g id="graph0" class="graph" transform="scale(1 1) rotate(0) translate(4 89)">
<title>sorting/selection_sort_recursive.c</title>
<!-- Node1 -->
<g id="node1" class="node">
<title>Node1</title>
<g id="a_node1"><a xlink:title="Selection Sort implementation using recursion.">
<polygon fill="#999999" stroke="#666666" points="213,-85 103,-85 103,-55 213,-55 213,-85"/>
<text text-anchor="start" x="111" y="-73" font-family="Helvetica,sans-Serif" font-size="10.00">sorting/selection_sort</text>
<text text-anchor="middle" x="158" y="-62" font-family="Helvetica,sans-Serif" font-size="10.00">_recursive.c</text>
</a>
</g>
</g>
<!-- Node2 -->
<g id="node2" class="node">
<title>Node2</title>
<g id="a_node2"><a xlink:title=" ">
<polygon fill="#e0e0e0" stroke="#999999" points="52,-19 0,-19 0,0 52,0 52,-19"/>
<text text-anchor="middle" x="26" y="-7" font-family="Helvetica,sans-Serif" font-size="10.00">assert.h</text>
</a>
</g>
</g>
<!-- Node1&#45;&gt;Node2 -->
<g id="edge1" class="edge">
<title>Node1&#45;&gt;Node2</title>
<path fill="none" stroke="#63b8ff" d="M126.38,-54.99C104.65,-45.36 76.03,-32.67 54.91,-23.31"/>
<polygon fill="#63b8ff" stroke="#63b8ff" points="56.05,-19.99 45.49,-19.14 53.22,-26.39 56.05,-19.99"/>
</g>
<!-- Node3 -->
<g id="node3" class="node">
<title>Node3</title>
<g id="a_node3"><a xlink:title=" ">
<polygon fill="#e0e0e0" stroke="#999999" points="116,-19 70,-19 70,0 116,0 116,-19"/>
<text text-anchor="middle" x="93" y="-7" font-family="Helvetica,sans-Serif" font-size="10.00">stdio.h</text>
</a>
</g>
</g>
<!-- Node1&#45;&gt;Node3 -->
<g id="edge2" class="edge">
<title>Node1&#45;&gt;Node3</title>
<path fill="none" stroke="#63b8ff" d="M142.27,-54.84C132.64,-46.17 120.31,-35.08 110.39,-26.15"/>
<polygon fill="#63b8ff" stroke="#63b8ff" points="112.51,-23.35 102.74,-19.27 107.83,-28.56 112.51,-23.35"/>
</g>
<!-- Node4 -->
<g id="node4" class="node">
<title>Node4</title>
<g id="a_node4"><a xlink:title=" ">
<polygon fill="#e0e0e0" stroke="#999999" points="182,-19 134,-19 134,0 182,0 182,-19"/>
<text text-anchor="middle" x="158" y="-7" font-family="Helvetica,sans-Serif" font-size="10.00">stdlib.h</text>
</a>
</g>
</g>
<!-- Node1&#45;&gt;Node4 -->
<g id="edge3" class="edge">
<title>Node1&#45;&gt;Node4</title>
<path fill="none" stroke="#63b8ff" d="M158,-54.84C158,-47.21 158,-37.7 158,-29.45"/>
<polygon fill="#63b8ff" stroke="#63b8ff" points="161.5,-29.27 158,-19.27 154.5,-29.27 161.5,-29.27"/>
</g>
<!-- Node5 -->
<g id="node5" class="node">
<title>Node5</title>
<g id="a_node5"><a xlink:title=" ">
<polygon fill="#e0e0e0" stroke="#999999" points="244,-19 200,-19 200,0 244,0 244,-19"/>
<text text-anchor="middle" x="222" y="-7" font-family="Helvetica,sans-Serif" font-size="10.00">time.h</text>
</a>
</g>
</g>
<!-- Node1&#45;&gt;Node5 -->
<g id="edge4" class="edge">
<title>Node1&#45;&gt;Node5</title>
<path fill="none" stroke="#63b8ff" d="M173.49,-54.84C182.97,-46.17 195.11,-35.08 204.88,-26.15"/>
<polygon fill="#63b8ff" stroke="#63b8ff" points="207.39,-28.6 212.41,-19.27 202.67,-23.43 207.39,-28.6"/>
</g>
<!-- Node6 -->
<g id="node6" class="node">
<title>Node6</title>
<g id="a_node6"><a xlink:title=" ">
<polygon fill="#e0e0e0" stroke="#999999" points="321.5,-19 262.5,-19 262.5,0 321.5,0 321.5,-19"/>
<text text-anchor="middle" x="292" y="-7" font-family="Helvetica,sans-Serif" font-size="10.00">inttypes.h</text>
</a>
</g>
</g>
<!-- Node1&#45;&gt;Node6 -->
<g id="edge5" class="edge">
<title>Node1&#45;&gt;Node6</title>
<path fill="none" stroke="#63b8ff" d="M190.1,-54.99C212.25,-45.31 241.48,-32.56 262.95,-23.18"/>
<polygon fill="#63b8ff" stroke="#63b8ff" points="264.45,-26.35 272.21,-19.14 261.65,-19.93 264.45,-26.35"/>
</g>
</g>
</svg>
