<?xml version="1.0" encoding="UTF-8" standalone="no"?>
<!DOCTYPE svg PUBLIC "-//W3C//DTD SVG 1.1//EN"
 "http://www.w3.org/Graphics/SVG/1.1/DTD/svg11.dtd">
<!-- Generated by graphviz version 2.44.0 (20200408.0750)
 -->
<!-- Title: main Pages: 1 -->
<svg width="337pt" height="180pt"
 viewBox="0.00 0.00 337.00 180.00" xmlns="http://www.w3.org/2000/svg" xmlns:xlink="http://www.w3.org/1999/xlink">
<g id="graph0" class="graph" transform="scale(1 1) rotate(0) translate(4 176)">
<title>main</title>
<polygon fill="white" stroke="transparent" points="-4,4 -4,-176 333,-176 333,4 -4,4"/>
<!-- Node1 -->
<g id="node1" class="node">
<title>Node1</title>
<g id="a_node1"><a xlink:title=" ">
<polygon fill="#bfbfbf" stroke="black" points="0,-76.5 0,-95.5 38,-95.5 38,-76.5 0,-76.5"/>
<text text-anchor="middle" x="19" y="-83.5" font-family="Helvetica,sans-Serif" font-size="10.00">main</text>
</a>
</g>
</g>
<!-- Node2 -->
<g id="node2" class="node">
<title>Node2</title>
<g id="a_node2"><a xlink:href="../../dd/d8c/adaline__learning_8c.html#ab4ecb3accf5d9e0263087e7265bbe3a9" target="_top" xlink:title=" ">
<polygon fill="white" stroke="black" points="74,-114.5 74,-133.5 112,-133.5 112,-114.5 74,-114.5"/>
<text text-anchor="middle" x="93" y="-121.5" font-family="Helvetica,sans-Serif" font-size="10.00">test1</text>
</a>
</g>
</g>
<!-- Node1&#45;&gt;Node2 -->
<g id="edge1" class="edge">
<title>Node1&#45;&gt;Node2</title>
<path fill="none" stroke="midnightblue" d="M38.17,-95.59C46.21,-99.83 55.83,-104.91 64.71,-109.6"/>
<polygon fill="midnightblue" stroke="midnightblue" points="63.11,-112.71 73.59,-114.28 66.38,-106.52 63.11,-112.71"/>
</g>
<!-- Node9 -->
<g id="node9" class="node">
<title>Node9</title>
<g id="a_node9"><a xlink:href="../../dd/d8c/adaline__learning_8c.html#a05cc9a0acb524fde727a4d7b4a747ee6" target="_top" xlink:title=" ">
<polygon fill="white" stroke="black" points="74,-76.5 74,-95.5 112,-95.5 112,-76.5 74,-76.5"/>
<text text-anchor="middle" x="93" y="-83.5" font-family="Helvetica,sans-Serif" font-size="10.00">test2</text>
</a>
</g>
</g>
<!-- Node1&#45;&gt;Node9 -->
<g id="edge8" class="edge">
<title>Node1&#45;&gt;Node9</title>
<path fill="none" stroke="midnightblue" d="M38.17,-86C45.87,-86 55.03,-86 63.58,-86"/>
<polygon fill="midnightblue" stroke="midnightblue" points="63.59,-89.5 73.59,-86 63.59,-82.5 63.59,-89.5"/>
</g>
<!-- Node10 -->
<g id="node10" class="node">
<title>Node10</title>
<g id="a_node10"><a xlink:href="../../dd/d8c/adaline__learning_8c.html#a3f37b9f073f7e57fd0b39d70718af1b1" target="_top" xlink:title=" ">
<polygon fill="white" stroke="black" points="74,-38.5 74,-57.5 112,-57.5 112,-38.5 74,-38.5"/>
<text text-anchor="middle" x="93" y="-45.5" font-family="Helvetica,sans-Serif" font-size="10.00">test3</text>
</a>
</g>
</g>
<!-- Node1&#45;&gt;Node10 -->
<g id="edge14" class="edge">
<title>Node1&#45;&gt;Node10</title>
<path fill="none" stroke="midnightblue" d="M38.17,-76.41C46.21,-72.17 55.83,-67.09 64.71,-62.4"/>
<polygon fill="midnightblue" stroke="midnightblue" points="66.38,-65.48 73.59,-57.72 63.11,-59.29 66.38,-65.48"/>
</g>
<!-- Node3 -->
<g id="node3" class="node">
<title>Node3</title>
<g id="a_node3"><a xlink:href="../../dd/d8c/adaline__learning_8c.html#a6f35caa3084772cc126ac7b20f67f665" target="_top" xlink:title=" ">
<polygon fill="white" stroke="black" points="151.5,-114.5 151.5,-133.5 230.5,-133.5 230.5,-114.5 151.5,-114.5"/>
<text text-anchor="middle" x="191" y="-121.5" font-family="Helvetica,sans-Serif" font-size="10.00">delete_adaline</text>
</a>
</g>
</g>
<!-- Node2&#45;&gt;Node3 -->
<g id="edge2" class="edge">
<title>Node2&#45;&gt;Node3</title>
<path fill="none" stroke="midnightblue" d="M112.06,-124C120.37,-124 130.67,-124 141.03,-124"/>
<polygon fill="midnightblue" stroke="midnightblue" points="141.35,-127.5 151.35,-124 141.35,-120.5 141.35,-127.5"/>
</g>
<!-- Node4 -->
<g id="node4" class="node">
<title>Node4</title>
<g id="a_node4"><a xlink:href="../../dd/d8c/adaline__learning_8c.html#a355fda53c238a0c0c07f03dcc021caed" target="_top" xlink:title=" ">
<polygon fill="white" stroke="black" points="176.5,-76.5 176.5,-95.5 205.5,-95.5 205.5,-76.5 176.5,-76.5"/>
<text text-anchor="middle" x="191" y="-83.5" font-family="Helvetica,sans-Serif" font-size="10.00">fit</text>
</a>
</g>
</g>
<!-- Node2&#45;&gt;Node4 -->
<g id="edge3" class="edge">
<title>Node2&#45;&gt;Node4</title>
<path fill="none" stroke="midnightblue" d="M112.06,-116.85C127.53,-110.73 149.91,-101.87 166.73,-95.21"/>
<polygon fill="midnightblue" stroke="midnightblue" points="168.36,-98.33 176.37,-91.4 165.78,-91.82 168.36,-98.33"/>
</g>
<!-- Node5 -->
<g id="node5" class="node">
<title>Node5</title>
<g id="a_node5"><a xlink:href="../../dd/d8c/adaline__learning_8c.html#a00dc6134ca22a12e0fd9cac54d601c2d" target="_top" xlink:title=" ">
<polygon fill="white" stroke="black" points="148,-38.5 148,-57.5 234,-57.5 234,-38.5 148,-38.5"/>
<text text-anchor="middle" x="191" y="-45.5" font-family="Helvetica,sans-Serif" font-size="10.00">get_weights_str</text>
</a>
</g>
</g>
<!-- Node2&#45;&gt;Node5 -->
<g id="edge4" class="edge">
<title>Node2&#45;&gt;Node5</title>
<path fill="none" stroke="midnightblue" d="M103.13,-114.35C118.48,-98.13 147.84,-67.12 148,-67 150.38,-65.3 152.94,-63.7 155.58,-62.21"/>
<polygon fill="midnightblue" stroke="midnightblue" points="157.4,-65.21 164.7,-57.53 154.2,-58.98 157.4,-65.21"/>
</g>
<!-- Node6 -->
<g id="node6" class="node">
<title>Node6</title>
<g id="a_node6"><a xlink:href="../../dd/d8c/adaline__learning_8c.html#acd88962c5f6341e43cbc69b4a7d3485b" target="_top" xlink:title=" ">
<polygon fill="white" stroke="black" points="155.5,-0.5 155.5,-19.5 226.5,-19.5 226.5,-0.5 155.5,-0.5"/>
<text text-anchor="middle" x="191" y="-7.5" font-family="Helvetica,sans-Serif" font-size="10.00">new_adaline</text>
</a>
</g>
</g>
<!-- Node2&#45;&gt;Node6 -->
<g id="edge5" class="edge">
<title>Node2&#45;&gt;Node6</title>
<path fill="none" stroke="midnightblue" d="M104.16,-114.45C106.91,-111.58 109.74,-108.3 112,-105 133.12,-74.16 121.34,-55.2 148,-29 149.46,-27.57 151.04,-26.24 152.71,-24.99"/>
<polygon fill="midnightblue" stroke="midnightblue" points="154.92,-27.74 161.6,-19.52 151.25,-21.78 154.92,-27.74"/>
</g>
<!-- Node7 -->
<g id="node7" class="node">
<title>Node7</title>
<g id="a_node7"><a xlink:href="../../dd/d8c/adaline__learning_8c.html#a4db1ba00a7f282100ea31a94e32bd7a3" target="_top" xlink:title=" ">
<polygon fill="white" stroke="black" points="168,-152.5 168,-171.5 214,-171.5 214,-152.5 168,-152.5"/>
<text text-anchor="middle" x="191" y="-159.5" font-family="Helvetica,sans-Serif" font-size="10.00">predict</text>
</a>
</g>
</g>
<!-- Node2&#45;&gt;Node7 -->
<g id="edge6" class="edge">
<title>Node2&#45;&gt;Node7</title>
<path fill="none" stroke="midnightblue" d="M112.06,-131.15C125.07,-136.3 142.96,-143.38 158.33,-149.46"/>
<polygon fill="midnightblue" stroke="midnightblue" points="157.39,-152.86 167.98,-153.28 159.97,-146.35 157.39,-152.86"/>
</g>
<!-- Node8 -->
<g id="node8" class="node">
<title>Node8</title>
<g id="a_node8"><a xlink:href="../../dd/d8c/adaline__learning_8c.html#a7b12b6513314c975303b5a698608322f" target="_top" xlink:title=" ">
<polygon fill="white" stroke="black" points="270,-152.5 270,-171.5 329,-171.5 329,-152.5 270,-152.5"/>
<text text-anchor="middle" x="299.5" y="-159.5" font-family="Helvetica,sans-Serif" font-size="10.00">activation</text>
</a>
</g>
</g>
<!-- Node7&#45;&gt;Node8 -->
<g id="edge7" class="edge">
<title>Node7&#45;&gt;Node8</title>
<path fill="none" stroke="midnightblue" d="M214.07,-162C227.23,-162 244.33,-162 259.69,-162"/>
<polygon fill="midnightblue" stroke="midnightblue" points="259.98,-165.5 269.98,-162 259.98,-158.5 259.98,-165.5"/>
</g>
<!-- Node9&#45;&gt;Node3 -->
<g id="edge9" class="edge">
<title>Node9&#45;&gt;Node3</title>
<path fill="none" stroke="midnightblue" d="M112.06,-93.15C124.53,-98.09 141.5,-104.8 156.42,-110.71"/>
<polygon fill="midnightblue" stroke="midnightblue" points="155.27,-114.02 165.86,-114.44 157.85,-107.51 155.27,-114.02"/>
</g>
<!-- Node9&#45;&gt;Node4 -->
<g id="edge10" class="edge">
<title>Node9&#45;&gt;Node4</title>
<path fill="none" stroke="midnightblue" d="M112.06,-86C127.38,-86 149.49,-86 166.25,-86"/>
<polygon fill="midnightblue" stroke="midnightblue" points="166.37,-89.5 176.37,-86 166.37,-82.5 166.37,-89.5"/>
</g>
<!-- Node9&#45;&gt;Node5 -->
<g id="edge11" class="edge">
<title>Node9&#45;&gt;Node5</title>
<path fill="none" stroke="midnightblue" d="M112.06,-78.85C124.53,-73.91 141.5,-67.2 156.42,-61.29"/>
<polygon fill="midnightblue" stroke="midnightblue" points="157.85,-64.49 165.86,-57.56 155.27,-57.98 157.85,-64.49"/>
</g>
<!-- Node9&#45;&gt;Node6 -->
<g id="edge12" class="edge">
<title>Node9&#45;&gt;Node6</title>
<path fill="none" stroke="midnightblue" d="M103.13,-76.35C118.48,-60.13 147.84,-29.12 148,-29 150.38,-27.3 152.94,-25.7 155.58,-24.21"/>
<polygon fill="midnightblue" stroke="midnightblue" points="157.4,-27.21 164.7,-19.53 154.2,-20.98 157.4,-27.21"/>
</g>
<!-- Node9&#45;&gt;Node7 -->
<g id="edge13" class="edge">
<title>Node9&#45;&gt;Node7</title>
<path fill="none" stroke="midnightblue" d="M103.13,-95.65C118.48,-111.87 147.84,-142.88 148,-143 151.28,-145.34 154.89,-147.49 158.58,-149.44"/>
<polygon fill="midnightblue" stroke="midnightblue" points="157.23,-152.67 167.76,-153.85 160.27,-146.36 157.23,-152.67"/>
</g>
<!-- Node10&#45;&gt;Node3 -->
<g id="edge15" class="edge">
<title>Node10&#45;&gt;Node3</title>
<path fill="none" stroke="midnightblue" d="M103.13,-57.65C118.48,-73.87 147.84,-104.88 148,-105 150.38,-106.7 152.94,-108.3 155.58,-109.79"/>
<polygon fill="midnightblue" stroke="midnightblue" points="154.2,-113.02 164.7,-114.47 157.4,-106.79 154.2,-113.02"/>
</g>
<!-- Node10&#45;&gt;Node4 -->
<g id="edge16" class="edge">
<title>Node10&#45;&gt;Node4</title>
<path fill="none" stroke="midnightblue" d="M112.06,-55.15C127.53,-61.27 149.91,-70.13 166.73,-76.79"/>
<polygon fill="midnightblue" stroke="midnightblue" points="165.78,-80.18 176.37,-80.6 168.36,-73.67 165.78,-80.18"/>
</g>
<!-- Node10&#45;&gt;Node5 -->
<g id="edge17" class="edge">
<title>Node10&#45;&gt;Node5</title>
<path fill="none" stroke="midnightblue" d="M112.06,-48C119.48,-48 128.48,-48 137.7,-48"/>
<polygon fill="midnightblue" stroke="midnightblue" points="137.73,-51.5 147.73,-48 137.73,-44.5 137.73,-51.5"/>
</g>
<!-- Node10&#45;&gt;Node6 -->
<g id="edge18" class="edge">
<title>Node10&#45;&gt;Node6</title>
<path fill="none" stroke="midnightblue" d="M112.06,-40.85C124.53,-35.91 141.5,-29.2 156.42,-23.29"/>
<polygon fill="midnightblue" stroke="midnightblue" points="157.85,-26.49 165.86,-19.56 155.27,-19.98 157.85,-26.49"/>
</g>
<!-- Node10&#45;&gt;Node7 -->
<g id="edge19" class="edge">
<title>Node10&#45;&gt;Node7</title>
<path fill="none" stroke="midnightblue" d="M104.16,-57.55C106.91,-60.42 109.74,-63.7 112,-67 133.12,-97.84 121.34,-116.8 148,-143 151.08,-146.03 154.73,-148.63 158.58,-150.84"/>
<polygon fill="midnightblue" stroke="midnightblue" points="157.19,-154.06 167.71,-155.32 160.28,-147.77 157.19,-154.06"/>
</g>
</g>
</svg>
