<?xml version="1.0" encoding="UTF-8" standalone="no"?>
<!DOCTYPE svg PUBLIC "-//W3C//DTD SVG 1.1//EN"
 "http://www.w3.org/Graphics/SVG/1.1/DTD/svg11.dtd">
<!-- Generated by graphviz version 2.49.3 (20211023.0002)
 -->
<!-- Title: test3 Pages: 1 -->
<!--zoomable 180 -->
<svg id="main" version="1.1" xmlns="http://www.w3.org/2000/svg" xmlns:xlink="http://www.w3.org/1999/xlink" xml:space="preserve" onload="init(evt)">
<style type="text/css"><![CDATA[
.edge:hover path { stroke: red; }
.edge:hover polygon { stroke: red; fill: red; }
]]></style>
<script type="text/javascript"><![CDATA[
var edges = document.getElementsByTagName('g');
if (edges && edges.length) {
  for (var i=0;i<edges.length;i++) {
    if (edges[i].id.substr(0,4)=='edge') {
      edges[i].setAttribute('class','edge');
    }
  }
}
]]></script>
        <defs>
                <circle id="rim" cx="0" cy="0" r="7"/>
                <circle id="rim2" cx="0" cy="0" r="3.5"/>
                <g id="zoomPlus">
                        <use xlink:href="#rim" fill="#404040">
                                <set attributeName="fill" to="#808080" begin="zoomplus.mouseover" end="zoomplus.mouseout"/>
                        </use>
                        <path d="M-4,0h8M0,-4v8" fill="none" stroke="white" stroke-width="1.5" pointer-events="none"/>
                </g>
                <g id="zoomMin">
                        <use xlink:href="#rim" fill="#404040">
                                <set attributeName="fill" to="#808080" begin="zoomminus.mouseover" end="zoomminus.mouseout"/>
                        </use>
                        <path d="M-4,0h8" fill="none" stroke="white" stroke-width="1.5" pointer-events="none"/>
                </g>
                <g id="dirArrow">
                        <path fill="none" stroke="white" stroke-width="1.5" d="M0,-3.0v7 M-2.5,-0.5L0,-3.0L2.5,-0.5"/>
                </g>
               <g id="resetDef">
                       <use xlink:href="#rim2" fill="#404040">
                               <set attributeName="fill" to="#808080" begin="reset.mouseover" end="reset.mouseout"/>
                       </use>
               </g>
        </defs>

<script type="text/javascript">
var viewWidth = 577;
var viewHeight = 180;
var sectionId = 'dynsection-4';
</script>
<script xlink:href="../../svgpan.js"/>
<svg id="graph" class="graph">
<g id="viewport">
<title>test3</title>
<polygon fill="white" stroke="transparent" points="-4,4 -4,-176 573,-176 573,4 -4,4"/>
<!-- Node1 -->
<g id="node1" class="node">
<title>Node1</title>
<g id="a_node1"><a xlink:title="test function to predict points in a 3D coordinate system lying within the sphere of radius 1 and cen...">
<polygon fill="#bfbfbf" stroke="black" points="0,-76.5 0,-95.5 38,-95.5 38,-76.5 0,-76.5"/>
<text text-anchor="middle" x="19" y="-83.5" font-family="Helvetica,sans-Serif" font-size="10.00">test3</text>
</a>
</g>
</g>
<!-- Node2 -->
<g id="node2" class="node">
<title>Node2</title>
<g id="a_node2"><a xlink:href="../../da/d2a/group__adaline.html#gaa52120912e32d2893fe1c6d78da5befd" target="_top" xlink:title="Update the weights of the model using supervised learning for an array of vectors.">
<polygon fill="white" stroke="black" points="84,-152.5 84,-171.5 146,-171.5 146,-152.5 84,-152.5"/>
<text text-anchor="middle" x="115" y="-159.5" font-family="Helvetica,sans-Serif" font-size="10.00">adaline_fit</text>
</a>
</g>
</g>
<!-- Node1&#45;&gt;Node2 -->
<g id="edge1" class="edge">
<title>Node1&#45;&gt;Node2</title>
<path fill="none" stroke="midnightblue" d="M28.97,-95.89C39.23,-106.9 56.85,-124.87 74,-138 78.15,-141.18 82.76,-144.28 87.32,-147.15"/>
<polygon fill="midnightblue" stroke="midnightblue" points="85.54,-150.16 95.91,-152.31 89.15,-144.16 85.54,-150.16"/>
</g>
<!-- Node4 -->
<g id="node4" class="node">
<title>Node4</title>
<g id="a_node4"><a xlink:href="../../da/d2a/group__adaline.html#gac70b578aee679005fd336073969c3d94" target="_top" xlink:title="predict the output of the model for given set of features">
<polygon fill="white" stroke="black" points="352,-114.5 352,-133.5 436,-133.5 436,-114.5 352,-114.5"/>
<text text-anchor="middle" x="394" y="-121.5" font-family="Helvetica,sans-Serif" font-size="10.00">adaline_predict</text>
</a>
</g>
</g>
<!-- Node1&#45;&gt;Node4 -->
<g id="edge7" class="edge">
<title>Node1&#45;&gt;Node4</title>
<path fill="none" stroke="midnightblue" d="M38.14,-86.05C84.62,-86.41 211.67,-88.91 316,-105 327.15,-106.72 339.05,-109.28 350.07,-111.98"/>
<polygon fill="midnightblue" stroke="midnightblue" points="349.36,-115.41 359.91,-114.47 351.07,-108.62 349.36,-115.41"/>
</g>
<!-- Node6 -->
<g id="node6" class="node">
<title>Node6</title>
<g id="a_node6"><a xlink:href="../../da/d2a/group__adaline.html#gadb1a7acb555ad62daaf3806bf2fed036" target="_top" xlink:title="Operator to print the weights of the model.">
<polygon fill="white" stroke="black" points="192,-114.5 192,-133.5 316,-133.5 316,-114.5 192,-114.5"/>
<text text-anchor="middle" x="254" y="-121.5" font-family="Helvetica,sans-Serif" font-size="10.00">adaline_get_weights_str</text>
</a>
</g>
</g>
<!-- Node1&#45;&gt;Node6 -->
<g id="edge6" class="edge">
<title>Node1&#45;&gt;Node6</title>
<path fill="none" stroke="midnightblue" d="M38.37,-91.35C48.76,-94.23 62.02,-97.65 74,-100 109.27,-106.91 148.85,-112.45 181.81,-116.45"/>
<polygon fill="midnightblue" stroke="midnightblue" points="181.46,-119.93 191.81,-117.64 182.29,-112.98 181.46,-119.93"/>
</g>
<!-- Node7 -->
<g id="node7" class="node">
<title>Node7</title>
<g id="a_node7"><a xlink:href="../../da/d2a/group__adaline.html#ga6f35caa3084772cc126ac7b20f67f665" target="_top" xlink:title="delete dynamically allocated memory">
<polygon fill="white" stroke="black" points="74,-38.5 74,-57.5 156,-57.5 156,-38.5 74,-38.5"/>
<text text-anchor="middle" x="115" y="-45.5" font-family="Helvetica,sans-Serif" font-size="10.00">delete_adaline</text>
</a>
</g>
</g>
<!-- Node1&#45;&gt;Node7 -->
<g id="edge8" class="edge">
<title>Node1&#45;&gt;Node7</title>
<path fill="none" stroke="midnightblue" d="M38.12,-78.67C50.17,-73.8 66.36,-67.26 80.69,-61.47"/>
<polygon fill="midnightblue" stroke="midnightblue" points="82.27,-64.6 90.23,-57.61 79.65,-58.11 82.27,-64.6"/>
</g>
<!-- Node8 -->
<g id="node8" class="node">
<title>Node8</title>
<g id="a_node8"><a xlink:href="../../da/d2a/group__adaline.html#gacd88962c5f6341e43cbc69b4a7d3485b" target="_top" xlink:title="Default constructor.">
<polygon fill="white" stroke="black" points="78.5,-0.5 78.5,-19.5 151.5,-19.5 151.5,-0.5 78.5,-0.5"/>
<text text-anchor="middle" x="115" y="-7.5" font-family="Helvetica,sans-Serif" font-size="10.00">new_adaline</text>
</a>
</g>
</g>
<!-- Node1&#45;&gt;Node8 -->
<g id="edge9" class="edge">
<title>Node1&#45;&gt;Node8</title>
<path fill="none" stroke="midnightblue" d="M27.16,-76.49C36.76,-64.26 54.81,-42.93 74,-29 76.2,-27.4 78.55,-25.89 80.98,-24.46"/>
<polygon fill="midnightblue" stroke="midnightblue" points="82.75,-27.48 89.92,-19.67 79.45,-21.31 82.75,-27.48"/>
</g>
<!-- Node3 -->
<g id="node3" class="node">
<title>Node3</title>
<g id="a_node3"><a xlink:href="../../da/d2a/group__adaline.html#ga20d3642e0a87f36fdb7bf91b023cd166" target="_top" xlink:title="Update the weights of the model using supervised learning for one feature vector.">
<polygon fill="white" stroke="black" points="204,-152.5 204,-171.5 304,-171.5 304,-152.5 204,-152.5"/>
<text text-anchor="middle" x="254" y="-159.5" font-family="Helvetica,sans-Serif" font-size="10.00">adaline_fit_sample</text>
</a>
</g>
</g>
<!-- Node2&#45;&gt;Node3 -->
<g id="edge2" class="edge">
<title>Node2&#45;&gt;Node3</title>
<path fill="none" stroke="midnightblue" d="M146.07,-162C160.09,-162 177.29,-162 193.76,-162"/>
<polygon fill="midnightblue" stroke="midnightblue" points="193.89,-165.5 203.89,-162 193.89,-158.5 193.89,-165.5"/>
</g>
<!-- Node2&#45;&gt;Node6 -->
<g id="edge5" class="edge">
<title>Node2&#45;&gt;Node6</title>
<path fill="none" stroke="midnightblue" d="M146.07,-153.66C164.48,-148.55 188.37,-141.93 208.89,-136.23"/>
<polygon fill="midnightblue" stroke="midnightblue" points="209.96,-139.57 218.66,-133.52 208.09,-132.82 209.96,-139.57"/>
</g>
<!-- Node3&#45;&gt;Node4 -->
<g id="edge3" class="edge">
<title>Node3&#45;&gt;Node4</title>
<path fill="none" stroke="midnightblue" d="M289.82,-152.41C307.64,-147.51 329.52,-141.48 348.54,-136.24"/>
<polygon fill="midnightblue" stroke="midnightblue" points="349.48,-139.62 358.19,-133.59 347.62,-132.87 349.48,-139.62"/>
</g>
<!-- Node5 -->
<g id="node5" class="node">
<title>Node5</title>
<g id="a_node5"><a xlink:href="../../da/d2a/group__adaline.html#ga43576566b020c4157d4fb28f0dd45cfa" target="_top" xlink:title="Heaviside activation function">
<polygon fill="white" stroke="black" points="472,-114.5 472,-133.5 569,-133.5 569,-114.5 472,-114.5"/>
<text text-anchor="middle" x="520.5" y="-121.5" font-family="Helvetica,sans-Serif" font-size="10.00">adaline_activation</text>
</a>
</g>
</g>
<!-- Node4&#45;&gt;Node5 -->
<g id="edge4" class="edge">
<title>Node4&#45;&gt;Node5</title>
<path fill="none" stroke="midnightblue" d="M436.11,-124C444.36,-124 453.17,-124 461.86,-124"/>
<polygon fill="midnightblue" stroke="midnightblue" points="461.96,-127.5 471.96,-124 461.96,-120.5 461.96,-127.5"/>
</g>
</g>
</svg>
        <g id="navigator" transform="translate(0 0)" fill="#404254">
                <rect fill="#f2f5e9" fill-opacity="0.5" stroke="#606060" stroke-width=".5" x="0" y="0" width="60" height="60"/>
                <use id="zoomplus" xlink:href="#zoomPlus" x="17" y="9" onmousedown="handleZoom(evt,'in')"/>
                <use id="zoomminus" xlink:href="#zoomMin" x="42" y="9" onmousedown="handleZoom(evt,'out')"/>
                <use id="reset" xlink:href="#resetDef" x="30" y="36" onmousedown="handleReset()"/>
                <g id="arrowUp" xlink:href="#dirArrow" transform="translate(30 24)" onmousedown="handlePan(0,-1)">
                  <use xlink:href="#rim" fill="#404040">
                        <set attributeName="fill" to="#808080" begin="arrowUp.mouseover" end="arrowUp.mouseout"/>
                  </use>
                  <path fill="none" stroke="white" stroke-width="1.5" d="M0,-3.0v7 M-2.5,-0.5L0,-3.0L2.5,-0.5"/>
                </g>
                <g id="arrowRight" xlink:href="#dirArrow" transform="rotate(90) translate(36 -43)" onmousedown="handlePan(1,0)">
                  <use xlink:href="#rim" fill="#404040">
                        <set attributeName="fill" to="#808080" begin="arrowRight.mouseover" end="arrowRight.mouseout"/>
                  </use>
                  <path fill="none" stroke="white" stroke-width="1.5" d="M0,-3.0v7 M-2.5,-0.5L0,-3.0L2.5,-0.5"/>
                </g>
                <g id="arrowDown" xlink:href="#dirArrow" transform="rotate(180) translate(-30 -48)" onmousedown="handlePan(0,1)">
                  <use xlink:href="#rim" fill="#404040">
                        <set attributeName="fill" to="#808080" begin="arrowDown.mouseover" end="arrowDown.mouseout"/>
                  </use>
                  <path fill="none" stroke="white" stroke-width="1.5" d="M0,-3.0v7 M-2.5,-0.5L0,-3.0L2.5,-0.5"/>
                </g>
                <g id="arrowLeft" xlink:href="#dirArrow" transform="rotate(270) translate(-36 17)" onmousedown="handlePan(-1,0)">
                  <use xlink:href="#rim" fill="#404040">
                        <set attributeName="fill" to="#808080" begin="arrowLeft.mouseover" end="arrowLeft.mouseout"/>
                  </use>
                  <path fill="none" stroke="white" stroke-width="1.5" d="M0,-3.0v7 M-2.5,-0.5L0,-3.0L2.5,-0.5"/>
                </g>
        </g>
        <svg viewBox="0 0 15 15" width="100%" height="30px" preserveAspectRatio="xMaxYMin meet">
         <g id="arrow_out" transform="scale(0.3 0.3)">
          <a xlink:href="adaline__learning_8c_a3f37b9f073f7e57fd0b39d70718af1b1_cgraph_org.svg" target="_base">
           <rect id="button" ry="5" rx="5" y="6" x="6" height="38" width="38"
                fill="#f2f5e9" fill-opacity="0.5" stroke="#606060" stroke-width="1.0"/>
           <path id="arrow"
             d="M 11.500037,31.436501 C 11.940474,20.09759 22.043105,11.32322 32.158766,21.979434 L 37.068811,17.246167 C 37.068811,17.246167 37.088388,32 37.088388,32 L 22.160133,31.978069 C 22.160133,31.978069 26.997745,27.140456 26.997745,27.140456 C 18.528582,18.264221 13.291696,25.230495 11.500037,31.436501 z"
             style="fill:#404040;"/>
          </a>
         </g>
        </svg>
</svg>
