<?xml version="1.0" encoding="UTF-8" standalone="no"?>
<!DOCTYPE svg PUBLIC "-//W3C//DTD SVG 1.1//EN"
 "http://www.w3.org/Graphics/SVG/1.1/DTD/svg11.dtd">
<!-- Generated by graphviz version 8.0.5 (20230430.1635)
 -->
<!-- Title: test3 Pages: 1 -->
<svg width="564pt" height="178pt"
 viewBox="0.00 0.00 564.25 178.25" xmlns="http://www.w3.org/2000/svg" xmlns:xlink="http://www.w3.org/1999/xlink">
<g id="graph0" class="graph" transform="scale(1 1) rotate(0) translate(4 174.25)">
<title>test3</title>
<!-- Node1 -->
<g id="Node000001" class="node">
<title>Node1</title>
<g id="a_Node000001"><a xlink:title="test function to predict points in a 3D coordinate system lying within the sphere of radius 1 and cen...">
<polygon fill="#999999" stroke="#666666" points="37.75,-94.25 0,-94.25 0,-75 37.75,-75 37.75,-94.25"/>
<text text-anchor="middle" x="18.88" y="-80.75" font-family="Helvetica,sans-Serif" font-size="10.00">test3</text>
</a>
</g>
</g>
<!-- Node2 -->
<g id="Node000002" class="node">
<title>Node2</title>
<g id="a_Node000002"><a xlink:href="../../da/d2a/group__adaline.html#gaa52120912e32d2893fe1c6d78da5befd" target="_top" xlink:title="Update the weights of the model using supervised learning for an array of vectors.">
<polygon fill="white" stroke="#666666" points="143,-170.25 82.75,-170.25 82.75,-151 143,-151 143,-170.25"/>
<text text-anchor="middle" x="112.88" y="-156.75" font-family="Helvetica,sans-Serif" font-size="10.00">adaline_fit</text>
</a>
</g>
</g>
<!-- Node1&#45;&gt;Node2 -->
<g id="edge1_Node000001_Node000002" class="edge">
<title>Node1&#45;&gt;Node2</title>
<g id="a_edge1_Node000001_Node000002"><a xlink:title=" ">
<path fill="none" stroke="#63b8ff" d="M28.87,-94.45C39.16,-105.4 56.77,-123.31 73.75,-136.62 77.35,-139.45 81.3,-142.23 85.24,-144.85"/>
<polygon fill="#63b8ff" stroke="#63b8ff" points="82.97,-148.19 93.28,-150.6 86.72,-142.28 82.97,-148.19"/>
</a>
</g>
</g>
<!-- Node4 -->
<g id="Node000004" class="node">
<title>Node4</title>
<g id="a_Node000004"><a xlink:href="../../da/d2a/group__adaline.html#gac70b578aee679005fd336073969c3d94" target="_top" xlink:title="predict the output of the model for given set of features">
<polygon fill="white" stroke="#666666" points="426.25,-131.25 345,-131.25 345,-112 426.25,-112 426.25,-131.25"/>
<text text-anchor="middle" x="385.62" y="-117.75" font-family="Helvetica,sans-Serif" font-size="10.00">adaline_predict</text>
</a>
</g>
</g>
<!-- Node1&#45;&gt;Node4 -->
<g id="edge7_Node000001_Node000004" class="edge">
<title>Node1&#45;&gt;Node4</title>
<g id="a_edge7_Node000001_Node000004"><a xlink:title=" ">
<path fill="none" stroke="#63b8ff" d="M37.92,-84.76C83.57,-85.33 207.28,-88.29 309,-103.62 318.21,-105.01 327.95,-106.96 337.26,-109.07"/>
<polygon fill="#63b8ff" stroke="#63b8ff" points="336.41,-112.7 346.94,-111.58 338.01,-105.88 336.41,-112.7"/>
</a>
</g>
</g>
<!-- Node6 -->
<g id="Node000006" class="node">
<title>Node6</title>
<g id="a_Node000006"><a xlink:href="../../da/d2a/group__adaline.html#gadb1a7acb555ad62daaf3806bf2fed036" target="_top" xlink:title="Operator to print the weights of the model.">
<polygon fill="white" stroke="#666666" points="309,-132.25 188,-132.25 188,-113 309,-113 309,-132.25"/>
<text text-anchor="middle" x="248.5" y="-118.75" font-family="Helvetica,sans-Serif" font-size="10.00">adaline_get_weights_str</text>
</a>
</g>
</g>
<!-- Node1&#45;&gt;Node6 -->
<g id="edge6_Node000001_Node000006" class="edge">
<title>Node1&#45;&gt;Node6</title>
<g id="a_edge6_Node000001_Node000006"><a xlink:title=" ">
<path fill="none" stroke="#63b8ff" d="M38.2,-89.96C48.57,-92.83 61.81,-96.26 73.75,-98.62 107.56,-105.33 145.45,-110.8 177.19,-114.81"/>
<polygon fill="#63b8ff" stroke="#63b8ff" points="176.35,-118.36 186.7,-116.12 177.21,-111.41 176.35,-118.36"/>
</a>
</g>
</g>
<!-- Node7 -->
<g id="Node000007" class="node">
<title>Node7</title>
<g id="a_Node000007"><a xlink:href="../../da/d2a/group__adaline.html#ga6f35caa3084772cc126ac7b20f67f665" target="_top" xlink:title="delete dynamically allocated memory">
<polygon fill="white" stroke="#666666" points="152,-56.25 73.75,-56.25 73.75,-37 152,-37 152,-56.25"/>
<text text-anchor="middle" x="112.88" y="-42.75" font-family="Helvetica,sans-Serif" font-size="10.00">delete_adaline</text>
</a>
</g>
</g>
<!-- Node1&#45;&gt;Node7 -->
<g id="edge8_Node000001_Node000007" class="edge">
<title>Node1&#45;&gt;Node7</title>
<g id="a_edge8_Node000001_Node000007"><a xlink:title=" ">
<path fill="none" stroke="#63b8ff" d="M38.05,-77.12C49.32,-72.46 64.15,-66.34 77.57,-60.8"/>
<polygon fill="#63b8ff" stroke="#63b8ff" points="78.56,-63.76 86.46,-56.71 75.89,-57.29 78.56,-63.76"/>
</a>
</g>
</g>
<!-- Node8 -->
<g id="Node000008" class="node">
<title>Node8</title>
<g id="a_Node000008"><a xlink:href="../../da/d2a/group__adaline.html#gacd88962c5f6341e43cbc69b4a7d3485b" target="_top" xlink:title="Default constructor.">
<polygon fill="white" stroke="#666666" points="147.88,-19.25 77.88,-19.25 77.88,0 147.88,0 147.88,-19.25"/>
<text text-anchor="middle" x="112.88" y="-5.75" font-family="Helvetica,sans-Serif" font-size="10.00">new_adaline</text>
</a>
</g>
</g>
<!-- Node1&#45;&gt;Node8 -->
<g id="edge9_Node000001_Node000008" class="edge">
<title>Node1&#45;&gt;Node8</title>
<g id="a_edge9_Node000001_Node000008"><a xlink:title=" ">
<path fill="none" stroke="#63b8ff" d="M27.35,-74.68C36.99,-62.38 54.79,-41.37 73.75,-27.62 75.05,-26.69 76.4,-25.77 77.79,-24.89"/>
<polygon fill="#63b8ff" stroke="#63b8ff" points="79.3,-27.5 86.31,-19.56 75.88,-21.39 79.3,-27.5"/>
</a>
</g>
</g>
<!-- Node3 -->
<g id="Node000003" class="node">
<title>Node3</title>
<g id="a_Node000003"><a xlink:href="../../da/d2a/group__adaline.html#ga20d3642e0a87f36fdb7bf91b023cd166" target="_top" xlink:title="Update the weights of the model using supervised learning for one feature vector.">
<polygon fill="white" stroke="#666666" points="297,-169.25 200,-169.25 200,-150 297,-150 297,-169.25"/>
<text text-anchor="middle" x="248.5" y="-155.75" font-family="Helvetica,sans-Serif" font-size="10.00">adaline_fit_sample</text>
</a>
</g>
</g>
<!-- Node2&#45;&gt;Node3 -->
<g id="edge2_Node000002_Node000003" class="edge">
<title>Node2&#45;&gt;Node3</title>
<g id="a_edge2_Node000002_Node000003"><a xlink:title=" ">
<path fill="none" stroke="#63b8ff" d="M143.2,-160.41C156.62,-160.31 173.02,-160.18 188.81,-160.06"/>
<polygon fill="#63b8ff" stroke="#63b8ff" points="188.63,-163.56 198.6,-159.98 188.58,-156.56 188.63,-163.56"/>
</a>
</g>
</g>
<!-- Node2&#45;&gt;Node6 -->
<g id="edge5_Node000002_Node000006" class="edge">
<title>Node2&#45;&gt;Node6</title>
<g id="a_edge5_Node000002_Node000006"><a xlink:title=" ">
<path fill="none" stroke="#63b8ff" d="M143.2,-152.29C160.31,-147.42 182.28,-141.17 201.63,-135.67"/>
<polygon fill="#63b8ff" stroke="#63b8ff" points="202.41,-138.8 211.07,-132.7 200.49,-132.07 202.41,-138.8"/>
</a>
</g>
</g>
<!-- Node3&#45;&gt;Node4 -->
<g id="edge3_Node000003_Node000004" class="edge">
<title>Node3&#45;&gt;Node4</title>
<g id="a_edge3_Node000003_Node000004"><a xlink:title=" ">
<path fill="none" stroke="#63b8ff" d="M285.36,-149.54C301.67,-144.95 321.18,-139.47 338.57,-134.58"/>
<polygon fill="#63b8ff" stroke="#63b8ff" points="339.39,-137.7 348.07,-131.62 337.5,-130.96 339.39,-137.7"/>
</a>
</g>
</g>
<!-- Node5 -->
<g id="Node000005" class="node">
<title>Node5</title>
<g id="a_Node000005"><a xlink:href="../../da/d2a/group__adaline.html#ga43576566b020c4157d4fb28f0dd45cfa" target="_top" xlink:title="Heaviside activation function">
<polygon fill="white" stroke="#666666" points="556.25,-131.25 462.25,-131.25 462.25,-112 556.25,-112 556.25,-131.25"/>
<text text-anchor="middle" x="509.25" y="-117.75" font-family="Helvetica,sans-Serif" font-size="10.00">adaline_activation</text>
</a>
</g>
</g>
<!-- Node4&#45;&gt;Node5 -->
<g id="edge4_Node000004_Node000005" class="edge">
<title>Node4&#45;&gt;Node5</title>
<g id="a_edge4_Node000004_Node000005"><a xlink:title=" ">
<path fill="none" stroke="#63b8ff" d="M426.45,-121.62C434.35,-121.62 442.79,-121.62 451.13,-121.62"/>
<polygon fill="#63b8ff" stroke="#63b8ff" points="451,-125.13 461,-121.62 451,-118.13 451,-125.13"/>
</a>
</g>
</g>
</g>
</svg>
