<?xml version="1.0" encoding="UTF-8" standalone="no"?>
<!DOCTYPE svg PUBLIC "-//W3C//DTD SVG 1.1//EN"
 "http://www.w3.org/Graphics/SVG/1.1/DTD/svg11.dtd">
<!-- Generated by graphviz version 2.49.3 (20211023.0002)
 -->
<!-- Title: main Pages: 1 -->
<!--zoomable 211 -->
<svg id="main" version="1.1" xmlns="http://www.w3.org/2000/svg" xmlns:xlink="http://www.w3.org/1999/xlink" xml:space="preserve" onload="init(evt)">
<style type="text/css"><![CDATA[
.edge:hover path { stroke: red; }
.edge:hover polygon { stroke: red; fill: red; }
]]></style>
<script type="text/javascript"><![CDATA[
var edges = document.getElementsByTagName('g');
if (edges && edges.length) {
  for (var i=0;i<edges.length;i++) {
    if (edges[i].id.substr(0,4)=='edge') {
      edges[i].setAttribute('class','edge');
    }
  }
}
]]></script>
        <defs>
                <circle id="rim" cx="0" cy="0" r="7"/>
                <circle id="rim2" cx="0" cy="0" r="3.5"/>
                <g id="zoomPlus">
                        <use xlink:href="#rim" fill="#404040">
                                <set attributeName="fill" to="#808080" begin="zoomplus.mouseover" end="zoomplus.mouseout"/>
                        </use>
                        <path d="M-4,0h8M0,-4v8" fill="none" stroke="white" stroke-width="1.5" pointer-events="none"/>
                </g>
                <g id="zoomMin">
                        <use xlink:href="#rim" fill="#404040">
                                <set attributeName="fill" to="#808080" begin="zoomminus.mouseover" end="zoomminus.mouseout"/>
                        </use>
                        <path d="M-4,0h8" fill="none" stroke="white" stroke-width="1.5" pointer-events="none"/>
                </g>
                <g id="dirArrow">
                        <path fill="none" stroke="white" stroke-width="1.5" d="M0,-3.0v7 M-2.5,-0.5L0,-3.0L2.5,-0.5"/>
                </g>
               <g id="resetDef">
                       <use xlink:href="#rim2" fill="#404040">
                               <set attributeName="fill" to="#808080" begin="reset.mouseover" end="reset.mouseout"/>
                       </use>
               </g>
        </defs>

<script type="text/javascript">
var viewWidth = 651;
var viewHeight = 211;
var sectionId = 'dynsection-1';
</script>
<script xlink:href="../../svgpan.js"/>
<svg id="graph" class="graph">
<g id="viewport">
<title>main</title>
<polygon fill="white" stroke="transparent" points="-4,4 -4,-207.19 647,-207.19 647,4 -4,4"/>
<!-- Node1 -->
<g id="node1" class="node">
<title>Node1</title>
<g id="a_node1"><a xlink:title="Main function.">
<polygon fill="#bfbfbf" stroke="black" points="0,-106.72 0,-125.72 38,-125.72 38,-106.72 0,-106.72"/>
<text text-anchor="middle" x="19" y="-113.72" font-family="Helvetica,sans-Serif" font-size="10.00">main</text>
</a>
</g>
</g>
<!-- Node2 -->
<g id="node2" class="node">
<title>Node2</title>
<g id="a_node2"><a xlink:href="../../dd/d8c/adaline__learning_8c.html#ab4ecb3accf5d9e0263087e7265bbe3a9" target="_top" xlink:title="test function to predict points in a 2D coordinate system above the line &#160;as +1 and others as &#45;1.">
<polygon fill="white" stroke="black" points="74,-106.72 74,-125.72 112,-125.72 112,-106.72 74,-106.72"/>
<text text-anchor="middle" x="93" y="-113.72" font-family="Helvetica,sans-Serif" font-size="10.00">test1</text>
</a>
</g>
</g>
<!-- Node1&#45;&gt;Node2 -->
<g id="edge1" class="edge">
<title>Node1&#45;&gt;Node2</title>
<path fill="none" stroke="midnightblue" d="M38.17,-116.22C45.87,-116.22 55.03,-116.22 63.58,-116.22"/>
<polygon fill="midnightblue" stroke="midnightblue" points="63.59,-119.72 73.59,-116.22 63.59,-112.72 63.59,-119.72"/>
</g>
<!-- Node10 -->
<g id="node10" class="node">
<title>Node10</title>
<g id="a_node10"><a xlink:href="../../dd/d8c/adaline__learning_8c.html#a05cc9a0acb524fde727a4d7b4a747ee6" target="_top" xlink:title="test function to predict points in a 2D coordinate system above the line &#160;as +1 and others as &#45;1.">
<polygon fill="white" stroke="black" points="74,-144.72 74,-163.72 112,-163.72 112,-144.72 74,-144.72"/>
<text text-anchor="middle" x="93" y="-151.72" font-family="Helvetica,sans-Serif" font-size="10.00">test2</text>
</a>
</g>
</g>
<!-- Node1&#45;&gt;Node10 -->
<g id="edge11" class="edge">
<title>Node1&#45;&gt;Node10</title>
<path fill="none" stroke="midnightblue" d="M38.17,-125.81C46.21,-130.06 55.83,-135.14 64.71,-139.82"/>
<polygon fill="midnightblue" stroke="midnightblue" points="63.11,-142.93 73.59,-144.51 66.38,-136.74 63.11,-142.93"/>
</g>
<!-- Node11 -->
<g id="node11" class="node">
<title>Node11</title>
<g id="a_node11"><a xlink:href="../../dd/d8c/adaline__learning_8c.html#a3f37b9f073f7e57fd0b39d70718af1b1" target="_top" xlink:title="test function to predict points in a 3D coordinate system lying within the sphere of radius 1 and cen...">
<polygon fill="white" stroke="black" points="74,-49.72 74,-68.72 112,-68.72 112,-49.72 74,-49.72"/>
<text text-anchor="middle" x="93" y="-56.72" font-family="Helvetica,sans-Serif" font-size="10.00">test3</text>
</a>
</g>
</g>
<!-- Node1&#45;&gt;Node11 -->
<g id="edge17" class="edge">
<title>Node1&#45;&gt;Node11</title>
<path fill="none" stroke="midnightblue" d="M32.21,-106.56C43.04,-97.99 59.05,-85.31 71.78,-75.23"/>
<polygon fill="midnightblue" stroke="midnightblue" points="74.3,-77.7 79.97,-68.75 69.95,-72.21 74.3,-77.7"/>
</g>
<!-- Node3 -->
<g id="node3" class="node">
<title>Node3</title>
<g id="a_node3"><a xlink:href="../../da/d2a/group__adaline.html#gaa52120912e32d2893fe1c6d78da5befd" target="_top" xlink:title="Update the weights of the model using supervised learning for an array of vectors.">
<polygon fill="white" stroke="black" points="158,-30.72 158,-49.72 220,-49.72 220,-30.72 158,-30.72"/>
<text text-anchor="middle" x="189" y="-37.72" font-family="Helvetica,sans-Serif" font-size="10.00">adaline_fit</text>
</a>
</g>
</g>
<!-- Node2&#45;&gt;Node3 -->
<g id="edge2" class="edge">
<title>Node2&#45;&gt;Node3</title>
<path fill="none" stroke="midnightblue" d="M102.97,-106.33C113.23,-95.32 130.85,-77.36 148,-64.22 152.15,-61.04 156.76,-57.94 161.32,-55.08"/>
<polygon fill="midnightblue" stroke="midnightblue" points="163.15,-58.06 169.91,-49.91 159.54,-52.06 163.15,-58.06"/>
</g>
<!-- Node5 -->
<g id="node5" class="node">
<title>Node5</title>
<g id="a_node5"><a xlink:href="../../da/d2a/group__adaline.html#gac70b578aee679005fd336073969c3d94" target="_top" xlink:title="predict the output of the model for given set of features">
<polygon fill="white" stroke="black" points="426,-125.72 426,-144.72 510,-144.72 510,-125.72 426,-125.72"/>
<text text-anchor="middle" x="468" y="-132.72" font-family="Helvetica,sans-Serif" font-size="10.00">adaline_predict</text>
</a>
</g>
</g>
<!-- Node2&#45;&gt;Node5 -->
<g id="edge8" class="edge">
<title>Node2&#45;&gt;Node5</title>
<path fill="none" stroke="midnightblue" d="M103.14,-125.89C118.52,-142.14 147.91,-173.18 148,-173.22 246.8,-215.72 377.77,-172.63 436.37,-148.78"/>
<polygon fill="midnightblue" stroke="midnightblue" points="437.91,-151.93 445.8,-144.86 435.22,-145.47 437.91,-151.93"/>
</g>
<!-- Node7 -->
<g id="node7" class="node">
<title>Node7</title>
<g id="a_node7"><a xlink:href="../../da/d2a/group__adaline.html#gadb1a7acb555ad62daaf3806bf2fed036" target="_top" xlink:title="Operator to print the weights of the model.">
<polygon fill="white" stroke="black" points="266,-68.72 266,-87.72 390,-87.72 390,-68.72 266,-68.72"/>
<text text-anchor="middle" x="328" y="-75.72" font-family="Helvetica,sans-Serif" font-size="10.00">adaline_get_weights_str</text>
</a>
</g>
</g>
<!-- Node2&#45;&gt;Node7 -->
<g id="edge7" class="edge">
<title>Node2&#45;&gt;Node7</title>
<path fill="none" stroke="midnightblue" d="M112.18,-108.64C122.51,-104.63 135.79,-99.98 148,-97.22 183.08,-89.3 222.8,-84.66 255.9,-81.96"/>
<polygon fill="midnightblue" stroke="midnightblue" points="256.24,-85.44 265.94,-81.18 255.7,-78.46 256.24,-85.44"/>
</g>
<!-- Node8 -->
<g id="node8" class="node">
<title>Node8</title>
<g id="a_node8"><a xlink:href="../../da/d2a/group__adaline.html#ga6f35caa3084772cc126ac7b20f67f665" target="_top" xlink:title="delete dynamically allocated memory">
<polygon fill="white" stroke="black" points="148,-106.72 148,-125.72 230,-125.72 230,-106.72 148,-106.72"/>
<text text-anchor="middle" x="189" y="-113.72" font-family="Helvetica,sans-Serif" font-size="10.00">delete_adaline</text>
</a>
</g>
</g>
<!-- Node2&#45;&gt;Node8 -->
<g id="edge9" class="edge">
<title>Node2&#45;&gt;Node8</title>
<path fill="none" stroke="midnightblue" d="M112.12,-116.22C119.49,-116.22 128.4,-116.22 137.48,-116.22"/>
<polygon fill="midnightblue" stroke="midnightblue" points="137.74,-119.72 147.74,-116.22 137.74,-112.72 137.74,-119.72"/>
</g>
<!-- Node9 -->
<g id="node9" class="node">
<title>Node9</title>
<g id="a_node9"><a xlink:href="../../da/d2a/group__adaline.html#gacd88962c5f6341e43cbc69b4a7d3485b" target="_top" xlink:title="Default constructor.">
<polygon fill="white" stroke="black" points="152.5,-144.72 152.5,-163.72 225.5,-163.72 225.5,-144.72 152.5,-144.72"/>
<text text-anchor="middle" x="189" y="-151.72" font-family="Helvetica,sans-Serif" font-size="10.00">new_adaline</text>
</a>
</g>
</g>
<!-- Node2&#45;&gt;Node9 -->
<g id="edge10" class="edge">
<title>Node2&#45;&gt;Node9</title>
<path fill="none" stroke="midnightblue" d="M112.12,-123.55C124.17,-128.42 140.36,-134.97 154.69,-140.76"/>
<polygon fill="midnightblue" stroke="midnightblue" points="153.65,-144.11 164.23,-144.62 156.27,-137.62 153.65,-144.11"/>
</g>
<!-- Node4 -->
<g id="node4" class="node">
<title>Node4</title>
<g id="a_node4"><a xlink:href="../../da/d2a/group__adaline.html#ga20d3642e0a87f36fdb7bf91b023cd166" target="_top" xlink:title="Update the weights of the model using supervised learning for one feature vector.">
<polygon fill="white" stroke="black" points="278,-30.72 278,-49.72 378,-49.72 378,-30.72 278,-30.72"/>
<text text-anchor="middle" x="328" y="-37.72" font-family="Helvetica,sans-Serif" font-size="10.00">adaline_fit_sample</text>
</a>
</g>
</g>
<!-- Node3&#45;&gt;Node4 -->
<g id="edge3" class="edge">
<title>Node3&#45;&gt;Node4</title>
<path fill="none" stroke="midnightblue" d="M220.07,-40.22C234.09,-40.22 251.29,-40.22 267.76,-40.22"/>
<polygon fill="midnightblue" stroke="midnightblue" points="267.89,-43.72 277.89,-40.22 267.89,-36.72 267.89,-43.72"/>
</g>
<!-- Node3&#45;&gt;Node7 -->
<g id="edge6" class="edge">
<title>Node3&#45;&gt;Node7</title>
<path fill="none" stroke="midnightblue" d="M220.07,-48.56C238.48,-53.67 262.37,-60.3 282.89,-65.99"/>
<polygon fill="midnightblue" stroke="midnightblue" points="282.09,-69.4 292.66,-68.7 283.96,-62.65 282.09,-69.4"/>
</g>
<!-- Node4&#45;&gt;Node5 -->
<g id="edge4" class="edge">
<title>Node4&#45;&gt;Node5</title>
<path fill="none" stroke="midnightblue" d="M369.23,-49.75C376.41,-52.28 383.63,-55.4 390,-59.22 415.65,-74.61 439.18,-100.26 453.31,-117.46"/>
<polygon fill="midnightblue" stroke="midnightblue" points="450.82,-119.95 459.8,-125.58 456.29,-115.58 450.82,-119.95"/>
</g>
<!-- Node6 -->
<g id="node6" class="node">
<title>Node6</title>
<g id="a_node6"><a xlink:href="../../da/d2a/group__adaline.html#ga43576566b020c4157d4fb28f0dd45cfa" target="_top" xlink:title="Heaviside activation function">
<polygon fill="white" stroke="black" points="546,-125.72 546,-144.72 643,-144.72 643,-125.72 546,-125.72"/>
<text text-anchor="middle" x="594.5" y="-132.72" font-family="Helvetica,sans-Serif" font-size="10.00">adaline_activation</text>
</a>
</g>
</g>
<!-- Node5&#45;&gt;Node6 -->
<g id="edge5" class="edge">
<title>Node5&#45;&gt;Node6</title>
<path fill="none" stroke="midnightblue" d="M510.11,-135.22C518.36,-135.22 527.17,-135.22 535.86,-135.22"/>
<polygon fill="midnightblue" stroke="midnightblue" points="535.96,-138.72 545.96,-135.22 535.96,-131.72 535.96,-138.72"/>
</g>
<!-- Node10&#45;&gt;Node3 -->
<g id="edge12" class="edge">
<title>Node10&#45;&gt;Node3</title>
<path fill="none" stroke="midnightblue" d="M103.32,-144.7C106.16,-141.72 109.25,-138.38 112,-135.22 134.86,-108.98 159.77,-77.17 174.63,-57.82"/>
<polygon fill="midnightblue" stroke="midnightblue" points="177.41,-59.95 180.71,-49.88 171.85,-55.7 177.41,-59.95"/>
</g>
<!-- Node10&#45;&gt;Node5 -->
<g id="edge14" class="edge">
<title>Node10&#45;&gt;Node5</title>
<path fill="none" stroke="midnightblue" d="M102.82,-163.92C112.69,-173.97 129.7,-189.07 148,-195.22 177.92,-205.3 346,-207.2 390,-192.22 413.91,-184.09 436.55,-165.54 451.02,-151.8"/>
<polygon fill="midnightblue" stroke="midnightblue" points="453.5,-154.27 458.16,-144.76 448.58,-149.29 453.5,-154.27"/>
</g>
<!-- Node10&#45;&gt;Node7 -->
<g id="edge13" class="edge">
<title>Node10&#45;&gt;Node7</title>
<path fill="none" stroke="midnightblue" d="M112.34,-162.54C139.17,-173.46 190.27,-189.44 230,-173.22 267.98,-157.72 299.15,-119.4 315.21,-96.44"/>
<polygon fill="midnightblue" stroke="midnightblue" points="318.27,-98.17 320.97,-87.93 312.47,-94.25 318.27,-98.17"/>
</g>
<!-- Node10&#45;&gt;Node8 -->
<g id="edge15" class="edge">
<title>Node10&#45;&gt;Node8</title>
<path fill="none" stroke="midnightblue" d="M112.12,-146.9C124.17,-142.03 140.36,-135.48 154.69,-129.69"/>
<polygon fill="midnightblue" stroke="midnightblue" points="156.27,-132.82 164.23,-125.83 153.65,-126.34 156.27,-132.82"/>
</g>
<!-- Node10&#45;&gt;Node9 -->
<g id="edge16" class="edge">
<title>Node10&#45;&gt;Node9</title>
<path fill="none" stroke="midnightblue" d="M112.12,-154.22C120.78,-154.22 131.56,-154.22 142.26,-154.22"/>
<polygon fill="midnightblue" stroke="midnightblue" points="142.41,-157.72 152.41,-154.22 142.41,-150.72 142.41,-157.72"/>
</g>
<!-- Node11&#45;&gt;Node3 -->
<g id="edge18" class="edge">
<title>Node11&#45;&gt;Node3</title>
<path fill="none" stroke="midnightblue" d="M112.12,-55.56C122.21,-53.52 135.19,-50.9 147.56,-48.4"/>
<polygon fill="midnightblue" stroke="midnightblue" points="148.62,-51.76 157.72,-46.34 147.23,-44.89 148.62,-51.76"/>
</g>
<!-- Node11&#45;&gt;Node5 -->
<g id="edge20" class="edge">
<title>Node11&#45;&gt;Node5</title>
<path fill="none" stroke="midnightblue" d="M100.3,-49.67C109.2,-37.16 126.76,-15.79 148,-7.22 190.85,10.05 369.61,-9.22 390,-21.22 426.54,-42.73 449.43,-89.24 460.03,-115.72"/>
<polygon fill="midnightblue" stroke="midnightblue" points="456.89,-117.31 463.72,-125.41 463.43,-114.82 456.89,-117.31"/>
</g>
<!-- Node11&#45;&gt;Node7 -->
<g id="edge19" class="edge">
<title>Node11&#45;&gt;Node7</title>
<path fill="none" stroke="midnightblue" d="M103.71,-49.54C113.79,-40.22 130.51,-26.76 148,-21.22 182.74,-10.22 196.52,-6.82 230,-21.22 251.37,-30.42 246.25,-46.92 266,-59.22 269.35,-61.31 272.94,-63.18 276.65,-64.86"/>
<polygon fill="midnightblue" stroke="midnightblue" points="275.44,-68.15 286.02,-68.64 278.06,-61.66 275.44,-68.15"/>
</g>
<!-- Node11&#45;&gt;Node8 -->
<g id="edge21" class="edge">
<title>Node11&#45;&gt;Node8</title>
<path fill="none" stroke="midnightblue" d="M109.95,-68.89C124.62,-77.79 146.6,-91.12 163.5,-101.37"/>
<polygon fill="midnightblue" stroke="midnightblue" points="161.92,-104.51 172.29,-106.7 165.55,-98.52 161.92,-104.51"/>
</g>
<!-- Node11&#45;&gt;Node9 -->
<g id="edge22" class="edge">
<title>Node11&#45;&gt;Node9</title>
<path fill="none" stroke="midnightblue" d="M98.73,-68.82C106.88,-84.52 124.94,-115.87 148,-135.22 149.77,-136.71 151.68,-138.11 153.66,-139.42"/>
<polygon fill="midnightblue" stroke="midnightblue" points="152.29,-142.67 162.7,-144.62 155.78,-136.6 152.29,-142.67"/>
</g>
</g>
</svg>
        <g id="navigator" transform="translate(0 0)" fill="#404254">
                <rect fill="#f2f5e9" fill-opacity="0.5" stroke="#606060" stroke-width=".5" x="0" y="0" width="60" height="60"/>
                <use id="zoomplus" xlink:href="#zoomPlus" x="17" y="9" onmousedown="handleZoom(evt,'in')"/>
                <use id="zoomminus" xlink:href="#zoomMin" x="42" y="9" onmousedown="handleZoom(evt,'out')"/>
                <use id="reset" xlink:href="#resetDef" x="30" y="36" onmousedown="handleReset()"/>
                <g id="arrowUp" xlink:href="#dirArrow" transform="translate(30 24)" onmousedown="handlePan(0,-1)">
                  <use xlink:href="#rim" fill="#404040">
                        <set attributeName="fill" to="#808080" begin="arrowUp.mouseover" end="arrowUp.mouseout"/>
                  </use>
                  <path fill="none" stroke="white" stroke-width="1.5" d="M0,-3.0v7 M-2.5,-0.5L0,-3.0L2.5,-0.5"/>
                </g>
                <g id="arrowRight" xlink:href="#dirArrow" transform="rotate(90) translate(36 -43)" onmousedown="handlePan(1,0)">
                  <use xlink:href="#rim" fill="#404040">
                        <set attributeName="fill" to="#808080" begin="arrowRight.mouseover" end="arrowRight.mouseout"/>
                  </use>
                  <path fill="none" stroke="white" stroke-width="1.5" d="M0,-3.0v7 M-2.5,-0.5L0,-3.0L2.5,-0.5"/>
                </g>
                <g id="arrowDown" xlink:href="#dirArrow" transform="rotate(180) translate(-30 -48)" onmousedown="handlePan(0,1)">
                  <use xlink:href="#rim" fill="#404040">
                        <set attributeName="fill" to="#808080" begin="arrowDown.mouseover" end="arrowDown.mouseout"/>
                  </use>
                  <path fill="none" stroke="white" stroke-width="1.5" d="M0,-3.0v7 M-2.5,-0.5L0,-3.0L2.5,-0.5"/>
                </g>
                <g id="arrowLeft" xlink:href="#dirArrow" transform="rotate(270) translate(-36 17)" onmousedown="handlePan(-1,0)">
                  <use xlink:href="#rim" fill="#404040">
                        <set attributeName="fill" to="#808080" begin="arrowLeft.mouseover" end="arrowLeft.mouseout"/>
                  </use>
                  <path fill="none" stroke="white" stroke-width="1.5" d="M0,-3.0v7 M-2.5,-0.5L0,-3.0L2.5,-0.5"/>
                </g>
        </g>
        <svg viewBox="0 0 15 15" width="100%" height="30px" preserveAspectRatio="xMaxYMin meet">
         <g id="arrow_out" transform="scale(0.3 0.3)">
          <a xlink:href="adaline__learning_8c_a3c04138a5bfe5d72780bb7e82a18e627_cgraph_org.svg" target="_base">
           <rect id="button" ry="5" rx="5" y="6" x="6" height="38" width="38"
                fill="#f2f5e9" fill-opacity="0.5" stroke="#606060" stroke-width="1.0"/>
           <path id="arrow"
             d="M 11.500037,31.436501 C 11.940474,20.09759 22.043105,11.32322 32.158766,21.979434 L 37.068811,17.246167 C 37.068811,17.246167 37.088388,32 37.088388,32 L 22.160133,31.978069 C 22.160133,31.978069 26.997745,27.140456 26.997745,27.140456 C 18.528582,18.264221 13.291696,25.230495 11.500037,31.436501 z"
             style="fill:#404040;"/>
          </a>
         </g>
        </svg>
</svg>
