<?xml version="1.0" encoding="UTF-8" standalone="no"?>
<!DOCTYPE svg PUBLIC "-//W3C//DTD SVG 1.1//EN"
 "http://www.w3.org/Graphics/SVG/1.1/DTD/svg11.dtd">
<!-- Generated by graphviz version 8.0.2 (20230410.1723)
 -->
<!-- Title: data_structures/linked_list/doubly_linked_list.c Pages: 1 -->
<svg width="131pt" height="93pt"
 viewBox="0.00 0.00 131.00 93.00" xmlns="http://www.w3.org/2000/svg" xmlns:xlink="http://www.w3.org/1999/xlink">
<g id="graph0" class="graph" transform="scale(1 1) rotate(0) translate(4 89)">
<title>data_structures/linked_list/doubly_linked_list.c</title>
<!-- Node1 -->
<g id="node1" class="node">
<title>Node1</title>
<g id="a_node1"><a xlink:title="Implementation of Doubly linked list">
<polygon fill="#999999" stroke="#666666" points="123,-85 0,-85 0,-55 123,-55 123,-85"/>
<text text-anchor="start" x="8" y="-73" font-family="Helvetica,sans-Serif" font-size="10.00">data_structures/linked</text>
<text text-anchor="middle" x="61.5" y="-62" font-family="Helvetica,sans-Serif" font-size="10.00">_list/doubly_linked_list.c</text>
</a>
</g>
</g>
<!-- Node2 -->
<g id="node2" class="node">
<title>Node2</title>
<g id="a_node2"><a xlink:title=" ">
<polygon fill="#e0e0e0" stroke="#999999" points="52.5,-19 6.5,-19 6.5,0 52.5,0 52.5,-19"/>
<text text-anchor="middle" x="29.5" y="-7" font-family="Helvetica,sans-Serif" font-size="10.00">stdio.h</text>
</a>
</g>
</g>
<!-- Node1&#45;&gt;Node2 -->
<g id="edge1" class="edge">
<title>Node1&#45;&gt;Node2</title>
<path fill="none" stroke="#63b8ff" d="M53.59,-54.54C49.32,-46.74 44.01,-37.03 39.46,-28.71"/>
<polygon fill="#63b8ff" stroke="#63b8ff" points="42.12,-27.27 34.25,-20.18 35.97,-30.63 42.12,-27.27"/>
</g>
<!-- Node3 -->
<g id="node3" class="node">
<title>Node3</title>
<g id="a_node3"><a xlink:title=" ">
<polygon fill="#e0e0e0" stroke="#999999" points="118.5,-19 70.5,-19 70.5,0 118.5,0 118.5,-19"/>
<text text-anchor="middle" x="94.5" y="-7" font-family="Helvetica,sans-Serif" font-size="10.00">stdlib.h</text>
</a>
</g>
</g>
<!-- Node1&#45;&gt;Node3 -->
<g id="edge2" class="edge">
<title>Node1&#45;&gt;Node3</title>
<path fill="none" stroke="#63b8ff" d="M69.66,-54.54C74.06,-46.74 79.54,-37.03 84.23,-28.71"/>
<polygon fill="#63b8ff" stroke="#63b8ff" points="87.74,-30.6 89.61,-20.18 81.64,-27.17 87.74,-30.6"/>
</g>
</g>
</svg>
