<?xml version="1.0" encoding="UTF-8" standalone="no"?>
<!DOCTYPE svg PUBLIC "-//W3C//DTD SVG 1.1//EN"
 "http://www.w3.org/Graphics/SVG/1.1/DTD/svg11.dtd">
<!-- Generated by graphviz version 9.0.0 (20230911.1827)
 -->
<!-- Title: data_structures/linked_list/doubly_linked_list.c Pages: 1 -->
<svg width="131pt" height="94pt"
 viewBox="0.00 0.00 130.50 93.75" xmlns="http://www.w3.org/2000/svg" xmlns:xlink="http://www.w3.org/1999/xlink">
<g id="graph0" class="graph" transform="scale(1 1) rotate(0) translate(4 89.75)">
<title>data_structures/linked_list/doubly_linked_list.c</title>
<!-- Node1 -->
<g id="Node000001" class="node">
<title>Node1</title>
<g id="a_Node000001"><a xlink:title="Implementation of Doubly linked list">
<polygon fill="#999999" stroke="#666666" points="122.5,-85.75 0,-85.75 0,-55.25 122.5,-55.25 122.5,-85.75"/>
<text text-anchor="start" x="8" y="-72.25" font-family="Helvetica,sans-Serif" font-size="10.00">data_structures/linked</text>
<text text-anchor="middle" x="61.25" y="-61" font-family="Helvetica,sans-Serif" font-size="10.00">_list/doubly_linked_list.c</text>
</a>
</g>
</g>
<!-- Node2 -->
<g id="Node000002" class="node">
<title>Node2</title>
<g id="a_Node000002"><a xlink:title=" ">
<polygon fill="#e0e0e0" stroke="#999999" points="51.88,-19.25 6.62,-19.25 6.62,0 51.88,0 51.88,-19.25"/>
<text text-anchor="middle" x="29.25" y="-5.75" font-family="Helvetica,sans-Serif" font-size="10.00">stdio.h</text>
</a>
</g>
</g>
<!-- Node1&#45;&gt;Node2 -->
<g id="edge1_Node000001_Node000002" class="edge">
<title>Node1&#45;&gt;Node2</title>
<g id="a_edge1_Node000001_Node000002"><a xlink:title=" ">
<path fill="none" stroke="#63b8ff" d="M53.34,-54.95C49.22,-47.36 44.12,-37.99 39.68,-29.82"/>
<polygon fill="#63b8ff" stroke="#63b8ff" points="42.76,-28.15 34.91,-21.03 36.61,-31.49 42.76,-28.15"/>
</a>
</g>
</g>
<!-- Node3 -->
<g id="Node000003" class="node">
<title>Node3</title>
<g id="a_Node000003"><a xlink:title=" ">
<polygon fill="#e0e0e0" stroke="#999999" points="117,-19.25 69.5,-19.25 69.5,0 117,0 117,-19.25"/>
<text text-anchor="middle" x="93.25" y="-5.75" font-family="Helvetica,sans-Serif" font-size="10.00">stdlib.h</text>
</a>
</g>
</g>
<!-- Node1&#45;&gt;Node3 -->
<g id="edge2_Node000001_Node000003" class="edge">
<title>Node1&#45;&gt;Node3</title>
<g id="a_edge2_Node000001_Node000003"><a xlink:title=" ">
<path fill="none" stroke="#63b8ff" d="M69.16,-54.95C73.28,-47.36 78.38,-37.99 82.82,-29.82"/>
<polygon fill="#63b8ff" stroke="#63b8ff" points="85.89,-31.49 87.59,-21.03 79.74,-28.15 85.89,-31.49"/>
</a>
</g>
</g>
</g>
</svg>
