<?xml version="1.0" encoding="UTF-8" standalone="no"?>
<!DOCTYPE svg PUBLIC "-//W3C//DTD SVG 1.1//EN"
 "http://www.w3.org/Graphics/SVG/1.1/DTD/svg11.dtd">
<!-- Generated by graphviz version 6.0.1 (20220911.1526)
 -->
<!-- Title: data_structures/linked_list/doubly_linked_list.c Pages: 1 -->
<svg width="131pt" height="93pt"
 viewBox="0.00 0.00 131.00 93.00" xmlns="http://www.w3.org/2000/svg" xmlns:xlink="http://www.w3.org/1999/xlink">
<g id="graph0" class="graph" transform="scale(1 1) rotate(0) translate(4 89)">
<title>data_structures/linked_list/doubly_linked_list.c</title>
<!-- Node1 -->
<g id="node1" class="node">
<title>Node1</title>
<g id="a_node1"><a xlink:title="Implementation of Doubly linked list">
<polygon fill="#999999" stroke="#666666" points="123,-85 0,-85 0,-55 123,-55 123,-85"/>
<text text-anchor="start" x="8" y="-73" font-family="Helvetica,sans-Serif" font-size="10.00">data_structures/linked</text>
<text text-anchor="middle" x="61.5" y="-62" font-family="Helvetica,sans-Serif" font-size="10.00">_list/doubly_linked_list.c</text>
</a>
</g>
</g>
<!-- Node2 -->
<g id="node2" class="node">
<title>Node2</title>
<g id="a_node2"><a xlink:title=" ">
<polygon fill="#e0e0e0" stroke="#999999" points="52.5,-19 6.5,-19 6.5,0 52.5,0 52.5,-19"/>
<text text-anchor="middle" x="29.5" y="-7" font-family="Helvetica,sans-Serif" font-size="10.00">stdio.h</text>
</a>
</g>
</g>
<!-- Node1&#45;&gt;Node2 -->
<g id="edge1" class="edge">
<title>Node1&#45;&gt;Node2</title>
<path fill="none" stroke="#63b8ff" d="M53.75,-54.84C49.35,-46.78 43.79,-36.62 39.1,-28.06"/>
<polygon fill="#63b8ff" stroke="#63b8ff" points="42.16,-26.36 34.3,-19.27 36.02,-29.72 42.16,-26.36"/>
</g>
<!-- Node3 -->
<g id="node3" class="node">
<title>Node3</title>
<g id="a_node3"><a xlink:title=" ">
<polygon fill="#e0e0e0" stroke="#999999" points="118.5,-19 70.5,-19 70.5,0 118.5,0 118.5,-19"/>
<text text-anchor="middle" x="94.5" y="-7" font-family="Helvetica,sans-Serif" font-size="10.00">stdlib.h</text>
</a>
</g>
</g>
<!-- Node1&#45;&gt;Node3 -->
<g id="edge2" class="edge">
<title>Node1&#45;&gt;Node3</title>
<path fill="none" stroke="#63b8ff" d="M69.49,-54.84C74.03,-46.78 79.77,-36.62 84.6,-28.06"/>
<polygon fill="#63b8ff" stroke="#63b8ff" points="87.69,-29.7 89.56,-19.27 81.59,-26.26 87.69,-29.7"/>
</g>
</g>
</svg>
