<?xml version="1.0" encoding="UTF-8" standalone="no"?>
<!DOCTYPE svg PUBLIC "-//W3C//DTD SVG 1.1//EN"
 "http://www.w3.org/Graphics/SVG/1.1/DTD/svg11.dtd">
<!-- Generated by graphviz version 8.0.4 (20230421.1958)
 -->
<!-- Title: hash/hash_adler32.c Pages: 1 -->
<svg width="199pt" height="83pt"
 viewBox="0.00 0.00 199.25 82.50" xmlns="http://www.w3.org/2000/svg" xmlns:xlink="http://www.w3.org/1999/xlink">
<g id="graph0" class="graph" transform="scale(1 1) rotate(0) translate(4 78.5)">
<title>hash/hash_adler32.c</title>
<!-- Node1 -->
<g id="node1" class="node">
<title>Node1</title>
<g id="a_node1"><a xlink:title="32&#45;bit Adler hash algorithm">
<polygon fill="#999999" stroke="#666666" points="151.62,-74.5 45.62,-74.5 45.62,-55.25 151.62,-55.25 151.62,-74.5"/>
<text text-anchor="middle" x="98.62" y="-61" font-family="Helvetica,sans-Serif" font-size="10.00">hash/hash_adler32.c</text>
</a>
</g>
</g>
<!-- Node2 -->
<g id="node2" class="node">
<title>Node2</title>
<g id="a_node2"><a xlink:title=" ">
<polygon fill="#e0e0e0" stroke="#999999" points="51.25,-19.25 0,-19.25 0,0 51.25,0 51.25,-19.25"/>
<text text-anchor="middle" x="25.62" y="-5.75" font-family="Helvetica,sans-Serif" font-size="10.00">assert.h</text>
</a>
</g>
</g>
<!-- Node1&#45;&gt;Node2 -->
<g id="edge1" class="edge">
<title>Node1&#45;&gt;Node2</title>
<path fill="none" stroke="#63b8ff" d="M86.24,-54.84C75.37,-46.91 59.34,-35.22 46.5,-25.85"/>
<polygon fill="#63b8ff" stroke="#63b8ff" points="48.97,-22.59 38.83,-19.52 44.84,-28.25 48.97,-22.59"/>
</g>
<!-- Node3 -->
<g id="node3" class="node">
<title>Node3</title>
<g id="a_node3"><a xlink:title=" ">
<polygon fill="#e0e0e0" stroke="#999999" points="128,-19.25 69.25,-19.25 69.25,0 128,0 128,-19.25"/>
<text text-anchor="middle" x="98.62" y="-5.75" font-family="Helvetica,sans-Serif" font-size="10.00">inttypes.h</text>
</a>
</g>
</g>
<!-- Node1&#45;&gt;Node3 -->
<g id="edge2" class="edge">
<title>Node1&#45;&gt;Node3</title>
<path fill="none" stroke="#63b8ff" d="M98.62,-55.08C98.62,-48.42 98.62,-38.99 98.62,-30.53"/>
<polygon fill="#63b8ff" stroke="#63b8ff" points="102.13,-30.61 98.62,-20.61 95.13,-30.61 102.13,-30.61"/>
</g>
<!-- Node4 -->
<g id="node4" class="node">
<title>Node4</title>
<g id="a_node4"><a xlink:title=" ">
<polygon fill="#e0e0e0" stroke="#999999" points="191.25,-19.25 146,-19.25 146,0 191.25,0 191.25,-19.25"/>
<text text-anchor="middle" x="168.62" y="-5.75" font-family="Helvetica,sans-Serif" font-size="10.00">stdio.h</text>
</a>
</g>
</g>
<!-- Node1&#45;&gt;Node4 -->
<g id="edge3" class="edge">
<title>Node1&#45;&gt;Node4</title>
<path fill="none" stroke="#63b8ff" d="M110.5,-54.84C120.82,-46.99 135.99,-35.45 148.25,-26.12"/>
<polygon fill="#63b8ff" stroke="#63b8ff" points="150.09,-28.36 155.93,-19.52 145.85,-22.79 150.09,-28.36"/>
</g>
</g>
</svg>
