<?xml version="1.0" encoding="UTF-8" standalone="no"?>
<!DOCTYPE svg PUBLIC "-//W3C//DTD SVG 1.1//EN"
 "http://www.w3.org/Graphics/SVG/1.1/DTD/svg11.dtd">
<!-- Generated by graphviz version 8.0.5 (20230430.1635)
 -->
<!-- Title: midpoint_euler Pages: 1 -->
<svg width="313pt" height="27pt"
 viewBox="0.00 0.00 312.50 27.25" xmlns="http://www.w3.org/2000/svg" xmlns:xlink="http://www.w3.org/1999/xlink">
<g id="graph0" class="graph" transform="scale(1 1) rotate(0) translate(4 23.25)">
<title>midpoint_euler</title>
<!-- Node1 -->
<g id="Node000001" class="node">
<title>Node1</title>
<g id="a_Node000001"><a xlink:title="Compute approximation using the midpoint&#45;Euler method in the given limits.">
<polygon fill="#999999" stroke="#666666" points="79,-19.25 0,-19.25 0,0 79,0 79,-19.25"/>
<text text-anchor="middle" x="39.5" y="-5.75" font-family="Helvetica,sans-Serif" font-size="10.00">midpoint_euler</text>
</a>
</g>
</g>
<!-- Node2 -->
<g id="Node000002" class="node">
<title>Node2</title>
<g id="a_Node000002"><a xlink:href="../../d1/dc2/ode__midpoint__euler_8c.html#affe6cc2ab040b94a29e6c41782f72d51" target="_top" xlink:title="Compute next step approximation using the midpoint&#45;Euler method.">
<polygon fill="white" stroke="#666666" points="218,-19.25 115,-19.25 115,0 218,0 218,-19.25"/>
<text text-anchor="middle" x="166.5" y="-5.75" font-family="Helvetica,sans-Serif" font-size="10.00">midpoint_euler_step</text>
</a>
</g>
</g>
<!-- Node1&#45;&gt;Node2 -->
<g id="edge1_Node000001_Node000002" class="edge">
<title>Node1&#45;&gt;Node2</title>
<g id="a_edge1_Node000001_Node000002"><a xlink:title=" ">
<path fill="none" stroke="#63b8ff" d="M79.37,-9.62C87.14,-9.62 95.49,-9.62 103.81,-9.62"/>
<polygon fill="#63b8ff" stroke="#63b8ff" points="103.7,-13.13 113.7,-9.62 103.7,-6.13 103.7,-13.13"/>
</a>
</g>
</g>
<!-- Node3 -->
<g id="Node000003" class="node">
<title>Node3</title>
<g id="a_Node000003"><a xlink:href="../../d1/dc2/ode__midpoint__euler_8c.html#a97075291390a68c262ed66e157a57eb4" target="_top" xlink:title="Problem statement for a system with first&#45;order differential equations.">
<polygon fill="white" stroke="#666666" points="304.5,-19.25 254,-19.25 254,0 304.5,0 304.5,-19.25"/>
<text text-anchor="middle" x="279.25" y="-5.75" font-family="Helvetica,sans-Serif" font-size="10.00">problem</text>
</a>
</g>
</g>
<!-- Node2&#45;&gt;Node3 -->
<g id="edge2_Node000002_Node000003" class="edge">
<title>Node2&#45;&gt;Node3</title>
<g id="a_edge2_Node000002_Node000003"><a xlink:title=" ">
<path fill="none" stroke="#63b8ff" d="M218.34,-9.62C226.59,-9.62 234.98,-9.62 242.76,-9.62"/>
<polygon fill="#63b8ff" stroke="#63b8ff" points="242.65,-13.13 252.65,-9.62 242.65,-6.13 242.65,-13.13"/>
</a>
</g>
</g>
</g>
</svg>
