<?xml version="1.0" encoding="UTF-8" standalone="no"?>
<!DOCTYPE svg PUBLIC "-//W3C//DTD SVG 1.1//EN"
 "http://www.w3.org/Graphics/SVG/1.1/DTD/svg11.dtd">
<!-- Generated by graphviz version 8.0.5 (20230430.1635)
 -->
<!-- Title: main Pages: 1 -->
<svg width="386pt" height="64pt"
 viewBox="0.00 0.00 385.50 64.25" xmlns="http://www.w3.org/2000/svg" xmlns:xlink="http://www.w3.org/1999/xlink">
<g id="graph0" class="graph" transform="scale(1 1) rotate(0) translate(4 60.25)">
<title>main</title>
<!-- Node1 -->
<g id="Node000001" class="node">
<title>Node1</title>
<g id="a_Node000001"><a xlink:title="Main Function.">
<polygon fill="#999999" stroke="#666666" points="37,-37.25 0,-37.25 0,-18 37,-18 37,-37.25"/>
<text text-anchor="middle" x="18.5" y="-23.75" font-family="Helvetica,sans-Serif" font-size="10.00">main</text>
</a>
</g>
</g>
<!-- Node2 -->
<g id="Node000002" class="node">
<title>Node2</title>
<g id="a_Node000002"><a xlink:href="../../d1/dc2/ode__midpoint__euler_8c.html#a8caee977b26888d34040b122e0e28e3a" target="_top" xlink:title="Exact solution of the problem.">
<polygon fill="white" stroke="#666666" points="152,-56.25 73,-56.25 73,-37 152,-37 152,-56.25"/>
<text text-anchor="middle" x="112.5" y="-42.75" font-family="Helvetica,sans-Serif" font-size="10.00">exact_solution</text>
</a>
</g>
</g>
<!-- Node1&#45;&gt;Node2 -->
<g id="edge1_Node000001_Node000002" class="edge">
<title>Node1&#45;&gt;Node2</title>
<g id="a_edge1_Node000001_Node000002"><a xlink:title=" ">
<path fill="none" stroke="#63b8ff" d="M37.24,-31.29C44.52,-32.79 53.34,-34.61 62.33,-36.47"/>
<polygon fill="#63b8ff" stroke="#63b8ff" points="61.37,-40.05 71.87,-38.65 62.78,-33.2 61.37,-40.05"/>
</a>
</g>
</g>
<!-- Node3 -->
<g id="Node000003" class="node">
<title>Node3</title>
<g id="a_Node000003"><a xlink:href="../../d1/dc2/ode__midpoint__euler_8c.html#a148003d8b261d040c1c41e73b40af1dd" target="_top" xlink:title="Compute approximation using the midpoint&#45;Euler method in the given limits.">
<polygon fill="white" stroke="#666666" points="152,-19.25 73,-19.25 73,0 152,0 152,-19.25"/>
<text text-anchor="middle" x="112.5" y="-5.75" font-family="Helvetica,sans-Serif" font-size="10.00">midpoint_euler</text>
</a>
</g>
</g>
<!-- Node1&#45;&gt;Node3 -->
<g id="edge2_Node000001_Node000003" class="edge">
<title>Node1&#45;&gt;Node3</title>
<g id="a_edge2_Node000001_Node000003"><a xlink:title=" ">
<path fill="none" stroke="#63b8ff" d="M37.24,-24.15C44.52,-22.73 53.34,-21 62.33,-19.25"/>
<polygon fill="#63b8ff" stroke="#63b8ff" points="62.73,-22.54 71.87,-17.18 61.38,-15.67 62.73,-22.54"/>
</a>
</g>
</g>
<!-- Node4 -->
<g id="Node000004" class="node">
<title>Node4</title>
<g id="a_Node000004"><a xlink:href="../../d1/dc2/ode__midpoint__euler_8c.html#affe6cc2ab040b94a29e6c41782f72d51" target="_top" xlink:title="Compute next step approximation using the midpoint&#45;Euler method.">
<polygon fill="white" stroke="#666666" points="291,-19.25 188,-19.25 188,0 291,0 291,-19.25"/>
<text text-anchor="middle" x="239.5" y="-5.75" font-family="Helvetica,sans-Serif" font-size="10.00">midpoint_euler_step</text>
</a>
</g>
</g>
<!-- Node3&#45;&gt;Node4 -->
<g id="edge3_Node000003_Node000004" class="edge">
<title>Node3&#45;&gt;Node4</title>
<g id="a_edge3_Node000003_Node000004"><a xlink:title=" ">
<path fill="none" stroke="#63b8ff" d="M152.37,-9.62C160.14,-9.62 168.49,-9.62 176.81,-9.62"/>
<polygon fill="#63b8ff" stroke="#63b8ff" points="176.7,-13.13 186.7,-9.62 176.7,-6.13 176.7,-13.13"/>
</a>
</g>
</g>
<!-- Node5 -->
<g id="Node000005" class="node">
<title>Node5</title>
<g id="a_Node000005"><a xlink:href="../../d1/dc2/ode__midpoint__euler_8c.html#a97075291390a68c262ed66e157a57eb4" target="_top" xlink:title="Problem statement for a system with first&#45;order differential equations.">
<polygon fill="white" stroke="#666666" points="377.5,-19.25 327,-19.25 327,0 377.5,0 377.5,-19.25"/>
<text text-anchor="middle" x="352.25" y="-5.75" font-family="Helvetica,sans-Serif" font-size="10.00">problem</text>
</a>
</g>
</g>
<!-- Node4&#45;&gt;Node5 -->
<g id="edge4_Node000004_Node000005" class="edge">
<title>Node4&#45;&gt;Node5</title>
<g id="a_edge4_Node000004_Node000005"><a xlink:title=" ">
<path fill="none" stroke="#63b8ff" d="M291.34,-9.62C299.59,-9.62 307.98,-9.62 315.76,-9.62"/>
<polygon fill="#63b8ff" stroke="#63b8ff" points="315.65,-13.13 325.65,-9.62 315.65,-6.13 315.65,-13.13"/>
</a>
</g>
</g>
</g>
</svg>
