<?xml version="1.0" encoding="UTF-8" standalone="no"?>
<!DOCTYPE svg PUBLIC "-//W3C//DTD SVG 1.1//EN"
 "http://www.w3.org/Graphics/SVG/1.1/DTD/svg11.dtd">
<!-- Generated by graphviz version 5.0.1 (20220820.1526)
 -->
<!-- Title: main Pages: 1 -->
<svg width="389pt" height="64pt"
 viewBox="0.00 0.00 389.00 64.00" xmlns="http://www.w3.org/2000/svg" xmlns:xlink="http://www.w3.org/1999/xlink">
<g id="graph0" class="graph" transform="scale(1 1) rotate(0) translate(4 60)">
<title>main</title>
<!-- Node1 -->
<g id="node1" class="node">
<title>Node1</title>
<g id="a_node1"><a xlink:title="Main Function.">
<polygon fill="#999999" stroke="#666666" points="38,-37 0,-37 0,-18 38,-18 38,-37"/>
<text text-anchor="middle" x="19" y="-25" font-family="Helvetica,sans-Serif" font-size="10.00">main</text>
</a>
</g>
</g>
<!-- Node2 -->
<g id="node2" class="node">
<title>Node2</title>
<g id="a_node2"><a xlink:href="../../d1/dc2/ode__midpoint__euler_8c.html#a8caee977b26888d34040b122e0e28e3a" target="_top" xlink:title="Exact solution of the problem.">
<polygon fill="white" stroke="#666666" points="154,-56 74,-56 74,-37 154,-37 154,-56"/>
<text text-anchor="middle" x="114" y="-44" font-family="Helvetica,sans-Serif" font-size="10.00">exact_solution</text>
</a>
</g>
</g>
<!-- Node1&#45;&gt;Node2 -->
<g id="edge1" class="edge">
<title>Node1&#45;&gt;Node2</title>
<path fill="none" stroke="#63b8ff" d="M38.37,-31.25C45.84,-32.78 54.85,-34.62 63.99,-36.49"/>
<polygon fill="#63b8ff" stroke="#63b8ff" points="63.4,-39.94 73.9,-38.51 64.8,-33.08 63.4,-39.94"/>
</g>
<!-- Node3 -->
<g id="node3" class="node">
<title>Node3</title>
<g id="a_node3"><a xlink:href="../../d1/dc2/ode__midpoint__euler_8c.html#a148003d8b261d040c1c41e73b40af1dd" target="_top" xlink:title="Compute approximation using the midpoint&#45;Euler method in the given limits.">
<polygon fill="white" stroke="#666666" points="154,-19 74,-19 74,0 154,0 154,-19"/>
<text text-anchor="middle" x="114" y="-7" font-family="Helvetica,sans-Serif" font-size="10.00">midpoint_euler</text>
</a>
</g>
</g>
<!-- Node1&#45;&gt;Node3 -->
<g id="edge2" class="edge">
<title>Node1&#45;&gt;Node3</title>
<path fill="none" stroke="#63b8ff" d="M38.37,-23.94C45.84,-22.5 54.85,-20.75 63.99,-18.99"/>
<polygon fill="#63b8ff" stroke="#63b8ff" points="64.74,-22.4 73.9,-17.07 63.41,-15.53 64.74,-22.4"/>
</g>
<!-- Node4 -->
<g id="node4" class="node">
<title>Node4</title>
<g id="a_node4"><a xlink:href="../../d1/dc2/ode__midpoint__euler_8c.html#affe6cc2ab040b94a29e6c41782f72d51" target="_top" xlink:title="Compute next step approximation using the midpoint&#45;Euler method.">
<polygon fill="white" stroke="#666666" points="294,-19 190,-19 190,0 294,0 294,-19"/>
<text text-anchor="middle" x="242" y="-7" font-family="Helvetica,sans-Serif" font-size="10.00">midpoint_euler_step</text>
</a>
</g>
</g>
<!-- Node3&#45;&gt;Node4 -->
<g id="edge3" class="edge">
<title>Node3&#45;&gt;Node4</title>
<path fill="none" stroke="#63b8ff" d="M154.18,-9.5C162.28,-9.5 170.99,-9.5 179.67,-9.5"/>
<polygon fill="#63b8ff" stroke="#63b8ff" points="179.79,-13 189.79,-9.5 179.79,-6 179.79,-13"/>
</g>
<!-- Node5 -->
<g id="node5" class="node">
<title>Node5</title>
<g id="a_node5"><a xlink:href="../../d1/dc2/ode__midpoint__euler_8c.html#a97075291390a68c262ed66e157a57eb4" target="_top" xlink:title="Problem statement for a system with first&#45;order differential equations.">
<polygon fill="white" stroke="#666666" points="381,-19 330,-19 330,0 381,0 381,-19"/>
<text text-anchor="middle" x="355.5" y="-7" font-family="Helvetica,sans-Serif" font-size="10.00">problem</text>
</a>
</g>
</g>
<!-- Node4&#45;&gt;Node5 -->
<g id="edge4" class="edge">
<title>Node4&#45;&gt;Node5</title>
<path fill="none" stroke="#63b8ff" d="M294.18,-9.5C302.78,-9.5 311.52,-9.5 319.59,-9.5"/>
<polygon fill="#63b8ff" stroke="#63b8ff" points="319.73,-13 329.73,-9.5 319.73,-6 319.73,-13"/>
</g>
</g>
</svg>
