<?xml version="1.0" encoding="UTF-8" standalone="no"?>
<!DOCTYPE svg PUBLIC "-//W3C//DTD SVG 1.1//EN"
 "http://www.w3.org/Graphics/SVG/1.1/DTD/svg11.dtd">
<!-- Generated by graphviz version 7.0.6 (20230106.0513)
 -->
<!-- Title: project_euler/problem_25/sol1.c Pages: 1 -->
<svg width="318pt" height="93pt"
 viewBox="0.00 0.00 317.50 93.00" xmlns="http://www.w3.org/2000/svg" xmlns:xlink="http://www.w3.org/1999/xlink">
<g id="graph0" class="graph" transform="scale(1 1) rotate(0) translate(4 89)">
<title>project_euler/problem_25/sol1.c</title>
<!-- Node1 -->
<g id="node1" class="node">
<title>Node1</title>
<g id="a_node1"><a xlink:title="Problem 25 solution implemented using arbitrarily large numbers represented as arrays">
<polygon fill="#999999" stroke="#666666" points="210.5,-85 100.5,-85 100.5,-55 210.5,-55 210.5,-85"/>
<text text-anchor="start" x="108.5" y="-73" font-family="Helvetica,sans-Serif" font-size="10.00">project_euler/problem</text>
<text text-anchor="middle" x="155.5" y="-62" font-family="Helvetica,sans-Serif" font-size="10.00">_25/sol1.c</text>
</a>
</g>
</g>
<!-- Node2 -->
<g id="node2" class="node">
<title>Node2</title>
<g id="a_node2"><a xlink:title=" ">
<polygon fill="#e0e0e0" stroke="#999999" points="49,-19 0,-19 0,0 49,0 49,-19"/>
<text text-anchor="middle" x="24.5" y="-7" font-family="Helvetica,sans-Serif" font-size="10.00">stdint.h</text>
</a>
</g>
</g>
<!-- Node1&#45;&gt;Node2 -->
<g id="edge1" class="edge">
<title>Node1&#45;&gt;Node2</title>
<path fill="none" stroke="#63b8ff" d="M123.12,-54.54C102.18,-45.19 75.12,-33.1 54.64,-23.96"/>
<polygon fill="#63b8ff" stroke="#63b8ff" points="56.25,-20.85 45.69,-19.96 53.4,-27.24 56.25,-20.85"/>
</g>
<!-- Node3 -->
<g id="node3" class="node">
<title>Node3</title>
<g id="a_node3"><a xlink:title=" ">
<polygon fill="#e0e0e0" stroke="#999999" points="113.5,-19 67.5,-19 67.5,0 113.5,0 113.5,-19"/>
<text text-anchor="middle" x="90.5" y="-7" font-family="Helvetica,sans-Serif" font-size="10.00">stdio.h</text>
</a>
</g>
</g>
<!-- Node1&#45;&gt;Node3 -->
<g id="edge2" class="edge">
<title>Node1&#45;&gt;Node3</title>
<path fill="none" stroke="#63b8ff" d="M139.43,-54.54C130.09,-46.13 118.28,-35.51 108.61,-26.8"/>
<polygon fill="#63b8ff" stroke="#63b8ff" points="111.04,-24.28 101.26,-20.19 106.36,-29.48 111.04,-24.28"/>
</g>
<!-- Node4 -->
<g id="node4" class="node">
<title>Node4</title>
<g id="a_node4"><a xlink:title=" ">
<polygon fill="#e0e0e0" stroke="#999999" points="179.5,-19 131.5,-19 131.5,0 179.5,0 179.5,-19"/>
<text text-anchor="middle" x="155.5" y="-7" font-family="Helvetica,sans-Serif" font-size="10.00">stdlib.h</text>
</a>
</g>
</g>
<!-- Node1&#45;&gt;Node4 -->
<g id="edge3" class="edge">
<title>Node1&#45;&gt;Node4</title>
<path fill="none" stroke="#63b8ff" d="M155.5,-54.54C155.5,-47.34 155.5,-38.53 155.5,-30.68"/>
<polygon fill="#63b8ff" stroke="#63b8ff" points="159,-30.69 155.5,-20.69 152,-30.69 159,-30.69"/>
</g>
<!-- Node5 -->
<g id="node5" class="node">
<title>Node5</title>
<g id="a_node5"><a xlink:title=" ">
<polygon fill="#e0e0e0" stroke="#999999" points="247,-19 198,-19 198,0 247,0 247,-19"/>
<text text-anchor="middle" x="222.5" y="-7" font-family="Helvetica,sans-Serif" font-size="10.00">string.h</text>
</a>
</g>
</g>
<!-- Node1&#45;&gt;Node5 -->
<g id="edge4" class="edge">
<title>Node1&#45;&gt;Node5</title>
<path fill="none" stroke="#63b8ff" d="M172.06,-54.54C181.79,-46.04 194.11,-35.29 204.14,-26.53"/>
<polygon fill="#63b8ff" stroke="#63b8ff" points="206.19,-29.38 211.42,-20.17 201.59,-24.11 206.19,-29.38"/>
</g>
<!-- Node6 -->
<g id="node6" class="node">
<title>Node6</title>
<g id="a_node6"><a xlink:title=" ">
<polygon fill="#e0e0e0" stroke="#999999" points="309.5,-19 265.5,-19 265.5,0 309.5,0 309.5,-19"/>
<text text-anchor="middle" x="287.5" y="-7" font-family="Helvetica,sans-Serif" font-size="10.00">time.h</text>
</a>
</g>
</g>
<!-- Node1&#45;&gt;Node6 -->
<g id="edge5" class="edge">
<title>Node1&#45;&gt;Node6</title>
<path fill="none" stroke="#63b8ff" d="M188.13,-54.54C209.23,-45.19 236.5,-33.1 257.13,-23.96"/>
<polygon fill="#63b8ff" stroke="#63b8ff" points="258.43,-27.21 266.16,-19.96 255.6,-20.81 258.43,-27.21"/>
</g>
</g>
</svg>
