<?xml version="1.0" encoding="UTF-8" standalone="no"?>
<!DOCTYPE svg PUBLIC "-//W3C//DTD SVG 1.1//EN"
 "http://www.w3.org/Graphics/SVG/1.1/DTD/svg11.dtd">
<!-- Generated by graphviz version 8.0.2 (20230410.1723)
 -->
<!-- Title: numerical_methods/qr_decompose.h Pages: 1 -->
<svg width="186pt" height="93pt"
 viewBox="0.00 0.00 185.50 93.00" xmlns="http://www.w3.org/2000/svg" xmlns:xlink="http://www.w3.org/1999/xlink">
<g id="graph0" class="graph" transform="scale(1 1) rotate(0) translate(4 89)">
<title>numerical_methods/qr_decompose.h</title>
<!-- Node1 -->
<g id="node1" class="node">
<title>Node1</title>
<g id="a_node1"><a xlink:title="Library functions to compute QR decomposition of a given matrix.">
<polygon fill="#999999" stroke="#666666" points="145,-85 32,-85 32,-55 145,-55 145,-85"/>
<text text-anchor="start" x="40" y="-73" font-family="Helvetica,sans-Serif" font-size="10.00">numerical_methods/qr</text>
<text text-anchor="middle" x="88.5" y="-62" font-family="Helvetica,sans-Serif" font-size="10.00">_decompose.h</text>
</a>
</g>
</g>
<!-- Node2 -->
<g id="node2" class="node">
<title>Node2</title>
<g id="a_node2"><a xlink:title=" ">
<polygon fill="#e0e0e0" stroke="#999999" points="47,-19 0,-19 0,0 47,0 47,-19"/>
<text text-anchor="middle" x="23.5" y="-7" font-family="Helvetica,sans-Serif" font-size="10.00">math.h</text>
</a>
</g>
</g>
<!-- Node1&#45;&gt;Node2 -->
<g id="edge1" class="edge">
<title>Node1&#45;&gt;Node2</title>
<path fill="none" stroke="#63b8ff" d="M72.43,-54.54C62.99,-46.04 51.04,-35.29 41.31,-26.53"/>
<polygon fill="#63b8ff" stroke="#63b8ff" points="43.91,-24.26 34.14,-20.18 39.23,-29.47 43.91,-24.26"/>
</g>
<!-- Node3 -->
<g id="node3" class="node">
<title>Node3</title>
<g id="a_node3"><a xlink:title=" ">
<polygon fill="#e0e0e0" stroke="#999999" points="111.5,-19 65.5,-19 65.5,0 111.5,0 111.5,-19"/>
<text text-anchor="middle" x="88.5" y="-7" font-family="Helvetica,sans-Serif" font-size="10.00">stdio.h</text>
</a>
</g>
</g>
<!-- Node1&#45;&gt;Node3 -->
<g id="edge2" class="edge">
<title>Node1&#45;&gt;Node3</title>
<path fill="none" stroke="#63b8ff" d="M88.5,-54.54C88.5,-47.17 88.5,-38.1 88.5,-30.11"/>
<polygon fill="#63b8ff" stroke="#63b8ff" points="92,-30.18 88.5,-20.18 85,-30.18 92,-30.18"/>
</g>
<!-- Node4 -->
<g id="node4" class="node">
<title>Node4</title>
<g id="a_node4"><a xlink:title=" ">
<polygon fill="#e0e0e0" stroke="#999999" points="177.5,-19 129.5,-19 129.5,0 177.5,0 177.5,-19"/>
<text text-anchor="middle" x="153.5" y="-7" font-family="Helvetica,sans-Serif" font-size="10.00">stdlib.h</text>
</a>
</g>
</g>
<!-- Node1&#45;&gt;Node4 -->
<g id="edge3" class="edge">
<title>Node1&#45;&gt;Node4</title>
<path fill="none" stroke="#63b8ff" d="M104.57,-54.54C114.01,-46.04 125.96,-35.29 135.69,-26.53"/>
<polygon fill="#63b8ff" stroke="#63b8ff" points="137.77,-29.47 142.86,-20.18 133.09,-24.26 137.77,-29.47"/>
</g>
</g>
</svg>
