<?xml version="1.0" encoding="UTF-8" standalone="no"?>
<!DOCTYPE svg PUBLIC "-//W3C//DTD SVG 1.1//EN"
 "http://www.w3.org/Graphics/SVG/1.1/DTD/svg11.dtd">
<!-- Generated by graphviz version 5.0.1 (20220820.1526)
 -->
<!-- Title: numerical_methods/qr_decompose.h Pages: 1 -->
<svg width="248pt" height="93pt"
 viewBox="0.00 0.00 247.50 93.00" xmlns="http://www.w3.org/2000/svg" xmlns:xlink="http://www.w3.org/1999/xlink">
<g id="graph0" class="graph" transform="scale(1 1) rotate(0) translate(4 89)">
<title>numerical_methods/qr_decompose.h</title>
<!-- Node1 -->
<g id="node1" class="node">
<title>Node1</title>
<g id="a_node1"><a xlink:title="Library functions to compute QR decomposition of a given matrix.">
<polygon fill="#999999" stroke="#666666" points="177,-85 64,-85 64,-55 177,-55 177,-85"/>
<text text-anchor="start" x="72" y="-73" font-family="Helvetica,sans-Serif" font-size="10.00">numerical_methods/qr</text>
<text text-anchor="middle" x="120.5" y="-62" font-family="Helvetica,sans-Serif" font-size="10.00">_decompose.h</text>
</a>
</g>
</g>
<!-- Node2 -->
<g id="node2" class="node">
<title>Node2</title>
<g id="a_node2"><a xlink:title=" ">
<polygon fill="#e0e0e0" stroke="#999999" points="47,-19 0,-19 0,0 47,0 47,-19"/>
<text text-anchor="middle" x="23.5" y="-7" font-family="Helvetica,sans-Serif" font-size="10.00">math.h</text>
</a>
</g>
</g>
<!-- Node1&#45;&gt;Node2 -->
<g id="edge1" class="edge">
<title>Node1&#45;&gt;Node2</title>
<path fill="none" stroke="#63b8ff" d="M97.02,-54.84C81.7,-45.6 61.79,-33.59 46.55,-24.4"/>
<polygon fill="#63b8ff" stroke="#63b8ff" points="48.12,-21.26 37.75,-19.09 44.51,-27.26 48.12,-21.26"/>
</g>
<!-- Node3 -->
<g id="node3" class="node">
<title>Node3</title>
<g id="a_node3"><a xlink:title=" ">
<polygon fill="#e0e0e0" stroke="#999999" points="111.5,-19 65.5,-19 65.5,0 111.5,0 111.5,-19"/>
<text text-anchor="middle" x="88.5" y="-7" font-family="Helvetica,sans-Serif" font-size="10.00">stdio.h</text>
</a>
</g>
</g>
<!-- Node1&#45;&gt;Node3 -->
<g id="edge2" class="edge">
<title>Node1&#45;&gt;Node3</title>
<path fill="none" stroke="#63b8ff" d="M112.75,-54.84C108.35,-46.78 102.79,-36.62 98.1,-28.06"/>
<polygon fill="#63b8ff" stroke="#63b8ff" points="101.16,-26.36 93.3,-19.27 95.02,-29.72 101.16,-26.36"/>
</g>
<!-- Node4 -->
<g id="node4" class="node">
<title>Node4</title>
<g id="a_node4"><a xlink:title=" ">
<polygon fill="#e0e0e0" stroke="#999999" points="177.5,-19 129.5,-19 129.5,0 177.5,0 177.5,-19"/>
<text text-anchor="middle" x="153.5" y="-7" font-family="Helvetica,sans-Serif" font-size="10.00">stdlib.h</text>
</a>
</g>
</g>
<!-- Node1&#45;&gt;Node4 -->
<g id="edge3" class="edge">
<title>Node1&#45;&gt;Node4</title>
<path fill="none" stroke="#63b8ff" d="M128.49,-54.84C133.03,-46.78 138.77,-36.62 143.6,-28.06"/>
<polygon fill="#63b8ff" stroke="#63b8ff" points="146.69,-29.7 148.56,-19.27 140.59,-26.26 146.69,-29.7"/>
</g>
<!-- Node5 -->
<g id="node5" class="node">
<title>Node5</title>
<g id="a_node5"><a xlink:title=" ">
<polygon fill="#e0e0e0" stroke="#999999" points="239.5,-19 195.5,-19 195.5,0 239.5,0 239.5,-19"/>
<text text-anchor="middle" x="217.5" y="-7" font-family="Helvetica,sans-Serif" font-size="10.00">omp.h</text>
</a>
</g>
</g>
<!-- Node1&#45;&gt;Node5 -->
<g id="edge4" class="edge">
<title>Node1&#45;&gt;Node5</title>
<path fill="none" stroke="#63b8ff" d="M143.98,-54.84C159.3,-45.6 179.21,-33.59 194.45,-24.4"/>
<polygon fill="#63b8ff" stroke="#63b8ff" points="196.49,-27.26 203.25,-19.09 192.88,-21.26 196.49,-27.26"/>
</g>
</g>
</svg>
