<?xml version="1.0" encoding="UTF-8" standalone="no"?>
<!DOCTYPE svg PUBLIC "-//W3C//DTD SVG 1.1//EN"
 "http://www.w3.org/Graphics/SVG/1.1/DTD/svg11.dtd">
<!-- Generated by graphviz version 8.0.2 (20230410.1723)
 -->
<!-- Title: client_server/tcp_full_duplex_server.c Pages: 1 -->
<svg width="733pt" height="93pt"
 viewBox="0.00 0.00 732.50 93.00" xmlns="http://www.w3.org/2000/svg" xmlns:xlink="http://www.w3.org/1999/xlink">
<g id="graph0" class="graph" transform="scale(1 1) rotate(0) translate(4 89)">
<title>client_server/tcp_full_duplex_server.c</title>
<!-- Node1 -->
<g id="node1" class="node">
<title>Node1</title>
<g id="a_node1"><a xlink:title="Server&#45;side implementation of TCP Full Duplex Communication">
<polygon fill="#999999" stroke="#666666" points="406.5,-85 299.5,-85 299.5,-55 406.5,-55 406.5,-85"/>
<text text-anchor="start" x="307.5" y="-73" font-family="Helvetica,sans-Serif" font-size="10.00">client_server/tcp_full</text>
<text text-anchor="middle" x="353" y="-62" font-family="Helvetica,sans-Serif" font-size="10.00">_duplex_server.c</text>
</a>
</g>
</g>
<!-- Node2 -->
<g id="node2" class="node">
<title>Node2</title>
<g id="a_node2"><a xlink:title=" ">
<polygon fill="#e0e0e0" stroke="#999999" points="62,-19 0,-19 0,0 62,0 62,-19"/>
<text text-anchor="middle" x="31" y="-7" font-family="Helvetica,sans-Serif" font-size="10.00">arpa/inet.h</text>
</a>
</g>
</g>
<!-- Node1&#45;&gt;Node2 -->
<g id="edge1" class="edge">
<title>Node1&#45;&gt;Node2</title>
<path fill="none" stroke="#63b8ff" d="M299.1,-60C244.55,-50.77 157.5,-35.7 72.98,-19.34"/>
<polygon fill="#63b8ff" stroke="#63b8ff" points="73.91,-15.76 63.42,-17.28 72.57,-22.63 73.91,-15.76"/>
</g>
<!-- Node3 -->
<g id="node3" class="node">
<title>Node3</title>
<g id="a_node3"><a xlink:title=" ">
<polygon fill="#e0e0e0" stroke="#999999" points="129.5,-19 80.5,-19 80.5,0 129.5,0 129.5,-19"/>
<text text-anchor="middle" x="105" y="-7" font-family="Helvetica,sans-Serif" font-size="10.00">netdb.h</text>
</a>
</g>
</g>
<!-- Node1&#45;&gt;Node3 -->
<g id="edge2" class="edge">
<title>Node1&#45;&gt;Node3</title>
<path fill="none" stroke="#63b8ff" d="M299.02,-56.82C257.95,-47.46 199.76,-34.03 140.53,-19.58"/>
<polygon fill="#63b8ff" stroke="#63b8ff" points="141.4,-15.95 130.85,-16.97 139.73,-22.75 141.4,-15.95"/>
</g>
<!-- Node4 -->
<g id="node4" class="node">
<title>Node4</title>
<g id="a_node4"><a xlink:title=" ">
<polygon fill="#e0e0e0" stroke="#999999" points="212.5,-19 147.5,-19 147.5,0 212.5,0 212.5,-19"/>
<text text-anchor="middle" x="180" y="-7" font-family="Helvetica,sans-Serif" font-size="10.00">netinet/in.h</text>
</a>
</g>
</g>
<!-- Node1&#45;&gt;Node4 -->
<g id="edge3" class="edge">
<title>Node1&#45;&gt;Node4</title>
<path fill="none" stroke="#63b8ff" d="M310.24,-54.54C281.53,-44.83 244.1,-32.17 216.73,-22.92"/>
<polygon fill="#63b8ff" stroke="#63b8ff" points="218.01,-19.32 207.41,-19.43 215.77,-25.95 218.01,-19.32"/>
</g>
<!-- Node5 -->
<g id="node5" class="node">
<title>Node5</title>
<g id="a_node5"><a xlink:title=" ">
<polygon fill="#e0e0e0" stroke="#999999" points="279.5,-19 230.5,-19 230.5,0 279.5,0 279.5,-19"/>
<text text-anchor="middle" x="255" y="-7" font-family="Helvetica,sans-Serif" font-size="10.00">stdint.h</text>
</a>
</g>
</g>
<!-- Node1&#45;&gt;Node5 -->
<g id="edge4" class="edge">
<title>Node1&#45;&gt;Node5</title>
<path fill="none" stroke="#63b8ff" d="M328.78,-54.54C313.62,-45.49 294.17,-33.88 279.04,-24.85"/>
<polygon fill="#63b8ff" stroke="#63b8ff" points="281.2,-21.47 270.82,-19.35 277.61,-27.48 281.2,-21.47"/>
</g>
<!-- Node6 -->
<g id="node6" class="node">
<title>Node6</title>
<g id="a_node6"><a xlink:title=" ">
<polygon fill="#e0e0e0" stroke="#999999" points="344,-19 298,-19 298,0 344,0 344,-19"/>
<text text-anchor="middle" x="321" y="-7" font-family="Helvetica,sans-Serif" font-size="10.00">stdio.h</text>
</a>
</g>
</g>
<!-- Node1&#45;&gt;Node6 -->
<g id="edge5" class="edge">
<title>Node1&#45;&gt;Node6</title>
<path fill="none" stroke="#63b8ff" d="M345.09,-54.54C340.82,-46.74 335.51,-37.03 330.96,-28.71"/>
<polygon fill="#63b8ff" stroke="#63b8ff" points="333.62,-27.27 325.75,-20.18 327.47,-30.63 333.62,-27.27"/>
</g>
<!-- Node7 -->
<g id="node7" class="node">
<title>Node7</title>
<g id="a_node7"><a xlink:title=" ">
<polygon fill="#e0e0e0" stroke="#999999" points="410,-19 362,-19 362,0 410,0 410,-19"/>
<text text-anchor="middle" x="386" y="-7" font-family="Helvetica,sans-Serif" font-size="10.00">stdlib.h</text>
</a>
</g>
</g>
<!-- Node1&#45;&gt;Node7 -->
<g id="edge6" class="edge">
<title>Node1&#45;&gt;Node7</title>
<path fill="none" stroke="#63b8ff" d="M361.16,-54.54C365.56,-46.74 371.04,-37.03 375.73,-28.71"/>
<polygon fill="#63b8ff" stroke="#63b8ff" points="379.24,-30.6 381.11,-20.18 373.14,-27.17 379.24,-30.6"/>
</g>
<!-- Node8 -->
<g id="node8" class="node">
<title>Node8</title>
<g id="a_node8"><a xlink:title=" ">
<polygon fill="#e0e0e0" stroke="#999999" points="477.5,-19 428.5,-19 428.5,0 477.5,0 477.5,-19"/>
<text text-anchor="middle" x="453" y="-7" font-family="Helvetica,sans-Serif" font-size="10.00">string.h</text>
</a>
</g>
</g>
<!-- Node1&#45;&gt;Node8 -->
<g id="edge7" class="edge">
<title>Node1&#45;&gt;Node8</title>
<path fill="none" stroke="#63b8ff" d="M377.72,-54.54C393.19,-45.49 413.03,-33.88 428.47,-24.85"/>
<polygon fill="#63b8ff" stroke="#63b8ff" points="430.01,-27.42 436.88,-19.35 426.48,-21.37 430.01,-27.42"/>
</g>
<!-- Node9 -->
<g id="node9" class="node">
<title>Node9</title>
<g id="a_node9"><a xlink:title=" ">
<polygon fill="#e0e0e0" stroke="#999999" points="568.5,-19 495.5,-19 495.5,0 568.5,0 568.5,-19"/>
<text text-anchor="middle" x="532" y="-7" font-family="Helvetica,sans-Serif" font-size="10.00">sys/socket.h</text>
</a>
</g>
</g>
<!-- Node1&#45;&gt;Node9 -->
<g id="edge8" class="edge">
<title>Node1&#45;&gt;Node9</title>
<path fill="none" stroke="#63b8ff" d="M397.25,-54.54C427.08,-44.79 466.02,-32.06 494.37,-22.8"/>
<polygon fill="#63b8ff" stroke="#63b8ff" points="495.25,-25.87 503.67,-19.43 493.08,-19.21 495.25,-25.87"/>
</g>
<!-- Node10 -->
<g id="node10" class="node">
<title>Node10</title>
<g id="a_node10"><a xlink:title=" ">
<polygon fill="#e0e0e0" stroke="#999999" points="655,-19 587,-19 587,0 655,0 655,-19"/>
<text text-anchor="middle" x="621" y="-7" font-family="Helvetica,sans-Serif" font-size="10.00">sys/types.h</text>
</a>
</g>
</g>
<!-- Node1&#45;&gt;Node10 -->
<g id="edge9" class="edge">
<title>Node1&#45;&gt;Node10</title>
<path fill="none" stroke="#63b8ff" d="M406.91,-57.23C456.58,-46.39 529.44,-30.49 576.04,-20.31"/>
<polygon fill="#63b8ff" stroke="#63b8ff" points="576.7,-23.53 585.72,-17.98 575.2,-16.7 576.7,-23.53"/>
</g>
<!-- Node11 -->
<g id="node11" class="node">
<title>Node11</title>
<g id="a_node11"><a xlink:title=" ">
<polygon fill="#e0e0e0" stroke="#999999" points="724.5,-19 673.5,-19 673.5,0 724.5,0 724.5,-19"/>
<text text-anchor="middle" x="699" y="-7" font-family="Helvetica,sans-Serif" font-size="10.00">unistd.h</text>
</a>
</g>
</g>
<!-- Node1&#45;&gt;Node11 -->
<g id="edge10" class="edge">
<title>Node1&#45;&gt;Node11</title>
<path fill="none" stroke="#63b8ff" d="M406.89,-61.65C466.84,-53.18 566.79,-38.2 662.33,-19.2"/>
<polygon fill="#63b8ff" stroke="#63b8ff" points="662.94,-22.44 672.06,-17.04 661.56,-15.58 662.94,-22.44"/>
</g>
</g>
</svg>
