<?xml version="1.0" encoding="UTF-8" standalone="no"?>
<!DOCTYPE svg PUBLIC "-//W3C//DTD SVG 1.1//EN"
 "http://www.w3.org/Graphics/SVG/1.1/DTD/svg11.dtd">
<!-- Generated by graphviz version 8.0.4 (20230421.1958)
 -->
<!-- Title: project_euler/problem_13/sol1.c Pages: 1 -->
<svg width="251pt" height="94pt"
 viewBox="0.00 0.00 251.25 93.75" xmlns="http://www.w3.org/2000/svg" xmlns:xlink="http://www.w3.org/1999/xlink">
<g id="graph0" class="graph" transform="scale(1 1) rotate(0) translate(4 89.75)">
<title>project_euler/problem_13/sol1.c</title>
<!-- Node1 -->
<g id="node1" class="node">
<title>Node1</title>
<g id="a_node1"><a xlink:title="Problem 13 solution">
<polygon fill="#999999" stroke="#666666" points="175.62,-85.75 66.62,-85.75 66.62,-55.25 175.62,-55.25 175.62,-85.75"/>
<text text-anchor="start" x="74.62" y="-72.25" font-family="Helvetica,sans-Serif" font-size="10.00">project_euler/problem</text>
<text text-anchor="middle" x="121.12" y="-61" font-family="Helvetica,sans-Serif" font-size="10.00">_13/sol1.c</text>
</a>
</g>
</g>
<!-- Node2 -->
<g id="node2" class="node">
<title>Node2</title>
<g id="a_node2"><a xlink:title=" ">
<polygon fill="#e0e0e0" stroke="#999999" points="48.25,-19.25 0,-19.25 0,0 48.25,0 48.25,-19.25"/>
<text text-anchor="middle" x="24.12" y="-5.75" font-family="Helvetica,sans-Serif" font-size="10.00">stdint.h</text>
</a>
</g>
</g>
<!-- Node1&#45;&gt;Node2 -->
<g id="edge1" class="edge">
<title>Node1&#45;&gt;Node2</title>
<path fill="none" stroke="#63b8ff" d="M97.15,-54.95C82.24,-45.9 63.13,-34.3 48.2,-25.24"/>
<polygon fill="#63b8ff" stroke="#63b8ff" points="50.44,-21.9 40.08,-19.7 46.81,-27.88 50.44,-21.9"/>
</g>
<!-- Node3 -->
<g id="node3" class="node">
<title>Node3</title>
<g id="a_node3"><a xlink:title=" ">
<polygon fill="#e0e0e0" stroke="#999999" points="111.75,-19.25 66.5,-19.25 66.5,0 111.75,0 111.75,-19.25"/>
<text text-anchor="middle" x="89.12" y="-5.75" font-family="Helvetica,sans-Serif" font-size="10.00">stdio.h</text>
</a>
</g>
</g>
<!-- Node1&#45;&gt;Node3 -->
<g id="edge2" class="edge">
<title>Node1&#45;&gt;Node3</title>
<path fill="none" stroke="#63b8ff" d="M113.21,-54.95C109,-47.19 103.77,-37.56 99.25,-29.26"/>
<polygon fill="#63b8ff" stroke="#63b8ff" points="101.91,-27.82 94.06,-20.7 95.76,-31.16 101.91,-27.82"/>
</g>
<!-- Node4 -->
<g id="node4" class="node">
<title>Node4</title>
<g id="a_node4"><a xlink:title=" ">
<polygon fill="#e0e0e0" stroke="#999999" points="176.88,-19.25 129.38,-19.25 129.38,0 176.88,0 176.88,-19.25"/>
<text text-anchor="middle" x="153.12" y="-5.75" font-family="Helvetica,sans-Serif" font-size="10.00">stdlib.h</text>
</a>
</g>
</g>
<!-- Node1&#45;&gt;Node4 -->
<g id="edge3" class="edge">
<title>Node1&#45;&gt;Node4</title>
<path fill="none" stroke="#63b8ff" d="M129.04,-54.95C133.25,-47.19 138.48,-37.56 143,-29.26"/>
<polygon fill="#63b8ff" stroke="#63b8ff" points="146.49,-31.16 148.19,-20.7 140.34,-27.82 146.49,-31.16"/>
</g>
<!-- Node5 -->
<g id="node5" class="node">
<title>Node5</title>
<g id="a_node5"><a xlink:title=" ">
<polygon fill="#e0e0e0" stroke="#999999" points="243.25,-19.25 195,-19.25 195,0 243.25,0 243.25,-19.25"/>
<text text-anchor="middle" x="219.12" y="-5.75" font-family="Helvetica,sans-Serif" font-size="10.00">string.h</text>
</a>
</g>
</g>
<!-- Node1&#45;&gt;Node5 -->
<g id="edge4" class="edge">
<title>Node1&#45;&gt;Node5</title>
<path fill="none" stroke="#63b8ff" d="M145.6,-54.8C160.67,-45.74 179.91,-34.19 194.92,-25.16"/>
<polygon fill="#63b8ff" stroke="#63b8ff" points="196.33,-27.8 203.1,-19.65 192.72,-21.8 196.33,-27.8"/>
</g>
</g>
</svg>
