<?xml version="1.0" encoding="UTF-8" standalone="no"?>
<!DOCTYPE svg PUBLIC "-//W3C//DTD SVG 1.1//EN"
 "http://www.w3.org/Graphics/SVG/1.1/DTD/svg11.dtd">
<!-- Generated by graphviz version 2.49.3 (20211023.0002)
 -->
<!-- Title: data_structures/binary_trees/threaded_binary_trees.c Pages: 1 -->
<svg width="127pt" height="106pt"
 viewBox="0.00 0.00 127.00 106.00" xmlns="http://www.w3.org/2000/svg" xmlns:xlink="http://www.w3.org/1999/xlink">
<g id="graph0" class="graph" transform="scale(1 1) rotate(0) translate(4 102)">
<title>data_structures/binary_trees/threaded_binary_trees.c</title>
<polygon fill="white" stroke="transparent" points="-4,4 -4,-102 123,-102 123,4 -4,4"/>
<!-- Node1 -->
<g id="node1" class="node">
<title>Node1</title>
<g id="a_node1"><a xlink:title="This file is a simple implementation of a Threaded Binary Tree.">
<polygon fill="#bfbfbf" stroke="black" points="0,-56.5 0,-97.5 119,-97.5 119,-56.5 0,-56.5"/>
<text text-anchor="start" x="8" y="-85.5" font-family="Helvetica,sans-Serif" font-size="10.00">data_structures/binary</text>
<text text-anchor="start" x="8" y="-74.5" font-family="Helvetica,sans-Serif" font-size="10.00">_trees/threaded_binary</text>
<text text-anchor="middle" x="59.5" y="-63.5" font-family="Helvetica,sans-Serif" font-size="10.00">_trees.c</text>
</a>
</g>
</g>
<!-- Node2 -->
<g id="node2" class="node">
<title>Node2</title>
<g id="a_node2"><a xlink:title=" ">
<polygon fill="white" stroke="#bfbfbf" points="4.5,-0.5 4.5,-19.5 50.5,-19.5 50.5,-0.5 4.5,-0.5"/>
<text text-anchor="middle" x="27.5" y="-7.5" font-family="Helvetica,sans-Serif" font-size="10.00">stdio.h</text>
</a>
</g>
</g>
<!-- Node1&#45;&gt;Node2 -->
<g id="edge1" class="edge">
<title>Node1&#45;&gt;Node2</title>
<path fill="none" stroke="midnightblue" d="M49.9,-56.5C45.56,-47.68 40.47,-37.34 36.24,-28.74"/>
<polygon fill="midnightblue" stroke="midnightblue" points="39.32,-27.08 31.76,-19.65 33.04,-30.17 39.32,-27.08"/>
</g>
<!-- Node3 -->
<g id="node3" class="node">
<title>Node3</title>
<g id="a_node3"><a xlink:title=" ">
<polygon fill="white" stroke="#bfbfbf" points="68.5,-0.5 68.5,-19.5 116.5,-19.5 116.5,-0.5 68.5,-0.5"/>
<text text-anchor="middle" x="92.5" y="-7.5" font-family="Helvetica,sans-Serif" font-size="10.00">stdlib.h</text>
</a>
</g>
</g>
<!-- Node1&#45;&gt;Node3 -->
<g id="edge2" class="edge">
<title>Node1&#45;&gt;Node3</title>
<path fill="none" stroke="midnightblue" d="M69.4,-56.5C73.88,-47.68 79.13,-37.34 83.49,-28.74"/>
<polygon fill="midnightblue" stroke="midnightblue" points="86.7,-30.15 88.11,-19.65 80.46,-26.98 86.7,-30.15"/>
</g>
</g>
</svg>
