<?xml version="1.0" encoding="UTF-8" standalone="no"?>
<!DOCTYPE svg PUBLIC "-//W3C//DTD SVG 1.1//EN"
 "http://www.w3.org/Graphics/SVG/1.1/DTD/svg11.dtd">
<!-- Generated by graphviz version 3.0.0 (20220226.1711)
 -->
<!-- Title: data_structures/binary_trees/threaded_binary_trees.c Pages: 1 -->
<svg width="124pt" height="106pt"
 viewBox="0.00 0.00 124.00 106.00" xmlns="http://www.w3.org/2000/svg" xmlns:xlink="http://www.w3.org/1999/xlink">
<g id="graph0" class="graph" transform="scale(1 1) rotate(0) translate(4 102)">
<title>data_structures/binary_trees/threaded_binary_trees.c</title>
<polygon fill="white" stroke="transparent" points="-4,4 -4,-102 120,-102 120,4 -4,4"/>
<!-- Node1 -->
<g id="node1" class="node">
<title>Node1</title>
<g id="a_node1"><a xlink:title="This file is a simple implementation of a Threaded Binary Tree.">
<polygon fill="#bfbfbf" stroke="black" points="0,-56.5 0,-97.5 116,-97.5 116,-56.5 0,-56.5"/>
<text text-anchor="start" x="8" y="-85.5" font-family="Helvetica,sans-Serif" font-size="10.00">data_structures/binary</text>
<text text-anchor="start" x="8" y="-74.5" font-family="Helvetica,sans-Serif" font-size="10.00">_trees/threaded_binary</text>
<text text-anchor="middle" x="58" y="-63.5" font-family="Helvetica,sans-Serif" font-size="10.00">_trees.c</text>
</a>
</g>
</g>
<!-- Node2 -->
<g id="node2" class="node">
<title>Node2</title>
<g id="a_node2"><a xlink:title=" ">
<polygon fill="white" stroke="#bfbfbf" points="3,-0.5 3,-19.5 49,-19.5 49,-0.5 3,-0.5"/>
<text text-anchor="middle" x="26" y="-7.5" font-family="Helvetica,sans-Serif" font-size="10.00">stdio.h</text>
</a>
</g>
</g>
<!-- Node1&#45;&gt;Node2 -->
<g id="edge1" class="edge">
<title>Node1&#45;&gt;Node2</title>
<path fill="none" stroke="midnightblue" d="M48.4,-56.5C44.06,-47.68 38.97,-37.34 34.74,-28.74"/>
<polygon fill="midnightblue" stroke="midnightblue" points="37.82,-27.08 30.26,-19.65 31.54,-30.17 37.82,-27.08"/>
</g>
<!-- Node3 -->
<g id="node3" class="node">
<title>Node3</title>
<g id="a_node3"><a xlink:title=" ">
<polygon fill="white" stroke="#bfbfbf" points="67,-0.5 67,-19.5 115,-19.5 115,-0.5 67,-0.5"/>
<text text-anchor="middle" x="91" y="-7.5" font-family="Helvetica,sans-Serif" font-size="10.00">stdlib.h</text>
</a>
</g>
</g>
<!-- Node1&#45;&gt;Node3 -->
<g id="edge2" class="edge">
<title>Node1&#45;&gt;Node3</title>
<path fill="none" stroke="midnightblue" d="M67.9,-56.5C72.38,-47.68 77.63,-37.34 81.99,-28.74"/>
<polygon fill="midnightblue" stroke="midnightblue" points="85.2,-30.15 86.61,-19.65 78.96,-26.98 85.2,-30.15"/>
</g>
</g>
</svg>
