<?xml version="1.0" encoding="UTF-8" standalone="no"?>
<!DOCTYPE svg PUBLIC "-//W3C//DTD SVG 1.1//EN"
 "http://www.w3.org/Graphics/SVG/1.1/DTD/svg11.dtd">
<!-- Generated by graphviz version 9.0.0 (20230911.1827)
 -->
<!-- Title: data_structures/binary_trees/threaded_binary_trees.c Pages: 1 -->
<svg width="123pt" height="105pt"
 viewBox="0.00 0.00 123.00 105.00" xmlns="http://www.w3.org/2000/svg" xmlns:xlink="http://www.w3.org/1999/xlink">
<g id="graph0" class="graph" transform="scale(1 1) rotate(0) translate(4 101)">
<title>data_structures/binary_trees/threaded_binary_trees.c</title>
<!-- Node1 -->
<g id="Node000001" class="node">
<title>Node1</title>
<g id="a_Node000001"><a xlink:title="This file is a simple implementation of a Threaded Binary Tree.">
<polygon fill="#999999" stroke="#666666" points="115,-97 0,-97 0,-55.25 115,-55.25 115,-97"/>
<text text-anchor="start" x="8" y="-83.5" font-family="Helvetica,sans-Serif" font-size="10.00">data_structures/binary</text>
<text text-anchor="start" x="8" y="-72.25" font-family="Helvetica,sans-Serif" font-size="10.00">_trees/threaded_binary</text>
<text text-anchor="middle" x="57.5" y="-61" font-family="Helvetica,sans-Serif" font-size="10.00">_trees.c</text>
</a>
</g>
</g>
<!-- Node2 -->
<g id="Node000002" class="node">
<title>Node2</title>
<g id="a_Node000002"><a xlink:title=" ">
<polygon fill="#e0e0e0" stroke="#999999" points="48.12,-19.25 2.88,-19.25 2.88,0 48.12,0 48.12,-19.25"/>
<text text-anchor="middle" x="25.5" y="-5.75" font-family="Helvetica,sans-Serif" font-size="10.00">stdio.h</text>
</a>
</g>
</g>
<!-- Node1&#45;&gt;Node2 -->
<g id="edge1_Node000001_Node000002" class="edge">
<title>Node1&#45;&gt;Node2</title>
<g id="a_edge1_Node000001_Node000002"><a xlink:title=" ">
<path fill="none" stroke="#63b8ff" d="M47.55,-55.07C43.56,-47.03 38.98,-37.8 35.03,-29.84"/>
<polygon fill="#63b8ff" stroke="#63b8ff" points="38.25,-28.45 30.67,-21.05 31.98,-31.56 38.25,-28.45"/>
</a>
</g>
</g>
<!-- Node3 -->
<g id="Node000003" class="node">
<title>Node3</title>
<g id="a_Node000003"><a xlink:title=" ">
<polygon fill="#e0e0e0" stroke="#999999" points="113.25,-19.25 65.75,-19.25 65.75,0 113.25,0 113.25,-19.25"/>
<text text-anchor="middle" x="89.5" y="-5.75" font-family="Helvetica,sans-Serif" font-size="10.00">stdlib.h</text>
</a>
</g>
</g>
<!-- Node1&#45;&gt;Node3 -->
<g id="edge2_Node000001_Node000003" class="edge">
<title>Node1&#45;&gt;Node3</title>
<g id="a_edge2_Node000001_Node000003"><a xlink:title=" ">
<path fill="none" stroke="#63b8ff" d="M67.45,-55.07C71.44,-47.03 76.02,-37.8 79.97,-29.84"/>
<polygon fill="#63b8ff" stroke="#63b8ff" points="83.02,-31.56 84.33,-21.05 76.75,-28.45 83.02,-31.56"/>
</a>
</g>
</g>
</g>
</svg>
