<?xml version="1.0" encoding="UTF-8" standalone="no"?>
<!DOCTYPE svg PUBLIC "-//W3C//DTD SVG 1.1//EN"
 "http://www.w3.org/Graphics/SVG/1.1/DTD/svg11.dtd">
<!-- Generated by graphviz version 3.0.0 (20220226.1711)
 -->
<!-- Title: main Pages: 1 -->
<svg width="171pt" height="66pt"
 viewBox="0.00 0.00 171.00 66.00" xmlns="http://www.w3.org/2000/svg" xmlns:xlink="http://www.w3.org/1999/xlink">
<g id="graph0" class="graph" transform="scale(1 1) rotate(0) translate(4 62)">
<title>main</title>
<polygon fill="white" stroke="transparent" points="-4,4 -4,-62 167,-62 167,4 -4,4"/>
<!-- Node1 -->
<g id="node1" class="node">
<title>Node1</title>
<g id="a_node1"><a xlink:title="Main function.">
<polygon fill="#bfbfbf" stroke="black" points="0,-19.5 0,-38.5 38,-38.5 38,-19.5 0,-19.5"/>
<text text-anchor="middle" x="19" y="-26.5" font-family="Helvetica,sans-Serif" font-size="10.00">main</text>
</a>
</g>
</g>
<!-- Node2 -->
<g id="node2" class="node">
<title>Node2</title>
<g id="a_node2"><a xlink:href="../../dd/df0/problem__19_2sol1_8c.html#ab7f9ad087f124b8e0615aa535b4c8a75" target="_top" xlink:title="Function to get the number of days in a month.">
<polygon fill="white" stroke="black" points="74,-38.5 74,-57.5 163,-57.5 163,-38.5 74,-38.5"/>
<text text-anchor="middle" x="118.5" y="-45.5" font-family="Helvetica,sans-Serif" font-size="10.00">get_month_days</text>
</a>
</g>
</g>
<!-- Node1&#45;&gt;Node2 -->
<g id="edge1" class="edge">
<title>Node1&#45;&gt;Node2</title>
<path fill="none" stroke="midnightblue" d="M38.34,-32.57C45.71,-34.01 54.63,-35.75 63.78,-37.53"/>
<polygon fill="midnightblue" stroke="midnightblue" points="63.26,-41 73.75,-39.47 64.6,-34.13 63.26,-41"/>
</g>
<!-- Node3 -->
<g id="node3" class="node">
<title>Node3</title>
<g id="a_node3"><a xlink:href="../../dd/df0/problem__19_2sol1_8c.html#a6561b1adc8a19c092679b9874da24e2e" target="_top" xlink:title="Check if input year is a leap year.">
<polygon fill="white" stroke="black" points="83,-0.5 83,-19.5 154,-19.5 154,-0.5 83,-0.5"/>
<text text-anchor="middle" x="118.5" y="-7.5" font-family="Helvetica,sans-Serif" font-size="10.00">is_leap_year</text>
</a>
</g>
</g>
<!-- Node1&#45;&gt;Node3 -->
<g id="edge2" class="edge">
<title>Node1&#45;&gt;Node3</title>
<path fill="none" stroke="midnightblue" d="M38.34,-25.43C48.08,-23.53 60.51,-21.1 72.63,-18.74"/>
<polygon fill="midnightblue" stroke="midnightblue" points="73.52,-22.14 82.66,-16.79 72.18,-15.27 73.52,-22.14"/>
</g>
</g>
</svg>
