<?xml version="1.0" encoding="UTF-8" standalone="no"?>
<!DOCTYPE svg PUBLIC "-//W3C//DTD SVG 1.1//EN"
 "http://www.w3.org/Graphics/SVG/1.1/DTD/svg11.dtd">
<!-- Generated by graphviz version 8.0.5 (20230430.1635)
 -->
<!-- Title: main Pages: 1 -->
<svg width="169pt" height="64pt"
 viewBox="0.00 0.00 169.00 64.25" xmlns="http://www.w3.org/2000/svg" xmlns:xlink="http://www.w3.org/1999/xlink">
<g id="graph0" class="graph" transform="scale(1 1) rotate(0) translate(4 60.25)">
<title>main</title>
<!-- Node1 -->
<g id="node1" class="node">
<title>Node1</title>
<g id="a_node1"><a xlink:title="Main function.">
<polygon fill="#999999" stroke="#666666" points="37,-37.25 0,-37.25 0,-18 37,-18 37,-37.25"/>
<text text-anchor="middle" x="18.5" y="-23.75" font-family="Helvetica,sans-Serif" font-size="10.00">main</text>
</a>
</g>
</g>
<!-- Node2 -->
<g id="node2" class="node">
<title>Node2</title>
<g id="a_node2"><a xlink:href="../../dd/df0/problem__19_2sol1_8c.html#ab7f9ad087f124b8e0615aa535b4c8a75" target="_top" xlink:title="Function to get the number of days in a month.">
<polygon fill="white" stroke="#666666" points="161,-56.25 73,-56.25 73,-37 161,-37 161,-56.25"/>
<text text-anchor="middle" x="117" y="-42.75" font-family="Helvetica,sans-Serif" font-size="10.00">get_month_days</text>
</a>
</g>
</g>
<!-- Node1&#45;&gt;Node2 -->
<g id="edge1" class="edge">
<title>Node1&#45;&gt;Node2</title>
<path fill="none" stroke="#63b8ff" d="M37.2,-31.11C44.4,-32.53 53.13,-34.25 62.13,-36.02"/>
<polygon fill="#63b8ff" stroke="#63b8ff" points="61.25,-39.61 71.74,-38.11 62.61,-32.74 61.25,-39.61"/>
</g>
<!-- Node3 -->
<g id="node3" class="node">
<title>Node3</title>
<g id="a_node3"><a xlink:href="../../dd/df0/problem__19_2sol1_8c.html#a6561b1adc8a19c092679b9874da24e2e" target="_top" xlink:title="Check if input year is a leap year.">
<polygon fill="white" stroke="#666666" points="152.38,-19.25 81.62,-19.25 81.62,0 152.38,0 152.38,-19.25"/>
<text text-anchor="middle" x="117" y="-5.75" font-family="Helvetica,sans-Serif" font-size="10.00">is_leap_year</text>
</a>
</g>
</g>
<!-- Node1&#45;&gt;Node3 -->
<g id="edge2" class="edge">
<title>Node1&#45;&gt;Node3</title>
<path fill="none" stroke="#63b8ff" d="M37.2,-24.32C46.61,-22.57 58.67,-20.32 70.5,-18.11"/>
<polygon fill="#63b8ff" stroke="#63b8ff" points="71.03,-21.39 80.22,-16.11 69.74,-14.51 71.03,-21.39"/>
</g>
</g>
</svg>
