<?xml version="1.0" encoding="UTF-8" standalone="no"?>
<!DOCTYPE svg PUBLIC "-//W3C//DTD SVG 1.1//EN"
 "http://www.w3.org/Graphics/SVG/1.1/DTD/svg11.dtd">
<!-- Generated by graphviz version 3.0.0 (20220226.1711)
 -->
<!-- Title: delete Pages: 1 -->
<svg width="136pt" height="46pt"
 viewBox="0.00 0.00 136.00 46.00" xmlns="http://www.w3.org/2000/svg" xmlns:xlink="http://www.w3.org/1999/xlink">
<g id="graph0" class="graph" transform="scale(1 1) rotate(0) translate(4 42)">
<title>delete</title>
<polygon fill="white" stroke="transparent" points="-4,4 -4,-42 132,-42 132,4 -4,4"/>
<!-- Node1 -->
<g id="node1" class="node">
<title>Node1</title>
<g id="a_node1"><a xlink:title="Deletion procedure, which searches for the input key in the tree and removes it if present.">
<polygon fill="#bfbfbf" stroke="black" points="0,-0.5 0,-19.5 43,-19.5 43,-0.5 0,-0.5"/>
<text text-anchor="middle" x="21.5" y="-7.5" font-family="Helvetica,sans-Serif" font-size="10.00">delete</text>
</a>
</g>
</g>
<!-- Node2 -->
<g id="node2" class="node">
<title>Node2</title>
<g id="a_node2"><a xlink:href="../../da/d02/binary__search__tree_8c.html#ad50f3debc5323bb7b71933effb64f30f" target="_top" xlink:title="Utilitary procedure to find the greatest key in the left subtree.">
<polygon fill="white" stroke="black" points="79,-0.5 79,-19.5 128,-19.5 128,-0.5 79,-0.5"/>
<text text-anchor="middle" x="103.5" y="-7.5" font-family="Helvetica,sans-Serif" font-size="10.00">getMax</text>
</a>
</g>
</g>
<!-- Node1&#45;&gt;Node2 -->
<g id="edge1" class="edge">
<title>Node1&#45;&gt;Node2</title>
<path fill="none" stroke="midnightblue" d="M43.1,-10C50.87,-10 59.92,-10 68.59,-10"/>
<polygon fill="midnightblue" stroke="midnightblue" points="68.85,-13.5 78.85,-10 68.85,-6.5 68.85,-13.5"/>
</g>
<!-- Node2&#45;&gt;Node2 -->
<g id="edge2" class="edge">
<title>Node2&#45;&gt;Node2</title>
<path fill="none" stroke="midnightblue" d="M90.86,-19.76C84.71,-28.57 88.93,-38 103.5,-38 112.38,-38 117.41,-34.5 118.6,-29.77"/>
<polygon fill="midnightblue" stroke="midnightblue" points="121.93,-28.63 116.14,-19.76 115.13,-30.3 121.93,-28.63"/>
</g>
</g>
</svg>
