<?xml version="1.0" encoding="UTF-8" standalone="no"?>
<!DOCTYPE svg PUBLIC "-//W3C//DTD SVG 1.1//EN"
 "http://www.w3.org/Graphics/SVG/1.1/DTD/svg11.dtd">
<!-- Generated by graphviz version 8.0.2 (20230410.1723)
 -->
<!-- Title: main Pages: 1 -->
<svg width="224pt" height="265pt"
 viewBox="0.00 0.00 224.00 265.00" xmlns="http://www.w3.org/2000/svg" xmlns:xlink="http://www.w3.org/1999/xlink">
<g id="graph0" class="graph" transform="scale(1 1) rotate(0) translate(4 261)">
<title>main</title>
<!-- Node1 -->
<g id="node1" class="node">
<title>Node1</title>
<g id="a_node1"><a xlink:title="Main funcion.">
<polygon fill="#999999" stroke="#666666" points="38,-129 0,-129 0,-110 38,-110 38,-129"/>
<text text-anchor="middle" x="19" y="-117" font-family="Helvetica,sans-Serif" font-size="10.00">main</text>
</a>
</g>
</g>
<!-- Node2 -->
<g id="node2" class="node">
<title>Node2</title>
<g id="a_node2"><a xlink:href="../../da/d02/binary__search__tree_8c.html#adff4c6248834a9944a1fb03a20230c9c" target="_top" xlink:title="Search procedure, which looks for the input key in the tree and returns 1 if it&#39;s present or 0 if it&#39;...">
<polygon fill="white" stroke="#666666" points="114,-239 82,-239 82,-220 114,-220 114,-239"/>
<text text-anchor="middle" x="98" y="-227" font-family="Helvetica,sans-Serif" font-size="10.00">find</text>
</a>
</g>
</g>
<!-- Node1&#45;&gt;Node2 -->
<g id="edge1" class="edge">
<title>Node1&#45;&gt;Node2</title>
<path fill="none" stroke="#63b8ff" d="M24.3,-129.41C32.31,-147.17 50.83,-185.02 74,-211.5 74.24,-211.77 74.48,-212.04 74.73,-212.31"/>
<polygon fill="#63b8ff" stroke="#63b8ff" points="71.92,-214.41 81.64,-218.62 76.67,-209.26 71.92,-214.41"/>
</g>
<!-- Node3 -->
<g id="node3" class="node">
<title>Node3</title>
<g id="a_node3"><a xlink:href="../../da/d02/binary__search__tree_8c.html#ae4a66d8b0c2b0d626aea45977e358c83" target="_top" xlink:title="Utilitary procedure to measure the height of the binary tree.">
<polygon fill="white" stroke="#666666" points="119.5,-184 76.5,-184 76.5,-165 119.5,-165 119.5,-184"/>
<text text-anchor="middle" x="98" y="-172" font-family="Helvetica,sans-Serif" font-size="10.00">height</text>
</a>
</g>
</g>
<!-- Node1&#45;&gt;Node3 -->
<g id="edge3" class="edge">
<title>Node1&#45;&gt;Node3</title>
<path fill="none" stroke="#63b8ff" d="M33.77,-129.33C44.97,-137.34 61.03,-148.81 74.16,-158.19"/>
<polygon fill="#63b8ff" stroke="#63b8ff" points="71.92,-161.6 82.09,-164.57 75.99,-155.91 71.92,-161.6"/>
</g>
<!-- Node4 -->
<g id="node4" class="node">
<title>Node4</title>
<g id="a_node4"><a xlink:href="../../da/d02/binary__search__tree_8c.html#a0f18adaaca5ecc410cfa16dd2a3684dc" target="_top" xlink:title="Traversal procedure to list the current keys in the tree in order of value (from the left to the righ...">
<polygon fill="white" stroke="#666666" points="122,-129 74,-129 74,-110 122,-110 122,-129"/>
<text text-anchor="middle" x="98" y="-117" font-family="Helvetica,sans-Serif" font-size="10.00">inOrder</text>
</a>
</g>
</g>
<!-- Node1&#45;&gt;Node4 -->
<g id="edge5" class="edge">
<title>Node1&#45;&gt;Node4</title>
<path fill="none" stroke="#63b8ff" d="M38.25,-119.5C45.61,-119.5 54.35,-119.5 62.81,-119.5"/>
<polygon fill="#63b8ff" stroke="#63b8ff" points="62.62,-123 72.62,-119.5 62.62,-116 62.62,-123"/>
</g>
<!-- Node5 -->
<g id="node5" class="node">
<title>Node5</title>
<g id="a_node5"><a xlink:href="../../da/d02/binary__search__tree_8c.html#a031cc98830742bca57c0da81a0fb779f" target="_top" xlink:title="Insertion procedure, which inserts the input key in a new node in the tree.">
<polygon fill="white" stroke="#666666" points="118.5,-74 77.5,-74 77.5,-55 118.5,-55 118.5,-74"/>
<text text-anchor="middle" x="98" y="-62" font-family="Helvetica,sans-Serif" font-size="10.00">insert</text>
</a>
</g>
</g>
<!-- Node1&#45;&gt;Node5 -->
<g id="edge7" class="edge">
<title>Node1&#45;&gt;Node5</title>
<path fill="none" stroke="#63b8ff" d="M33.77,-109.67C44.97,-101.66 61.03,-90.19 74.16,-80.81"/>
<polygon fill="#63b8ff" stroke="#63b8ff" points="75.99,-83.09 82.09,-74.43 71.92,-77.4 75.99,-83.09"/>
</g>
<!-- Node7 -->
<g id="node7" class="node">
<title>Node7</title>
<g id="a_node7"><a xlink:href="../../da/d02/binary__search__tree_8c.html#a01151353aa2d9688934ed39208133241" target="_top" xlink:title="Utilitary procedure to free all nodes in a tree.">
<polygon fill="white" stroke="#666666" points="118.5,-19 77.5,-19 77.5,0 118.5,0 118.5,-19"/>
<text text-anchor="middle" x="98" y="-7" font-family="Helvetica,sans-Serif" font-size="10.00">purge</text>
</a>
</g>
</g>
<!-- Node1&#45;&gt;Node7 -->
<g id="edge10" class="edge">
<title>Node1&#45;&gt;Node7</title>
<path fill="none" stroke="#63b8ff" d="M26.83,-109.74C39.64,-91.44 67.46,-51.7 83.96,-28.12"/>
<polygon fill="#63b8ff" stroke="#63b8ff" points="87.2,-30.6 90.07,-20.4 81.47,-26.58 87.2,-30.6"/>
</g>
<!-- Node2&#45;&gt;Node2 -->
<g id="edge2" class="edge">
<title>Node2&#45;&gt;Node2</title>
<path fill="none" stroke="#63b8ff" d="M85.63,-239.37C79.99,-247.94 84.11,-257 98,-257 105.81,-257 110.53,-254.13 112.17,-250.1"/>
<polygon fill="#63b8ff" stroke="#63b8ff" points="115.47,-249.65 110.37,-240.37 108.57,-250.81 115.47,-249.65"/>
</g>
<!-- Node3&#45;&gt;Node3 -->
<g id="edge4" class="edge">
<title>Node3&#45;&gt;Node3</title>
<path fill="none" stroke="#63b8ff" d="M85.63,-184.37C79.99,-192.94 84.11,-202 98,-202 105.81,-202 110.53,-199.13 112.17,-195.1"/>
<polygon fill="#63b8ff" stroke="#63b8ff" points="115.47,-194.65 110.37,-185.37 108.57,-195.81 115.47,-194.65"/>
</g>
<!-- Node4&#45;&gt;Node4 -->
<g id="edge6" class="edge">
<title>Node4&#45;&gt;Node4</title>
<path fill="none" stroke="#63b8ff" d="M85.63,-129.37C79.99,-137.94 84.11,-147 98,-147 105.81,-147 110.53,-144.13 112.17,-140.1"/>
<polygon fill="#63b8ff" stroke="#63b8ff" points="115.47,-139.65 110.37,-130.37 108.57,-140.81 115.47,-139.65"/>
</g>
<!-- Node5&#45;&gt;Node5 -->
<g id="edge8" class="edge">
<title>Node5&#45;&gt;Node5</title>
<path fill="none" stroke="#63b8ff" d="M85.63,-74.37C79.99,-82.94 84.11,-92 98,-92 105.81,-92 110.53,-89.13 112.17,-85.1"/>
<polygon fill="#63b8ff" stroke="#63b8ff" points="115.47,-84.65 110.37,-75.37 108.57,-85.81 115.47,-84.65"/>
</g>
<!-- Node6 -->
<g id="node6" class="node">
<title>Node6</title>
<g id="a_node6"><a xlink:href="../../da/d02/binary__search__tree_8c.html#adf2169c1008551b20c4a59fcf0c9ab3b" target="_top" xlink:title="The node constructor, which receives the key value input and returns a node pointer.">
<polygon fill="white" stroke="#666666" points="216,-74 158,-74 158,-55 216,-55 216,-74"/>
<text text-anchor="middle" x="187" y="-62" font-family="Helvetica,sans-Serif" font-size="10.00">newNode</text>
</a>
</g>
</g>
<!-- Node5&#45;&gt;Node6 -->
<g id="edge9" class="edge">
<title>Node5&#45;&gt;Node6</title>
<path fill="none" stroke="#63b8ff" d="M118.74,-64.5C127.12,-64.5 137.19,-64.5 146.96,-64.5"/>
<polygon fill="#63b8ff" stroke="#63b8ff" points="146.76,-68 156.76,-64.5 146.76,-61 146.76,-68"/>
</g>
<!-- Node7&#45;&gt;Node7 -->
<g id="edge11" class="edge">
<title>Node7&#45;&gt;Node7</title>
<path fill="none" stroke="#63b8ff" d="M85.63,-19.37C79.99,-27.94 84.11,-37 98,-37 105.81,-37 110.53,-34.13 112.17,-30.1"/>
<polygon fill="#63b8ff" stroke="#63b8ff" points="115.47,-29.65 110.37,-20.37 108.57,-30.81 115.47,-29.65"/>
</g>
</g>
</svg>
