<?xml version="1.0" encoding="UTF-8" standalone="no"?>
<!DOCTYPE svg PUBLIC "-//W3C//DTD SVG 1.1//EN"
 "http://www.w3.org/Graphics/SVG/1.1/DTD/svg11.dtd">
<!-- Generated by graphviz version 7.0.6 (20230106.0513)
 -->
<!-- Title: delete Pages: 1 -->
<svg width="136pt" height="45pt"
 viewBox="0.00 0.00 136.00 45.00" xmlns="http://www.w3.org/2000/svg" xmlns:xlink="http://www.w3.org/1999/xlink">
<g id="graph0" class="graph" transform="scale(1 1) rotate(0) translate(4 41)">
<title>delete</title>
<!-- Node1 -->
<g id="node1" class="node">
<title>Node1</title>
<g id="a_node1"><a xlink:title="Deletion procedure, which searches for the input key in the tree and removes it if present.">
<polygon fill="#999999" stroke="#666666" points="43,-19 0,-19 0,0 43,0 43,-19"/>
<text text-anchor="middle" x="21.5" y="-7" font-family="Helvetica,sans-Serif" font-size="10.00">delete</text>
</a>
</g>
</g>
<!-- Node2 -->
<g id="node2" class="node">
<title>Node2</title>
<g id="a_node2"><a xlink:href="../../da/d02/binary__search__tree_8c.html#ad50f3debc5323bb7b71933effb64f30f" target="_top" xlink:title="Utilitary procedure to find the greatest key in the left subtree.">
<polygon fill="white" stroke="#666666" points="128,-19 79,-19 79,0 128,0 128,-19"/>
<text text-anchor="middle" x="103.5" y="-7" font-family="Helvetica,sans-Serif" font-size="10.00">getMax</text>
</a>
</g>
</g>
<!-- Node1&#45;&gt;Node2 -->
<g id="edge1" class="edge">
<title>Node1&#45;&gt;Node2</title>
<path fill="none" stroke="#63b8ff" d="M43.1,-9.5C50.47,-9.5 58.99,-9.5 67.23,-9.5"/>
<polygon fill="#63b8ff" stroke="#63b8ff" points="67.05,-13 77.05,-9.5 67.05,-6 67.05,-13"/>
</g>
<!-- Node2&#45;&gt;Node2 -->
<g id="edge2" class="edge">
<title>Node2&#45;&gt;Node2</title>
<path fill="none" stroke="#63b8ff" d="M90.66,-19.37C84.81,-27.94 89.09,-37 103.5,-37 111.16,-37 115.95,-34.44 117.89,-30.76"/>
<polygon fill="#63b8ff" stroke="#63b8ff" points="121.36,-30.3 116.54,-20.87 114.43,-31.25 121.36,-30.3"/>
</g>
</g>
</svg>
