<?xml version="1.0" encoding="UTF-8" standalone="no"?>
<!DOCTYPE svg PUBLIC "-//W3C//DTD SVG 1.1//EN"
 "http://www.w3.org/Graphics/SVG/1.1/DTD/svg11.dtd">
<!-- Generated by graphviz version 2.49.3 (20211023.0002)
 -->
<!-- Title: delete Pages: 1 -->
<svg width="137pt" height="46pt"
 viewBox="0.00 0.00 137.00 46.00" xmlns="http://www.w3.org/2000/svg" xmlns:xlink="http://www.w3.org/1999/xlink">
<g id="graph0" class="graph" transform="scale(1 1) rotate(0) translate(4 42)">
<title>delete</title>
<polygon fill="white" stroke="transparent" points="-4,4 -4,-42 133,-42 133,4 -4,4"/>
<!-- Node1 -->
<g id="node1" class="node">
<title>Node1</title>
<g id="a_node1"><a xlink:title="Deletion procedure, which searches for the input key in the tree and removes it if present.">
<polygon fill="#bfbfbf" stroke="black" points="0,-0.5 0,-19.5 44,-19.5 44,-0.5 0,-0.5"/>
<text text-anchor="middle" x="22" y="-7.5" font-family="Helvetica,sans-Serif" font-size="10.00">delete</text>
</a>
</g>
</g>
<!-- Node2 -->
<g id="node2" class="node">
<title>Node2</title>
<g id="a_node2"><a xlink:href="../../da/d02/binary__search__tree_8c.html#ad50f3debc5323bb7b71933effb64f30f" target="_top" xlink:title="Utilitary procedure to find the greatest key in the left subtree.">
<polygon fill="white" stroke="black" points="80,-0.5 80,-19.5 129,-19.5 129,-0.5 80,-0.5"/>
<text text-anchor="middle" x="104.5" y="-7.5" font-family="Helvetica,sans-Serif" font-size="10.00">getMax</text>
</a>
</g>
</g>
<!-- Node1&#45;&gt;Node2 -->
<g id="edge1" class="edge">
<title>Node1&#45;&gt;Node2</title>
<path fill="none" stroke="midnightblue" d="M44.15,-10C51.97,-10 61.03,-10 69.69,-10"/>
<polygon fill="midnightblue" stroke="midnightblue" points="69.94,-13.5 79.94,-10 69.94,-6.5 69.94,-13.5"/>
</g>
<!-- Node2&#45;&gt;Node2 -->
<g id="edge2" class="edge">
<title>Node2&#45;&gt;Node2</title>
<path fill="none" stroke="midnightblue" d="M91.86,-19.76C85.71,-28.57 89.93,-38 104.5,-38 113.38,-38 118.41,-34.5 119.6,-29.77"/>
<polygon fill="midnightblue" stroke="midnightblue" points="122.93,-28.63 117.14,-19.76 116.13,-30.3 122.93,-28.63"/>
</g>
</g>
</svg>
