<?xml version="1.0" encoding="UTF-8" standalone="no"?>
<!DOCTYPE svg PUBLIC "-//W3C//DTD SVG 1.1//EN"
 "http://www.w3.org/Graphics/SVG/1.1/DTD/svg11.dtd">
<!-- Generated by graphviz version 3.0.0 (20220226.1711)
 -->
<!-- Title: main Pages: 1 -->
<svg width="224pt" height="270pt"
 viewBox="0.00 0.00 224.00 270.00" xmlns="http://www.w3.org/2000/svg" xmlns:xlink="http://www.w3.org/1999/xlink">
<g id="graph0" class="graph" transform="scale(1 1) rotate(0) translate(4 266)">
<title>main</title>
<polygon fill="white" stroke="transparent" points="-4,4 -4,-266 220,-266 220,4 -4,4"/>
<!-- Node1 -->
<g id="node1" class="node">
<title>Node1</title>
<g id="a_node1"><a xlink:title="Main funcion.">
<polygon fill="#bfbfbf" stroke="black" points="0,-112.5 0,-131.5 38,-131.5 38,-112.5 0,-112.5"/>
<text text-anchor="middle" x="19" y="-119.5" font-family="Helvetica,sans-Serif" font-size="10.00">main</text>
</a>
</g>
</g>
<!-- Node2 -->
<g id="node2" class="node">
<title>Node2</title>
<g id="a_node2"><a xlink:href="../../da/d02/binary__search__tree_8c.html#adff4c6248834a9944a1fb03a20230c9c" target="_top" xlink:title="Search procedure, which looks for the input key in the tree and returns 1 if it&#39;s present or 0 if it&#39;...">
<polygon fill="white" stroke="black" points="82,-224.5 82,-243.5 114,-243.5 114,-224.5 82,-224.5"/>
<text text-anchor="middle" x="98" y="-231.5" font-family="Helvetica,sans-Serif" font-size="10.00">find</text>
</a>
</g>
</g>
<!-- Node1&#45;&gt;Node2 -->
<g id="edge1" class="edge">
<title>Node1&#45;&gt;Node2</title>
<path fill="none" stroke="midnightblue" d="M24.22,-131.68C32.23,-149.42 50.94,-187.8 74,-215 74.7,-215.83 75.45,-216.65 76.22,-217.46"/>
<polygon fill="midnightblue" stroke="midnightblue" points="73.89,-220.08 83.61,-224.29 78.64,-214.93 73.89,-220.08"/>
</g>
<!-- Node3 -->
<g id="node3" class="node">
<title>Node3</title>
<g id="a_node3"><a xlink:href="../../da/d02/binary__search__tree_8c.html#ae4a66d8b0c2b0d626aea45977e358c83" target="_top" xlink:title="Utilitary procedure to measure the height of the binary tree.">
<polygon fill="white" stroke="black" points="76.5,-168.5 76.5,-187.5 119.5,-187.5 119.5,-168.5 76.5,-168.5"/>
<text text-anchor="middle" x="98" y="-175.5" font-family="Helvetica,sans-Serif" font-size="10.00">height</text>
</a>
</g>
</g>
<!-- Node1&#45;&gt;Node3 -->
<g id="edge3" class="edge">
<title>Node1&#45;&gt;Node3</title>
<path fill="none" stroke="midnightblue" d="M33.41,-131.75C45.01,-140.19 61.97,-152.53 75.47,-162.34"/>
<polygon fill="midnightblue" stroke="midnightblue" points="73.6,-165.31 83.74,-168.36 77.71,-159.64 73.6,-165.31"/>
</g>
<!-- Node4 -->
<g id="node4" class="node">
<title>Node4</title>
<g id="a_node4"><a xlink:href="../../da/d02/binary__search__tree_8c.html#a0f18adaaca5ecc410cfa16dd2a3684dc" target="_top" xlink:title="Traversal procedure to list the current keys in the tree in order of value (from the left to the righ...">
<polygon fill="white" stroke="black" points="74,-112.5 74,-131.5 122,-131.5 122,-112.5 74,-112.5"/>
<text text-anchor="middle" x="98" y="-119.5" font-family="Helvetica,sans-Serif" font-size="10.00">inOrder</text>
</a>
</g>
</g>
<!-- Node1&#45;&gt;Node4 -->
<g id="edge5" class="edge">
<title>Node1&#45;&gt;Node4</title>
<path fill="none" stroke="midnightblue" d="M38.25,-122C45.92,-122 55.09,-122 63.88,-122"/>
<polygon fill="midnightblue" stroke="midnightblue" points="63.91,-125.5 73.91,-122 63.91,-118.5 63.91,-125.5"/>
</g>
<!-- Node5 -->
<g id="node5" class="node">
<title>Node5</title>
<g id="a_node5"><a xlink:href="../../da/d02/binary__search__tree_8c.html#a031cc98830742bca57c0da81a0fb779f" target="_top" xlink:title="Insertion procedure, which inserts the input key in a new node in the tree.">
<polygon fill="white" stroke="black" points="77.5,-56.5 77.5,-75.5 118.5,-75.5 118.5,-56.5 77.5,-56.5"/>
<text text-anchor="middle" x="98" y="-63.5" font-family="Helvetica,sans-Serif" font-size="10.00">insert</text>
</a>
</g>
</g>
<!-- Node1&#45;&gt;Node5 -->
<g id="edge7" class="edge">
<title>Node1&#45;&gt;Node5</title>
<path fill="none" stroke="midnightblue" d="M33.41,-112.25C45.01,-103.81 61.97,-91.47 75.47,-81.66"/>
<polygon fill="midnightblue" stroke="midnightblue" points="77.71,-84.36 83.74,-75.64 73.6,-78.69 77.71,-84.36"/>
</g>
<!-- Node7 -->
<g id="node7" class="node">
<title>Node7</title>
<g id="a_node7"><a xlink:href="../../da/d02/binary__search__tree_8c.html#a01151353aa2d9688934ed39208133241" target="_top" xlink:title="Utilitary procedure to free all nodes in a tree.">
<polygon fill="white" stroke="black" points="77.5,-0.5 77.5,-19.5 118.5,-19.5 118.5,-0.5 77.5,-0.5"/>
<text text-anchor="middle" x="98" y="-7.5" font-family="Helvetica,sans-Serif" font-size="10.00">purge</text>
</a>
</g>
</g>
<!-- Node1&#45;&gt;Node7 -->
<g id="edge10" class="edge">
<title>Node1&#45;&gt;Node7</title>
<path fill="none" stroke="midnightblue" d="M26.56,-112.45C39.41,-93.77 68.04,-52.12 84.57,-28.08"/>
<polygon fill="midnightblue" stroke="midnightblue" points="87.67,-29.75 90.45,-19.52 81.9,-25.78 87.67,-29.75"/>
</g>
<!-- Node2&#45;&gt;Node2 -->
<g id="edge2" class="edge">
<title>Node2&#45;&gt;Node2</title>
<path fill="none" stroke="midnightblue" d="M85.98,-243.76C80.13,-252.57 84.14,-262 98,-262 106.45,-262 111.24,-258.5 112.36,-253.77"/>
<polygon fill="midnightblue" stroke="midnightblue" points="115.71,-252.7 110.02,-243.76 108.89,-254.29 115.71,-252.7"/>
</g>
<!-- Node3&#45;&gt;Node3 -->
<g id="edge4" class="edge">
<title>Node3&#45;&gt;Node3</title>
<path fill="none" stroke="midnightblue" d="M85.98,-187.76C80.13,-196.57 84.14,-206 98,-206 106.45,-206 111.24,-202.5 112.36,-197.77"/>
<polygon fill="midnightblue" stroke="midnightblue" points="115.71,-196.7 110.02,-187.76 108.89,-198.29 115.71,-196.7"/>
</g>
<!-- Node4&#45;&gt;Node4 -->
<g id="edge6" class="edge">
<title>Node4&#45;&gt;Node4</title>
<path fill="none" stroke="midnightblue" d="M85.98,-131.76C80.13,-140.57 84.14,-150 98,-150 106.45,-150 111.24,-146.5 112.36,-141.77"/>
<polygon fill="midnightblue" stroke="midnightblue" points="115.71,-140.7 110.02,-131.76 108.89,-142.29 115.71,-140.7"/>
</g>
<!-- Node5&#45;&gt;Node5 -->
<g id="edge8" class="edge">
<title>Node5&#45;&gt;Node5</title>
<path fill="none" stroke="midnightblue" d="M85.98,-75.76C80.13,-84.57 84.14,-94 98,-94 106.45,-94 111.24,-90.5 112.36,-85.77"/>
<polygon fill="midnightblue" stroke="midnightblue" points="115.71,-84.7 110.02,-75.76 108.89,-86.29 115.71,-84.7"/>
</g>
<!-- Node6 -->
<g id="node6" class="node">
<title>Node6</title>
<g id="a_node6"><a xlink:href="../../da/d02/binary__search__tree_8c.html#adf2169c1008551b20c4a59fcf0c9ab3b" target="_top" xlink:title="The node constructor, which receives the key value input and returns a node pointer.">
<polygon fill="white" stroke="black" points="158,-56.5 158,-75.5 216,-75.5 216,-56.5 158,-56.5"/>
<text text-anchor="middle" x="187" y="-63.5" font-family="Helvetica,sans-Serif" font-size="10.00">newNode</text>
</a>
</g>
</g>
<!-- Node5&#45;&gt;Node6 -->
<g id="edge9" class="edge">
<title>Node5&#45;&gt;Node6</title>
<path fill="none" stroke="midnightblue" d="M118.74,-66C127.3,-66 137.63,-66 147.59,-66"/>
<polygon fill="midnightblue" stroke="midnightblue" points="147.76,-69.5 157.76,-66 147.76,-62.5 147.76,-69.5"/>
</g>
<!-- Node7&#45;&gt;Node7 -->
<g id="edge11" class="edge">
<title>Node7&#45;&gt;Node7</title>
<path fill="none" stroke="midnightblue" d="M85.98,-19.76C80.13,-28.57 84.14,-38 98,-38 106.45,-38 111.24,-34.5 112.36,-29.77"/>
<polygon fill="midnightblue" stroke="midnightblue" points="115.71,-28.7 110.02,-19.76 108.89,-30.29 115.71,-28.7"/>
</g>
</g>
</svg>
