<?xml version="1.0" encoding="UTF-8" standalone="no"?>
<!DOCTYPE svg PUBLIC "-//W3C//DTD SVG 1.1//EN"
 "http://www.w3.org/Graphics/SVG/1.1/DTD/svg11.dtd">
<!-- Generated by graphviz version 2.49.3 (20211023.0002)
 -->
<!-- Title: main Pages: 1 -->
<svg width="227pt" height="270pt"
 viewBox="0.00 0.00 227.00 270.00" xmlns="http://www.w3.org/2000/svg" xmlns:xlink="http://www.w3.org/1999/xlink">
<g id="graph0" class="graph" transform="scale(1 1) rotate(0) translate(4 266)">
<title>main</title>
<polygon fill="white" stroke="transparent" points="-4,4 -4,-266 223,-266 223,4 -4,4"/>
<!-- Node1 -->
<g id="node1" class="node">
<title>Node1</title>
<g id="a_node1"><a xlink:title="Main funcion.">
<polygon fill="#bfbfbf" stroke="black" points="0,-112.5 0,-131.5 38,-131.5 38,-112.5 0,-112.5"/>
<text text-anchor="middle" x="19" y="-119.5" font-family="Helvetica,sans-Serif" font-size="10.00">main</text>
</a>
</g>
</g>
<!-- Node2 -->
<g id="node2" class="node">
<title>Node2</title>
<g id="a_node2"><a xlink:href="../../da/d02/binary__search__tree_8c.html#adff4c6248834a9944a1fb03a20230c9c" target="_top" xlink:title="Search procedure, which looks for the input key in the tree and returns 1 if it&#39;s present or 0 if it&#39;...">
<polygon fill="white" stroke="black" points="82.5,-224.5 82.5,-243.5 115.5,-243.5 115.5,-224.5 82.5,-224.5"/>
<text text-anchor="middle" x="99" y="-231.5" font-family="Helvetica,sans-Serif" font-size="10.00">find</text>
</a>
</g>
</g>
<!-- Node1&#45;&gt;Node2 -->
<g id="edge1" class="edge">
<title>Node1&#45;&gt;Node2</title>
<path fill="none" stroke="midnightblue" d="M24.16,-131.73C32.09,-149.54 50.66,-188.04 74,-215 74.73,-215.84 75.5,-216.68 76.3,-217.5"/>
<polygon fill="midnightblue" stroke="midnightblue" points="74.22,-220.32 84.01,-224.36 78.88,-215.1 74.22,-220.32"/>
</g>
<!-- Node3 -->
<g id="node3" class="node">
<title>Node3</title>
<g id="a_node3"><a xlink:href="../../da/d02/binary__search__tree_8c.html#ae4a66d8b0c2b0d626aea45977e358c83" target="_top" xlink:title="Utilitary procedure to measure the height of the binary tree.">
<polygon fill="white" stroke="black" points="77,-168.5 77,-187.5 121,-187.5 121,-168.5 77,-168.5"/>
<text text-anchor="middle" x="99" y="-175.5" font-family="Helvetica,sans-Serif" font-size="10.00">height</text>
</a>
</g>
</g>
<!-- Node1&#45;&gt;Node3 -->
<g id="edge3" class="edge">
<title>Node1&#45;&gt;Node3</title>
<path fill="none" stroke="midnightblue" d="M33.59,-131.75C45.33,-140.19 62.52,-152.53 76.19,-162.34"/>
<polygon fill="midnightblue" stroke="midnightblue" points="74.4,-165.37 84.57,-168.36 78.49,-159.68 74.4,-165.37"/>
</g>
<!-- Node4 -->
<g id="node4" class="node">
<title>Node4</title>
<g id="a_node4"><a xlink:href="../../da/d02/binary__search__tree_8c.html#a0f18adaaca5ecc410cfa16dd2a3684dc" target="_top" xlink:title="Traversal procedure to list the current keys in the tree in order of value (from the left to the righ...">
<polygon fill="white" stroke="black" points="74,-112.5 74,-131.5 124,-131.5 124,-112.5 74,-112.5"/>
<text text-anchor="middle" x="99" y="-119.5" font-family="Helvetica,sans-Serif" font-size="10.00">inOrder</text>
</a>
</g>
</g>
<!-- Node1&#45;&gt;Node4 -->
<g id="edge5" class="edge">
<title>Node1&#45;&gt;Node4</title>
<path fill="none" stroke="midnightblue" d="M38.09,-122C45.72,-122 54.88,-122 63.7,-122"/>
<polygon fill="midnightblue" stroke="midnightblue" points="63.8,-125.5 73.8,-122 63.8,-118.5 63.8,-125.5"/>
</g>
<!-- Node5 -->
<g id="node5" class="node">
<title>Node5</title>
<g id="a_node5"><a xlink:href="../../da/d02/binary__search__tree_8c.html#a031cc98830742bca57c0da81a0fb779f" target="_top" xlink:title="Insertion procedure, which inserts the input key in a new node in the tree.">
<polygon fill="white" stroke="black" points="78.5,-56.5 78.5,-75.5 119.5,-75.5 119.5,-56.5 78.5,-56.5"/>
<text text-anchor="middle" x="99" y="-63.5" font-family="Helvetica,sans-Serif" font-size="10.00">insert</text>
</a>
</g>
</g>
<!-- Node1&#45;&gt;Node5 -->
<g id="edge7" class="edge">
<title>Node1&#45;&gt;Node5</title>
<path fill="none" stroke="midnightblue" d="M33.59,-112.25C45.33,-103.81 62.52,-91.47 76.19,-81.66"/>
<polygon fill="midnightblue" stroke="midnightblue" points="78.49,-84.32 84.57,-75.64 74.4,-78.63 78.49,-84.32"/>
</g>
<!-- Node7 -->
<g id="node7" class="node">
<title>Node7</title>
<g id="a_node7"><a xlink:href="../../da/d02/binary__search__tree_8c.html#a01151353aa2d9688934ed39208133241" target="_top" xlink:title="Utilitary procedure to free all nodes in a tree.">
<polygon fill="white" stroke="black" points="78,-0.5 78,-19.5 120,-19.5 120,-0.5 78,-0.5"/>
<text text-anchor="middle" x="99" y="-7.5" font-family="Helvetica,sans-Serif" font-size="10.00">purge</text>
</a>
</g>
</g>
<!-- Node1&#45;&gt;Node7 -->
<g id="edge10" class="edge">
<title>Node1&#45;&gt;Node7</title>
<path fill="none" stroke="midnightblue" d="M26.65,-112.45C39.72,-93.69 68.92,-51.75 85.63,-27.76"/>
<polygon fill="midnightblue" stroke="midnightblue" points="88.52,-29.73 91.37,-19.52 82.78,-25.73 88.52,-29.73"/>
</g>
<!-- Node2&#45;&gt;Node2 -->
<g id="edge2" class="edge">
<title>Node2&#45;&gt;Node2</title>
<path fill="none" stroke="midnightblue" d="M86.67,-243.76C80.67,-252.57 84.78,-262 99,-262 107.66,-262 112.58,-258.5 113.73,-253.77"/>
<polygon fill="midnightblue" stroke="midnightblue" points="117.07,-252.66 111.33,-243.76 110.26,-254.3 117.07,-252.66"/>
</g>
<!-- Node3&#45;&gt;Node3 -->
<g id="edge4" class="edge">
<title>Node3&#45;&gt;Node3</title>
<path fill="none" stroke="midnightblue" d="M86.67,-187.76C80.67,-196.57 84.78,-206 99,-206 107.66,-206 112.58,-202.5 113.73,-197.77"/>
<polygon fill="midnightblue" stroke="midnightblue" points="117.07,-196.66 111.33,-187.76 110.26,-198.3 117.07,-196.66"/>
</g>
<!-- Node4&#45;&gt;Node4 -->
<g id="edge6" class="edge">
<title>Node4&#45;&gt;Node4</title>
<path fill="none" stroke="midnightblue" d="M86.67,-131.76C80.67,-140.57 84.78,-150 99,-150 107.66,-150 112.58,-146.5 113.73,-141.77"/>
<polygon fill="midnightblue" stroke="midnightblue" points="117.07,-140.66 111.33,-131.76 110.26,-142.3 117.07,-140.66"/>
</g>
<!-- Node5&#45;&gt;Node5 -->
<g id="edge8" class="edge">
<title>Node5&#45;&gt;Node5</title>
<path fill="none" stroke="midnightblue" d="M86.67,-75.76C80.67,-84.57 84.78,-94 99,-94 107.66,-94 112.58,-90.5 113.73,-85.77"/>
<polygon fill="midnightblue" stroke="midnightblue" points="117.07,-84.66 111.33,-75.76 110.26,-86.3 117.07,-84.66"/>
</g>
<!-- Node6 -->
<g id="node6" class="node">
<title>Node6</title>
<g id="a_node6"><a xlink:href="../../da/d02/binary__search__tree_8c.html#adf2169c1008551b20c4a59fcf0c9ab3b" target="_top" xlink:title="The node constructor, which receives the key value input and returns a node pointer.">
<polygon fill="white" stroke="black" points="160,-56.5 160,-75.5 219,-75.5 219,-56.5 160,-56.5"/>
<text text-anchor="middle" x="189.5" y="-63.5" font-family="Helvetica,sans-Serif" font-size="10.00">newNode</text>
</a>
</g>
</g>
<!-- Node5&#45;&gt;Node6 -->
<g id="edge9" class="edge">
<title>Node5&#45;&gt;Node6</title>
<path fill="none" stroke="midnightblue" d="M119.64,-66C128.5,-66 139.29,-66 149.68,-66"/>
<polygon fill="midnightblue" stroke="midnightblue" points="149.84,-69.5 159.84,-66 149.84,-62.5 149.84,-69.5"/>
</g>
<!-- Node7&#45;&gt;Node7 -->
<g id="edge11" class="edge">
<title>Node7&#45;&gt;Node7</title>
<path fill="none" stroke="midnightblue" d="M86.67,-19.76C80.67,-28.57 84.78,-38 99,-38 107.66,-38 112.58,-34.5 113.73,-29.77"/>
<polygon fill="midnightblue" stroke="midnightblue" points="117.07,-28.66 111.33,-19.76 110.26,-30.3 117.07,-28.66"/>
</g>
</g>
</svg>
