<?xml version="1.0" encoding="UTF-8" standalone="no"?>
<!DOCTYPE svg PUBLIC "-//W3C//DTD SVG 1.1//EN"
 "http://www.w3.org/Graphics/SVG/1.1/DTD/svg11.dtd">
<!-- Generated by graphviz version 8.0.5 (20230430.1635)
 -->
<!-- Title: main Pages: 1 -->
<svg width="222pt" height="265pt"
 viewBox="0.00 0.00 221.75 265.25" xmlns="http://www.w3.org/2000/svg" xmlns:xlink="http://www.w3.org/1999/xlink">
<g id="graph0" class="graph" transform="scale(1 1) rotate(0) translate(4 261.25)">
<title>main</title>
<!-- Node1 -->
<g id="Node000001" class="node">
<title>Node1</title>
<g id="a_Node000001"><a xlink:title="Main funcion.">
<polygon fill="#999999" stroke="#666666" points="37,-129.25 0,-129.25 0,-110 37,-110 37,-129.25"/>
<text text-anchor="middle" x="18.5" y="-115.75" font-family="Helvetica,sans-Serif" font-size="10.00">main</text>
</a>
</g>
</g>
<!-- Node2 -->
<g id="Node000002" class="node">
<title>Node2</title>
<g id="a_Node000002"><a xlink:href="../../da/d02/binary__search__tree_8c.html#adff4c6248834a9944a1fb03a20230c9c" target="_top" xlink:title="Search procedure, which looks for the input key in the tree and returns 1 if it&#39;s present or 0 if it&#39;...">
<polygon fill="white" stroke="#666666" points="112.62,-239.25 80.88,-239.25 80.88,-220 112.62,-220 112.62,-239.25"/>
<text text-anchor="middle" x="96.75" y="-225.75" font-family="Helvetica,sans-Serif" font-size="10.00">find</text>
</a>
</g>
</g>
<!-- Node1&#45;&gt;Node2 -->
<g id="edge1_Node000001_Node000002" class="edge">
<title>Node1&#45;&gt;Node2</title>
<g id="a_edge1_Node000001_Node000002"><a xlink:title=" ">
<path fill="none" stroke="#63b8ff" d="M23.75,-129.53C31.68,-147.27 50.01,-185.1 73,-211.62 73.24,-211.9 73.47,-212.17 73.72,-212.43"/>
<polygon fill="#63b8ff" stroke="#63b8ff" points="70.84,-214.47 80.54,-218.73 75.62,-209.35 70.84,-214.47"/>
</a>
</g>
</g>
<!-- Node3 -->
<g id="Node000003" class="node">
<title>Node3</title>
<g id="a_Node000003"><a xlink:href="../../da/d02/binary__search__tree_8c.html#ae4a66d8b0c2b0d626aea45977e358c83" target="_top" xlink:title="Utilitary procedure to measure the height of the binary tree.">
<polygon fill="white" stroke="#666666" points="117.88,-184.25 75.62,-184.25 75.62,-165 117.88,-165 117.88,-184.25"/>
<text text-anchor="middle" x="96.75" y="-170.75" font-family="Helvetica,sans-Serif" font-size="10.00">height</text>
</a>
</g>
</g>
<!-- Node1&#45;&gt;Node3 -->
<g id="edge3_Node000001_Node000003" class="edge">
<title>Node1&#45;&gt;Node3</title>
<g id="a_edge3_Node000001_Node000003"><a xlink:title=" ">
<path fill="none" stroke="#63b8ff" d="M33.49,-129.71C44.56,-137.7 60.24,-149.01 73.1,-158.29"/>
<polygon fill="#63b8ff" stroke="#63b8ff" points="70.7,-161.59 80.85,-164.6 74.79,-155.91 70.7,-161.59"/>
</a>
</g>
</g>
<!-- Node4 -->
<g id="Node000004" class="node">
<title>Node4</title>
<g id="a_Node000004"><a xlink:href="../../da/d02/binary__search__tree_8c.html#a0f18adaaca5ecc410cfa16dd2a3684dc" target="_top" xlink:title="Traversal procedure to list the current keys in the tree in order of value (from the left to the righ...">
<polygon fill="white" stroke="#666666" points="120.5,-129.25 73,-129.25 73,-110 120.5,-110 120.5,-129.25"/>
<text text-anchor="middle" x="96.75" y="-115.75" font-family="Helvetica,sans-Serif" font-size="10.00">inOrder</text>
</a>
</g>
</g>
<!-- Node1&#45;&gt;Node4 -->
<g id="edge5_Node000001_Node000004" class="edge">
<title>Node1&#45;&gt;Node4</title>
<g id="a_edge5_Node000001_Node000004"><a xlink:title=" ">
<path fill="none" stroke="#63b8ff" d="M37.18,-119.62C44.53,-119.62 53.3,-119.62 61.8,-119.62"/>
<polygon fill="#63b8ff" stroke="#63b8ff" points="61.67,-123.13 71.67,-119.62 61.67,-116.13 61.67,-123.13"/>
</a>
</g>
</g>
<!-- Node5 -->
<g id="Node000005" class="node">
<title>Node5</title>
<g id="a_Node000005"><a xlink:href="../../da/d02/binary__search__tree_8c.html#a031cc98830742bca57c0da81a0fb779f" target="_top" xlink:title="Insertion procedure, which inserts the input key in a new node in the tree.">
<polygon fill="white" stroke="#666666" points="116.75,-74.25 76.75,-74.25 76.75,-55 116.75,-55 116.75,-74.25"/>
<text text-anchor="middle" x="96.75" y="-60.75" font-family="Helvetica,sans-Serif" font-size="10.00">insert</text>
</a>
</g>
</g>
<!-- Node1&#45;&gt;Node5 -->
<g id="edge7_Node000001_Node000005" class="edge">
<title>Node1&#45;&gt;Node5</title>
<g id="a_edge7_Node000001_Node000005"><a xlink:title=" ">
<path fill="none" stroke="#63b8ff" d="M33.49,-109.54C44.56,-101.55 60.24,-90.24 73.1,-80.96"/>
<polygon fill="#63b8ff" stroke="#63b8ff" points="74.79,-83.34 80.85,-74.65 70.7,-77.66 74.79,-83.34"/>
</a>
</g>
</g>
<!-- Node7 -->
<g id="Node000007" class="node">
<title>Node7</title>
<g id="a_Node000007"><a xlink:href="../../da/d02/binary__search__tree_8c.html#a01151353aa2d9688934ed39208133241" target="_top" xlink:title="Utilitary procedure to free all nodes in a tree.">
<polygon fill="white" stroke="#666666" points="116.75,-19.25 76.75,-19.25 76.75,0 116.75,0 116.75,-19.25"/>
<text text-anchor="middle" x="96.75" y="-5.75" font-family="Helvetica,sans-Serif" font-size="10.00">purge</text>
</a>
</g>
</g>
<!-- Node1&#45;&gt;Node7 -->
<g id="edge10_Node000001_Node000007" class="edge">
<title>Node1&#45;&gt;Node7</title>
<g id="a_edge10_Node000001_Node000007"><a xlink:title=" ">
<path fill="none" stroke="#63b8ff" d="M26.27,-109.86C38.95,-91.56 66.5,-51.82 82.84,-28.25"/>
<polygon fill="#63b8ff" stroke="#63b8ff" points="86.07,-30.74 88.89,-20.52 80.32,-26.75 86.07,-30.74"/>
</a>
</g>
</g>
<!-- Node2&#45;&gt;Node2 -->
<g id="edge2_Node000002_Node000002" class="edge">
<title>Node2&#45;&gt;Node2</title>
<g id="a_edge2_Node000002_Node000002"><a xlink:title=" ">
<path fill="none" stroke="#63b8ff" d="M84.5,-239.54C78.91,-248.15 83,-257.25 96.75,-257.25 104.49,-257.25 109.16,-254.37 110.78,-250.32"/>
<polygon fill="#63b8ff" stroke="#63b8ff" points="114.08,-249.83 109,-240.54 107.18,-250.97 114.08,-249.83"/>
</a>
</g>
</g>
<!-- Node3&#45;&gt;Node3 -->
<g id="edge4_Node000003_Node000003" class="edge">
<title>Node3&#45;&gt;Node3</title>
<g id="a_edge4_Node000003_Node000003"><a xlink:title=" ">
<path fill="none" stroke="#63b8ff" d="M84.5,-184.54C78.91,-193.15 83,-202.25 96.75,-202.25 104.49,-202.25 109.16,-199.37 110.78,-195.32"/>
<polygon fill="#63b8ff" stroke="#63b8ff" points="114.08,-194.83 109,-185.54 107.18,-195.97 114.08,-194.83"/>
</a>
</g>
</g>
<!-- Node4&#45;&gt;Node4 -->
<g id="edge6_Node000004_Node000004" class="edge">
<title>Node4&#45;&gt;Node4</title>
<g id="a_edge6_Node000004_Node000004"><a xlink:title=" ">
<path fill="none" stroke="#63b8ff" d="M84.5,-129.54C78.91,-138.15 83,-147.25 96.75,-147.25 104.49,-147.25 109.16,-144.37 110.78,-140.32"/>
<polygon fill="#63b8ff" stroke="#63b8ff" points="114.08,-139.83 109,-130.54 107.18,-140.97 114.08,-139.83"/>
</a>
</g>
</g>
<!-- Node5&#45;&gt;Node5 -->
<g id="edge8_Node000005_Node000005" class="edge">
<title>Node5&#45;&gt;Node5</title>
<g id="a_edge8_Node000005_Node000005"><a xlink:title=" ">
<path fill="none" stroke="#63b8ff" d="M84.5,-74.54C78.91,-83.15 83,-92.25 96.75,-92.25 104.49,-92.25 109.16,-89.37 110.78,-85.32"/>
<polygon fill="#63b8ff" stroke="#63b8ff" points="114.08,-84.83 109,-75.54 107.18,-85.97 114.08,-84.83"/>
</a>
</g>
</g>
<!-- Node6 -->
<g id="Node000006" class="node">
<title>Node6</title>
<g id="a_Node000006"><a xlink:href="../../da/d02/binary__search__tree_8c.html#adf2169c1008551b20c4a59fcf0c9ab3b" target="_top" xlink:title="The node constructor, which receives the key value input and returns a node pointer.">
<polygon fill="white" stroke="#666666" points="213.75,-74.25 156.5,-74.25 156.5,-55 213.75,-55 213.75,-74.25"/>
<text text-anchor="middle" x="185.12" y="-60.75" font-family="Helvetica,sans-Serif" font-size="10.00">newNode</text>
</a>
</g>
</g>
<!-- Node5&#45;&gt;Node6 -->
<g id="edge9_Node000005_Node000006" class="edge">
<title>Node5&#45;&gt;Node6</title>
<g id="a_edge9_Node000005_Node000006"><a xlink:title=" ">
<path fill="none" stroke="#63b8ff" d="M116.92,-64.62C125.3,-64.62 135.44,-64.62 145.28,-64.62"/>
<polygon fill="#63b8ff" stroke="#63b8ff" points="145.16,-68.13 155.16,-64.62 145.16,-61.13 145.16,-68.13"/>
</a>
</g>
</g>
<!-- Node7&#45;&gt;Node7 -->
<g id="edge11_Node000007_Node000007" class="edge">
<title>Node7&#45;&gt;Node7</title>
<g id="a_edge11_Node000007_Node000007"><a xlink:title=" ">
<path fill="none" stroke="#63b8ff" d="M84.5,-19.54C78.91,-28.15 83,-37.25 96.75,-37.25 104.49,-37.25 109.16,-34.37 110.78,-30.32"/>
<polygon fill="#63b8ff" stroke="#63b8ff" points="114.08,-29.83 109,-20.54 107.18,-30.97 114.08,-29.83"/>
</a>
</g>
</g>
</g>
</svg>
