<?xml version="1.0" encoding="UTF-8" standalone="no"?>
<!DOCTYPE svg PUBLIC "-//W3C//DTD SVG 1.1//EN"
 "http://www.w3.org/Graphics/SVG/1.1/DTD/svg11.dtd">
<!-- Generated by graphviz version 8.0.2 (20230410.1723)
 -->
<!-- Title: client_server/client.c Pages: 1 -->
<svg width="496pt" height="82pt"
 viewBox="0.00 0.00 495.50 82.00" xmlns="http://www.w3.org/2000/svg" xmlns:xlink="http://www.w3.org/1999/xlink">
<g id="graph0" class="graph" transform="scale(1 1) rotate(0) translate(4 78)">
<title>client_server/client.c</title>
<!-- Node1 -->
<g id="node1" class="node">
<title>Node1</title>
<g id="a_node1"><a xlink:title="Client side implementation of Server&#45;Client system.">
<polygon fill="#999999" stroke="#666666" points="282.5,-74 175.5,-74 175.5,-55 282.5,-55 282.5,-74"/>
<text text-anchor="middle" x="229" y="-62" font-family="Helvetica,sans-Serif" font-size="10.00">client_server/client.c</text>
</a>
</g>
</g>
<!-- Node2 -->
<g id="node2" class="node">
<title>Node2</title>
<g id="a_node2"><a xlink:title=" ">
<polygon fill="#e0e0e0" stroke="#999999" points="46,-19 0,-19 0,0 46,0 46,-19"/>
<text text-anchor="middle" x="23" y="-7" font-family="Helvetica,sans-Serif" font-size="10.00">stdio.h</text>
</a>
</g>
</g>
<!-- Node1&#45;&gt;Node2 -->
<g id="edge1" class="edge">
<title>Node1&#45;&gt;Node2</title>
<path fill="none" stroke="#63b8ff" d="M193.65,-54.56C160.68,-46.2 109.83,-33.25 57,-19.5"/>
<polygon fill="#63b8ff" stroke="#63b8ff" points="57.97,-15.88 47.41,-16.75 56.21,-22.65 57.97,-15.88"/>
</g>
<!-- Node3 -->
<g id="node3" class="node">
<title>Node3</title>
<g id="a_node3"><a xlink:title=" ">
<polygon fill="#e0e0e0" stroke="#999999" points="112,-19 64,-19 64,0 112,0 112,-19"/>
<text text-anchor="middle" x="88" y="-7" font-family="Helvetica,sans-Serif" font-size="10.00">stdlib.h</text>
</a>
</g>
</g>
<!-- Node1&#45;&gt;Node3 -->
<g id="edge2" class="edge">
<title>Node1&#45;&gt;Node3</title>
<path fill="none" stroke="#63b8ff" d="M205.08,-54.51C182.15,-45.89 147.33,-32.8 121.62,-23.14"/>
<polygon fill="#63b8ff" stroke="#63b8ff" points="123.16,-19.6 112.57,-19.36 120.69,-26.15 123.16,-19.6"/>
</g>
<!-- Node4 -->
<g id="node4" class="node">
<title>Node4</title>
<g id="a_node4"><a xlink:title=" ">
<polygon fill="#e0e0e0" stroke="#999999" points="179.5,-19 130.5,-19 130.5,0 179.5,0 179.5,-19"/>
<text text-anchor="middle" x="155" y="-7" font-family="Helvetica,sans-Serif" font-size="10.00">string.h</text>
</a>
</g>
</g>
<!-- Node1&#45;&gt;Node4 -->
<g id="edge3" class="edge">
<title>Node1&#45;&gt;Node4</title>
<path fill="none" stroke="#63b8ff" d="M216.45,-54.51C205.43,-46.62 189.18,-34.98 176.16,-25.65"/>
<polygon fill="#63b8ff" stroke="#63b8ff" points="178.54,-22.34 168.37,-19.36 174.46,-28.03 178.54,-22.34"/>
</g>
<!-- Node5 -->
<g id="node5" class="node">
<title>Node5</title>
<g id="a_node5"><a xlink:title=" ">
<polygon fill="#e0e0e0" stroke="#999999" points="260,-19 198,-19 198,0 260,0 260,-19"/>
<text text-anchor="middle" x="229" y="-7" font-family="Helvetica,sans-Serif" font-size="10.00">arpa/inet.h</text>
</a>
</g>
</g>
<!-- Node1&#45;&gt;Node5 -->
<g id="edge4" class="edge">
<title>Node1&#45;&gt;Node5</title>
<path fill="none" stroke="#63b8ff" d="M229,-54.75C229,-48.11 229,-38.73 229,-30.31"/>
<polygon fill="#63b8ff" stroke="#63b8ff" points="232.5,-30.44 229,-20.44 225.5,-30.44 232.5,-30.44"/>
</g>
<!-- Node6 -->
<g id="node6" class="node">
<title>Node6</title>
<g id="a_node6"><a xlink:title=" ">
<polygon fill="#e0e0e0" stroke="#999999" points="327.5,-19 278.5,-19 278.5,0 327.5,0 327.5,-19"/>
<text text-anchor="middle" x="303" y="-7" font-family="Helvetica,sans-Serif" font-size="10.00">netdb.h</text>
</a>
</g>
</g>
<!-- Node1&#45;&gt;Node6 -->
<g id="edge5" class="edge">
<title>Node1&#45;&gt;Node6</title>
<path fill="none" stroke="#63b8ff" d="M241.55,-54.51C252.57,-46.62 268.82,-34.98 281.84,-25.65"/>
<polygon fill="#63b8ff" stroke="#63b8ff" points="283.54,-28.03 289.63,-19.36 279.46,-22.34 283.54,-28.03"/>
</g>
<!-- Node7 -->
<g id="node7" class="node">
<title>Node7</title>
<g id="a_node7"><a xlink:title=" ">
<polygon fill="#e0e0e0" stroke="#999999" points="418.5,-19 345.5,-19 345.5,0 418.5,0 418.5,-19"/>
<text text-anchor="middle" x="382" y="-7" font-family="Helvetica,sans-Serif" font-size="10.00">sys/socket.h</text>
</a>
</g>
</g>
<!-- Node1&#45;&gt;Node7 -->
<g id="edge6" class="edge">
<title>Node1&#45;&gt;Node7</title>
<path fill="none" stroke="#63b8ff" d="M254.95,-54.51C279.98,-45.84 318.06,-32.65 346.01,-22.97"/>
<polygon fill="#63b8ff" stroke="#63b8ff" points="346.87,-26.03 355.17,-19.45 344.58,-19.41 346.87,-26.03"/>
</g>
<!-- Node8 -->
<g id="node8" class="node">
<title>Node8</title>
<g id="a_node8"><a xlink:title=" ">
<polygon fill="#e0e0e0" stroke="#999999" points="487.5,-19 436.5,-19 436.5,0 487.5,0 487.5,-19"/>
<text text-anchor="middle" x="462" y="-7" font-family="Helvetica,sans-Serif" font-size="10.00">unistd.h</text>
</a>
</g>
</g>
<!-- Node1&#45;&gt;Node8 -->
<g id="edge7" class="edge">
<title>Node1&#45;&gt;Node8</title>
<path fill="none" stroke="#63b8ff" d="M270.61,-54.51C308.64,-46.23 366.7,-33.4 425.44,-19.57"/>
<polygon fill="#63b8ff" stroke="#63b8ff" points="426.1,-22.77 435.03,-17.06 424.49,-15.96 426.1,-22.77"/>
</g>
</g>
</svg>
