<?xml version="1.0" encoding="UTF-8" standalone="no"?>
<!DOCTYPE svg PUBLIC "-//W3C//DTD SVG 1.1//EN"
 "http://www.w3.org/Graphics/SVG/1.1/DTD/svg11.dtd">
<!-- Generated by graphviz version 8.0.5 (20230430.1635)
 -->
<!-- Title: project_euler/problem_10/sol1.c Pages: 1 -->
<svg width="183pt" height="94pt"
 viewBox="0.00 0.00 182.75 93.75" xmlns="http://www.w3.org/2000/svg" xmlns:xlink="http://www.w3.org/1999/xlink">
<g id="graph0" class="graph" transform="scale(1 1) rotate(0) translate(4 89.75)">
<title>project_euler/problem_10/sol1.c</title>
<!-- Node1 -->
<g id="Node000001" class="node">
<title>Node1</title>
<g id="a_Node000001"><a xlink:title="Problem 10 solution">
<polygon fill="#999999" stroke="#666666" points="141.5,-85.75 32.5,-85.75 32.5,-55.25 141.5,-55.25 141.5,-85.75"/>
<text text-anchor="start" x="40.5" y="-72.25" font-family="Helvetica,sans-Serif" font-size="10.00">project_euler/problem</text>
<text text-anchor="middle" x="87" y="-61" font-family="Helvetica,sans-Serif" font-size="10.00">_10/sol1.c</text>
</a>
</g>
</g>
<!-- Node2 -->
<g id="Node000002" class="node">
<title>Node2</title>
<g id="a_Node000002"><a xlink:title=" ">
<polygon fill="#e0e0e0" stroke="#999999" points="46,-19.25 0,-19.25 0,0 46,0 46,-19.25"/>
<text text-anchor="middle" x="23" y="-5.75" font-family="Helvetica,sans-Serif" font-size="10.00">math.h</text>
</a>
</g>
</g>
<!-- Node1&#45;&gt;Node2 -->
<g id="edge1_Node000001_Node000002" class="edge">
<title>Node1&#45;&gt;Node2</title>
<g id="a_edge1_Node000001_Node000002"><a xlink:title=" ">
<path fill="none" stroke="#63b8ff" d="M71.18,-54.95C62,-46.5 50.4,-35.83 40.89,-27.08"/>
<polygon fill="#63b8ff" stroke="#63b8ff" points="43.6,-24.9 33.87,-20.7 38.86,-30.05 43.6,-24.9"/>
</a>
</g>
</g>
<!-- Node3 -->
<g id="Node000003" class="node">
<title>Node3</title>
<g id="a_Node000003"><a xlink:title=" ">
<polygon fill="#e0e0e0" stroke="#999999" points="109.62,-19.25 64.38,-19.25 64.38,0 109.62,0 109.62,-19.25"/>
<text text-anchor="middle" x="87" y="-5.75" font-family="Helvetica,sans-Serif" font-size="10.00">stdio.h</text>
</a>
</g>
</g>
<!-- Node1&#45;&gt;Node3 -->
<g id="edge2_Node000001_Node000003" class="edge">
<title>Node1&#45;&gt;Node3</title>
<g id="a_edge2_Node000001_Node000003"><a xlink:title=" ">
<path fill="none" stroke="#63b8ff" d="M87,-54.95C87,-47.62 87,-38.62 87,-30.66"/>
<polygon fill="#63b8ff" stroke="#63b8ff" points="90.5,-30.7 87,-20.7 83.5,-30.7 90.5,-30.7"/>
</a>
</g>
</g>
<!-- Node4 -->
<g id="Node000004" class="node">
<title>Node4</title>
<g id="a_Node000004"><a xlink:title=" ">
<polygon fill="#e0e0e0" stroke="#999999" points="174.75,-19.25 127.25,-19.25 127.25,0 174.75,0 174.75,-19.25"/>
<text text-anchor="middle" x="151" y="-5.75" font-family="Helvetica,sans-Serif" font-size="10.00">stdlib.h</text>
</a>
</g>
</g>
<!-- Node1&#45;&gt;Node4 -->
<g id="edge3_Node000001_Node000004" class="edge">
<title>Node1&#45;&gt;Node4</title>
<g id="a_edge3_Node000001_Node000004"><a xlink:title=" ">
<path fill="none" stroke="#63b8ff" d="M102.82,-54.95C112,-46.5 123.6,-35.83 133.11,-27.08"/>
<polygon fill="#63b8ff" stroke="#63b8ff" points="135.14,-30.05 140.13,-20.7 130.4,-24.9 135.14,-30.05"/>
</a>
</g>
</g>
</g>
</svg>
