<?xml version="1.0" encoding="UTF-8" standalone="no"?>
<!DOCTYPE svg PUBLIC "-//W3C//DTD SVG 1.1//EN"
 "http://www.w3.org/Graphics/SVG/1.1/DTD/svg11.dtd">
<!-- Generated by graphviz version 8.0.5 (20230430.1635)
 -->
<!-- Title: main Pages: 1 -->
<svg width="154pt" height="137pt"
 viewBox="0.00 0.00 154.00 137.25" xmlns="http://www.w3.org/2000/svg" xmlns:xlink="http://www.w3.org/1999/xlink">

<svg id="main" version="1.1" xmlns="http://www.w3.org/2000/svg" xmlns:xlink="http://www.w3.org/1999/xlink" xml:space="preserve" onload="init(evt)">
<style type="text/css"><![CDATA[
.node, .edge {opacity: 0.7;}
.node.selected, .edge.selected {opacity: 1;}
.edge:hover path { stroke: red; }
.edge:hover polygon { stroke: red; fill: red; }
]]></style>
<script type="application/ecmascript" xlink:href="../../svg.min.js"/>
<svg id="graph" class="graph">
<g id="graph0" class="graph" transform="scale(1 1) rotate(0) translate(4 133.25)">
<title>main</title>
<!-- Node1 -->
<g id="Node000001" class="node">
<title>Node1</title>
<g id="a_Node000001"><a xlink:title="Main function.">
<polygon fill="#999999" stroke="#666666" points="37,-74.25 0,-74.25 0,-55 37,-55 37,-74.25"/>
<text text-anchor="middle" x="18.5" y="-60.75" font-family="Helvetica,sans-Serif" font-size="10.00">main</text>
</a>
</g>
</g>
<!-- Node2 -->
<g id="Node000002" class="node">
<title>Node2</title>
<g id="a_Node000002"><a xlink:href="../../dc/d80/cantor__set_8c.html#a85df3c64a683100ac6246e1e034df43d" target="_top" xlink:title="Clear memory allocated by propagate function.">
<polygon fill="white" stroke="#666666" points="146,-111.25 73,-111.25 73,-92 146,-92 146,-111.25"/>
<text text-anchor="middle" x="109.5" y="-97.75" font-family="Helvetica,sans-Serif" font-size="10.00">free_memory</text>
</a>
</g>
</g>
<!-- Node1&#45;&gt;Node2 -->
<g id="edge1_Node000001_Node000002" class="edge">
<title>Node1&#45;&gt;Node2</title>
<g id="a_edge1_Node000001_Node000002"><a xlink:title=" ">
<path fill="none" stroke="#63b8ff" d="M37.08,-71.94C47.72,-76.36 61.63,-82.14 74.35,-87.43"/>
<polygon fill="#63b8ff" stroke="#63b8ff" points="72.64,-90.92 83.22,-91.53 75.33,-84.46 72.64,-90.92"/>
</a>
</g>
</g>
<!-- Node3 -->
<g id="Node000003" class="node">
<title>Node3</title>
<g id="a_Node000003"><a xlink:href="../../dc/d80/cantor__set_8c.html#a75ee530cd7148a63249784ad3dda8fab" target="_top" xlink:title="Print sets in the current range to stdout">
<polygon fill="white" stroke="#666666" points="126.88,-74.25 92.12,-74.25 92.12,-55 126.88,-55 126.88,-74.25"/>
<text text-anchor="middle" x="109.5" y="-60.75" font-family="Helvetica,sans-Serif" font-size="10.00">print</text>
</a>
</g>
</g>
<!-- Node1&#45;&gt;Node3 -->
<g id="edge3_Node000001_Node000003" class="edge">
<title>Node1&#45;&gt;Node3</title>
<g id="a_edge3_Node000001_Node000003"><a xlink:title=" ">
<path fill="none" stroke="#63b8ff" d="M37.08,-64.62C49.64,-64.62 66.76,-64.62 81.1,-64.62"/>
<polygon fill="#63b8ff" stroke="#63b8ff" points="80.86,-68.13 90.86,-64.62 80.86,-61.13 80.86,-68.13"/>
</a>
</g>
</g>
<!-- Node4 -->
<g id="Node000004" class="node">
<title>Node4</title>
<g id="a_Node000004"><a xlink:href="../../dc/d80/cantor__set_8c.html#a1f156d2b53b80305bd2fa3ff5fdf3c97" target="_top" xlink:title="Iterative constructor of all sets in the current level.">
<polygon fill="white" stroke="#666666" points="138.88,-19.25 80.12,-19.25 80.12,0 138.88,0 138.88,-19.25"/>
<text text-anchor="middle" x="109.5" y="-5.75" font-family="Helvetica,sans-Serif" font-size="10.00">propagate</text>
</a>
</g>
</g>
<!-- Node1&#45;&gt;Node4 -->
<g id="edge4_Node000001_Node000004" class="edge">
<title>Node1&#45;&gt;Node4</title>
<g id="a_edge4_Node000001_Node000004"><a xlink:title=" ">
<path fill="none" stroke="#63b8ff" d="M35.82,-54.54C49,-46.4 67.77,-34.8 82.93,-25.43"/>
<polygon fill="#63b8ff" stroke="#63b8ff" points="84.61,-27.88 91.28,-19.65 80.93,-21.93 84.61,-27.88"/>
</a>
</g>
</g>
<!-- Node2&#45;&gt;Node2 -->
<g id="edge2_Node000002_Node000002" class="edge">
<title>Node2&#45;&gt;Node2</title>
<g id="a_edge2_Node000002_Node000002"><a xlink:title=" ">
<path fill="none" stroke="#63b8ff" d="M95.25,-111.54C88.76,-120.15 93.5,-129.25 109.5,-129.25 118.5,-129.25 123.94,-126.37 125.82,-122.32"/>
<polygon fill="#63b8ff" stroke="#63b8ff" points="129.07,-121.7 123.75,-112.54 122.2,-123.02 129.07,-121.7"/>
</a>
</g>
</g>
<!-- Node4&#45;&gt;Node4 -->
<g id="edge5_Node000004_Node000004" class="edge">
<title>Node4&#45;&gt;Node4</title>
<g id="a_edge5_Node000004_Node000004"><a xlink:title=" ">
<path fill="none" stroke="#63b8ff" d="M95.25,-19.54C88.76,-28.15 93.5,-37.25 109.5,-37.25 118.5,-37.25 123.94,-34.37 125.82,-30.32"/>
<polygon fill="#63b8ff" stroke="#63b8ff" points="129.07,-29.7 123.75,-20.54 122.2,-31.02 129.07,-29.7"/>
</a>
</g>
</g>
</g>
</svg>
</svg>

<style type='text/css'>
<![CDATA[
[data-mouse-over-selected='false'] { opacity: 0.7; }
[data-mouse-over-selected='true']  { opacity: 1.0; }
]]>
</style>
<script type="application/ecmascript"><![CDATA[
document.addEventListener('DOMContentLoaded', (event) => {
  highlightEdges();
  highlightAdjacentNodes();
});
]]></script>
</svg>
