<?xml version="1.0" encoding="UTF-8" standalone="no"?>
<!DOCTYPE svg PUBLIC "-//W3C//DTD SVG 1.1//EN"
 "http://www.w3.org/Graphics/SVG/1.1/DTD/svg11.dtd">
<!-- Generated by graphviz version 9.0.0 (20230911.1827)
 -->
<!-- Title: main Pages: 1 -->
<svg width="154pt" height="137pt"
 viewBox="0.00 0.00 154.00 137.25" xmlns="http://www.w3.org/2000/svg" xmlns:xlink="http://www.w3.org/1999/xlink">

<svg id="main" version="1.1" xmlns="http://www.w3.org/2000/svg" xmlns:xlink="http://www.w3.org/1999/xlink" xml:space="preserve" onload="init(evt)">
<style type="text/css"><![CDATA[
.node, .edge {opacity: 0.7;}
.node.selected, .edge.selected {opacity: 1;}
.edge:hover path { stroke: red; }
.edge:hover polygon { stroke: red; fill: red; }
]]></style>
<script type="application/ecmascript" xlink:href="../../svg.min.js"/>
<svg id="graph" class="graph">
<g id="graph0" class="graph" transform="scale(1 1) rotate(0) translate(4 133.25)">
<title>main</title>
<!-- Node1 -->
<g id="Node000001" class="node">
<title>Node1</title>
<g id="a_Node000001"><a xlink:title="Main function.">
<polygon fill="#999999" stroke="#666666" points="37,-74.25 0,-74.25 0,-55 37,-55 37,-74.25"/>
<text text-anchor="middle" x="18.5" y="-60.75" font-family="Helvetica,sans-Serif" font-size="10.00">main</text>
</a>
</g>
</g>
<!-- Node2 -->
<g id="Node000002" class="node">
<title>Node2</title>
<g id="a_Node000002"><a xlink:href="../../dc/d80/cantor__set_8c.html#a85df3c64a683100ac6246e1e034df43d" target="_top" xlink:title="Clear memory allocated by propagate function.">
<polygon fill="white" stroke="#666666" points="146,-111.25 73,-111.25 73,-92 146,-92 146,-111.25"/>
<text text-anchor="middle" x="109.5" y="-97.75" font-family="Helvetica,sans-Serif" font-size="10.00">free_memory</text>
</a>
</g>
</g>
<!-- Node1&#45;&gt;Node2 -->
<g id="edge1_Node000001_Node000002" class="edge">
<title>Node1&#45;&gt;Node2</title>
<g id="a_edge1_Node000001_Node000002"><a xlink:title=" ">
<path fill="none" stroke="#63b8ff" d="M37.08,-71.94C47.51,-76.27 61.08,-81.91 73.6,-87.12"/>
<polygon fill="#63b8ff" stroke="#63b8ff" points="72.24,-90.34 82.82,-90.95 74.93,-83.88 72.24,-90.34"/>
</a>
</g>
</g>
<!-- Node3 -->
<g id="Node000003" class="node">
<title>Node3</title>
<g id="a_Node000003"><a xlink:href="../../dc/d80/cantor__set_8c.html#a75ee530cd7148a63249784ad3dda8fab" target="_top" xlink:title="Print sets in the current range to stdout">
<polygon fill="white" stroke="#666666" points="126.88,-74.25 92.12,-74.25 92.12,-55 126.88,-55 126.88,-74.25"/>
<text text-anchor="middle" x="109.5" y="-60.75" font-family="Helvetica,sans-Serif" font-size="10.00">print</text>
</a>
</g>
</g>
<!-- Node1&#45;&gt;Node3 -->
<g id="edge3_Node000001_Node000003" class="edge">
<title>Node1&#45;&gt;Node3</title>
<g id="a_edge3_Node000001_Node000003"><a xlink:title=" ">
<path fill="none" stroke="#63b8ff" d="M37.08,-64.62C49.51,-64.62 66.42,-64.62 80.67,-64.62"/>
<polygon fill="#63b8ff" stroke="#63b8ff" points="80.34,-68.13 90.34,-64.63 80.34,-61.13 80.34,-68.13"/>
</a>
</g>
</g>
<!-- Node4 -->
<g id="Node000004" class="node">
<title>Node4</title>
<g id="a_Node000004"><a xlink:href="../../dc/d80/cantor__set_8c.html#a1f156d2b53b80305bd2fa3ff5fdf3c97" target="_top" xlink:title="Iterative constructor of all sets in the current level.">
<polygon fill="white" stroke="#666666" points="138.88,-19.25 80.12,-19.25 80.12,0 138.88,0 138.88,-19.25"/>
<text text-anchor="middle" x="109.5" y="-5.75" font-family="Helvetica,sans-Serif" font-size="10.00">propagate</text>
</a>
</g>
</g>
<!-- Node1&#45;&gt;Node4 -->
<g id="edge4_Node000001_Node000004" class="edge">
<title>Node1&#45;&gt;Node4</title>
<g id="a_edge4_Node000001_Node000004"><a xlink:title=" ">
<path fill="none" stroke="#63b8ff" d="M35.82,-54.54C48.87,-46.47 67.41,-35.02 82.5,-25.7"/>
<polygon fill="#63b8ff" stroke="#63b8ff" points="84.33,-28.68 90.99,-20.44 80.65,-22.72 84.33,-28.68"/>
</a>
</g>
</g>
<!-- Node2&#45;&gt;Node2 -->
<g id="edge2_Node000002_Node000002" class="edge">
<title>Node2&#45;&gt;Node2</title>
<g id="a_edge2_Node000002_Node000002"><a xlink:title=" ">
<path fill="none" stroke="#63b8ff" d="M95.25,-111.54C88.76,-120.15 93.5,-129.25 109.5,-129.25 118.25,-129.25 123.63,-126.53 125.65,-122.65"/>
<polygon fill="#63b8ff" stroke="#63b8ff" points="129.14,-122.29 124,-113.03 122.24,-123.48 129.14,-122.29"/>
</a>
</g>
</g>
<!-- Node4&#45;&gt;Node4 -->
<g id="edge5_Node000004_Node000004" class="edge">
<title>Node4&#45;&gt;Node4</title>
<g id="a_edge5_Node000004_Node000004"><a xlink:title=" ">
<path fill="none" stroke="#63b8ff" d="M95.25,-19.54C88.76,-28.15 93.5,-37.25 109.5,-37.25 118.25,-37.25 123.63,-34.53 125.65,-30.65"/>
<polygon fill="#63b8ff" stroke="#63b8ff" points="129.14,-30.29 124,-21.03 122.24,-31.48 129.14,-30.29"/>
</a>
</g>
</g>
</g>
</svg>
</svg>

<style type='text/css'>
<![CDATA[
[data-mouse-over-selected='false'] { opacity: 0.7; }
[data-mouse-over-selected='true']  { opacity: 1.0; }
]]>
</style>
<script type="application/ecmascript"><![CDATA[
document.addEventListener('DOMContentLoaded', (event) => {
  highlightEdges();
  highlightAdjacentNodes();
});
]]></script>
</svg>
