<?xml version="1.0" encoding="UTF-8" standalone="no"?>
<!DOCTYPE svg PUBLIC "-//W3C//DTD SVG 1.1//EN"
 "http://www.w3.org/Graphics/SVG/1.1/DTD/svg11.dtd">
<!-- Generated by graphviz version 2.49.3 (20211023.0002)
 -->
<!-- Title: main Pages: 1 -->
<svg width="252pt" height="140pt"
 viewBox="0.00 0.00 252.00 140.00" xmlns="http://www.w3.org/2000/svg" xmlns:xlink="http://www.w3.org/1999/xlink">
<g id="graph0" class="graph" transform="scale(1 1) rotate(0) translate(4 136)">
<title>main</title>
<polygon fill="white" stroke="transparent" points="-4,4 -4,-136 248,-136 248,4 -4,4"/>
<!-- Node1 -->
<g id="node1" class="node">
<title>Node1</title>
<g id="a_node1"><a xlink:title="Main function.">
<polygon fill="#bfbfbf" stroke="black" points="0,-56.5 0,-75.5 38,-75.5 38,-56.5 0,-56.5"/>
<text text-anchor="middle" x="19" y="-63.5" font-family="Helvetica,sans-Serif" font-size="10.00">main</text>
</a>
</g>
</g>
<!-- Node2 -->
<g id="node2" class="node">
<title>Node2</title>
<g id="a_node2"><a xlink:href="../../dc/d80/cantor__set_8c.html#a85df3c64a683100ac6246e1e034df43d" target="_top" xlink:title="Clear memory allocated by propagate function.">
<polygon fill="white" stroke="black" points="74,-94.5 74,-113.5 149,-113.5 149,-94.5 74,-94.5"/>
<text text-anchor="middle" x="111.5" y="-101.5" font-family="Helvetica,sans-Serif" font-size="10.00">free_memory</text>
</a>
</g>
</g>
<!-- Node1&#45;&gt;Node2 -->
<g id="edge1" class="edge">
<title>Node1&#45;&gt;Node2</title>
<path fill="none" stroke="midnightblue" d="M38.31,-73.69C49.78,-78.51 64.89,-84.85 78.31,-90.48"/>
<polygon fill="midnightblue" stroke="midnightblue" points="77.14,-93.79 87.71,-94.43 79.85,-87.33 77.14,-93.79"/>
</g>
<!-- Node3 -->
<g id="node3" class="node">
<title>Node3</title>
<g id="a_node3"><a xlink:href="../../dc/d80/cantor__set_8c.html#a75ee530cd7148a63249784ad3dda8fab" target="_top" xlink:title="Print sets in the current range to stdout">
<polygon fill="white" stroke="black" points="93.5,-56.5 93.5,-75.5 129.5,-75.5 129.5,-56.5 93.5,-56.5"/>
<text text-anchor="middle" x="111.5" y="-63.5" font-family="Helvetica,sans-Serif" font-size="10.00">print</text>
</a>
</g>
</g>
<!-- Node1&#45;&gt;Node3 -->
<g id="edge3" class="edge">
<title>Node1&#45;&gt;Node3</title>
<path fill="none" stroke="midnightblue" d="M38.31,-66C51.16,-66 68.55,-66 83.04,-66"/>
<polygon fill="midnightblue" stroke="midnightblue" points="83.44,-69.5 93.44,-66 83.44,-62.5 83.44,-69.5"/>
</g>
<!-- Node4 -->
<g id="node4" class="node">
<title>Node4</title>
<g id="a_node4"><a xlink:href="../../dc/d80/cantor__set_8c.html#a1f156d2b53b80305bd2fa3ff5fdf3c97" target="_top" xlink:title="Iterative constructor of all sets in the current level.">
<polygon fill="white" stroke="black" points="80.5,-0.5 80.5,-19.5 142.5,-19.5 142.5,-0.5 80.5,-0.5"/>
<text text-anchor="middle" x="111.5" y="-7.5" font-family="Helvetica,sans-Serif" font-size="10.00">propagate</text>
</a>
</g>
</g>
<!-- Node1&#45;&gt;Node4 -->
<g id="edge4" class="edge">
<title>Node1&#45;&gt;Node4</title>
<path fill="none" stroke="midnightblue" d="M35.76,-56.25C49.65,-47.65 70.1,-35 86.09,-25.1"/>
<polygon fill="midnightblue" stroke="midnightblue" points="88.25,-27.88 94.92,-19.64 84.57,-21.93 88.25,-27.88"/>
</g>
<!-- Node2&#45;&gt;Node2 -->
<g id="edge2" class="edge">
<title>Node2&#45;&gt;Node2</title>
<path fill="none" stroke="midnightblue" d="M97.32,-113.76C90.42,-122.57 95.15,-132 111.5,-132 121.72,-132 127.4,-128.31 128.54,-123.4"/>
<polygon fill="midnightblue" stroke="midnightblue" points="131.88,-122.35 125.68,-113.76 125.16,-124.34 131.88,-122.35"/>
</g>
<!-- Node4&#45;&gt;Node4 -->
<g id="edge6" class="edge">
<title>Node4&#45;&gt;Node4</title>
<path fill="none" stroke="midnightblue" d="M97.32,-19.76C90.42,-28.57 95.15,-38 111.5,-38 121.72,-38 127.4,-34.31 128.54,-29.4"/>
<polygon fill="midnightblue" stroke="midnightblue" points="131.88,-28.35 125.68,-19.76 125.16,-30.34 131.88,-28.35"/>
</g>
<!-- Node5 -->
<g id="node5" class="node">
<title>Node5</title>
<g id="a_node5"><a xlink:href="../../da/d02/binary__search__tree_8c.html#adf2169c1008551b20c4a59fcf0c9ab3b" target="_top" xlink:title="The node constructor, which receives the key value input and returns a node pointer.">
<polygon fill="white" stroke="black" points="185,-0.5 185,-19.5 244,-19.5 244,-0.5 185,-0.5"/>
<text text-anchor="middle" x="214.5" y="-7.5" font-family="Helvetica,sans-Serif" font-size="10.00">newNode</text>
</a>
</g>
</g>
<!-- Node4&#45;&gt;Node5 -->
<g id="edge5" class="edge">
<title>Node4&#45;&gt;Node5</title>
<path fill="none" stroke="midnightblue" d="M142.53,-10C152.56,-10 163.89,-10 174.5,-10"/>
<polygon fill="midnightblue" stroke="midnightblue" points="174.8,-13.5 184.8,-10 174.8,-6.5 174.8,-13.5"/>
</g>
</g>
</svg>
