<?xml version="1.0" encoding="UTF-8" standalone="no"?>
<!DOCTYPE svg PUBLIC "-//W3C//DTD SVG 1.1//EN"
 "http://www.w3.org/Graphics/SVG/1.1/DTD/svg11.dtd">
<!-- Generated by graphviz version 3.0.0 (20220226.1711)
 -->
<!-- Title: main Pages: 1 -->
<svg width="250pt" height="140pt"
 viewBox="0.00 0.00 250.00 140.00" xmlns="http://www.w3.org/2000/svg" xmlns:xlink="http://www.w3.org/1999/xlink">
<g id="graph0" class="graph" transform="scale(1 1) rotate(0) translate(4 136)">
<title>main</title>
<polygon fill="white" stroke="transparent" points="-4,4 -4,-136 246,-136 246,4 -4,4"/>
<!-- Node1 -->
<g id="node1" class="node">
<title>Node1</title>
<g id="a_node1"><a xlink:title="Main function.">
<polygon fill="#bfbfbf" stroke="black" points="0,-56.5 0,-75.5 38,-75.5 38,-56.5 0,-56.5"/>
<text text-anchor="middle" x="19" y="-63.5" font-family="Helvetica,sans-Serif" font-size="10.00">main</text>
</a>
</g>
</g>
<!-- Node2 -->
<g id="node2" class="node">
<title>Node2</title>
<g id="a_node2"><a xlink:href="../../dc/d80/cantor__set_8c.html#a85df3c64a683100ac6246e1e034df43d" target="_top" xlink:title="Clear memory allocated by propagate function.">
<polygon fill="white" stroke="black" points="74,-94.5 74,-113.5 148,-113.5 148,-94.5 74,-94.5"/>
<text text-anchor="middle" x="111" y="-101.5" font-family="Helvetica,sans-Serif" font-size="10.00">free_memory</text>
</a>
</g>
</g>
<!-- Node1&#45;&gt;Node2 -->
<g id="edge1" class="edge">
<title>Node1&#45;&gt;Node2</title>
<path fill="none" stroke="midnightblue" d="M38.21,-73.69C49.62,-78.51 64.64,-84.85 77.99,-90.48"/>
<polygon fill="midnightblue" stroke="midnightblue" points="76.77,-93.77 87.34,-94.43 79.49,-87.32 76.77,-93.77"/>
</g>
<!-- Node3 -->
<g id="node3" class="node">
<title>Node3</title>
<g id="a_node3"><a xlink:href="../../dc/d80/cantor__set_8c.html#a75ee530cd7148a63249784ad3dda8fab" target="_top" xlink:title="Print sets in the current range to stdout">
<polygon fill="white" stroke="black" points="93.5,-56.5 93.5,-75.5 128.5,-75.5 128.5,-56.5 93.5,-56.5"/>
<text text-anchor="middle" x="111" y="-63.5" font-family="Helvetica,sans-Serif" font-size="10.00">print</text>
</a>
</g>
</g>
<!-- Node1&#45;&gt;Node3 -->
<g id="edge3" class="edge">
<title>Node1&#45;&gt;Node3</title>
<path fill="none" stroke="midnightblue" d="M38.21,-66C51.07,-66 68.5,-66 82.97,-66"/>
<polygon fill="midnightblue" stroke="midnightblue" points="83.33,-69.5 93.33,-66 83.33,-62.5 83.33,-69.5"/>
</g>
<!-- Node4 -->
<g id="node4" class="node">
<title>Node4</title>
<g id="a_node4"><a xlink:href="../../dc/d80/cantor__set_8c.html#a1f156d2b53b80305bd2fa3ff5fdf3c97" target="_top" xlink:title="Iterative constructor of all sets in the current level.">
<polygon fill="white" stroke="black" points="81.5,-0.5 81.5,-19.5 140.5,-19.5 140.5,-0.5 81.5,-0.5"/>
<text text-anchor="middle" x="111" y="-7.5" font-family="Helvetica,sans-Serif" font-size="10.00">propagate</text>
</a>
</g>
</g>
<!-- Node1&#45;&gt;Node4 -->
<g id="edge4" class="edge">
<title>Node1&#45;&gt;Node4</title>
<path fill="none" stroke="midnightblue" d="M35.68,-56.25C49.49,-47.65 69.82,-35 85.73,-25.1"/>
<polygon fill="midnightblue" stroke="midnightblue" points="87.86,-27.9 94.5,-19.64 84.16,-21.95 87.86,-27.9"/>
</g>
<!-- Node2&#45;&gt;Node2 -->
<g id="edge2" class="edge">
<title>Node2&#45;&gt;Node2</title>
<path fill="none" stroke="midnightblue" d="M96.82,-113.76C89.92,-122.57 94.65,-132 111,-132 121.22,-132 126.9,-128.31 128.04,-123.4"/>
<polygon fill="midnightblue" stroke="midnightblue" points="131.38,-122.35 125.18,-113.76 124.66,-124.34 131.38,-122.35"/>
</g>
<!-- Node4&#45;&gt;Node4 -->
<g id="edge6" class="edge">
<title>Node4&#45;&gt;Node4</title>
<path fill="none" stroke="midnightblue" d="M96.82,-19.76C89.92,-28.57 94.65,-38 111,-38 121.22,-38 126.9,-34.31 128.04,-29.4"/>
<polygon fill="midnightblue" stroke="midnightblue" points="131.38,-28.35 125.18,-19.76 124.66,-30.34 131.38,-28.35"/>
</g>
<!-- Node5 -->
<g id="node5" class="node">
<title>Node5</title>
<g id="a_node5"><a xlink:href="../../da/d02/binary__search__tree_8c.html#adf2169c1008551b20c4a59fcf0c9ab3b" target="_top" xlink:title="The node constructor, which receives the key value input and returns a node pointer.">
<polygon fill="white" stroke="black" points="184,-0.5 184,-19.5 242,-19.5 242,-0.5 184,-0.5"/>
<text text-anchor="middle" x="213" y="-7.5" font-family="Helvetica,sans-Serif" font-size="10.00">newNode</text>
</a>
</g>
</g>
<!-- Node4&#45;&gt;Node5 -->
<g id="edge5" class="edge">
<title>Node4&#45;&gt;Node5</title>
<path fill="none" stroke="midnightblue" d="M140.66,-10C150.89,-10 162.59,-10 173.52,-10"/>
<polygon fill="midnightblue" stroke="midnightblue" points="173.69,-13.5 183.69,-10 173.69,-6.5 173.69,-13.5"/>
</g>
</g>
</svg>
