<?xml version="1.0" encoding="UTF-8" standalone="no"?>
<!DOCTYPE svg PUBLIC "-//W3C//DTD SVG 1.1//EN"
 "http://www.w3.org/Graphics/SVG/1.1/DTD/svg11.dtd">
<!-- Generated by graphviz version 7.0.6 (20230106.0513)
 -->
<!-- Title: main Pages: 1 -->
<svg width="157pt" height="64pt"
 viewBox="0.00 0.00 157.00 64.00" xmlns="http://www.w3.org/2000/svg" xmlns:xlink="http://www.w3.org/1999/xlink">
<g id="graph0" class="graph" transform="scale(1 1) rotate(0) translate(4 60)">
<title>main</title>
<!-- Node1 -->
<g id="node1" class="node">
<title>Node1</title>
<g id="a_node1"><a xlink:title="Main function.">
<polygon fill="#999999" stroke="#666666" points="38,-37 0,-37 0,-18 38,-18 38,-37"/>
<text text-anchor="middle" x="19" y="-25" font-family="Helvetica,sans-Serif" font-size="10.00">main</text>
</a>
</g>
</g>
<!-- Node2 -->
<g id="node2" class="node">
<title>Node2</title>
<g id="a_node2"><a xlink:href="../../db/d01/problem__13_2sol1_8c.html#ad51742ca5a5c99e860bdf30299163bf2" target="_top" xlink:title="Function to add arbitrary length decimal integers stored in an array.">
<polygon fill="white" stroke="#666666" points="149,-56 74,-56 74,-37 149,-37 149,-56"/>
<text text-anchor="middle" x="111.5" y="-44" font-family="Helvetica,sans-Serif" font-size="10.00">add_numbers</text>
</a>
</g>
</g>
<!-- Node1&#45;&gt;Node2 -->
<g id="edge1" class="edge">
<title>Node1&#45;&gt;Node2</title>
<path fill="none" stroke="#63b8ff" d="M38.31,-31.34C45.35,-32.82 53.76,-34.59 62.31,-36.38"/>
<polygon fill="#63b8ff" stroke="#63b8ff" points="61.53,-39.8 72.04,-38.43 62.97,-32.94 61.53,-39.8"/>
</g>
<!-- Node3 -->
<g id="node3" class="node">
<title>Node3</title>
<g id="a_node3"><a xlink:href="../../db/d01/problem__13_2sol1_8c.html#a248adc917818cc6666d8bc679a660319" target="_top" xlink:title="Function to print a long number.">
<polygon fill="white" stroke="#666666" points="148,-19 75,-19 75,0 148,0 148,-19"/>
<text text-anchor="middle" x="111.5" y="-7" font-family="Helvetica,sans-Serif" font-size="10.00">print_number</text>
</a>
</g>
</g>
<!-- Node1&#45;&gt;Node3 -->
<g id="edge2" class="edge">
<title>Node1&#45;&gt;Node3</title>
<path fill="none" stroke="#63b8ff" d="M38.31,-23.86C45.65,-22.4 54.47,-20.64 63.39,-18.87"/>
<polygon fill="#63b8ff" stroke="#63b8ff" points="64.02,-22.31 73.15,-16.93 62.66,-15.45 64.02,-22.31"/>
</g>
</g>
</svg>
