<?xml version="1.0" encoding="UTF-8" standalone="no"?>
<!DOCTYPE svg PUBLIC "-//W3C//DTD SVG 1.1//EN"
 "http://www.w3.org/Graphics/SVG/1.1/DTD/svg11.dtd">
<!-- Generated by graphviz version 9.0.0 (20230911.1827)
 -->
<!-- Title: main Pages: 1 -->
<svg width="156pt" height="64pt"
 viewBox="0.00 0.00 155.50 64.25" xmlns="http://www.w3.org/2000/svg" xmlns:xlink="http://www.w3.org/1999/xlink">
<g id="graph0" class="graph" transform="scale(1 1) rotate(0) translate(4 60.25)">
<title>main</title>
<!-- Node1 -->
<g id="Node000001" class="node">
<title>Node1</title>
<g id="a_Node000001"><a xlink:title="Main function.">
<polygon fill="#999999" stroke="#666666" points="37,-37.25 0,-37.25 0,-18 37,-18 37,-37.25"/>
<text text-anchor="middle" x="18.5" y="-23.75" font-family="Helvetica,sans-Serif" font-size="10.00">main</text>
</a>
</g>
</g>
<!-- Node2 -->
<g id="Node000002" class="node">
<title>Node2</title>
<g id="a_Node000002"><a xlink:href="../../db/d01/problem__13_2sol1_8c.html#ad51742ca5a5c99e860bdf30299163bf2" target="_top" xlink:title="Function to add arbitrary length decimal integers stored in an array.">
<polygon fill="white" stroke="#666666" points="147.5,-56.25 73,-56.25 73,-37 147.5,-37 147.5,-56.25"/>
<text text-anchor="middle" x="110.25" y="-42.75" font-family="Helvetica,sans-Serif" font-size="10.00">add_numbers</text>
</a>
</g>
</g>
<!-- Node1&#45;&gt;Node2 -->
<g id="edge1_Node000001_Node000002" class="edge">
<title>Node1&#45;&gt;Node2</title>
<g id="a_edge1_Node000001_Node000002"><a xlink:title=" ">
<path fill="none" stroke="#63b8ff" d="M37.23,-31.38C44.34,-32.88 52.91,-34.7 61.62,-36.54"/>
<polygon fill="#63b8ff" stroke="#63b8ff" points="60.64,-39.91 71.15,-38.56 62.09,-33.06 60.64,-39.91"/>
</a>
</g>
</g>
<!-- Node3 -->
<g id="Node000003" class="node">
<title>Node3</title>
<g id="a_Node000003"><a xlink:href="../../db/d01/problem__13_2sol1_8c.html#a248adc917818cc6666d8bc679a660319" target="_top" xlink:title="Function to print a long number.">
<polygon fill="white" stroke="#666666" points="146.38,-19.25 74.12,-19.25 74.12,0 146.38,0 146.38,-19.25"/>
<text text-anchor="middle" x="110.25" y="-5.75" font-family="Helvetica,sans-Serif" font-size="10.00">print_number</text>
</a>
</g>
</g>
<!-- Node1&#45;&gt;Node3 -->
<g id="edge2_Node000001_Node000003" class="edge">
<title>Node1&#45;&gt;Node3</title>
<g id="a_edge2_Node000001_Node000003"><a xlink:title=" ">
<path fill="none" stroke="#63b8ff" d="M37.23,-24.07C44.64,-22.58 53.63,-20.78 62.71,-18.96"/>
<polygon fill="#63b8ff" stroke="#63b8ff" points="63.13,-22.44 72.25,-17.05 61.76,-15.58 63.13,-22.44"/>
</a>
</g>
</g>
</g>
</svg>
