<?xml version="1.0" encoding="UTF-8" standalone="no"?>
<!DOCTYPE svg PUBLIC "-//W3C//DTD SVG 1.1//EN"
 "http://www.w3.org/Graphics/SVG/1.1/DTD/svg11.dtd">
<!-- Generated by graphviz version 3.0.0 (20220226.1711)
 -->
<!-- Title: main Pages: 1 -->
<svg width="157pt" height="66pt"
 viewBox="0.00 0.00 157.00 66.00" xmlns="http://www.w3.org/2000/svg" xmlns:xlink="http://www.w3.org/1999/xlink">
<g id="graph0" class="graph" transform="scale(1 1) rotate(0) translate(4 62)">
<title>main</title>
<polygon fill="white" stroke="transparent" points="-4,4 -4,-62 153,-62 153,4 -4,4"/>
<!-- Node1 -->
<g id="node1" class="node">
<title>Node1</title>
<g id="a_node1"><a xlink:title="Main function.">
<polygon fill="#bfbfbf" stroke="black" points="0,-19.5 0,-38.5 38,-38.5 38,-19.5 0,-19.5"/>
<text text-anchor="middle" x="19" y="-26.5" font-family="Helvetica,sans-Serif" font-size="10.00">main</text>
</a>
</g>
</g>
<!-- Node2 -->
<g id="node2" class="node">
<title>Node2</title>
<g id="a_node2"><a xlink:href="../../db/d01/problem__13_2sol1_8c.html#ad51742ca5a5c99e860bdf30299163bf2" target="_top" xlink:title="Function to add arbitrary length decimal integers stored in an array.">
<polygon fill="white" stroke="black" points="74,-38.5 74,-57.5 149,-57.5 149,-38.5 74,-38.5"/>
<text text-anchor="middle" x="111.5" y="-45.5" font-family="Helvetica,sans-Serif" font-size="10.00">add_numbers</text>
</a>
</g>
</g>
<!-- Node1&#45;&gt;Node2 -->
<g id="edge1" class="edge">
<title>Node1&#45;&gt;Node2</title>
<path fill="none" stroke="midnightblue" d="M38.31,-32.84C45.82,-34.42 54.89,-36.33 64.02,-38.24"/>
<polygon fill="midnightblue" stroke="midnightblue" points="63.38,-41.68 73.89,-40.31 64.82,-34.83 63.38,-41.68"/>
</g>
<!-- Node3 -->
<g id="node3" class="node">
<title>Node3</title>
<g id="a_node3"><a xlink:href="../../db/d01/problem__13_2sol1_8c.html#a248adc917818cc6666d8bc679a660319" target="_top" xlink:title="Function to print a long number.">
<polygon fill="white" stroke="black" points="75,-0.5 75,-19.5 148,-19.5 148,-0.5 75,-0.5"/>
<text text-anchor="middle" x="111.5" y="-7.5" font-family="Helvetica,sans-Serif" font-size="10.00">print_number</text>
</a>
</g>
</g>
<!-- Node1&#45;&gt;Node3 -->
<g id="edge2" class="edge">
<title>Node1&#45;&gt;Node3</title>
<path fill="none" stroke="midnightblue" d="M38.31,-25.16C46.13,-23.51 55.64,-21.52 65.15,-19.52"/>
<polygon fill="midnightblue" stroke="midnightblue" points="65.93,-22.93 75,-17.45 64.49,-16.08 65.93,-22.93"/>
</g>
</g>
</svg>
