<?xml version="1.0" encoding="UTF-8" standalone="no"?>
<!DOCTYPE svg PUBLIC "-//W3C//DTD SVG 1.1//EN"
 "http://www.w3.org/Graphics/SVG/1.1/DTD/svg11.dtd">
<!-- Generated by graphviz version 5.0.1 (20220820.1526)
 -->
<!-- Title: searching/sentinel_linear_search.c Pages: 1 -->
<svg width="124pt" height="93pt"
 viewBox="0.00 0.00 124.00 93.00" xmlns="http://www.w3.org/2000/svg" xmlns:xlink="http://www.w3.org/1999/xlink">
<g id="graph0" class="graph" transform="scale(1 1) rotate(0) translate(4 89)">
<title>searching/sentinel_linear_search.c</title>
<!-- Node1 -->
<g id="node1" class="node">
<title>Node1</title>
<g id="a_node1"><a xlink:title="Linear Search with Sentinel algorithm implementation">
<polygon fill="#999999" stroke="#666666" points="103.5,-85 8.5,-85 8.5,-55 103.5,-55 103.5,-85"/>
<text text-anchor="start" x="16.5" y="-73" font-family="Helvetica,sans-Serif" font-size="10.00">searching/sentinel</text>
<text text-anchor="middle" x="56" y="-62" font-family="Helvetica,sans-Serif" font-size="10.00">_linear_search.c</text>
</a>
</g>
</g>
<!-- Node2 -->
<g id="node2" class="node">
<title>Node2</title>
<g id="a_node2"><a xlink:title=" ">
<polygon fill="#e0e0e0" stroke="#999999" points="46,-19 0,-19 0,0 46,0 46,-19"/>
<text text-anchor="middle" x="23" y="-7" font-family="Helvetica,sans-Serif" font-size="10.00">stdio.h</text>
</a>
</g>
</g>
<!-- Node1&#45;&gt;Node2 -->
<g id="edge1" class="edge">
<title>Node1&#45;&gt;Node2</title>
<path fill="none" stroke="#63b8ff" d="M48.01,-54.84C43.47,-46.78 37.73,-36.62 32.9,-28.06"/>
<polygon fill="#63b8ff" stroke="#63b8ff" points="35.91,-26.26 27.94,-19.27 29.81,-29.7 35.91,-26.26"/>
</g>
<!-- Node3 -->
<g id="node3" class="node">
<title>Node3</title>
<g id="a_node3"><a xlink:title=" ">
<polygon fill="#e0e0e0" stroke="#999999" points="116,-19 64,-19 64,0 116,0 116,-19"/>
<text text-anchor="middle" x="90" y="-7" font-family="Helvetica,sans-Serif" font-size="10.00">assert.h</text>
</a>
</g>
</g>
<!-- Node1&#45;&gt;Node3 -->
<g id="edge2" class="edge">
<title>Node1&#45;&gt;Node3</title>
<path fill="none" stroke="#63b8ff" d="M64.23,-54.84C68.91,-46.78 74.82,-36.62 79.8,-28.06"/>
<polygon fill="#63b8ff" stroke="#63b8ff" points="82.91,-29.67 84.91,-19.27 76.85,-26.15 82.91,-29.67"/>
</g>
</g>
</svg>
