<?xml version="1.0" encoding="UTF-8" standalone="no"?>
<!DOCTYPE svg PUBLIC "-//W3C//DTD SVG 1.1//EN"
 "http://www.w3.org/Graphics/SVG/1.1/DTD/svg11.dtd">
<!-- Generated by graphviz version 8.0.5 (20230430.1635)
 -->
<!-- Title: searching/sentinel_linear_search.c Pages: 1 -->
<svg width="122pt" height="94pt"
 viewBox="0.00 0.00 122.25 93.75" xmlns="http://www.w3.org/2000/svg" xmlns:xlink="http://www.w3.org/1999/xlink">
<g id="graph0" class="graph" transform="scale(1 1) rotate(0) translate(4 89.75)">
<title>searching/sentinel_linear_search.c</title>
<!-- Node1 -->
<g id="Node000001" class="node">
<title>Node1</title>
<g id="a_Node000001"><a xlink:title="Linear Search with Sentinel algorithm implementation">
<polygon fill="#999999" stroke="#666666" points="103,-85.75 8.25,-85.75 8.25,-55.25 103,-55.25 103,-85.75"/>
<text text-anchor="start" x="16.25" y="-72.25" font-family="Helvetica,sans-Serif" font-size="10.00">searching/sentinel</text>
<text text-anchor="middle" x="55.62" y="-61" font-family="Helvetica,sans-Serif" font-size="10.00">_linear_search.c</text>
</a>
</g>
</g>
<!-- Node2 -->
<g id="Node000002" class="node">
<title>Node2</title>
<g id="a_Node000002"><a xlink:title=" ">
<polygon fill="#e0e0e0" stroke="#999999" points="45.25,-19.25 0,-19.25 0,0 45.25,0 45.25,-19.25"/>
<text text-anchor="middle" x="22.62" y="-5.75" font-family="Helvetica,sans-Serif" font-size="10.00">stdio.h</text>
</a>
</g>
</g>
<!-- Node1&#45;&gt;Node2 -->
<g id="edge1_Node000001_Node000002" class="edge">
<title>Node1&#45;&gt;Node2</title>
<g id="a_edge1_Node000001_Node000002"><a xlink:title=" ">
<path fill="none" stroke="#63b8ff" d="M47.47,-54.95C43.12,-47.19 37.72,-37.56 33.07,-29.26"/>
<polygon fill="#63b8ff" stroke="#63b8ff" points="35.65,-27.71 27.71,-20.7 29.55,-31.14 35.65,-27.71"/>
</a>
</g>
</g>
<!-- Node3 -->
<g id="Node000003" class="node">
<title>Node3</title>
<g id="a_Node000003"><a xlink:title=" ">
<polygon fill="#e0e0e0" stroke="#999999" points="114.25,-19.25 63,-19.25 63,0 114.25,0 114.25,-19.25"/>
<text text-anchor="middle" x="88.62" y="-5.75" font-family="Helvetica,sans-Serif" font-size="10.00">assert.h</text>
</a>
</g>
</g>
<!-- Node1&#45;&gt;Node3 -->
<g id="edge2_Node000001_Node000003" class="edge">
<title>Node1&#45;&gt;Node3</title>
<g id="a_edge2_Node000001_Node000003"><a xlink:title=" ">
<path fill="none" stroke="#63b8ff" d="M63.78,-54.95C68.13,-47.19 73.53,-37.56 78.18,-29.26"/>
<polygon fill="#63b8ff" stroke="#63b8ff" points="81.7,-31.14 83.54,-20.7 75.6,-27.71 81.7,-31.14"/>
</a>
</g>
</g>
</g>
</svg>
