<?xml version="1.0" encoding="UTF-8" standalone="no"?>
<!DOCTYPE svg PUBLIC "-//W3C//DTD SVG 1.1//EN"
 "http://www.w3.org/Graphics/SVG/1.1/DTD/svg11.dtd">
<!-- Generated by graphviz version 8.0.2 (20230410.1723)
 -->
<!-- Title: kohonen_som Pages: 1 -->
<svg width="377pt" height="64pt"
 viewBox="0.00 0.00 377.00 64.00" xmlns="http://www.w3.org/2000/svg" xmlns:xlink="http://www.w3.org/1999/xlink">
<g id="graph0" class="graph" transform="scale(1 1) rotate(0) translate(4 60)">
<title>kohonen_som</title>
<!-- Node1 -->
<g id="node1" class="node">
<title>Node1</title>
<g id="a_node1"><a xlink:title="Apply incremental algorithm with updating neighborhood and learning rates on all samples in the given...">
<polygon fill="#999999" stroke="#666666" points="77,-37 0,-37 0,-18 77,-18 77,-37"/>
<text text-anchor="middle" x="38.5" y="-25" font-family="Helvetica,sans-Serif" font-size="10.00">kohonen_som</text>
</a>
</g>
</g>
<!-- Node2 -->
<g id="node2" class="node">
<title>Node2</title>
<g id="a_node2"><a xlink:href="../../d1/d6b/group__kohonen__2d.html#ga83abb572c60d202e100595a989dfe123" target="_top" xlink:title="Update weights of the SOM using Kohonen algorithm.">
<polygon fill="white" stroke="#666666" points="240,-37 113,-37 113,-18 240,-18 240,-37"/>
<text text-anchor="middle" x="176.5" y="-25" font-family="Helvetica,sans-Serif" font-size="10.00">kohonen_update_weights</text>
</a>
</g>
</g>
<!-- Node1&#45;&gt;Node2 -->
<g id="edge1" class="edge">
<title>Node1&#45;&gt;Node2</title>
<path fill="none" stroke="#63b8ff" d="M77.38,-27.5C84.98,-27.5 93.2,-27.5 101.55,-27.5"/>
<polygon fill="#63b8ff" stroke="#63b8ff" points="101.55,-31 111.55,-27.5 101.55,-24 101.55,-31"/>
</g>
<!-- Node3 -->
<g id="node3" class="node">
<title>Node3</title>
<g id="a_node3"><a xlink:href="../../d1/d6b/group__kohonen__2d.html#gadc22d512c00a9f5799ee067f4fb90b4b" target="_top" xlink:title="Get minimum value and index of the value in a matrix.">
<polygon fill="white" stroke="#666666" points="356,-56 289,-56 289,-37 356,-37 356,-56"/>
<text text-anchor="middle" x="322.5" y="-44" font-family="Helvetica,sans-Serif" font-size="10.00">get_min_2d</text>
</a>
</g>
</g>
<!-- Node2&#45;&gt;Node3 -->
<g id="edge2" class="edge">
<title>Node2&#45;&gt;Node3</title>
<path fill="none" stroke="#63b8ff" d="M240.24,-35.78C253.01,-37.46 266.17,-39.2 278.08,-40.77"/>
<polygon fill="#63b8ff" stroke="#63b8ff" points="277.26,-44.32 287.63,-42.16 278.17,-37.38 277.26,-44.32"/>
</g>
<!-- Node4 -->
<g id="node4" class="node">
<title>Node4</title>
<g id="a_node4"><a xlink:href="../../d1/d6b/group__kohonen__2d.html#gac78022076d889bf2ebfb2c41d4527ceb" target="_top" xlink:title="Function that returns the pointer to (x, y, z) ^th location in the linear 3D array given by:">
<polygon fill="white" stroke="#666666" points="369,-19 276,-19 276,0 369,0 369,-19"/>
<text text-anchor="middle" x="322.5" y="-7" font-family="Helvetica,sans-Serif" font-size="10.00">kohonen_data_3d</text>
</a>
</g>
</g>
<!-- Node2&#45;&gt;Node4 -->
<g id="edge3" class="edge">
<title>Node2&#45;&gt;Node4</title>
<path fill="none" stroke="#63b8ff" d="M240.24,-19.66C248.47,-18.63 256.87,-17.58 264.99,-16.56"/>
<polygon fill="#63b8ff" stroke="#63b8ff" points="265.37,-19.92 274.85,-15.21 264.5,-12.97 265.37,-19.92"/>
</g>
</g>
</svg>
