<?xml version="1.0" encoding="UTF-8" standalone="no"?>
<!DOCTYPE svg PUBLIC "-//W3C//DTD SVG 1.1//EN"
 "http://www.w3.org/Graphics/SVG/1.1/DTD/svg11.dtd">
<!-- Generated by graphviz version 8.0.5 (20230430.1635)
 -->
<!-- Title: kohonen_update_weights Pages: 1 -->
<svg width="263pt" height="64pt"
 viewBox="0.00 0.00 262.75 64.25" xmlns="http://www.w3.org/2000/svg" xmlns:xlink="http://www.w3.org/1999/xlink">
<g id="graph0" class="graph" transform="scale(1 1) rotate(0) translate(4 60.25)">
<title>kohonen_update_weights</title>
<!-- Node1 -->
<g id="Node000001" class="node">
<title>Node1</title>
<g id="a_Node000001"><a xlink:title="Update weights of the SOM using Kohonen algorithm.">
<polygon fill="#999999" stroke="#666666" points="126.25,-37.25 0,-37.25 0,-18 126.25,-18 126.25,-37.25"/>
<text text-anchor="middle" x="63.12" y="-23.75" font-family="Helvetica,sans-Serif" font-size="10.00">kohonen_update_weights</text>
</a>
</g>
</g>
<!-- Node2 -->
<g id="Node000002" class="node">
<title>Node2</title>
<g id="a_Node000002"><a xlink:href="../../d1/d6b/group__kohonen__2d.html#gadc22d512c00a9f5799ee067f4fb90b4b" target="_top" xlink:title="Get minimum value and index of the value in a matrix.">
<polygon fill="white" stroke="#666666" points="241.62,-56.25 175.38,-56.25 175.38,-37 241.62,-37 241.62,-56.25"/>
<text text-anchor="middle" x="208.5" y="-42.75" font-family="Helvetica,sans-Serif" font-size="10.00">get_min_2d</text>
</a>
</g>
</g>
<!-- Node1&#45;&gt;Node2 -->
<g id="edge1_Node000001_Node000002" class="edge">
<title>Node1&#45;&gt;Node2</title>
<g id="a_edge1_Node000001_Node000002"><a xlink:title=" ">
<path fill="none" stroke="#63b8ff" d="M126.59,-35.9C139.42,-37.6 152.65,-39.36 164.59,-40.94"/>
<polygon fill="#63b8ff" stroke="#63b8ff" points="163.79,-44.5 174.16,-42.34 164.71,-37.56 163.79,-44.5"/>
</a>
</g>
</g>
<!-- Node3 -->
<g id="Node000003" class="node">
<title>Node3</title>
<g id="a_Node000003"><a xlink:href="../../d1/d6b/group__kohonen__2d.html#gac78022076d889bf2ebfb2c41d4527ceb" target="_top" xlink:title="Function that returns the pointer to (x, y, z) ^th location in the linear 3D array given by:">
<polygon fill="white" stroke="#666666" points="254.75,-19.25 162.25,-19.25 162.25,0 254.75,0 254.75,-19.25"/>
<text text-anchor="middle" x="208.5" y="-5.75" font-family="Helvetica,sans-Serif" font-size="10.00">kohonen_data_3d</text>
</a>
</g>
</g>
<!-- Node1&#45;&gt;Node3 -->
<g id="edge2_Node000001_Node000003" class="edge">
<title>Node1&#45;&gt;Node3</title>
<g id="a_edge2_Node000001_Node000003"><a xlink:title=" ">
<path fill="none" stroke="#63b8ff" d="M126.59,-19.78C134.79,-18.75 143.15,-17.7 151.24,-16.69"/>
<polygon fill="#63b8ff" stroke="#63b8ff" points="151.57,-20.05 161.05,-15.33 150.69,-13.1 151.57,-20.05"/>
</a>
</g>
</g>
</g>
</svg>
