<?xml version="1.0" encoding="UTF-8" standalone="no"?>
<!DOCTYPE svg PUBLIC "-//W3C//DTD SVG 1.1//EN"
 "http://www.w3.org/Graphics/SVG/1.1/DTD/svg11.dtd">
<!-- Generated by graphviz version 9.0.0 (20230911.1827)
 -->
<!-- Title: kohonen_som Pages: 1 -->
<svg width="376pt" height="64pt"
 viewBox="0.00 0.00 375.50 64.25" xmlns="http://www.w3.org/2000/svg" xmlns:xlink="http://www.w3.org/1999/xlink">
<g id="graph0" class="graph" transform="scale(1 1) rotate(0) translate(4 60.25)">
<title>kohonen_som</title>
<!-- Node1 -->
<g id="Node000001" class="node">
<title>Node1</title>
<g id="a_Node000001"><a xlink:title="Apply incremental algorithm with updating neighborhood and learning rates on all samples in the given...">
<polygon fill="#999999" stroke="#666666" points="76.75,-37.25 0,-37.25 0,-18 76.75,-18 76.75,-37.25"/>
<text text-anchor="middle" x="38.38" y="-23.75" font-family="Helvetica,sans-Serif" font-size="10.00">kohonen_som</text>
</a>
</g>
</g>
<!-- Node2 -->
<g id="Node000002" class="node">
<title>Node2</title>
<g id="a_Node000002"><a xlink:href="../../d1/d6b/group__kohonen__2d.html#ga83abb572c60d202e100595a989dfe123" target="_top" xlink:title="Update weights of the SOM using Kohonen algorithm.">
<polygon fill="white" stroke="#666666" points="239,-37.25 112.75,-37.25 112.75,-18 239,-18 239,-37.25"/>
<text text-anchor="middle" x="175.88" y="-23.75" font-family="Helvetica,sans-Serif" font-size="10.00">kohonen_update_weights</text>
</a>
</g>
</g>
<!-- Node1&#45;&gt;Node2 -->
<g id="edge1_Node000001_Node000002" class="edge">
<title>Node1&#45;&gt;Node2</title>
<g id="a_edge1_Node000001_Node000002"><a xlink:title=" ">
<path fill="none" stroke="#63b8ff" d="M77.12,-27.62C84.66,-27.62 92.81,-27.62 101.09,-27.62"/>
<polygon fill="#63b8ff" stroke="#63b8ff" points="100.9,-31.13 110.9,-27.63 100.9,-24.13 100.9,-31.13"/>
</a>
</g>
</g>
<!-- Node3 -->
<g id="Node000003" class="node">
<title>Node3</title>
<g id="a_Node000003"><a xlink:href="../../d1/d6b/group__kohonen__2d.html#gadc22d512c00a9f5799ee067f4fb90b4b" target="_top" xlink:title="Get minimum value and index of the value in a matrix.">
<polygon fill="white" stroke="#666666" points="354.38,-56.25 288.12,-56.25 288.12,-37 354.38,-37 354.38,-56.25"/>
<text text-anchor="middle" x="321.25" y="-42.75" font-family="Helvetica,sans-Serif" font-size="10.00">get_min_2d</text>
</a>
</g>
</g>
<!-- Node2&#45;&gt;Node3 -->
<g id="edge2_Node000002_Node000003" class="edge">
<title>Node2&#45;&gt;Node3</title>
<g id="a_edge2_Node000002_Node000003"><a xlink:title=" ">
<path fill="none" stroke="#63b8ff" d="M239.34,-35.9C251.91,-37.57 264.86,-39.28 276.61,-40.84"/>
<polygon fill="#63b8ff" stroke="#63b8ff" points="276.04,-44.3 286.41,-42.14 276.96,-37.36 276.04,-44.3"/>
</a>
</g>
</g>
<!-- Node4 -->
<g id="Node000004" class="node">
<title>Node4</title>
<g id="a_Node000004"><a xlink:href="../../d1/d6b/group__kohonen__2d.html#gac78022076d889bf2ebfb2c41d4527ceb" target="_top" xlink:title="Function that returns the pointer to (x, y, z) ^th location in the linear 3D array given by:">
<polygon fill="white" stroke="#666666" points="367.5,-19.25 275,-19.25 275,0 367.5,0 367.5,-19.25"/>
<text text-anchor="middle" x="321.25" y="-5.75" font-family="Helvetica,sans-Serif" font-size="10.00">kohonen_data_3d</text>
</a>
</g>
</g>
<!-- Node2&#45;&gt;Node4 -->
<g id="edge3_Node000002_Node000004" class="edge">
<title>Node2&#45;&gt;Node4</title>
<g id="a_edge3_Node000002_Node000004"><a xlink:title=" ">
<path fill="none" stroke="#63b8ff" d="M239.34,-19.78C247.36,-18.78 255.52,-17.75 263.44,-16.76"/>
<polygon fill="#63b8ff" stroke="#63b8ff" points="263.81,-20.24 273.3,-15.52 262.94,-13.29 263.81,-20.24"/>
</a>
</g>
</g>
</g>
</svg>
