<?xml version="1.0" encoding="UTF-8" standalone="no"?>
<!DOCTYPE svg PUBLIC "-//W3C//DTD SVG 1.1//EN"
 "http://www.w3.org/Graphics/SVG/1.1/DTD/svg11.dtd">
<!-- Generated by graphviz version 5.0.1 (20220820.1526)
 -->
<!-- Title: main Pages: 1 -->
<svg width="182pt" height="64pt"
 viewBox="0.00 0.00 182.00 64.00" xmlns="http://www.w3.org/2000/svg" xmlns:xlink="http://www.w3.org/1999/xlink">
<g id="graph0" class="graph" transform="scale(1 1) rotate(0) translate(4 60)">
<title>main</title>
<!-- Node1 -->
<g id="node1" class="node">
<title>Node1</title>
<g id="a_node1"><a xlink:title="Main function.">
<polygon fill="#999999" stroke="#666666" points="38,-38 0,-38 0,-19 38,-19 38,-38"/>
<text text-anchor="middle" x="19" y="-26" font-family="Helvetica,sans-Serif" font-size="10.00">main</text>
</a>
</g>
</g>
<!-- Node2 -->
<g id="node2" class="node">
<title>Node2</title>
<g id="a_node2"><a xlink:href="../../df/df3/union__find_8c.html#a3e13b69cce5a1b25ae034798092f3d86" target="_top" xlink:title="Find index of or value in an array.">
<polygon fill="white" stroke="#666666" points="174,-38 142,-38 142,-19 174,-19 174,-38"/>
<text text-anchor="middle" x="158" y="-26" font-family="Helvetica,sans-Serif" font-size="10.00">find</text>
</a>
</g>
</g>
<!-- Node1&#45;&gt;Node2 -->
<g id="edge1" class="edge">
<title>Node1&#45;&gt;Node2</title>
<path fill="none" stroke="#63b8ff" d="M38.19,-28.5C62.12,-28.5 104.29,-28.5 131.42,-28.5"/>
<polygon fill="#63b8ff" stroke="#63b8ff" points="131.69,-32 141.69,-28.5 131.69,-25 131.69,-32"/>
</g>
<!-- Node3 -->
<g id="node3" class="node">
<title>Node3</title>
<g id="a_node3"><a xlink:href="../../df/df3/union__find_8c.html#af2f3ff6d98641f7d3be11f071c97908a" target="_top" xlink:title="Function to join.">
<polygon fill="white" stroke="#666666" points="106,-19 74,-19 74,0 106,0 106,-19"/>
<text text-anchor="middle" x="90" y="-7" font-family="Helvetica,sans-Serif" font-size="10.00">join</text>
</a>
</g>
</g>
<!-- Node1&#45;&gt;Node3 -->
<g id="edge3" class="edge">
<title>Node1&#45;&gt;Node3</title>
<path fill="none" stroke="#63b8ff" d="M38.13,-23.51C45.96,-21.35 55.26,-18.79 63.76,-16.45"/>
<polygon fill="#63b8ff" stroke="#63b8ff" points="64.85,-19.78 73.56,-13.75 62.99,-13.03 64.85,-19.78"/>
</g>
<!-- Node2&#45;&gt;Node2 -->
<g id="edge2" class="edge">
<title>Node2&#45;&gt;Node2</title>
<path fill="none" stroke="#63b8ff" d="M147.52,-38.08C142.42,-46.73 145.91,-56 158,-56 165.36,-56 169.54,-52.56 170.52,-47.91"/>
<polygon fill="#63b8ff" stroke="#63b8ff" points="173.94,-47.16 168.48,-38.08 167.09,-48.59 173.94,-47.16"/>
</g>
<!-- Node3&#45;&gt;Node2 -->
<g id="edge4" class="edge">
<title>Node3&#45;&gt;Node2</title>
<path fill="none" stroke="#63b8ff" d="M106.31,-13.91C113.97,-16.11 123.44,-18.84 132.12,-21.34"/>
<polygon fill="#63b8ff" stroke="#63b8ff" points="131.2,-24.71 141.78,-24.12 133.13,-17.99 131.2,-24.71"/>
</g>
</g>
</svg>
