<?xml version="1.0" encoding="UTF-8" standalone="no"?>
<!DOCTYPE svg PUBLIC "-//W3C//DTD SVG 1.1//EN"
 "http://www.w3.org/Graphics/SVG/1.1/DTD/svg11.dtd">
<!-- Generated by graphviz version 8.0.4 (20230421.1958)
 -->
<!-- Title: main Pages: 1 -->
<svg width="180pt" height="64pt"
 viewBox="0.00 0.00 179.75 64.25" xmlns="http://www.w3.org/2000/svg" xmlns:xlink="http://www.w3.org/1999/xlink">
<g id="graph0" class="graph" transform="scale(1 1) rotate(0) translate(4 60.25)">
<title>main</title>
<!-- Node1 -->
<g id="node1" class="node">
<title>Node1</title>
<g id="a_node1"><a xlink:title="Main function.">
<polygon fill="#999999" stroke="#666666" points="37,-38.25 0,-38.25 0,-19 37,-19 37,-38.25"/>
<text text-anchor="middle" x="18.5" y="-24.75" font-family="Helvetica,sans-Serif" font-size="10.00">main</text>
</a>
</g>
</g>
<!-- Node2 -->
<g id="node2" class="node">
<title>Node2</title>
<g id="a_node2"><a xlink:href="../../df/df3/union__find_8c.html#a3e13b69cce5a1b25ae034798092f3d86" target="_top" xlink:title="Find index of or value in an array.">
<polygon fill="white" stroke="#666666" points="171.75,-38.25 140,-38.25 140,-19 171.75,-19 171.75,-38.25"/>
<text text-anchor="middle" x="155.88" y="-24.75" font-family="Helvetica,sans-Serif" font-size="10.00">find</text>
</a>
</g>
</g>
<!-- Node1&#45;&gt;Node2 -->
<g id="edge1" class="edge">
<title>Node1&#45;&gt;Node2</title>
<path fill="none" stroke="#63b8ff" d="M37.48,-28.62C60.91,-28.62 102.05,-28.62 128.88,-28.62"/>
<polygon fill="#63b8ff" stroke="#63b8ff" points="128.75,-32.13 138.75,-28.62 128.75,-25.13 128.75,-32.13"/>
</g>
<!-- Node3 -->
<g id="node3" class="node">
<title>Node3</title>
<g id="a_node3"><a xlink:href="../../df/df3/union__find_8c.html#af2f3ff6d98641f7d3be11f071c97908a" target="_top" xlink:title="Function to join.">
<polygon fill="white" stroke="#666666" points="104,-19.25 73,-19.25 73,0 104,0 104,-19.25"/>
<text text-anchor="middle" x="88.5" y="-5.75" font-family="Helvetica,sans-Serif" font-size="10.00">join</text>
</a>
</g>
</g>
<!-- Node1&#45;&gt;Node3 -->
<g id="edge3" class="edge">
<title>Node1&#45;&gt;Node3</title>
<path fill="none" stroke="#63b8ff" d="M37.37,-23.63C44.94,-21.52 53.91,-19.01 62.15,-16.71"/>
<polygon fill="#63b8ff" stroke="#63b8ff" points="63.05,-19.81 71.73,-13.75 61.16,-13.07 63.05,-19.81"/>
</g>
<!-- Node2&#45;&gt;Node2 -->
<g id="edge2" class="edge">
<title>Node2&#45;&gt;Node2</title>
<path fill="none" stroke="#63b8ff" d="M145.33,-38.54C140.52,-47.15 144.03,-56.25 155.88,-56.25 162.54,-56.25 166.56,-53.37 167.96,-49.32"/>
<polygon fill="#63b8ff" stroke="#63b8ff" points="171.3,-48.95 166.42,-39.54 164.37,-49.93 171.3,-48.95"/>
</g>
<!-- Node3&#45;&gt;Node2 -->
<g id="edge4" class="edge">
<title>Node3&#45;&gt;Node2</title>
<path fill="none" stroke="#63b8ff" d="M104.33,-13.94C111.67,-16.07 120.73,-18.7 129.15,-21.15"/>
<polygon fill="#63b8ff" stroke="#63b8ff" points="128.07,-24.77 138.65,-24.2 130.02,-18.05 128.07,-24.77"/>
</g>
</g>
</svg>
