<?xml version="1.0" encoding="UTF-8" standalone="no"?>
<!DOCTYPE svg PUBLIC "-//W3C//DTD SVG 1.1//EN"
 "http://www.w3.org/Graphics/SVG/1.1/DTD/svg11.dtd">
<!-- Generated by graphviz version 9.0.0 (20230911.1827)
 -->
<!-- Title: join Pages: 1 -->
<svg width="107pt" height="45pt"
 viewBox="0.00 0.00 106.75 45.25" xmlns="http://www.w3.org/2000/svg" xmlns:xlink="http://www.w3.org/1999/xlink">
<g id="graph0" class="graph" transform="scale(1 1) rotate(0) translate(4 41.25)">
<title>join</title>
<!-- Node1 -->
<g id="Node000001" class="node">
<title>Node1</title>
<g id="a_Node000001"><a xlink:title="Function to join.">
<polygon fill="#999999" stroke="#666666" points="31,-19.25 0,-19.25 0,0 31,0 31,-19.25"/>
<text text-anchor="middle" x="15.5" y="-5.75" font-family="Helvetica,sans-Serif" font-size="10.00">join</text>
</a>
</g>
</g>
<!-- Node2 -->
<g id="Node000002" class="node">
<title>Node2</title>
<g id="a_Node000002"><a xlink:href="../../df/df3/union__find_8c.html#a3e13b69cce5a1b25ae034798092f3d86" target="_top" xlink:title="Find index of or value in an array.">
<polygon fill="white" stroke="#666666" points="98.75,-19.25 67,-19.25 67,0 98.75,0 98.75,-19.25"/>
<text text-anchor="middle" x="82.88" y="-5.75" font-family="Helvetica,sans-Serif" font-size="10.00">find</text>
</a>
</g>
</g>
<!-- Node1&#45;&gt;Node2 -->
<g id="edge1_Node000001_Node000002" class="edge">
<title>Node1&#45;&gt;Node2</title>
<g id="a_edge1_Node000001_Node000002"><a xlink:title=" ">
<path fill="none" stroke="#63b8ff" d="M31.33,-9.62C38.42,-9.62 47.12,-9.62 55.3,-9.62"/>
<polygon fill="#63b8ff" stroke="#63b8ff" points="55.13,-13.13 65.13,-9.63 55.13,-6.13 55.13,-13.13"/>
</a>
</g>
</g>
<!-- Node2&#45;&gt;Node2 -->
<g id="edge2_Node000002_Node000002" class="edge">
<title>Node2&#45;&gt;Node2</title>
<g id="a_edge2_Node000002_Node000002"><a xlink:title=" ">
<path fill="none" stroke="#63b8ff" d="M72.33,-19.54C67.52,-28.15 71.03,-37.25 82.88,-37.25 89.35,-37.25 93.34,-34.53 94.83,-30.65"/>
<polygon fill="#63b8ff" stroke="#63b8ff" points="98.35,-30.52 93.61,-21.04 91.4,-31.4 98.35,-30.52"/>
</a>
</g>
</g>
</g>
</svg>
