<?xml version="1.0" encoding="UTF-8" standalone="no"?>
<!DOCTYPE svg PUBLIC "-//W3C//DTD SVG 1.1//EN"
 "http://www.w3.org/Graphics/SVG/1.1/DTD/svg11.dtd">
<!-- Generated by graphviz version 9.0.0 (20230911.1827)
 -->
<!-- Title: project_euler/problem_16/sol1.c Pages: 1 -->
<svg width="249pt" height="94pt"
 viewBox="0.00 0.00 248.75 93.75" xmlns="http://www.w3.org/2000/svg" xmlns:xlink="http://www.w3.org/1999/xlink">
<g id="graph0" class="graph" transform="scale(1 1) rotate(0) translate(4 89.75)">
<title>project_euler/problem_16/sol1.c</title>
<!-- Node1 -->
<g id="Node000001" class="node">
<title>Node1</title>
<g id="a_Node000001"><a xlink:title="Problem 16 solution">
<polygon fill="#999999" stroke="#666666" points="174.5,-85.75 65.5,-85.75 65.5,-55.25 174.5,-55.25 174.5,-85.75"/>
<text text-anchor="start" x="73.5" y="-72.25" font-family="Helvetica,sans-Serif" font-size="10.00">project_euler/problem</text>
<text text-anchor="middle" x="120" y="-61" font-family="Helvetica,sans-Serif" font-size="10.00">_16/sol1.c</text>
</a>
</g>
</g>
<!-- Node2 -->
<g id="Node000002" class="node">
<title>Node2</title>
<g id="a_Node000002"><a xlink:title=" ">
<polygon fill="#e0e0e0" stroke="#999999" points="46,-19.25 0,-19.25 0,0 46,0 46,-19.25"/>
<text text-anchor="middle" x="23" y="-5.75" font-family="Helvetica,sans-Serif" font-size="10.00">math.h</text>
</a>
</g>
</g>
<!-- Node1&#45;&gt;Node2 -->
<g id="edge1_Node000001_Node000002" class="edge">
<title>Node1&#45;&gt;Node2</title>
<g id="a_edge1_Node000001_Node000002"><a xlink:title=" ">
<path fill="none" stroke="#63b8ff" d="M96.02,-54.95C81.25,-45.98 62.37,-34.52 47.5,-25.5"/>
<polygon fill="#63b8ff" stroke="#63b8ff" points="49.61,-22.68 39.25,-20.49 45.98,-28.67 49.61,-22.68"/>
</a>
</g>
</g>
<!-- Node3 -->
<g id="Node000003" class="node">
<title>Node3</title>
<g id="a_Node000003"><a xlink:title=" ">
<polygon fill="#e0e0e0" stroke="#999999" points="112.12,-19.25 63.88,-19.25 63.88,0 112.12,0 112.12,-19.25"/>
<text text-anchor="middle" x="88" y="-5.75" font-family="Helvetica,sans-Serif" font-size="10.00">stdint.h</text>
</a>
</g>
</g>
<!-- Node1&#45;&gt;Node3 -->
<g id="edge2_Node000001_Node000003" class="edge">
<title>Node1&#45;&gt;Node3</title>
<g id="a_edge2_Node000001_Node000003"><a xlink:title=" ">
<path fill="none" stroke="#63b8ff" d="M112.09,-54.95C107.97,-47.36 102.87,-37.99 98.43,-29.82"/>
<polygon fill="#63b8ff" stroke="#63b8ff" points="101.51,-28.15 93.66,-21.03 95.36,-31.49 101.51,-28.15"/>
</a>
</g>
</g>
<!-- Node4 -->
<g id="Node000004" class="node">
<title>Node4</title>
<g id="a_Node000004"><a xlink:title=" ">
<polygon fill="#e0e0e0" stroke="#999999" points="175.62,-19.25 130.38,-19.25 130.38,0 175.62,0 175.62,-19.25"/>
<text text-anchor="middle" x="153" y="-5.75" font-family="Helvetica,sans-Serif" font-size="10.00">stdio.h</text>
</a>
</g>
</g>
<!-- Node1&#45;&gt;Node4 -->
<g id="edge3_Node000001_Node000004" class="edge">
<title>Node1&#45;&gt;Node4</title>
<g id="a_edge3_Node000001_Node000004"><a xlink:title=" ">
<path fill="none" stroke="#63b8ff" d="M128.16,-54.95C132.46,-47.28 137.78,-37.77 142.4,-29.54"/>
<polygon fill="#63b8ff" stroke="#63b8ff" points="145.34,-31.46 147.17,-21.02 139.23,-28.03 145.34,-31.46"/>
</a>
</g>
</g>
<!-- Node5 -->
<g id="Node000005" class="node">
<title>Node5</title>
<g id="a_Node000005"><a xlink:title=" ">
<polygon fill="#e0e0e0" stroke="#999999" points="240.75,-19.25 193.25,-19.25 193.25,0 240.75,0 240.75,-19.25"/>
<text text-anchor="middle" x="217" y="-5.75" font-family="Helvetica,sans-Serif" font-size="10.00">stdlib.h</text>
</a>
</g>
</g>
<!-- Node1&#45;&gt;Node5 -->
<g id="edge4_Node000001_Node000005" class="edge">
<title>Node1&#45;&gt;Node5</title>
<g id="a_edge4_Node000001_Node000005"><a xlink:title=" ">
<path fill="none" stroke="#63b8ff" d="M143.98,-54.95C158.75,-45.98 177.63,-34.52 192.5,-25.5"/>
<polygon fill="#63b8ff" stroke="#63b8ff" points="194.02,-28.67 200.75,-20.49 190.39,-22.68 194.02,-28.67"/>
</a>
</g>
</g>
</g>
</svg>
