<?xml version="1.0" encoding="UTF-8" standalone="no"?>
<!DOCTYPE svg PUBLIC "-//W3C//DTD SVG 1.1//EN"
 "http://www.w3.org/Graphics/SVG/1.1/DTD/svg11.dtd">
<!-- Generated by graphviz version 3.0.0 (20220226.1711)
 -->
<!-- Title: main Pages: 1 -->
<svg width="362pt" height="85pt"
 viewBox="0.00 0.00 362.00 85.00" xmlns="http://www.w3.org/2000/svg" xmlns:xlink="http://www.w3.org/1999/xlink">
<g id="graph0" class="graph" transform="scale(1 1) rotate(0) translate(4 81)">
<title>main</title>
<polygon fill="white" stroke="transparent" points="-4,4 -4,-81 358,-81 358,4 -4,4"/>
<!-- Node1 -->
<g id="node1" class="node">
<title>Node1</title>
<g id="a_node1"><a xlink:title="main function">
<polygon fill="#bfbfbf" stroke="black" points="0,-38.5 0,-57.5 38,-57.5 38,-38.5 0,-38.5"/>
<text text-anchor="middle" x="19" y="-45.5" font-family="Helvetica,sans-Serif" font-size="10.00">main</text>
</a>
</g>
</g>
<!-- Node2 -->
<g id="node2" class="node">
<title>Node2</title>
<g id="a_node2"><a xlink:href="../../d6/d3d/factorial__large__number_8c.html#ab5c854e0df76165c31899e69eceeeaae" target="_top" xlink:title="delete all memory allocated for large number">
<polygon fill="white" stroke="black" points="274,-57.5 274,-76.5 354,-76.5 354,-57.5 274,-57.5"/>
<text text-anchor="middle" x="314" y="-64.5" font-family="Helvetica,sans-Serif" font-size="10.00">delete_number</text>
</a>
</g>
</g>
<!-- Node1&#45;&gt;Node2 -->
<g id="edge1" class="edge">
<title>Node1&#45;&gt;Node2</title>
<path fill="none" stroke="midnightblue" d="M38.08,-56.09C48.38,-60.26 61.66,-64.89 74,-67 138.78,-78.06 214.88,-75.44 263.5,-71.83"/>
<polygon fill="midnightblue" stroke="midnightblue" points="264.05,-75.29 273.75,-71.02 263.5,-68.32 264.05,-75.29"/>
</g>
<!-- Node3 -->
<g id="node3" class="node">
<title>Node3</title>
<g id="a_node3"><a xlink:href="../../d6/d3d/factorial__large__number_8c.html#ad398ddbd594ca69a5e6dfc894925341e" target="_top" xlink:title="multiply large number with another integer and store the result in the same large number">
<polygon fill="white" stroke="black" points="85,-38.5 85,-57.5 135,-57.5 135,-38.5 85,-38.5"/>
<text text-anchor="middle" x="110" y="-45.5" font-family="Helvetica,sans-Serif" font-size="10.00">multiply</text>
</a>
</g>
</g>
<!-- Node1&#45;&gt;Node3 -->
<g id="edge2" class="edge">
<title>Node1&#45;&gt;Node3</title>
<path fill="none" stroke="midnightblue" d="M38.01,-48C48.57,-48 62.25,-48 74.78,-48"/>
<polygon fill="midnightblue" stroke="midnightblue" points="74.94,-51.5 84.94,-48 74.94,-44.5 74.94,-51.5"/>
</g>
<!-- Node5 -->
<g id="node5" class="node">
<title>Node5</title>
<g id="a_node5"><a xlink:href="../../d6/d3d/factorial__large__number_8c.html#ace5f6aa21955d4e4bdc89228c2f91234" target="_top" xlink:title="create a new large number">
<polygon fill="white" stroke="black" points="74,-0.5 74,-19.5 146,-19.5 146,-0.5 74,-0.5"/>
<text text-anchor="middle" x="110" y="-7.5" font-family="Helvetica,sans-Serif" font-size="10.00">new_number</text>
</a>
</g>
</g>
<!-- Node1&#45;&gt;Node5 -->
<g id="edge5" class="edge">
<title>Node1&#45;&gt;Node5</title>
<path fill="none" stroke="midnightblue" d="M38.01,-40.31C49.29,-35.49 64.14,-29.15 77.34,-23.52"/>
<polygon fill="midnightblue" stroke="midnightblue" points="78.77,-26.71 86.59,-19.57 76.02,-20.28 78.77,-26.71"/>
</g>
<!-- Node4 -->
<g id="node4" class="node">
<title>Node4</title>
<g id="a_node4"><a xlink:href="../../d6/d3d/factorial__large__number_8c.html#af2869d36c22a2b8f93d3166a84e124b3" target="_top" xlink:title="add a digit to the large number">
<polygon fill="white" stroke="black" points="182,-38.5 182,-57.5 238,-57.5 238,-38.5 182,-38.5"/>
<text text-anchor="middle" x="210" y="-45.5" font-family="Helvetica,sans-Serif" font-size="10.00">add_digit</text>
</a>
</g>
</g>
<!-- Node3&#45;&gt;Node4 -->
<g id="edge3" class="edge">
<title>Node3&#45;&gt;Node4</title>
<path fill="none" stroke="midnightblue" d="M135.22,-48C146.3,-48 159.66,-48 171.95,-48"/>
<polygon fill="midnightblue" stroke="midnightblue" points="171.95,-51.5 181.95,-48 171.95,-44.5 171.95,-51.5"/>
</g>
<!-- Node4&#45;&gt;Node2 -->
<g id="edge4" class="edge">
<title>Node4&#45;&gt;Node2</title>
<path fill="none" stroke="midnightblue" d="M238.07,-53.04C246.04,-54.53 255.03,-56.2 263.94,-57.86"/>
<polygon fill="midnightblue" stroke="midnightblue" points="263.43,-61.33 273.9,-59.72 264.71,-54.44 263.43,-61.33"/>
</g>
</g>
</svg>
