<?xml version="1.0" encoding="UTF-8" standalone="no"?>
<!DOCTYPE svg PUBLIC "-//W3C//DTD SVG 1.1//EN"
 "http://www.w3.org/Graphics/SVG/1.1/DTD/svg11.dtd">
<!-- Generated by graphviz version 7.0.6 (20230106.0513)
 -->
<!-- Title: main Pages: 1 -->
<svg width="362pt" height="83pt"
 viewBox="0.00 0.00 362.00 83.00" xmlns="http://www.w3.org/2000/svg" xmlns:xlink="http://www.w3.org/1999/xlink">
<g id="graph0" class="graph" transform="scale(1 1) rotate(0) translate(4 79)">
<title>main</title>
<!-- Node1 -->
<g id="node1" class="node">
<title>Node1</title>
<g id="a_node1"><a xlink:title="main function">
<polygon fill="#999999" stroke="#666666" points="38,-56 0,-56 0,-37 38,-37 38,-56"/>
<text text-anchor="middle" x="19" y="-44" font-family="Helvetica,sans-Serif" font-size="10.00">main</text>
</a>
</g>
</g>
<!-- Node2 -->
<g id="node2" class="node">
<title>Node2</title>
<g id="a_node2"><a xlink:href="../../d6/d3d/factorial__large__number_8c.html#ab5c854e0df76165c31899e69eceeeaae" target="_top" xlink:title="delete all memory allocated for large number">
<polygon fill="white" stroke="#666666" points="354,-75 274,-75 274,-56 354,-56 354,-75"/>
<text text-anchor="middle" x="314" y="-63" font-family="Helvetica,sans-Serif" font-size="10.00">delete_number</text>
</a>
</g>
</g>
<!-- Node1&#45;&gt;Node2 -->
<g id="edge1" class="edge">
<title>Node1&#45;&gt;Node2</title>
<path fill="none" stroke="#63b8ff" d="M38.13,-54.15C48.44,-58.09 61.71,-62.48 74,-64.5 138.3,-75.07 213.66,-73.05 262.3,-69.91"/>
<polygon fill="#63b8ff" stroke="#63b8ff" points="262.53,-73.4 272.26,-69.22 262.04,-66.42 262.53,-73.4"/>
</g>
<!-- Node3 -->
<g id="node3" class="node">
<title>Node3</title>
<g id="a_node3"><a xlink:href="../../d6/d3d/factorial__large__number_8c.html#ad398ddbd594ca69a5e6dfc894925341e" target="_top" xlink:title="multiply large number with another integer and store the result in the same large number">
<polygon fill="white" stroke="#666666" points="135,-56 85,-56 85,-37 135,-37 135,-56"/>
<text text-anchor="middle" x="110" y="-44" font-family="Helvetica,sans-Serif" font-size="10.00">multiply</text>
</a>
</g>
</g>
<!-- Node1&#45;&gt;Node3 -->
<g id="edge2" class="edge">
<title>Node1&#45;&gt;Node3</title>
<path fill="none" stroke="#63b8ff" d="M38.44,-46.5C48.45,-46.5 61.16,-46.5 73.04,-46.5"/>
<polygon fill="#63b8ff" stroke="#63b8ff" points="72.99,-50 82.99,-46.5 72.99,-43 72.99,-50"/>
</g>
<!-- Node5 -->
<g id="node5" class="node">
<title>Node5</title>
<g id="a_node5"><a xlink:href="../../d6/d3d/factorial__large__number_8c.html#ace5f6aa21955d4e4bdc89228c2f91234" target="_top" xlink:title="create a new large number">
<polygon fill="white" stroke="#666666" points="146,-19 74,-19 74,0 146,0 146,-19"/>
<text text-anchor="middle" x="110" y="-7" font-family="Helvetica,sans-Serif" font-size="10.00">new_number</text>
</a>
</g>
</g>
<!-- Node1&#45;&gt;Node5 -->
<g id="edge5" class="edge">
<title>Node1&#45;&gt;Node5</title>
<path fill="none" stroke="#63b8ff" d="M38.44,-38.83C48.92,-34.48 62.37,-28.89 74.71,-23.76"/>
<polygon fill="#63b8ff" stroke="#63b8ff" points="75.88,-27.06 83.77,-19.99 73.19,-20.6 75.88,-27.06"/>
</g>
<!-- Node4 -->
<g id="node4" class="node">
<title>Node4</title>
<g id="a_node4"><a xlink:href="../../d6/d3d/factorial__large__number_8c.html#af2869d36c22a2b8f93d3166a84e124b3" target="_top" xlink:title="add a digit to the large number">
<polygon fill="white" stroke="#666666" points="238,-56 182,-56 182,-37 238,-37 238,-56"/>
<text text-anchor="middle" x="210" y="-44" font-family="Helvetica,sans-Serif" font-size="10.00">add_digit</text>
</a>
</g>
</g>
<!-- Node3&#45;&gt;Node4 -->
<g id="edge3" class="edge">
<title>Node3&#45;&gt;Node4</title>
<path fill="none" stroke="#63b8ff" d="M135.48,-46.5C146.02,-46.5 158.61,-46.5 170.36,-46.5"/>
<polygon fill="#63b8ff" stroke="#63b8ff" points="170.22,-50 180.22,-46.5 170.22,-43 170.22,-50"/>
</g>
<!-- Node4&#45;&gt;Node2 -->
<g id="edge4" class="edge">
<title>Node4&#45;&gt;Node2</title>
<path fill="none" stroke="#63b8ff" d="M238.33,-51.59C245.8,-52.98 254.13,-54.53 262.45,-56.08"/>
<polygon fill="#63b8ff" stroke="#63b8ff" points="261.74,-59.51 272.21,-57.9 263.02,-52.63 261.74,-59.51"/>
</g>
</g>
</svg>
