<?xml version="1.0" encoding="UTF-8" standalone="no"?>
<!DOCTYPE svg PUBLIC "-//W3C//DTD SVG 1.1//EN"
 "http://www.w3.org/Graphics/SVG/1.1/DTD/svg11.dtd">
<!-- Generated by graphviz version 6.0.1 (20220911.1526)
 -->
<!-- Title: main Pages: 1 -->
<svg width="362pt" height="83pt"
 viewBox="0.00 0.00 362.00 83.00" xmlns="http://www.w3.org/2000/svg" xmlns:xlink="http://www.w3.org/1999/xlink">
<g id="graph0" class="graph" transform="scale(1 1) rotate(0) translate(4 79)">
<title>main</title>
<!-- Node1 -->
<g id="node1" class="node">
<title>Node1</title>
<g id="a_node1"><a xlink:title="main function">
<polygon fill="#999999" stroke="#666666" points="38,-56 0,-56 0,-37 38,-37 38,-56"/>
<text text-anchor="middle" x="19" y="-44" font-family="Helvetica,sans-Serif" font-size="10.00">main</text>
</a>
</g>
</g>
<!-- Node2 -->
<g id="node2" class="node">
<title>Node2</title>
<g id="a_node2"><a xlink:href="../../d6/d3d/factorial__large__number_8c.html#ab5c854e0df76165c31899e69eceeeaae" target="_top" xlink:title="delete all memory allocated for large number">
<polygon fill="white" stroke="#666666" points="354,-75 274,-75 274,-56 354,-56 354,-75"/>
<text text-anchor="middle" x="314" y="-63" font-family="Helvetica,sans-Serif" font-size="10.00">delete_number</text>
</a>
</g>
</g>
<!-- Node1&#45;&gt;Node2 -->
<g id="edge1" class="edge">
<title>Node1&#45;&gt;Node2</title>
<path fill="none" stroke="#63b8ff" d="M38.13,-54.15C48.44,-58.09 61.71,-62.48 74,-64.5 138.85,-75.16 214.93,-73.01 263.53,-69.83"/>
<polygon fill="#63b8ff" stroke="#63b8ff" points="264.04,-73.3 273.77,-69.11 263.55,-66.32 264.04,-73.3"/>
</g>
<!-- Node3 -->
<g id="node3" class="node">
<title>Node3</title>
<g id="a_node3"><a xlink:href="../../d6/d3d/factorial__large__number_8c.html#ad398ddbd594ca69a5e6dfc894925341e" target="_top" xlink:title="multiply large number with another integer and store the result in the same large number">
<polygon fill="white" stroke="#666666" points="135,-56 85,-56 85,-37 135,-37 135,-56"/>
<text text-anchor="middle" x="110" y="-44" font-family="Helvetica,sans-Serif" font-size="10.00">multiply</text>
</a>
</g>
</g>
<!-- Node1&#45;&gt;Node3 -->
<g id="edge2" class="edge">
<title>Node1&#45;&gt;Node3</title>
<path fill="none" stroke="#63b8ff" d="M38.01,-46.5C48.57,-46.5 62.25,-46.5 74.78,-46.5"/>
<polygon fill="#63b8ff" stroke="#63b8ff" points="74.94,-50 84.94,-46.5 74.94,-43 74.94,-50"/>
</g>
<!-- Node5 -->
<g id="node5" class="node">
<title>Node5</title>
<g id="a_node5"><a xlink:href="../../d6/d3d/factorial__large__number_8c.html#ace5f6aa21955d4e4bdc89228c2f91234" target="_top" xlink:title="create a new large number">
<polygon fill="white" stroke="#666666" points="146,-19 74,-19 74,0 146,0 146,-19"/>
<text text-anchor="middle" x="110" y="-7" font-family="Helvetica,sans-Serif" font-size="10.00">new_number</text>
</a>
</g>
</g>
<!-- Node1&#45;&gt;Node5 -->
<g id="edge5" class="edge">
<title>Node1&#45;&gt;Node5</title>
<path fill="none" stroke="#63b8ff" d="M38.01,-39.01C49.02,-34.44 63.43,-28.44 76.39,-23.06"/>
<polygon fill="#63b8ff" stroke="#63b8ff" points="78.05,-26.16 85.94,-19.09 75.36,-19.7 78.05,-26.16"/>
</g>
<!-- Node4 -->
<g id="node4" class="node">
<title>Node4</title>
<g id="a_node4"><a xlink:href="../../d6/d3d/factorial__large__number_8c.html#af2869d36c22a2b8f93d3166a84e124b3" target="_top" xlink:title="add a digit to the large number">
<polygon fill="white" stroke="#666666" points="238,-56 182,-56 182,-37 238,-37 238,-56"/>
<text text-anchor="middle" x="210" y="-44" font-family="Helvetica,sans-Serif" font-size="10.00">add_digit</text>
</a>
</g>
</g>
<!-- Node3&#45;&gt;Node4 -->
<g id="edge3" class="edge">
<title>Node3&#45;&gt;Node4</title>
<path fill="none" stroke="#63b8ff" d="M135.22,-46.5C146.3,-46.5 159.66,-46.5 171.95,-46.5"/>
<polygon fill="#63b8ff" stroke="#63b8ff" points="171.95,-50 181.95,-46.5 171.95,-43 171.95,-50"/>
</g>
<!-- Node4&#45;&gt;Node2 -->
<g id="edge4" class="edge">
<title>Node4&#45;&gt;Node2</title>
<path fill="none" stroke="#63b8ff" d="M238.07,-51.54C246.04,-53.03 255.03,-54.7 263.94,-56.36"/>
<polygon fill="#63b8ff" stroke="#63b8ff" points="263.43,-59.83 273.9,-58.22 264.71,-52.94 263.43,-59.83"/>
</g>
</g>
</svg>
