<?xml version="1.0" encoding="UTF-8" standalone="no"?>
<!DOCTYPE svg PUBLIC "-//W3C//DTD SVG 1.1//EN"
 "http://www.w3.org/Graphics/SVG/1.1/DTD/svg11.dtd">
<!-- Generated by graphviz version 9.0.0 (20230911.1827)
 -->
<!-- Title: main Pages: 1 -->
<svg width="359pt" height="83pt"
 viewBox="0.00 0.00 359.25 83.25" xmlns="http://www.w3.org/2000/svg" xmlns:xlink="http://www.w3.org/1999/xlink">
<g id="graph0" class="graph" transform="scale(1 1) rotate(0) translate(4 79.25)">
<title>main</title>
<!-- Node1 -->
<g id="Node000001" class="node">
<title>Node1</title>
<g id="a_Node000001"><a xlink:title="main function">
<polygon fill="#999999" stroke="#666666" points="37,-56.25 0,-56.25 0,-37 37,-37 37,-56.25"/>
<text text-anchor="middle" x="18.5" y="-42.75" font-family="Helvetica,sans-Serif" font-size="10.00">main</text>
</a>
</g>
</g>
<!-- Node2 -->
<g id="Node000002" class="node">
<title>Node2</title>
<g id="a_Node000002"><a xlink:href="../../d6/d3d/factorial__large__number_8c.html#ab5c854e0df76165c31899e69eceeeaae" target="_top" xlink:title="delete all memory allocated for large number">
<polygon fill="white" stroke="#666666" points="351.25,-75.25 271.5,-75.25 271.5,-56 351.25,-56 351.25,-75.25"/>
<text text-anchor="middle" x="311.38" y="-61.75" font-family="Helvetica,sans-Serif" font-size="10.00">delete_number</text>
</a>
</g>
</g>
<!-- Node1&#45;&gt;Node2 -->
<g id="edge1_Node000001_Node000002" class="edge">
<title>Node1&#45;&gt;Node2</title>
<g id="a_edge1_Node000001_Node000002"><a xlink:title=" ">
<path fill="none" stroke="#63b8ff" d="M37.41,-54.72C47.61,-58.88 60.76,-63.52 73,-65.62 136.78,-76.61 211.64,-74.12 259.99,-70.55"/>
<polygon fill="#63b8ff" stroke="#63b8ff" points="260.18,-74.05 269.87,-69.77 259.63,-67.07 260.18,-74.05"/>
</a>
</g>
</g>
<!-- Node3 -->
<g id="Node000003" class="node">
<title>Node3</title>
<g id="a_Node000003"><a xlink:href="../../d6/d3d/factorial__large__number_8c.html#ad398ddbd594ca69a5e6dfc894925341e" target="_top" xlink:title="multiply large number with another integer and store the result in the same large number">
<polygon fill="white" stroke="#666666" points="133.62,-56.25 83.88,-56.25 83.88,-37 133.62,-37 133.62,-56.25"/>
<text text-anchor="middle" x="108.75" y="-42.75" font-family="Helvetica,sans-Serif" font-size="10.00">multiply</text>
</a>
</g>
</g>
<!-- Node1&#45;&gt;Node3 -->
<g id="edge2_Node000001_Node000003" class="edge">
<title>Node1&#45;&gt;Node3</title>
<g id="a_edge2_Node000001_Node000003"><a xlink:title=" ">
<path fill="none" stroke="#63b8ff" d="M37.36,-46.62C47.33,-46.62 60.12,-46.62 72.05,-46.62"/>
<polygon fill="#63b8ff" stroke="#63b8ff" points="72.05,-50.13 82.05,-46.63 72.05,-43.13 72.05,-50.13"/>
</a>
</g>
</g>
<!-- Node5 -->
<g id="Node000005" class="node">
<title>Node5</title>
<g id="a_Node000005"><a xlink:href="../../d6/d3d/factorial__large__number_8c.html#ace5f6aa21955d4e4bdc89228c2f91234" target="_top" xlink:title="create a new large number">
<polygon fill="white" stroke="#666666" points="144.5,-19.25 73,-19.25 73,0 144.5,0 144.5,-19.25"/>
<text text-anchor="middle" x="108.75" y="-5.75" font-family="Helvetica,sans-Serif" font-size="10.00">new_number</text>
</a>
</g>
</g>
<!-- Node1&#45;&gt;Node5 -->
<g id="edge5_Node000001_Node000005" class="edge">
<title>Node1&#45;&gt;Node5</title>
<g id="a_edge5_Node000001_Node000005"><a xlink:title=" ">
<path fill="none" stroke="#63b8ff" d="M37.36,-39.14C47.72,-34.79 61.12,-29.17 73.44,-24.01"/>
<polygon fill="#63b8ff" stroke="#63b8ff" points="74.63,-27.31 82.5,-20.21 71.92,-20.85 74.63,-27.31"/>
</a>
</g>
</g>
<!-- Node4 -->
<g id="Node000004" class="node">
<title>Node4</title>
<g id="a_Node000004"><a xlink:href="../../d6/d3d/factorial__large__number_8c.html#af2869d36c22a2b8f93d3166a84e124b3" target="_top" xlink:title="add a digit to the large number">
<polygon fill="white" stroke="#666666" points="235.5,-56.25 180.5,-56.25 180.5,-37 235.5,-37 235.5,-56.25"/>
<text text-anchor="middle" x="208" y="-42.75" font-family="Helvetica,sans-Serif" font-size="10.00">add_digit</text>
</a>
</g>
</g>
<!-- Node3&#45;&gt;Node4 -->
<g id="edge3_Node000003_Node000004" class="edge">
<title>Node3&#45;&gt;Node4</title>
<g id="a_edge3_Node000003_Node000004"><a xlink:title=" ">
<path fill="none" stroke="#63b8ff" d="M133.79,-46.62C144.34,-46.62 156.98,-46.62 168.76,-46.62"/>
<polygon fill="#63b8ff" stroke="#63b8ff" points="168.64,-50.13 178.64,-46.63 168.64,-43.13 168.64,-50.13"/>
</a>
</g>
</g>
<!-- Node4&#45;&gt;Node2 -->
<g id="edge4_Node000004_Node000002" class="edge">
<title>Node4&#45;&gt;Node2</title>
<g id="a_edge4_Node000004_Node000002"><a xlink:title=" ">
<path fill="none" stroke="#63b8ff" d="M235.9,-51.67C243.32,-53.06 251.62,-54.61 259.91,-56.17"/>
<polygon fill="#63b8ff" stroke="#63b8ff" points="259.17,-59.59 269.64,-57.99 260.46,-52.71 259.17,-59.59"/>
</a>
</g>
</g>
</g>
</svg>
