<?xml version="1.0" encoding="UTF-8" standalone="no"?>
<!DOCTYPE svg PUBLIC "-//W3C//DTD SVG 1.1//EN"
 "http://www.w3.org/Graphics/SVG/1.1/DTD/svg11.dtd">
<!-- Generated by graphviz version 9.0.0 (20230911.1827)
 -->
<!-- Title: Library for 3D Vectors &amp; Quaternions Pages: 1 -->
<svg width="283pt" height="150pt"
 viewBox="0.00 0.00 283.00 149.88" xmlns="http://www.w3.org/2000/svg" xmlns:xlink="http://www.w3.org/1999/xlink">
<g id="graph0" class="graph" transform="scale(1 1) rotate(0) translate(4 145.88)">
<title>Library for 3D Vectors &amp; Quaternions</title>
<!-- Node5 -->
<g id="Node000005" class="node">
<title>Node5</title>
<g id="a_Node000005"><a xlink:href="../../d4/d69/group__dual__quats.html" target="_top" xlink:title=" ">
<polygon fill="white" stroke="#666666" points="262.62,-141.88 160.38,-141.88 160.38,-111.38 262.62,-111.38 262.62,-141.88"/>
<text text-anchor="start" x="168.38" y="-128.38" font-family="Helvetica,sans-Serif" font-size="10.00">3D Dual&#45;Quaternion</text>
<text text-anchor="middle" x="211.5" y="-117.12" font-family="Helvetica,sans-Serif" font-size="10.00"> operations</text>
</a>
</g>
</g>
<!-- Node3 -->
<g id="Node000003" class="node">
<title>Node3</title>
<g id="a_Node000003"><a xlink:href="../../dd/d7a/group__matrix.html" target="_top" xlink:title=" ">
<polygon fill="white" stroke="#666666" points="257,-93.25 166,-93.25 166,-74 257,-74 257,-93.25"/>
<text text-anchor="middle" x="211.5" y="-79.75" font-family="Helvetica,sans-Serif" font-size="10.00">Matrix operations</text>
</a>
</g>
</g>
<!-- Node1 -->
<g id="Node000001" class="node">
<title>Node1</title>
<g id="a_Node000001"><a xlink:title=" ">
<polygon fill="#999999" stroke="#666666" points="112,-79.88 0,-79.88 0,-49.38 112,-49.38 112,-79.88"/>
<text text-anchor="start" x="8" y="-66.38" font-family="Helvetica,sans-Serif" font-size="10.00">Library for 3D Vectors</text>
<text text-anchor="middle" x="56" y="-55.12" font-family="Helvetica,sans-Serif" font-size="10.00"> &amp; Quaternions</text>
</a>
</g>
</g>
<!-- Node1&#45;&gt;Node5 -->
<g id="edge4" class="edge">
<title>Node1&#45;&gt;Node5</title>
<path fill="none" stroke="black" d="M104.1,-84.6C118.19,-90.49 133.69,-96.89 148,-102.62 154.8,-105.35 162.03,-108.19 169.08,-110.91"/>
<polygon fill="black" stroke="black" points="105.62,-81.44 95.05,-80.8 102.91,-87.9 105.62,-81.44"/>
</g>
<!-- Node1&#45;&gt;Node3 -->
<g id="edge2" class="edge">
<title>Node1&#45;&gt;Node3</title>
<path fill="none" stroke="black" d="M123.68,-72.88C137.9,-74.64 152.58,-76.46 165.74,-78.08"/>
<polygon fill="black" stroke="black" points="124.27,-69.43 113.92,-71.67 123.41,-76.37 124.27,-69.43"/>
</g>
<!-- Node4 -->
<g id="Node000004" class="node">
<title>Node4</title>
<g id="a_Node000004"><a xlink:href="../../dc/d9a/group__quats.html" target="_top" xlink:title=" ">
<polygon fill="white" stroke="#666666" points="275,-56.25 148,-56.25 148,-37 275,-37 275,-56.25"/>
<text text-anchor="middle" x="211.5" y="-42.75" font-family="Helvetica,sans-Serif" font-size="10.00">3D Quaternion operations</text>
</a>
</g>
</g>
<!-- Node1&#45;&gt;Node4 -->
<g id="edge3" class="edge">
<title>Node1&#45;&gt;Node4</title>
<path fill="none" stroke="black" d="M123.84,-56.79C131.74,-55.86 139.77,-54.92 147.61,-54"/>
<polygon fill="black" stroke="black" points="123.44,-53.31 113.92,-57.95 124.26,-60.26 123.44,-53.31"/>
</g>
<!-- Node2 -->
<g id="Node000002" class="node">
<title>Node2</title>
<g id="a_Node000002"><a xlink:href="../../de/d7b/group__vec__3d.html" target="_top" xlink:title=" ">
<polygon fill="white" stroke="#666666" points="265.62,-19.25 157.38,-19.25 157.38,0 265.62,0 265.62,-19.25"/>
<text text-anchor="middle" x="211.5" y="-5.75" font-family="Helvetica,sans-Serif" font-size="10.00">3D Vector operations</text>
</a>
</g>
</g>
<!-- Node1&#45;&gt;Node2 -->
<g id="edge1" class="edge">
<title>Node1&#45;&gt;Node2</title>
<path fill="none" stroke="black" d="M103.47,-44.62C117.65,-38.82 133.36,-32.69 148,-27.62 156,-24.85 164.68,-22.16 172.95,-19.74"/>
<polygon fill="black" stroke="black" points="102.27,-41.33 94.38,-48.39 104.95,-47.8 102.27,-41.33"/>
</g>
</g>
</svg>
