<?xml version="1.0" encoding="UTF-8" standalone="no"?>
<!DOCTYPE svg PUBLIC "-//W3C//DTD SVG 1.1//EN"
 "http://www.w3.org/Graphics/SVG/1.1/DTD/svg11.dtd">
<!-- Generated by graphviz version 3.0.0 (20220226.1711)
 -->
<!-- Title: Library for 3D Vectors &amp; Quaternions Pages: 1 -->
<svg width="285pt" height="150pt"
 viewBox="0.00 0.00 285.00 149.50" xmlns="http://www.w3.org/2000/svg" xmlns:xlink="http://www.w3.org/1999/xlink">
<g id="graph0" class="graph" transform="scale(1 1) rotate(0) translate(4 145.5)">
<title>Library for 3D Vectors &amp; Quaternions</title>
<polygon fill="white" stroke="transparent" points="-4,4 -4,-145.5 281,-145.5 281,4 -4,4"/>
<!-- Node5 -->
<g id="node1" class="node">
<title>Node5</title>
<g id="a_node1"><a xlink:href="../../d4/d69/group__dual__quats.html" target="_top" xlink:title=" ">
<polygon fill="white" stroke="black" points="264.5,-141.5 161.5,-141.5 161.5,-111.5 264.5,-111.5 264.5,-141.5"/>
<text text-anchor="start" x="169.5" y="-129.5" font-family="Helvetica,sans-Serif" font-size="10.00">3D Dual&#45;Quaternion</text>
<text text-anchor="middle" x="213" y="-118.5" font-family="Helvetica,sans-Serif" font-size="10.00"> operations</text>
</a>
</g>
</g>
<!-- Node3 -->
<g id="node2" class="node">
<title>Node3</title>
<g id="a_node2"><a xlink:href="../../dd/d7a/group__matrix.html" target="_top" xlink:title=" ">
<polygon fill="white" stroke="black" points="259,-93 167,-93 167,-74 259,-74 259,-93"/>
<text text-anchor="middle" x="213" y="-81" font-family="Helvetica,sans-Serif" font-size="10.00">Matrix operations</text>
</a>
</g>
</g>
<!-- Node1 -->
<g id="node3" class="node">
<title>Node1</title>
<g id="a_node3"><a xlink:title=" ">
<polygon fill="#bfbfbf" stroke="black" points="113,-79.5 0,-79.5 0,-49.5 113,-49.5 113,-79.5"/>
<text text-anchor="start" x="8" y="-67.5" font-family="Helvetica,sans-Serif" font-size="10.00">Library for 3D Vectors</text>
<text text-anchor="middle" x="56.5" y="-56.5" font-family="Helvetica,sans-Serif" font-size="10.00"> &amp; Quaternions</text>
</a>
</g>
</g>
<!-- Node1&#45;&gt;Node5 -->
<g id="edge4" class="edge">
<title>Node1&#45;&gt;Node5</title>
<path fill="none" stroke="black" d="M102.46,-83.48C117.25,-89.64 133.79,-96.45 149,-102.5 156.39,-105.44 164.31,-108.52 171.94,-111.44"/>
<polygon fill="black" stroke="black" points="103.61,-80.17 93.03,-79.54 100.91,-86.63 103.61,-80.17"/>
</g>
<!-- Node1&#45;&gt;Node3 -->
<g id="edge2" class="edge">
<title>Node1&#45;&gt;Node3</title>
<path fill="none" stroke="black" d="M123.34,-72.6C138.04,-74.41 153.31,-76.28 166.95,-77.96"/>
<polygon fill="black" stroke="black" points="123.63,-69.11 113.28,-71.36 122.78,-76.05 123.63,-69.11"/>
</g>
<!-- Node4 -->
<g id="node4" class="node">
<title>Node4</title>
<g id="a_node4"><a xlink:href="../../dc/d9a/group__quats.html" target="_top" xlink:title=" ">
<polygon fill="white" stroke="black" points="277,-56 149,-56 149,-37 277,-37 277,-56"/>
<text text-anchor="middle" x="213" y="-44" font-family="Helvetica,sans-Serif" font-size="10.00">3D Quaternion operations</text>
</a>
</g>
</g>
<!-- Node1&#45;&gt;Node4 -->
<g id="edge3" class="edge">
<title>Node1&#45;&gt;Node4</title>
<path fill="none" stroke="black" d="M123.47,-56.81C131.92,-55.83 140.56,-54.82 148.96,-53.84"/>
<polygon fill="black" stroke="black" points="122.81,-53.37 113.28,-58 123.62,-60.32 122.81,-53.37"/>
</g>
<!-- Node2 -->
<g id="node5" class="node">
<title>Node2</title>
<g id="a_node5"><a xlink:href="../../de/d7b/group__vec__3d.html" target="_top" xlink:title=" ">
<polygon fill="white" stroke="black" points="267.5,-19 158.5,-19 158.5,0 267.5,0 267.5,-19"/>
<text text-anchor="middle" x="213" y="-7" font-family="Helvetica,sans-Serif" font-size="10.00">3D Vector operations</text>
</a>
</g>
</g>
<!-- Node1&#45;&gt;Node2 -->
<g id="edge1" class="edge">
<title>Node1&#45;&gt;Node2</title>
<path fill="none" stroke="black" d="M103.06,-45.72C117.64,-39.94 133.92,-33.73 149,-28.5 158.5,-25.21 168.91,-21.93 178.49,-19.05"/>
<polygon fill="black" stroke="black" points="101.74,-42.48 93.76,-49.45 104.34,-48.98 101.74,-42.48"/>
</g>
</g>
</svg>
