<?xml version="1.0" encoding="UTF-8" standalone="no"?>
<!DOCTYPE svg PUBLIC "-//W3C//DTD SVG 1.1//EN"
 "http://www.w3.org/Graphics/SVG/1.1/DTD/svg11.dtd">
<!-- Generated by graphviz version 7.0.6 (20230106.0513)
 -->
<!-- Title: Library for 3D Vectors &amp; Quaternions Pages: 1 -->
<svg width="285pt" height="150pt"
 viewBox="0.00 0.00 285.00 149.50" xmlns="http://www.w3.org/2000/svg" xmlns:xlink="http://www.w3.org/1999/xlink">
<g id="graph0" class="graph" transform="scale(1 1) rotate(0) translate(4 145.5)">
<title>Library for 3D Vectors &amp; Quaternions</title>
<!-- Node5 -->
<g id="node1" class="node">
<title>Node5</title>
<g id="a_node1"><a xlink:href="../../d4/d69/group__dual__quats.html" target="_top" xlink:title=" ">
<polygon fill="white" stroke="#666666" points="264.5,-141.5 161.5,-141.5 161.5,-111.5 264.5,-111.5 264.5,-141.5"/>
<text text-anchor="start" x="169.5" y="-129.5" font-family="Helvetica,sans-Serif" font-size="10.00">3D Dual&#45;Quaternion</text>
<text text-anchor="middle" x="213" y="-118.5" font-family="Helvetica,sans-Serif" font-size="10.00"> operations</text>
</a>
</g>
</g>
<!-- Node3 -->
<g id="node2" class="node">
<title>Node3</title>
<g id="a_node2"><a xlink:href="../../dd/d7a/group__matrix.html" target="_top" xlink:title=" ">
<polygon fill="white" stroke="#666666" points="259,-93 167,-93 167,-74 259,-74 259,-93"/>
<text text-anchor="middle" x="213" y="-81" font-family="Helvetica,sans-Serif" font-size="10.00">Matrix operations</text>
</a>
</g>
</g>
<!-- Node1 -->
<g id="node3" class="node">
<title>Node1</title>
<g id="a_node3"><a xlink:title=" ">
<polygon fill="#999999" stroke="#666666" points="113,-79.5 0,-79.5 0,-49.5 113,-49.5 113,-79.5"/>
<text text-anchor="start" x="8" y="-67.5" font-family="Helvetica,sans-Serif" font-size="10.00">Library for 3D Vectors</text>
<text text-anchor="middle" x="56.5" y="-56.5" font-family="Helvetica,sans-Serif" font-size="10.00"> &amp; Quaternions</text>
</a>
</g>
</g>
<!-- Node1&#45;&gt;Node5 -->
<g id="edge4" class="edge">
<title>Node1&#45;&gt;Node5</title>
<path fill="none" stroke="black" d="M104.48,-84.33C118.75,-90.26 134.48,-96.72 149,-102.5 156.07,-105.31 163.61,-108.25 170.93,-111.05"/>
<polygon fill="black" stroke="black" points="105.88,-81.12 95.31,-80.49 103.19,-87.58 105.88,-81.12"/>
</g>
<!-- Node1&#45;&gt;Node3 -->
<g id="edge2" class="edge">
<title>Node1&#45;&gt;Node3</title>
<path fill="none" stroke="black" d="M124.61,-72.75C138.92,-74.51 153.71,-76.33 166.95,-77.96"/>
<polygon fill="black" stroke="black" points="125.13,-69.29 114.78,-71.54 124.28,-76.24 125.13,-69.29"/>
</g>
<!-- Node4 -->
<g id="node4" class="node">
<title>Node4</title>
<g id="a_node4"><a xlink:href="../../dc/d9a/group__quats.html" target="_top" xlink:title=" ">
<polygon fill="white" stroke="#666666" points="277,-56 149,-56 149,-37 277,-37 277,-56"/>
<text text-anchor="middle" x="213" y="-44" font-family="Helvetica,sans-Serif" font-size="10.00">3D Quaternion operations</text>
</a>
</g>
</g>
<!-- Node1&#45;&gt;Node4 -->
<g id="edge3" class="edge">
<title>Node1&#45;&gt;Node4</title>
<path fill="none" stroke="black" d="M124.5,-56.69C132.53,-55.76 140.72,-54.8 148.7,-53.87"/>
<polygon fill="black" stroke="black" points="124.31,-53.19 114.78,-57.83 125.12,-60.15 124.31,-53.19"/>
</g>
<!-- Node2 -->
<g id="node5" class="node">
<title>Node2</title>
<g id="a_node5"><a xlink:href="../../de/d7b/group__vec__3d.html" target="_top" xlink:title=" ">
<polygon fill="white" stroke="#666666" points="267.5,-19 158.5,-19 158.5,0 267.5,0 267.5,-19"/>
<text text-anchor="middle" x="213" y="-7" font-family="Helvetica,sans-Serif" font-size="10.00">3D Vector operations</text>
</a>
</g>
</g>
<!-- Node1&#45;&gt;Node2 -->
<g id="edge1" class="edge">
<title>Node1&#45;&gt;Node2</title>
<path fill="none" stroke="black" d="M105.07,-44.93C119.13,-39.38 134.61,-33.49 149,-28.5 158.07,-25.36 167.97,-22.23 177.18,-19.45"/>
<polygon fill="black" stroke="black" points="104.04,-41.57 96.04,-48.53 106.63,-48.08 104.04,-41.57"/>
</g>
</g>
</svg>
