<?xml version="1.0" encoding="UTF-8" standalone="no"?>
<!DOCTYPE svg PUBLIC "-//W3C//DTD SVG 1.1//EN"
 "http://www.w3.org/Graphics/SVG/1.1/DTD/svg11.dtd">
<!-- Generated by graphviz version 9.0.0 (20230911.1827)
 -->
<!-- Title: math/fibonacci_formula.c Pages: 1 -->
<svg width="187pt" height="83pt"
 viewBox="0.00 0.00 186.62 82.50" xmlns="http://www.w3.org/2000/svg" xmlns:xlink="http://www.w3.org/1999/xlink">
<g id="graph0" class="graph" transform="scale(1 1) rotate(0) translate(4 78.5)">
<title>math/fibonacci_formula.c</title>
<!-- Node1 -->
<g id="Node000001" class="node">
<title>Node1</title>
<g id="a_Node000001"><a xlink:title="Finding Fibonacci number of any n number using [Binet&#39;s closed form formula](https://en....">
<polygon fill="#999999" stroke="#666666" points="149.75,-74.5 24.25,-74.5 24.25,-55.25 149.75,-55.25 149.75,-74.5"/>
<text text-anchor="middle" x="87" y="-61" font-family="Helvetica,sans-Serif" font-size="10.00">math/fibonacci_formula.c</text>
</a>
</g>
</g>
<!-- Node2 -->
<g id="Node000002" class="node">
<title>Node2</title>
<g id="a_Node000002"><a xlink:title=" ">
<polygon fill="#e0e0e0" stroke="#999999" points="46,-19.25 0,-19.25 0,0 46,0 46,-19.25"/>
<text text-anchor="middle" x="23" y="-5.75" font-family="Helvetica,sans-Serif" font-size="10.00">math.h</text>
</a>
</g>
</g>
<!-- Node1&#45;&gt;Node2 -->
<g id="edge1_Node000001_Node000002" class="edge">
<title>Node1&#45;&gt;Node2</title>
<g id="a_edge1_Node000001_Node000002"><a xlink:title=" ">
<path fill="none" stroke="#63b8ff" d="M76.14,-54.84C66.89,-47.15 53.38,-35.9 42.29,-26.68"/>
<polygon fill="#63b8ff" stroke="#63b8ff" points="44.79,-24.2 34.86,-20.49 40.31,-29.58 44.79,-24.2"/>
</a>
</g>
</g>
<!-- Node3 -->
<g id="Node000003" class="node">
<title>Node3</title>
<g id="a_Node000003"><a xlink:title=" ">
<polygon fill="#e0e0e0" stroke="#999999" points="109.62,-19.25 64.38,-19.25 64.38,0 109.62,0 109.62,-19.25"/>
<text text-anchor="middle" x="87" y="-5.75" font-family="Helvetica,sans-Serif" font-size="10.00">stdio.h</text>
</a>
</g>
</g>
<!-- Node1&#45;&gt;Node3 -->
<g id="edge2_Node000001_Node000003" class="edge">
<title>Node1&#45;&gt;Node3</title>
<g id="a_edge2_Node000001_Node000003"><a xlink:title=" ">
<path fill="none" stroke="#63b8ff" d="M87,-55.08C87,-48.57 87,-39.42 87,-31.12"/>
<polygon fill="#63b8ff" stroke="#63b8ff" points="90.5,-31.12 87,-21.12 83.5,-31.12 90.5,-31.12"/>
</a>
</g>
</g>
<!-- Node4 -->
<g id="Node000004" class="node">
<title>Node4</title>
<g id="a_Node000004"><a xlink:title=" ">
<polygon fill="#e0e0e0" stroke="#999999" points="178.62,-19.25 127.38,-19.25 127.38,0 178.62,0 178.62,-19.25"/>
<text text-anchor="middle" x="153" y="-5.75" font-family="Helvetica,sans-Serif" font-size="10.00">assert.h</text>
</a>
</g>
</g>
<!-- Node1&#45;&gt;Node4 -->
<g id="edge3_Node000001_Node000004" class="edge">
<title>Node1&#45;&gt;Node4</title>
<g id="a_edge3_Node000001_Node000004"><a xlink:title=" ">
<path fill="none" stroke="#63b8ff" d="M98.2,-54.84C107.74,-47.15 121.67,-35.9 133.11,-26.68"/>
<polygon fill="#63b8ff" stroke="#63b8ff" points="135.21,-29.48 140.79,-20.48 130.81,-24.03 135.21,-29.48"/>
</a>
</g>
</g>
</g>
</svg>
