<?xml version="1.0" encoding="UTF-8" standalone="no"?>
<!DOCTYPE svg PUBLIC "-//W3C//DTD SVG 1.1//EN"
 "http://www.w3.org/Graphics/SVG/1.1/DTD/svg11.dtd">
<!-- Generated by graphviz version 7.0.6 (20230106.0513)
 -->
<!-- Title: developer_tools/min_printf.h Pages: 1 -->
<svg width="196pt" height="93pt"
 viewBox="0.00 0.00 196.00 93.00" xmlns="http://www.w3.org/2000/svg" xmlns:xlink="http://www.w3.org/1999/xlink">
<g id="graph0" class="graph" transform="scale(1 1) rotate(0) translate(4 89)">
<title>developer_tools/min_printf.h</title>
<!-- Node1 -->
<g id="node1" class="node">
<title>Node1</title>
<g id="a_node1"><a xlink:title="Implementation of a function similar to printf">
<polygon fill="#999999" stroke="#666666" points="144,-85 40,-85 40,-55 144,-55 144,-85"/>
<text text-anchor="start" x="48" y="-73" font-family="Helvetica,sans-Serif" font-size="10.00">developer_tools/min</text>
<text text-anchor="middle" x="92" y="-62" font-family="Helvetica,sans-Serif" font-size="10.00">_printf.h</text>
</a>
</g>
</g>
<!-- Node2 -->
<g id="node2" class="node">
<title>Node2</title>
<g id="a_node2"><a xlink:title=" ">
<polygon fill="#e0e0e0" stroke="#999999" points="48,-19 0,-19 0,0 48,0 48,-19"/>
<text text-anchor="middle" x="24" y="-7" font-family="Helvetica,sans-Serif" font-size="10.00">stdlib.h</text>
</a>
</g>
</g>
<!-- Node1&#45;&gt;Node2 -->
<g id="edge1" class="edge">
<title>Node1&#45;&gt;Node2</title>
<path fill="none" stroke="#63b8ff" d="M75.19,-54.54C65.31,-46.04 52.81,-35.29 42.63,-26.53"/>
<polygon fill="#63b8ff" stroke="#63b8ff" points="45.09,-24.03 35.23,-20.16 40.53,-29.34 45.09,-24.03"/>
</g>
<!-- Node3 -->
<g id="node3" class="node">
<title>Node3</title>
<g id="a_node3"><a xlink:title=" ">
<polygon fill="#e0e0e0" stroke="#999999" points="117.5,-19 66.5,-19 66.5,0 117.5,0 117.5,-19"/>
<text text-anchor="middle" x="92" y="-7" font-family="Helvetica,sans-Serif" font-size="10.00">unistd.h</text>
</a>
</g>
</g>
<!-- Node1&#45;&gt;Node3 -->
<g id="edge2" class="edge">
<title>Node1&#45;&gt;Node3</title>
<path fill="none" stroke="#63b8ff" d="M92,-54.54C92,-47.34 92,-38.53 92,-30.68"/>
<polygon fill="#63b8ff" stroke="#63b8ff" points="95.5,-30.69 92,-20.69 88.5,-30.69 95.5,-30.69"/>
</g>
<!-- Node4 -->
<g id="node4" class="node">
<title>Node4</title>
<g id="a_node4"><a xlink:title=" ">
<polygon fill="#e0e0e0" stroke="#999999" points="188,-19 136,-19 136,0 188,0 188,-19"/>
<text text-anchor="middle" x="162" y="-7" font-family="Helvetica,sans-Serif" font-size="10.00">stdarg.h</text>
</a>
</g>
</g>
<!-- Node1&#45;&gt;Node4 -->
<g id="edge3" class="edge">
<title>Node1&#45;&gt;Node4</title>
<path fill="none" stroke="#63b8ff" d="M109.3,-54.54C119.47,-46.04 132.34,-35.29 142.82,-26.53"/>
<polygon fill="#63b8ff" stroke="#63b8ff" points="145.03,-29.24 150.46,-20.15 140.54,-23.87 145.03,-29.24"/>
</g>
</g>
</svg>
