<?xml version="1.0" encoding="UTF-8" standalone="no"?>
<!DOCTYPE svg PUBLIC "-//W3C//DTD SVG 1.1//EN"
 "http://www.w3.org/Graphics/SVG/1.1/DTD/svg11.dtd">
<!-- Generated by graphviz version 7.0.6 (20230106.0513)
 -->
<!-- Title: decimal_to_anybase Pages: 1 -->
<svg width="232pt" height="137pt"
 viewBox="0.00 0.00 232.00 137.00" xmlns="http://www.w3.org/2000/svg" xmlns:xlink="http://www.w3.org/1999/xlink">
<g id="graph0" class="graph" transform="scale(1 1) rotate(0) translate(4 133)">
<title>decimal_to_anybase</title>
<!-- Node1 -->
<g id="node1" class="node">
<title>Node1</title>
<g id="a_node1"><a xlink:title="decimal_to_anybase ensure the validity of the parameters and convert any unsigned integers into any a...">
<polygon fill="#999999" stroke="#666666" points="106,-56 0,-56 0,-37 106,-37 106,-56"/>
<text text-anchor="middle" x="53" y="-44" font-family="Helvetica,sans-Serif" font-size="10.00">decimal_to_anybase</text>
</a>
</g>
</g>
<!-- Node2 -->
<g id="node2" class="node">
<title>Node2</title>
<g id="a_node2"><a xlink:href="../../d1/dba/decimal__to__any__base_8c.html#a899b3a7e0f1fac5a465eac0d4b10d711" target="_top" xlink:title="Calculate the final length of the converted number.">
<polygon fill="white" stroke="#666666" points="221.5,-111 144.5,-111 144.5,-92 221.5,-92 221.5,-111"/>
<text text-anchor="middle" x="183" y="-99" font-family="Helvetica,sans-Serif" font-size="10.00">converted_len</text>
</a>
</g>
</g>
<!-- Node1&#45;&gt;Node2 -->
<g id="edge1" class="edge">
<title>Node1&#45;&gt;Node2</title>
<path fill="none" stroke="#63b8ff" d="M77.18,-56.46C97.12,-65.03 126.12,-77.49 148.57,-87.13"/>
<polygon fill="#63b8ff" stroke="#63b8ff" points="147.03,-90.28 157.6,-91.02 149.8,-83.85 147.03,-90.28"/>
</g>
<!-- Node3 -->
<g id="node3" class="node">
<title>Node3</title>
<g id="a_node3"><a xlink:href="../../d1/dba/decimal__to__any__base_8c.html#a0c5ccb926a23bc0050f213ba3408e18d" target="_top" xlink:title="Convert positive decimal integer into anybase recursively.">
<polygon fill="white" stroke="#666666" points="214,-56 152,-56 152,-37 214,-37 214,-56"/>
<text text-anchor="middle" x="183" y="-44" font-family="Helvetica,sans-Serif" font-size="10.00">convertion</text>
</a>
</g>
</g>
<!-- Node1&#45;&gt;Node3 -->
<g id="edge3" class="edge">
<title>Node1&#45;&gt;Node3</title>
<path fill="none" stroke="#63b8ff" d="M106.43,-46.5C117.79,-46.5 129.65,-46.5 140.52,-46.5"/>
<polygon fill="#63b8ff" stroke="#63b8ff" points="140.33,-50 150.33,-46.5 140.33,-43 140.33,-50"/>
</g>
<!-- Node4 -->
<g id="node4" class="node">
<title>Node4</title>
<g id="a_node4"><a xlink:href="../../d1/dba/decimal__to__any__base_8c.html#ae071f62d704823751bf9a085bf0a1bd7" target="_top" xlink:title="for IO operations">
<polygon fill="white" stroke="#666666" points="224,-19 142,-19 142,0 224,0 224,-19"/>
<text text-anchor="middle" x="183" y="-7" font-family="Helvetica,sans-Serif" font-size="10.00">isbad_alphabet</text>
</a>
</g>
</g>
<!-- Node1&#45;&gt;Node4 -->
<g id="edge5" class="edge">
<title>Node1&#45;&gt;Node4</title>
<path fill="none" stroke="#63b8ff" d="M88.3,-36.58C103.22,-32.27 120.91,-27.16 136.88,-22.54"/>
<polygon fill="#63b8ff" stroke="#63b8ff" points="137.51,-26 146.15,-19.86 135.57,-19.28 137.51,-26"/>
</g>
<!-- Node2&#45;&gt;Node2 -->
<g id="edge2" class="edge">
<title>Node2&#45;&gt;Node2</title>
<path fill="none" stroke="#63b8ff" d="M162.65,-111.37C153.36,-119.94 160.15,-129 183,-129 195.5,-129 203.19,-126.29 206.07,-122.43"/>
<polygon fill="#63b8ff" stroke="#63b8ff" points="209.5,-121.71 203.71,-112.84 202.71,-123.38 209.5,-121.71"/>
</g>
<!-- Node3&#45;&gt;Node3 -->
<g id="edge4" class="edge">
<title>Node3&#45;&gt;Node3</title>
<path fill="none" stroke="#63b8ff" d="M162.65,-56.37C153.36,-64.94 160.15,-74 183,-74 195.5,-74 203.19,-71.29 206.07,-67.43"/>
<polygon fill="#63b8ff" stroke="#63b8ff" points="209.5,-66.71 203.71,-57.84 202.71,-68.38 209.5,-66.71"/>
</g>
</g>
</svg>
