<?xml version="1.0" encoding="UTF-8" standalone="no"?>
<!DOCTYPE svg PUBLIC "-//W3C//DTD SVG 1.1//EN"
 "http://www.w3.org/Graphics/SVG/1.1/DTD/svg11.dtd">
<!-- Generated by graphviz version 3.0.0 (20220226.1711)
 -->
<!-- Title: test Pages: 1 -->
<svg width="301pt" height="140pt"
 viewBox="0.00 0.00 301.00 140.00" xmlns="http://www.w3.org/2000/svg" xmlns:xlink="http://www.w3.org/1999/xlink">
<g id="graph0" class="graph" transform="scale(1 1) rotate(0) translate(4 136)">
<title>test</title>
<polygon fill="white" stroke="transparent" points="-4,4 -4,-136 297,-136 297,4 -4,4"/>
<!-- Node1 -->
<g id="node1" class="node">
<title>Node1</title>
<g id="a_node1"><a xlink:title="Self&#45;test implementations.">
<polygon fill="#bfbfbf" stroke="black" points="0,-38.5 0,-57.5 33,-57.5 33,-38.5 0,-38.5"/>
<text text-anchor="middle" x="16.5" y="-45.5" font-family="Helvetica,sans-Serif" font-size="10.00">test</text>
</a>
</g>
</g>
<!-- Node2 -->
<g id="node2" class="node">
<title>Node2</title>
<g id="a_node2"><a xlink:href="../../d1/dba/decimal__to__any__base_8c.html#a3e4a7cfc97a528faa4d6e5741461109c" target="_top" xlink:title="decimal_to_anybase ensure the validity of the parameters and convert any unsigned integers into any a...">
<polygon fill="white" stroke="black" points="69,-38.5 69,-57.5 175,-57.5 175,-38.5 69,-38.5"/>
<text text-anchor="middle" x="122" y="-45.5" font-family="Helvetica,sans-Serif" font-size="10.00">decimal_to_anybase</text>
</a>
</g>
</g>
<!-- Node1&#45;&gt;Node2 -->
<g id="edge1" class="edge">
<title>Node1&#45;&gt;Node2</title>
<path fill="none" stroke="midnightblue" d="M33.22,-48C40.28,-48 49.12,-48 58.44,-48"/>
<polygon fill="midnightblue" stroke="midnightblue" points="58.69,-51.5 68.69,-48 58.69,-44.5 58.69,-51.5"/>
</g>
<!-- Node3 -->
<g id="node3" class="node">
<title>Node3</title>
<g id="a_node3"><a xlink:href="../../d1/dba/decimal__to__any__base_8c.html#a899b3a7e0f1fac5a465eac0d4b10d711" target="_top" xlink:title="Calculate the final length of the converted number.">
<polygon fill="white" stroke="black" points="213.5,-94.5 213.5,-113.5 290.5,-113.5 290.5,-94.5 213.5,-94.5"/>
<text text-anchor="middle" x="252" y="-101.5" font-family="Helvetica,sans-Serif" font-size="10.00">converted_len</text>
</a>
</g>
</g>
<!-- Node2&#45;&gt;Node3 -->
<g id="edge2" class="edge">
<title>Node2&#45;&gt;Node3</title>
<path fill="none" stroke="midnightblue" d="M145,-57.63C165.64,-66.66 196.72,-80.25 219.89,-90.39"/>
<polygon fill="midnightblue" stroke="midnightblue" points="218.72,-93.7 229.28,-94.5 221.52,-87.28 218.72,-93.7"/>
</g>
<!-- Node4 -->
<g id="node4" class="node">
<title>Node4</title>
<g id="a_node4"><a xlink:href="../../d1/dba/decimal__to__any__base_8c.html#a0c5ccb926a23bc0050f213ba3408e18d" target="_top" xlink:title="Convert positive decimal integer into anybase recursively.">
<polygon fill="white" stroke="black" points="221,-38.5 221,-57.5 283,-57.5 283,-38.5 221,-38.5"/>
<text text-anchor="middle" x="252" y="-45.5" font-family="Helvetica,sans-Serif" font-size="10.00">convertion</text>
</a>
</g>
</g>
<!-- Node2&#45;&gt;Node4 -->
<g id="edge4" class="edge">
<title>Node2&#45;&gt;Node4</title>
<path fill="none" stroke="midnightblue" d="M175.06,-48C186.93,-48 199.37,-48 210.66,-48"/>
<polygon fill="midnightblue" stroke="midnightblue" points="210.67,-51.5 220.67,-48 210.67,-44.5 210.67,-51.5"/>
</g>
<!-- Node5 -->
<g id="node5" class="node">
<title>Node5</title>
<g id="a_node5"><a xlink:href="../../d1/dba/decimal__to__any__base_8c.html#ae071f62d704823751bf9a085bf0a1bd7" target="_top" xlink:title="for IO operations">
<polygon fill="white" stroke="black" points="211,-0.5 211,-19.5 293,-19.5 293,-0.5 211,-0.5"/>
<text text-anchor="middle" x="252" y="-7.5" font-family="Helvetica,sans-Serif" font-size="10.00">isbad_alphabet</text>
</a>
</g>
</g>
<!-- Node2&#45;&gt;Node5 -->
<g id="edge6" class="edge">
<title>Node2&#45;&gt;Node5</title>
<path fill="none" stroke="midnightblue" d="M155.3,-38.41C171.52,-33.6 191.38,-27.7 208.79,-22.53"/>
<polygon fill="midnightblue" stroke="midnightblue" points="210.12,-25.79 218.71,-19.59 208.13,-19.08 210.12,-25.79"/>
</g>
<!-- Node3&#45;&gt;Node3 -->
<g id="edge3" class="edge">
<title>Node3&#45;&gt;Node3</title>
<path fill="none" stroke="midnightblue" d="M231.96,-113.76C222.22,-122.57 228.89,-132 252,-132 266.8,-132 274.86,-128.13 276.18,-123.03"/>
<polygon fill="midnightblue" stroke="midnightblue" points="279.31,-121.46 272.04,-113.76 272.92,-124.31 279.31,-121.46"/>
</g>
<!-- Node4&#45;&gt;Node4 -->
<g id="edge5" class="edge">
<title>Node4&#45;&gt;Node4</title>
<path fill="none" stroke="midnightblue" d="M231.96,-57.76C222.22,-66.57 228.89,-76 252,-76 266.8,-76 274.86,-72.13 276.18,-67.03"/>
<polygon fill="midnightblue" stroke="midnightblue" points="279.31,-65.46 272.04,-57.76 272.92,-68.31 279.31,-65.46"/>
</g>
</g>
</svg>
