<?xml version="1.0" encoding="UTF-8" standalone="no"?>
<!DOCTYPE svg PUBLIC "-//W3C//DTD SVG 1.1//EN"
 "http://www.w3.org/Graphics/SVG/1.1/DTD/svg11.dtd">
<!-- Generated by graphviz version 2.49.3 (20211023.0002)
 -->
<!-- Title: decimal_to_anybase Pages: 1 -->
<svg width="236pt" height="140pt"
 viewBox="0.00 0.00 236.00 140.00" xmlns="http://www.w3.org/2000/svg" xmlns:xlink="http://www.w3.org/1999/xlink">
<g id="graph0" class="graph" transform="scale(1 1) rotate(0) translate(4 136)">
<title>decimal_to_anybase</title>
<polygon fill="white" stroke="transparent" points="-4,4 -4,-136 232,-136 232,4 -4,4"/>
<!-- Node1 -->
<g id="node1" class="node">
<title>Node1</title>
<g id="a_node1"><a xlink:title="decimal_to_anybase ensure the validity of the parameters and convert any unsigned integers into any a...">
<polygon fill="#bfbfbf" stroke="black" points="0,-38.5 0,-57.5 108,-57.5 108,-38.5 0,-38.5"/>
<text text-anchor="middle" x="54" y="-45.5" font-family="Helvetica,sans-Serif" font-size="10.00">decimal_to_anybase</text>
</a>
</g>
</g>
<!-- Node2 -->
<g id="node2" class="node">
<title>Node2</title>
<g id="a_node2"><a xlink:href="../../d1/dba/decimal__to__any__base_8c.html#a899b3a7e0f1fac5a465eac0d4b10d711" target="_top" xlink:title="Calculate the final length of the converted number.">
<polygon fill="white" stroke="black" points="146.5,-94.5 146.5,-113.5 225.5,-113.5 225.5,-94.5 146.5,-94.5"/>
<text text-anchor="middle" x="186" y="-101.5" font-family="Helvetica,sans-Serif" font-size="10.00">converted_len</text>
</a>
</g>
</g>
<!-- Node1&#45;&gt;Node2 -->
<g id="edge1" class="edge">
<title>Node1&#45;&gt;Node2</title>
<path fill="none" stroke="midnightblue" d="M77.35,-57.63C98.4,-66.7 130.15,-80.37 153.72,-90.52"/>
<polygon fill="midnightblue" stroke="midnightblue" points="152.37,-93.76 162.94,-94.5 155.14,-87.33 152.37,-93.76"/>
</g>
<!-- Node3 -->
<g id="node3" class="node">
<title>Node3</title>
<g id="a_node3"><a xlink:href="../../d1/dba/decimal__to__any__base_8c.html#a0c5ccb926a23bc0050f213ba3408e18d" target="_top" xlink:title="Convert positive decimal integer into anybase recursively.">
<polygon fill="white" stroke="black" points="154.5,-38.5 154.5,-57.5 217.5,-57.5 217.5,-38.5 154.5,-38.5"/>
<text text-anchor="middle" x="186" y="-45.5" font-family="Helvetica,sans-Serif" font-size="10.00">convertion</text>
</a>
</g>
</g>
<!-- Node1&#45;&gt;Node3 -->
<g id="edge3" class="edge">
<title>Node1&#45;&gt;Node3</title>
<path fill="none" stroke="midnightblue" d="M108.25,-48C120.28,-48 132.86,-48 144.27,-48"/>
<polygon fill="midnightblue" stroke="midnightblue" points="144.38,-51.5 154.38,-48 144.38,-44.5 144.38,-51.5"/>
</g>
<!-- Node4 -->
<g id="node4" class="node">
<title>Node4</title>
<g id="a_node4"><a xlink:href="../../d1/dba/decimal__to__any__base_8c.html#ae071f62d704823751bf9a085bf0a1bd7" target="_top" xlink:title="for IO operations">
<polygon fill="white" stroke="black" points="144,-0.5 144,-19.5 228,-19.5 228,-0.5 144,-0.5"/>
<text text-anchor="middle" x="186" y="-7.5" font-family="Helvetica,sans-Serif" font-size="10.00">isbad_alphabet</text>
</a>
</g>
</g>
<!-- Node1&#45;&gt;Node4 -->
<g id="edge5" class="edge">
<title>Node1&#45;&gt;Node4</title>
<path fill="none" stroke="midnightblue" d="M87.8,-38.41C104.28,-33.6 124.44,-27.7 142.13,-22.53"/>
<polygon fill="midnightblue" stroke="midnightblue" points="143.59,-25.75 152.21,-19.59 141.63,-19.03 143.59,-25.75"/>
</g>
<!-- Node2&#45;&gt;Node2 -->
<g id="edge2" class="edge">
<title>Node2&#45;&gt;Node2</title>
<path fill="none" stroke="midnightblue" d="M165.65,-113.76C155.76,-122.57 162.54,-132 186,-132 201.03,-132 209.21,-128.13 210.55,-123.03"/>
<polygon fill="midnightblue" stroke="midnightblue" points="213.67,-121.42 206.35,-113.76 207.29,-124.31 213.67,-121.42"/>
</g>
<!-- Node3&#45;&gt;Node3 -->
<g id="edge4" class="edge">
<title>Node3&#45;&gt;Node3</title>
<path fill="none" stroke="midnightblue" d="M165.65,-57.76C155.76,-66.57 162.54,-76 186,-76 201.03,-76 209.21,-72.13 210.55,-67.03"/>
<polygon fill="midnightblue" stroke="midnightblue" points="213.67,-65.42 206.35,-57.76 207.29,-68.31 213.67,-65.42"/>
</g>
</g>
</svg>
