<?xml version="1.0" encoding="UTF-8" standalone="no"?>
<!DOCTYPE svg PUBLIC "-//W3C//DTD SVG 1.1//EN"
 "http://www.w3.org/Graphics/SVG/1.1/DTD/svg11.dtd">
<!-- Generated by graphviz version 5.0.1 (20220820.1526)
 -->
<!-- Title: test Pages: 1 -->
<svg width="301pt" height="137pt"
 viewBox="0.00 0.00 301.00 137.00" xmlns="http://www.w3.org/2000/svg" xmlns:xlink="http://www.w3.org/1999/xlink">
<g id="graph0" class="graph" transform="scale(1 1) rotate(0) translate(4 133)">
<title>test</title>
<!-- Node1 -->
<g id="node1" class="node">
<title>Node1</title>
<g id="a_node1"><a xlink:title="Self&#45;test implementations.">
<polygon fill="#999999" stroke="#666666" points="33,-56 0,-56 0,-37 33,-37 33,-56"/>
<text text-anchor="middle" x="16.5" y="-44" font-family="Helvetica,sans-Serif" font-size="10.00">test</text>
</a>
</g>
</g>
<!-- Node2 -->
<g id="node2" class="node">
<title>Node2</title>
<g id="a_node2"><a xlink:href="../../d1/dba/decimal__to__any__base_8c.html#a3e4a7cfc97a528faa4d6e5741461109c" target="_top" xlink:title="decimal_to_anybase ensure the validity of the parameters and convert any unsigned integers into any a...">
<polygon fill="white" stroke="#666666" points="175,-56 69,-56 69,-37 175,-37 175,-56"/>
<text text-anchor="middle" x="122" y="-44" font-family="Helvetica,sans-Serif" font-size="10.00">decimal_to_anybase</text>
</a>
</g>
</g>
<!-- Node1&#45;&gt;Node2 -->
<g id="edge1" class="edge">
<title>Node1&#45;&gt;Node2</title>
<path fill="none" stroke="#63b8ff" d="M33.22,-46.5C40.28,-46.5 49.12,-46.5 58.44,-46.5"/>
<polygon fill="#63b8ff" stroke="#63b8ff" points="58.69,-50 68.69,-46.5 58.69,-43 58.69,-50"/>
</g>
<!-- Node3 -->
<g id="node3" class="node">
<title>Node3</title>
<g id="a_node3"><a xlink:href="../../d1/dba/decimal__to__any__base_8c.html#a899b3a7e0f1fac5a465eac0d4b10d711" target="_top" xlink:title="Calculate the final length of the converted number.">
<polygon fill="white" stroke="#666666" points="290.5,-111 213.5,-111 213.5,-92 290.5,-92 290.5,-111"/>
<text text-anchor="middle" x="252" y="-99" font-family="Helvetica,sans-Serif" font-size="10.00">converted_len</text>
</a>
</g>
</g>
<!-- Node2&#45;&gt;Node3 -->
<g id="edge2" class="edge">
<title>Node2&#45;&gt;Node3</title>
<path fill="none" stroke="#63b8ff" d="M145.3,-56.08C165.73,-64.86 196.2,-77.95 219.19,-87.83"/>
<polygon fill="#63b8ff" stroke="#63b8ff" points="217.96,-91.11 228.53,-91.84 220.72,-84.68 217.96,-91.11"/>
</g>
<!-- Node4 -->
<g id="node4" class="node">
<title>Node4</title>
<g id="a_node4"><a xlink:href="../../d1/dba/decimal__to__any__base_8c.html#a0c5ccb926a23bc0050f213ba3408e18d" target="_top" xlink:title="Convert positive decimal integer into anybase recursively.">
<polygon fill="white" stroke="#666666" points="283,-56 221,-56 221,-37 283,-37 283,-56"/>
<text text-anchor="middle" x="252" y="-44" font-family="Helvetica,sans-Serif" font-size="10.00">convertion</text>
</a>
</g>
</g>
<!-- Node2&#45;&gt;Node4 -->
<g id="edge4" class="edge">
<title>Node2&#45;&gt;Node4</title>
<path fill="none" stroke="#63b8ff" d="M175.06,-46.5C186.93,-46.5 199.37,-46.5 210.66,-46.5"/>
<polygon fill="#63b8ff" stroke="#63b8ff" points="210.67,-50 220.67,-46.5 210.67,-43 210.67,-50"/>
</g>
<!-- Node5 -->
<g id="node5" class="node">
<title>Node5</title>
<g id="a_node5"><a xlink:href="../../d1/dba/decimal__to__any__base_8c.html#ae071f62d704823751bf9a085bf0a1bd7" target="_top" xlink:title="for IO operations">
<polygon fill="white" stroke="#666666" points="293,-19 211,-19 211,0 293,0 293,-19"/>
<text text-anchor="middle" x="252" y="-7" font-family="Helvetica,sans-Serif" font-size="10.00">isbad_alphabet</text>
</a>
</g>
</g>
<!-- Node2&#45;&gt;Node5 -->
<g id="edge6" class="edge">
<title>Node2&#45;&gt;Node5</title>
<path fill="none" stroke="#63b8ff" d="M155.96,-36.97C171.81,-32.39 191.02,-26.84 208,-21.93"/>
<polygon fill="#63b8ff" stroke="#63b8ff" points="209.07,-25.26 217.7,-19.12 207.12,-18.54 209.07,-25.26"/>
</g>
<!-- Node3&#45;&gt;Node3 -->
<g id="edge3" class="edge">
<title>Node3&#45;&gt;Node3</title>
<path fill="none" stroke="#63b8ff" d="M231.96,-111.08C222.22,-119.73 228.89,-129 252,-129 266.8,-129 274.86,-125.2 276.18,-120.19"/>
<polygon fill="#63b8ff" stroke="#63b8ff" points="279.36,-118.73 272.04,-111.08 272.99,-121.63 279.36,-118.73"/>
</g>
<!-- Node4&#45;&gt;Node4 -->
<g id="edge5" class="edge">
<title>Node4&#45;&gt;Node4</title>
<path fill="none" stroke="#63b8ff" d="M231.96,-56.08C222.22,-64.73 228.89,-74 252,-74 266.8,-74 274.86,-70.2 276.18,-65.19"/>
<polygon fill="#63b8ff" stroke="#63b8ff" points="279.36,-63.73 272.04,-56.08 272.99,-66.63 279.36,-63.73"/>
</g>
</g>
</svg>
