<?xml version="1.0" encoding="UTF-8" standalone="no"?>
<!DOCTYPE svg PUBLIC "-//W3C//DTD SVG 1.1//EN"
 "http://www.w3.org/Graphics/SVG/1.1/DTD/svg11.dtd">
<!-- Generated by graphviz version 3.0.0 (20220226.1711)
 -->
<!-- Title: decimal_to_anybase Pages: 1 -->
<svg width="232pt" height="140pt"
 viewBox="0.00 0.00 232.00 140.00" xmlns="http://www.w3.org/2000/svg" xmlns:xlink="http://www.w3.org/1999/xlink">
<g id="graph0" class="graph" transform="scale(1 1) rotate(0) translate(4 136)">
<title>decimal_to_anybase</title>
<polygon fill="white" stroke="transparent" points="-4,4 -4,-136 228,-136 228,4 -4,4"/>
<!-- Node1 -->
<g id="node1" class="node">
<title>Node1</title>
<g id="a_node1"><a xlink:title="decimal_to_anybase ensure the validity of the parameters and convert any unsigned integers into any a...">
<polygon fill="#bfbfbf" stroke="black" points="0,-38.5 0,-57.5 106,-57.5 106,-38.5 0,-38.5"/>
<text text-anchor="middle" x="53" y="-45.5" font-family="Helvetica,sans-Serif" font-size="10.00">decimal_to_anybase</text>
</a>
</g>
</g>
<!-- Node2 -->
<g id="node2" class="node">
<title>Node2</title>
<g id="a_node2"><a xlink:href="../../d1/dba/decimal__to__any__base_8c.html#a899b3a7e0f1fac5a465eac0d4b10d711" target="_top" xlink:title="Calculate the final length of the converted number.">
<polygon fill="white" stroke="black" points="144.5,-94.5 144.5,-113.5 221.5,-113.5 221.5,-94.5 144.5,-94.5"/>
<text text-anchor="middle" x="183" y="-101.5" font-family="Helvetica,sans-Serif" font-size="10.00">converted_len</text>
</a>
</g>
</g>
<!-- Node1&#45;&gt;Node2 -->
<g id="edge1" class="edge">
<title>Node1&#45;&gt;Node2</title>
<path fill="none" stroke="midnightblue" d="M76,-57.63C96.64,-66.66 127.72,-80.25 150.89,-90.39"/>
<polygon fill="midnightblue" stroke="midnightblue" points="149.72,-93.7 160.28,-94.5 152.52,-87.28 149.72,-93.7"/>
</g>
<!-- Node3 -->
<g id="node3" class="node">
<title>Node3</title>
<g id="a_node3"><a xlink:href="../../d1/dba/decimal__to__any__base_8c.html#a0c5ccb926a23bc0050f213ba3408e18d" target="_top" xlink:title="Convert positive decimal integer into anybase recursively.">
<polygon fill="white" stroke="black" points="152,-38.5 152,-57.5 214,-57.5 214,-38.5 152,-38.5"/>
<text text-anchor="middle" x="183" y="-45.5" font-family="Helvetica,sans-Serif" font-size="10.00">convertion</text>
</a>
</g>
</g>
<!-- Node1&#45;&gt;Node3 -->
<g id="edge3" class="edge">
<title>Node1&#45;&gt;Node3</title>
<path fill="none" stroke="midnightblue" d="M106.06,-48C117.93,-48 130.37,-48 141.66,-48"/>
<polygon fill="midnightblue" stroke="midnightblue" points="141.67,-51.5 151.67,-48 141.67,-44.5 141.67,-51.5"/>
</g>
<!-- Node4 -->
<g id="node4" class="node">
<title>Node4</title>
<g id="a_node4"><a xlink:href="../../d1/dba/decimal__to__any__base_8c.html#ae071f62d704823751bf9a085bf0a1bd7" target="_top" xlink:title="for IO operations">
<polygon fill="white" stroke="black" points="142,-0.5 142,-19.5 224,-19.5 224,-0.5 142,-0.5"/>
<text text-anchor="middle" x="183" y="-7.5" font-family="Helvetica,sans-Serif" font-size="10.00">isbad_alphabet</text>
</a>
</g>
</g>
<!-- Node1&#45;&gt;Node4 -->
<g id="edge5" class="edge">
<title>Node1&#45;&gt;Node4</title>
<path fill="none" stroke="midnightblue" d="M86.3,-38.41C102.52,-33.6 122.38,-27.7 139.79,-22.53"/>
<polygon fill="midnightblue" stroke="midnightblue" points="141.12,-25.79 149.71,-19.59 139.13,-19.08 141.12,-25.79"/>
</g>
<!-- Node2&#45;&gt;Node2 -->
<g id="edge2" class="edge">
<title>Node2&#45;&gt;Node2</title>
<path fill="none" stroke="midnightblue" d="M162.96,-113.76C153.22,-122.57 159.89,-132 183,-132 197.8,-132 205.86,-128.13 207.18,-123.03"/>
<polygon fill="midnightblue" stroke="midnightblue" points="210.31,-121.46 203.04,-113.76 203.92,-124.31 210.31,-121.46"/>
</g>
<!-- Node3&#45;&gt;Node3 -->
<g id="edge4" class="edge">
<title>Node3&#45;&gt;Node3</title>
<path fill="none" stroke="midnightblue" d="M162.96,-57.76C153.22,-66.57 159.89,-76 183,-76 197.8,-76 205.86,-72.13 207.18,-67.03"/>
<polygon fill="midnightblue" stroke="midnightblue" points="210.31,-65.46 203.04,-57.76 203.92,-68.31 210.31,-65.46"/>
</g>
</g>
</svg>
