<?xml version="1.0" encoding="UTF-8" standalone="no"?>
<!DOCTYPE svg PUBLIC "-//W3C//DTD SVG 1.1//EN"
 "http://www.w3.org/Graphics/SVG/1.1/DTD/svg11.dtd">
<!-- Generated by graphviz version 9.0.0 (20230911.1827)
 -->
<!-- Title: test Pages: 1 -->
<svg width="299pt" height="137pt"
 viewBox="0.00 0.00 299.00 137.25" xmlns="http://www.w3.org/2000/svg" xmlns:xlink="http://www.w3.org/1999/xlink">
<g id="graph0" class="graph" transform="scale(1 1) rotate(0) translate(4 133.25)">
<title>test</title>
<!-- Node1 -->
<g id="Node000001" class="node">
<title>Node1</title>
<g id="a_Node000001"><a xlink:title="Self&#45;test implementations.">
<polygon fill="#999999" stroke="#666666" points="32.5,-56.25 0,-56.25 0,-37 32.5,-37 32.5,-56.25"/>
<text text-anchor="middle" x="16.25" y="-42.75" font-family="Helvetica,sans-Serif" font-size="10.00">test</text>
</a>
</g>
</g>
<!-- Node2 -->
<g id="Node000002" class="node">
<title>Node2</title>
<g id="a_Node000002"><a xlink:href="../../d1/dba/decimal__to__any__base_8c.html#a3e4a7cfc97a528faa4d6e5741461109c" target="_top" xlink:title="decimal_to_anybase ensure the validity of the parameters and convert any unsigned integers into any a...">
<polygon fill="white" stroke="#666666" points="173.75,-56.25 68.5,-56.25 68.5,-37 173.75,-37 173.75,-56.25"/>
<text text-anchor="middle" x="121.12" y="-42.75" font-family="Helvetica,sans-Serif" font-size="10.00">decimal_to_anybase</text>
</a>
</g>
</g>
<!-- Node1&#45;&gt;Node2 -->
<g id="edge1_Node000001_Node000002" class="edge">
<title>Node1&#45;&gt;Node2</title>
<g id="a_edge1_Node000001_Node000002"><a xlink:title=" ">
<path fill="none" stroke="#63b8ff" d="M32.87,-46.62C39.59,-46.62 47.93,-46.62 56.76,-46.62"/>
<polygon fill="#63b8ff" stroke="#63b8ff" points="56.62,-50.13 66.62,-46.63 56.62,-43.13 56.62,-50.13"/>
</a>
</g>
</g>
<!-- Node3 -->
<g id="Node000003" class="node">
<title>Node3</title>
<g id="a_Node000003"><a xlink:href="../../d1/dba/decimal__to__any__base_8c.html#a899b3a7e0f1fac5a465eac0d4b10d711" target="_top" xlink:title="Calculate the final length of the converted number.">
<polygon fill="white" stroke="#666666" points="288.75,-111.25 212,-111.25 212,-92 288.75,-92 288.75,-111.25"/>
<text text-anchor="middle" x="250.38" y="-97.75" font-family="Helvetica,sans-Serif" font-size="10.00">converted_len</text>
</a>
</g>
</g>
<!-- Node2&#45;&gt;Node3 -->
<g id="edge2_Node000002_Node000003" class="edge">
<title>Node2&#45;&gt;Node3</title>
<g id="a_edge2_Node000002_Node000003"><a xlink:title=" ">
<path fill="none" stroke="#63b8ff" d="M145.46,-56.71C165.2,-65.24 193.71,-77.56 215.88,-87.15"/>
<polygon fill="#63b8ff" stroke="#63b8ff" points="214.23,-90.25 224.79,-91 217,-83.82 214.23,-90.25"/>
</a>
</g>
</g>
<!-- Node4 -->
<g id="Node000004" class="node">
<title>Node4</title>
<g id="a_Node000004"><a xlink:href="../../d1/dba/decimal__to__any__base_8c.html#a0c5ccb926a23bc0050f213ba3408e18d" target="_top" xlink:title="Convert positive decimal integer into anybase recursively.">
<polygon fill="white" stroke="#666666" points="280.88,-56.25 219.88,-56.25 219.88,-37 280.88,-37 280.88,-56.25"/>
<text text-anchor="middle" x="250.38" y="-42.75" font-family="Helvetica,sans-Serif" font-size="10.00">convertion</text>
</a>
</g>
</g>
<!-- Node2&#45;&gt;Node4 -->
<g id="edge4_Node000002_Node000004" class="edge">
<title>Node2&#45;&gt;Node4</title>
<g id="a_edge4_Node000002_Node000004"><a xlink:title=" ">
<path fill="none" stroke="#63b8ff" d="M174.25,-46.62C185.54,-46.62 197.33,-46.62 208.13,-46.62"/>
<polygon fill="#63b8ff" stroke="#63b8ff" points="207.89,-50.13 217.89,-46.63 207.89,-43.13 207.89,-50.13"/>
</a>
</g>
</g>
<!-- Node5 -->
<g id="Node000005" class="node">
<title>Node5</title>
<g id="a_Node000005"><a xlink:href="../../d1/dba/decimal__to__any__base_8c.html#ae071f62d704823751bf9a085bf0a1bd7" target="_top" xlink:title="for IO operations">
<polygon fill="white" stroke="#666666" points="291,-19.25 209.75,-19.25 209.75,0 291,0 291,-19.25"/>
<text text-anchor="middle" x="250.38" y="-5.75" font-family="Helvetica,sans-Serif" font-size="10.00">isbad_alphabet</text>
</a>
</g>
</g>
<!-- Node2&#45;&gt;Node5 -->
<g id="edge6_Node000002_Node000005" class="edge">
<title>Node2&#45;&gt;Node5</title>
<g id="a_edge6_Node000002_Node000005"><a xlink:title=" ">
<path fill="none" stroke="#63b8ff" d="M156.9,-36.51C171.34,-32.31 188.31,-27.38 203.74,-22.89"/>
<polygon fill="#63b8ff" stroke="#63b8ff" points="204.57,-26.3 213.19,-20.15 202.61,-19.58 204.57,-26.3"/>
</a>
</g>
</g>
<!-- Node3&#45;&gt;Node3 -->
<g id="edge3_Node000003_Node000003" class="edge">
<title>Node3&#45;&gt;Node3</title>
<g id="a_edge3_Node000003_Node000003"><a xlink:title=" ">
<path fill="none" stroke="#63b8ff" d="M230.14,-111.54C220.91,-120.15 227.66,-129.25 250.38,-129.25 262.8,-129.25 270.45,-126.53 273.32,-122.65"/>
<polygon fill="#63b8ff" stroke="#63b8ff" points="276.74,-121.9 270.97,-113.01 269.93,-123.55 276.74,-121.9"/>
</a>
</g>
</g>
<!-- Node4&#45;&gt;Node4 -->
<g id="edge5_Node000004_Node000004" class="edge">
<title>Node4&#45;&gt;Node4</title>
<g id="a_edge5_Node000004_Node000004"><a xlink:title=" ">
<path fill="none" stroke="#63b8ff" d="M230.14,-56.54C220.91,-65.15 227.66,-74.25 250.38,-74.25 262.8,-74.25 270.45,-71.53 273.32,-67.65"/>
<polygon fill="#63b8ff" stroke="#63b8ff" points="276.74,-66.9 270.97,-58.01 269.93,-68.55 276.74,-66.9"/>
</a>
</g>
</g>
</g>
</svg>
