<?xml version="1.0" encoding="UTF-8" standalone="no"?>
<!DOCTYPE svg PUBLIC "-//W3C//DTD SVG 1.1//EN"
 "http://www.w3.org/Graphics/SVG/1.1/DTD/svg11.dtd">
<!-- Generated by graphviz version 8.0.2 (20230410.1723)
 -->
<!-- Title: test Pages: 1 -->
<svg width="301pt" height="137pt"
 viewBox="0.00 0.00 301.00 137.00" xmlns="http://www.w3.org/2000/svg" xmlns:xlink="http://www.w3.org/1999/xlink">
<g id="graph0" class="graph" transform="scale(1 1) rotate(0) translate(4 133)">
<title>test</title>
<!-- Node1 -->
<g id="node1" class="node">
<title>Node1</title>
<g id="a_node1"><a xlink:title="Self&#45;test implementations.">
<polygon fill="#999999" stroke="#666666" points="33,-56 0,-56 0,-37 33,-37 33,-56"/>
<text text-anchor="middle" x="16.5" y="-44" font-family="Helvetica,sans-Serif" font-size="10.00">test</text>
</a>
</g>
</g>
<!-- Node2 -->
<g id="node2" class="node">
<title>Node2</title>
<g id="a_node2"><a xlink:href="../../d1/dba/decimal__to__any__base_8c.html#a3e4a7cfc97a528faa4d6e5741461109c" target="_top" xlink:title="decimal_to_anybase ensure the validity of the parameters and convert any unsigned integers into any a...">
<polygon fill="white" stroke="#666666" points="175,-56 69,-56 69,-37 175,-37 175,-56"/>
<text text-anchor="middle" x="122" y="-44" font-family="Helvetica,sans-Serif" font-size="10.00">decimal_to_anybase</text>
</a>
</g>
</g>
<!-- Node1&#45;&gt;Node2 -->
<g id="edge1" class="edge">
<title>Node1&#45;&gt;Node2</title>
<path fill="none" stroke="#63b8ff" d="M33.22,-46.5C40.13,-46.5 48.74,-46.5 57.85,-46.5"/>
<polygon fill="#63b8ff" stroke="#63b8ff" points="57.69,-50 67.69,-46.5 57.69,-43 57.69,-50"/>
</g>
<!-- Node3 -->
<g id="node3" class="node">
<title>Node3</title>
<g id="a_node3"><a xlink:href="../../d1/dba/decimal__to__any__base_8c.html#a899b3a7e0f1fac5a465eac0d4b10d711" target="_top" xlink:title="Calculate the final length of the converted number.">
<polygon fill="white" stroke="#666666" points="290.5,-111 213.5,-111 213.5,-92 290.5,-92 290.5,-111"/>
<text text-anchor="middle" x="252" y="-99" font-family="Helvetica,sans-Serif" font-size="10.00">converted_len</text>
</a>
</g>
</g>
<!-- Node2&#45;&gt;Node3 -->
<g id="edge2" class="edge">
<title>Node2&#45;&gt;Node3</title>
<path fill="none" stroke="#63b8ff" d="M146.18,-56.46C166.3,-65.1 195.65,-77.72 218.18,-87.4"/>
<polygon fill="#63b8ff" stroke="#63b8ff" points="216.42,-90.88 226.99,-91.61 219.19,-84.45 216.42,-90.88"/>
</g>
<!-- Node4 -->
<g id="node4" class="node">
<title>Node4</title>
<g id="a_node4"><a xlink:href="../../d1/dba/decimal__to__any__base_8c.html#a0c5ccb926a23bc0050f213ba3408e18d" target="_top" xlink:title="Convert positive decimal integer into anybase recursively.">
<polygon fill="white" stroke="#666666" points="283,-56 221,-56 221,-37 283,-37 283,-56"/>
<text text-anchor="middle" x="252" y="-44" font-family="Helvetica,sans-Serif" font-size="10.00">convertion</text>
</a>
</g>
</g>
<!-- Node2&#45;&gt;Node4 -->
<g id="edge4" class="edge">
<title>Node2&#45;&gt;Node4</title>
<path fill="none" stroke="#63b8ff" d="M175.43,-46.5C186.91,-46.5 198.9,-46.5 209.86,-46.5"/>
<polygon fill="#63b8ff" stroke="#63b8ff" points="209.85,-50 219.85,-46.5 209.85,-43 209.85,-50"/>
</g>
<!-- Node5 -->
<g id="node5" class="node">
<title>Node5</title>
<g id="a_node5"><a xlink:href="../../d1/dba/decimal__to__any__base_8c.html#ae071f62d704823751bf9a085bf0a1bd7" target="_top" xlink:title="for IO operations">
<polygon fill="white" stroke="#666666" points="293,-19 211,-19 211,0 293,0 293,-19"/>
<text text-anchor="middle" x="252" y="-7" font-family="Helvetica,sans-Serif" font-size="10.00">isbad_alphabet</text>
</a>
</g>
</g>
<!-- Node2&#45;&gt;Node5 -->
<g id="edge6" class="edge">
<title>Node2&#45;&gt;Node5</title>
<path fill="none" stroke="#63b8ff" d="M157.3,-36.58C172.37,-32.23 190.25,-27.06 206.34,-22.41"/>
<polygon fill="#63b8ff" stroke="#63b8ff" points="206.97,-25.58 215.6,-19.44 205.03,-18.86 206.97,-25.58"/>
</g>
<!-- Node3&#45;&gt;Node3 -->
<g id="edge3" class="edge">
<title>Node3&#45;&gt;Node3</title>
<path fill="none" stroke="#63b8ff" d="M231.65,-111.37C222.36,-119.94 229.15,-129 252,-129 265.21,-129 273.05,-125.97 275.52,-121.76"/>
<polygon fill="#63b8ff" stroke="#63b8ff" points="278.62,-120.91 272.35,-112.37 271.92,-122.95 278.62,-120.91"/>
</g>
<!-- Node4&#45;&gt;Node4 -->
<g id="edge5" class="edge">
<title>Node4&#45;&gt;Node4</title>
<path fill="none" stroke="#63b8ff" d="M231.65,-56.37C222.36,-64.94 229.15,-74 252,-74 265.21,-74 273.05,-70.97 275.52,-66.76"/>
<polygon fill="#63b8ff" stroke="#63b8ff" points="278.62,-65.91 272.35,-57.37 271.92,-67.95 278.62,-65.91"/>
</g>
</g>
</svg>
