<?xml version="1.0" encoding="UTF-8" standalone="no"?>
<!DOCTYPE svg PUBLIC "-//W3C//DTD SVG 1.1//EN"
 "http://www.w3.org/Graphics/SVG/1.1/DTD/svg11.dtd">
<!-- Generated by graphviz version 9.0.0 (20230911.1827)
 -->
<!-- Title: main Pages: 1 -->
<svg width="372pt" height="137pt"
 viewBox="0.00 0.00 372.00 137.25" xmlns="http://www.w3.org/2000/svg" xmlns:xlink="http://www.w3.org/1999/xlink">
<g id="graph0" class="graph" transform="scale(1 1) rotate(0) translate(4 133.25)">
<title>main</title>
<!-- Node1 -->
<g id="Node000001" class="node">
<title>Node1</title>
<g id="a_Node000001"><a xlink:title="Main function.">
<polygon fill="#999999" stroke="#666666" points="37,-56.25 0,-56.25 0,-37 37,-37 37,-56.25"/>
<text text-anchor="middle" x="18.5" y="-42.75" font-family="Helvetica,sans-Serif" font-size="10.00">main</text>
</a>
</g>
</g>
<!-- Node2 -->
<g id="Node000002" class="node">
<title>Node2</title>
<g id="a_Node000002"><a xlink:href="../../d1/dba/decimal__to__any__base_8c.html#aa8dca7b867074164d5f45b0f3851269d" target="_top" xlink:title="Self&#45;test implementations.">
<polygon fill="white" stroke="#666666" points="105.5,-56.25 73,-56.25 73,-37 105.5,-37 105.5,-56.25"/>
<text text-anchor="middle" x="89.25" y="-42.75" font-family="Helvetica,sans-Serif" font-size="10.00">test</text>
</a>
</g>
</g>
<!-- Node1&#45;&gt;Node2 -->
<g id="edge1_Node000001_Node000002" class="edge">
<title>Node1&#45;&gt;Node2</title>
<g id="a_edge1_Node000001_Node000002"><a xlink:title=" ">
<path fill="none" stroke="#63b8ff" d="M37.2,-46.62C44.58,-46.62 53.31,-46.62 61.45,-46.62"/>
<polygon fill="#63b8ff" stroke="#63b8ff" points="61.2,-50.13 71.2,-46.63 61.2,-43.13 61.2,-50.13"/>
</a>
</g>
</g>
<!-- Node3 -->
<g id="Node000003" class="node">
<title>Node3</title>
<g id="a_Node000003"><a xlink:href="../../d1/dba/decimal__to__any__base_8c.html#a3e4a7cfc97a528faa4d6e5741461109c" target="_top" xlink:title="decimal_to_anybase ensure the validity of the parameters and convert any unsigned integers into any a...">
<polygon fill="white" stroke="#666666" points="246.75,-56.25 141.5,-56.25 141.5,-37 246.75,-37 246.75,-56.25"/>
<text text-anchor="middle" x="194.12" y="-42.75" font-family="Helvetica,sans-Serif" font-size="10.00">decimal_to_anybase</text>
</a>
</g>
</g>
<!-- Node2&#45;&gt;Node3 -->
<g id="edge2_Node000002_Node000003" class="edge">
<title>Node2&#45;&gt;Node3</title>
<g id="a_edge2_Node000002_Node000003"><a xlink:title=" ">
<path fill="none" stroke="#63b8ff" d="M105.87,-46.62C112.59,-46.62 120.93,-46.62 129.76,-46.62"/>
<polygon fill="#63b8ff" stroke="#63b8ff" points="129.62,-50.13 139.62,-46.63 129.62,-43.13 129.62,-50.13"/>
</a>
</g>
</g>
<!-- Node4 -->
<g id="Node000004" class="node">
<title>Node4</title>
<g id="a_Node000004"><a xlink:href="../../d1/dba/decimal__to__any__base_8c.html#a899b3a7e0f1fac5a465eac0d4b10d711" target="_top" xlink:title="Calculate the final length of the converted number.">
<polygon fill="white" stroke="#666666" points="361.75,-111.25 285,-111.25 285,-92 361.75,-92 361.75,-111.25"/>
<text text-anchor="middle" x="323.38" y="-97.75" font-family="Helvetica,sans-Serif" font-size="10.00">converted_len</text>
</a>
</g>
</g>
<!-- Node3&#45;&gt;Node4 -->
<g id="edge3_Node000003_Node000004" class="edge">
<title>Node3&#45;&gt;Node4</title>
<g id="a_edge3_Node000003_Node000004"><a xlink:title=" ">
<path fill="none" stroke="#63b8ff" d="M218.46,-56.71C238.2,-65.24 266.71,-77.56 288.88,-87.15"/>
<polygon fill="#63b8ff" stroke="#63b8ff" points="287.23,-90.25 297.79,-91 290,-83.82 287.23,-90.25"/>
</a>
</g>
</g>
<!-- Node5 -->
<g id="Node000005" class="node">
<title>Node5</title>
<g id="a_Node000005"><a xlink:href="../../d1/dba/decimal__to__any__base_8c.html#a0c5ccb926a23bc0050f213ba3408e18d" target="_top" xlink:title="Convert positive decimal integer into anybase recursively.">
<polygon fill="white" stroke="#666666" points="353.88,-56.25 292.88,-56.25 292.88,-37 353.88,-37 353.88,-56.25"/>
<text text-anchor="middle" x="323.38" y="-42.75" font-family="Helvetica,sans-Serif" font-size="10.00">convertion</text>
</a>
</g>
</g>
<!-- Node3&#45;&gt;Node5 -->
<g id="edge5_Node000003_Node000005" class="edge">
<title>Node3&#45;&gt;Node5</title>
<g id="a_edge5_Node000003_Node000005"><a xlink:title=" ">
<path fill="none" stroke="#63b8ff" d="M247.25,-46.62C258.54,-46.62 270.33,-46.62 281.13,-46.62"/>
<polygon fill="#63b8ff" stroke="#63b8ff" points="280.89,-50.13 290.89,-46.63 280.89,-43.13 280.89,-50.13"/>
</a>
</g>
</g>
<!-- Node6 -->
<g id="Node000006" class="node">
<title>Node6</title>
<g id="a_Node000006"><a xlink:href="../../d1/dba/decimal__to__any__base_8c.html#ae071f62d704823751bf9a085bf0a1bd7" target="_top" xlink:title="for IO operations">
<polygon fill="white" stroke="#666666" points="364,-19.25 282.75,-19.25 282.75,0 364,0 364,-19.25"/>
<text text-anchor="middle" x="323.38" y="-5.75" font-family="Helvetica,sans-Serif" font-size="10.00">isbad_alphabet</text>
</a>
</g>
</g>
<!-- Node3&#45;&gt;Node6 -->
<g id="edge7_Node000003_Node000006" class="edge">
<title>Node3&#45;&gt;Node6</title>
<g id="a_edge7_Node000003_Node000006"><a xlink:title=" ">
<path fill="none" stroke="#63b8ff" d="M229.9,-36.51C244.34,-32.31 261.31,-27.38 276.74,-22.89"/>
<polygon fill="#63b8ff" stroke="#63b8ff" points="277.57,-26.3 286.19,-20.15 275.61,-19.58 277.57,-26.3"/>
</a>
</g>
</g>
<!-- Node4&#45;&gt;Node4 -->
<g id="edge4_Node000004_Node000004" class="edge">
<title>Node4&#45;&gt;Node4</title>
<g id="a_edge4_Node000004_Node000004"><a xlink:title=" ">
<path fill="none" stroke="#63b8ff" d="M303.14,-111.54C293.91,-120.15 300.66,-129.25 323.38,-129.25 335.8,-129.25 343.45,-126.53 346.32,-122.65"/>
<polygon fill="#63b8ff" stroke="#63b8ff" points="349.74,-121.9 343.97,-113.01 342.93,-123.55 349.74,-121.9"/>
</a>
</g>
</g>
<!-- Node5&#45;&gt;Node5 -->
<g id="edge6_Node000005_Node000005" class="edge">
<title>Node5&#45;&gt;Node5</title>
<g id="a_edge6_Node000005_Node000005"><a xlink:title=" ">
<path fill="none" stroke="#63b8ff" d="M303.14,-56.54C293.91,-65.15 300.66,-74.25 323.38,-74.25 335.8,-74.25 343.45,-71.53 346.32,-67.65"/>
<polygon fill="#63b8ff" stroke="#63b8ff" points="349.74,-66.9 343.97,-58.01 342.93,-68.55 349.74,-66.9"/>
</a>
</g>
</g>
</g>
</svg>
