<?xml version="1.0" encoding="UTF-8" standalone="no"?>
<!DOCTYPE svg PUBLIC "-//W3C//DTD SVG 1.1//EN"
 "http://www.w3.org/Graphics/SVG/1.1/DTD/svg11.dtd">
<!-- Generated by graphviz version 2.49.3 (20211023.0002)
 -->
<!-- Title: test Pages: 1 -->
<svg width="305pt" height="140pt"
 viewBox="0.00 0.00 305.00 140.00" xmlns="http://www.w3.org/2000/svg" xmlns:xlink="http://www.w3.org/1999/xlink">
<g id="graph0" class="graph" transform="scale(1 1) rotate(0) translate(4 136)">
<title>test</title>
<polygon fill="white" stroke="transparent" points="-4,4 -4,-136 301,-136 301,4 -4,4"/>
<!-- Node1 -->
<g id="node1" class="node">
<title>Node1</title>
<g id="a_node1"><a xlink:title="Self&#45;test implementations.">
<polygon fill="#bfbfbf" stroke="black" points="0,-38.5 0,-57.5 33,-57.5 33,-38.5 0,-38.5"/>
<text text-anchor="middle" x="16.5" y="-45.5" font-family="Helvetica,sans-Serif" font-size="10.00">test</text>
</a>
</g>
</g>
<!-- Node2 -->
<g id="node2" class="node">
<title>Node2</title>
<g id="a_node2"><a xlink:href="../../d1/dba/decimal__to__any__base_8c.html#a3e4a7cfc97a528faa4d6e5741461109c" target="_top" xlink:title="decimal_to_anybase ensure the validity of the parameters and convert any unsigned integers into any a...">
<polygon fill="white" stroke="black" points="69,-38.5 69,-57.5 177,-57.5 177,-38.5 69,-38.5"/>
<text text-anchor="middle" x="123" y="-45.5" font-family="Helvetica,sans-Serif" font-size="10.00">decimal_to_anybase</text>
</a>
</g>
</g>
<!-- Node1&#45;&gt;Node2 -->
<g id="edge1" class="edge">
<title>Node1&#45;&gt;Node2</title>
<path fill="none" stroke="midnightblue" d="M33.37,-48C40.42,-48 49.21,-48 58.51,-48"/>
<polygon fill="midnightblue" stroke="midnightblue" points="58.73,-51.5 68.73,-48 58.73,-44.5 58.73,-51.5"/>
</g>
<!-- Node3 -->
<g id="node3" class="node">
<title>Node3</title>
<g id="a_node3"><a xlink:href="../../d1/dba/decimal__to__any__base_8c.html#a899b3a7e0f1fac5a465eac0d4b10d711" target="_top" xlink:title="Calculate the final length of the converted number.">
<polygon fill="white" stroke="black" points="215.5,-94.5 215.5,-113.5 294.5,-113.5 294.5,-94.5 215.5,-94.5"/>
<text text-anchor="middle" x="255" y="-101.5" font-family="Helvetica,sans-Serif" font-size="10.00">converted_len</text>
</a>
</g>
</g>
<!-- Node2&#45;&gt;Node3 -->
<g id="edge2" class="edge">
<title>Node2&#45;&gt;Node3</title>
<path fill="none" stroke="midnightblue" d="M146.35,-57.63C167.4,-66.7 199.15,-80.37 222.72,-90.52"/>
<polygon fill="midnightblue" stroke="midnightblue" points="221.37,-93.76 231.94,-94.5 224.14,-87.33 221.37,-93.76"/>
</g>
<!-- Node4 -->
<g id="node4" class="node">
<title>Node4</title>
<g id="a_node4"><a xlink:href="../../d1/dba/decimal__to__any__base_8c.html#a0c5ccb926a23bc0050f213ba3408e18d" target="_top" xlink:title="Convert positive decimal integer into anybase recursively.">
<polygon fill="white" stroke="black" points="223.5,-38.5 223.5,-57.5 286.5,-57.5 286.5,-38.5 223.5,-38.5"/>
<text text-anchor="middle" x="255" y="-45.5" font-family="Helvetica,sans-Serif" font-size="10.00">convertion</text>
</a>
</g>
</g>
<!-- Node2&#45;&gt;Node4 -->
<g id="edge4" class="edge">
<title>Node2&#45;&gt;Node4</title>
<path fill="none" stroke="midnightblue" d="M177.25,-48C189.28,-48 201.86,-48 213.27,-48"/>
<polygon fill="midnightblue" stroke="midnightblue" points="213.38,-51.5 223.38,-48 213.38,-44.5 213.38,-51.5"/>
</g>
<!-- Node5 -->
<g id="node5" class="node">
<title>Node5</title>
<g id="a_node5"><a xlink:href="../../d1/dba/decimal__to__any__base_8c.html#ae071f62d704823751bf9a085bf0a1bd7" target="_top" xlink:title="for IO operations">
<polygon fill="white" stroke="black" points="213,-0.5 213,-19.5 297,-19.5 297,-0.5 213,-0.5"/>
<text text-anchor="middle" x="255" y="-7.5" font-family="Helvetica,sans-Serif" font-size="10.00">isbad_alphabet</text>
</a>
</g>
</g>
<!-- Node2&#45;&gt;Node5 -->
<g id="edge6" class="edge">
<title>Node2&#45;&gt;Node5</title>
<path fill="none" stroke="midnightblue" d="M156.8,-38.41C173.28,-33.6 193.44,-27.7 211.13,-22.53"/>
<polygon fill="midnightblue" stroke="midnightblue" points="212.59,-25.75 221.21,-19.59 210.63,-19.03 212.59,-25.75"/>
</g>
<!-- Node3&#45;&gt;Node3 -->
<g id="edge3" class="edge">
<title>Node3&#45;&gt;Node3</title>
<path fill="none" stroke="midnightblue" d="M234.65,-113.76C224.76,-122.57 231.54,-132 255,-132 270.03,-132 278.21,-128.13 279.55,-123.03"/>
<polygon fill="midnightblue" stroke="midnightblue" points="282.67,-121.42 275.35,-113.76 276.29,-124.31 282.67,-121.42"/>
</g>
<!-- Node4&#45;&gt;Node4 -->
<g id="edge5" class="edge">
<title>Node4&#45;&gt;Node4</title>
<path fill="none" stroke="midnightblue" d="M234.65,-57.76C224.76,-66.57 231.54,-76 255,-76 270.03,-76 278.21,-72.13 279.55,-67.03"/>
<polygon fill="midnightblue" stroke="midnightblue" points="282.67,-65.42 275.35,-57.76 276.29,-68.31 282.67,-65.42"/>
</g>
</g>
</svg>
