<?xml version="1.0" encoding="UTF-8" standalone="no"?>
<!DOCTYPE svg PUBLIC "-//W3C//DTD SVG 1.1//EN"
 "http://www.w3.org/Graphics/SVG/1.1/DTD/svg11.dtd">
<!-- Generated by graphviz version 3.0.0 (20220226.1711)
 -->
<!-- Title: main Pages: 1 -->
<svg width="375pt" height="140pt"
 viewBox="0.00 0.00 375.00 140.00" xmlns="http://www.w3.org/2000/svg" xmlns:xlink="http://www.w3.org/1999/xlink">
<g id="graph0" class="graph" transform="scale(1 1) rotate(0) translate(4 136)">
<title>main</title>
<polygon fill="white" stroke="transparent" points="-4,4 -4,-136 371,-136 371,4 -4,4"/>
<!-- Node1 -->
<g id="node1" class="node">
<title>Node1</title>
<g id="a_node1"><a xlink:title="Main function.">
<polygon fill="#bfbfbf" stroke="black" points="0,-38.5 0,-57.5 38,-57.5 38,-38.5 0,-38.5"/>
<text text-anchor="middle" x="19" y="-45.5" font-family="Helvetica,sans-Serif" font-size="10.00">main</text>
</a>
</g>
</g>
<!-- Node2 -->
<g id="node2" class="node">
<title>Node2</title>
<g id="a_node2"><a xlink:href="../../d1/dba/decimal__to__any__base_8c.html#aa8dca7b867074164d5f45b0f3851269d" target="_top" xlink:title="Self&#45;test implementations.">
<polygon fill="white" stroke="black" points="74,-38.5 74,-57.5 107,-57.5 107,-38.5 74,-38.5"/>
<text text-anchor="middle" x="90.5" y="-45.5" font-family="Helvetica,sans-Serif" font-size="10.00">test</text>
</a>
</g>
</g>
<!-- Node1&#45;&gt;Node2 -->
<g id="edge1" class="edge">
<title>Node1&#45;&gt;Node2</title>
<path fill="none" stroke="midnightblue" d="M38.26,-48C46.07,-48 55.31,-48 63.79,-48"/>
<polygon fill="midnightblue" stroke="midnightblue" points="63.95,-51.5 73.95,-48 63.95,-44.5 63.95,-51.5"/>
</g>
<!-- Node3 -->
<g id="node3" class="node">
<title>Node3</title>
<g id="a_node3"><a xlink:href="../../d1/dba/decimal__to__any__base_8c.html#a3e4a7cfc97a528faa4d6e5741461109c" target="_top" xlink:title="decimal_to_anybase ensure the validity of the parameters and convert any unsigned integers into any a...">
<polygon fill="white" stroke="black" points="143,-38.5 143,-57.5 249,-57.5 249,-38.5 143,-38.5"/>
<text text-anchor="middle" x="196" y="-45.5" font-family="Helvetica,sans-Serif" font-size="10.00">decimal_to_anybase</text>
</a>
</g>
</g>
<!-- Node2&#45;&gt;Node3 -->
<g id="edge2" class="edge">
<title>Node2&#45;&gt;Node3</title>
<path fill="none" stroke="midnightblue" d="M107.22,-48C114.28,-48 123.12,-48 132.44,-48"/>
<polygon fill="midnightblue" stroke="midnightblue" points="132.69,-51.5 142.69,-48 132.69,-44.5 132.69,-51.5"/>
</g>
<!-- Node4 -->
<g id="node4" class="node">
<title>Node4</title>
<g id="a_node4"><a xlink:href="../../d1/dba/decimal__to__any__base_8c.html#a899b3a7e0f1fac5a465eac0d4b10d711" target="_top" xlink:title="Calculate the final length of the converted number.">
<polygon fill="white" stroke="black" points="287.5,-94.5 287.5,-113.5 364.5,-113.5 364.5,-94.5 287.5,-94.5"/>
<text text-anchor="middle" x="326" y="-101.5" font-family="Helvetica,sans-Serif" font-size="10.00">converted_len</text>
</a>
</g>
</g>
<!-- Node3&#45;&gt;Node4 -->
<g id="edge3" class="edge">
<title>Node3&#45;&gt;Node4</title>
<path fill="none" stroke="midnightblue" d="M219,-57.63C239.64,-66.66 270.72,-80.25 293.89,-90.39"/>
<polygon fill="midnightblue" stroke="midnightblue" points="292.72,-93.7 303.28,-94.5 295.52,-87.28 292.72,-93.7"/>
</g>
<!-- Node5 -->
<g id="node5" class="node">
<title>Node5</title>
<g id="a_node5"><a xlink:href="../../d1/dba/decimal__to__any__base_8c.html#a0c5ccb926a23bc0050f213ba3408e18d" target="_top" xlink:title="Convert positive decimal integer into anybase recursively.">
<polygon fill="white" stroke="black" points="295,-38.5 295,-57.5 357,-57.5 357,-38.5 295,-38.5"/>
<text text-anchor="middle" x="326" y="-45.5" font-family="Helvetica,sans-Serif" font-size="10.00">convertion</text>
</a>
</g>
</g>
<!-- Node3&#45;&gt;Node5 -->
<g id="edge5" class="edge">
<title>Node3&#45;&gt;Node5</title>
<path fill="none" stroke="midnightblue" d="M249.06,-48C260.93,-48 273.37,-48 284.66,-48"/>
<polygon fill="midnightblue" stroke="midnightblue" points="284.67,-51.5 294.67,-48 284.67,-44.5 284.67,-51.5"/>
</g>
<!-- Node6 -->
<g id="node6" class="node">
<title>Node6</title>
<g id="a_node6"><a xlink:href="../../d1/dba/decimal__to__any__base_8c.html#ae071f62d704823751bf9a085bf0a1bd7" target="_top" xlink:title="for IO operations">
<polygon fill="white" stroke="black" points="285,-0.5 285,-19.5 367,-19.5 367,-0.5 285,-0.5"/>
<text text-anchor="middle" x="326" y="-7.5" font-family="Helvetica,sans-Serif" font-size="10.00">isbad_alphabet</text>
</a>
</g>
</g>
<!-- Node3&#45;&gt;Node6 -->
<g id="edge7" class="edge">
<title>Node3&#45;&gt;Node6</title>
<path fill="none" stroke="midnightblue" d="M229.3,-38.41C245.52,-33.6 265.38,-27.7 282.79,-22.53"/>
<polygon fill="midnightblue" stroke="midnightblue" points="284.12,-25.79 292.71,-19.59 282.13,-19.08 284.12,-25.79"/>
</g>
<!-- Node4&#45;&gt;Node4 -->
<g id="edge4" class="edge">
<title>Node4&#45;&gt;Node4</title>
<path fill="none" stroke="midnightblue" d="M305.96,-113.76C296.22,-122.57 302.89,-132 326,-132 340.8,-132 348.86,-128.13 350.18,-123.03"/>
<polygon fill="midnightblue" stroke="midnightblue" points="353.31,-121.46 346.04,-113.76 346.92,-124.31 353.31,-121.46"/>
</g>
<!-- Node5&#45;&gt;Node5 -->
<g id="edge6" class="edge">
<title>Node5&#45;&gt;Node5</title>
<path fill="none" stroke="midnightblue" d="M305.96,-57.76C296.22,-66.57 302.89,-76 326,-76 340.8,-76 348.86,-72.13 350.18,-67.03"/>
<polygon fill="midnightblue" stroke="midnightblue" points="353.31,-65.46 346.04,-57.76 346.92,-68.31 353.31,-65.46"/>
</g>
</g>
</svg>
