<?xml version="1.0" encoding="UTF-8" standalone="no"?>
<!DOCTYPE svg PUBLIC "-//W3C//DTD SVG 1.1//EN"
 "http://www.w3.org/Graphics/SVG/1.1/DTD/svg11.dtd">
<!-- Generated by graphviz version 3.0.0 (20220226.1711)
 -->
<!-- Title: main Pages: 1 -->
<svg width="221pt" height="28pt"
 viewBox="0.00 0.00 221.00 28.00" xmlns="http://www.w3.org/2000/svg" xmlns:xlink="http://www.w3.org/1999/xlink">
<g id="graph0" class="graph" transform="scale(1 1) rotate(0) translate(4 24)">
<title>main</title>
<polygon fill="white" stroke="transparent" points="-4,4 -4,-24 217,-24 217,4 -4,4"/>
<!-- Node1 -->
<g id="node1" class="node">
<title>Node1</title>
<g id="a_node1"><a xlink:title="Driver Code.">
<polygon fill="#bfbfbf" stroke="black" points="0,-0.5 0,-19.5 38,-19.5 38,-0.5 0,-0.5"/>
<text text-anchor="middle" x="19" y="-7.5" font-family="Helvetica,sans-Serif" font-size="10.00">main</text>
</a>
</g>
</g>
<!-- Node2 -->
<g id="node2" class="node">
<title>Node2</title>
<g id="a_node2"><a xlink:href="../../dd/d53/int__to__string_8c.html#aa8dca7b867074164d5f45b0f3851269d" target="_top" xlink:title="Test function.">
<polygon fill="white" stroke="black" points="74,-0.5 74,-19.5 107,-19.5 107,-0.5 74,-0.5"/>
<text text-anchor="middle" x="90.5" y="-7.5" font-family="Helvetica,sans-Serif" font-size="10.00">test</text>
</a>
</g>
</g>
<!-- Node1&#45;&gt;Node2 -->
<g id="edge1" class="edge">
<title>Node1&#45;&gt;Node2</title>
<path fill="none" stroke="midnightblue" d="M38.26,-10C46.07,-10 55.31,-10 63.79,-10"/>
<polygon fill="midnightblue" stroke="midnightblue" points="63.95,-13.5 73.95,-10 63.95,-6.5 63.95,-13.5"/>
</g>
<!-- Node3 -->
<g id="node3" class="node">
<title>Node3</title>
<g id="a_node3"><a xlink:href="../../dd/d53/int__to__string_8c.html#aeb4be1a1db1c5fea06e9d8b87e6c3973" target="_top" xlink:title="Converts an integer value to a null&#45;terminated string using the specified base and stores the result ...">
<polygon fill="white" stroke="black" points="143,-0.5 143,-19.5 213,-19.5 213,-0.5 143,-0.5"/>
<text text-anchor="middle" x="178" y="-7.5" font-family="Helvetica,sans-Serif" font-size="10.00">int_to_string</text>
</a>
</g>
</g>
<!-- Node2&#45;&gt;Node3 -->
<g id="edge2" class="edge">
<title>Node2&#45;&gt;Node3</title>
<path fill="none" stroke="midnightblue" d="M107.18,-10C114.47,-10 123.54,-10 132.7,-10"/>
<polygon fill="midnightblue" stroke="midnightblue" points="132.99,-13.5 142.99,-10 132.99,-6.5 132.99,-13.5"/>
</g>
</g>
</svg>
