<?xml version="1.0" encoding="UTF-8" standalone="no"?>
<!DOCTYPE svg PUBLIC "-//W3C//DTD SVG 1.1//EN"
 "http://www.w3.org/Graphics/SVG/1.1/DTD/svg11.dtd">
<!-- Generated by graphviz version 8.0.2 (20230410.1723)
 -->
<!-- Title: math/euclidean_algorithm_extended.c Pages: 1 -->
<svg width="190pt" height="93pt"
 viewBox="0.00 0.00 190.00 93.00" xmlns="http://www.w3.org/2000/svg" xmlns:xlink="http://www.w3.org/1999/xlink">
<g id="graph0" class="graph" transform="scale(1 1) rotate(0) translate(4 89)">
<title>math/euclidean_algorithm_extended.c</title>
<!-- Node1 -->
<g id="node1" class="node">
<title>Node1</title>
<g id="a_node1"><a xlink:title="Program to perform the extended Euclidean algorithm">
<polygon fill="#999999" stroke="#666666" points="157,-85 29,-85 29,-55 157,-55 157,-85"/>
<text text-anchor="start" x="37" y="-73" font-family="Helvetica,sans-Serif" font-size="10.00">math/euclidean_algorithm</text>
<text text-anchor="middle" x="93" y="-62" font-family="Helvetica,sans-Serif" font-size="10.00">_extended.c</text>
</a>
</g>
</g>
<!-- Node2 -->
<g id="node2" class="node">
<title>Node2</title>
<g id="a_node2"><a xlink:title=" ">
<polygon fill="#e0e0e0" stroke="#999999" points="52,-19 0,-19 0,0 52,0 52,-19"/>
<text text-anchor="middle" x="26" y="-7" font-family="Helvetica,sans-Serif" font-size="10.00">assert.h</text>
</a>
</g>
</g>
<!-- Node1&#45;&gt;Node2 -->
<g id="edge1" class="edge">
<title>Node1&#45;&gt;Node2</title>
<path fill="none" stroke="#63b8ff" d="M76.44,-54.54C66.61,-45.96 54.14,-35.07 44.05,-26.26"/>
<polygon fill="#63b8ff" stroke="#63b8ff" points="46.77,-23.12 36.94,-19.18 42.17,-28.39 46.77,-23.12"/>
</g>
<!-- Node3 -->
<g id="node3" class="node">
<title>Node3</title>
<g id="a_node3"><a xlink:title=" ">
<polygon fill="#e0e0e0" stroke="#999999" points="116,-19 70,-19 70,0 116,0 116,-19"/>
<text text-anchor="middle" x="93" y="-7" font-family="Helvetica,sans-Serif" font-size="10.00">stdio.h</text>
</a>
</g>
</g>
<!-- Node1&#45;&gt;Node3 -->
<g id="edge2" class="edge">
<title>Node1&#45;&gt;Node3</title>
<path fill="none" stroke="#63b8ff" d="M93,-54.54C93,-47.17 93,-38.1 93,-30.11"/>
<polygon fill="#63b8ff" stroke="#63b8ff" points="96.5,-30.18 93,-20.18 89.5,-30.18 96.5,-30.18"/>
</g>
<!-- Node4 -->
<g id="node4" class="node">
<title>Node4</title>
<g id="a_node4"><a xlink:title=" ">
<polygon fill="#e0e0e0" stroke="#999999" points="182,-19 134,-19 134,0 182,0 182,-19"/>
<text text-anchor="middle" x="158" y="-7" font-family="Helvetica,sans-Serif" font-size="10.00">stdlib.h</text>
</a>
</g>
</g>
<!-- Node1&#45;&gt;Node4 -->
<g id="edge3" class="edge">
<title>Node1&#45;&gt;Node4</title>
<path fill="none" stroke="#63b8ff" d="M109.07,-54.54C118.51,-46.04 130.46,-35.29 140.19,-26.53"/>
<polygon fill="#63b8ff" stroke="#63b8ff" points="142.27,-29.47 147.36,-20.18 137.59,-24.26 142.27,-29.47"/>
</g>
</g>
</svg>
