<?xml version="1.0" encoding="UTF-8" standalone="no"?>
<!DOCTYPE svg PUBLIC "-//W3C//DTD SVG 1.1//EN"
 "http://www.w3.org/Graphics/SVG/1.1/DTD/svg11.dtd">
<!-- Generated by graphviz version 9.0.0 (20230911.1827)
 -->
<!-- Title: math/euclidean_algorithm_extended.c Pages: 1 -->
<svg width="187pt" height="94pt"
 viewBox="0.00 0.00 187.38 93.75" xmlns="http://www.w3.org/2000/svg" xmlns:xlink="http://www.w3.org/1999/xlink">
<g id="graph0" class="graph" transform="scale(1 1) rotate(0) translate(4 89.75)">
<title>math/euclidean_algorithm_extended.c</title>
<!-- Node1 -->
<g id="Node000001" class="node">
<title>Node1</title>
<g id="a_Node000001"><a xlink:title="Program to perform the extended Euclidean algorithm">
<polygon fill="#999999" stroke="#666666" points="155.12,-85.75 28.12,-85.75 28.12,-55.25 155.12,-55.25 155.12,-85.75"/>
<text text-anchor="start" x="36.12" y="-72.25" font-family="Helvetica,sans-Serif" font-size="10.00">math/euclidean_algorithm</text>
<text text-anchor="middle" x="91.62" y="-61" font-family="Helvetica,sans-Serif" font-size="10.00">_extended.c</text>
</a>
</g>
</g>
<!-- Node2 -->
<g id="Node000002" class="node">
<title>Node2</title>
<g id="a_Node000002"><a xlink:title=" ">
<polygon fill="#e0e0e0" stroke="#999999" points="51.25,-19.25 0,-19.25 0,0 51.25,0 51.25,-19.25"/>
<text text-anchor="middle" x="25.62" y="-5.75" font-family="Helvetica,sans-Serif" font-size="10.00">assert.h</text>
</a>
</g>
</g>
<!-- Node1&#45;&gt;Node2 -->
<g id="edge1_Node000001_Node000002" class="edge">
<title>Node1&#45;&gt;Node2</title>
<g id="a_edge1_Node000001_Node000002"><a xlink:title=" ">
<path fill="none" stroke="#63b8ff" d="M75.31,-54.95C65.94,-46.59 54.13,-36.05 44.37,-27.35"/>
<polygon fill="#63b8ff" stroke="#63b8ff" points="46.72,-24.75 36.93,-20.71 42.06,-29.98 46.72,-24.75"/>
</a>
</g>
</g>
<!-- Node3 -->
<g id="Node000003" class="node">
<title>Node3</title>
<g id="a_Node000003"><a xlink:title=" ">
<polygon fill="#e0e0e0" stroke="#999999" points="114.25,-19.25 69,-19.25 69,0 114.25,0 114.25,-19.25"/>
<text text-anchor="middle" x="91.62" y="-5.75" font-family="Helvetica,sans-Serif" font-size="10.00">stdio.h</text>
</a>
</g>
</g>
<!-- Node1&#45;&gt;Node3 -->
<g id="edge2_Node000001_Node000003" class="edge">
<title>Node1&#45;&gt;Node3</title>
<g id="a_edge2_Node000001_Node000003"><a xlink:title=" ">
<path fill="none" stroke="#63b8ff" d="M91.62,-54.95C91.62,-47.71 91.62,-38.84 91.62,-30.94"/>
<polygon fill="#63b8ff" stroke="#63b8ff" points="95.13,-31.21 91.63,-21.21 88.13,-31.21 95.13,-31.21"/>
</a>
</g>
</g>
<!-- Node4 -->
<g id="Node000004" class="node">
<title>Node4</title>
<g id="a_Node000004"><a xlink:title=" ">
<polygon fill="#e0e0e0" stroke="#999999" points="179.38,-19.25 131.88,-19.25 131.88,0 179.38,0 179.38,-19.25"/>
<text text-anchor="middle" x="155.62" y="-5.75" font-family="Helvetica,sans-Serif" font-size="10.00">stdlib.h</text>
</a>
</g>
</g>
<!-- Node1&#45;&gt;Node4 -->
<g id="edge3_Node000001_Node000004" class="edge">
<title>Node1&#45;&gt;Node4</title>
<g id="a_edge3_Node000001_Node000004"><a xlink:title=" ">
<path fill="none" stroke="#63b8ff" d="M107.45,-54.95C116.53,-46.59 127.99,-36.05 137.44,-27.35"/>
<polygon fill="#63b8ff" stroke="#63b8ff" points="139.65,-30.07 144.64,-20.73 134.92,-24.92 139.65,-30.07"/>
</a>
</g>
</g>
</g>
</svg>
