<?xml version="1.0" encoding="UTF-8" standalone="no"?>
<!DOCTYPE svg PUBLIC "-//W3C//DTD SVG 1.1//EN"
 "http://www.w3.org/Graphics/SVG/1.1/DTD/svg11.dtd">
<!-- Generated by graphviz version 8.0.5 (20230430.1635)
 -->
<!-- Title: test Pages: 1 -->
<svg width="271pt" height="64pt"
 viewBox="0.00 0.00 270.50 64.25" xmlns="http://www.w3.org/2000/svg" xmlns:xlink="http://www.w3.org/1999/xlink">
<g id="graph0" class="graph" transform="scale(1 1) rotate(0) translate(4 60.25)">
<title>test</title>
<!-- Node1 -->
<g id="Node000001" class="node">
<title>Node1</title>
<g id="a_Node000001"><a xlink:title="Self&#45;test implementations.">
<polygon fill="#999999" stroke="#666666" points="32.5,-37.25 0,-37.25 0,-18 32.5,-18 32.5,-37.25"/>
<text text-anchor="middle" x="16.25" y="-23.75" font-family="Helvetica,sans-Serif" font-size="10.00">test</text>
</a>
</g>
</g>
<!-- Node2 -->
<g id="Node000002" class="node">
<title>Node2</title>
<g id="a_Node000002"><a xlink:href="../../dc/d73/shunting__yard_8c.html#aab4ea5886f3335a6c26621ccce6bce8f" target="_top" xlink:title="An implementation of the shunting yard that converts infix notation to reversed polish notation.">
<polygon fill="white" stroke="#666666" points="140.75,-37.25 68.5,-37.25 68.5,-18 140.75,-18 140.75,-37.25"/>
<text text-anchor="middle" x="104.62" y="-23.75" font-family="Helvetica,sans-Serif" font-size="10.00">shuntingYard</text>
</a>
</g>
</g>
<!-- Node1&#45;&gt;Node2 -->
<g id="edge1_Node000001_Node000002" class="edge">
<title>Node1&#45;&gt;Node2</title>
<g id="a_edge1_Node000001_Node000002"><a xlink:title=" ">
<path fill="none" stroke="#63b8ff" d="M32.69,-27.62C39.73,-27.62 48.47,-27.62 57.39,-27.62"/>
<polygon fill="#63b8ff" stroke="#63b8ff" points="57.25,-31.13 67.25,-27.62 57.25,-24.13 57.25,-31.13"/>
</a>
</g>
</g>
<!-- Node3 -->
<g id="Node000003" class="node">
<title>Node3</title>
<g id="a_Node000003"><a xlink:href="../../dc/d73/shunting__yard_8c.html#a4ea3d659fb78b0de0fcc88188815d013" target="_top" xlink:title="Helper function that returns each operator&#39;s associativity.">
<polygon fill="white" stroke="#666666" points="262.5,-56.25 176.75,-56.25 176.75,-37 262.5,-37 262.5,-56.25"/>
<text text-anchor="middle" x="219.62" y="-42.75" font-family="Helvetica,sans-Serif" font-size="10.00">getAssociativity</text>
</a>
</g>
</g>
<!-- Node2&#45;&gt;Node3 -->
<g id="edge2_Node000002_Node000003" class="edge">
<title>Node2&#45;&gt;Node3</title>
<g id="a_edge2_Node000002_Node000003"><a xlink:title=" ">
<path fill="none" stroke="#63b8ff" d="M141.07,-33.58C148.99,-34.92 157.55,-36.36 166,-37.78"/>
<polygon fill="#63b8ff" stroke="#63b8ff" points="165.13,-41.35 175.58,-39.55 166.3,-34.45 165.13,-41.35"/>
</a>
</g>
</g>
<!-- Node4 -->
<g id="Node000004" class="node">
<title>Node4</title>
<g id="a_Node000004"><a xlink:href="../../dc/d73/shunting__yard_8c.html#a4438f2369c8f681d8d0dff2eb86d0e65" target="_top" xlink:title="for assertion">
<polygon fill="white" stroke="#666666" points="260.25,-19.25 179,-19.25 179,0 260.25,0 260.25,-19.25"/>
<text text-anchor="middle" x="219.62" y="-5.75" font-family="Helvetica,sans-Serif" font-size="10.00">getPrecedence</text>
</a>
</g>
</g>
<!-- Node2&#45;&gt;Node4 -->
<g id="edge3_Node000002_Node000004" class="edge">
<title>Node2&#45;&gt;Node4</title>
<g id="a_edge3_Node000002_Node000004"><a xlink:title=" ">
<path fill="none" stroke="#63b8ff" d="M141.07,-21.98C149.54,-20.63 158.74,-19.16 167.75,-17.73"/>
<polygon fill="#63b8ff" stroke="#63b8ff" points="168.26,-21.03 177.58,-16 167.16,-14.12 168.26,-21.03"/>
</a>
</g>
</g>
</g>
</svg>
