<?xml version="1.0" encoding="UTF-8" standalone="no"?>
<!DOCTYPE svg PUBLIC "-//W3C//DTD SVG 1.1//EN"
 "http://www.w3.org/Graphics/SVG/1.1/DTD/svg11.dtd">
<!-- Generated by graphviz version 7.1.0 (20230121.1956)
 -->
<!-- Title: test Pages: 1 -->
<svg width="272pt" height="64pt"
 viewBox="0.00 0.00 272.00 64.00" xmlns="http://www.w3.org/2000/svg" xmlns:xlink="http://www.w3.org/1999/xlink">
<g id="graph0" class="graph" transform="scale(1 1) rotate(0) translate(4 60)">
<title>test</title>
<!-- Node1 -->
<g id="node1" class="node">
<title>Node1</title>
<g id="a_node1"><a xlink:title="Self&#45;test implementations.">
<polygon fill="#999999" stroke="#666666" points="33,-37 0,-37 0,-18 33,-18 33,-37"/>
<text text-anchor="middle" x="16.5" y="-25" font-family="Helvetica,sans-Serif" font-size="10.00">test</text>
</a>
</g>
</g>
<!-- Node2 -->
<g id="node2" class="node">
<title>Node2</title>
<g id="a_node2"><a xlink:href="../../dc/d73/shunting__yard_8c.html#aab4ea5886f3335a6c26621ccce6bce8f" target="_top" xlink:title="An implementation of the shunting yard that converts infix notation to reversed polish notation.">
<polygon fill="white" stroke="#666666" points="142,-37 69,-37 69,-18 142,-18 142,-37"/>
<text text-anchor="middle" x="105.5" y="-25" font-family="Helvetica,sans-Serif" font-size="10.00">shuntingYard</text>
</a>
</g>
</g>
<!-- Node1&#45;&gt;Node2 -->
<g id="edge1" class="edge">
<title>Node1&#45;&gt;Node2</title>
<path fill="none" stroke="#63b8ff" d="M33.46,-27.5C40.35,-27.5 48.8,-27.5 57.45,-27.5"/>
<polygon fill="#63b8ff" stroke="#63b8ff" points="57.29,-31 67.29,-27.5 57.29,-24 57.29,-31"/>
</g>
<!-- Node3 -->
<g id="node3" class="node">
<title>Node3</title>
<g id="a_node3"><a xlink:href="../../dc/d73/shunting__yard_8c.html#a4ea3d659fb78b0de0fcc88188815d013" target="_top" xlink:title="Helper function that returns each operator&#39;s associativity.">
<polygon fill="white" stroke="#666666" points="264,-56 178,-56 178,-37 264,-37 264,-56"/>
<text text-anchor="middle" x="221" y="-44" font-family="Helvetica,sans-Serif" font-size="10.00">getAssociativity</text>
</a>
</g>
</g>
<!-- Node2&#45;&gt;Node3 -->
<g id="edge2" class="edge">
<title>Node2&#45;&gt;Node3</title>
<path fill="none" stroke="#63b8ff" d="M142.41,-33.51C150,-34.78 158.17,-36.15 166.26,-37.5"/>
<polygon fill="#63b8ff" stroke="#63b8ff" points="165.64,-40.95 176.08,-39.15 166.8,-34.05 165.64,-40.95"/>
</g>
<!-- Node4 -->
<g id="node4" class="node">
<title>Node4</title>
<g id="a_node4"><a xlink:href="../../dc/d73/shunting__yard_8c.html#a4438f2369c8f681d8d0dff2eb86d0e65" target="_top" xlink:title="for assertion">
<polygon fill="white" stroke="#666666" points="262,-19 180,-19 180,0 262,0 262,-19"/>
<text text-anchor="middle" x="221" y="-7" font-family="Helvetica,sans-Serif" font-size="10.00">getPrecedence</text>
</a>
</g>
</g>
<!-- Node2&#45;&gt;Node4 -->
<g id="edge3" class="edge">
<title>Node2&#45;&gt;Node4</title>
<path fill="none" stroke="#63b8ff" d="M142.41,-21.8C150.63,-20.5 159.53,-19.09 168.26,-17.71"/>
<polygon fill="#63b8ff" stroke="#63b8ff" points="168.76,-21.17 178.09,-16.15 167.66,-14.26 168.76,-21.17"/>
</g>
</g>
</svg>
