<?xml version="1.0" encoding="UTF-8" standalone="no"?>
<!DOCTYPE svg PUBLIC "-//W3C//DTD SVG 1.1//EN"
 "http://www.w3.org/Graphics/SVG/1.1/DTD/svg11.dtd">
<!-- Generated by graphviz version 8.0.2 (20230410.1723)
 -->
<!-- Title: main Pages: 1 -->
<svg width="346pt" height="64pt"
 viewBox="0.00 0.00 346.00 64.00" xmlns="http://www.w3.org/2000/svg" xmlns:xlink="http://www.w3.org/1999/xlink">
<g id="graph0" class="graph" transform="scale(1 1) rotate(0) translate(4 60)">
<title>main</title>
<!-- Node1 -->
<g id="node1" class="node">
<title>Node1</title>
<g id="a_node1"><a xlink:title="Main function.">
<polygon fill="#999999" stroke="#666666" points="38,-37 0,-37 0,-18 38,-18 38,-37"/>
<text text-anchor="middle" x="19" y="-25" font-family="Helvetica,sans-Serif" font-size="10.00">main</text>
</a>
</g>
</g>
<!-- Node2 -->
<g id="node2" class="node">
<title>Node2</title>
<g id="a_node2"><a xlink:href="../../dc/d73/shunting__yard_8c.html#aa8dca7b867074164d5f45b0f3851269d" target="_top" xlink:title="Self&#45;test implementations.">
<polygon fill="white" stroke="#666666" points="107,-37 74,-37 74,-18 107,-18 107,-37"/>
<text text-anchor="middle" x="90.5" y="-25" font-family="Helvetica,sans-Serif" font-size="10.00">test</text>
</a>
</g>
</g>
<!-- Node1&#45;&gt;Node2 -->
<g id="edge1" class="edge">
<title>Node1&#45;&gt;Node2</title>
<path fill="none" stroke="#63b8ff" d="M38.26,-27.5C45.89,-27.5 54.9,-27.5 63.23,-27.5"/>
<polygon fill="#63b8ff" stroke="#63b8ff" points="62.95,-31 72.95,-27.5 62.95,-24 62.95,-31"/>
</g>
<!-- Node3 -->
<g id="node3" class="node">
<title>Node3</title>
<g id="a_node3"><a xlink:href="../../dc/d73/shunting__yard_8c.html#aab4ea5886f3335a6c26621ccce6bce8f" target="_top" xlink:title="An implementation of the shunting yard that converts infix notation to reversed polish notation.">
<polygon fill="white" stroke="#666666" points="216,-37 143,-37 143,-18 216,-18 216,-37"/>
<text text-anchor="middle" x="179.5" y="-25" font-family="Helvetica,sans-Serif" font-size="10.00">shuntingYard</text>
</a>
</g>
</g>
<!-- Node2&#45;&gt;Node3 -->
<g id="edge2" class="edge">
<title>Node2&#45;&gt;Node3</title>
<path fill="none" stroke="#63b8ff" d="M107.46,-27.5C114.5,-27.5 123.18,-27.5 132.03,-27.5"/>
<polygon fill="#63b8ff" stroke="#63b8ff" points="131.8,-31 141.8,-27.5 131.8,-24 131.8,-31"/>
</g>
<!-- Node4 -->
<g id="node4" class="node">
<title>Node4</title>
<g id="a_node4"><a xlink:href="../../dc/d73/shunting__yard_8c.html#a4ea3d659fb78b0de0fcc88188815d013" target="_top" xlink:title="Helper function that returns each operator&#39;s associativity.">
<polygon fill="white" stroke="#666666" points="338,-56 252,-56 252,-37 338,-37 338,-56"/>
<text text-anchor="middle" x="295" y="-44" font-family="Helvetica,sans-Serif" font-size="10.00">getAssociativity</text>
</a>
</g>
</g>
<!-- Node3&#45;&gt;Node4 -->
<g id="edge3" class="edge">
<title>Node3&#45;&gt;Node4</title>
<path fill="none" stroke="#63b8ff" d="M216.41,-33.51C224.18,-34.81 232.55,-36.21 240.82,-37.6"/>
<polygon fill="#63b8ff" stroke="#63b8ff" points="240.13,-41.2 250.58,-39.4 241.29,-34.3 240.13,-41.2"/>
</g>
<!-- Node5 -->
<g id="node5" class="node">
<title>Node5</title>
<g id="a_node5"><a xlink:href="../../dc/d73/shunting__yard_8c.html#a4438f2369c8f681d8d0dff2eb86d0e65" target="_top" xlink:title="for assertion">
<polygon fill="white" stroke="#666666" points="336,-19 254,-19 254,0 336,0 336,-19"/>
<text text-anchor="middle" x="295" y="-7" font-family="Helvetica,sans-Serif" font-size="10.00">getPrecedence</text>
</a>
</g>
</g>
<!-- Node3&#45;&gt;Node5 -->
<g id="edge4" class="edge">
<title>Node3&#45;&gt;Node5</title>
<path fill="none" stroke="#63b8ff" d="M216.41,-21.8C224.82,-20.47 233.93,-19.03 242.85,-17.61"/>
<polygon fill="#63b8ff" stroke="#63b8ff" points="243.26,-20.93 252.58,-15.91 242.16,-14.02 243.26,-20.93"/>
</g>
</g>
</svg>
