<?xml version="1.0" encoding="UTF-8" standalone="no"?>
<!DOCTYPE svg PUBLIC "-//W3C//DTD SVG 1.1//EN"
 "http://www.w3.org/Graphics/SVG/1.1/DTD/svg11.dtd">
<!-- Generated by graphviz version 8.0.2 (20230410.1723)
 -->
<!-- Title: main Pages: 1 -->
<svg width="574pt" height="64pt"
 viewBox="0.00 0.00 574.00 64.00" xmlns="http://www.w3.org/2000/svg" xmlns:xlink="http://www.w3.org/1999/xlink">
<g id="graph0" class="graph" transform="scale(1 1) rotate(0) translate(4 60)">
<title>main</title>
<!-- Node1 -->
<g id="node1" class="node">
<title>Node1</title>
<g id="a_node1"><a xlink:title="Main Function.">
<polygon fill="#999999" stroke="#666666" points="38,-37 0,-37 0,-18 38,-18 38,-37"/>
<text text-anchor="middle" x="19" y="-25" font-family="Helvetica,sans-Serif" font-size="10.00">main</text>
</a>
</g>
</g>
<!-- Node2 -->
<g id="node2" class="node">
<title>Node2</title>
<g id="a_node2"><a xlink:href="../../d5/df9/euclidean__algorithm__extended_8c.html#aa8dca7b867074164d5f45b0f3851269d" target="_top" xlink:title="Perform tests on known results.">
<polygon fill="white" stroke="#666666" points="107,-37 74,-37 74,-18 107,-18 107,-37"/>
<text text-anchor="middle" x="90.5" y="-25" font-family="Helvetica,sans-Serif" font-size="10.00">test</text>
</a>
</g>
</g>
<!-- Node1&#45;&gt;Node2 -->
<g id="edge1" class="edge">
<title>Node1&#45;&gt;Node2</title>
<path fill="none" stroke="#63b8ff" d="M38.26,-27.5C45.89,-27.5 54.9,-27.5 63.23,-27.5"/>
<polygon fill="#63b8ff" stroke="#63b8ff" points="62.95,-31 72.95,-27.5 62.95,-24 62.95,-31"/>
</g>
<!-- Node3 -->
<g id="node3" class="node">
<title>Node3</title>
<g id="a_node3"><a xlink:href="../../d5/df9/euclidean__algorithm__extended_8c.html#aaa5f87fdd4cc35a6c77e255416de66ba" target="_top" xlink:title="perform one single check on the result of the algorithm with provided parameters and expected output">
<polygon fill="white" stroke="#666666" points="207,-37 143,-37 143,-18 207,-18 207,-37"/>
<text text-anchor="middle" x="175" y="-25" font-family="Helvetica,sans-Serif" font-size="10.00">single_test</text>
</a>
</g>
</g>
<!-- Node2&#45;&gt;Node3 -->
<g id="edge2" class="edge">
<title>Node2&#45;&gt;Node3</title>
<path fill="none" stroke="#63b8ff" d="M107.41,-27.5C114.45,-27.5 123.11,-27.5 131.82,-27.5"/>
<polygon fill="#63b8ff" stroke="#63b8ff" points="131.77,-31 141.77,-27.5 131.77,-24 131.77,-31"/>
</g>
<!-- Node4 -->
<g id="node4" class="node">
<title>Node4</title>
<g id="a_node4"><a xlink:href="../../d5/df9/euclidean__algorithm__extended_8c.html#a2e7f9cce2f756c6a016ae7e2592f9c5d" target="_top" xlink:title="performs the extended Euclidean algorithm on integer inputs a and b">
<polygon fill="white" stroke="#666666" points="346,-42.5 243,-42.5 243,-12.5 346,-12.5 346,-42.5"/>
<text text-anchor="start" x="251" y="-30.5" font-family="Helvetica,sans-Serif" font-size="10.00">extended_euclidean</text>
<text text-anchor="middle" x="294.5" y="-19.5" font-family="Helvetica,sans-Serif" font-size="10.00">_algorithm</text>
</a>
</g>
</g>
<!-- Node3&#45;&gt;Node4 -->
<g id="edge3" class="edge">
<title>Node3&#45;&gt;Node4</title>
<path fill="none" stroke="#63b8ff" d="M207.49,-27.5C215.14,-27.5 223.57,-27.5 232.09,-27.5"/>
<polygon fill="#63b8ff" stroke="#63b8ff" points="231.86,-31 241.86,-27.5 231.86,-24 231.86,-31"/>
</g>
<!-- Node5 -->
<g id="node5" class="node">
<title>Node5</title>
<g id="a_node5"><a xlink:href="../../d5/df9/euclidean__algorithm__extended_8c.html#a2692f7190cf9d281ae23df491902d1c8" target="_top" xlink:title="calculates the value of x or y and push those into the small &#39;queues&#39;">
<polygon fill="white" stroke="#666666" points="477,-37 382,-37 382,-18 477,-18 477,-37"/>
<text text-anchor="middle" x="429.5" y="-25" font-family="Helvetica,sans-Serif" font-size="10.00">calculate_next_xy</text>
</a>
</g>
</g>
<!-- Node4&#45;&gt;Node5 -->
<g id="edge4" class="edge">
<title>Node4&#45;&gt;Node5</title>
<path fill="none" stroke="#63b8ff" d="M346.16,-27.5C354.33,-27.5 362.83,-27.5 371.14,-27.5"/>
<polygon fill="#63b8ff" stroke="#63b8ff" points="370.91,-31 380.91,-27.5 370.91,-24 370.91,-31"/>
</g>
<!-- Node6 -->
<g id="node6" class="node">
<title>Node6</title>
<g id="a_node6"><a xlink:href="../../df/dfa/vector_8c.html#af2f92e8cc55e764980bc0573ab5cd06f" target="_top" xlink:title="This function gets the next item from the Vector each time it&#39;s called.">
<polygon fill="white" stroke="#666666" points="557,-56 522,-56 522,-37 557,-37 557,-56"/>
<text text-anchor="middle" x="539.5" y="-44" font-family="Helvetica,sans-Serif" font-size="10.00">next</text>
</a>
</g>
</g>
<!-- Node5&#45;&gt;Node6 -->
<g id="edge5" class="edge">
<title>Node5&#45;&gt;Node6</title>
<path fill="none" stroke="#63b8ff" d="M477.24,-35.72C488.76,-37.75 500.72,-39.85 510.99,-41.66"/>
<polygon fill="#63b8ff" stroke="#63b8ff" points="510.29,-45.27 520.74,-43.55 511.5,-38.37 510.29,-45.27"/>
</g>
<!-- Node7 -->
<g id="node7" class="node">
<title>Node7</title>
<g id="a_node7"><a xlink:href="../../d5/df9/euclidean__algorithm__extended_8c.html#a14f0d2347018c28ef17be3185b373d8f" target="_top" xlink:title="gives queue&#45;like behavior to an array of two ints, pushing an element onto the end and pushing one of...">
<polygon fill="white" stroke="#666666" points="566,-19 513,-19 513,0 566,0 566,-19"/>
<text text-anchor="middle" x="539.5" y="-7" font-family="Helvetica,sans-Serif" font-size="10.00">xy_push</text>
</a>
</g>
</g>
<!-- Node5&#45;&gt;Node7 -->
<g id="edge6" class="edge">
<title>Node5&#45;&gt;Node7</title>
<path fill="none" stroke="#63b8ff" d="M477.24,-19.71C485.46,-18.34 493.9,-16.93 501.79,-15.62"/>
<polygon fill="#63b8ff" stroke="#63b8ff" points="502.21,-18.93 511.5,-13.83 501.06,-12.02 502.21,-18.93"/>
</g>
</g>
</svg>
