<?xml version="1.0" encoding="UTF-8" standalone="no"?>
<!DOCTYPE svg PUBLIC "-//W3C//DTD SVG 1.1//EN"
 "http://www.w3.org/Graphics/SVG/1.1/DTD/svg11.dtd">
<!-- Generated by graphviz version 9.0.0 (20230911.1827)
 -->
<!-- Title: test Pages: 1 -->
<svg width="498pt" height="64pt"
 viewBox="0.00 0.00 497.50 64.25" xmlns="http://www.w3.org/2000/svg" xmlns:xlink="http://www.w3.org/1999/xlink">
<g id="graph0" class="graph" transform="scale(1 1) rotate(0) translate(4 60.25)">
<title>test</title>
<!-- Node1 -->
<g id="Node000001" class="node">
<title>Node1</title>
<g id="a_Node000001"><a xlink:title="Perform tests on known results.">
<polygon fill="#999999" stroke="#666666" points="32.5,-37.25 0,-37.25 0,-18 32.5,-18 32.5,-37.25"/>
<text text-anchor="middle" x="16.25" y="-23.75" font-family="Helvetica,sans-Serif" font-size="10.00">test</text>
</a>
</g>
</g>
<!-- Node2 -->
<g id="Node000002" class="node">
<title>Node2</title>
<g id="a_Node000002"><a xlink:href="../../d5/df9/euclidean__algorithm__extended_8c.html#aaa5f87fdd4cc35a6c77e255416de66ba" target="_top" xlink:title="perform one single check on the result of the algorithm with provided parameters and expected output">
<polygon fill="white" stroke="#666666" points="131.75,-37.25 68.5,-37.25 68.5,-18 131.75,-18 131.75,-37.25"/>
<text text-anchor="middle" x="100.12" y="-23.75" font-family="Helvetica,sans-Serif" font-size="10.00">single_test</text>
</a>
</g>
</g>
<!-- Node1&#45;&gt;Node2 -->
<g id="edge1_Node000001_Node000002" class="edge">
<title>Node1&#45;&gt;Node2</title>
<g id="a_edge1_Node000001_Node000002"><a xlink:title=" ">
<path fill="none" stroke="#63b8ff" d="M32.65,-27.62C39.61,-27.62 48.2,-27.62 56.88,-27.62"/>
<polygon fill="#63b8ff" stroke="#63b8ff" points="56.68,-31.13 66.68,-27.63 56.68,-24.13 56.68,-31.13"/>
</a>
</g>
</g>
<!-- Node3 -->
<g id="Node000003" class="node">
<title>Node3</title>
<g id="a_Node000003"><a xlink:href="../../d5/df9/euclidean__algorithm__extended_8c.html#a2e7f9cce2f756c6a016ae7e2592f9c5d" target="_top" xlink:title="performs the extended Euclidean algorithm on integer inputs a and b">
<polygon fill="white" stroke="#666666" points="270,-42.88 167.75,-42.88 167.75,-12.37 270,-12.37 270,-42.88"/>
<text text-anchor="start" x="175.75" y="-29.38" font-family="Helvetica,sans-Serif" font-size="10.00">extended_euclidean</text>
<text text-anchor="middle" x="218.88" y="-18.12" font-family="Helvetica,sans-Serif" font-size="10.00">_algorithm</text>
</a>
</g>
</g>
<!-- Node2&#45;&gt;Node3 -->
<g id="edge2_Node000002_Node000003" class="edge">
<title>Node2&#45;&gt;Node3</title>
<g id="a_edge2_Node000002_Node000003"><a xlink:title=" ">
<path fill="none" stroke="#63b8ff" d="M132.11,-27.62C139.54,-27.62 147.73,-27.62 156.02,-27.62"/>
<polygon fill="#63b8ff" stroke="#63b8ff" points="155.81,-31.13 165.81,-27.63 155.81,-24.13 155.81,-31.13"/>
</a>
</g>
</g>
<!-- Node4 -->
<g id="Node000004" class="node">
<title>Node4</title>
<g id="a_Node000004"><a xlink:href="../../d5/df9/euclidean__algorithm__extended_8c.html#a2692f7190cf9d281ae23df491902d1c8" target="_top" xlink:title="calculates the value of x or y and push those into the small &#39;queues&#39;">
<polygon fill="white" stroke="#666666" points="400.75,-37.25 306,-37.25 306,-18 400.75,-18 400.75,-37.25"/>
<text text-anchor="middle" x="353.38" y="-23.75" font-family="Helvetica,sans-Serif" font-size="10.00">calculate_next_xy</text>
</a>
</g>
</g>
<!-- Node3&#45;&gt;Node4 -->
<g id="edge3_Node000003_Node000004" class="edge">
<title>Node3&#45;&gt;Node4</title>
<g id="a_edge3_Node000003_Node000004"><a xlink:title=" ">
<path fill="none" stroke="#63b8ff" d="M270.35,-27.62C278.11,-27.62 286.18,-27.62 294.1,-27.62"/>
<polygon fill="#63b8ff" stroke="#63b8ff" points="294.02,-31.13 304.02,-27.63 294.02,-24.13 294.02,-31.13"/>
</a>
</g>
</g>
<!-- Node5 -->
<g id="Node000005" class="node">
<title>Node5</title>
<g id="a_Node000005"><a xlink:href="../../df/dfa/vector_8c.html#af2f92e8cc55e764980bc0573ab5cd06f" target="_top" xlink:title="This function gets the next item from the Vector each time it&#39;s called.">
<polygon fill="white" stroke="#666666" points="480.5,-56.25 445.75,-56.25 445.75,-37 480.5,-37 480.5,-56.25"/>
<text text-anchor="middle" x="463.12" y="-42.75" font-family="Helvetica,sans-Serif" font-size="10.00">next</text>
</a>
</g>
</g>
<!-- Node4&#45;&gt;Node5 -->
<g id="edge4_Node000004_Node000005" class="edge">
<title>Node4&#45;&gt;Node5</title>
<g id="a_edge4_Node000004_Node000005"><a xlink:title=" ">
<path fill="none" stroke="#63b8ff" d="M401.01,-35.85C412.37,-37.85 424.18,-39.93 434.34,-41.73"/>
<polygon fill="#63b8ff" stroke="#63b8ff" points="433.46,-45.12 443.91,-43.41 434.67,-38.23 433.46,-45.12"/>
</a>
</g>
</g>
<!-- Node6 -->
<g id="Node000006" class="node">
<title>Node6</title>
<g id="a_Node000006"><a xlink:href="../../d5/df9/euclidean__algorithm__extended_8c.html#a14f0d2347018c28ef17be3185b373d8f" target="_top" xlink:title="gives queue&#45;like behavior to an array of two ints, pushing an element onto the end and pushing one of...">
<polygon fill="white" stroke="#666666" points="489.5,-19.25 436.75,-19.25 436.75,0 489.5,0 489.5,-19.25"/>
<text text-anchor="middle" x="463.12" y="-5.75" font-family="Helvetica,sans-Serif" font-size="10.00">xy_push</text>
</a>
</g>
</g>
<!-- Node4&#45;&gt;Node6 -->
<g id="edge5_Node000004_Node000006" class="edge">
<title>Node4&#45;&gt;Node6</title>
<g id="a_edge5_Node000004_Node000006"><a xlink:title=" ">
<path fill="none" stroke="#63b8ff" d="M401.01,-19.83C409.09,-18.48 417.4,-17.1 425.18,-15.8"/>
<polygon fill="#63b8ff" stroke="#63b8ff" points="425.7,-19.26 434.99,-14.16 424.55,-12.35 425.7,-19.26"/>
</a>
</g>
</g>
</g>
</svg>
