<?xml version="1.0" encoding="UTF-8" standalone="no"?>
<!DOCTYPE svg PUBLIC "-//W3C//DTD SVG 1.1//EN"
 "http://www.w3.org/Graphics/SVG/1.1/DTD/svg11.dtd">
<!-- Generated by graphviz version 8.0.2 (20230410.1723)
 -->
<!-- Title: single_test Pages: 1 -->
<svg width="431pt" height="64pt"
 viewBox="0.00 0.00 431.00 64.00" xmlns="http://www.w3.org/2000/svg" xmlns:xlink="http://www.w3.org/1999/xlink">
<g id="graph0" class="graph" transform="scale(1 1) rotate(0) translate(4 60)">
<title>single_test</title>
<!-- Node1 -->
<g id="node1" class="node">
<title>Node1</title>
<g id="a_node1"><a xlink:title="perform one single check on the result of the algorithm with provided parameters and expected output">
<polygon fill="#999999" stroke="#666666" points="64,-37 0,-37 0,-18 64,-18 64,-37"/>
<text text-anchor="middle" x="32" y="-25" font-family="Helvetica,sans-Serif" font-size="10.00">single_test</text>
</a>
</g>
</g>
<!-- Node2 -->
<g id="node2" class="node">
<title>Node2</title>
<g id="a_node2"><a xlink:href="../../d5/df9/euclidean__algorithm__extended_8c.html#a2e7f9cce2f756c6a016ae7e2592f9c5d" target="_top" xlink:title="performs the extended Euclidean algorithm on integer inputs a and b">
<polygon fill="white" stroke="#666666" points="203,-42.5 100,-42.5 100,-12.5 203,-12.5 203,-42.5"/>
<text text-anchor="start" x="108" y="-30.5" font-family="Helvetica,sans-Serif" font-size="10.00">extended_euclidean</text>
<text text-anchor="middle" x="151.5" y="-19.5" font-family="Helvetica,sans-Serif" font-size="10.00">_algorithm</text>
</a>
</g>
</g>
<!-- Node1&#45;&gt;Node2 -->
<g id="edge1" class="edge">
<title>Node1&#45;&gt;Node2</title>
<path fill="none" stroke="#63b8ff" d="M64.49,-27.5C72.14,-27.5 80.57,-27.5 89.09,-27.5"/>
<polygon fill="#63b8ff" stroke="#63b8ff" points="88.86,-31 98.86,-27.5 88.86,-24 88.86,-31"/>
</g>
<!-- Node3 -->
<g id="node3" class="node">
<title>Node3</title>
<g id="a_node3"><a xlink:href="../../d5/df9/euclidean__algorithm__extended_8c.html#a2692f7190cf9d281ae23df491902d1c8" target="_top" xlink:title="calculates the value of x or y and push those into the small &#39;queues&#39;">
<polygon fill="white" stroke="#666666" points="334,-37 239,-37 239,-18 334,-18 334,-37"/>
<text text-anchor="middle" x="286.5" y="-25" font-family="Helvetica,sans-Serif" font-size="10.00">calculate_next_xy</text>
</a>
</g>
</g>
<!-- Node2&#45;&gt;Node3 -->
<g id="edge2" class="edge">
<title>Node2&#45;&gt;Node3</title>
<path fill="none" stroke="#63b8ff" d="M203.16,-27.5C211.33,-27.5 219.83,-27.5 228.14,-27.5"/>
<polygon fill="#63b8ff" stroke="#63b8ff" points="227.91,-31 237.91,-27.5 227.91,-24 227.91,-31"/>
</g>
<!-- Node4 -->
<g id="node4" class="node">
<title>Node4</title>
<g id="a_node4"><a xlink:href="../../df/dfa/vector_8c.html#af2f92e8cc55e764980bc0573ab5cd06f" target="_top" xlink:title="This function gets the next item from the Vector each time it&#39;s called.">
<polygon fill="white" stroke="#666666" points="414,-56 379,-56 379,-37 414,-37 414,-56"/>
<text text-anchor="middle" x="396.5" y="-44" font-family="Helvetica,sans-Serif" font-size="10.00">next</text>
</a>
</g>
</g>
<!-- Node3&#45;&gt;Node4 -->
<g id="edge3" class="edge">
<title>Node3&#45;&gt;Node4</title>
<path fill="none" stroke="#63b8ff" d="M334.24,-35.72C345.76,-37.75 357.72,-39.85 367.99,-41.66"/>
<polygon fill="#63b8ff" stroke="#63b8ff" points="367.29,-45.27 377.74,-43.55 368.5,-38.37 367.29,-45.27"/>
</g>
<!-- Node5 -->
<g id="node5" class="node">
<title>Node5</title>
<g id="a_node5"><a xlink:href="../../d5/df9/euclidean__algorithm__extended_8c.html#a14f0d2347018c28ef17be3185b373d8f" target="_top" xlink:title="gives queue&#45;like behavior to an array of two ints, pushing an element onto the end and pushing one of...">
<polygon fill="white" stroke="#666666" points="423,-19 370,-19 370,0 423,0 423,-19"/>
<text text-anchor="middle" x="396.5" y="-7" font-family="Helvetica,sans-Serif" font-size="10.00">xy_push</text>
</a>
</g>
</g>
<!-- Node3&#45;&gt;Node5 -->
<g id="edge4" class="edge">
<title>Node3&#45;&gt;Node5</title>
<path fill="none" stroke="#63b8ff" d="M334.24,-19.71C342.46,-18.34 350.9,-16.93 358.79,-15.62"/>
<polygon fill="#63b8ff" stroke="#63b8ff" points="359.21,-18.93 368.5,-13.83 358.06,-12.02 359.21,-18.93"/>
</g>
</g>
</svg>
