<?xml version="1.0" encoding="UTF-8" standalone="no"?>
<!DOCTYPE svg PUBLIC "-//W3C//DTD SVG 1.1//EN"
 "http://www.w3.org/Graphics/SVG/1.1/DTD/svg11.dtd">
<!-- Generated by graphviz version 8.0.2 (20230410.1723)
 -->
<!-- Title: test Pages: 1 -->
<svg width="500pt" height="64pt"
 viewBox="0.00 0.00 500.00 64.00" xmlns="http://www.w3.org/2000/svg" xmlns:xlink="http://www.w3.org/1999/xlink">
<g id="graph0" class="graph" transform="scale(1 1) rotate(0) translate(4 60)">
<title>test</title>
<!-- Node1 -->
<g id="node1" class="node">
<title>Node1</title>
<g id="a_node1"><a xlink:title="Perform tests on known results.">
<polygon fill="#999999" stroke="#666666" points="33,-37 0,-37 0,-18 33,-18 33,-37"/>
<text text-anchor="middle" x="16.5" y="-25" font-family="Helvetica,sans-Serif" font-size="10.00">test</text>
</a>
</g>
</g>
<!-- Node2 -->
<g id="node2" class="node">
<title>Node2</title>
<g id="a_node2"><a xlink:href="../../d5/df9/euclidean__algorithm__extended_8c.html#aaa5f87fdd4cc35a6c77e255416de66ba" target="_top" xlink:title="perform one single check on the result of the algorithm with provided parameters and expected output">
<polygon fill="white" stroke="#666666" points="133,-37 69,-37 69,-18 133,-18 133,-37"/>
<text text-anchor="middle" x="101" y="-25" font-family="Helvetica,sans-Serif" font-size="10.00">single_test</text>
</a>
</g>
</g>
<!-- Node1&#45;&gt;Node2 -->
<g id="edge1" class="edge">
<title>Node1&#45;&gt;Node2</title>
<path fill="none" stroke="#63b8ff" d="M33.41,-27.5C40.45,-27.5 49.11,-27.5 57.82,-27.5"/>
<polygon fill="#63b8ff" stroke="#63b8ff" points="57.77,-31 67.77,-27.5 57.77,-24 57.77,-31"/>
</g>
<!-- Node3 -->
<g id="node3" class="node">
<title>Node3</title>
<g id="a_node3"><a xlink:href="../../d5/df9/euclidean__algorithm__extended_8c.html#a2e7f9cce2f756c6a016ae7e2592f9c5d" target="_top" xlink:title="performs the extended Euclidean algorithm on integer inputs a and b">
<polygon fill="white" stroke="#666666" points="272,-42.5 169,-42.5 169,-12.5 272,-12.5 272,-42.5"/>
<text text-anchor="start" x="177" y="-30.5" font-family="Helvetica,sans-Serif" font-size="10.00">extended_euclidean</text>
<text text-anchor="middle" x="220.5" y="-19.5" font-family="Helvetica,sans-Serif" font-size="10.00">_algorithm</text>
</a>
</g>
</g>
<!-- Node2&#45;&gt;Node3 -->
<g id="edge2" class="edge">
<title>Node2&#45;&gt;Node3</title>
<path fill="none" stroke="#63b8ff" d="M133.49,-27.5C141.14,-27.5 149.57,-27.5 158.09,-27.5"/>
<polygon fill="#63b8ff" stroke="#63b8ff" points="157.86,-31 167.86,-27.5 157.86,-24 157.86,-31"/>
</g>
<!-- Node4 -->
<g id="node4" class="node">
<title>Node4</title>
<g id="a_node4"><a xlink:href="../../d5/df9/euclidean__algorithm__extended_8c.html#a2692f7190cf9d281ae23df491902d1c8" target="_top" xlink:title="calculates the value of x or y and push those into the small &#39;queues&#39;">
<polygon fill="white" stroke="#666666" points="403,-37 308,-37 308,-18 403,-18 403,-37"/>
<text text-anchor="middle" x="355.5" y="-25" font-family="Helvetica,sans-Serif" font-size="10.00">calculate_next_xy</text>
</a>
</g>
</g>
<!-- Node3&#45;&gt;Node4 -->
<g id="edge3" class="edge">
<title>Node3&#45;&gt;Node4</title>
<path fill="none" stroke="#63b8ff" d="M272.16,-27.5C280.33,-27.5 288.83,-27.5 297.14,-27.5"/>
<polygon fill="#63b8ff" stroke="#63b8ff" points="296.91,-31 306.91,-27.5 296.91,-24 296.91,-31"/>
</g>
<!-- Node5 -->
<g id="node5" class="node">
<title>Node5</title>
<g id="a_node5"><a xlink:href="../../df/dfa/vector_8c.html#af2f92e8cc55e764980bc0573ab5cd06f" target="_top" xlink:title="This function gets the next item from the Vector each time it&#39;s called.">
<polygon fill="white" stroke="#666666" points="483,-56 448,-56 448,-37 483,-37 483,-56"/>
<text text-anchor="middle" x="465.5" y="-44" font-family="Helvetica,sans-Serif" font-size="10.00">next</text>
</a>
</g>
</g>
<!-- Node4&#45;&gt;Node5 -->
<g id="edge4" class="edge">
<title>Node4&#45;&gt;Node5</title>
<path fill="none" stroke="#63b8ff" d="M403.24,-35.72C414.76,-37.75 426.72,-39.85 436.99,-41.66"/>
<polygon fill="#63b8ff" stroke="#63b8ff" points="436.29,-45.27 446.74,-43.55 437.5,-38.37 436.29,-45.27"/>
</g>
<!-- Node6 -->
<g id="node6" class="node">
<title>Node6</title>
<g id="a_node6"><a xlink:href="../../d5/df9/euclidean__algorithm__extended_8c.html#a14f0d2347018c28ef17be3185b373d8f" target="_top" xlink:title="gives queue&#45;like behavior to an array of two ints, pushing an element onto the end and pushing one of...">
<polygon fill="white" stroke="#666666" points="492,-19 439,-19 439,0 492,0 492,-19"/>
<text text-anchor="middle" x="465.5" y="-7" font-family="Helvetica,sans-Serif" font-size="10.00">xy_push</text>
</a>
</g>
</g>
<!-- Node4&#45;&gt;Node6 -->
<g id="edge5" class="edge">
<title>Node4&#45;&gt;Node6</title>
<path fill="none" stroke="#63b8ff" d="M403.24,-19.71C411.46,-18.34 419.9,-16.93 427.79,-15.62"/>
<polygon fill="#63b8ff" stroke="#63b8ff" points="428.21,-18.93 437.5,-13.83 427.06,-12.02 428.21,-18.93"/>
</g>
</g>
</svg>
