<?xml version="1.0" encoding="UTF-8" standalone="no"?>
<!DOCTYPE svg PUBLIC "-//W3C//DTD SVG 1.1//EN"
 "http://www.w3.org/Graphics/SVG/1.1/DTD/svg11.dtd">
<!-- Generated by graphviz version 8.0.5 (20230430.1635)
 -->
<!-- Title: single_test Pages: 1 -->
<svg width="429pt" height="64pt"
 viewBox="0.00 0.00 429.00 64.25" xmlns="http://www.w3.org/2000/svg" xmlns:xlink="http://www.w3.org/1999/xlink">
<g id="graph0" class="graph" transform="scale(1 1) rotate(0) translate(4 60.25)">
<title>single_test</title>
<!-- Node1 -->
<g id="Node000001" class="node">
<title>Node1</title>
<g id="a_Node000001"><a xlink:title="perform one single check on the result of the algorithm with provided parameters and expected output">
<polygon fill="#999999" stroke="#666666" points="63.25,-37.25 0,-37.25 0,-18 63.25,-18 63.25,-37.25"/>
<text text-anchor="middle" x="31.62" y="-23.75" font-family="Helvetica,sans-Serif" font-size="10.00">single_test</text>
</a>
</g>
</g>
<!-- Node2 -->
<g id="Node000002" class="node">
<title>Node2</title>
<g id="a_Node000002"><a xlink:href="../../d5/df9/euclidean__algorithm__extended_8c.html#a2e7f9cce2f756c6a016ae7e2592f9c5d" target="_top" xlink:title="performs the extended Euclidean algorithm on integer inputs a and b">
<polygon fill="white" stroke="#666666" points="201.5,-42.88 99.25,-42.88 99.25,-12.37 201.5,-12.37 201.5,-42.88"/>
<text text-anchor="start" x="107.25" y="-29.38" font-family="Helvetica,sans-Serif" font-size="10.00">extended_euclidean</text>
<text text-anchor="middle" x="150.38" y="-18.12" font-family="Helvetica,sans-Serif" font-size="10.00">_algorithm</text>
</a>
</g>
</g>
<!-- Node1&#45;&gt;Node2 -->
<g id="edge1_Node000001_Node000002" class="edge">
<title>Node1&#45;&gt;Node2</title>
<g id="a_edge1_Node000001_Node000002"><a xlink:title=" ">
<path fill="none" stroke="#63b8ff" d="M63.61,-27.62C71.21,-27.62 79.61,-27.62 88.09,-27.62"/>
<polygon fill="#63b8ff" stroke="#63b8ff" points="87.82,-31.13 97.82,-27.62 87.82,-24.13 87.82,-31.13"/>
</a>
</g>
</g>
<!-- Node3 -->
<g id="Node000003" class="node">
<title>Node3</title>
<g id="a_Node000003"><a xlink:href="../../d5/df9/euclidean__algorithm__extended_8c.html#a2692f7190cf9d281ae23df491902d1c8" target="_top" xlink:title="calculates the value of x or y and push those into the small &#39;queues&#39;">
<polygon fill="white" stroke="#666666" points="332.25,-37.25 237.5,-37.25 237.5,-18 332.25,-18 332.25,-37.25"/>
<text text-anchor="middle" x="284.88" y="-23.75" font-family="Helvetica,sans-Serif" font-size="10.00">calculate_next_xy</text>
</a>
</g>
</g>
<!-- Node2&#45;&gt;Node3 -->
<g id="edge2_Node000002_Node000003" class="edge">
<title>Node2&#45;&gt;Node3</title>
<g id="a_edge2_Node000002_Node000003"><a xlink:title=" ">
<path fill="none" stroke="#63b8ff" d="M201.85,-27.62C209.79,-27.62 218.06,-27.62 226.15,-27.62"/>
<polygon fill="#63b8ff" stroke="#63b8ff" points="226.03,-31.13 236.03,-27.62 226.03,-24.13 226.03,-31.13"/>
</a>
</g>
</g>
<!-- Node4 -->
<g id="Node000004" class="node">
<title>Node4</title>
<g id="a_Node000004"><a xlink:href="../../df/dfa/vector_8c.html#af2f92e8cc55e764980bc0573ab5cd06f" target="_top" xlink:title="This function gets the next item from the Vector each time it&#39;s called.">
<polygon fill="white" stroke="#666666" points="412,-56.25 377.25,-56.25 377.25,-37 412,-37 412,-56.25"/>
<text text-anchor="middle" x="394.62" y="-42.75" font-family="Helvetica,sans-Serif" font-size="10.00">next</text>
</a>
</g>
</g>
<!-- Node3&#45;&gt;Node4 -->
<g id="edge3_Node000003_Node000004" class="edge">
<title>Node3&#45;&gt;Node4</title>
<g id="a_edge3_Node000003_Node000004"><a xlink:title=" ">
<path fill="none" stroke="#63b8ff" d="M332.51,-35.85C344,-37.87 355.93,-39.98 366.17,-41.78"/>
<polygon fill="#63b8ff" stroke="#63b8ff" points="365.45,-45.39 375.9,-43.68 366.66,-38.49 365.45,-45.39"/>
</a>
</g>
</g>
<!-- Node5 -->
<g id="Node000005" class="node">
<title>Node5</title>
<g id="a_Node000005"><a xlink:href="../../d5/df9/euclidean__algorithm__extended_8c.html#a14f0d2347018c28ef17be3185b373d8f" target="_top" xlink:title="gives queue&#45;like behavior to an array of two ints, pushing an element onto the end and pushing one of...">
<polygon fill="white" stroke="#666666" points="421,-19.25 368.25,-19.25 368.25,0 421,0 421,-19.25"/>
<text text-anchor="middle" x="394.62" y="-5.75" font-family="Helvetica,sans-Serif" font-size="10.00">xy_push</text>
</a>
</g>
</g>
<!-- Node3&#45;&gt;Node5 -->
<g id="edge4_Node000003_Node000005" class="edge">
<title>Node3&#45;&gt;Node5</title>
<g id="a_edge4_Node000003_Node000005"><a xlink:title=" ">
<path fill="none" stroke="#63b8ff" d="M332.51,-19.83C340.78,-18.45 349.29,-17.03 357.22,-15.71"/>
<polygon fill="#63b8ff" stroke="#63b8ff" points="357.7,-19.01 366.98,-13.91 356.54,-12.1 357.7,-19.01"/>
</a>
</g>
</g>
</g>
</svg>
