<?xml version="1.0" encoding="UTF-8" standalone="no"?>
<!DOCTYPE svg PUBLIC "-//W3C//DTD SVG 1.1//EN"
 "http://www.w3.org/Graphics/SVG/1.1/DTD/svg11.dtd">
<!-- Generated by graphviz version 6.0.1 (20220911.1526)
 -->
<!-- Title: main Pages: 1 -->
<svg width="159pt" height="82pt"
 viewBox="0.00 0.00 159.00 82.00" xmlns="http://www.w3.org/2000/svg" xmlns:xlink="http://www.w3.org/1999/xlink">
<g id="graph0" class="graph" transform="scale(1 1) rotate(0) translate(4 78)">
<title>main</title>
<!-- Node1 -->
<g id="node1" class="node">
<title>Node1</title>
<g id="a_node1"><a xlink:title="Main function.">
<polygon fill="#999999" stroke="#666666" points="38,-46 0,-46 0,-27 38,-27 38,-46"/>
<text text-anchor="middle" x="19" y="-34" font-family="Helvetica,sans-Serif" font-size="10.00">main</text>
</a>
</g>
</g>
<!-- Node2 -->
<g id="node2" class="node">
<title>Node2</title>
<g id="a_node2"><a xlink:href="../../db/d80/problem__20_2sol1_8c.html#a0dd8af03e6cc8187e996db564ff90960" target="_top" xlink:title="Function that allocates memory to add another digit at the MSB.">
<polygon fill="white" stroke="#666666" points="140.5,-74 84.5,-74 84.5,-55 140.5,-55 140.5,-74"/>
<text text-anchor="middle" x="112.5" y="-62" font-family="Helvetica,sans-Serif" font-size="10.00">add_digit</text>
</a>
</g>
</g>
<!-- Node1&#45;&gt;Node2 -->
<g id="edge1" class="edge">
<title>Node1&#45;&gt;Node2</title>
<path fill="none" stroke="#63b8ff" d="M38.08,-42.03C48.52,-45.23 62.03,-49.36 74.62,-53.21"/>
<polygon fill="#63b8ff" stroke="#63b8ff" points="73.85,-56.64 84.44,-56.22 75.9,-49.95 73.85,-56.64"/>
</g>
<!-- Node3 -->
<g id="node3" class="node">
<title>Node3</title>
<g id="a_node3"><a xlink:href="../../db/d80/problem__20_2sol1_8c.html#a54a02c4b963fdb16f24959e0137763f1" target="_top" xlink:title="Function to remove digits preceeding the current digit.">
<polygon fill="white" stroke="#666666" points="151,-19 74,-19 74,0 151,0 151,-19"/>
<text text-anchor="middle" x="112.5" y="-7" font-family="Helvetica,sans-Serif" font-size="10.00">remove_digits</text>
</a>
</g>
</g>
<!-- Node1&#45;&gt;Node3 -->
<g id="edge2" class="edge">
<title>Node1&#45;&gt;Node3</title>
<path fill="none" stroke="#63b8ff" d="M38.08,-31.17C47.01,-28.53 58.2,-25.23 69.12,-22"/>
<polygon fill="#63b8ff" stroke="#63b8ff" points="70.41,-25.27 79.02,-19.09 68.43,-18.56 70.41,-25.27"/>
</g>
<!-- Node3&#45;&gt;Node3 -->
<g id="edge3" class="edge">
<title>Node3&#45;&gt;Node3</title>
<path fill="none" stroke="#63b8ff" d="M98.09,-19.08C91.08,-27.73 95.88,-37 112.5,-37 122.63,-37 128.37,-33.56 129.72,-28.91"/>
<polygon fill="#63b8ff" stroke="#63b8ff" points="133.02,-27.74 126.91,-19.08 126.29,-29.66 133.02,-27.74"/>
</g>
</g>
</svg>
