<?xml version="1.0" encoding="UTF-8" standalone="no"?>
<!DOCTYPE svg PUBLIC "-//W3C//DTD SVG 1.1//EN"
 "http://www.w3.org/Graphics/SVG/1.1/DTD/svg11.dtd">
<!-- Generated by graphviz version 3.0.0 (20220226.1711)
 -->
<!-- Title: main Pages: 1 -->
<svg width="159pt" height="84pt"
 viewBox="0.00 0.00 159.00 84.00" xmlns="http://www.w3.org/2000/svg" xmlns:xlink="http://www.w3.org/1999/xlink">
<g id="graph0" class="graph" transform="scale(1 1) rotate(0) translate(4 80)">
<title>main</title>
<polygon fill="white" stroke="transparent" points="-4,4 -4,-80 155,-80 155,4 -4,4"/>
<!-- Node1 -->
<g id="node1" class="node">
<title>Node1</title>
<g id="a_node1"><a xlink:title="Main function.">
<polygon fill="#bfbfbf" stroke="black" points="0,-28.5 0,-47.5 38,-47.5 38,-28.5 0,-28.5"/>
<text text-anchor="middle" x="19" y="-35.5" font-family="Helvetica,sans-Serif" font-size="10.00">main</text>
</a>
</g>
</g>
<!-- Node2 -->
<g id="node2" class="node">
<title>Node2</title>
<g id="a_node2"><a xlink:href="../../db/d80/problem__20_2sol1_8c.html#a0dd8af03e6cc8187e996db564ff90960" target="_top" xlink:title="Function that allocates memory to add another digit at the MSB.">
<polygon fill="white" stroke="black" points="84.5,-56.5 84.5,-75.5 140.5,-75.5 140.5,-56.5 84.5,-56.5"/>
<text text-anchor="middle" x="112.5" y="-63.5" font-family="Helvetica,sans-Serif" font-size="10.00">add_digit</text>
</a>
</g>
</g>
<!-- Node1&#45;&gt;Node2 -->
<g id="edge1" class="edge">
<title>Node1&#45;&gt;Node2</title>
<path fill="none" stroke="midnightblue" d="M38.08,-43.53C48.52,-46.73 62.03,-50.86 74.62,-54.71"/>
<polygon fill="midnightblue" stroke="midnightblue" points="73.85,-58.14 84.44,-57.72 75.9,-51.45 73.85,-58.14"/>
</g>
<!-- Node3 -->
<g id="node3" class="node">
<title>Node3</title>
<g id="a_node3"><a xlink:href="../../db/d80/problem__20_2sol1_8c.html#a54a02c4b963fdb16f24959e0137763f1" target="_top" xlink:title="Function to remove digits preceeding the current digit.">
<polygon fill="white" stroke="black" points="74,-0.5 74,-19.5 151,-19.5 151,-0.5 74,-0.5"/>
<text text-anchor="middle" x="112.5" y="-7.5" font-family="Helvetica,sans-Serif" font-size="10.00">remove_digits</text>
</a>
</g>
</g>
<!-- Node1&#45;&gt;Node3 -->
<g id="edge2" class="edge">
<title>Node1&#45;&gt;Node3</title>
<path fill="none" stroke="midnightblue" d="M38.08,-32.47C47.34,-29.63 59.03,-26.06 70.34,-22.59"/>
<polygon fill="midnightblue" stroke="midnightblue" points="71.58,-25.88 80.12,-19.6 69.53,-19.18 71.58,-25.88"/>
</g>
<!-- Node3&#45;&gt;Node3 -->
<g id="edge3" class="edge">
<title>Node3&#45;&gt;Node3</title>
<path fill="none" stroke="midnightblue" d="M98.32,-19.76C91.42,-28.57 96.15,-38 112.5,-38 122.72,-38 128.4,-34.31 129.54,-29.4"/>
<polygon fill="midnightblue" stroke="midnightblue" points="132.88,-28.35 126.68,-19.76 126.16,-30.34 132.88,-28.35"/>
</g>
</g>
</svg>
