<?xml version="1.0" encoding="UTF-8" standalone="no"?>
<!DOCTYPE svg PUBLIC "-//W3C//DTD SVG 1.1//EN"
 "http://www.w3.org/Graphics/SVG/1.1/DTD/svg11.dtd">
<!-- Generated by graphviz version 2.49.3 (20211023.0002)
 -->
<!-- Title: main Pages: 1 -->
<svg width="147pt" height="66pt"
 viewBox="0.00 0.00 147.00 66.00" xmlns="http://www.w3.org/2000/svg" xmlns:xlink="http://www.w3.org/1999/xlink">
<g id="graph0" class="graph" transform="scale(1 1) rotate(0) translate(4 62)">
<title>main</title>
<polygon fill="white" stroke="transparent" points="-4,4 -4,-62 143,-62 143,4 -4,4"/>
<!-- Node1 -->
<g id="node1" class="node">
<title>Node1</title>
<g id="a_node1"><a xlink:title="Main function.">
<polygon fill="#bfbfbf" stroke="black" points="0,-19.5 0,-38.5 38,-38.5 38,-19.5 0,-19.5"/>
<text text-anchor="middle" x="19" y="-26.5" font-family="Helvetica,sans-Serif" font-size="10.00">main</text>
</a>
</g>
</g>
<!-- Node2 -->
<g id="node2" class="node">
<title>Node2</title>
<g id="a_node2"><a xlink:href="../../d5/d4c/group__sorting.html#ga5bc16eaf3ffe6a6ab66780dd445904c0" target="_top" xlink:title="Shell sort algorithm.">
<polygon fill="white" stroke="black" points="77,-38.5 77,-57.5 136,-57.5 136,-38.5 77,-38.5"/>
<text text-anchor="middle" x="106.5" y="-45.5" font-family="Helvetica,sans-Serif" font-size="10.00">shell_sort</text>
</a>
</g>
</g>
<!-- Node1&#45;&gt;Node2 -->
<g id="edge1" class="edge">
<title>Node1&#45;&gt;Node2</title>
<path fill="none" stroke="midnightblue" d="M38.13,-33.03C46.59,-34.91 56.99,-37.22 67.07,-39.46"/>
<polygon fill="midnightblue" stroke="midnightblue" points="66.44,-42.91 76.96,-41.66 67.96,-36.07 66.44,-42.91"/>
</g>
<!-- Node3 -->
<g id="node3" class="node">
<title>Node3</title>
<g id="a_node3"><a xlink:href="../../d5/d4c/group__sorting.html#gaeccaf61ff47279384d1dba8d869d5c2f" target="_top" xlink:title="Helper function to print array values.">
<polygon fill="white" stroke="black" points="74,-0.5 74,-19.5 139,-19.5 139,-0.5 74,-0.5"/>
<text text-anchor="middle" x="106.5" y="-7.5" font-family="Helvetica,sans-Serif" font-size="10.00">show_data</text>
</a>
</g>
</g>
<!-- Node1&#45;&gt;Node3 -->
<g id="edge2" class="edge">
<title>Node1&#45;&gt;Node3</title>
<path fill="none" stroke="midnightblue" d="M38.13,-24.97C45.76,-23.27 54.98,-21.23 64.12,-19.2"/>
<polygon fill="midnightblue" stroke="midnightblue" points="64.92,-22.6 73.92,-17.02 63.4,-15.77 64.92,-22.6"/>
</g>
</g>
</svg>
