<?xml version="1.0" encoding="UTF-8" standalone="no"?>
<!DOCTYPE svg PUBLIC "-//W3C//DTD SVG 1.1//EN"
 "http://www.w3.org/Graphics/SVG/1.1/DTD/svg11.dtd">
<!-- Generated by graphviz version 8.0.2 (20230410.1723)
 -->
<!-- Title: convert Pages: 1 -->
<svg width="146pt" height="193pt"
 viewBox="0.00 0.00 146.00 193.00" xmlns="http://www.w3.org/2000/svg" xmlns:xlink="http://www.w3.org/1999/xlink">
<g id="graph0" class="graph" transform="scale(1 1) rotate(0) translate(4 189)">
<title>convert</title>
<!-- Node1 -->
<g id="node1" class="node">
<title>Node1</title>
<g id="a_node1"><a xlink:title="Function to convert infix expression to postfix expression.">
<polygon fill="#999999" stroke="#666666" points="49,-111 0,-111 0,-92 49,-92 49,-111"/>
<text text-anchor="middle" x="24.5" y="-99" font-family="Helvetica,sans-Serif" font-size="10.00">convert</text>
</a>
</g>
</g>
<!-- Node2 -->
<g id="node2" class="node">
<title>Node2</title>
<g id="a_node2"><a xlink:href="../../da/d96/infix__to__postfix2_8c.html#a653c98c68c558505b75b04c44b7c838e" target="_top" xlink:title="Function to check whether the stack is empty or not.">
<polygon fill="white" stroke="#666666" points="138,-185 85,-185 85,-166 138,-166 138,-185"/>
<text text-anchor="middle" x="111.5" y="-173" font-family="Helvetica,sans-Serif" font-size="10.00">isEmpty</text>
</a>
</g>
</g>
<!-- Node1&#45;&gt;Node2 -->
<g id="edge1" class="edge">
<title>Node1&#45;&gt;Node2</title>
<path fill="none" stroke="#63b8ff" d="M35.22,-111.46C46.69,-123.02 66.54,-142.42 85,-157.5 85.63,-158.01 86.27,-158.53 86.93,-159.05"/>
<polygon fill="#63b8ff" stroke="#63b8ff" points="84.56,-162.4 94.68,-165.56 88.75,-156.78 84.56,-162.4"/>
</g>
<!-- Node3 -->
<g id="node3" class="node">
<title>Node3</title>
<g id="a_node3"><a xlink:href="../../da/d96/infix__to__postfix2_8c.html#a312e7f6c761a199c1369fbe651e084f0" target="_top" xlink:title="Function to pop from the stack.">
<polygon fill="white" stroke="#666666" points="127.5,-148 95.5,-148 95.5,-129 127.5,-129 127.5,-148"/>
<text text-anchor="middle" x="111.5" y="-136" font-family="Helvetica,sans-Serif" font-size="10.00">pop</text>
</a>
</g>
</g>
<!-- Node1&#45;&gt;Node3 -->
<g id="edge2" class="edge">
<title>Node1&#45;&gt;Node3</title>
<path fill="none" stroke="#63b8ff" d="M48.28,-111.42C59.65,-116.36 73.44,-122.37 85.14,-127.46"/>
<polygon fill="#63b8ff" stroke="#63b8ff" points="83.61,-131.05 94.18,-131.83 86.41,-124.63 83.61,-131.05"/>
</g>
<!-- Node4 -->
<g id="node4" class="node">
<title>Node4</title>
<g id="a_node4"><a xlink:href="../../da/d96/infix__to__postfix2_8c.html#a02d1bf0ff997efc46ba6fd0ec7952952" target="_top" xlink:title="Function to check priority of operators.">
<polygon fill="white" stroke="#666666" points="134.5,-111 88.5,-111 88.5,-92 134.5,-92 134.5,-111"/>
<text text-anchor="middle" x="111.5" y="-99" font-family="Helvetica,sans-Serif" font-size="10.00">priority</text>
</a>
</g>
</g>
<!-- Node1&#45;&gt;Node4 -->
<g id="edge3" class="edge">
<title>Node1&#45;&gt;Node4</title>
<path fill="none" stroke="#63b8ff" d="M49.18,-101.5C57.84,-101.5 67.81,-101.5 77.15,-101.5"/>
<polygon fill="#63b8ff" stroke="#63b8ff" points="77.12,-105 87.12,-101.5 77.12,-98 77.12,-105"/>
</g>
<!-- Node5 -->
<g id="node5" class="node">
<title>Node5</title>
<g id="a_node5"><a xlink:href="../../db/d0c/infix__to__postfix_8c.html#a613462735d30cae1b85b606ecab30554" target="_top" xlink:title="push function">
<polygon fill="white" stroke="#666666" points="130.5,-56 92.5,-56 92.5,-37 130.5,-37 130.5,-56"/>
<text text-anchor="middle" x="111.5" y="-44" font-family="Helvetica,sans-Serif" font-size="10.00">push</text>
</a>
</g>
</g>
<!-- Node1&#45;&gt;Node5 -->
<g id="edge4" class="edge">
<title>Node1&#45;&gt;Node5</title>
<path fill="none" stroke="#63b8ff" d="M40.7,-91.67C53.31,-83.51 71.49,-71.74 86.13,-62.27"/>
<polygon fill="#63b8ff" stroke="#63b8ff" points="87.65,-64.8 94.15,-56.43 83.85,-58.93 87.65,-64.8"/>
</g>
<!-- Node6 -->
<g id="node6" class="node">
<title>Node6</title>
<g id="a_node6"><a xlink:href="../../da/d96/infix__to__postfix2_8c.html#a2d1c13296ce9c42bb5dd7d834e2802bf" target="_top" xlink:title="Function to get top of the stack.">
<polygon fill="white" stroke="#666666" points="127.5,-19 95.5,-19 95.5,0 127.5,0 127.5,-19"/>
<text text-anchor="middle" x="111.5" y="-7" font-family="Helvetica,sans-Serif" font-size="10.00">Top</text>
</a>
</g>
</g>
<!-- Node1&#45;&gt;Node6 -->
<g id="edge6" class="edge">
<title>Node1&#45;&gt;Node6</title>
<path fill="none" stroke="#63b8ff" d="M32.15,-91.89C42.5,-77.29 63.51,-49.08 85,-28.5 85.84,-27.7 86.71,-26.9 87.6,-26.11"/>
<polygon fill="#63b8ff" stroke="#63b8ff" points="89.38,-28.36 94.97,-19.36 84.99,-22.92 89.38,-28.36"/>
</g>
<!-- Node5&#45;&gt;Node5 -->
<g id="edge5" class="edge">
<title>Node5&#45;&gt;Node5</title>
<path fill="none" stroke="#63b8ff" d="M97.88,-56.37C91.67,-64.94 96.21,-74 111.5,-74 120.1,-74 125.3,-71.13 127.1,-67.1"/>
<polygon fill="#63b8ff" stroke="#63b8ff" points="130.38,-66.57 125.12,-57.37 123.49,-67.84 130.38,-66.57"/>
</g>
</g>
</svg>
