<?xml version="1.0" encoding="UTF-8" standalone="no"?>
<!DOCTYPE svg PUBLIC "-//W3C//DTD SVG 1.1//EN"
 "http://www.w3.org/Graphics/SVG/1.1/DTD/svg11.dtd">
<!-- Generated by graphviz version 9.0.0 (20230911.1827)
 -->
<!-- Title: test Pages: 1 -->
<svg width="213pt" height="193pt"
 viewBox="0.00 0.00 212.75 193.25" xmlns="http://www.w3.org/2000/svg" xmlns:xlink="http://www.w3.org/1999/xlink">

<svg id="main" version="1.1" xmlns="http://www.w3.org/2000/svg" xmlns:xlink="http://www.w3.org/1999/xlink" xml:space="preserve" onload="init(evt)">
<style type="text/css"><![CDATA[
.node, .edge {opacity: 0.7;}
.node.selected, .edge.selected {opacity: 1;}
.edge:hover path { stroke: red; }
.edge:hover polygon { stroke: red; fill: red; }
]]></style>
<script type="application/ecmascript" xlink:href="../../svg.min.js"/>
<svg id="graph" class="graph">
<g id="graph0" class="graph" transform="scale(1 1) rotate(0) translate(4 189.25)">
<title>test</title>
<!-- Node1 -->
<g id="Node000001" class="node">
<title>Node1</title>
<g id="a_Node000001"><a xlink:title="Self&#45;test implementations.">
<polygon fill="#999999" stroke="#666666" points="32.5,-111.25 0,-111.25 0,-92 32.5,-92 32.5,-111.25"/>
<text text-anchor="middle" x="16.25" y="-97.75" font-family="Helvetica,sans-Serif" font-size="10.00">test</text>
</a>
</g>
</g>
<!-- Node2 -->
<g id="Node000002" class="node">
<title>Node2</title>
<g id="a_Node000002"><a xlink:href="../../da/d96/infix__to__postfix2_8c.html#ae363a3863a8bfbf40e7a95c2b9dbe71b" target="_top" xlink:title="Function to convert infix expression to postfix expression.">
<polygon fill="white" stroke="#666666" points="116.75,-111.25 68.5,-111.25 68.5,-92 116.75,-92 116.75,-111.25"/>
<text text-anchor="middle" x="92.62" y="-97.75" font-family="Helvetica,sans-Serif" font-size="10.00">convert</text>
</a>
</g>
</g>
<!-- Node1&#45;&gt;Node2 -->
<g id="edge1_Node000001_Node000002" class="edge">
<title>Node1&#45;&gt;Node2</title>
<g id="a_edge1_Node000001_Node000002"><a xlink:title=" ">
<path fill="none" stroke="#63b8ff" d="M32.66,-101.62C39.68,-101.62 48.3,-101.62 56.76,-101.62"/>
<polygon fill="#63b8ff" stroke="#63b8ff" points="56.51,-105.13 66.51,-101.63 56.51,-98.13 56.51,-105.13"/>
</a>
</g>
</g>
<!-- Node3 -->
<g id="Node000003" class="node">
<title>Node3</title>
<g id="a_Node000003"><a xlink:href="../../da/d96/infix__to__postfix2_8c.html#a653c98c68c558505b75b04c44b7c838e" target="_top" xlink:title="Function to check whether the stack is empty or not.">
<polygon fill="white" stroke="#666666" points="204.75,-185.25 152.75,-185.25 152.75,-166 204.75,-166 204.75,-185.25"/>
<text text-anchor="middle" x="178.75" y="-171.75" font-family="Helvetica,sans-Serif" font-size="10.00">isEmpty</text>
</a>
</g>
</g>
<!-- Node2&#45;&gt;Node3 -->
<g id="edge2_Node000002_Node000003" class="edge">
<title>Node2&#45;&gt;Node3</title>
<g id="a_edge2_Node000002_Node000003"><a xlink:title=" ">
<path fill="none" stroke="#63b8ff" d="M103.29,-111.56C114.7,-123.1 134.45,-142.49 152.75,-157.62 153.27,-158.05 153.79,-158.48 154.32,-158.91"/>
<polygon fill="#63b8ff" stroke="#63b8ff" points="151.94,-161.49 162.02,-164.75 156.17,-155.92 151.94,-161.49"/>
</a>
</g>
</g>
<!-- Node4 -->
<g id="Node000004" class="node">
<title>Node4</title>
<g id="a_Node000004"><a xlink:href="../../da/d96/infix__to__postfix2_8c.html#a312e7f6c761a199c1369fbe651e084f0" target="_top" xlink:title="Function to pop from the stack.">
<polygon fill="white" stroke="#666666" points="194.62,-148.25 162.88,-148.25 162.88,-129 194.62,-129 194.62,-148.25"/>
<text text-anchor="middle" x="178.75" y="-134.75" font-family="Helvetica,sans-Serif" font-size="10.00">pop</text>
</a>
</g>
</g>
<!-- Node2&#45;&gt;Node4 -->
<g id="edge3_Node000002_Node000004" class="edge">
<title>Node2&#45;&gt;Node4</title>
<g id="a_edge3_Node000002_Node000004"><a xlink:title=" ">
<path fill="none" stroke="#63b8ff" d="M116.61,-111.74C127.56,-116.55 140.69,-122.33 151.97,-127.29"/>
<polygon fill="#63b8ff" stroke="#63b8ff" points="150.54,-130.48 161.11,-131.3 153.36,-124.07 150.54,-130.48"/>
</a>
</g>
</g>
<!-- Node5 -->
<g id="Node000005" class="node">
<title>Node5</title>
<g id="a_Node000005"><a xlink:href="../../da/d96/infix__to__postfix2_8c.html#a02d1bf0ff997efc46ba6fd0ec7952952" target="_top" xlink:title="Function to check priority of operators.">
<polygon fill="white" stroke="#666666" points="201.38,-111.25 156.12,-111.25 156.12,-92 201.38,-92 201.38,-111.25"/>
<text text-anchor="middle" x="178.75" y="-97.75" font-family="Helvetica,sans-Serif" font-size="10.00">priority</text>
</a>
</g>
</g>
<!-- Node2&#45;&gt;Node5 -->
<g id="edge4_Node000002_Node000005" class="edge">
<title>Node2&#45;&gt;Node5</title>
<g id="a_edge4_Node000002_Node000005"><a xlink:title=" ">
<path fill="none" stroke="#63b8ff" d="M117.06,-101.62C125.6,-101.62 135.44,-101.62 144.66,-101.62"/>
<polygon fill="#63b8ff" stroke="#63b8ff" points="144.37,-105.13 154.37,-101.63 144.37,-98.13 144.37,-105.13"/>
</a>
</g>
</g>
<!-- Node6 -->
<g id="Node000006" class="node">
<title>Node6</title>
<g id="a_Node000006"><a xlink:href="../../db/d0c/infix__to__postfix_8c.html#a613462735d30cae1b85b606ecab30554" target="_top" xlink:title="push function">
<polygon fill="white" stroke="#666666" points="197.25,-56.25 160.25,-56.25 160.25,-37 197.25,-37 197.25,-56.25"/>
<text text-anchor="middle" x="178.75" y="-42.75" font-family="Helvetica,sans-Serif" font-size="10.00">push</text>
</a>
</g>
</g>
<!-- Node2&#45;&gt;Node6 -->
<g id="edge5_Node000002_Node000006" class="edge">
<title>Node2&#45;&gt;Node6</title>
<g id="a_edge5_Node000002_Node000006"><a xlink:title=" ">
<path fill="none" stroke="#63b8ff" d="M109.05,-91.54C121.39,-83.47 138.91,-72.02 153.17,-62.7"/>
<polygon fill="#63b8ff" stroke="#63b8ff" points="154.7,-65.88 161.15,-57.48 150.87,-60.02 154.7,-65.88"/>
</a>
</g>
</g>
<!-- Node7 -->
<g id="Node000007" class="node">
<title>Node7</title>
<g id="a_Node000007"><a xlink:href="../../da/d96/infix__to__postfix2_8c.html#a2d1c13296ce9c42bb5dd7d834e2802bf" target="_top" xlink:title="Function to get top of the stack.">
<polygon fill="white" stroke="#666666" points="194.62,-19.25 162.88,-19.25 162.88,0 194.62,0 194.62,-19.25"/>
<text text-anchor="middle" x="178.75" y="-5.75" font-family="Helvetica,sans-Serif" font-size="10.00">Top</text>
</a>
</g>
</g>
<!-- Node2&#45;&gt;Node7 -->
<g id="edge7_Node000002_Node000007" class="edge">
<title>Node2&#45;&gt;Node7</title>
<g id="a_edge7_Node000002_Node000007"><a xlink:title=" ">
<path fill="none" stroke="#63b8ff" d="M100.15,-91.82C110.33,-76.95 131.06,-48.25 152.75,-27.62 153.03,-27.36 153.31,-27.1 153.59,-26.84"/>
<polygon fill="#63b8ff" stroke="#63b8ff" points="155.7,-29.64 161.25,-20.61 151.28,-24.21 155.7,-29.64"/>
</a>
</g>
</g>
<!-- Node6&#45;&gt;Node6 -->
<g id="edge6_Node000006_Node000006" class="edge">
<title>Node6&#45;&gt;Node6</title>
<g id="a_edge6_Node000006_Node000006"><a xlink:title=" ">
<path fill="none" stroke="#63b8ff" d="M165.27,-56.54C159.12,-65.15 163.61,-74.25 178.75,-74.25 187.03,-74.25 192.12,-71.53 194.04,-67.65"/>
<polygon fill="#63b8ff" stroke="#63b8ff" points="197.53,-67.34 192.48,-58.03 190.62,-68.46 197.53,-67.34"/>
</a>
</g>
</g>
</g>
</svg>
</svg>

<style type='text/css'>
<![CDATA[
[data-mouse-over-selected='false'] { opacity: 0.7; }
[data-mouse-over-selected='true']  { opacity: 1.0; }
]]>
</style>
<script type="application/ecmascript"><![CDATA[
document.addEventListener('DOMContentLoaded', (event) => {
  highlightEdges();
  highlightAdjacentNodes();
});
]]></script>
</svg>
