<?xml version="1.0" encoding="UTF-8" standalone="no"?>
<!DOCTYPE svg PUBLIC "-//W3C//DTD SVG 1.1//EN"
 "http://www.w3.org/Graphics/SVG/1.1/DTD/svg11.dtd">
<!-- Generated by graphviz version 7.0.6 (20230106.0513)
 -->
<!-- Title: test Pages: 1 -->
<svg width="215pt" height="193pt"
 viewBox="0.00 0.00 215.00 193.00" xmlns="http://www.w3.org/2000/svg" xmlns:xlink="http://www.w3.org/1999/xlink">
<g id="graph0" class="graph" transform="scale(1 1) rotate(0) translate(4 189)">
<title>test</title>
<!-- Node1 -->
<g id="node1" class="node">
<title>Node1</title>
<g id="a_node1"><a xlink:title="Self&#45;test implementations.">
<polygon fill="#999999" stroke="#666666" points="33,-111 0,-111 0,-92 33,-92 33,-111"/>
<text text-anchor="middle" x="16.5" y="-99" font-family="Helvetica,sans-Serif" font-size="10.00">test</text>
</a>
</g>
</g>
<!-- Node2 -->
<g id="node2" class="node">
<title>Node2</title>
<g id="a_node2"><a xlink:href="../../da/d96/infix__to__postfix2_8c.html#ae363a3863a8bfbf40e7a95c2b9dbe71b" target="_top" xlink:title="Function to convert infix expression to postfix expression.">
<polygon fill="white" stroke="#666666" points="118,-111 69,-111 69,-92 118,-92 118,-111"/>
<text text-anchor="middle" x="93.5" y="-99" font-family="Helvetica,sans-Serif" font-size="10.00">convert</text>
</a>
</g>
</g>
<!-- Node1&#45;&gt;Node2 -->
<g id="edge1" class="edge">
<title>Node1&#45;&gt;Node2</title>
<path fill="none" stroke="#63b8ff" d="M33.41,-101.5C40.36,-101.5 48.82,-101.5 57.14,-101.5"/>
<polygon fill="#63b8ff" stroke="#63b8ff" points="57.12,-105 67.12,-101.5 57.12,-98 57.12,-105"/>
</g>
<!-- Node3 -->
<g id="node3" class="node">
<title>Node3</title>
<g id="a_node3"><a xlink:href="../../da/d96/infix__to__postfix2_8c.html#a653c98c68c558505b75b04c44b7c838e" target="_top" xlink:title="Function to check whether the stack is empty or not.">
<polygon fill="white" stroke="#666666" points="207,-185 154,-185 154,-166 207,-166 207,-185"/>
<text text-anchor="middle" x="180.5" y="-173" font-family="Helvetica,sans-Serif" font-size="10.00">isEmpty</text>
</a>
</g>
</g>
<!-- Node2&#45;&gt;Node3 -->
<g id="edge2" class="edge">
<title>Node2&#45;&gt;Node3</title>
<path fill="none" stroke="#63b8ff" d="M104.22,-111.46C115.69,-123.02 135.54,-142.42 154,-157.5 154.52,-157.93 155.06,-158.36 155.6,-158.79"/>
<polygon fill="#63b8ff" stroke="#63b8ff" points="153.36,-161.48 163.46,-164.66 157.54,-155.87 153.36,-161.48"/>
</g>
<!-- Node4 -->
<g id="node4" class="node">
<title>Node4</title>
<g id="a_node4"><a xlink:href="../../da/d96/infix__to__postfix2_8c.html#a312e7f6c761a199c1369fbe651e084f0" target="_top" xlink:title="Function to pop from the stack.">
<polygon fill="white" stroke="#666666" points="196.5,-148 164.5,-148 164.5,-129 196.5,-129 196.5,-148"/>
<text text-anchor="middle" x="180.5" y="-136" font-family="Helvetica,sans-Serif" font-size="10.00">pop</text>
</a>
</g>
</g>
<!-- Node2&#45;&gt;Node4 -->
<g id="edge3" class="edge">
<title>Node2&#45;&gt;Node4</title>
<path fill="none" stroke="#63b8ff" d="M117.28,-111.42C128.53,-116.31 142.16,-122.25 153.79,-127.31"/>
<polygon fill="#63b8ff" stroke="#63b8ff" points="152.23,-130.44 162.79,-131.23 155.02,-124.03 152.23,-130.44"/>
</g>
<!-- Node5 -->
<g id="node5" class="node">
<title>Node5</title>
<g id="a_node5"><a xlink:href="../../da/d96/infix__to__postfix2_8c.html#a02d1bf0ff997efc46ba6fd0ec7952952" target="_top" xlink:title="Function to check priority of operators.">
<polygon fill="white" stroke="#666666" points="203.5,-111 157.5,-111 157.5,-92 203.5,-92 203.5,-111"/>
<text text-anchor="middle" x="180.5" y="-99" font-family="Helvetica,sans-Serif" font-size="10.00">priority</text>
</a>
</g>
</g>
<!-- Node2&#45;&gt;Node5 -->
<g id="edge4" class="edge">
<title>Node2&#45;&gt;Node5</title>
<path fill="none" stroke="#63b8ff" d="M118.18,-101.5C126.74,-101.5 136.59,-101.5 145.85,-101.5"/>
<polygon fill="#63b8ff" stroke="#63b8ff" points="145.61,-105 155.61,-101.5 145.61,-98 145.61,-105"/>
</g>
<!-- Node6 -->
<g id="node6" class="node">
<title>Node6</title>
<g id="a_node6"><a xlink:href="../../db/d0c/infix__to__postfix_8c.html#a613462735d30cae1b85b606ecab30554" target="_top" xlink:title="push function">
<polygon fill="white" stroke="#666666" points="199.5,-56 161.5,-56 161.5,-37 199.5,-37 199.5,-56"/>
<text text-anchor="middle" x="180.5" y="-44" font-family="Helvetica,sans-Serif" font-size="10.00">push</text>
</a>
</g>
</g>
<!-- Node2&#45;&gt;Node6 -->
<g id="edge5" class="edge">
<title>Node2&#45;&gt;Node6</title>
<path fill="none" stroke="#63b8ff" d="M109.7,-91.67C122.19,-83.58 140.14,-71.97 154.71,-62.54"/>
<polygon fill="#63b8ff" stroke="#63b8ff" points="156.38,-65.63 162.88,-57.26 152.58,-59.75 156.38,-65.63"/>
</g>
<!-- Node7 -->
<g id="node7" class="node">
<title>Node7</title>
<g id="a_node7"><a xlink:href="../../da/d96/infix__to__postfix2_8c.html#a2d1c13296ce9c42bb5dd7d834e2802bf" target="_top" xlink:title="Function to get top of the stack.">
<polygon fill="white" stroke="#666666" points="196.5,-19 164.5,-19 164.5,0 196.5,0 196.5,-19"/>
<text text-anchor="middle" x="180.5" y="-7" font-family="Helvetica,sans-Serif" font-size="10.00">Top</text>
</a>
</g>
</g>
<!-- Node2&#45;&gt;Node7 -->
<g id="edge7" class="edge">
<title>Node2&#45;&gt;Node7</title>
<path fill="none" stroke="#63b8ff" d="M101.15,-91.89C111.5,-77.29 132.51,-49.08 154,-28.5 154.73,-27.8 155.49,-27.1 156.27,-26.41"/>
<polygon fill="#63b8ff" stroke="#63b8ff" points="158.22,-29.33 163.79,-20.31 153.82,-23.89 158.22,-29.33"/>
</g>
<!-- Node6&#45;&gt;Node6 -->
<g id="edge6" class="edge">
<title>Node6&#45;&gt;Node6</title>
<path fill="none" stroke="#63b8ff" d="M166.88,-56.37C160.67,-64.94 165.21,-74 180.5,-74 188.62,-74 193.71,-71.44 195.77,-67.76"/>
<polygon fill="#63b8ff" stroke="#63b8ff" points="199.23,-67.26 194.34,-57.87 192.31,-68.26 199.23,-67.26"/>
</g>
</g>
</svg>
