<?xml version="1.0" encoding="UTF-8" standalone="no"?>
<!DOCTYPE svg PUBLIC "-//W3C//DTD SVG 1.1//EN"
 "http://www.w3.org/Graphics/SVG/1.1/DTD/svg11.dtd">
<!-- Generated by graphviz version 8.0.4 (20230421.1958)
 -->
<!-- Title: test Pages: 1 -->
<svg width="213pt" height="193pt"
 viewBox="0.00 0.00 212.75 193.25" xmlns="http://www.w3.org/2000/svg" xmlns:xlink="http://www.w3.org/1999/xlink">
<g id="graph0" class="graph" transform="scale(1 1) rotate(0) translate(4 189.25)">
<title>test</title>
<!-- Node1 -->
<g id="node1" class="node">
<title>Node1</title>
<g id="a_node1"><a xlink:title="Self&#45;test implementations.">
<polygon fill="#999999" stroke="#666666" points="32.5,-111.25 0,-111.25 0,-92 32.5,-92 32.5,-111.25"/>
<text text-anchor="middle" x="16.25" y="-97.75" font-family="Helvetica,sans-Serif" font-size="10.00">test</text>
</a>
</g>
</g>
<!-- Node2 -->
<g id="node2" class="node">
<title>Node2</title>
<g id="a_node2"><a xlink:href="../../da/d96/infix__to__postfix2_8c.html#ae363a3863a8bfbf40e7a95c2b9dbe71b" target="_top" xlink:title="Function to convert infix expression to postfix expression.">
<polygon fill="white" stroke="#666666" points="116.75,-111.25 68.5,-111.25 68.5,-92 116.75,-92 116.75,-111.25"/>
<text text-anchor="middle" x="92.62" y="-97.75" font-family="Helvetica,sans-Serif" font-size="10.00">convert</text>
</a>
</g>
</g>
<!-- Node1&#45;&gt;Node2 -->
<g id="edge1" class="edge">
<title>Node1&#45;&gt;Node2</title>
<path fill="none" stroke="#63b8ff" d="M32.66,-101.62C39.76,-101.62 48.5,-101.62 57.05,-101.62"/>
<polygon fill="#63b8ff" stroke="#63b8ff" points="57.03,-105.13 67.03,-101.62 57.03,-98.13 57.03,-105.13"/>
</g>
<!-- Node3 -->
<g id="node3" class="node">
<title>Node3</title>
<g id="a_node3"><a xlink:href="../../da/d96/infix__to__postfix2_8c.html#a653c98c68c558505b75b04c44b7c838e" target="_top" xlink:title="Function to check whether the stack is empty or not.">
<polygon fill="white" stroke="#666666" points="204.75,-185.25 152.75,-185.25 152.75,-166 204.75,-166 204.75,-185.25"/>
<text text-anchor="middle" x="178.75" y="-171.75" font-family="Helvetica,sans-Serif" font-size="10.00">isEmpty</text>
</a>
</g>
</g>
<!-- Node2&#45;&gt;Node3 -->
<g id="edge2" class="edge">
<title>Node2&#45;&gt;Node3</title>
<path fill="none" stroke="#63b8ff" d="M103.29,-111.56C114.7,-123.1 134.45,-142.49 152.75,-157.62 153.37,-158.14 154,-158.65 154.64,-159.16"/>
<polygon fill="#63b8ff" stroke="#63b8ff" points="152.14,-162.42 162.22,-165.67 156.37,-156.84 152.14,-162.42"/>
</g>
<!-- Node4 -->
<g id="node4" class="node">
<title>Node4</title>
<g id="a_node4"><a xlink:href="../../da/d96/infix__to__postfix2_8c.html#a312e7f6c761a199c1369fbe651e084f0" target="_top" xlink:title="Function to pop from the stack.">
<polygon fill="white" stroke="#666666" points="194.62,-148.25 162.88,-148.25 162.88,-129 194.62,-129 194.62,-148.25"/>
<text text-anchor="middle" x="178.75" y="-134.75" font-family="Helvetica,sans-Serif" font-size="10.00">pop</text>
</a>
</g>
</g>
<!-- Node2&#45;&gt;Node4 -->
<g id="edge3" class="edge">
<title>Node2&#45;&gt;Node4</title>
<path fill="none" stroke="#63b8ff" d="M116.61,-111.74C127.79,-116.65 141.24,-122.57 152.68,-127.6"/>
<polygon fill="#63b8ff" stroke="#63b8ff" points="150.93,-131.09 161.49,-131.91 153.75,-124.68 150.93,-131.09"/>
</g>
<!-- Node5 -->
<g id="node5" class="node">
<title>Node5</title>
<g id="a_node5"><a xlink:href="../../da/d96/infix__to__postfix2_8c.html#a02d1bf0ff997efc46ba6fd0ec7952952" target="_top" xlink:title="Function to check priority of operators.">
<polygon fill="white" stroke="#666666" points="201.38,-111.25 156.12,-111.25 156.12,-92 201.38,-92 201.38,-111.25"/>
<text text-anchor="middle" x="178.75" y="-97.75" font-family="Helvetica,sans-Serif" font-size="10.00">priority</text>
</a>
</g>
</g>
<!-- Node2&#45;&gt;Node5 -->
<g id="edge4" class="edge">
<title>Node2&#45;&gt;Node5</title>
<path fill="none" stroke="#63b8ff" d="M117.06,-101.62C125.7,-101.62 135.65,-101.62 144.97,-101.62"/>
<polygon fill="#63b8ff" stroke="#63b8ff" points="144.89,-105.13 154.89,-101.62 144.89,-98.13 144.89,-105.13"/>
</g>
<!-- Node6 -->
<g id="node6" class="node">
<title>Node6</title>
<g id="a_node6"><a xlink:href="../../db/d0c/infix__to__postfix_8c.html#a613462735d30cae1b85b606ecab30554" target="_top" xlink:title="push function">
<polygon fill="white" stroke="#666666" points="197.25,-56.25 160.25,-56.25 160.25,-37 197.25,-37 197.25,-56.25"/>
<text text-anchor="middle" x="178.75" y="-42.75" font-family="Helvetica,sans-Serif" font-size="10.00">push</text>
</a>
</g>
</g>
<!-- Node2&#45;&gt;Node6 -->
<g id="edge5" class="edge">
<title>Node2&#45;&gt;Node6</title>
<path fill="none" stroke="#63b8ff" d="M109.05,-91.54C121.51,-83.4 139.25,-71.8 153.58,-62.43"/>
<polygon fill="#63b8ff" stroke="#63b8ff" points="154.96,-65.05 161.42,-56.65 151.13,-59.19 154.96,-65.05"/>
</g>
<!-- Node7 -->
<g id="node7" class="node">
<title>Node7</title>
<g id="a_node7"><a xlink:href="../../da/d96/infix__to__postfix2_8c.html#a2d1c13296ce9c42bb5dd7d834e2802bf" target="_top" xlink:title="Function to get top of the stack.">
<polygon fill="white" stroke="#666666" points="194.62,-19.25 162.88,-19.25 162.88,0 194.62,0 194.62,-19.25"/>
<text text-anchor="middle" x="178.75" y="-5.75" font-family="Helvetica,sans-Serif" font-size="10.00">Top</text>
</a>
</g>
</g>
<!-- Node2&#45;&gt;Node7 -->
<g id="edge7" class="edge">
<title>Node2&#45;&gt;Node7</title>
<path fill="none" stroke="#63b8ff" d="M100.15,-91.82C110.33,-76.95 131.06,-48.25 152.75,-27.62 153.12,-27.27 153.49,-26.93 153.87,-26.58"/>
<polygon fill="#63b8ff" stroke="#63b8ff" points="155.85,-28.67 161.42,-19.65 151.45,-23.23 155.85,-28.67"/>
</g>
<!-- Node6&#45;&gt;Node6 -->
<g id="edge6" class="edge">
<title>Node6&#45;&gt;Node6</title>
<path fill="none" stroke="#63b8ff" d="M165.27,-56.54C159.12,-65.15 163.61,-74.25 178.75,-74.25 187.27,-74.25 192.41,-71.37 194.19,-67.32"/>
<polygon fill="#63b8ff" stroke="#63b8ff" points="197.47,-66.75 192.23,-57.54 190.58,-68 197.47,-66.75"/>
</g>
</g>
</svg>
