<?xml version="1.0" encoding="UTF-8" standalone="no"?>
<!DOCTYPE svg PUBLIC "-//W3C//DTD SVG 1.1//EN"
 "http://www.w3.org/Graphics/SVG/1.1/DTD/svg11.dtd">
<!-- Generated by graphviz version 7.0.6 (20230106.0513)
 -->
<!-- Title: convert Pages: 1 -->
<svg width="146pt" height="193pt"
 viewBox="0.00 0.00 146.00 193.00" xmlns="http://www.w3.org/2000/svg" xmlns:xlink="http://www.w3.org/1999/xlink">
<g id="graph0" class="graph" transform="scale(1 1) rotate(0) translate(4 189)">
<title>convert</title>
<!-- Node1 -->
<g id="node1" class="node">
<title>Node1</title>
<g id="a_node1"><a xlink:title="Function to convert infix expression to postfix expression.">
<polygon fill="#999999" stroke="#666666" points="49,-111 0,-111 0,-92 49,-92 49,-111"/>
<text text-anchor="middle" x="24.5" y="-99" font-family="Helvetica,sans-Serif" font-size="10.00">convert</text>
</a>
</g>
</g>
<!-- Node2 -->
<g id="node2" class="node">
<title>Node2</title>
<g id="a_node2"><a xlink:href="../../da/d96/infix__to__postfix2_8c.html#a653c98c68c558505b75b04c44b7c838e" target="_top" xlink:title="Function to check whether the stack is empty or not.">
<polygon fill="white" stroke="#666666" points="138,-185 85,-185 85,-166 138,-166 138,-185"/>
<text text-anchor="middle" x="111.5" y="-173" font-family="Helvetica,sans-Serif" font-size="10.00">isEmpty</text>
</a>
</g>
</g>
<!-- Node1&#45;&gt;Node2 -->
<g id="edge1" class="edge">
<title>Node1&#45;&gt;Node2</title>
<path fill="none" stroke="#63b8ff" d="M35.22,-111.46C46.69,-123.02 66.54,-142.42 85,-157.5 85.52,-157.93 86.06,-158.36 86.6,-158.79"/>
<polygon fill="#63b8ff" stroke="#63b8ff" points="84.36,-161.48 94.46,-164.66 88.54,-155.87 84.36,-161.48"/>
</g>
<!-- Node3 -->
<g id="node3" class="node">
<title>Node3</title>
<g id="a_node3"><a xlink:href="../../da/d96/infix__to__postfix2_8c.html#a312e7f6c761a199c1369fbe651e084f0" target="_top" xlink:title="Function to pop from the stack.">
<polygon fill="white" stroke="#666666" points="127.5,-148 95.5,-148 95.5,-129 127.5,-129 127.5,-148"/>
<text text-anchor="middle" x="111.5" y="-136" font-family="Helvetica,sans-Serif" font-size="10.00">pop</text>
</a>
</g>
</g>
<!-- Node1&#45;&gt;Node3 -->
<g id="edge2" class="edge">
<title>Node1&#45;&gt;Node3</title>
<path fill="none" stroke="#63b8ff" d="M48.28,-111.42C59.53,-116.31 73.16,-122.25 84.79,-127.31"/>
<polygon fill="#63b8ff" stroke="#63b8ff" points="83.23,-130.44 93.79,-131.23 86.02,-124.03 83.23,-130.44"/>
</g>
<!-- Node4 -->
<g id="node4" class="node">
<title>Node4</title>
<g id="a_node4"><a xlink:href="../../da/d96/infix__to__postfix2_8c.html#a02d1bf0ff997efc46ba6fd0ec7952952" target="_top" xlink:title="Function to check priority of operators.">
<polygon fill="white" stroke="#666666" points="134.5,-111 88.5,-111 88.5,-92 134.5,-92 134.5,-111"/>
<text text-anchor="middle" x="111.5" y="-99" font-family="Helvetica,sans-Serif" font-size="10.00">priority</text>
</a>
</g>
</g>
<!-- Node1&#45;&gt;Node4 -->
<g id="edge3" class="edge">
<title>Node1&#45;&gt;Node4</title>
<path fill="none" stroke="#63b8ff" d="M49.18,-101.5C57.74,-101.5 67.59,-101.5 76.85,-101.5"/>
<polygon fill="#63b8ff" stroke="#63b8ff" points="76.61,-105 86.61,-101.5 76.61,-98 76.61,-105"/>
</g>
<!-- Node5 -->
<g id="node5" class="node">
<title>Node5</title>
<g id="a_node5"><a xlink:href="../../db/d0c/infix__to__postfix_8c.html#a613462735d30cae1b85b606ecab30554" target="_top" xlink:title="push function">
<polygon fill="white" stroke="#666666" points="130.5,-56 92.5,-56 92.5,-37 130.5,-37 130.5,-56"/>
<text text-anchor="middle" x="111.5" y="-44" font-family="Helvetica,sans-Serif" font-size="10.00">push</text>
</a>
</g>
</g>
<!-- Node1&#45;&gt;Node5 -->
<g id="edge4" class="edge">
<title>Node1&#45;&gt;Node5</title>
<path fill="none" stroke="#63b8ff" d="M40.7,-91.67C53.19,-83.58 71.14,-71.97 85.71,-62.54"/>
<polygon fill="#63b8ff" stroke="#63b8ff" points="87.38,-65.63 93.88,-57.26 83.58,-59.75 87.38,-65.63"/>
</g>
<!-- Node6 -->
<g id="node6" class="node">
<title>Node6</title>
<g id="a_node6"><a xlink:href="../../da/d96/infix__to__postfix2_8c.html#a2d1c13296ce9c42bb5dd7d834e2802bf" target="_top" xlink:title="Function to get top of the stack.">
<polygon fill="white" stroke="#666666" points="127.5,-19 95.5,-19 95.5,0 127.5,0 127.5,-19"/>
<text text-anchor="middle" x="111.5" y="-7" font-family="Helvetica,sans-Serif" font-size="10.00">Top</text>
</a>
</g>
</g>
<!-- Node1&#45;&gt;Node6 -->
<g id="edge6" class="edge">
<title>Node1&#45;&gt;Node6</title>
<path fill="none" stroke="#63b8ff" d="M32.15,-91.89C42.5,-77.29 63.51,-49.08 85,-28.5 85.73,-27.8 86.49,-27.1 87.27,-26.41"/>
<polygon fill="#63b8ff" stroke="#63b8ff" points="89.22,-29.33 94.79,-20.31 84.82,-23.89 89.22,-29.33"/>
</g>
<!-- Node5&#45;&gt;Node5 -->
<g id="edge5" class="edge">
<title>Node5&#45;&gt;Node5</title>
<path fill="none" stroke="#63b8ff" d="M97.88,-56.37C91.67,-64.94 96.21,-74 111.5,-74 119.62,-74 124.71,-71.44 126.77,-67.76"/>
<polygon fill="#63b8ff" stroke="#63b8ff" points="130.23,-67.26 125.34,-57.87 123.31,-68.26 130.23,-67.26"/>
</g>
</g>
</svg>
