<?xml version="1.0" encoding="UTF-8" standalone="no"?>
<!DOCTYPE svg PUBLIC "-//W3C//DTD SVG 1.1//EN"
 "http://www.w3.org/Graphics/SVG/1.1/DTD/svg11.dtd">
<!-- Generated by graphviz version 8.0.5 (20230430.1635)
 -->
<!-- Title: convert Pages: 1 -->
<svg width="144pt" height="193pt"
 viewBox="0.00 0.00 144.25 193.25" xmlns="http://www.w3.org/2000/svg" xmlns:xlink="http://www.w3.org/1999/xlink">
<g id="graph0" class="graph" transform="scale(1 1) rotate(0) translate(4 189.25)">
<title>convert</title>
<!-- Node1 -->
<g id="node1" class="node">
<title>Node1</title>
<g id="a_node1"><a xlink:title="Function to convert infix expression to postfix expression.">
<polygon fill="#999999" stroke="#666666" points="48.25,-111.25 0,-111.25 0,-92 48.25,-92 48.25,-111.25"/>
<text text-anchor="middle" x="24.12" y="-97.75" font-family="Helvetica,sans-Serif" font-size="10.00">convert</text>
</a>
</g>
</g>
<!-- Node2 -->
<g id="node2" class="node">
<title>Node2</title>
<g id="a_node2"><a xlink:href="../../da/d96/infix__to__postfix2_8c.html#a653c98c68c558505b75b04c44b7c838e" target="_top" xlink:title="Function to check whether the stack is empty or not.">
<polygon fill="white" stroke="#666666" points="136.25,-185.25 84.25,-185.25 84.25,-166 136.25,-166 136.25,-185.25"/>
<text text-anchor="middle" x="110.25" y="-171.75" font-family="Helvetica,sans-Serif" font-size="10.00">isEmpty</text>
</a>
</g>
</g>
<!-- Node1&#45;&gt;Node2 -->
<g id="edge1" class="edge">
<title>Node1&#45;&gt;Node2</title>
<path fill="none" stroke="#63b8ff" d="M34.79,-111.56C46.2,-123.1 65.95,-142.49 84.25,-157.62 84.87,-158.14 85.5,-158.65 86.14,-159.16"/>
<polygon fill="#63b8ff" stroke="#63b8ff" points="83.64,-162.42 93.72,-165.67 87.87,-156.84 83.64,-162.42"/>
</g>
<!-- Node3 -->
<g id="node3" class="node">
<title>Node3</title>
<g id="a_node3"><a xlink:href="../../da/d96/infix__to__postfix2_8c.html#a312e7f6c761a199c1369fbe651e084f0" target="_top" xlink:title="Function to pop from the stack.">
<polygon fill="white" stroke="#666666" points="126.12,-148.25 94.38,-148.25 94.38,-129 126.12,-129 126.12,-148.25"/>
<text text-anchor="middle" x="110.25" y="-134.75" font-family="Helvetica,sans-Serif" font-size="10.00">pop</text>
</a>
</g>
</g>
<!-- Node1&#45;&gt;Node3 -->
<g id="edge2" class="edge">
<title>Node1&#45;&gt;Node3</title>
<path fill="none" stroke="#63b8ff" d="M48.11,-111.74C59.29,-116.65 72.74,-122.57 84.18,-127.6"/>
<polygon fill="#63b8ff" stroke="#63b8ff" points="82.43,-131.09 92.99,-131.91 85.25,-124.68 82.43,-131.09"/>
</g>
<!-- Node4 -->
<g id="node4" class="node">
<title>Node4</title>
<g id="a_node4"><a xlink:href="../../da/d96/infix__to__postfix2_8c.html#a02d1bf0ff997efc46ba6fd0ec7952952" target="_top" xlink:title="Function to check priority of operators.">
<polygon fill="white" stroke="#666666" points="132.88,-111.25 87.62,-111.25 87.62,-92 132.88,-92 132.88,-111.25"/>
<text text-anchor="middle" x="110.25" y="-97.75" font-family="Helvetica,sans-Serif" font-size="10.00">priority</text>
</a>
</g>
</g>
<!-- Node1&#45;&gt;Node4 -->
<g id="edge3" class="edge">
<title>Node1&#45;&gt;Node4</title>
<path fill="none" stroke="#63b8ff" d="M48.56,-101.62C57.2,-101.62 67.15,-101.62 76.47,-101.62"/>
<polygon fill="#63b8ff" stroke="#63b8ff" points="76.39,-105.13 86.39,-101.62 76.39,-98.13 76.39,-105.13"/>
</g>
<!-- Node5 -->
<g id="node5" class="node">
<title>Node5</title>
<g id="a_node5"><a xlink:href="../../db/d0c/infix__to__postfix_8c.html#a613462735d30cae1b85b606ecab30554" target="_top" xlink:title="push function">
<polygon fill="white" stroke="#666666" points="128.75,-56.25 91.75,-56.25 91.75,-37 128.75,-37 128.75,-56.25"/>
<text text-anchor="middle" x="110.25" y="-42.75" font-family="Helvetica,sans-Serif" font-size="10.00">push</text>
</a>
</g>
</g>
<!-- Node1&#45;&gt;Node5 -->
<g id="edge4" class="edge">
<title>Node1&#45;&gt;Node5</title>
<path fill="none" stroke="#63b8ff" d="M40.55,-91.54C53.01,-83.4 70.75,-71.8 85.08,-62.43"/>
<polygon fill="#63b8ff" stroke="#63b8ff" points="86.46,-65.05 92.92,-56.65 82.63,-59.19 86.46,-65.05"/>
</g>
<!-- Node6 -->
<g id="node6" class="node">
<title>Node6</title>
<g id="a_node6"><a xlink:href="../../da/d96/infix__to__postfix2_8c.html#a2d1c13296ce9c42bb5dd7d834e2802bf" target="_top" xlink:title="Function to get top of the stack.">
<polygon fill="white" stroke="#666666" points="126.12,-19.25 94.38,-19.25 94.38,0 126.12,0 126.12,-19.25"/>
<text text-anchor="middle" x="110.25" y="-5.75" font-family="Helvetica,sans-Serif" font-size="10.00">Top</text>
</a>
</g>
</g>
<!-- Node1&#45;&gt;Node6 -->
<g id="edge6" class="edge">
<title>Node1&#45;&gt;Node6</title>
<path fill="none" stroke="#63b8ff" d="M31.65,-91.82C41.83,-76.95 62.56,-48.25 84.25,-27.62 84.62,-27.27 84.99,-26.93 85.37,-26.58"/>
<polygon fill="#63b8ff" stroke="#63b8ff" points="87.35,-28.67 92.92,-19.65 82.95,-23.23 87.35,-28.67"/>
</g>
<!-- Node5&#45;&gt;Node5 -->
<g id="edge5" class="edge">
<title>Node5&#45;&gt;Node5</title>
<path fill="none" stroke="#63b8ff" d="M96.77,-56.54C90.62,-65.15 95.11,-74.25 110.25,-74.25 118.77,-74.25 123.91,-71.37 125.69,-67.32"/>
<polygon fill="#63b8ff" stroke="#63b8ff" points="128.97,-66.75 123.73,-57.54 122.08,-68 128.97,-66.75"/>
</g>
</g>
</svg>
