<?xml version="1.0" encoding="UTF-8" standalone="no"?>
<!DOCTYPE svg PUBLIC "-//W3C//DTD SVG 1.1//EN"
 "http://www.w3.org/Graphics/SVG/1.1/DTD/svg11.dtd">
<!-- Generated by graphviz version 6.0.1 (20220911.1526)
 -->
<!-- Title: test Pages: 1 -->
<svg width="215pt" height="193pt"
 viewBox="0.00 0.00 215.00 193.00" xmlns="http://www.w3.org/2000/svg" xmlns:xlink="http://www.w3.org/1999/xlink">
<g id="graph0" class="graph" transform="scale(1 1) rotate(0) translate(4 189)">
<title>test</title>
<!-- Node1 -->
<g id="node1" class="node">
<title>Node1</title>
<g id="a_node1"><a xlink:title="Self&#45;test implementations.">
<polygon fill="#999999" stroke="#666666" points="33,-111 0,-111 0,-92 33,-92 33,-111"/>
<text text-anchor="middle" x="16.5" y="-99" font-family="Helvetica,sans-Serif" font-size="10.00">test</text>
</a>
</g>
</g>
<!-- Node2 -->
<g id="node2" class="node">
<title>Node2</title>
<g id="a_node2"><a xlink:href="../../da/d96/infix__to__postfix2_8c.html#ae363a3863a8bfbf40e7a95c2b9dbe71b" target="_top" xlink:title="Function to convert infix expression to postfix expression.">
<polygon fill="white" stroke="#666666" points="118,-111 69,-111 69,-92 118,-92 118,-111"/>
<text text-anchor="middle" x="93.5" y="-99" font-family="Helvetica,sans-Serif" font-size="10.00">convert</text>
</a>
</g>
</g>
<!-- Node1&#45;&gt;Node2 -->
<g id="edge1" class="edge">
<title>Node1&#45;&gt;Node2</title>
<path fill="none" stroke="#63b8ff" d="M33.04,-101.5C40.5,-101.5 49.76,-101.5 58.73,-101.5"/>
<polygon fill="#63b8ff" stroke="#63b8ff" points="59,-105 69,-101.5 59,-98 59,-105"/>
</g>
<!-- Node3 -->
<g id="node3" class="node">
<title>Node3</title>
<g id="a_node3"><a xlink:href="../../da/d96/infix__to__postfix2_8c.html#a653c98c68c558505b75b04c44b7c838e" target="_top" xlink:title="Function to check whether the stack is empty or not.">
<polygon fill="white" stroke="#666666" points="207,-185 154,-185 154,-166 207,-166 207,-185"/>
<text text-anchor="middle" x="180.5" y="-173" font-family="Helvetica,sans-Serif" font-size="10.00">isEmpty</text>
</a>
</g>
</g>
<!-- Node2&#45;&gt;Node3 -->
<g id="edge2" class="edge">
<title>Node2&#45;&gt;Node3</title>
<path fill="none" stroke="#63b8ff" d="M103.81,-111.05C115.21,-122.56 135.32,-142.25 154,-157.5 154.99,-158.31 156.02,-159.12 157.06,-159.93"/>
<polygon fill="#63b8ff" stroke="#63b8ff" points="155.08,-162.82 165.21,-165.94 159.24,-157.19 155.08,-162.82"/>
</g>
<!-- Node4 -->
<g id="node4" class="node">
<title>Node4</title>
<g id="a_node4"><a xlink:href="../../da/d96/infix__to__postfix2_8c.html#a312e7f6c761a199c1369fbe651e084f0" target="_top" xlink:title="Function to pop from the stack.">
<polygon fill="white" stroke="#666666" points="196.5,-148 164.5,-148 164.5,-129 196.5,-129 196.5,-148"/>
<text text-anchor="middle" x="180.5" y="-136" font-family="Helvetica,sans-Serif" font-size="10.00">pop</text>
</a>
</g>
</g>
<!-- Node2&#45;&gt;Node4 -->
<g id="edge3" class="edge">
<title>Node2&#45;&gt;Node4</title>
<path fill="none" stroke="#63b8ff" d="M116.39,-111.03C128.27,-116.2 142.98,-122.6 155.21,-127.93"/>
<polygon fill="#63b8ff" stroke="#63b8ff" points="153.82,-131.14 164.38,-131.92 156.61,-124.72 153.82,-131.14"/>
</g>
<!-- Node5 -->
<g id="node5" class="node">
<title>Node5</title>
<g id="a_node5"><a xlink:href="../../da/d96/infix__to__postfix2_8c.html#a02d1bf0ff997efc46ba6fd0ec7952952" target="_top" xlink:title="Function to check priority of operators.">
<polygon fill="white" stroke="#666666" points="203.5,-111 157.5,-111 157.5,-92 203.5,-92 203.5,-111"/>
<text text-anchor="middle" x="180.5" y="-99" font-family="Helvetica,sans-Serif" font-size="10.00">priority</text>
</a>
</g>
</g>
<!-- Node2&#45;&gt;Node5 -->
<g id="edge4" class="edge">
<title>Node2&#45;&gt;Node5</title>
<path fill="none" stroke="#63b8ff" d="M118.18,-101.5C127.2,-101.5 137.63,-101.5 147.31,-101.5"/>
<polygon fill="#63b8ff" stroke="#63b8ff" points="147.41,-105 157.41,-101.5 147.41,-98 147.41,-105"/>
</g>
<!-- Node6 -->
<g id="node6" class="node">
<title>Node6</title>
<g id="a_node6"><a xlink:href="../../db/d0c/infix__to__postfix_8c.html#a613462735d30cae1b85b606ecab30554" target="_top" xlink:title="push function">
<polygon fill="white" stroke="#666666" points="199.5,-56 161.5,-56 161.5,-37 199.5,-37 199.5,-56"/>
<text text-anchor="middle" x="180.5" y="-44" font-family="Helvetica,sans-Serif" font-size="10.00">push</text>
</a>
</g>
</g>
<!-- Node2&#45;&gt;Node6 -->
<g id="edge5" class="edge">
<title>Node2&#45;&gt;Node6</title>
<path fill="none" stroke="#63b8ff" d="M109.31,-91.92C122.15,-83.61 140.96,-71.44 155.88,-61.78"/>
<polygon fill="#63b8ff" stroke="#63b8ff" points="158.08,-64.53 164.58,-56.16 154.28,-58.65 158.08,-64.53"/>
</g>
<!-- Node7 -->
<g id="node7" class="node">
<title>Node7</title>
<g id="a_node7"><a xlink:href="../../da/d96/infix__to__postfix2_8c.html#a2d1c13296ce9c42bb5dd7d834e2802bf" target="_top" xlink:title="Function to get top of the stack.">
<polygon fill="white" stroke="#666666" points="196.5,-19 164.5,-19 164.5,0 196.5,0 196.5,-19"/>
<text text-anchor="middle" x="180.5" y="-7" font-family="Helvetica,sans-Serif" font-size="10.00">Top</text>
</a>
</g>
</g>
<!-- Node2&#45;&gt;Node7 -->
<g id="edge7" class="edge">
<title>Node2&#45;&gt;Node7</title>
<path fill="none" stroke="#63b8ff" d="M101.15,-91.89C111.5,-77.29 132.51,-49.08 154,-28.5 155.07,-27.47 156.2,-26.45 157.36,-25.45"/>
<polygon fill="#63b8ff" stroke="#63b8ff" points="159.6,-28.14 165.24,-19.16 155.24,-22.67 159.6,-28.14"/>
</g>
<!-- Node6&#45;&gt;Node6 -->
<g id="edge6" class="edge">
<title>Node6&#45;&gt;Node6</title>
<path fill="none" stroke="#63b8ff" d="M167.09,-56.08C160.57,-64.73 165.04,-74 180.5,-74 189.92,-74 195.26,-70.56 196.52,-65.91"/>
<polygon fill="#63b8ff" stroke="#63b8ff" points="199.86,-64.85 193.91,-56.08 193.09,-66.65 199.86,-64.85"/>
</g>
</g>
</svg>
