<?xml version="1.0" encoding="UTF-8" standalone="no"?>
<!DOCTYPE svg PUBLIC "-//W3C//DTD SVG 1.1//EN"
 "http://www.w3.org/Graphics/SVG/1.1/DTD/svg11.dtd">
<!-- Generated by graphviz version 2.49.3 (20211023.0002)
 -->
<!-- Title: main Pages: 1 -->
<svg width="288pt" height="180pt"
 viewBox="0.00 0.00 288.00 180.00" xmlns="http://www.w3.org/2000/svg" xmlns:xlink="http://www.w3.org/1999/xlink">
<g id="graph0" class="graph" transform="scale(1 1) rotate(0) translate(4 176)">
<title>main</title>
<polygon fill="white" stroke="transparent" points="-4,4 -4,-176 284,-176 284,4 -4,4"/>
<!-- Node1 -->
<g id="node1" class="node">
<title>Node1</title>
<g id="a_node1"><a xlink:title="Main function.">
<polygon fill="#bfbfbf" stroke="black" points="0,-76.5 0,-95.5 38,-95.5 38,-76.5 0,-76.5"/>
<text text-anchor="middle" x="19" y="-83.5" font-family="Helvetica,sans-Serif" font-size="10.00">main</text>
</a>
</g>
</g>
<!-- Node2 -->
<g id="node2" class="node">
<title>Node2</title>
<g id="a_node2"><a xlink:href="../../da/d96/infix__to__postfix2_8c.html#ae363a3863a8bfbf40e7a95c2b9dbe71b" target="_top" xlink:title="Function to convert infix expression to postfix expression.">
<polygon fill="white" stroke="black" points="143,-76.5 143,-95.5 192,-95.5 192,-76.5 143,-76.5"/>
<text text-anchor="middle" x="167.5" y="-83.5" font-family="Helvetica,sans-Serif" font-size="10.00">convert</text>
</a>
</g>
</g>
<!-- Node1&#45;&gt;Node2 -->
<g id="edge1" class="edge">
<title>Node1&#45;&gt;Node2</title>
<path fill="none" stroke="midnightblue" d="M38.26,-86C61.83,-86 103.29,-86 132.69,-86"/>
<polygon fill="midnightblue" stroke="midnightblue" points="132.92,-89.5 142.92,-86 132.92,-82.5 132.92,-89.5"/>
</g>
<!-- Node8 -->
<g id="node8" class="node">
<title>Node8</title>
<g id="a_node8"><a xlink:href="../../da/d96/infix__to__postfix2_8c.html#aa8dca7b867074164d5f45b0f3851269d" target="_top" xlink:title="Self&#45;test implementations.">
<polygon fill="white" stroke="black" points="74,-57.5 74,-76.5 107,-76.5 107,-57.5 74,-57.5"/>
<text text-anchor="middle" x="90.5" y="-64.5" font-family="Helvetica,sans-Serif" font-size="10.00">test</text>
</a>
</g>
</g>
<!-- Node1&#45;&gt;Node8 -->
<g id="edge7" class="edge">
<title>Node1&#45;&gt;Node8</title>
<path fill="none" stroke="midnightblue" d="M38.26,-81.01C46.15,-78.85 55.52,-76.29 64.07,-73.95"/>
<polygon fill="midnightblue" stroke="midnightblue" points="65.23,-77.26 73.95,-71.25 63.38,-70.51 65.23,-77.26"/>
</g>
<!-- Node3 -->
<g id="node3" class="node">
<title>Node3</title>
<g id="a_node3"><a xlink:href="../../da/d96/infix__to__postfix2_8c.html#a653c98c68c558505b75b04c44b7c838e" target="_top" xlink:title="Function to check whether the stack is empty or not.">
<polygon fill="white" stroke="black" points="228,-152.5 228,-171.5 280,-171.5 280,-152.5 228,-152.5"/>
<text text-anchor="middle" x="254" y="-159.5" font-family="Helvetica,sans-Serif" font-size="10.00">isEmpty</text>
</a>
</g>
</g>
<!-- Node2&#45;&gt;Node3 -->
<g id="edge2" class="edge">
<title>Node2&#45;&gt;Node3</title>
<path fill="none" stroke="midnightblue" d="M177.87,-95.63C189.34,-107.25 209.51,-127.21 228,-143 229.17,-144 230.38,-145 231.61,-146"/>
<polygon fill="midnightblue" stroke="midnightblue" points="229.77,-149.01 239.8,-152.41 234.08,-143.5 229.77,-149.01"/>
</g>
<!-- Node4 -->
<g id="node4" class="node">
<title>Node4</title>
<g id="a_node4"><a xlink:href="../../da/d96/infix__to__postfix2_8c.html#a312e7f6c761a199c1369fbe651e084f0" target="_top" xlink:title="Function to pop from the stack.">
<polygon fill="white" stroke="black" points="237.5,-114.5 237.5,-133.5 270.5,-133.5 270.5,-114.5 237.5,-114.5"/>
<text text-anchor="middle" x="254" y="-121.5" font-family="Helvetica,sans-Serif" font-size="10.00">pop</text>
</a>
</g>
</g>
<!-- Node2&#45;&gt;Node4 -->
<g id="edge3" class="edge">
<title>Node2&#45;&gt;Node4</title>
<path fill="none" stroke="midnightblue" d="M189.82,-95.59C201.47,-100.83 215.96,-107.35 228.13,-112.82"/>
<polygon fill="midnightblue" stroke="midnightblue" points="226.73,-116.02 237.29,-116.93 229.6,-109.64 226.73,-116.02"/>
</g>
<!-- Node5 -->
<g id="node5" class="node">
<title>Node5</title>
<g id="a_node5"><a xlink:href="../../da/d96/infix__to__postfix2_8c.html#a02d1bf0ff997efc46ba6fd0ec7952952" target="_top" xlink:title="Function to check priority of operators.">
<polygon fill="white" stroke="black" points="230.5,-76.5 230.5,-95.5 277.5,-95.5 277.5,-76.5 230.5,-76.5"/>
<text text-anchor="middle" x="254" y="-83.5" font-family="Helvetica,sans-Serif" font-size="10.00">priority</text>
</a>
</g>
</g>
<!-- Node2&#45;&gt;Node5 -->
<g id="edge4" class="edge">
<title>Node2&#45;&gt;Node5</title>
<path fill="none" stroke="midnightblue" d="M192.04,-86C200.77,-86 210.83,-86 220.23,-86"/>
<polygon fill="midnightblue" stroke="midnightblue" points="220.46,-89.5 230.46,-86 220.46,-82.5 220.46,-89.5"/>
</g>
<!-- Node6 -->
<g id="node6" class="node">
<title>Node6</title>
<g id="a_node6"><a xlink:href="../../da/d96/infix__to__postfix2_8c.html#a90e051f23f741be4f8ca86c270d66489" target="_top" xlink:title="Function to push on the stack.">
<polygon fill="white" stroke="black" points="235,-38.5 235,-57.5 273,-57.5 273,-38.5 235,-38.5"/>
<text text-anchor="middle" x="254" y="-45.5" font-family="Helvetica,sans-Serif" font-size="10.00">push</text>
</a>
</g>
</g>
<!-- Node2&#45;&gt;Node6 -->
<g id="edge5" class="edge">
<title>Node2&#45;&gt;Node6</title>
<path fill="none" stroke="midnightblue" d="M189.82,-76.41C200.67,-71.53 213.98,-65.55 225.58,-60.33"/>
<polygon fill="midnightblue" stroke="midnightblue" points="227.15,-63.46 234.83,-56.17 224.28,-57.08 227.15,-63.46"/>
</g>
<!-- Node7 -->
<g id="node7" class="node">
<title>Node7</title>
<g id="a_node7"><a xlink:href="../../da/d96/infix__to__postfix2_8c.html#a2d1c13296ce9c42bb5dd7d834e2802bf" target="_top" xlink:title="Function to get top of the stack.">
<polygon fill="white" stroke="black" points="237.5,-0.5 237.5,-19.5 270.5,-19.5 270.5,-0.5 237.5,-0.5"/>
<text text-anchor="middle" x="254" y="-7.5" font-family="Helvetica,sans-Serif" font-size="10.00">Top</text>
</a>
</g>
</g>
<!-- Node2&#45;&gt;Node7 -->
<g id="edge6" class="edge">
<title>Node2&#45;&gt;Node7</title>
<path fill="none" stroke="midnightblue" d="M177.87,-76.37C189.34,-64.75 209.51,-44.79 228,-29 229.17,-28 230.38,-27 231.61,-26"/>
<polygon fill="midnightblue" stroke="midnightblue" points="234.08,-28.5 239.8,-19.59 229.77,-22.99 234.08,-28.5"/>
</g>
<!-- Node8&#45;&gt;Node2 -->
<g id="edge8" class="edge">
<title>Node8&#45;&gt;Node2</title>
<path fill="none" stroke="midnightblue" d="M107.04,-70.94C114.58,-72.85 123.96,-75.22 133.02,-77.52"/>
<polygon fill="midnightblue" stroke="midnightblue" points="132.44,-80.98 143,-80.05 134.16,-74.2 132.44,-80.98"/>
</g>
</g>
</svg>
