<?xml version="1.0" encoding="UTF-8" standalone="no"?>
<!DOCTYPE svg PUBLIC "-//W3C//DTD SVG 1.1//EN"
 "http://www.w3.org/Graphics/SVG/1.1/DTD/svg11.dtd">
<!-- Generated by graphviz version 2.49.3 (20211023.0002)
 -->
<!-- Title: test Pages: 1 -->
<svg width="214pt" height="180pt"
 viewBox="0.00 0.00 214.00 180.00" xmlns="http://www.w3.org/2000/svg" xmlns:xlink="http://www.w3.org/1999/xlink">
<g id="graph0" class="graph" transform="scale(1 1) rotate(0) translate(4 176)">
<title>test</title>
<polygon fill="white" stroke="transparent" points="-4,4 -4,-176 210,-176 210,4 -4,4"/>
<!-- Node1 -->
<g id="node1" class="node">
<title>Node1</title>
<g id="a_node1"><a xlink:title="Self&#45;test implementations.">
<polygon fill="#bfbfbf" stroke="black" points="0,-76.5 0,-95.5 33,-95.5 33,-76.5 0,-76.5"/>
<text text-anchor="middle" x="16.5" y="-83.5" font-family="Helvetica,sans-Serif" font-size="10.00">test</text>
</a>
</g>
</g>
<!-- Node2 -->
<g id="node2" class="node">
<title>Node2</title>
<g id="a_node2"><a xlink:href="../../da/d96/infix__to__postfix2_8c.html#ae363a3863a8bfbf40e7a95c2b9dbe71b" target="_top" xlink:title="Function to convert infix expression to postfix expression.">
<polygon fill="white" stroke="black" points="69,-76.5 69,-95.5 118,-95.5 118,-76.5 69,-76.5"/>
<text text-anchor="middle" x="93.5" y="-83.5" font-family="Helvetica,sans-Serif" font-size="10.00">convert</text>
</a>
</g>
</g>
<!-- Node1&#45;&gt;Node2 -->
<g id="edge1" class="edge">
<title>Node1&#45;&gt;Node2</title>
<path fill="none" stroke="midnightblue" d="M33.04,-86C40.5,-86 49.76,-86 58.73,-86"/>
<polygon fill="midnightblue" stroke="midnightblue" points="59,-89.5 69,-86 59,-82.5 59,-89.5"/>
</g>
<!-- Node3 -->
<g id="node3" class="node">
<title>Node3</title>
<g id="a_node3"><a xlink:href="../../da/d96/infix__to__postfix2_8c.html#a653c98c68c558505b75b04c44b7c838e" target="_top" xlink:title="Function to check whether the stack is empty or not.">
<polygon fill="white" stroke="black" points="154,-152.5 154,-171.5 206,-171.5 206,-152.5 154,-152.5"/>
<text text-anchor="middle" x="180" y="-159.5" font-family="Helvetica,sans-Serif" font-size="10.00">isEmpty</text>
</a>
</g>
</g>
<!-- Node2&#45;&gt;Node3 -->
<g id="edge2" class="edge">
<title>Node2&#45;&gt;Node3</title>
<path fill="none" stroke="midnightblue" d="M103.87,-95.63C115.34,-107.25 135.51,-127.21 154,-143 155.17,-144 156.38,-145 157.61,-146"/>
<polygon fill="midnightblue" stroke="midnightblue" points="155.77,-149.01 165.8,-152.41 160.08,-143.5 155.77,-149.01"/>
</g>
<!-- Node4 -->
<g id="node4" class="node">
<title>Node4</title>
<g id="a_node4"><a xlink:href="../../da/d96/infix__to__postfix2_8c.html#a312e7f6c761a199c1369fbe651e084f0" target="_top" xlink:title="Function to pop from the stack.">
<polygon fill="white" stroke="black" points="163.5,-114.5 163.5,-133.5 196.5,-133.5 196.5,-114.5 163.5,-114.5"/>
<text text-anchor="middle" x="180" y="-121.5" font-family="Helvetica,sans-Serif" font-size="10.00">pop</text>
</a>
</g>
</g>
<!-- Node2&#45;&gt;Node4 -->
<g id="edge3" class="edge">
<title>Node2&#45;&gt;Node4</title>
<path fill="none" stroke="midnightblue" d="M115.82,-95.59C127.47,-100.83 141.96,-107.35 154.13,-112.82"/>
<polygon fill="midnightblue" stroke="midnightblue" points="152.73,-116.02 163.29,-116.93 155.6,-109.64 152.73,-116.02"/>
</g>
<!-- Node5 -->
<g id="node5" class="node">
<title>Node5</title>
<g id="a_node5"><a xlink:href="../../da/d96/infix__to__postfix2_8c.html#a02d1bf0ff997efc46ba6fd0ec7952952" target="_top" xlink:title="Function to check priority of operators.">
<polygon fill="white" stroke="black" points="156.5,-76.5 156.5,-95.5 203.5,-95.5 203.5,-76.5 156.5,-76.5"/>
<text text-anchor="middle" x="180" y="-83.5" font-family="Helvetica,sans-Serif" font-size="10.00">priority</text>
</a>
</g>
</g>
<!-- Node2&#45;&gt;Node5 -->
<g id="edge4" class="edge">
<title>Node2&#45;&gt;Node5</title>
<path fill="none" stroke="midnightblue" d="M118.04,-86C126.77,-86 136.83,-86 146.23,-86"/>
<polygon fill="midnightblue" stroke="midnightblue" points="146.46,-89.5 156.46,-86 146.46,-82.5 146.46,-89.5"/>
</g>
<!-- Node6 -->
<g id="node6" class="node">
<title>Node6</title>
<g id="a_node6"><a xlink:href="../../da/d96/infix__to__postfix2_8c.html#a90e051f23f741be4f8ca86c270d66489" target="_top" xlink:title="Function to push on the stack.">
<polygon fill="white" stroke="black" points="161,-38.5 161,-57.5 199,-57.5 199,-38.5 161,-38.5"/>
<text text-anchor="middle" x="180" y="-45.5" font-family="Helvetica,sans-Serif" font-size="10.00">push</text>
</a>
</g>
</g>
<!-- Node2&#45;&gt;Node6 -->
<g id="edge5" class="edge">
<title>Node2&#45;&gt;Node6</title>
<path fill="none" stroke="midnightblue" d="M115.82,-76.41C126.67,-71.53 139.98,-65.55 151.58,-60.33"/>
<polygon fill="midnightblue" stroke="midnightblue" points="153.15,-63.46 160.83,-56.17 150.28,-57.08 153.15,-63.46"/>
</g>
<!-- Node7 -->
<g id="node7" class="node">
<title>Node7</title>
<g id="a_node7"><a xlink:href="../../da/d96/infix__to__postfix2_8c.html#a2d1c13296ce9c42bb5dd7d834e2802bf" target="_top" xlink:title="Function to get top of the stack.">
<polygon fill="white" stroke="black" points="163.5,-0.5 163.5,-19.5 196.5,-19.5 196.5,-0.5 163.5,-0.5"/>
<text text-anchor="middle" x="180" y="-7.5" font-family="Helvetica,sans-Serif" font-size="10.00">Top</text>
</a>
</g>
</g>
<!-- Node2&#45;&gt;Node7 -->
<g id="edge6" class="edge">
<title>Node2&#45;&gt;Node7</title>
<path fill="none" stroke="midnightblue" d="M103.87,-76.37C115.34,-64.75 135.51,-44.79 154,-29 155.17,-28 156.38,-27 157.61,-26"/>
<polygon fill="midnightblue" stroke="midnightblue" points="160.08,-28.5 165.8,-19.59 155.77,-22.99 160.08,-28.5"/>
</g>
</g>
</svg>
