<?xml version="1.0" encoding="UTF-8" standalone="no"?>
<!DOCTYPE svg PUBLIC "-//W3C//DTD SVG 1.1//EN"
 "http://www.w3.org/Graphics/SVG/1.1/DTD/svg11.dtd">
<!-- Generated by graphviz version 3.0.0 (20220226.1711)
 -->
<!-- Title: test Pages: 1 -->
<svg width="215pt" height="180pt"
 viewBox="0.00 0.00 215.00 180.00" xmlns="http://www.w3.org/2000/svg" xmlns:xlink="http://www.w3.org/1999/xlink">
<g id="graph0" class="graph" transform="scale(1 1) rotate(0) translate(4 176)">
<title>test</title>
<polygon fill="white" stroke="transparent" points="-4,4 -4,-176 211,-176 211,4 -4,4"/>
<!-- Node1 -->
<g id="node1" class="node">
<title>Node1</title>
<g id="a_node1"><a xlink:title="Self&#45;test implementations.">
<polygon fill="#bfbfbf" stroke="black" points="0,-76.5 0,-95.5 33,-95.5 33,-76.5 0,-76.5"/>
<text text-anchor="middle" x="16.5" y="-83.5" font-family="Helvetica,sans-Serif" font-size="10.00">test</text>
</a>
</g>
</g>
<!-- Node2 -->
<g id="node2" class="node">
<title>Node2</title>
<g id="a_node2"><a xlink:href="../../da/d96/infix__to__postfix2_8c.html#ae363a3863a8bfbf40e7a95c2b9dbe71b" target="_top" xlink:title="Function to convert infix expression to postfix expression.">
<polygon fill="white" stroke="black" points="69,-76.5 69,-95.5 118,-95.5 118,-76.5 69,-76.5"/>
<text text-anchor="middle" x="93.5" y="-83.5" font-family="Helvetica,sans-Serif" font-size="10.00">convert</text>
</a>
</g>
</g>
<!-- Node1&#45;&gt;Node2 -->
<g id="edge1" class="edge">
<title>Node1&#45;&gt;Node2</title>
<path fill="none" stroke="midnightblue" d="M33.04,-86C40.5,-86 49.76,-86 58.73,-86"/>
<polygon fill="midnightblue" stroke="midnightblue" points="59,-89.5 69,-86 59,-82.5 59,-89.5"/>
</g>
<!-- Node3 -->
<g id="node3" class="node">
<title>Node3</title>
<g id="a_node3"><a xlink:href="../../da/d96/infix__to__postfix2_8c.html#a653c98c68c558505b75b04c44b7c838e" target="_top" xlink:title="Function to check whether the stack is empty or not.">
<polygon fill="white" stroke="black" points="154,-152.5 154,-171.5 207,-171.5 207,-152.5 154,-152.5"/>
<text text-anchor="middle" x="180.5" y="-159.5" font-family="Helvetica,sans-Serif" font-size="10.00">isEmpty</text>
</a>
</g>
</g>
<!-- Node2&#45;&gt;Node3 -->
<g id="edge2" class="edge">
<title>Node2&#45;&gt;Node3</title>
<path fill="none" stroke="midnightblue" d="M103.85,-95.66C115.29,-107.31 135.43,-127.29 154,-143 155.3,-144.1 156.67,-145.22 158.05,-146.32"/>
<polygon fill="midnightblue" stroke="midnightblue" points="155.96,-149.13 166.02,-152.44 160.22,-143.58 155.96,-149.13"/>
</g>
<!-- Node4 -->
<g id="node4" class="node">
<title>Node4</title>
<g id="a_node4"><a xlink:href="../../da/d96/infix__to__postfix2_8c.html#a312e7f6c761a199c1369fbe651e084f0" target="_top" xlink:title="Function to pop from the stack.">
<polygon fill="white" stroke="black" points="164.5,-114.5 164.5,-133.5 196.5,-133.5 196.5,-114.5 164.5,-114.5"/>
<text text-anchor="middle" x="180.5" y="-121.5" font-family="Helvetica,sans-Serif" font-size="10.00">pop</text>
</a>
</g>
</g>
<!-- Node2&#45;&gt;Node4 -->
<g id="edge3" class="edge">
<title>Node2&#45;&gt;Node4</title>
<path fill="none" stroke="midnightblue" d="M115.95,-95.59C127.9,-100.93 142.83,-107.6 155.21,-113.14"/>
<polygon fill="midnightblue" stroke="midnightblue" points="153.93,-116.4 164.49,-117.29 156.79,-110.01 153.93,-116.4"/>
</g>
<!-- Node5 -->
<g id="node5" class="node">
<title>Node5</title>
<g id="a_node5"><a xlink:href="../../da/d96/infix__to__postfix2_8c.html#a02d1bf0ff997efc46ba6fd0ec7952952" target="_top" xlink:title="Function to check priority of operators.">
<polygon fill="white" stroke="black" points="157.5,-76.5 157.5,-95.5 203.5,-95.5 203.5,-76.5 157.5,-76.5"/>
<text text-anchor="middle" x="180.5" y="-83.5" font-family="Helvetica,sans-Serif" font-size="10.00">priority</text>
</a>
</g>
</g>
<!-- Node2&#45;&gt;Node5 -->
<g id="edge4" class="edge">
<title>Node2&#45;&gt;Node5</title>
<path fill="none" stroke="midnightblue" d="M118.18,-86C127.2,-86 137.63,-86 147.31,-86"/>
<polygon fill="midnightblue" stroke="midnightblue" points="147.41,-89.5 157.41,-86 147.41,-82.5 147.41,-89.5"/>
</g>
<!-- Node6 -->
<g id="node6" class="node">
<title>Node6</title>
<g id="a_node6"><a xlink:href="../../da/d96/infix__to__postfix2_8c.html#a90e051f23f741be4f8ca86c270d66489" target="_top" xlink:title="Function to push on the stack.">
<polygon fill="white" stroke="black" points="161.5,-38.5 161.5,-57.5 199.5,-57.5 199.5,-38.5 161.5,-38.5"/>
<text text-anchor="middle" x="180.5" y="-45.5" font-family="Helvetica,sans-Serif" font-size="10.00">push</text>
</a>
</g>
</g>
<!-- Node2&#45;&gt;Node6 -->
<g id="edge5" class="edge">
<title>Node2&#45;&gt;Node6</title>
<path fill="none" stroke="midnightblue" d="M115.95,-76.41C126.86,-71.53 140.25,-65.55 151.92,-60.33"/>
<polygon fill="midnightblue" stroke="midnightblue" points="153.53,-63.45 161.23,-56.17 150.67,-57.06 153.53,-63.45"/>
</g>
<!-- Node7 -->
<g id="node7" class="node">
<title>Node7</title>
<g id="a_node7"><a xlink:href="../../da/d96/infix__to__postfix2_8c.html#a2d1c13296ce9c42bb5dd7d834e2802bf" target="_top" xlink:title="Function to get top of the stack.">
<polygon fill="white" stroke="black" points="164.5,-0.5 164.5,-19.5 196.5,-19.5 196.5,-0.5 164.5,-0.5"/>
<text text-anchor="middle" x="180.5" y="-7.5" font-family="Helvetica,sans-Serif" font-size="10.00">Top</text>
</a>
</g>
</g>
<!-- Node2&#45;&gt;Node7 -->
<g id="edge6" class="edge">
<title>Node2&#45;&gt;Node7</title>
<path fill="none" stroke="midnightblue" d="M103.85,-76.34C115.29,-64.69 135.43,-44.71 154,-29 155.3,-27.9 156.67,-26.78 158.05,-25.68"/>
<polygon fill="midnightblue" stroke="midnightblue" points="160.22,-28.42 166.02,-19.56 155.96,-22.87 160.22,-28.42"/>
</g>
</g>
</svg>
