<?xml version="1.0" encoding="UTF-8" standalone="no"?>
<!DOCTYPE svg PUBLIC "-//W3C//DTD SVG 1.1//EN"
 "http://www.w3.org/Graphics/SVG/1.1/DTD/svg11.dtd">
<!-- Generated by graphviz version 8.0.2 (20230410.1723)
 -->
<!-- Title: main Pages: 1 -->
<svg width="210pt" height="27pt"
 viewBox="0.00 0.00 210.00 27.00" xmlns="http://www.w3.org/2000/svg" xmlns:xlink="http://www.w3.org/1999/xlink">
<g id="graph0" class="graph" transform="scale(1 1) rotate(0) translate(4 23)">
<title>main</title>
<!-- Node1 -->
<g id="node1" class="node">
<title>Node1</title>
<g id="a_node1"><a xlink:title="Main function.">
<polygon fill="#999999" stroke="#666666" points="38,-19 0,-19 0,0 38,0 38,-19"/>
<text text-anchor="middle" x="19" y="-7" font-family="Helvetica,sans-Serif" font-size="10.00">main</text>
</a>
</g>
</g>
<!-- Node2 -->
<g id="node2" class="node">
<title>Node2</title>
<g id="a_node2"><a xlink:href="../../d7/d3b/group__hash.html#ga39d4c16427acbf8bbe744f6d8ed61dc0" target="_top" xlink:title="Test function for xor8.">
<polygon fill="white" stroke="#666666" points="131,-19 74,-19 74,0 131,0 131,-19"/>
<text text-anchor="middle" x="102.5" y="-7" font-family="Helvetica,sans-Serif" font-size="10.00">test_xor8</text>
</a>
</g>
</g>
<!-- Node1&#45;&gt;Node2 -->
<g id="edge1" class="edge">
<title>Node1&#45;&gt;Node2</title>
<path fill="none" stroke="#63b8ff" d="M38.49,-9.5C45.74,-9.5 54.35,-9.5 62.83,-9.5"/>
<polygon fill="#63b8ff" stroke="#63b8ff" points="62.79,-13 72.79,-9.5 62.79,-6 62.79,-13"/>
</g>
<!-- Node3 -->
<g id="node3" class="node">
<title>Node3</title>
<g id="a_node3"><a xlink:href="../../d7/d3b/group__hash.html#gae4836b42b998b336298f3b19dcc9cdeb" target="_top" xlink:title="8&#45;bit XOR algorithm implementation">
<polygon fill="white" stroke="#666666" points="202,-19 167,-19 167,0 202,0 202,-19"/>
<text text-anchor="middle" x="184.5" y="-7" font-family="Helvetica,sans-Serif" font-size="10.00">xor8</text>
</a>
</g>
</g>
<!-- Node2&#45;&gt;Node3 -->
<g id="edge2" class="edge">
<title>Node2&#45;&gt;Node3</title>
<path fill="none" stroke="#63b8ff" d="M131.48,-9.5C139.35,-9.5 147.91,-9.5 155.76,-9.5"/>
<polygon fill="#63b8ff" stroke="#63b8ff" points="155.61,-13 165.61,-9.5 155.61,-6 155.61,-13"/>
</g>
</g>
</svg>
