<?xml version="1.0" encoding="UTF-8" standalone="no"?>
<!DOCTYPE svg PUBLIC "-//W3C//DTD SVG 1.1//EN"
 "http://www.w3.org/Graphics/SVG/1.1/DTD/svg11.dtd">
<!-- Generated by graphviz version 3.0.0 (20220226.1711)
 -->
<!-- Title: main Pages: 1 -->
<svg width="290pt" height="28pt"
 viewBox="0.00 0.00 290.00 28.00" xmlns="http://www.w3.org/2000/svg" xmlns:xlink="http://www.w3.org/1999/xlink">
<g id="graph0" class="graph" transform="scale(1 1) rotate(0) translate(4 24)">
<title>main</title>
<polygon fill="white" stroke="transparent" points="-4,4 -4,-24 286,-24 286,4 -4,4"/>
<!-- Node1 -->
<g id="node1" class="node">
<title>Node1</title>
<g id="a_node1"><a xlink:title="Driver Code.">
<polygon fill="#bfbfbf" stroke="black" points="0,-0.5 0,-19.5 38,-19.5 38,-0.5 0,-0.5"/>
<text text-anchor="middle" x="19" y="-7.5" font-family="Helvetica,sans-Serif" font-size="10.00">main</text>
</a>
</g>
</g>
<!-- Node2 -->
<g id="node2" class="node">
<title>Node2</title>
<g id="a_node2"><a xlink:href="../../dd/de4/bubble__sort_8c.html#ae1a3968e7947464bee7714f6d43b7002" target="_top" xlink:title="Test function.">
<polygon fill="white" stroke="black" points="74,-0.5 74,-19.5 107,-19.5 107,-0.5 74,-0.5"/>
<text text-anchor="middle" x="90.5" y="-7.5" font-family="Helvetica,sans-Serif" font-size="10.00">test</text>
</a>
</g>
</g>
<!-- Node1&#45;&gt;Node2 -->
<g id="edge1" class="edge">
<title>Node1&#45;&gt;Node2</title>
<path fill="none" stroke="midnightblue" d="M38.26,-10C46.07,-10 55.31,-10 63.79,-10"/>
<polygon fill="midnightblue" stroke="midnightblue" points="63.95,-13.5 73.95,-10 63.95,-6.5 63.95,-13.5"/>
</g>
<!-- Node3 -->
<g id="node3" class="node">
<title>Node3</title>
<g id="a_node3"><a xlink:href="../../dd/de4/bubble__sort_8c.html#aa8989f6c9bfd1f040854fa18b180114f" target="_top" xlink:title="Bubble sort algorithm implementation.">
<polygon fill="white" stroke="black" points="143,-0.5 143,-19.5 206,-19.5 206,-0.5 143,-0.5"/>
<text text-anchor="middle" x="174.5" y="-7.5" font-family="Helvetica,sans-Serif" font-size="10.00">bubbleSort</text>
</a>
</g>
</g>
<!-- Node2&#45;&gt;Node3 -->
<g id="edge2" class="edge">
<title>Node2&#45;&gt;Node3</title>
<path fill="none" stroke="midnightblue" d="M107.31,-10C114.61,-10 123.66,-10 132.69,-10"/>
<polygon fill="midnightblue" stroke="midnightblue" points="132.79,-13.5 142.79,-10 132.79,-6.5 132.79,-13.5"/>
</g>
<!-- Node4 -->
<g id="node4" class="node">
<title>Node4</title>
<g id="a_node4"><a xlink:href="../../dd/de4/bubble__sort_8c.html#ad126fa7239be97373c96861adc70b1d3" target="_top" xlink:title="Swap two values by using pointer.">
<polygon fill="white" stroke="black" points="242,-0.5 242,-19.5 282,-19.5 282,-0.5 242,-0.5"/>
<text text-anchor="middle" x="262" y="-7.5" font-family="Helvetica,sans-Serif" font-size="10.00">swap</text>
</a>
</g>
</g>
<!-- Node3&#45;&gt;Node4 -->
<g id="edge3" class="edge">
<title>Node3&#45;&gt;Node4</title>
<path fill="none" stroke="midnightblue" d="M206.37,-10C214.62,-10 223.5,-10 231.67,-10"/>
<polygon fill="midnightblue" stroke="midnightblue" points="231.87,-13.5 241.87,-10 231.87,-6.5 231.87,-13.5"/>
</g>
</g>
</svg>
