<?xml version="1.0" encoding="UTF-8" standalone="no"?>
<!DOCTYPE svg PUBLIC "-//W3C//DTD SVG 1.1//EN"
 "http://www.w3.org/Graphics/SVG/1.1/DTD/svg11.dtd">
<!-- Generated by graphviz version 8.0.5 (20230430.1635)
 -->
<!-- Title: Machine learning algorithms Pages: 1 -->
<svg width="312pt" height="174pt"
 viewBox="0.00 0.00 312.25 173.88" xmlns="http://www.w3.org/2000/svg" xmlns:xlink="http://www.w3.org/1999/xlink">
<g id="graph0" class="graph" transform="scale(1 1) rotate(0) translate(4 169.88)">
<title>Machine learning algorithms</title>
<!-- Node2 -->
<g id="Node000002" class="node">
<title>Node2</title>
<g id="a_Node000002"><a xlink:href="../../da/d2a/group__adaline.html" target="_top" xlink:title=" ">
<polygon fill="white" stroke="#666666" points="302.75,-165.88 175,-165.88 175,-146.62 302.75,-146.62 302.75,-165.88"/>
<text text-anchor="middle" x="238.88" y="-152.38" font-family="Helvetica,sans-Serif" font-size="10.00">Adaline learning algorithm</text>
</a>
</g>
</g>
<!-- Node3 -->
<g id="Node000003" class="node">
<title>Node3</title>
<g id="a_Node000003"><a xlink:href="../../d8/d71/group__k__means.html" target="_top" xlink:title=" ">
<polygon fill="white" stroke="#666666" points="290,-128.5 187.75,-128.5 187.75,-98 290,-98 290,-128.5"/>
<text text-anchor="start" x="195.75" y="-115" font-family="Helvetica,sans-Serif" font-size="10.00">K&#45;Means Clustering</text>
<text text-anchor="middle" x="238.88" y="-103.75" font-family="Helvetica,sans-Serif" font-size="10.00"> Algorithm</text>
</a>
</g>
</g>
<!-- Node5 -->
<g id="Node000005" class="node">
<title>Node5</title>
<g id="a_Node000005"><a xlink:href="../../d0/dcb/group__kohonen__1d.html" target="_top" xlink:title=" ">
<polygon fill="white" stroke="#666666" points="304.25,-79.5 173.5,-79.5 173.5,-49 304.25,-49 304.25,-79.5"/>
<text text-anchor="start" x="181.5" y="-66" font-family="Helvetica,sans-Serif" font-size="10.00">Kohonen SOM trace/chain</text>
<text text-anchor="middle" x="238.88" y="-54.75" font-family="Helvetica,sans-Serif" font-size="10.00"> algorithm</text>
</a>
</g>
</g>
<!-- Node4 -->
<g id="Node000004" class="node">
<title>Node4</title>
<g id="a_Node000004"><a xlink:href="../../d1/d6b/group__kohonen__2d.html" target="_top" xlink:title=" ">
<polygon fill="white" stroke="#666666" points="298.62,-30.5 179.12,-30.5 179.12,0 298.62,0 298.62,-30.5"/>
<text text-anchor="start" x="187.12" y="-17" font-family="Helvetica,sans-Serif" font-size="10.00">Kohonen SOM topology</text>
<text text-anchor="middle" x="238.88" y="-5.75" font-family="Helvetica,sans-Serif" font-size="10.00"> algorithm</text>
</a>
</g>
</g>
<!-- Node1 -->
<g id="Node000001" class="node">
<title>Node1</title>
<g id="a_Node000001"><a xlink:title=" ">
<polygon fill="#999999" stroke="#666666" points="137.5,-97.88 0,-97.88 0,-78.62 137.5,-78.62 137.5,-97.88"/>
<text text-anchor="middle" x="68.75" y="-84.38" font-family="Helvetica,sans-Serif" font-size="10.00">Machine learning algorithms</text>
</a>
</g>
</g>
<!-- Node1&#45;&gt;Node2 -->
<g id="edge1" class="edge">
<title>Node1&#45;&gt;Node2</title>
<path fill="none" stroke="black" d="M98.55,-103.32C119.08,-113.7 147.54,-127.36 173.5,-137.25 181.99,-140.49 191.29,-143.52 200.11,-146.16"/>
<polygon fill="black" stroke="black" points="100.36,-99.81 89.87,-98.37 97.18,-106.04 100.36,-99.81"/>
</g>
<!-- Node1&#45;&gt;Node3 -->
<g id="edge2" class="edge">
<title>Node1&#45;&gt;Node3</title>
<path fill="none" stroke="black" d="M148.24,-99.92C161.52,-101.9 174.99,-103.9 187.31,-105.73"/>
<polygon fill="black" stroke="black" points="149.05,-96.36 138.65,-98.35 148.02,-103.28 149.05,-96.36"/>
</g>
<!-- Node1&#45;&gt;Node5 -->
<g id="edge4" class="edge">
<title>Node1&#45;&gt;Node5</title>
<path fill="none" stroke="black" d="M148.49,-77.01C156.79,-75.83 165.15,-74.63 173.27,-73.47"/>
<polygon fill="black" stroke="black" points="148.05,-73.68 138.65,-78.56 149.04,-80.61 148.05,-73.68"/>
</g>
<!-- Node1&#45;&gt;Node4 -->
<g id="edge3" class="edge">
<title>Node1&#45;&gt;Node4</title>
<path fill="none" stroke="black" d="M100,-73.64C120.57,-63.86 148.5,-50.88 173.5,-40.25 180.89,-37.11 188.83,-33.9 196.51,-30.87"/>
<polygon fill="black" stroke="black" points="98.76,-70.83 91.25,-78.3 101.78,-77.15 98.76,-70.83"/>
</g>
</g>
</svg>
