<?xml version="1.0" encoding="UTF-8" standalone="no"?>
<!DOCTYPE svg PUBLIC "-//W3C//DTD SVG 1.1//EN"
 "http://www.w3.org/Graphics/SVG/1.1/DTD/svg11.dtd">
<!-- Generated by graphviz version 2.49.3 (20211023.0002)
 -->
<!-- Title: Machine learning algorithms Pages: 1 -->
<svg width="320pt" height="172pt"
 viewBox="0.00 0.00 320.00 171.50" xmlns="http://www.w3.org/2000/svg" xmlns:xlink="http://www.w3.org/1999/xlink">
<g id="graph0" class="graph" transform="scale(1 1) rotate(0) translate(4 167.5)">
<title>Machine learning algorithms</title>
<polygon fill="white" stroke="transparent" points="-4,4 -4,-167.5 316,-167.5 316,4 -4,4"/>
<!-- Node2 -->
<g id="node1" class="node">
<title>Node2</title>
<g id="a_node1"><a xlink:href="../../da/d2a/group__adaline.html" target="_top" xlink:title=" ">
<polygon fill="white" stroke="black" points="311,-163.5 179,-163.5 179,-144.5 311,-144.5 311,-163.5"/>
<text text-anchor="middle" x="245" y="-151.5" font-family="Helvetica,sans-Serif" font-size="10.00">Adaline learning algorithm</text>
</a>
</g>
</g>
<!-- Node3 -->
<g id="node2" class="node">
<title>Node3</title>
<g id="a_node2"><a xlink:href="../../d8/d71/group__k__means.html" target="_top" xlink:title=" ">
<polygon fill="white" stroke="black" points="297,-126 193,-126 193,-96 297,-96 297,-126"/>
<text text-anchor="start" x="201" y="-114" font-family="Helvetica,sans-Serif" font-size="10.00">K&#45;Means Clustering</text>
<text text-anchor="middle" x="245" y="-103" font-family="Helvetica,sans-Serif" font-size="10.00"> Algorithm</text>
</a>
</g>
</g>
<!-- Node5 -->
<g id="node3" class="node">
<title>Node5</title>
<g id="a_node3"><a xlink:href="../../d0/dcb/group__kohonen__1d.html" target="_top" xlink:title=" ">
<polygon fill="white" stroke="black" points="312,-78 178,-78 178,-48 312,-48 312,-78"/>
<text text-anchor="start" x="186" y="-66" font-family="Helvetica,sans-Serif" font-size="10.00">Kohonen SOM trace/chain</text>
<text text-anchor="middle" x="245" y="-55" font-family="Helvetica,sans-Serif" font-size="10.00"> algorithm</text>
</a>
</g>
</g>
<!-- Node4 -->
<g id="node4" class="node">
<title>Node4</title>
<g id="a_node4"><a xlink:href="../../d1/d6b/group__kohonen__2d.html" target="_top" xlink:title=" ">
<polygon fill="white" stroke="black" points="306.5,-30 183.5,-30 183.5,0 306.5,0 306.5,-30"/>
<text text-anchor="start" x="191.5" y="-18" font-family="Helvetica,sans-Serif" font-size="10.00">Kohonen SOM topology</text>
<text text-anchor="middle" x="245" y="-7" font-family="Helvetica,sans-Serif" font-size="10.00"> algorithm</text>
</a>
</g>
</g>
<!-- Node1 -->
<g id="node5" class="node">
<title>Node1</title>
<g id="a_node5"><a xlink:title=" ">
<polygon fill="#bfbfbf" stroke="black" points="142,-96.5 0,-96.5 0,-77.5 142,-77.5 142,-96.5"/>
<text text-anchor="middle" x="71" y="-84.5" font-family="Helvetica,sans-Serif" font-size="10.00">Machine learning algorithms</text>
</a>
</g>
</g>
<!-- Node1&#45;&gt;Node2 -->
<g id="edge1" class="edge">
<title>Node1&#45;&gt;Node2</title>
<path fill="none" stroke="black" d="M99.84,-100.95C120.96,-111.2 150.87,-125.01 178,-135 187.4,-138.46 197.74,-141.7 207.38,-144.48"/>
<polygon fill="black" stroke="black" points="101.32,-97.78 90.8,-96.52 98.24,-104.06 101.32,-97.78"/>
</g>
<!-- Node1&#45;&gt;Node3 -->
<g id="edge2" class="edge">
<title>Node1&#45;&gt;Node3</title>
<path fill="none" stroke="black" d="M150.41,-97.94C164.87,-99.96 179.61,-102.02 192.99,-103.88"/>
<polygon fill="black" stroke="black" points="150.86,-94.47 140.47,-96.55 149.89,-101.4 150.86,-94.47"/>
</g>
<!-- Node1&#45;&gt;Node5 -->
<g id="edge4" class="edge">
<title>Node1&#45;&gt;Node5</title>
<path fill="none" stroke="black" d="M150.63,-76.03C159.69,-74.76 168.85,-73.49 177.72,-72.25"/>
<polygon fill="black" stroke="black" points="149.89,-72.6 140.47,-77.45 150.86,-79.53 149.89,-72.6"/>
</g>
<!-- Node1&#45;&gt;Node4 -->
<g id="edge3" class="edge">
<title>Node1&#45;&gt;Node4</title>
<path fill="none" stroke="black" d="M101.22,-73.04C122.36,-63.12 151.72,-49.71 178,-39 185.45,-35.96 193.45,-32.9 201.21,-30.02"/>
<polygon fill="black" stroke="black" points="99.67,-69.9 92.12,-77.33 102.66,-76.23 99.67,-69.9"/>
</g>
</g>
</svg>
