<?xml version="1.0" encoding="UTF-8" standalone="no"?>
<!DOCTYPE svg PUBLIC "-//W3C//DTD SVG 1.1//EN"
 "http://www.w3.org/Graphics/SVG/1.1/DTD/svg11.dtd">
<!-- Generated by graphviz version 3.0.0 (20220226.1711)
 -->
<!-- Title: Machine learning algorithms Pages: 1 -->
<svg width="313pt" height="172pt"
 viewBox="0.00 0.00 313.00 171.50" xmlns="http://www.w3.org/2000/svg" xmlns:xlink="http://www.w3.org/1999/xlink">
<g id="graph0" class="graph" transform="scale(1 1) rotate(0) translate(4 167.5)">
<title>Machine learning algorithms</title>
<polygon fill="white" stroke="transparent" points="-4,4 -4,-167.5 309,-167.5 309,4 -4,4"/>
<!-- Node2 -->
<g id="node1" class="node">
<title>Node2</title>
<g id="a_node1"><a xlink:href="../../da/d2a/group__adaline.html" target="_top" xlink:title=" ">
<polygon fill="white" stroke="black" points="303.5,-163.5 175.5,-163.5 175.5,-144.5 303.5,-144.5 303.5,-163.5"/>
<text text-anchor="middle" x="239.5" y="-151.5" font-family="Helvetica,sans-Serif" font-size="10.00">Adaline learning algorithm</text>
</a>
</g>
</g>
<!-- Node3 -->
<g id="node2" class="node">
<title>Node3</title>
<g id="a_node2"><a xlink:href="../../d8/d71/group__k__means.html" target="_top" xlink:title=" ">
<polygon fill="white" stroke="black" points="291,-126 188,-126 188,-96 291,-96 291,-126"/>
<text text-anchor="start" x="196" y="-114" font-family="Helvetica,sans-Serif" font-size="10.00">K&#45;Means Clustering</text>
<text text-anchor="middle" x="239.5" y="-103" font-family="Helvetica,sans-Serif" font-size="10.00"> Algorithm</text>
</a>
</g>
</g>
<!-- Node5 -->
<g id="node3" class="node">
<title>Node5</title>
<g id="a_node3"><a xlink:href="../../d0/dcb/group__kohonen__1d.html" target="_top" xlink:title=" ">
<polygon fill="white" stroke="black" points="305,-78 174,-78 174,-48 305,-48 305,-78"/>
<text text-anchor="start" x="182" y="-66" font-family="Helvetica,sans-Serif" font-size="10.00">Kohonen SOM trace/chain</text>
<text text-anchor="middle" x="239.5" y="-55" font-family="Helvetica,sans-Serif" font-size="10.00"> algorithm</text>
</a>
</g>
</g>
<!-- Node4 -->
<g id="node4" class="node">
<title>Node4</title>
<g id="a_node4"><a xlink:href="../../d1/d6b/group__kohonen__2d.html" target="_top" xlink:title=" ">
<polygon fill="white" stroke="black" points="299.5,-30 179.5,-30 179.5,0 299.5,0 299.5,-30"/>
<text text-anchor="start" x="187.5" y="-18" font-family="Helvetica,sans-Serif" font-size="10.00">Kohonen SOM topology</text>
<text text-anchor="middle" x="239.5" y="-7" font-family="Helvetica,sans-Serif" font-size="10.00"> algorithm</text>
</a>
</g>
</g>
<!-- Node1 -->
<g id="node5" class="node">
<title>Node1</title>
<g id="a_node5"><a xlink:title=" ">
<polygon fill="#bfbfbf" stroke="black" points="138,-96.5 0,-96.5 0,-77.5 138,-77.5 138,-96.5"/>
<text text-anchor="middle" x="69" y="-84.5" font-family="Helvetica,sans-Serif" font-size="10.00">Machine learning algorithms</text>
</a>
</g>
</g>
<!-- Node1&#45;&gt;Node2 -->
<g id="edge1" class="edge">
<title>Node1&#45;&gt;Node2</title>
<path fill="none" stroke="black" d="M97.58,-101.07C118.28,-111.3 147.48,-125.04 174,-135 183.18,-138.45 193.28,-141.68 202.71,-144.47"/>
<polygon fill="black" stroke="black" points="98.95,-97.84 88.44,-96.51 95.82,-104.11 98.95,-97.84"/>
</g>
<!-- Node1&#45;&gt;Node3 -->
<g id="edge2" class="edge">
<title>Node1&#45;&gt;Node3</title>
<path fill="none" stroke="black" d="M147.06,-97.98C160.87,-99.94 174.93,-101.95 187.75,-103.77"/>
<polygon fill="black" stroke="black" points="147.47,-94.5 137.08,-96.55 146.49,-101.43 147.47,-94.5"/>
</g>
<!-- Node1&#45;&gt;Node5 -->
<g id="edge4" class="edge">
<title>Node1&#45;&gt;Node5</title>
<path fill="none" stroke="black" d="M147.11,-76.02C156.05,-74.74 165.1,-73.46 173.85,-72.21"/>
<polygon fill="black" stroke="black" points="146.49,-72.57 137.08,-77.45 147.47,-79.5 146.49,-72.57"/>
</g>
<!-- Node1&#45;&gt;Node4 -->
<g id="edge3" class="edge">
<title>Node1&#45;&gt;Node4</title>
<path fill="none" stroke="black" d="M98.94,-72.92C119.66,-63.02 148.32,-49.68 174,-39 181.28,-35.97 189.09,-32.91 196.68,-30.03"/>
<polygon fill="black" stroke="black" points="97.24,-69.86 89.74,-77.34 100.27,-76.17 97.24,-69.86"/>
</g>
</g>
</svg>
