<?xml version="1.0" encoding="UTF-8" standalone="no"?>
<!DOCTYPE svg PUBLIC "-//W3C//DTD SVG 1.1//EN"
 "http://www.w3.org/Graphics/SVG/1.1/DTD/svg11.dtd">
<!-- Generated by graphviz version 5.0.1 (20220820.1526)
 -->
<!-- Title: sorting/insertion_sort_recursive.c Pages: 1 -->
<svg width="252pt" height="93pt"
 viewBox="0.00 0.00 252.00 93.00" xmlns="http://www.w3.org/2000/svg" xmlns:xlink="http://www.w3.org/1999/xlink">
<g id="graph0" class="graph" transform="scale(1 1) rotate(0) translate(4 89)">
<title>sorting/insertion_sort_recursive.c</title>
<!-- Node1 -->
<g id="node1" class="node">
<title>Node1</title>
<g id="a_node1"><a xlink:title="Insertion sort algorithm implementation.">
<polygon fill="#999999" stroke="#666666" points="178.5,-85 71.5,-85 71.5,-55 178.5,-55 178.5,-85"/>
<text text-anchor="start" x="79.5" y="-73" font-family="Helvetica,sans-Serif" font-size="10.00">sorting/insertion_sort</text>
<text text-anchor="middle" x="125" y="-62" font-family="Helvetica,sans-Serif" font-size="10.00">_recursive.c</text>
</a>
</g>
</g>
<!-- Node2 -->
<g id="node2" class="node">
<title>Node2</title>
<g id="a_node2"><a xlink:title=" ">
<polygon fill="#e0e0e0" stroke="#999999" points="52,-19 0,-19 0,0 52,0 52,-19"/>
<text text-anchor="middle" x="26" y="-7" font-family="Helvetica,sans-Serif" font-size="10.00">assert.h</text>
</a>
</g>
</g>
<!-- Node1&#45;&gt;Node2 -->
<g id="edge1" class="edge">
<title>Node1&#45;&gt;Node2</title>
<path fill="none" stroke="#63b8ff" d="M101.29,-54.99C85.65,-45.75 65.26,-33.7 49.64,-24.47"/>
<polygon fill="#63b8ff" stroke="#63b8ff" points="51.01,-21.21 40.62,-19.14 47.45,-27.24 51.01,-21.21"/>
</g>
<!-- Node3 -->
<g id="node3" class="node">
<title>Node3</title>
<g id="a_node3"><a xlink:title=" ">
<polygon fill="#e0e0e0" stroke="#999999" points="116,-19 70,-19 70,0 116,0 116,-19"/>
<text text-anchor="middle" x="93" y="-7" font-family="Helvetica,sans-Serif" font-size="10.00">stdio.h</text>
</a>
</g>
</g>
<!-- Node1&#45;&gt;Node3 -->
<g id="edge2" class="edge">
<title>Node1&#45;&gt;Node3</title>
<path fill="none" stroke="#63b8ff" d="M117.25,-54.84C112.85,-46.78 107.29,-36.62 102.6,-28.06"/>
<polygon fill="#63b8ff" stroke="#63b8ff" points="105.66,-26.36 97.8,-19.27 99.52,-29.72 105.66,-26.36"/>
</g>
<!-- Node4 -->
<g id="node4" class="node">
<title>Node4</title>
<g id="a_node4"><a xlink:title=" ">
<polygon fill="#e0e0e0" stroke="#999999" points="182,-19 134,-19 134,0 182,0 182,-19"/>
<text text-anchor="middle" x="158" y="-7" font-family="Helvetica,sans-Serif" font-size="10.00">stdlib.h</text>
</a>
</g>
</g>
<!-- Node1&#45;&gt;Node4 -->
<g id="edge3" class="edge">
<title>Node1&#45;&gt;Node4</title>
<path fill="none" stroke="#63b8ff" d="M132.99,-54.84C137.53,-46.78 143.27,-36.62 148.1,-28.06"/>
<polygon fill="#63b8ff" stroke="#63b8ff" points="151.19,-29.7 153.06,-19.27 145.09,-26.26 151.19,-29.7"/>
</g>
<!-- Node5 -->
<g id="node5" class="node">
<title>Node5</title>
<g id="a_node5"><a xlink:title=" ">
<polygon fill="#e0e0e0" stroke="#999999" points="244,-19 200,-19 200,0 244,0 244,-19"/>
<text text-anchor="middle" x="222" y="-7" font-family="Helvetica,sans-Serif" font-size="10.00">time.h</text>
</a>
</g>
</g>
<!-- Node1&#45;&gt;Node5 -->
<g id="edge4" class="edge">
<title>Node1&#45;&gt;Node5</title>
<path fill="none" stroke="#63b8ff" d="M148.48,-54.84C163.8,-45.6 183.71,-33.59 198.95,-24.4"/>
<polygon fill="#63b8ff" stroke="#63b8ff" points="200.99,-27.26 207.75,-19.09 197.38,-21.26 200.99,-27.26"/>
</g>
</g>
</svg>
