<?xml version="1.0" encoding="UTF-8" standalone="no"?>
<!DOCTYPE svg PUBLIC "-//W3C//DTD SVG 1.1//EN"
 "http://www.w3.org/Graphics/SVG/1.1/DTD/svg11.dtd">
<!-- Generated by graphviz version 8.0.5 (20230430.1635)
 -->
<!-- Title: testArray Pages: 1 -->
<svg width="171pt" height="64pt"
 viewBox="0.00 0.00 170.50 64.25" xmlns="http://www.w3.org/2000/svg" xmlns:xlink="http://www.w3.org/1999/xlink">
<g id="graph0" class="graph" transform="scale(1 1) rotate(0) translate(4 60.25)">
<title>testArray</title>
<!-- Node1 -->
<g id="node1" class="node">
<title>Node1</title>
<g id="a_node1"><a xlink:title="Testing Helper function.">
<polygon fill="#999999" stroke="#666666" points="55.75,-37.25 0,-37.25 0,-18 55.75,-18 55.75,-37.25"/>
<text text-anchor="middle" x="27.88" y="-23.75" font-family="Helvetica,sans-Serif" font-size="10.00">testArray</text>
</a>
</g>
</g>
<!-- Node2 -->
<g id="node2" class="node">
<title>Node2</title>
<g id="a_node2"><a xlink:href="../../d2/d57/patience__sort_8c.html#a5ce3f8e766a38377168ae737605745c8" target="_top" xlink:title="for assertions for IO operations for memory management">
<polygon fill="white" stroke="#666666" points="162.5,-56.25 91.75,-56.25 91.75,-37 162.5,-37 162.5,-56.25"/>
<text text-anchor="middle" x="127.12" y="-42.75" font-family="Helvetica,sans-Serif" font-size="10.00">patienceSort</text>
</a>
</g>
</g>
<!-- Node1&#45;&gt;Node2 -->
<g id="edge1" class="edge">
<title>Node1&#45;&gt;Node2</title>
<path fill="none" stroke="#63b8ff" d="M56.22,-32.97C63.8,-34.45 72.24,-36.1 80.56,-37.72"/>
<polygon fill="#63b8ff" stroke="#63b8ff" points="79.85,-41.35 90.34,-39.83 81.2,-34.48 79.85,-41.35"/>
</g>
<!-- Node3 -->
<g id="node3" class="node">
<title>Node3</title>
<g id="a_node3"><a xlink:href="../../d2/d57/patience__sort_8c.html#a51db6714f25747b7de0daca675363e19" target="_top" xlink:title="Helper function to print an array.">
<polygon fill="white" stroke="#666666" points="156.12,-19.25 98.12,-19.25 98.12,0 156.12,0 156.12,-19.25"/>
<text text-anchor="middle" x="127.12" y="-5.75" font-family="Helvetica,sans-Serif" font-size="10.00">printArray</text>
</a>
</g>
</g>
<!-- Node1&#45;&gt;Node3 -->
<g id="edge2" class="edge">
<title>Node1&#45;&gt;Node3</title>
<path fill="none" stroke="#63b8ff" d="M56.22,-22.56C65.81,-20.79 76.78,-18.76 87.14,-16.84"/>
<polygon fill="#63b8ff" stroke="#63b8ff" points="87.43,-20.16 96.63,-14.9 86.16,-13.28 87.43,-20.16"/>
</g>
</g>
</svg>
