<?xml version="1.0" encoding="UTF-8" standalone="no"?>
<!DOCTYPE svg PUBLIC "-//W3C//DTD SVG 1.1//EN"
 "http://www.w3.org/Graphics/SVG/1.1/DTD/svg11.dtd">
<!-- Generated by graphviz version 8.0.2 (20230410.1723)
 -->
<!-- Title: test Pages: 1 -->
<svg width="240pt" height="64pt"
 viewBox="0.00 0.00 240.00 64.00" xmlns="http://www.w3.org/2000/svg" xmlns:xlink="http://www.w3.org/1999/xlink">
<g id="graph0" class="graph" transform="scale(1 1) rotate(0) translate(4 60)">
<title>test</title>
<!-- Node1 -->
<g id="node1" class="node">
<title>Node1</title>
<g id="a_node1"><a xlink:title="Self&#45;test implementations.">
<polygon fill="#999999" stroke="#666666" points="33,-37 0,-37 0,-18 33,-18 33,-37"/>
<text text-anchor="middle" x="16.5" y="-25" font-family="Helvetica,sans-Serif" font-size="10.00">test</text>
</a>
</g>
</g>
<!-- Node2 -->
<g id="node2" class="node">
<title>Node2</title>
<g id="a_node2"><a xlink:href="../../d2/d57/patience__sort_8c.html#af0cc492037e002ba5145e2e770ed0e66" target="_top" xlink:title="Testing Helper function.">
<polygon fill="white" stroke="#666666" points="125,-37 69,-37 69,-18 125,-18 125,-37"/>
<text text-anchor="middle" x="97" y="-25" font-family="Helvetica,sans-Serif" font-size="10.00">testArray</text>
</a>
</g>
</g>
<!-- Node1&#45;&gt;Node2 -->
<g id="edge1" class="edge">
<title>Node1&#45;&gt;Node2</title>
<path fill="none" stroke="#63b8ff" d="M33.39,-27.5C40.5,-27.5 49.24,-27.5 57.89,-27.5"/>
<polygon fill="#63b8ff" stroke="#63b8ff" points="57.69,-31 67.69,-27.5 57.69,-24 57.69,-31"/>
</g>
<!-- Node3 -->
<g id="node3" class="node">
<title>Node3</title>
<g id="a_node3"><a xlink:href="../../d2/d57/patience__sort_8c.html#a5ce3f8e766a38377168ae737605745c8" target="_top" xlink:title="for assertions for IO operations for memory management">
<polygon fill="white" stroke="#666666" points="232,-56 161,-56 161,-37 232,-37 232,-56"/>
<text text-anchor="middle" x="196.5" y="-44" font-family="Helvetica,sans-Serif" font-size="10.00">patienceSort</text>
</a>
</g>
</g>
<!-- Node2&#45;&gt;Node3 -->
<g id="edge2" class="edge">
<title>Node2&#45;&gt;Node3</title>
<path fill="none" stroke="#63b8ff" d="M125.42,-32.84C133.1,-34.34 141.67,-36.01 150.09,-37.65"/>
<polygon fill="#63b8ff" stroke="#63b8ff" points="149.14,-41.23 159.62,-39.7 150.48,-34.36 149.14,-41.23"/>
</g>
<!-- Node4 -->
<g id="node4" class="node">
<title>Node4</title>
<g id="a_node4"><a xlink:href="../../d2/d57/patience__sort_8c.html#a51db6714f25747b7de0daca675363e19" target="_top" xlink:title="Helper function to print an array.">
<polygon fill="white" stroke="#666666" points="226,-19 167,-19 167,0 226,0 226,-19"/>
<text text-anchor="middle" x="196.5" y="-7" font-family="Helvetica,sans-Serif" font-size="10.00">printArray</text>
</a>
</g>
</g>
<!-- Node2&#45;&gt;Node4 -->
<g id="edge3" class="edge">
<title>Node2&#45;&gt;Node4</title>
<path fill="none" stroke="#63b8ff" d="M125.42,-22.44C134.85,-20.7 145.61,-18.71 155.81,-16.83"/>
<polygon fill="#63b8ff" stroke="#63b8ff" points="156.39,-20.1 165.59,-14.84 155.12,-13.21 156.39,-20.1"/>
</g>
</g>
</svg>
