<?xml version="1.0" encoding="UTF-8" standalone="no"?>
<!DOCTYPE svg PUBLIC "-//W3C//DTD SVG 1.1//EN"
 "http://www.w3.org/Graphics/SVG/1.1/DTD/svg11.dtd">
<!-- Generated by graphviz version 9.0.0 (20230911.1827)
 -->
<!-- Title: testArray Pages: 1 -->
<svg width="171pt" height="64pt"
 viewBox="0.00 0.00 170.50 64.25" xmlns="http://www.w3.org/2000/svg" xmlns:xlink="http://www.w3.org/1999/xlink">
<g id="graph0" class="graph" transform="scale(1 1) rotate(0) translate(4 60.25)">
<title>testArray</title>
<!-- Node1 -->
<g id="Node000001" class="node">
<title>Node1</title>
<g id="a_Node000001"><a xlink:title="Testing Helper function.">
<polygon fill="#999999" stroke="#666666" points="55.75,-37.25 0,-37.25 0,-18 55.75,-18 55.75,-37.25"/>
<text text-anchor="middle" x="27.88" y="-23.75" font-family="Helvetica,sans-Serif" font-size="10.00">testArray</text>
</a>
</g>
</g>
<!-- Node2 -->
<g id="Node000002" class="node">
<title>Node2</title>
<g id="a_Node000002"><a xlink:href="../../d2/d57/patience__sort_8c.html#a5ce3f8e766a38377168ae737605745c8" target="_top" xlink:title="for assertions for IO operations for memory management">
<polygon fill="white" stroke="#666666" points="162.5,-56.25 91.75,-56.25 91.75,-37 162.5,-37 162.5,-56.25"/>
<text text-anchor="middle" x="127.12" y="-42.75" font-family="Helvetica,sans-Serif" font-size="10.00">patienceSort</text>
</a>
</g>
</g>
<!-- Node1&#45;&gt;Node2 -->
<g id="edge1_Node000001_Node000002" class="edge">
<title>Node1&#45;&gt;Node2</title>
<g id="a_edge1_Node000001_Node000002"><a xlink:title=" ">
<path fill="none" stroke="#63b8ff" d="M56.22,-32.97C63.72,-34.43 72.05,-36.06 80.28,-37.67"/>
<polygon fill="#63b8ff" stroke="#63b8ff" points="79.37,-41.06 89.85,-39.54 80.71,-34.19 79.37,-41.06"/>
</a>
</g>
</g>
<!-- Node3 -->
<g id="Node000003" class="node">
<title>Node3</title>
<g id="a_Node000003"><a xlink:href="../../d2/d57/patience__sort_8c.html#a51db6714f25747b7de0daca675363e19" target="_top" xlink:title="Helper function to print an array.">
<polygon fill="white" stroke="#666666" points="156.12,-19.25 98.12,-19.25 98.12,0 156.12,0 156.12,-19.25"/>
<text text-anchor="middle" x="127.12" y="-5.75" font-family="Helvetica,sans-Serif" font-size="10.00">printArray</text>
</a>
</g>
</g>
<!-- Node1&#45;&gt;Node3 -->
<g id="edge2_Node000001_Node000003" class="edge">
<title>Node1&#45;&gt;Node3</title>
<g id="a_edge2_Node000001_Node000003"><a xlink:title=" ">
<path fill="none" stroke="#63b8ff" d="M56.22,-22.56C65.61,-20.83 76.32,-18.84 86.48,-16.96"/>
<polygon fill="#63b8ff" stroke="#63b8ff" points="86.94,-20.44 96.14,-15.18 85.67,-13.55 86.94,-20.44"/>
</a>
</g>
</g>
</g>
</svg>
