<?xml version="1.0" encoding="UTF-8" standalone="no"?>
<!DOCTYPE svg PUBLIC "-//W3C//DTD SVG 1.1//EN"
 "http://www.w3.org/Graphics/SVG/1.1/DTD/svg11.dtd">
<!-- Generated by graphviz version 8.0.5 (20230430.1635)
 -->
<!-- Title: main Pages: 1 -->
<svg width="312pt" height="64pt"
 viewBox="0.00 0.00 312.00 64.25" xmlns="http://www.w3.org/2000/svg" xmlns:xlink="http://www.w3.org/1999/xlink">

<svg id="main" version="1.1" xmlns="http://www.w3.org/2000/svg" xmlns:xlink="http://www.w3.org/1999/xlink" xml:space="preserve" onload="init(evt)">
<style type="text/css"><![CDATA[
.node, .edge {opacity: 0.7;}
.node.selected, .edge.selected {opacity: 1;}
.edge:hover path { stroke: red; }
.edge:hover polygon { stroke: red; fill: red; }
]]></style>
<script type="application/ecmascript" xlink:href="../../svg.min.js"/>
<svg id="graph" class="graph">
<g id="graph0" class="graph" transform="scale(1 1) rotate(0) translate(4 60.25)">
<title>main</title>
<!-- Node1 -->
<g id="Node000001" class="node">
<title>Node1</title>
<g id="a_Node000001"><a xlink:title="Main function.">
<polygon fill="#999999" stroke="#666666" points="37,-37.25 0,-37.25 0,-18 37,-18 37,-37.25"/>
<text text-anchor="middle" x="18.5" y="-23.75" font-family="Helvetica,sans-Serif" font-size="10.00">main</text>
</a>
</g>
</g>
<!-- Node2 -->
<g id="Node000002" class="node">
<title>Node2</title>
<g id="a_Node000002"><a xlink:href="../../d2/d57/patience__sort_8c.html#aa8dca7b867074164d5f45b0f3851269d" target="_top" xlink:title="Self&#45;test implementations.">
<polygon fill="white" stroke="#666666" points="105.5,-37.25 73,-37.25 73,-18 105.5,-18 105.5,-37.25"/>
<text text-anchor="middle" x="89.25" y="-23.75" font-family="Helvetica,sans-Serif" font-size="10.00">test</text>
</a>
</g>
</g>
<!-- Node1&#45;&gt;Node2 -->
<g id="edge1_Node000001_Node000002" class="edge">
<title>Node1&#45;&gt;Node2</title>
<g id="a_edge1_Node000001_Node000002"><a xlink:title=" ">
<path fill="none" stroke="#63b8ff" d="M37.2,-27.62C44.67,-27.62 53.52,-27.62 61.73,-27.62"/>
<polygon fill="#63b8ff" stroke="#63b8ff" points="61.71,-31.13 71.71,-27.62 61.71,-24.13 61.71,-31.13"/>
</a>
</g>
</g>
<!-- Node3 -->
<g id="Node000003" class="node">
<title>Node3</title>
<g id="a_Node000003"><a xlink:href="../../d2/d57/patience__sort_8c.html#af0cc492037e002ba5145e2e770ed0e66" target="_top" xlink:title="Testing Helper function.">
<polygon fill="white" stroke="#666666" points="197.25,-37.25 141.5,-37.25 141.5,-18 197.25,-18 197.25,-37.25"/>
<text text-anchor="middle" x="169.38" y="-23.75" font-family="Helvetica,sans-Serif" font-size="10.00">testArray</text>
</a>
</g>
</g>
<!-- Node2&#45;&gt;Node3 -->
<g id="edge2_Node000002_Node000003" class="edge">
<title>Node2&#45;&gt;Node3</title>
<g id="a_edge2_Node000002_Node000003"><a xlink:title=" ">
<path fill="none" stroke="#63b8ff" d="M105.68,-27.62C112.81,-27.62 121.62,-27.62 130.36,-27.62"/>
<polygon fill="#63b8ff" stroke="#63b8ff" points="130.27,-31.13 140.27,-27.62 130.27,-24.13 130.27,-31.13"/>
</a>
</g>
</g>
<!-- Node4 -->
<g id="Node000004" class="node">
<title>Node4</title>
<g id="a_Node000004"><a xlink:href="../../d2/d57/patience__sort_8c.html#a5ce3f8e766a38377168ae737605745c8" target="_top" xlink:title="for assertions for IO operations for memory management">
<polygon fill="white" stroke="#666666" points="304,-56.25 233.25,-56.25 233.25,-37 304,-37 304,-56.25"/>
<text text-anchor="middle" x="268.62" y="-42.75" font-family="Helvetica,sans-Serif" font-size="10.00">patienceSort</text>
</a>
</g>
</g>
<!-- Node3&#45;&gt;Node4 -->
<g id="edge3_Node000003_Node000004" class="edge">
<title>Node3&#45;&gt;Node4</title>
<g id="a_edge3_Node000003_Node000004"><a xlink:title=" ">
<path fill="none" stroke="#63b8ff" d="M197.72,-32.97C205.3,-34.45 213.74,-36.1 222.06,-37.72"/>
<polygon fill="#63b8ff" stroke="#63b8ff" points="221.35,-41.35 231.84,-39.83 222.7,-34.48 221.35,-41.35"/>
</a>
</g>
</g>
<!-- Node5 -->
<g id="Node000005" class="node">
<title>Node5</title>
<g id="a_Node000005"><a xlink:href="../../d2/d57/patience__sort_8c.html#a51db6714f25747b7de0daca675363e19" target="_top" xlink:title="Helper function to print an array.">
<polygon fill="white" stroke="#666666" points="297.62,-19.25 239.62,-19.25 239.62,0 297.62,0 297.62,-19.25"/>
<text text-anchor="middle" x="268.62" y="-5.75" font-family="Helvetica,sans-Serif" font-size="10.00">printArray</text>
</a>
</g>
</g>
<!-- Node3&#45;&gt;Node5 -->
<g id="edge4_Node000003_Node000005" class="edge">
<title>Node3&#45;&gt;Node5</title>
<g id="a_edge4_Node000003_Node000005"><a xlink:title=" ">
<path fill="none" stroke="#63b8ff" d="M197.72,-22.56C207.31,-20.79 218.28,-18.76 228.64,-16.84"/>
<polygon fill="#63b8ff" stroke="#63b8ff" points="228.93,-20.16 238.13,-14.9 227.66,-13.28 228.93,-20.16"/>
</a>
</g>
</g>
</g>
</svg>
</svg>

<style type='text/css'>
<![CDATA[
[data-mouse-over-selected='false'] { opacity: 0.7; }
[data-mouse-over-selected='true']  { opacity: 1.0; }
]]>
</style>
<script type="application/ecmascript"><![CDATA[
document.addEventListener('DOMContentLoaded', (event) => {
  highlightEdges();
  highlightAdjacentNodes();
});
]]></script>
</svg>
