<?xml version="1.0" encoding="UTF-8" standalone="no"?>
<!DOCTYPE svg PUBLIC "-//W3C//DTD SVG 1.1//EN"
 "http://www.w3.org/Graphics/SVG/1.1/DTD/svg11.dtd">
<!-- Generated by graphviz version 8.0.2 (20230410.1723)
 -->
<!-- Title: testArray Pages: 1 -->
<svg width="171pt" height="64pt"
 viewBox="0.00 0.00 171.00 64.00" xmlns="http://www.w3.org/2000/svg" xmlns:xlink="http://www.w3.org/1999/xlink">
<g id="graph0" class="graph" transform="scale(1 1) rotate(0) translate(4 60)">
<title>testArray</title>
<!-- Node1 -->
<g id="node1" class="node">
<title>Node1</title>
<g id="a_node1"><a xlink:title="Testing Helper function.">
<polygon fill="#999999" stroke="#666666" points="56,-37 0,-37 0,-18 56,-18 56,-37"/>
<text text-anchor="middle" x="28" y="-25" font-family="Helvetica,sans-Serif" font-size="10.00">testArray</text>
</a>
</g>
</g>
<!-- Node2 -->
<g id="node2" class="node">
<title>Node2</title>
<g id="a_node2"><a xlink:href="../../d2/d57/patience__sort_8c.html#a5ce3f8e766a38377168ae737605745c8" target="_top" xlink:title="for assertions for IO operations for memory management">
<polygon fill="white" stroke="#666666" points="163,-56 92,-56 92,-37 163,-37 163,-56"/>
<text text-anchor="middle" x="127.5" y="-44" font-family="Helvetica,sans-Serif" font-size="10.00">patienceSort</text>
</a>
</g>
</g>
<!-- Node1&#45;&gt;Node2 -->
<g id="edge1" class="edge">
<title>Node1&#45;&gt;Node2</title>
<path fill="none" stroke="#63b8ff" d="M56.42,-32.84C64.1,-34.34 72.67,-36.01 81.09,-37.65"/>
<polygon fill="#63b8ff" stroke="#63b8ff" points="80.14,-41.23 90.62,-39.7 81.48,-34.36 80.14,-41.23"/>
</g>
<!-- Node3 -->
<g id="node3" class="node">
<title>Node3</title>
<g id="a_node3"><a xlink:href="../../d2/d57/patience__sort_8c.html#a51db6714f25747b7de0daca675363e19" target="_top" xlink:title="Helper function to print an array.">
<polygon fill="white" stroke="#666666" points="157,-19 98,-19 98,0 157,0 157,-19"/>
<text text-anchor="middle" x="127.5" y="-7" font-family="Helvetica,sans-Serif" font-size="10.00">printArray</text>
</a>
</g>
</g>
<!-- Node1&#45;&gt;Node3 -->
<g id="edge2" class="edge">
<title>Node1&#45;&gt;Node3</title>
<path fill="none" stroke="#63b8ff" d="M56.42,-22.44C65.85,-20.7 76.61,-18.71 86.81,-16.83"/>
<polygon fill="#63b8ff" stroke="#63b8ff" points="87.39,-20.1 96.59,-14.84 86.12,-13.21 87.39,-20.1"/>
</g>
</g>
</svg>
