<?xml version="1.0" encoding="UTF-8" standalone="no"?>
<!DOCTYPE svg PUBLIC "-//W3C//DTD SVG 1.1//EN"
 "http://www.w3.org/Graphics/SVG/1.1/DTD/svg11.dtd">
<!-- Generated by graphviz version 7.0.6 (20230106.0513)
 -->
<!-- Title: geometry/geometry_datatypes.h Pages: 1 -->
<svg width="262pt" height="82pt"
 viewBox="0.00 0.00 261.50 82.00" xmlns="http://www.w3.org/2000/svg" xmlns:xlink="http://www.w3.org/1999/xlink">
<g id="graph0" class="graph" transform="scale(1 1) rotate(0) translate(4 78)">
<title>geometry/geometry_datatypes.h</title>
<!-- Node1 -->
<g id="node1" class="node">
<title>Node1</title>
<g id="a_node1"><a xlink:title="Generic header that provides data types for 3D vectors and quaternions.">
<polygon fill="#999999" stroke="#666666" points="206,-74 49,-74 49,-55 206,-55 206,-74"/>
<text text-anchor="middle" x="127.5" y="-62" font-family="Helvetica,sans-Serif" font-size="10.00">geometry/geometry_datatypes.h</text>
</a>
</g>
</g>
<!-- Node2 -->
<g id="node2" class="node">
<title>Node2</title>
<g id="a_node2"><a xlink:href="../../df/d98/quaternions_8c.html" target="_top" xlink:title="Functions related to 3D quaternions and Euler angles.">
<polygon fill="white" stroke="#666666" points="119,-19 0,-19 0,0 119,0 119,-19"/>
<text text-anchor="middle" x="59.5" y="-7" font-family="Helvetica,sans-Serif" font-size="10.00">geometry/quaternions.c</text>
</a>
</g>
</g>
<!-- Node1&#45;&gt;Node2 -->
<g id="edge1" class="edge">
<title>Node1&#45;&gt;Node2</title>
<path fill="none" stroke="#63b8ff" d="M107.15,-47.64C95.28,-38.39 80.74,-27.05 70.86,-19.36"/>
<polygon fill="#63b8ff" stroke="#63b8ff" points="104.73,-50.19 114.77,-53.58 109.04,-44.67 104.73,-50.19"/>
</g>
<!-- Node3 -->
<g id="node3" class="node">
<title>Node3</title>
<g id="a_node3"><a xlink:href="../../d5/db8/vectors__3d_8c.html" target="_top" xlink:title="Functions related to 3D vector operations.">
<polygon fill="white" stroke="#666666" points="253.5,-19 137.5,-19 137.5,0 253.5,0 253.5,-19"/>
<text text-anchor="middle" x="195.5" y="-7" font-family="Helvetica,sans-Serif" font-size="10.00">geometry/vectors_3d.c</text>
</a>
</g>
</g>
<!-- Node1&#45;&gt;Node3 -->
<g id="edge2" class="edge">
<title>Node1&#45;&gt;Node3</title>
<path fill="none" stroke="#63b8ff" d="M147.85,-47.64C159.72,-38.39 174.26,-27.05 184.14,-19.36"/>
<polygon fill="#63b8ff" stroke="#63b8ff" points="145.96,-44.67 140.23,-53.58 150.27,-50.19 145.96,-44.67"/>
</g>
</g>
</svg>
