<?xml version="1.0" encoding="UTF-8" standalone="no"?>
<!DOCTYPE svg PUBLIC "-//W3C//DTD SVG 1.1//EN"
 "http://www.w3.org/Graphics/SVG/1.1/DTD/svg11.dtd">
<!-- Generated by graphviz version 3.0.0 (20220226.1711)
 -->
<!-- Title: geometry/geometry_datatypes.h Pages: 1 -->
<svg width="262pt" height="84pt"
 viewBox="0.00 0.00 261.50 84.00" xmlns="http://www.w3.org/2000/svg" xmlns:xlink="http://www.w3.org/1999/xlink">
<g id="graph0" class="graph" transform="scale(1 1) rotate(0) translate(4 80)">
<title>geometry/geometry_datatypes.h</title>
<polygon fill="white" stroke="transparent" points="-4,4 -4,-80 257.5,-80 257.5,4 -4,4"/>
<!-- Node1 -->
<g id="node1" class="node">
<title>Node1</title>
<g id="a_node1"><a xlink:title="Generic header that provides data types for 3D vectors and quaternions.">
<polygon fill="#bfbfbf" stroke="black" points="49,-56.5 49,-75.5 206,-75.5 206,-56.5 49,-56.5"/>
<text text-anchor="middle" x="127.5" y="-63.5" font-family="Helvetica,sans-Serif" font-size="10.00">geometry/geometry_datatypes.h</text>
</a>
</g>
</g>
<!-- Node2 -->
<g id="node2" class="node">
<title>Node2</title>
<g id="a_node2"><a xlink:href="../../df/d98/quaternions_8c.html" target="_top" xlink:title="Functions related to 3D quaternions and Euler angles.">
<polygon fill="white" stroke="black" points="0,-0.5 0,-19.5 119,-19.5 119,-0.5 0,-0.5"/>
<text text-anchor="middle" x="59.5" y="-7.5" font-family="Helvetica,sans-Serif" font-size="10.00">geometry/quaternions.c</text>
</a>
</g>
</g>
<!-- Node1&#45;&gt;Node2 -->
<g id="edge1" class="edge">
<title>Node1&#45;&gt;Node2</title>
<path fill="none" stroke="midnightblue" d="M108.74,-50.1C96.5,-40.38 80.94,-28.03 70.62,-19.83"/>
<polygon fill="midnightblue" stroke="midnightblue" points="106.57,-52.85 116.57,-56.32 110.92,-47.36 106.57,-52.85"/>
</g>
<!-- Node3 -->
<g id="node3" class="node">
<title>Node3</title>
<g id="a_node3"><a xlink:href="../../d5/db8/vectors__3d_8c.html" target="_top" xlink:title="Functions related to 3D vector operations.">
<polygon fill="white" stroke="black" points="137.5,-0.5 137.5,-19.5 253.5,-19.5 253.5,-0.5 137.5,-0.5"/>
<text text-anchor="middle" x="195.5" y="-7.5" font-family="Helvetica,sans-Serif" font-size="10.00">geometry/vectors_3d.c</text>
</a>
</g>
</g>
<!-- Node1&#45;&gt;Node3 -->
<g id="edge2" class="edge">
<title>Node1&#45;&gt;Node3</title>
<path fill="none" stroke="midnightblue" d="M146.26,-50.1C158.5,-40.38 174.06,-28.03 184.38,-19.83"/>
<polygon fill="midnightblue" stroke="midnightblue" points="144.08,-47.36 138.43,-56.32 148.43,-52.85 144.08,-47.36"/>
</g>
</g>
</svg>
