<?xml version="1.0" encoding="UTF-8" standalone="no"?>
<!DOCTYPE svg PUBLIC "-//W3C//DTD SVG 1.1//EN"
 "http://www.w3.org/Graphics/SVG/1.1/DTD/svg11.dtd">
<!-- Generated by graphviz version 8.0.5 (20230430.1635)
 -->
<!-- Title: conversions/hexadecimal_to_octal2.c Pages: 1 -->
<svg width="134pt" height="94pt"
 viewBox="0.00 0.00 134.25 93.75" xmlns="http://www.w3.org/2000/svg" xmlns:xlink="http://www.w3.org/1999/xlink">
<g id="graph0" class="graph" transform="scale(1 1) rotate(0) translate(4 89.75)">
<title>conversions/hexadecimal_to_octal2.c</title>
<!-- Node1 -->
<g id="Node000001" class="node">
<title>Node1</title>
<g id="a_Node000001"><a xlink:title="Convert hexadecimal number to octal number (with decimal intermediary)">
<polygon fill="#999999" stroke="#666666" points="126.25,-85.75 0,-85.75 0,-55.25 126.25,-55.25 126.25,-85.75"/>
<text text-anchor="start" x="8" y="-72.25" font-family="Helvetica,sans-Serif" font-size="10.00">conversions/hexadecimal</text>
<text text-anchor="middle" x="63.12" y="-61" font-family="Helvetica,sans-Serif" font-size="10.00">_to_octal2.c</text>
</a>
</g>
</g>
<!-- Node2 -->
<g id="Node000002" class="node">
<title>Node2</title>
<g id="a_Node000002"><a xlink:title=" ">
<polygon fill="#e0e0e0" stroke="#999999" points="53.75,-19.25 8.5,-19.25 8.5,0 53.75,0 53.75,-19.25"/>
<text text-anchor="middle" x="31.12" y="-5.75" font-family="Helvetica,sans-Serif" font-size="10.00">stdio.h</text>
</a>
</g>
</g>
<!-- Node1&#45;&gt;Node2 -->
<g id="edge1_Node000001_Node000002" class="edge">
<title>Node1&#45;&gt;Node2</title>
<g id="a_edge1_Node000001_Node000002"><a xlink:title=" ">
<path fill="none" stroke="#63b8ff" d="M55.21,-54.95C51,-47.19 45.77,-37.56 41.25,-29.26"/>
<polygon fill="#63b8ff" stroke="#63b8ff" points="43.91,-27.82 36.06,-20.7 37.76,-31.16 43.91,-27.82"/>
</a>
</g>
</g>
<!-- Node3 -->
<g id="Node000003" class="node">
<title>Node3</title>
<g id="a_Node000003"><a xlink:title=" ">
<polygon fill="#e0e0e0" stroke="#999999" points="120.25,-19.25 72,-19.25 72,0 120.25,0 120.25,-19.25"/>
<text text-anchor="middle" x="96.12" y="-5.75" font-family="Helvetica,sans-Serif" font-size="10.00">string.h</text>
</a>
</g>
</g>
<!-- Node1&#45;&gt;Node3 -->
<g id="edge2_Node000001_Node000003" class="edge">
<title>Node1&#45;&gt;Node3</title>
<g id="a_edge2_Node000001_Node000003"><a xlink:title=" ">
<path fill="none" stroke="#63b8ff" d="M71.28,-54.95C75.63,-47.19 81.03,-37.56 85.68,-29.26"/>
<polygon fill="#63b8ff" stroke="#63b8ff" points="89.2,-31.14 91.04,-20.7 83.1,-27.71 89.2,-31.14"/>
</a>
</g>
</g>
</g>
</svg>
