<?xml version="1.0" encoding="UTF-8" standalone="no"?>
<!DOCTYPE svg PUBLIC "-//W3C//DTD SVG 1.1//EN"
 "http://www.w3.org/Graphics/SVG/1.1/DTD/svg11.dtd">
<!-- Generated by graphviz version 7.0.6 (20230106.0513)
 -->
<!-- Title: conversions/hexadecimal_to_octal2.c Pages: 1 -->
<svg width="135pt" height="93pt"
 viewBox="0.00 0.00 135.00 93.00" xmlns="http://www.w3.org/2000/svg" xmlns:xlink="http://www.w3.org/1999/xlink">
<g id="graph0" class="graph" transform="scale(1 1) rotate(0) translate(4 89)">
<title>conversions/hexadecimal_to_octal2.c</title>
<!-- Node1 -->
<g id="node1" class="node">
<title>Node1</title>
<g id="a_node1"><a xlink:title="Convert hexadecimal number to octal number (with decimal intermediary)">
<polygon fill="#999999" stroke="#666666" points="127,-85 0,-85 0,-55 127,-55 127,-85"/>
<text text-anchor="start" x="8" y="-73" font-family="Helvetica,sans-Serif" font-size="10.00">conversions/hexadecimal</text>
<text text-anchor="middle" x="63.5" y="-62" font-family="Helvetica,sans-Serif" font-size="10.00">_to_octal2.c</text>
</a>
</g>
</g>
<!-- Node2 -->
<g id="node2" class="node">
<title>Node2</title>
<g id="a_node2"><a xlink:title=" ">
<polygon fill="#e0e0e0" stroke="#999999" points="53.5,-19 7.5,-19 7.5,0 53.5,0 53.5,-19"/>
<text text-anchor="middle" x="30.5" y="-7" font-family="Helvetica,sans-Serif" font-size="10.00">stdio.h</text>
</a>
</g>
</g>
<!-- Node1&#45;&gt;Node2 -->
<g id="edge1" class="edge">
<title>Node1&#45;&gt;Node2</title>
<path fill="none" stroke="#63b8ff" d="M55.34,-54.54C50.99,-46.82 45.59,-37.24 40.93,-28.99"/>
<polygon fill="#63b8ff" stroke="#63b8ff" points="44.1,-27.48 36.14,-20.49 38,-30.92 44.1,-27.48"/>
</g>
<!-- Node3 -->
<g id="node3" class="node">
<title>Node3</title>
<g id="a_node3"><a xlink:title=" ">
<polygon fill="#e0e0e0" stroke="#999999" points="121,-19 72,-19 72,0 121,0 121,-19"/>
<text text-anchor="middle" x="96.5" y="-7" font-family="Helvetica,sans-Serif" font-size="10.00">string.h</text>
</a>
</g>
</g>
<!-- Node1&#45;&gt;Node3 -->
<g id="edge2" class="edge">
<title>Node1&#45;&gt;Node3</title>
<path fill="none" stroke="#63b8ff" d="M71.66,-54.54C76.01,-46.82 81.41,-37.24 86.07,-28.99"/>
<polygon fill="#63b8ff" stroke="#63b8ff" points="89,-30.92 90.86,-20.49 82.9,-27.48 89,-30.92"/>
</g>
</g>
</svg>
