<?xml version="1.0" encoding="UTF-8" standalone="no"?>
<!DOCTYPE svg PUBLIC "-//W3C//DTD SVG 1.1//EN"
 "http://www.w3.org/Graphics/SVG/1.1/DTD/svg11.dtd">
<!-- Generated by graphviz version 3.0.0 (20220226.1711)
 -->
<!-- Title: main Pages: 1 -->
<svg width="157pt" height="142pt"
 viewBox="0.00 0.00 157.00 142.00" xmlns="http://www.w3.org/2000/svg" xmlns:xlink="http://www.w3.org/1999/xlink">
<g id="graph0" class="graph" transform="scale(1 1) rotate(0) translate(4 138)">
<title>main</title>
<polygon fill="white" stroke="transparent" points="-4,4 -4,-138 153,-138 153,4 -4,4"/>
<!-- Node1 -->
<g id="node1" class="node">
<title>Node1</title>
<g id="a_node1"><a xlink:title="Main function.">
<polygon fill="#bfbfbf" stroke="black" points="0,-57.5 0,-76.5 38,-76.5 38,-57.5 0,-57.5"/>
<text text-anchor="middle" x="19" y="-64.5" font-family="Helvetica,sans-Serif" font-size="10.00">main</text>
</a>
</g>
</g>
<!-- Node2 -->
<g id="node2" class="node">
<title>Node2</title>
<g id="a_node2"><a xlink:href="../../db/d01/problem__13_2sol1_8c.html#ad51742ca5a5c99e860bdf30299163bf2" target="_top" xlink:title="Function to add arbitrary length decimal integers stored in an array.">
<polygon fill="white" stroke="black" points="74,-114.5 74,-133.5 149,-133.5 149,-114.5 74,-114.5"/>
<text text-anchor="middle" x="111.5" y="-121.5" font-family="Helvetica,sans-Serif" font-size="10.00">add_numbers</text>
</a>
</g>
</g>
<!-- Node1&#45;&gt;Node2 -->
<g id="edge1" class="edge">
<title>Node1&#45;&gt;Node2</title>
<path fill="none" stroke="midnightblue" d="M32.55,-76.55C43.3,-84.55 59.31,-96.06 74,-105 76.52,-106.53 79.17,-108.06 81.85,-109.55"/>
<polygon fill="midnightblue" stroke="midnightblue" points="80.45,-112.77 90.91,-114.41 83.75,-106.6 80.45,-112.77"/>
</g>
<!-- Node3 -->
<g id="node3" class="node">
<title>Node3</title>
<g id="a_node3"><a xlink:href="../../d1/ded/group__misc.html#ga6f8e8c9d25b5891d57e588d80d75028a" target="_top" xlink:title="Count func counts the number of prime numbers.">
<polygon fill="white" stroke="black" points="91,-76.5 91,-95.5 132,-95.5 132,-76.5 91,-76.5"/>
<text text-anchor="middle" x="111.5" y="-83.5" font-family="Helvetica,sans-Serif" font-size="10.00">count</text>
</a>
</g>
</g>
<!-- Node1&#45;&gt;Node3 -->
<g id="edge2" class="edge">
<title>Node1&#45;&gt;Node3</title>
<path fill="none" stroke="midnightblue" d="M38.31,-70.84C50.5,-73.4 66.78,-76.82 80.79,-79.76"/>
<polygon fill="midnightblue" stroke="midnightblue" points="80.45,-83.27 90.96,-81.9 81.89,-76.42 80.45,-83.27"/>
</g>
<!-- Node4 -->
<g id="node4" class="node">
<title>Node4</title>
<g id="a_node4"><a xlink:href="../../db/d01/problem__13_2sol1_8c.html#ac260f58785fb20eb09bb35385a7d47f8" target="_top" xlink:title="Function to read the number from a file and store it in array.">
<polygon fill="white" stroke="black" points="77.5,-38.5 77.5,-57.5 145.5,-57.5 145.5,-38.5 77.5,-38.5"/>
<text text-anchor="middle" x="111.5" y="-45.5" font-family="Helvetica,sans-Serif" font-size="10.00">get_number</text>
</a>
</g>
</g>
<!-- Node1&#45;&gt;Node4 -->
<g id="edge3" class="edge">
<title>Node1&#45;&gt;Node4</title>
<path fill="none" stroke="midnightblue" d="M38.31,-63.16C46.68,-61.4 56.98,-59.24 67.15,-57.1"/>
<polygon fill="midnightblue" stroke="midnightblue" points="68.14,-60.47 77.2,-54.99 66.7,-53.62 68.14,-60.47"/>
</g>
<!-- Node5 -->
<g id="node5" class="node">
<title>Node5</title>
<g id="a_node5"><a xlink:href="../../db/d01/problem__13_2sol1_8c.html#a248adc917818cc6666d8bc679a660319" target="_top" xlink:title="Function to print a long number.">
<polygon fill="white" stroke="black" points="75,-0.5 75,-19.5 148,-19.5 148,-0.5 75,-0.5"/>
<text text-anchor="middle" x="111.5" y="-7.5" font-family="Helvetica,sans-Serif" font-size="10.00">print_number</text>
</a>
</g>
</g>
<!-- Node1&#45;&gt;Node5 -->
<g id="edge4" class="edge">
<title>Node1&#45;&gt;Node5</title>
<path fill="none" stroke="midnightblue" d="M32.55,-57.45C43.3,-49.45 59.31,-37.94 74,-29 76.52,-27.47 79.17,-25.94 81.85,-24.45"/>
<polygon fill="midnightblue" stroke="midnightblue" points="83.75,-27.4 90.91,-19.59 80.45,-21.23 83.75,-27.4"/>
</g>
</g>
</svg>
