<?xml version="1.0" encoding="UTF-8" standalone="no"?>
<!DOCTYPE svg PUBLIC "-//W3C//DTD SVG 1.1//EN"
 "http://www.w3.org/Graphics/SVG/1.1/DTD/svg11.dtd">
<!-- Generated by graphviz version 5.0.1 (20220820.1526)
 -->
<!-- Title: main Pages: 1 -->
<svg width="157pt" height="101pt"
 viewBox="0.00 0.00 157.00 101.00" xmlns="http://www.w3.org/2000/svg" xmlns:xlink="http://www.w3.org/1999/xlink">
<g id="graph0" class="graph" transform="scale(1 1) rotate(0) translate(4 97)">
<title>main</title>
<!-- Node1 -->
<g id="node1" class="node">
<title>Node1</title>
<g id="a_node1"><a xlink:title="Main function.">
<polygon fill="#999999" stroke="#666666" points="38,-56 0,-56 0,-37 38,-37 38,-56"/>
<text text-anchor="middle" x="19" y="-44" font-family="Helvetica,sans-Serif" font-size="10.00">main</text>
</a>
</g>
</g>
<!-- Node2 -->
<g id="node2" class="node">
<title>Node2</title>
<g id="a_node2"><a xlink:href="../../db/d01/problem__13_2sol1_8c.html#ad51742ca5a5c99e860bdf30299163bf2" target="_top" xlink:title="Function to add arbitrary length decimal integers stored in an array.">
<polygon fill="white" stroke="#666666" points="149,-93 74,-93 74,-74 149,-74 149,-93"/>
<text text-anchor="middle" x="111.5" y="-81" font-family="Helvetica,sans-Serif" font-size="10.00">add_numbers</text>
</a>
</g>
</g>
<!-- Node1&#45;&gt;Node2 -->
<g id="edge1" class="edge">
<title>Node1&#45;&gt;Node2</title>
<path fill="none" stroke="#63b8ff" d="M38.31,-53.99C49.62,-58.61 64.45,-64.67 77.73,-70.1"/>
<polygon fill="#63b8ff" stroke="#63b8ff" points="76.47,-73.37 87.05,-73.91 79.12,-66.89 76.47,-73.37"/>
</g>
<!-- Node3 -->
<g id="node3" class="node">
<title>Node3</title>
<g id="a_node3"><a xlink:href="../../db/d01/problem__13_2sol1_8c.html#ac260f58785fb20eb09bb35385a7d47f8" target="_top" xlink:title="Function to read the number from a file and store it in array.">
<polygon fill="white" stroke="#666666" points="145.5,-56 77.5,-56 77.5,-37 145.5,-37 145.5,-56"/>
<text text-anchor="middle" x="111.5" y="-44" font-family="Helvetica,sans-Serif" font-size="10.00">get_number</text>
</a>
</g>
</g>
<!-- Node1&#45;&gt;Node3 -->
<g id="edge2" class="edge">
<title>Node1&#45;&gt;Node3</title>
<path fill="none" stroke="#63b8ff" d="M38.31,-46.5C46.68,-46.5 56.98,-46.5 67.15,-46.5"/>
<polygon fill="#63b8ff" stroke="#63b8ff" points="67.2,-50 77.2,-46.5 67.2,-43 67.2,-50"/>
</g>
<!-- Node4 -->
<g id="node4" class="node">
<title>Node4</title>
<g id="a_node4"><a xlink:href="../../db/d01/problem__13_2sol1_8c.html#a248adc917818cc6666d8bc679a660319" target="_top" xlink:title="Function to print a long number.">
<polygon fill="white" stroke="#666666" points="148,-19 75,-19 75,0 148,0 148,-19"/>
<text text-anchor="middle" x="111.5" y="-7" font-family="Helvetica,sans-Serif" font-size="10.00">print_number</text>
</a>
</g>
</g>
<!-- Node1&#45;&gt;Node4 -->
<g id="edge3" class="edge">
<title>Node1&#45;&gt;Node4</title>
<path fill="none" stroke="#63b8ff" d="M38.31,-39.01C49.62,-34.39 64.45,-28.33 77.73,-22.9"/>
<polygon fill="#63b8ff" stroke="#63b8ff" points="79.12,-26.11 87.05,-19.09 76.47,-19.63 79.12,-26.11"/>
</g>
</g>
</svg>
