<?xml version="1.0" encoding="UTF-8" standalone="no"?>
<!DOCTYPE svg PUBLIC "-//W3C//DTD SVG 1.1//EN"
 "http://www.w3.org/Graphics/SVG/1.1/DTD/svg11.dtd">
<!-- Generated by graphviz version 2.49.3 (20211023.0002)
 -->
<!-- Title: main Pages: 1 -->
<svg width="160pt" height="142pt"
 viewBox="0.00 0.00 160.00 142.00" xmlns="http://www.w3.org/2000/svg" xmlns:xlink="http://www.w3.org/1999/xlink">
<g id="graph0" class="graph" transform="scale(1 1) rotate(0) translate(4 138)">
<title>main</title>
<polygon fill="white" stroke="transparent" points="-4,4 -4,-138 156,-138 156,4 -4,4"/>
<!-- Node1 -->
<g id="node1" class="node">
<title>Node1</title>
<g id="a_node1"><a xlink:title="Main function.">
<polygon fill="#bfbfbf" stroke="black" points="0,-57.5 0,-76.5 38,-76.5 38,-57.5 0,-57.5"/>
<text text-anchor="middle" x="19" y="-64.5" font-family="Helvetica,sans-Serif" font-size="10.00">main</text>
</a>
</g>
</g>
<!-- Node2 -->
<g id="node2" class="node">
<title>Node2</title>
<g id="a_node2"><a xlink:href="../../db/d01/problem__13_2sol1_8c.html#ad51742ca5a5c99e860bdf30299163bf2" target="_top" xlink:title="Function to add arbitrary length decimal integers stored in an array.">
<polygon fill="white" stroke="black" points="74,-114.5 74,-133.5 152,-133.5 152,-114.5 74,-114.5"/>
<text text-anchor="middle" x="113" y="-121.5" font-family="Helvetica,sans-Serif" font-size="10.00">add_numbers</text>
</a>
</g>
</g>
<!-- Node1&#45;&gt;Node2 -->
<g id="edge1" class="edge">
<title>Node1&#45;&gt;Node2</title>
<path fill="none" stroke="midnightblue" d="M32.51,-76.61C43.24,-84.65 59.24,-96.18 74,-105 76.7,-106.61 79.55,-108.21 82.44,-109.76"/>
<polygon fill="midnightblue" stroke="midnightblue" points="81.09,-113.01 91.58,-114.49 84.31,-106.79 81.09,-113.01"/>
</g>
<!-- Node3 -->
<g id="node3" class="node">
<title>Node3</title>
<g id="a_node3"><a xlink:href="../../d1/ded/group__misc.html#ga6f8e8c9d25b5891d57e588d80d75028a" target="_top" xlink:title="Count func counts the number of prime numbers.">
<polygon fill="white" stroke="black" points="92.5,-76.5 92.5,-95.5 133.5,-95.5 133.5,-76.5 92.5,-76.5"/>
<text text-anchor="middle" x="113" y="-83.5" font-family="Helvetica,sans-Serif" font-size="10.00">count</text>
</a>
</g>
</g>
<!-- Node1&#45;&gt;Node3 -->
<g id="edge2" class="edge">
<title>Node1&#45;&gt;Node3</title>
<path fill="none" stroke="midnightblue" d="M38.18,-70.75C50.73,-73.35 67.72,-76.86 82.24,-79.85"/>
<polygon fill="midnightblue" stroke="midnightblue" points="81.77,-83.33 92.27,-81.93 83.18,-76.47 81.77,-83.33"/>
</g>
<!-- Node4 -->
<g id="node4" class="node">
<title>Node4</title>
<g id="a_node4"><a xlink:href="../../db/d01/problem__13_2sol1_8c.html#ac260f58785fb20eb09bb35385a7d47f8" target="_top" xlink:title="Function to read the number from a file and store it in array.">
<polygon fill="white" stroke="black" points="78,-38.5 78,-57.5 148,-57.5 148,-38.5 78,-38.5"/>
<text text-anchor="middle" x="113" y="-45.5" font-family="Helvetica,sans-Serif" font-size="10.00">get_number</text>
</a>
</g>
</g>
<!-- Node1&#45;&gt;Node4 -->
<g id="edge3" class="edge">
<title>Node1&#45;&gt;Node4</title>
<path fill="none" stroke="midnightblue" d="M38.18,-63.25C46.75,-61.48 57.38,-59.28 67.89,-57.11"/>
<polygon fill="midnightblue" stroke="midnightblue" points="68.76,-60.5 77.85,-55.05 67.35,-53.65 68.76,-60.5"/>
</g>
<!-- Node5 -->
<g id="node5" class="node">
<title>Node5</title>
<g id="a_node5"><a xlink:href="../../db/d01/problem__13_2sol1_8c.html#a248adc917818cc6666d8bc679a660319" target="_top" xlink:title="Function to print a long number.">
<polygon fill="white" stroke="black" points="75.5,-0.5 75.5,-19.5 150.5,-19.5 150.5,-0.5 75.5,-0.5"/>
<text text-anchor="middle" x="113" y="-7.5" font-family="Helvetica,sans-Serif" font-size="10.00">print_number</text>
</a>
</g>
</g>
<!-- Node1&#45;&gt;Node5 -->
<g id="edge4" class="edge">
<title>Node1&#45;&gt;Node5</title>
<path fill="none" stroke="midnightblue" d="M32.51,-57.39C43.24,-49.35 59.24,-37.82 74,-29 76.7,-27.39 79.55,-25.79 82.44,-24.24"/>
<polygon fill="midnightblue" stroke="midnightblue" points="84.31,-27.21 91.58,-19.51 81.09,-20.99 84.31,-27.21"/>
</g>
</g>
</svg>
