<?xml version="1.0" encoding="UTF-8" standalone="no"?>
<!DOCTYPE svg PUBLIC "-//W3C//DTD SVG 1.1//EN"
 "http://www.w3.org/Graphics/SVG/1.1/DTD/svg11.dtd">
<!-- Generated by graphviz version 8.0.5 (20230430.1635)
 -->
<!-- Title: main Pages: 1 -->
<svg width="278pt" height="64pt"
 viewBox="0.00 0.00 278.00 64.25" xmlns="http://www.w3.org/2000/svg" xmlns:xlink="http://www.w3.org/1999/xlink">

<svg id="main" version="1.1" xmlns="http://www.w3.org/2000/svg" xmlns:xlink="http://www.w3.org/1999/xlink" xml:space="preserve" onload="init(evt)">
<style type="text/css"><![CDATA[
.node, .edge {opacity: 0.7;}
.node.selected, .edge.selected {opacity: 1;}
.edge:hover path { stroke: red; }
.edge:hover polygon { stroke: red; fill: red; }
]]></style>
<script type="application/ecmascript" xlink:href="../../svg.min.js"/>
<svg id="graph" class="graph">
<g id="graph0" class="graph" transform="scale(1 1) rotate(0) translate(4 60.25)">
<title>main</title>
<!-- Node1 -->
<g id="Node000001" class="node">
<title>Node1</title>
<g id="a_Node000001"><a xlink:title="Main function.">
<polygon fill="#999999" stroke="#666666" points="37,-38.25 0,-38.25 0,-19 37,-19 37,-38.25"/>
<text text-anchor="middle" x="18.5" y="-24.75" font-family="Helvetica,sans-Serif" font-size="10.00">main</text>
</a>
</g>
</g>
<!-- Node2 -->
<g id="Node000002" class="node">
<title>Node2</title>
<g id="a_Node000002"><a xlink:href="../../dc/d47/realtime__stats_8c.html#a63ddcdaab24f722f0963fa2fbe0ae628" target="_top" xlink:title="continuous mean and variance computance using first value as an approximation for the mean.">
<polygon fill="white" stroke="#666666" points="270,-56.25 181.25,-56.25 181.25,-37 270,-37 270,-56.25"/>
<text text-anchor="middle" x="225.62" y="-42.75" font-family="Helvetica,sans-Serif" font-size="10.00">stats_computer1</text>
</a>
</g>
</g>
<!-- Node1&#45;&gt;Node2 -->
<g id="edge1_Node000001_Node000002" class="edge">
<title>Node1&#45;&gt;Node2</title>
<g id="a_edge1_Node000001_Node000002"><a xlink:title=" ">
<path fill="none" stroke="#63b8ff" d="M37.41,-36.72C47.61,-40.88 60.76,-45.52 73,-47.62 104.86,-53.11 141.05,-53.11 170.08,-51.61"/>
<polygon fill="#63b8ff" stroke="#63b8ff" points="170.05,-55.06 179.83,-50.98 169.64,-48.07 170.05,-55.06"/>
</a>
</g>
</g>
<!-- Node3 -->
<g id="Node000003" class="node">
<title>Node3</title>
<g id="a_Node000003"><a xlink:href="../../dc/d47/realtime__stats_8c.html#a34be233a9200ee2065f6b7b27e2d9a96" target="_top" xlink:title="continuous mean and variance computance using Welford&#39;s algorithm (very accurate)">
<polygon fill="white" stroke="#666666" points="270,-19.25 181.25,-19.25 181.25,0 270,0 270,-19.25"/>
<text text-anchor="middle" x="225.62" y="-5.75" font-family="Helvetica,sans-Serif" font-size="10.00">stats_computer2</text>
</a>
</g>
</g>
<!-- Node1&#45;&gt;Node3 -->
<g id="edge2_Node000001_Node000003" class="edge">
<title>Node1&#45;&gt;Node3</title>
<g id="a_edge2_Node000001_Node000003"><a xlink:title=" ">
<path fill="none" stroke="#63b8ff" d="M37.41,-20.53C47.61,-16.37 60.76,-11.73 73,-9.62 104.86,-4.14 141.05,-3.91 170.08,-5.17"/>
<polygon fill="#63b8ff" stroke="#63b8ff" points="169.66,-8.7 179.83,-5.71 170.02,-1.71 169.66,-8.7"/>
</a>
</g>
</g>
<!-- Node4 -->
<g id="Node000004" class="node">
<title>Node4</title>
<g id="a_Node000004"><a xlink:href="../../dc/d47/realtime__stats_8c.html#aa54c915581fcc495489175a4386d59fd" target="_top" xlink:title="Test the algorithm implementation.">
<polygon fill="white" stroke="#666666" points="145.25,-38.25 73,-38.25 73,-19 145.25,-19 145.25,-38.25"/>
<text text-anchor="middle" x="109.12" y="-24.75" font-family="Helvetica,sans-Serif" font-size="10.00">test_function</text>
</a>
</g>
</g>
<!-- Node1&#45;&gt;Node4 -->
<g id="edge3_Node000001_Node000004" class="edge">
<title>Node1&#45;&gt;Node4</title>
<g id="a_edge3_Node000001_Node000004"><a xlink:title=" ">
<path fill="none" stroke="#63b8ff" d="M37.43,-28.62C44.55,-28.62 53.09,-28.62 61.73,-28.62"/>
<polygon fill="#63b8ff" stroke="#63b8ff" points="61.64,-32.13 71.64,-28.62 61.64,-25.13 61.64,-32.13"/>
</a>
</g>
</g>
<!-- Node4&#45;&gt;Node2 -->
<g id="edge4_Node000004_Node000002" class="edge">
<title>Node4&#45;&gt;Node2</title>
<g id="a_edge4_Node000004_Node000002"><a xlink:title=" ">
<path fill="none" stroke="#63b8ff" d="M145.73,-34.22C153.49,-35.44 161.87,-36.76 170.17,-38.06"/>
<polygon fill="#63b8ff" stroke="#63b8ff" points="169.56,-41.67 179.98,-39.76 170.65,-34.75 169.56,-41.67"/>
</a>
</g>
</g>
<!-- Node4&#45;&gt;Node3 -->
<g id="edge5_Node000004_Node000003" class="edge">
<title>Node4&#45;&gt;Node3</title>
<g id="a_edge5_Node000004_Node000003"><a xlink:title=" ">
<path fill="none" stroke="#63b8ff" d="M145.73,-22.72C153.49,-21.43 161.87,-20.04 170.17,-18.66"/>
<polygon fill="#63b8ff" stroke="#63b8ff" points="170.69,-21.96 179.98,-16.87 169.54,-15.05 170.69,-21.96"/>
</a>
</g>
</g>
</g>
</svg>
</svg>

<style type='text/css'>
<![CDATA[
[data-mouse-over-selected='false'] { opacity: 0.7; }
[data-mouse-over-selected='true']  { opacity: 1.0; }
]]>
</style>
<script type="application/ecmascript"><![CDATA[
document.addEventListener('DOMContentLoaded', (event) => {
  highlightEdges();
  highlightAdjacentNodes();
});
]]></script>
</svg>
