<?xml version="1.0" encoding="UTF-8" standalone="no"?>
<!DOCTYPE svg PUBLIC "-//W3C//DTD SVG 1.1//EN"
 "http://www.w3.org/Graphics/SVG/1.1/DTD/svg11.dtd">
<!-- Generated by graphviz version 8.0.5 (20230430.1635)
 -->
<!-- Title: main Pages: 1 -->
<svg width="362pt" height="119pt"
 viewBox="0.00 0.00 361.50 119.25" xmlns="http://www.w3.org/2000/svg" xmlns:xlink="http://www.w3.org/1999/xlink">

<svg id="main" version="1.1" xmlns="http://www.w3.org/2000/svg" xmlns:xlink="http://www.w3.org/1999/xlink" xml:space="preserve" onload="init(evt)">
<style type="text/css"><![CDATA[
.node, .edge {opacity: 0.7;}
.node.selected, .edge.selected {opacity: 1;}
.edge:hover path { stroke: red; }
.edge:hover polygon { stroke: red; fill: red; }
]]></style>
<script type="application/ecmascript" xlink:href="../../svg.min.js"/>
<svg id="graph" class="graph">
<g id="graph0" class="graph" transform="scale(1 1) rotate(0) translate(4 115.25)">
<title>main</title>
<!-- Node1 -->
<g id="Node000001" class="node">
<title>Node1</title>
<g id="a_Node000001"><a xlink:title="main function">
<polygon fill="#999999" stroke="#666666" points="37,-92.25 0,-92.25 0,-73 37,-73 37,-92.25"/>
<text text-anchor="middle" x="18.5" y="-78.75" font-family="Helvetica,sans-Serif" font-size="10.00">main</text>
</a>
</g>
</g>
<!-- Node2 -->
<g id="Node000002" class="node">
<title>Node2</title>
<g id="a_Node000002"><a xlink:href="../../d4/d68/qr__decompose_8h.html#a90562ce8c3707401e9c5809dece68d6a" target="_top" xlink:title="function to display matrix on stdout">
<polygon fill="white" stroke="#666666" points="146.38,-111.25 79.38,-111.25 79.38,-92 146.38,-92 146.38,-111.25"/>
<text text-anchor="middle" x="112.88" y="-97.75" font-family="Helvetica,sans-Serif" font-size="10.00">print_matrix</text>
</a>
</g>
</g>
<!-- Node1&#45;&gt;Node2 -->
<g id="edge1_Node000001_Node000002" class="edge">
<title>Node1&#45;&gt;Node2</title>
<g id="a_edge1_Node000001_Node000002"><a xlink:title=" ">
<path fill="none" stroke="#63b8ff" d="M37.31,-86.29C46.29,-88.14 57.61,-90.46 68.69,-92.74"/>
<polygon fill="#63b8ff" stroke="#63b8ff" points="67.66,-96.31 78.16,-94.9 69.07,-89.45 67.66,-96.31"/>
</a>
</g>
</g>
<!-- Node3 -->
<g id="Node000003" class="node">
<title>Node3</title>
<g id="a_Node000003"><a xlink:href="../../d4/d68/qr__decompose_8h.html#a45c7640d9d22c89c11beb1f567843c56" target="_top" xlink:title="Decompose matrix &#160;using Gram&#45;Schmidt process.">
<polygon fill="white" stroke="#666666" points="152.75,-74.25 73,-74.25 73,-55 152.75,-55 152.75,-74.25"/>
<text text-anchor="middle" x="112.88" y="-60.75" font-family="Helvetica,sans-Serif" font-size="10.00">qr_decompose</text>
</a>
</g>
</g>
<!-- Node1&#45;&gt;Node3 -->
<g id="edge2_Node000001_Node000003" class="edge">
<title>Node1&#45;&gt;Node3</title>
<g id="a_edge2_Node000001_Node000003"><a xlink:title=" ">
<path fill="none" stroke="#63b8ff" d="M37.31,-79.15C44.47,-77.76 53.11,-76.08 61.93,-74.36"/>
<polygon fill="#63b8ff" stroke="#63b8ff" points="62.55,-77.61 71.7,-72.26 61.21,-70.74 62.55,-77.61"/>
</a>
</g>
</g>
<!-- Node4 -->
<g id="Node000004" class="node">
<title>Node4</title>
<g id="a_Node000004"><a xlink:href="../../d4/d68/qr__decompose_8h.html#a3a584b79941a43d775f9d4ce446dbe05" target="_top" xlink:title="Compute dot product of two vectors of equal lengths.">
<polygon fill="white" stroke="#666666" points="353.5,-93.25 291.75,-93.25 291.75,-74 353.5,-74 353.5,-93.25"/>
<text text-anchor="middle" x="322.62" y="-79.75" font-family="Helvetica,sans-Serif" font-size="10.00">vector_dot</text>
</a>
</g>
</g>
<!-- Node3&#45;&gt;Node4 -->
<g id="edge3_Node000003_Node000004" class="edge">
<title>Node3&#45;&gt;Node4</title>
<g id="a_edge3_Node000003_Node000004"><a xlink:title=" ">
<path fill="none" stroke="#63b8ff" d="M136.21,-74.63C141.66,-77.16 147.45,-79.93 152.75,-82.62 169.07,-90.92 171.03,-98.03 188.75,-102.62 220.27,-110.79 256.98,-104.38 283.81,-96.87"/>
<polygon fill="#63b8ff" stroke="#63b8ff" points="284.72,-99.96 293.3,-93.74 282.72,-93.25 284.72,-99.96"/>
</a>
</g>
</g>
<!-- Node5 -->
<g id="Node000005" class="node">
<title>Node5</title>
<g id="a_Node000005"><a xlink:href="../../d4/d68/qr__decompose_8h.html#abeec1f78a7a7e7251687e75340331212" target="_top" xlink:title="Compute magnitude of vector.">
<polygon fill="white" stroke="#666666" points="255.75,-93.25 188.75,-93.25 188.75,-74 255.75,-74 255.75,-93.25"/>
<text text-anchor="middle" x="222.25" y="-79.75" font-family="Helvetica,sans-Serif" font-size="10.00">vector_mag</text>
</a>
</g>
</g>
<!-- Node3&#45;&gt;Node5 -->
<g id="edge4_Node000003_Node000005" class="edge">
<title>Node3&#45;&gt;Node5</title>
<g id="a_edge4_Node000003_Node000005"><a xlink:title=" ">
<path fill="none" stroke="#63b8ff" d="M153.25,-71.59C161.23,-73 169.67,-74.5 177.78,-75.93"/>
<polygon fill="#63b8ff" stroke="#63b8ff" points="177.12,-79.55 187.58,-77.84 178.34,-72.65 177.12,-79.55"/>
</a>
</g>
</g>
<!-- Node6 -->
<g id="Node000006" class="node">
<title>Node6</title>
<g id="a_Node000006"><a xlink:href="../../d4/d68/qr__decompose_8h.html#a2ed4977f38642dca8b10c16a823c740b" target="_top" xlink:title="Compute projection of vector &#160;on &#160;defined as.">
<polygon fill="white" stroke="#666666" points="254.25,-56.25 190.25,-56.25 190.25,-37 254.25,-37 254.25,-56.25"/>
<text text-anchor="middle" x="222.25" y="-42.75" font-family="Helvetica,sans-Serif" font-size="10.00">vector_proj</text>
</a>
</g>
</g>
<!-- Node3&#45;&gt;Node6 -->
<g id="edge6_Node000003_Node000006" class="edge">
<title>Node3&#45;&gt;Node6</title>
<g id="a_edge6_Node000003_Node000006"><a xlink:title=" ">
<path fill="none" stroke="#63b8ff" d="M153.25,-58.02C161.75,-56.6 170.77,-55.09 179.36,-53.65"/>
<polygon fill="#63b8ff" stroke="#63b8ff" points="179.66,-56.98 188.95,-51.87 178.51,-50.07 179.66,-56.98"/>
</a>
</g>
</g>
<!-- Node7 -->
<g id="Node000007" class="node">
<title>Node7</title>
<g id="a_Node000007"><a xlink:href="../../d4/d68/qr__decompose_8h.html#a5ee39e7c8fce8a604dcf7009ce101c02" target="_top" xlink:title="Compute vector subtraction.">
<polygon fill="white" stroke="#666666" points="254.25,-19.25 190.25,-19.25 190.25,0 254.25,0 254.25,-19.25"/>
<text text-anchor="middle" x="222.25" y="-5.75" font-family="Helvetica,sans-Serif" font-size="10.00">vector_sub</text>
</a>
</g>
</g>
<!-- Node3&#45;&gt;Node7 -->
<g id="edge8_Node000003_Node000007" class="edge">
<title>Node3&#45;&gt;Node7</title>
<g id="a_edge8_Node000003_Node000007"><a xlink:title=" ">
<path fill="none" stroke="#63b8ff" d="M133.57,-54.54C149.92,-46.16 173.41,-34.13 191.96,-24.63"/>
<polygon fill="#63b8ff" stroke="#63b8ff" points="193.38,-27.32 200.68,-19.65 190.18,-21.09 193.38,-27.32"/>
</a>
</g>
</g>
<!-- Node5&#45;&gt;Node4 -->
<g id="edge5_Node000005_Node000004" class="edge">
<title>Node5&#45;&gt;Node4</title>
<g id="a_edge5_Node000005_Node000004"><a xlink:title=" ">
<path fill="none" stroke="#63b8ff" d="M256.01,-83.62C263.85,-83.62 272.31,-83.62 280.48,-83.62"/>
<polygon fill="#63b8ff" stroke="#63b8ff" points="280.34,-87.13 290.34,-83.62 280.34,-80.13 280.34,-87.13"/>
</a>
</g>
</g>
<!-- Node6&#45;&gt;Node4 -->
<g id="edge7_Node000006_Node000004" class="edge">
<title>Node6&#45;&gt;Node4</title>
<g id="a_edge7_Node000006_Node000004"><a xlink:title=" ">
<path fill="none" stroke="#63b8ff" d="M250.13,-56.74C260.76,-60.73 273.15,-65.39 284.6,-69.7"/>
<polygon fill="#63b8ff" stroke="#63b8ff" points="283.18,-73.28 293.78,-73.53 285.65,-66.73 283.18,-73.28"/>
</a>
</g>
</g>
</g>
</svg>
</svg>

<style type='text/css'>
<![CDATA[
[data-mouse-over-selected='false'] { opacity: 0.7; }
[data-mouse-over-selected='true']  { opacity: 1.0; }
]]>
</style>
<script type="application/ecmascript"><![CDATA[
document.addEventListener('DOMContentLoaded', (event) => {
  highlightEdges();
  highlightAdjacentNodes();
});
]]></script>
</svg>
