<?xml version="1.0" encoding="UTF-8" standalone="no"?>
<!DOCTYPE svg PUBLIC "-//W3C//DTD SVG 1.1//EN"
 "http://www.w3.org/Graphics/SVG/1.1/DTD/svg11.dtd">
<!-- Generated by graphviz version 8.0.2 (20230410.1723)
 -->
<!-- Title: main Pages: 1 -->
<svg width="178pt" height="101pt"
 viewBox="0.00 0.00 178.00 101.00" xmlns="http://www.w3.org/2000/svg" xmlns:xlink="http://www.w3.org/1999/xlink">
<g id="graph0" class="graph" transform="scale(1 1) rotate(0) translate(4 97)">
<title>main</title>
<!-- Node1 -->
<g id="node1" class="node">
<title>Node1</title>
<g id="a_node1"><a xlink:title=" ">
<polygon fill="#999999" stroke="#666666" points="38,-56 0,-56 0,-37 38,-37 38,-56"/>
<text text-anchor="middle" x="19" y="-44" font-family="Helvetica,sans-Serif" font-size="10.00">main</text>
</a>
</g>
</g>
<!-- Node2 -->
<g id="node2" class="node">
<title>Node2</title>
<g id="a_node2"><a xlink:href="../../da/d38/durand__kerner__roots_8c.html#a26d5695ebed0818a3e7cf4b10aacab52" target="_top" xlink:title="check for termination condition">
<polygon fill="white" stroke="#666666" points="170,-93 74,-93 74,-74 170,-74 170,-93"/>
<text text-anchor="middle" x="122" y="-81" font-family="Helvetica,sans-Serif" font-size="10.00">check_termination</text>
</a>
</g>
</g>
<!-- Node1&#45;&gt;Node2 -->
<g id="edge1" class="edge">
<title>Node1&#45;&gt;Node2</title>
<path fill="none" stroke="#63b8ff" d="M38.06,-53.11C50.81,-57.79 68.35,-64.21 84.02,-69.95"/>
<polygon fill="#63b8ff" stroke="#63b8ff" points="82.38,-73.45 92.97,-73.6 84.79,-66.87 82.38,-73.45"/>
</g>
<!-- Node3 -->
<g id="node3" class="node">
<title>Node3</title>
<g id="a_node3"><a xlink:href="../../da/d38/durand__kerner__roots_8c.html#a46197e91f478e99a2229562aaaac311e" target="_top" xlink:title="create a textual form of complex number">
<polygon fill="white" stroke="#666666" points="157,-56 87,-56 87,-37 157,-37 157,-56"/>
<text text-anchor="middle" x="122" y="-44" font-family="Helvetica,sans-Serif" font-size="10.00">complex_str</text>
</a>
</g>
</g>
<!-- Node1&#45;&gt;Node3 -->
<g id="edge2" class="edge">
<title>Node1&#45;&gt;Node3</title>
<path fill="none" stroke="#63b8ff" d="M38.06,-46.5C48.61,-46.5 62.43,-46.5 75.76,-46.5"/>
<polygon fill="#63b8ff" stroke="#63b8ff" points="75.76,-50 85.76,-46.5 75.76,-43 75.76,-50"/>
</g>
<!-- Node4 -->
<g id="node4" class="node">
<title>Node4</title>
<g id="a_node4"><a xlink:href="../../da/d38/durand__kerner__roots_8c.html#a321f9781a9744ccdaf0aba89f35ec29c" target="_top" xlink:title="Evaluate the value of a polynomial with given coefficients.">
<polygon fill="white" stroke="#666666" points="159,-19 85,-19 85,0 159,0 159,-19"/>
<text text-anchor="middle" x="122" y="-7" font-family="Helvetica,sans-Serif" font-size="10.00">poly_function</text>
</a>
</g>
</g>
<!-- Node1&#45;&gt;Node4 -->
<g id="edge3" class="edge">
<title>Node1&#45;&gt;Node4</title>
<path fill="none" stroke="#63b8ff" d="M38.06,-39.89C50.81,-35.21 68.35,-28.79 84.02,-23.05"/>
<polygon fill="#63b8ff" stroke="#63b8ff" points="84.79,-26.13 92.97,-19.4 82.38,-19.55 84.79,-26.13"/>
</g>
</g>
</svg>
