<?xml version="1.0" encoding="UTF-8" standalone="no"?>
<!DOCTYPE svg PUBLIC "-//W3C//DTD SVG 1.1//EN"
 "http://www.w3.org/Graphics/SVG/1.1/DTD/svg11.dtd">
<!-- Generated by graphviz version 2.49.3 (20211023.0002)
 -->
<!-- Title: test Pages: 1 -->
<svg width="195pt" height="46pt"
 viewBox="0.00 0.00 195.00 46.00" xmlns="http://www.w3.org/2000/svg" xmlns:xlink="http://www.w3.org/1999/xlink">
<g id="graph0" class="graph" transform="scale(1 1) rotate(0) translate(4 42)">
<title>test</title>
<polygon fill="white" stroke="transparent" points="-4,4 -4,-42 191,-42 191,4 -4,4"/>
<!-- Node1 -->
<g id="node1" class="node">
<title>Node1</title>
<g id="a_node1"><a xlink:title="Test function.">
<polygon fill="#bfbfbf" stroke="black" points="0,-0.5 0,-19.5 33,-19.5 33,-0.5 0,-0.5"/>
<text text-anchor="middle" x="16.5" y="-7.5" font-family="Helvetica,sans-Serif" font-size="10.00">test</text>
</a>
</g>
</g>
<!-- Node2 -->
<g id="node2" class="node">
<title>Node2</title>
<g id="a_node2"><a xlink:href="../../d5/d4c/group__sorting.html#ga98666b73777e308fb06a3c489ce25359" target="_top" xlink:title="Insertion sort algorithm implements using Recursion.">
<polygon fill="white" stroke="black" points="69,-0.5 69,-19.5 187,-19.5 187,-0.5 69,-0.5"/>
<text text-anchor="middle" x="128" y="-7.5" font-family="Helvetica,sans-Serif" font-size="10.00">RecursionInsertionSort</text>
</a>
</g>
</g>
<!-- Node1&#45;&gt;Node2 -->
<g id="edge1" class="edge">
<title>Node1&#45;&gt;Node2</title>
<path fill="none" stroke="midnightblue" d="M33.19,-10C40.3,-10 49.24,-10 58.77,-10"/>
<polygon fill="midnightblue" stroke="midnightblue" points="58.85,-13.5 68.85,-10 58.85,-6.5 58.85,-13.5"/>
</g>
<!-- Node2&#45;&gt;Node2 -->
<g id="edge2" class="edge">
<title>Node2&#45;&gt;Node2</title>
<path fill="none" stroke="midnightblue" d="M111.05,-19.76C102.8,-28.57 108.45,-38 128,-38 140.22,-38 147.01,-34.31 148.37,-29.4"/>
<polygon fill="midnightblue" stroke="midnightblue" points="151.59,-28.01 144.95,-19.76 144.99,-30.35 151.59,-28.01"/>
</g>
</g>
</svg>
