<?xml version="1.0" encoding="UTF-8" standalone="no"?>
<!DOCTYPE svg PUBLIC "-//W3C//DTD SVG 1.1//EN"
 "http://www.w3.org/Graphics/SVG/1.1/DTD/svg11.dtd">
<!-- Generated by graphviz version 7.0.6 (20230106.0513)
 -->
<!-- Title: test Pages: 1 -->
<svg width="193pt" height="45pt"
 viewBox="0.00 0.00 193.00 45.00" xmlns="http://www.w3.org/2000/svg" xmlns:xlink="http://www.w3.org/1999/xlink">
<g id="graph0" class="graph" transform="scale(1 1) rotate(0) translate(4 41)">
<title>test</title>
<!-- Node1 -->
<g id="node1" class="node">
<title>Node1</title>
<g id="a_node1"><a xlink:title="Test function.">
<polygon fill="#999999" stroke="#666666" points="33,-19 0,-19 0,0 33,0 33,-19"/>
<text text-anchor="middle" x="16.5" y="-7" font-family="Helvetica,sans-Serif" font-size="10.00">test</text>
</a>
</g>
</g>
<!-- Node2 -->
<g id="node2" class="node">
<title>Node2</title>
<g id="a_node2"><a xlink:href="../../d5/d4c/group__sorting.html#ga98666b73777e308fb06a3c489ce25359" target="_top" xlink:title="Insertion sort algorithm implements using Recursion.">
<polygon fill="white" stroke="#666666" points="185,-19 69,-19 69,0 185,0 185,-19"/>
<text text-anchor="middle" x="127" y="-7" font-family="Helvetica,sans-Serif" font-size="10.00">RecursionInsertionSort</text>
</a>
</g>
</g>
<!-- Node1&#45;&gt;Node2 -->
<g id="edge1" class="edge">
<title>Node1&#45;&gt;Node2</title>
<path fill="none" stroke="#63b8ff" d="M33.05,-9.5C39.88,-9.5 48.42,-9.5 57.54,-9.5"/>
<polygon fill="#63b8ff" stroke="#63b8ff" points="57.35,-13 67.35,-9.5 57.35,-6 57.35,-13"/>
</g>
<!-- Node2&#45;&gt;Node2 -->
<g id="edge2" class="edge">
<title>Node2&#45;&gt;Node2</title>
<path fill="none" stroke="#63b8ff" d="M109.7,-19.37C101.81,-27.94 107.58,-37 127,-37 137.62,-37 144.16,-34.29 146.61,-30.43"/>
<polygon fill="#63b8ff" stroke="#63b8ff" points="150.08,-29.92 144.61,-20.85 143.23,-31.35 150.08,-29.92"/>
</g>
</g>
</svg>
