<?xml version="1.0" encoding="UTF-8" standalone="no"?>
<!DOCTYPE svg PUBLIC "-//W3C//DTD SVG 1.1//EN"
 "http://www.w3.org/Graphics/SVG/1.1/DTD/svg11.dtd">
<!-- Generated by graphviz version 8.0.5 (20230430.1635)
 -->
<!-- Title: games/hangman.c Pages: 1 -->
<svg width="313pt" height="83pt"
 viewBox="0.00 0.00 312.62 82.50" xmlns="http://www.w3.org/2000/svg" xmlns:xlink="http://www.w3.org/1999/xlink">
<g id="graph0" class="graph" transform="scale(1 1) rotate(0) translate(4 78.5)">
<title>games/hangman.c</title>
<!-- Node1 -->
<g id="node1" class="node">
<title>Node1</title>
<g id="a_node1"><a xlink:title="C implementation of Hangman Game">
<polygon fill="#999999" stroke="#666666" points="201.25,-74.5 105,-74.5 105,-55.25 201.25,-55.25 201.25,-74.5"/>
<text text-anchor="middle" x="153.12" y="-61" font-family="Helvetica,sans-Serif" font-size="10.00">games/hangman.c</text>
</a>
</g>
</g>
<!-- Node2 -->
<g id="node2" class="node">
<title>Node2</title>
<g id="a_node2"><a xlink:title=" ">
<polygon fill="#e0e0e0" stroke="#999999" points="48.25,-19.25 0,-19.25 0,0 48.25,0 48.25,-19.25"/>
<text text-anchor="middle" x="24.12" y="-5.75" font-family="Helvetica,sans-Serif" font-size="10.00">ctype.h</text>
</a>
</g>
</g>
<!-- Node1&#45;&gt;Node2 -->
<g id="edge1" class="edge">
<title>Node1&#45;&gt;Node2</title>
<path fill="none" stroke="#63b8ff" d="M131.24,-54.84C110.67,-46.35 79.63,-33.54 56.25,-23.89"/>
<polygon fill="#63b8ff" stroke="#63b8ff" points="57.69,-20.28 47.12,-19.7 55.02,-26.75 57.69,-20.28"/>
</g>
<!-- Node3 -->
<g id="node3" class="node">
<title>Node3</title>
<g id="a_node3"><a xlink:title=" ">
<polygon fill="#e0e0e0" stroke="#999999" points="111.75,-19.25 66.5,-19.25 66.5,0 111.75,0 111.75,-19.25"/>
<text text-anchor="middle" x="89.12" y="-5.75" font-family="Helvetica,sans-Serif" font-size="10.00">stdio.h</text>
</a>
</g>
</g>
<!-- Node1&#45;&gt;Node3 -->
<g id="edge2" class="edge">
<title>Node1&#45;&gt;Node3</title>
<path fill="none" stroke="#63b8ff" d="M142.27,-54.84C132.93,-47.07 119.23,-35.67 108.08,-26.4"/>
<polygon fill="#63b8ff" stroke="#63b8ff" points="110.75,-23.23 100.82,-19.52 106.27,-28.61 110.75,-23.23"/>
</g>
<!-- Node4 -->
<g id="node4" class="node">
<title>Node4</title>
<g id="a_node4"><a xlink:title=" ">
<polygon fill="#e0e0e0" stroke="#999999" points="176.88,-19.25 129.38,-19.25 129.38,0 176.88,0 176.88,-19.25"/>
<text text-anchor="middle" x="153.12" y="-5.75" font-family="Helvetica,sans-Serif" font-size="10.00">stdlib.h</text>
</a>
</g>
</g>
<!-- Node1&#45;&gt;Node4 -->
<g id="edge3" class="edge">
<title>Node1&#45;&gt;Node4</title>
<path fill="none" stroke="#63b8ff" d="M153.12,-55.08C153.12,-48.42 153.12,-38.99 153.12,-30.53"/>
<polygon fill="#63b8ff" stroke="#63b8ff" points="156.63,-30.61 153.12,-20.61 149.63,-30.61 156.63,-30.61"/>
</g>
<!-- Node5 -->
<g id="node5" class="node">
<title>Node5</title>
<g id="a_node5"><a xlink:title=" ">
<polygon fill="#e0e0e0" stroke="#999999" points="243.25,-19.25 195,-19.25 195,0 243.25,0 243.25,-19.25"/>
<text text-anchor="middle" x="219.12" y="-5.75" font-family="Helvetica,sans-Serif" font-size="10.00">string.h</text>
</a>
</g>
</g>
<!-- Node1&#45;&gt;Node5 -->
<g id="edge4" class="edge">
<title>Node1&#45;&gt;Node5</title>
<path fill="none" stroke="#63b8ff" d="M164.32,-54.84C173.96,-47.07 188.08,-35.67 199.57,-26.4"/>
<polygon fill="#63b8ff" stroke="#63b8ff" points="201.51,-28.53 207.09,-19.52 197.11,-23.08 201.51,-28.53"/>
</g>
<!-- Node6 -->
<g id="node6" class="node">
<title>Node6</title>
<g id="a_node6"><a xlink:title=" ">
<polygon fill="#e0e0e0" stroke="#999999" points="304.62,-19.25 261.62,-19.25 261.62,0 304.62,0 304.62,-19.25"/>
<text text-anchor="middle" x="283.12" y="-5.75" font-family="Helvetica,sans-Serif" font-size="10.00">time.h</text>
</a>
</g>
</g>
<!-- Node1&#45;&gt;Node6 -->
<g id="edge5" class="edge">
<title>Node1&#45;&gt;Node6</title>
<path fill="none" stroke="#63b8ff" d="M175.18,-54.84C196.13,-46.26 227.85,-33.27 251.49,-23.58"/>
<polygon fill="#63b8ff" stroke="#63b8ff" points="252.47,-26.55 260.4,-19.52 249.82,-20.08 252.47,-26.55"/>
</g>
</g>
</svg>
