<?xml version="1.0" encoding="UTF-8" standalone="no"?>
<!DOCTYPE svg PUBLIC "-//W3C//DTD SVG 1.1//EN"
 "http://www.w3.org/Graphics/SVG/1.1/DTD/svg11.dtd">
<!-- Generated by graphviz version 5.0.1 (20220820.1526)
 -->
<!-- Title: main Pages: 1 -->
<svg width="147pt" height="45pt"
 viewBox="0.00 0.00 147.00 45.00" xmlns="http://www.w3.org/2000/svg" xmlns:xlink="http://www.w3.org/1999/xlink">
<g id="graph0" class="graph" transform="scale(1 1) rotate(0) translate(4 41)">
<title>main</title>
<!-- Node1 -->
<g id="node1" class="node">
<title>Node1</title>
<g id="a_node1"><a xlink:title="Main function.">
<polygon fill="#999999" stroke="#666666" points="38,-19 0,-19 0,0 38,0 38,-19"/>
<text text-anchor="middle" x="19" y="-7" font-family="Helvetica,sans-Serif" font-size="10.00">main</text>
</a>
</g>
</g>
<!-- Node2 -->
<g id="node2" class="node">
<title>Node2</title>
<g id="a_node2"><a xlink:href="../../d5/d4c/group__sorting.html#gab99b8a397bdd0bf2903d66c22ba4ba43" target="_top" xlink:title="Merge sort algorithm implementation.">
<polygon fill="white" stroke="#666666" points="139,-19 74,-19 74,0 139,0 139,-19"/>
<text text-anchor="middle" x="106.5" y="-7" font-family="Helvetica,sans-Serif" font-size="10.00">merge_sort</text>
</a>
</g>
</g>
<!-- Node1&#45;&gt;Node2 -->
<g id="edge1" class="edge">
<title>Node1&#45;&gt;Node2</title>
<path fill="none" stroke="#63b8ff" d="M38.13,-9.5C45.68,-9.5 54.79,-9.5 63.83,-9.5"/>
<polygon fill="#63b8ff" stroke="#63b8ff" points="63.92,-13 73.92,-9.5 63.92,-6 63.92,-13"/>
</g>
<!-- Node2&#45;&gt;Node2 -->
<g id="edge2" class="edge">
<title>Node2&#45;&gt;Node2</title>
<path fill="none" stroke="#63b8ff" d="M93.24,-19.08C86.8,-27.73 91.21,-37 106.5,-37 115.81,-37 121.09,-33.56 122.34,-28.91"/>
<polygon fill="#63b8ff" stroke="#63b8ff" points="125.68,-27.87 119.76,-19.08 118.91,-29.64 125.68,-27.87"/>
</g>
</g>
</svg>
