<?xml version="1.0" encoding="UTF-8" standalone="no"?>
<!DOCTYPE svg PUBLIC "-//W3C//DTD SVG 1.1//EN"
 "http://www.w3.org/Graphics/SVG/1.1/DTD/svg11.dtd">
<!-- Generated by graphviz version 2.49.3 (20211023.0002)
 -->
<!-- Title: calloc_dbg Pages: 1 -->
<svg width="180pt" height="66pt"
 viewBox="0.00 0.00 180.00 66.00" xmlns="http://www.w3.org/2000/svg" xmlns:xlink="http://www.w3.org/1999/xlink">
<g id="graph0" class="graph" transform="scale(1 1) rotate(0) translate(4 62)">
<title>calloc_dbg</title>
<polygon fill="white" stroke="transparent" points="-4,4 -4,-62 176,-62 176,4 -4,4"/>
<!-- Node1 -->
<g id="node1" class="node">
<title>Node1</title>
<g id="a_node1"><a xlink:title="calloc_dbg function is a wrapper around the calloc function.">
<polygon fill="#bfbfbf" stroke="black" points="0,-19.5 0,-38.5 64,-38.5 64,-19.5 0,-19.5"/>
<text text-anchor="middle" x="32" y="-26.5" font-family="Helvetica,sans-Serif" font-size="10.00">calloc_dbg</text>
</a>
</g>
</g>
<!-- Node2 -->
<g id="node2" class="node">
<title>Node2</title>
<g id="a_node2"><a xlink:href="../../db/d84/malloc__dbg_8c.html#a062aa89cafd39a97971a2eb22653ff2a" target="_top" xlink:title="addMemInfo function add a memory allocation in the memoryInfo list.">
<polygon fill="white" stroke="black" points="100,-38.5 100,-57.5 172,-57.5 172,-38.5 100,-38.5"/>
<text text-anchor="middle" x="136" y="-45.5" font-family="Helvetica,sans-Serif" font-size="10.00">addMemInfo</text>
</a>
</g>
</g>
<!-- Node1&#45;&gt;Node2 -->
<g id="edge1" class="edge">
<title>Node1&#45;&gt;Node2</title>
<path fill="none" stroke="midnightblue" d="M64.16,-34.8C72.24,-36.31 81.12,-37.96 89.76,-39.57"/>
<polygon fill="midnightblue" stroke="midnightblue" points="89.28,-43.04 99.75,-41.43 90.56,-36.16 89.28,-43.04"/>
</g>
<!-- Node3 -->
<g id="node3" class="node">
<title>Node3</title>
<g id="a_node3"><a xlink:href="../../db/d84/malloc__dbg_8c.html#a2a47e4c38db8c00b80248e5535adf797" target="_top" xlink:title="printLeaks function is used to print all the memory leaks.">
<polygon fill="white" stroke="black" points="104.5,-0.5 104.5,-19.5 167.5,-19.5 167.5,-0.5 104.5,-0.5"/>
<text text-anchor="middle" x="136" y="-7.5" font-family="Helvetica,sans-Serif" font-size="10.00">printLeaks</text>
</a>
</g>
</g>
<!-- Node1&#45;&gt;Node3 -->
<g id="edge2" class="edge">
<title>Node1&#45;&gt;Node3</title>
<path fill="none" stroke="midnightblue" d="M64.16,-23.2C73.74,-21.41 84.42,-19.42 94.53,-17.54"/>
<polygon fill="midnightblue" stroke="midnightblue" points="95.19,-20.98 104.38,-15.7 93.91,-14.09 95.19,-20.98"/>
</g>
</g>
</svg>
