<?xml version="1.0" encoding="UTF-8" standalone="no"?>
<!DOCTYPE svg PUBLIC "-//W3C//DTD SVG 1.1//EN"
 "http://www.w3.org/Graphics/SVG/1.1/DTD/svg11.dtd">
<!-- Generated by graphviz version 9.0.0 (20230911.1827)
 -->
<!-- Title: malloc_dbg Pages: 1 -->
<svg width="180pt" height="138pt"
 viewBox="0.00 0.00 179.50 138.25" xmlns="http://www.w3.org/2000/svg" xmlns:xlink="http://www.w3.org/1999/xlink">
<g id="graph0" class="graph" transform="scale(1 1) rotate(0) translate(4 134.25)">
<title>malloc_dbg</title>
<!-- Node1 -->
<g id="Node000001" class="node">
<title>Node1</title>
<g id="a_Node000001"><a xlink:title="malloc_dbg function is a wrapper around the malloc function.">
<polygon fill="#999999" stroke="#666666" points="65.5,-74.25 0,-74.25 0,-55 65.5,-55 65.5,-74.25"/>
<text text-anchor="middle" x="32.75" y="-60.75" font-family="Helvetica,sans-Serif" font-size="10.00">malloc_dbg</text>
</a>
</g>
</g>
<!-- Node2 -->
<g id="Node000002" class="node">
<title>Node2</title>
<g id="a_Node000002"><a xlink:href="../../db/d84/malloc__dbg_8c.html#a062aa89cafd39a97971a2eb22653ff2a" target="_top" xlink:title="addMemInfo function add a memory allocation in the memoryInfo list.">
<polygon fill="white" stroke="#666666" points="171.5,-130.25 101.5,-130.25 101.5,-111 171.5,-111 171.5,-130.25"/>
<text text-anchor="middle" x="136.5" y="-116.75" font-family="Helvetica,sans-Serif" font-size="10.00">addMemInfo</text>
</a>
</g>
</g>
<!-- Node1&#45;&gt;Node2 -->
<g id="edge1_Node000001_Node000002" class="edge">
<title>Node1&#45;&gt;Node2</title>
<g id="a_edge1_Node000001_Node000002"><a xlink:title=" ">
<path fill="none" stroke="#63b8ff" d="M51.52,-74.74C65.14,-82.47 84.45,-93.33 101.5,-102.62 103.15,-103.53 104.85,-104.45 106.57,-105.37"/>
<polygon fill="#63b8ff" stroke="#63b8ff" points="104.59,-108.28 115.06,-109.9 107.89,-102.11 104.59,-108.28"/>
</a>
</g>
</g>
<!-- Node3 -->
<g id="Node000003" class="node">
<title>Node3</title>
<g id="a_Node000003"><a xlink:href="../../db/d84/malloc__dbg_8c.html#a8ac3a93239838ac88c18df64c58b9275" target="_top" xlink:title="editInfo function is used to edit an element in the memoryInfo list.">
<polygon fill="white" stroke="#666666" points="160.62,-93.25 112.38,-93.25 112.38,-74 160.62,-74 160.62,-93.25"/>
<text text-anchor="middle" x="136.5" y="-79.75" font-family="Helvetica,sans-Serif" font-size="10.00">editInfo</text>
</a>
</g>
</g>
<!-- Node1&#45;&gt;Node3 -->
<g id="edge2_Node000001_Node000003" class="edge">
<title>Node1&#45;&gt;Node3</title>
<g id="a_edge2_Node000001_Node000003"><a xlink:title=" ">
<path fill="none" stroke="#63b8ff" d="M65.94,-70.64C77.01,-72.7 89.44,-75.02 100.7,-77.13"/>
<polygon fill="#63b8ff" stroke="#63b8ff" points="99.94,-80.55 110.41,-78.94 101.23,-73.66 99.94,-80.55"/>
</a>
</g>
</g>
<!-- Node4 -->
<g id="Node000004" class="node">
<title>Node4</title>
<g id="a_Node000004"><a xlink:href="../../db/d84/malloc__dbg_8c.html#acd08c54b257fb81e57f16c94690072f2" target="_top" xlink:title="inList function is used to know if an element is already in the memoryInfo list.">
<polygon fill="white" stroke="#666666" points="156.12,-56.25 116.88,-56.25 116.88,-37 156.12,-37 156.12,-56.25"/>
<text text-anchor="middle" x="136.5" y="-42.75" font-family="Helvetica,sans-Serif" font-size="10.00">inList</text>
</a>
</g>
</g>
<!-- Node1&#45;&gt;Node4 -->
<g id="edge3_Node000001_Node000004" class="edge">
<title>Node1&#45;&gt;Node4</title>
<g id="a_edge3_Node000001_Node000004"><a xlink:title=" ">
<path fill="none" stroke="#63b8ff" d="M65.94,-58.93C78.56,-56.7 92.96,-54.15 105.37,-51.95"/>
<polygon fill="#63b8ff" stroke="#63b8ff" points="105.81,-55.43 115.05,-50.24 104.59,-48.54 105.81,-55.43"/>
</a>
</g>
</g>
<!-- Node5 -->
<g id="Node000005" class="node">
<title>Node5</title>
<g id="a_Node000005"><a xlink:href="../../db/d84/malloc__dbg_8c.html#a2a47e4c38db8c00b80248e5535adf797" target="_top" xlink:title="printLeaks function is used to print all the memory leaks.">
<polygon fill="white" stroke="#666666" points="167,-19.25 106,-19.25 106,0 167,0 167,-19.25"/>
<text text-anchor="middle" x="136.5" y="-5.75" font-family="Helvetica,sans-Serif" font-size="10.00">printLeaks</text>
</a>
</g>
</g>
<!-- Node1&#45;&gt;Node5 -->
<g id="edge4_Node000001_Node000005" class="edge">
<title>Node1&#45;&gt;Node5</title>
<g id="a_edge4_Node000001_Node000005"><a xlink:title=" ">
<path fill="none" stroke="#63b8ff" d="M52.12,-54.51C65.73,-47.04 84.74,-36.64 101.5,-27.62 103.16,-26.73 104.86,-25.82 106.59,-24.9"/>
<polygon fill="#63b8ff" stroke="#63b8ff" points="107.89,-28.17 115.08,-20.38 104.61,-21.99 107.89,-28.17"/>
</a>
</g>
</g>
</g>
</svg>
