<?xml version="1.0" encoding="UTF-8" standalone="no"?>
<!DOCTYPE svg PUBLIC "-//W3C//DTD SVG 1.1//EN"
 "http://www.w3.org/Graphics/SVG/1.1/DTD/svg11.dtd">
<!-- Generated by graphviz version 7.1.0 (20230121.1956)
 -->
<!-- Title: queue Pages: 1 -->
<svg width="110pt" height="184pt"
 viewBox="0.00 0.00 109.50 184.00" xmlns="http://www.w3.org/2000/svg" xmlns:xlink="http://www.w3.org/1999/xlink">
<g id="graph0" class="graph" transform="scale(1 1) rotate(0) translate(4 180)">
<title>queue</title>
<!-- Node1 -->
<g id="node1" class="node">
<title>Node1</title>
<g id="a_node1"><a xlink:title=" ">
<polygon fill="#999999" stroke="#666666" points="43,-19 0,-19 0,0 43,0 43,-19"/>
<text text-anchor="middle" x="21.5" y="-7" font-family="Helvetica,sans-Serif" font-size="10.00">queue</text>
</a>
</g>
</g>
<!-- Node2 -->
<g id="node2" class="node">
<title>Node2</title>
<g id="a_node2"><a xlink:href="../../d5/da1/structnode.html" target="_top" xlink:title="Node, the basic data structure in the tree.">
<polygon fill="white" stroke="#666666" points="40.5,-136 2.5,-136 2.5,-117 40.5,-117 40.5,-136"/>
<text text-anchor="middle" x="21.5" y="-124" font-family="Helvetica,sans-Serif" font-size="10.00">node</text>
</a>
</g>
</g>
<!-- Node2&#45;&gt;Node1 -->
<g id="edge1" class="edge">
<title>Node2&#45;&gt;Node1</title>
<path fill="none" stroke="#9a32cd" stroke-dasharray="5,2" d="M21.5,-105.37C21.5,-79.99 21.5,-37.48 21.5,-19.24"/>
<polygon fill="#9a32cd" stroke="#9a32cd" points="18,-105.34 21.5,-115.34 25,-105.34 18,-105.34"/>
<text text-anchor="middle" x="33" y="-51" font-family="Helvetica,sans-Serif" font-size="10.00"> front</text>
<text text-anchor="middle" x="33" y="-40" font-family="Helvetica,sans-Serif" font-size="10.00">rear</text>
</g>
<!-- Node2&#45;&gt;Node2 -->
<g id="edge2" class="edge">
<title>Node2&#45;&gt;Node2</title>
<path fill="none" stroke="#9a32cd" stroke-dasharray="5,2" d="M41.15,-140.9C50.39,-142.55 58.5,-137.75 58.5,-126.5 58.5,-111.01 43.14,-107.75 30.6,-116.7"/>
<polygon fill="#9a32cd" stroke="#9a32cd" points="42.56,-137.7 31.99,-136.9 39.76,-144.11 42.56,-137.7"/>
<text text-anchor="middle" x="80" y="-168" font-family="Helvetica,sans-Serif" font-size="10.00"> left</text>
<text text-anchor="middle" x="80" y="-157" font-family="Helvetica,sans-Serif" font-size="10.00">leftNode</text>
<text text-anchor="middle" x="80" y="-146" font-family="Helvetica,sans-Serif" font-size="10.00">link</text>
<text text-anchor="middle" x="80" y="-135" font-family="Helvetica,sans-Serif" font-size="10.00">next</text>
<text text-anchor="middle" x="80" y="-124" font-family="Helvetica,sans-Serif" font-size="10.00">par</text>
<text text-anchor="middle" x="80" y="-113" font-family="Helvetica,sans-Serif" font-size="10.00">pre</text>
<text text-anchor="middle" x="80" y="-102" font-family="Helvetica,sans-Serif" font-size="10.00">prev</text>
<text text-anchor="middle" x="80" y="-91" font-family="Helvetica,sans-Serif" font-size="10.00">right</text>
<text text-anchor="middle" x="80" y="-80" font-family="Helvetica,sans-Serif" font-size="10.00">rightNode</text>
</g>
</g>
</svg>
