<?xml version="1.0" encoding="UTF-8" standalone="no"?>
<!DOCTYPE svg PUBLIC "-//W3C//DTD SVG 1.1//EN"
 "http://www.w3.org/Graphics/SVG/1.1/DTD/svg11.dtd">
<!-- Generated by graphviz version 9.0.0 (20230911.1827)
 -->
<!-- Title: conversions/decimal_to_any_base.c Pages: 1 -->
<svg width="394pt" height="94pt"
 viewBox="0.00 0.00 394.38 93.75" xmlns="http://www.w3.org/2000/svg" xmlns:xlink="http://www.w3.org/1999/xlink">

<svg id="main" version="1.1" xmlns="http://www.w3.org/2000/svg" xmlns:xlink="http://www.w3.org/1999/xlink" xml:space="preserve" onload="init(evt)">
<style type="text/css"><![CDATA[
.node, .edge {opacity: 0.7;}
.node.selected, .edge.selected {opacity: 1;}
.edge:hover path { stroke: red; }
.edge:hover polygon { stroke: red; fill: red; }
]]></style>
<script type="application/ecmascript" xlink:href="../../svg.min.js"/>
<svg id="graph" class="graph">
<g id="graph0" class="graph" transform="scale(1 1) rotate(0) translate(4 89.75)">
<title>conversions/decimal_to_any_base.c</title>
<!-- Node1 -->
<g id="Node000001" class="node">
<title>Node1</title>
<g id="a_Node000001"><a xlink:title="Decimal to any&#45;base is a C function wich convert positive decimal integer to any positive ascii base ...">
<polygon fill="#999999" stroke="#666666" points="241.25,-85.75 136,-85.75 136,-55.25 241.25,-55.25 241.25,-85.75"/>
<text text-anchor="start" x="144" y="-72.25" font-family="Helvetica,sans-Serif" font-size="10.00">conversions/decimal</text>
<text text-anchor="middle" x="188.62" y="-61" font-family="Helvetica,sans-Serif" font-size="10.00">_to_any_base.c</text>
</a>
</g>
</g>
<!-- Node2 -->
<g id="Node000002" class="node">
<title>Node2</title>
<g id="a_Node000002"><a xlink:title=" ">
<polygon fill="#e0e0e0" stroke="#999999" points="45.25,-19.25 0,-19.25 0,0 45.25,0 45.25,-19.25"/>
<text text-anchor="middle" x="22.62" y="-5.75" font-family="Helvetica,sans-Serif" font-size="10.00">stdio.h</text>
</a>
</g>
</g>
<!-- Node1&#45;&gt;Node2 -->
<g id="edge1_Node000001_Node000002" class="edge">
<title>Node1&#45;&gt;Node2</title>
<g id="a_edge1_Node000001_Node000002"><a xlink:title=" ">
<path fill="none" stroke="#63b8ff" d="M147.16,-54.8C119.1,-44.84 82.5,-31.86 56.25,-22.55"/>
<polygon fill="#63b8ff" stroke="#63b8ff" points="57.71,-19.35 47.11,-19.31 55.37,-25.95 57.71,-19.35"/>
</a>
</g>
</g>
<!-- Node3 -->
<g id="Node000003" class="node">
<title>Node3</title>
<g id="a_Node000003"><a xlink:title=" ">
<polygon fill="#e0e0e0" stroke="#999999" points="111.75,-19.25 63.5,-19.25 63.5,0 111.75,0 111.75,-19.25"/>
<text text-anchor="middle" x="87.62" y="-5.75" font-family="Helvetica,sans-Serif" font-size="10.00">string.h</text>
</a>
</g>
</g>
<!-- Node1&#45;&gt;Node3 -->
<g id="edge2_Node000001_Node000003" class="edge">
<title>Node1&#45;&gt;Node3</title>
<g id="a_edge2_Node000001_Node000003"><a xlink:title=" ">
<path fill="none" stroke="#63b8ff" d="M163.4,-54.8C148.02,-45.83 128.42,-34.41 113.01,-25.42"/>
<polygon fill="#63b8ff" stroke="#63b8ff" points="114.82,-22.43 104.42,-20.42 111.3,-28.48 114.82,-22.43"/>
</a>
</g>
</g>
<!-- Node4 -->
<g id="Node000004" class="node">
<title>Node4</title>
<g id="a_Node000004"><a xlink:title=" ">
<polygon fill="#e0e0e0" stroke="#999999" points="177.75,-19.25 129.5,-19.25 129.5,0 177.75,0 177.75,-19.25"/>
<text text-anchor="middle" x="153.62" y="-5.75" font-family="Helvetica,sans-Serif" font-size="10.00">stdint.h</text>
</a>
</g>
</g>
<!-- Node1&#45;&gt;Node4 -->
<g id="edge3_Node000001_Node000004" class="edge">
<title>Node1&#45;&gt;Node4</title>
<g id="a_edge3_Node000001_Node000004"><a xlink:title=" ">
<path fill="none" stroke="#63b8ff" d="M179.97,-54.95C175.41,-47.28 169.76,-37.77 164.87,-29.54"/>
<polygon fill="#63b8ff" stroke="#63b8ff" points="167.91,-27.81 159.79,-21 161.9,-31.39 167.91,-27.81"/>
</a>
</g>
</g>
<!-- Node5 -->
<g id="Node000005" class="node">
<title>Node5</title>
<g id="a_Node000005"><a xlink:title=" ">
<polygon fill="#e0e0e0" stroke="#999999" points="251.5,-19.25 195.75,-19.25 195.75,0 251.5,0 251.5,-19.25"/>
<text text-anchor="middle" x="223.62" y="-5.75" font-family="Helvetica,sans-Serif" font-size="10.00">stdbool.h</text>
</a>
</g>
</g>
<!-- Node1&#45;&gt;Node5 -->
<g id="edge4_Node000001_Node000005" class="edge">
<title>Node1&#45;&gt;Node5</title>
<g id="a_edge4_Node000001_Node000005"><a xlink:title=" ">
<path fill="none" stroke="#63b8ff" d="M197.28,-54.95C201.84,-47.28 207.49,-37.77 212.38,-29.54"/>
<polygon fill="#63b8ff" stroke="#63b8ff" points="215.35,-31.39 217.46,-21 209.34,-27.81 215.35,-31.39"/>
</a>
</g>
</g>
<!-- Node6 -->
<g id="Node000006" class="node">
<title>Node6</title>
<g id="a_Node000006"><a xlink:title=" ">
<polygon fill="#e0e0e0" stroke="#999999" points="321.25,-19.25 270,-19.25 270,0 321.25,0 321.25,-19.25"/>
<text text-anchor="middle" x="295.62" y="-5.75" font-family="Helvetica,sans-Serif" font-size="10.00">assert.h</text>
</a>
</g>
</g>
<!-- Node1&#45;&gt;Node6 -->
<g id="edge5_Node000001_Node000006" class="edge">
<title>Node1&#45;&gt;Node6</title>
<g id="a_edge5_Node000001_Node000006"><a xlink:title=" ">
<path fill="none" stroke="#63b8ff" d="M215.35,-54.8C231.8,-45.74 252.8,-34.19 269.2,-25.16"/>
<polygon fill="#63b8ff" stroke="#63b8ff" points="270.82,-28.27 277.89,-20.38 267.44,-22.14 270.82,-28.27"/>
</a>
</g>
</g>
<!-- Node7 -->
<g id="Node000007" class="node">
<title>Node7</title>
<g id="a_Node000007"><a xlink:title=" ">
<polygon fill="#e0e0e0" stroke="#999999" points="386.38,-19.25 338.88,-19.25 338.88,0 386.38,0 386.38,-19.25"/>
<text text-anchor="middle" x="362.62" y="-5.75" font-family="Helvetica,sans-Serif" font-size="10.00">stdlib.h</text>
</a>
</g>
</g>
<!-- Node1&#45;&gt;Node7 -->
<g id="edge6_Node000001_Node000007" class="edge">
<title>Node1&#45;&gt;Node7</title>
<g id="a_edge6_Node000001_Node000007"><a xlink:title=" ">
<path fill="none" stroke="#63b8ff" d="M232.08,-54.8C261.63,-44.8 300.21,-31.74 327.75,-22.43"/>
<polygon fill="#63b8ff" stroke="#63b8ff" points="328.67,-25.81 337.02,-19.29 326.42,-19.18 328.67,-25.81"/>
</a>
</g>
</g>
</g>
</svg>
</svg>

<style type='text/css'>
<![CDATA[
[data-mouse-over-selected='false'] { opacity: 0.7; }
[data-mouse-over-selected='true']  { opacity: 1.0; }
]]>
</style>
<script type="application/ecmascript"><![CDATA[
document.addEventListener('DOMContentLoaded', (event) => {
  highlightEdges();
  highlightAdjacentNodes();
});
]]></script>
</svg>
