<?xml version="1.0" encoding="UTF-8" standalone="no"?>
<!DOCTYPE svg PUBLIC "-//W3C//DTD SVG 1.1//EN"
 "http://www.w3.org/Graphics/SVG/1.1/DTD/svg11.dtd">
<!-- Generated by graphviz version 8.0.5 (20230430.1635)
 -->
<!-- Title: math/palindrome.c Pages: 1 -->
<svg width="197pt" height="83pt"
 viewBox="0.00 0.00 197.25 82.50" xmlns="http://www.w3.org/2000/svg" xmlns:xlink="http://www.w3.org/1999/xlink">
<g id="graph0" class="graph" transform="scale(1 1) rotate(0) translate(4 78.5)">
<title>math/palindrome.c</title>
<!-- Node1 -->
<g id="Node000001" class="node">
<title>Node1</title>
<g id="a_Node000001"><a xlink:title="Program to identify if a number is palindrome number or not.">
<polygon fill="#999999" stroke="#666666" points="145.75,-74.5 49.5,-74.5 49.5,-55.25 145.75,-55.25 145.75,-74.5"/>
<text text-anchor="middle" x="97.62" y="-61" font-family="Helvetica,sans-Serif" font-size="10.00">math/palindrome.c</text>
</a>
</g>
</g>
<!-- Node2 -->
<g id="Node000002" class="node">
<title>Node2</title>
<g id="a_Node000002"><a xlink:title=" ">
<polygon fill="#e0e0e0" stroke="#999999" points="51.25,-19.25 0,-19.25 0,0 51.25,0 51.25,-19.25"/>
<text text-anchor="middle" x="25.62" y="-5.75" font-family="Helvetica,sans-Serif" font-size="10.00">assert.h</text>
</a>
</g>
</g>
<!-- Node1&#45;&gt;Node2 -->
<g id="edge1_Node000001_Node000002" class="edge">
<title>Node1&#45;&gt;Node2</title>
<g id="a_edge1_Node000001_Node000002"><a xlink:title=" ">
<path fill="none" stroke="#63b8ff" d="M85.41,-54.84C74.69,-46.91 58.88,-35.22 46.21,-25.85"/>
<polygon fill="#63b8ff" stroke="#63b8ff" points="48.78,-22.66 38.66,-19.52 44.62,-28.29 48.78,-22.66"/>
</a>
</g>
</g>
<!-- Node3 -->
<g id="Node000003" class="node">
<title>Node3</title>
<g id="a_Node000003"><a xlink:title=" ">
<polygon fill="#e0e0e0" stroke="#999999" points="125.5,-19.25 69.75,-19.25 69.75,0 125.5,0 125.5,-19.25"/>
<text text-anchor="middle" x="97.62" y="-5.75" font-family="Helvetica,sans-Serif" font-size="10.00">stdbool.h</text>
</a>
</g>
</g>
<!-- Node1&#45;&gt;Node3 -->
<g id="edge2_Node000001_Node000003" class="edge">
<title>Node1&#45;&gt;Node3</title>
<g id="a_edge2_Node000001_Node000003"><a xlink:title=" ">
<path fill="none" stroke="#63b8ff" d="M97.62,-55.08C97.62,-48.42 97.62,-38.99 97.62,-30.53"/>
<polygon fill="#63b8ff" stroke="#63b8ff" points="101.13,-30.61 97.62,-20.61 94.13,-30.61 101.13,-30.61"/>
</a>
</g>
</g>
<!-- Node4 -->
<g id="Node000004" class="node">
<title>Node4</title>
<g id="a_Node000004"><a xlink:title=" ">
<polygon fill="#e0e0e0" stroke="#999999" points="189.25,-19.25 144,-19.25 144,0 189.25,0 189.25,-19.25"/>
<text text-anchor="middle" x="166.62" y="-5.75" font-family="Helvetica,sans-Serif" font-size="10.00">stdio.h</text>
</a>
</g>
</g>
<!-- Node1&#45;&gt;Node4 -->
<g id="edge3_Node000001_Node000004" class="edge">
<title>Node1&#45;&gt;Node4</title>
<g id="a_edge3_Node000001_Node000004"><a xlink:title=" ">
<path fill="none" stroke="#63b8ff" d="M109.33,-54.84C119.5,-46.99 134.46,-35.45 146.54,-26.12"/>
<polygon fill="#63b8ff" stroke="#63b8ff" points="148.31,-28.41 154.09,-19.52 144.04,-22.86 148.31,-28.41"/>
</a>
</g>
</g>
</g>
</svg>
