<?xml version="1.0" encoding="UTF-8" standalone="no"?>
<!DOCTYPE svg PUBLIC "-//W3C//DTD SVG 1.1//EN"
 "http://www.w3.org/Graphics/SVG/1.1/DTD/svg11.dtd">
<!-- Generated by graphviz version 7.0.6 (20230106.0513)
 -->
<!-- Title: main Pages: 1 -->
<svg width="180pt" height="46pt"
 viewBox="0.00 0.00 180.00 46.00" xmlns="http://www.w3.org/2000/svg" xmlns:xlink="http://www.w3.org/1999/xlink">
<g id="graph0" class="graph" transform="scale(1 1) rotate(0) translate(4 42)">
<title>main</title>
<!-- Node1 -->
<g id="node1" class="node">
<title>Node1</title>
<g id="a_node1"><a xlink:title="Main function.">
<polygon fill="#999999" stroke="#666666" points="38,-38 0,-38 0,-19 38,-19 38,-38"/>
<text text-anchor="middle" x="19" y="-26" font-family="Helvetica,sans-Serif" font-size="10.00">main</text>
</a>
</g>
</g>
<!-- Node2 -->
<g id="node2" class="node">
<title>Node2</title>
<g id="a_node2"><a xlink:href="../../d8/d75/fibonacci__formula_8c.html#a4d369ae048e0ccc7f515a243533cd946" target="_top" xlink:title="for pow and sqrt for printf for assert">
<polygon fill="white" stroke="#666666" points="172,-38 143,-38 143,-19 172,-19 172,-38"/>
<text text-anchor="middle" x="157.5" y="-26" font-family="Helvetica,sans-Serif" font-size="10.00">fib</text>
</a>
</g>
</g>
<!-- Node1&#45;&gt;Node2 -->
<g id="edge1" class="edge">
<title>Node1&#45;&gt;Node2</title>
<path fill="none" stroke="#63b8ff" d="M38.41,-28.5C62.39,-28.5 104.42,-28.5 131.33,-28.5"/>
<polygon fill="#63b8ff" stroke="#63b8ff" points="131,-32 141,-28.5 131,-25 131,-32"/>
</g>
<!-- Node3 -->
<g id="node3" class="node">
<title>Node3</title>
<g id="a_node3"><a xlink:href="../../d8/d75/fibonacci__formula_8c.html#aa8dca7b867074164d5f45b0f3851269d" target="_top" xlink:title="Self&#45;test implementations.">
<polygon fill="white" stroke="#666666" points="107,-19 74,-19 74,0 107,0 107,-19"/>
<text text-anchor="middle" x="90.5" y="-7" font-family="Helvetica,sans-Serif" font-size="10.00">test</text>
</a>
</g>
</g>
<!-- Node1&#45;&gt;Node3 -->
<g id="edge2" class="edge">
<title>Node1&#45;&gt;Node3</title>
<path fill="none" stroke="#63b8ff" d="M38.26,-23.51C45.8,-21.45 54.7,-19.01 62.94,-16.76"/>
<polygon fill="#63b8ff" stroke="#63b8ff" points="63.77,-20.16 72.49,-14.15 61.92,-13.41 63.77,-20.16"/>
</g>
<!-- Node3&#45;&gt;Node2 -->
<g id="edge3" class="edge">
<title>Node3&#45;&gt;Node2</title>
<path fill="none" stroke="#63b8ff" d="M107.23,-14.1C114.59,-16.25 123.52,-18.86 131.75,-21.27"/>
<polygon fill="#63b8ff" stroke="#63b8ff" points="130.64,-24.59 141.22,-24.03 132.61,-17.87 130.64,-24.59"/>
</g>
</g>
</svg>
