<?xml version="1.0" encoding="UTF-8" standalone="no"?>
<!DOCTYPE svg PUBLIC "-//W3C//DTD SVG 1.1//EN"
 "http://www.w3.org/Graphics/SVG/1.1/DTD/svg11.dtd">
<!-- Generated by graphviz version 8.0.5 (20230430.1635)
 -->
<!-- Title: main Pages: 1 -->
<svg width="178pt" height="46pt"
 viewBox="0.00 0.00 178.30 46.25" xmlns="http://www.w3.org/2000/svg" xmlns:xlink="http://www.w3.org/1999/xlink">
<g id="graph0" class="graph" transform="scale(1 1) rotate(0) translate(4 42.25)">
<title>main</title>
<!-- Node1 -->
<g id="Node000001" class="node">
<title>Node1</title>
<g id="a_Node000001"><a xlink:title="Main function.">
<polygon fill="#999999" stroke="#666666" points="37,-38.25 0,-38.25 0,-19 37,-19 37,-38.25"/>
<text text-anchor="middle" x="18.5" y="-24.75" font-family="Helvetica,sans-Serif" font-size="10.00">main</text>
</a>
</g>
</g>
<!-- Node2 -->
<g id="Node000002" class="node">
<title>Node2</title>
<g id="a_Node000002"><a xlink:href="../../d8/d75/fibonacci__formula_8c.html#a4d369ae048e0ccc7f515a243533cd946" target="_top" xlink:title="for pow and sqrt for printf for assert">
<polygon fill="white" stroke="#666666" points="170.3,-38.25 141.5,-38.25 141.5,-19 170.3,-19 170.3,-38.25"/>
<text text-anchor="middle" x="155.9" y="-24.75" font-family="Helvetica,sans-Serif" font-size="10.00">fib</text>
</a>
</g>
</g>
<!-- Node1&#45;&gt;Node2 -->
<g id="edge1_Node000001_Node000002" class="edge">
<title>Node1&#45;&gt;Node2</title>
<g id="a_edge1_Node000001_Node000002"><a xlink:title=" ">
<path fill="none" stroke="#63b8ff" d="M37.48,-28.62C61.42,-28.62 103.84,-28.62 130.6,-28.62"/>
<polygon fill="#63b8ff" stroke="#63b8ff" points="130.35,-32.13 140.35,-28.62 130.35,-25.13 130.35,-32.13"/>
</a>
</g>
</g>
<!-- Node3 -->
<g id="Node000003" class="node">
<title>Node3</title>
<g id="a_Node000003"><a xlink:href="../../d8/d75/fibonacci__formula_8c.html#aa8dca7b867074164d5f45b0f3851269d" target="_top" xlink:title="Self&#45;test implementations.">
<polygon fill="white" stroke="#666666" points="105.5,-19.25 73,-19.25 73,0 105.5,0 105.5,-19.25"/>
<text text-anchor="middle" x="89.25" y="-5.75" font-family="Helvetica,sans-Serif" font-size="10.00">test</text>
</a>
</g>
</g>
<!-- Node1&#45;&gt;Node3 -->
<g id="edge2_Node000001_Node000003" class="edge">
<title>Node1&#45;&gt;Node3</title>
<g id="a_edge2_Node000001_Node000003"><a xlink:title=" ">
<path fill="none" stroke="#63b8ff" d="M37.2,-23.73C44.84,-21.62 53.92,-19.11 62.3,-16.8"/>
<polygon fill="#63b8ff" stroke="#63b8ff" points="63,-19.96 71.71,-13.92 61.14,-13.21 63,-19.96"/>
</a>
</g>
</g>
<!-- Node3&#45;&gt;Node2 -->
<g id="edge3_Node000003_Node000002" class="edge">
<title>Node3&#45;&gt;Node2</title>
<g id="a_edge3_Node000003_Node000002"><a xlink:title=" ">
<path fill="none" stroke="#63b8ff" d="M105.9,-14.22C113.38,-16.42 122.51,-19.11 130.85,-21.56"/>
<polygon fill="#63b8ff" stroke="#63b8ff" points="129.57,-25.12 140.15,-24.58 131.54,-18.41 129.57,-25.12"/>
</a>
</g>
</g>
</g>
</svg>
