<?xml version="1.0" encoding="UTF-8" standalone="no"?>
<!DOCTYPE svg PUBLIC "-//W3C//DTD SVG 1.1//EN"
 "http://www.w3.org/Graphics/SVG/1.1/DTD/svg11.dtd">
<!-- Generated by graphviz version 8.0.2 (20230410.1723)
 -->
<!-- Title: main Pages: 1 -->
<svg width="180pt" height="46pt"
 viewBox="0.00 0.00 180.00 46.00" xmlns="http://www.w3.org/2000/svg" xmlns:xlink="http://www.w3.org/1999/xlink">
<g id="graph0" class="graph" transform="scale(1 1) rotate(0) translate(4 42)">
<title>main</title>
<!-- Node1 -->
<g id="node1" class="node">
<title>Node1</title>
<g id="a_node1"><a xlink:title="Main function.">
<polygon fill="#999999" stroke="#666666" points="38,-38 0,-38 0,-19 38,-19 38,-38"/>
<text text-anchor="middle" x="19" y="-26" font-family="Helvetica,sans-Serif" font-size="10.00">main</text>
</a>
</g>
</g>
<!-- Node2 -->
<g id="node2" class="node">
<title>Node2</title>
<g id="a_node2"><a xlink:href="../../d8/d75/fibonacci__formula_8c.html#a4d369ae048e0ccc7f515a243533cd946" target="_top" xlink:title="for pow and sqrt for printf for assert">
<polygon fill="white" stroke="#666666" points="172,-38 143,-38 143,-19 172,-19 172,-38"/>
<text text-anchor="middle" x="157.5" y="-26" font-family="Helvetica,sans-Serif" font-size="10.00">fib</text>
</a>
</g>
</g>
<!-- Node1&#45;&gt;Node2 -->
<g id="edge1" class="edge">
<title>Node1&#45;&gt;Node2</title>
<path fill="none" stroke="#63b8ff" d="M38.41,-28.5C62.5,-28.5 104.8,-28.5 131.69,-28.5"/>
<polygon fill="#63b8ff" stroke="#63b8ff" points="131.51,-32 141.51,-28.5 131.51,-25 131.51,-32"/>
</g>
<!-- Node3 -->
<g id="node3" class="node">
<title>Node3</title>
<g id="a_node3"><a xlink:href="../../d8/d75/fibonacci__formula_8c.html#aa8dca7b867074164d5f45b0f3851269d" target="_top" xlink:title="Self&#45;test implementations.">
<polygon fill="white" stroke="#666666" points="107,-19 74,-19 74,0 107,0 107,-19"/>
<text text-anchor="middle" x="90.5" y="-7" font-family="Helvetica,sans-Serif" font-size="10.00">test</text>
</a>
</g>
</g>
<!-- Node1&#45;&gt;Node3 -->
<g id="edge2" class="edge">
<title>Node1&#45;&gt;Node3</title>
<path fill="none" stroke="#63b8ff" d="M38.26,-23.51C45.98,-21.4 55.11,-18.9 63.51,-16.61"/>
<polygon fill="#63b8ff" stroke="#63b8ff" points="64.23,-19.76 72.95,-13.75 62.38,-13.01 64.23,-19.76"/>
</g>
<!-- Node3&#45;&gt;Node2 -->
<g id="edge3" class="edge">
<title>Node3&#45;&gt;Node2</title>
<path fill="none" stroke="#63b8ff" d="M107.23,-14.1C114.76,-16.3 123.93,-18.98 132.32,-21.43"/>
<polygon fill="#63b8ff" stroke="#63b8ff" points="131.1,-25.01 141.68,-24.46 133.06,-18.29 131.1,-25.01"/>
</g>
</g>
</svg>
