<?xml version="1.0" encoding="UTF-8" standalone="no"?>
<!DOCTYPE svg PUBLIC "-//W3C//DTD SVG 1.1//EN"
 "http://www.w3.org/Graphics/SVG/1.1/DTD/svg11.dtd">
<!-- Generated by graphviz version 8.0.2 (20230410.1723)
 -->
<!-- Title: tests Pages: 1 -->
<svg width="583pt" height="70pt"
 viewBox="0.00 0.00 583.00 69.50" xmlns="http://www.w3.org/2000/svg" xmlns:xlink="http://www.w3.org/1999/xlink">
<g id="graph0" class="graph" transform="scale(1 1) rotate(0) translate(4 65.5)">
<title>tests</title>
<!-- Node1 -->
<g id="node1" class="node">
<title>Node1</title>
<g id="a_node1"><a xlink:title="Test multiple strings.">
<polygon fill="#999999" stroke="#666666" points="38,-37 0,-37 0,-18 38,-18 38,-37"/>
<text text-anchor="middle" x="19" y="-25" font-family="Helvetica,sans-Serif" font-size="10.00">tests</text>
</a>
</g>
</g>
<!-- Node2 -->
<g id="node2" class="node">
<title>Node2</title>
<g id="a_node2"><a xlink:href="../../d8/daf/affine_8c.html#a0c4679d9b7da3c5b310586cd6c1fc2c5" target="_top" xlink:title="Tests a given string.">
<polygon fill="white" stroke="#666666" points="136,-37 74,-37 74,-18 136,-18 136,-37"/>
<text text-anchor="middle" x="105" y="-25" font-family="Helvetica,sans-Serif" font-size="10.00">test_string</text>
</a>
</g>
</g>
<!-- Node1&#45;&gt;Node2 -->
<g id="edge1" class="edge">
<title>Node1&#45;&gt;Node2</title>
<path fill="none" stroke="#63b8ff" d="M38.23,-27.5C45.49,-27.5 54.16,-27.5 62.79,-27.5"/>
<polygon fill="#63b8ff" stroke="#63b8ff" points="62.59,-31 72.59,-27.5 62.59,-24 62.59,-31"/>
</g>
<!-- Node3 -->
<g id="node3" class="node">
<title>Node3</title>
<g id="a_node3"><a xlink:href="../../d8/daf/affine_8c.html#a310ff5abff6e8d74949ee35552737d37" target="_top" xlink:title="Decrypts an affine ciphertext.">
<polygon fill="white" stroke="#666666" points="250,-56 172,-56 172,-37 250,-37 250,-56"/>
<text text-anchor="middle" x="211" y="-44" font-family="Helvetica,sans-Serif" font-size="10.00">affine_decrypt</text>
</a>
</g>
</g>
<!-- Node2&#45;&gt;Node3 -->
<g id="edge2" class="edge">
<title>Node2&#45;&gt;Node3</title>
<path fill="none" stroke="#63b8ff" d="M136.36,-33.05C144.12,-34.46 152.66,-36.02 161.09,-37.56"/>
<polygon fill="#63b8ff" stroke="#63b8ff" points="160.17,-41.14 170.64,-39.49 161.43,-34.25 160.17,-41.14"/>
</g>
<!-- Node7 -->
<g id="node7" class="node">
<title>Node7</title>
<g id="a_node7"><a xlink:href="../../d8/daf/affine_8c.html#a0e9b074b109264adec79026eed67e875" target="_top" xlink:title="Encrypts character string s with key.">
<polygon fill="white" stroke="#666666" points="250,-19 172,-19 172,0 250,0 250,-19"/>
<text text-anchor="middle" x="211" y="-7" font-family="Helvetica,sans-Serif" font-size="10.00">affine_encrypt</text>
</a>
</g>
</g>
<!-- Node2&#45;&gt;Node7 -->
<g id="edge6" class="edge">
<title>Node2&#45;&gt;Node7</title>
<path fill="none" stroke="#63b8ff" d="M136.36,-22.25C144.03,-20.92 152.47,-19.46 160.8,-18.01"/>
<polygon fill="#63b8ff" stroke="#63b8ff" points="161.38,-21.29 170.64,-16.14 160.19,-14.4 161.38,-21.29"/>
</g>
<!-- Node4 -->
<g id="node4" class="node">
<title>Node4</title>
<g id="a_node4"><a xlink:href="../../d8/daf/affine_8c.html#af5a0c4b8aa0d2d1f670529da61979c8d" target="_top" xlink:title="Given a valid affine cipher key, this function will produce the inverse key.">
<polygon fill="white" stroke="#666666" points="355,-56 286,-56 286,-37 355,-37 355,-56"/>
<text text-anchor="middle" x="320.5" y="-44" font-family="Helvetica,sans-Serif" font-size="10.00">inverse_key</text>
</a>
</g>
</g>
<!-- Node3&#45;&gt;Node4 -->
<g id="edge3" class="edge">
<title>Node3&#45;&gt;Node4</title>
<path fill="none" stroke="#63b8ff" d="M250.2,-46.5C258.17,-46.5 266.63,-46.5 274.81,-46.5"/>
<polygon fill="#63b8ff" stroke="#63b8ff" points="274.71,-50 284.71,-46.5 274.71,-43 274.71,-50"/>
</g>
<!-- Node5 -->
<g id="node5" class="node">
<title>Node5</title>
<g id="a_node5"><a xlink:href="../../d8/daf/affine_8c.html#a06c3bb0ae5d5e9ddc65f8fce1b82e1dd" target="_top" xlink:title="finds the value x such that (a * x) % m = 1">
<polygon fill="white" stroke="#666666" points="504,-61.5 391,-61.5 391,-31.5 504,-31.5 504,-61.5"/>
<text text-anchor="start" x="399" y="-49.5" font-family="Helvetica,sans-Serif" font-size="10.00">modular_multiplicative</text>
<text text-anchor="middle" x="447.5" y="-38.5" font-family="Helvetica,sans-Serif" font-size="10.00">_inverse</text>
</a>
</g>
</g>
<!-- Node4&#45;&gt;Node5 -->
<g id="edge4" class="edge">
<title>Node4&#45;&gt;Node5</title>
<path fill="none" stroke="#63b8ff" d="M355.33,-46.5C363.05,-46.5 371.53,-46.5 380.1,-46.5"/>
<polygon fill="#63b8ff" stroke="#63b8ff" points="379.96,-50 389.96,-46.5 379.96,-43 379.96,-50"/>
</g>
<!-- Node6 -->
<g id="node6" class="node">
<title>Node6</title>
<g id="a_node6"><a xlink:href="../../df/dfa/vector_8c.html#af2f92e8cc55e764980bc0573ab5cd06f" target="_top" xlink:title="This function gets the next item from the Vector each time it&#39;s called.">
<polygon fill="white" stroke="#666666" points="575,-56 540,-56 540,-37 575,-37 575,-56"/>
<text text-anchor="middle" x="557.5" y="-44" font-family="Helvetica,sans-Serif" font-size="10.00">next</text>
</a>
</g>
</g>
<!-- Node5&#45;&gt;Node6 -->
<g id="edge5" class="edge">
<title>Node5&#45;&gt;Node6</title>
<path fill="none" stroke="#63b8ff" d="M504.4,-46.5C512.91,-46.5 521.36,-46.5 528.9,-46.5"/>
<polygon fill="#63b8ff" stroke="#63b8ff" points="528.87,-50 538.87,-46.5 528.87,-43 528.87,-50"/>
</g>
</g>
</svg>
