<?xml version="1.0" encoding="UTF-8" standalone="no"?>
<!DOCTYPE svg PUBLIC "-//W3C//DTD SVG 1.1//EN"
 "http://www.w3.org/Graphics/SVG/1.1/DTD/svg11.dtd">
<!-- Generated by graphviz version 8.0.2 (20230410.1723)
 -->
<!-- Title: inverse_key Pages: 1 -->
<svg width="297pt" height="38pt"
 viewBox="0.00 0.00 297.00 38.00" xmlns="http://www.w3.org/2000/svg" xmlns:xlink="http://www.w3.org/1999/xlink">
<g id="graph0" class="graph" transform="scale(1 1) rotate(0) translate(4 34)">
<title>inverse_key</title>
<!-- Node1 -->
<g id="node1" class="node">
<title>Node1</title>
<g id="a_node1"><a xlink:title="Given a valid affine cipher key, this function will produce the inverse key.">
<polygon fill="#999999" stroke="#666666" points="69,-24.5 0,-24.5 0,-5.5 69,-5.5 69,-24.5"/>
<text text-anchor="middle" x="34.5" y="-12.5" font-family="Helvetica,sans-Serif" font-size="10.00">inverse_key</text>
</a>
</g>
</g>
<!-- Node2 -->
<g id="node2" class="node">
<title>Node2</title>
<g id="a_node2"><a xlink:href="../../d8/daf/affine_8c.html#a06c3bb0ae5d5e9ddc65f8fce1b82e1dd" target="_top" xlink:title="finds the value x such that (a * x) % m = 1">
<polygon fill="white" stroke="#666666" points="218,-30 105,-30 105,0 218,0 218,-30"/>
<text text-anchor="start" x="113" y="-18" font-family="Helvetica,sans-Serif" font-size="10.00">modular_multiplicative</text>
<text text-anchor="middle" x="161.5" y="-7" font-family="Helvetica,sans-Serif" font-size="10.00">_inverse</text>
</a>
</g>
</g>
<!-- Node1&#45;&gt;Node2 -->
<g id="edge1" class="edge">
<title>Node1&#45;&gt;Node2</title>
<path fill="none" stroke="#63b8ff" d="M69.33,-15C77.05,-15 85.53,-15 94.1,-15"/>
<polygon fill="#63b8ff" stroke="#63b8ff" points="93.96,-18.5 103.96,-15 93.96,-11.5 93.96,-18.5"/>
</g>
<!-- Node3 -->
<g id="node3" class="node">
<title>Node3</title>
<g id="a_node3"><a xlink:href="../../df/dfa/vector_8c.html#af2f92e8cc55e764980bc0573ab5cd06f" target="_top" xlink:title="This function gets the next item from the Vector each time it&#39;s called.">
<polygon fill="white" stroke="#666666" points="289,-24.5 254,-24.5 254,-5.5 289,-5.5 289,-24.5"/>
<text text-anchor="middle" x="271.5" y="-12.5" font-family="Helvetica,sans-Serif" font-size="10.00">next</text>
</a>
</g>
</g>
<!-- Node2&#45;&gt;Node3 -->
<g id="edge2" class="edge">
<title>Node2&#45;&gt;Node3</title>
<path fill="none" stroke="#63b8ff" d="M218.4,-15C226.91,-15 235.36,-15 242.9,-15"/>
<polygon fill="#63b8ff" stroke="#63b8ff" points="242.87,-18.5 252.87,-15 242.87,-11.5 242.87,-18.5"/>
</g>
</g>
</svg>
