<?xml version="1.0" encoding="UTF-8" standalone="no"?>
<!DOCTYPE svg PUBLIC "-//W3C//DTD SVG 1.1//EN"
 "http://www.w3.org/Graphics/SVG/1.1/DTD/svg11.dtd">
<!-- Generated by graphviz version 8.0.2 (20230410.1723)
 -->
<!-- Title: affine_decrypt Pages: 1 -->
<svg width="411pt" height="38pt"
 viewBox="0.00 0.00 411.00 38.00" xmlns="http://www.w3.org/2000/svg" xmlns:xlink="http://www.w3.org/1999/xlink">
<g id="graph0" class="graph" transform="scale(1 1) rotate(0) translate(4 34)">
<title>affine_decrypt</title>
<!-- Node1 -->
<g id="node1" class="node">
<title>Node1</title>
<g id="a_node1"><a xlink:title="Decrypts an affine ciphertext.">
<polygon fill="#999999" stroke="#666666" points="78,-24.5 0,-24.5 0,-5.5 78,-5.5 78,-24.5"/>
<text text-anchor="middle" x="39" y="-12.5" font-family="Helvetica,sans-Serif" font-size="10.00">affine_decrypt</text>
</a>
</g>
</g>
<!-- Node2 -->
<g id="node2" class="node">
<title>Node2</title>
<g id="a_node2"><a xlink:href="../../d8/daf/affine_8c.html#af5a0c4b8aa0d2d1f670529da61979c8d" target="_top" xlink:title="Given a valid affine cipher key, this function will produce the inverse key.">
<polygon fill="white" stroke="#666666" points="183,-24.5 114,-24.5 114,-5.5 183,-5.5 183,-24.5"/>
<text text-anchor="middle" x="148.5" y="-12.5" font-family="Helvetica,sans-Serif" font-size="10.00">inverse_key</text>
</a>
</g>
</g>
<!-- Node1&#45;&gt;Node2 -->
<g id="edge1" class="edge">
<title>Node1&#45;&gt;Node2</title>
<path fill="none" stroke="#63b8ff" d="M78.2,-15C86.17,-15 94.63,-15 102.81,-15"/>
<polygon fill="#63b8ff" stroke="#63b8ff" points="102.71,-18.5 112.71,-15 102.71,-11.5 102.71,-18.5"/>
</g>
<!-- Node3 -->
<g id="node3" class="node">
<title>Node3</title>
<g id="a_node3"><a xlink:href="../../d8/daf/affine_8c.html#a06c3bb0ae5d5e9ddc65f8fce1b82e1dd" target="_top" xlink:title="finds the value x such that (a * x) % m = 1">
<polygon fill="white" stroke="#666666" points="332,-30 219,-30 219,0 332,0 332,-30"/>
<text text-anchor="start" x="227" y="-18" font-family="Helvetica,sans-Serif" font-size="10.00">modular_multiplicative</text>
<text text-anchor="middle" x="275.5" y="-7" font-family="Helvetica,sans-Serif" font-size="10.00">_inverse</text>
</a>
</g>
</g>
<!-- Node2&#45;&gt;Node3 -->
<g id="edge2" class="edge">
<title>Node2&#45;&gt;Node3</title>
<path fill="none" stroke="#63b8ff" d="M183.33,-15C191.05,-15 199.53,-15 208.1,-15"/>
<polygon fill="#63b8ff" stroke="#63b8ff" points="207.96,-18.5 217.96,-15 207.96,-11.5 207.96,-18.5"/>
</g>
<!-- Node4 -->
<g id="node4" class="node">
<title>Node4</title>
<g id="a_node4"><a xlink:href="../../df/dfa/vector_8c.html#af2f92e8cc55e764980bc0573ab5cd06f" target="_top" xlink:title="This function gets the next item from the Vector each time it&#39;s called.">
<polygon fill="white" stroke="#666666" points="403,-24.5 368,-24.5 368,-5.5 403,-5.5 403,-24.5"/>
<text text-anchor="middle" x="385.5" y="-12.5" font-family="Helvetica,sans-Serif" font-size="10.00">next</text>
</a>
</g>
</g>
<!-- Node3&#45;&gt;Node4 -->
<g id="edge3" class="edge">
<title>Node3&#45;&gt;Node4</title>
<path fill="none" stroke="#63b8ff" d="M332.4,-15C340.91,-15 349.36,-15 356.9,-15"/>
<polygon fill="#63b8ff" stroke="#63b8ff" points="356.87,-18.5 366.87,-15 356.87,-11.5 356.87,-18.5"/>
</g>
</g>
</svg>
