<?xml version="1.0" encoding="UTF-8" standalone="no"?>
<!DOCTYPE svg PUBLIC "-//W3C//DTD SVG 1.1//EN"
 "http://www.w3.org/Graphics/SVG/1.1/DTD/svg11.dtd">
<!-- Generated by graphviz version 8.0.5 (20230430.1635)
 -->
<!-- Title: main Pages: 1 -->
<svg width="654pt" height="70pt"
 viewBox="0.00 0.00 654.00 69.88" xmlns="http://www.w3.org/2000/svg" xmlns:xlink="http://www.w3.org/1999/xlink">
<g id="graph0" class="graph" transform="scale(1 1) rotate(0) translate(4 65.88)">
<title>main</title>
<!-- Node1 -->
<g id="Node000001" class="node">
<title>Node1</title>
<g id="a_Node000001"><a xlink:title="main function">
<polygon fill="#999999" stroke="#666666" points="37,-37.25 0,-37.25 0,-18 37,-18 37,-37.25"/>
<text text-anchor="middle" x="18.5" y="-23.75" font-family="Helvetica,sans-Serif" font-size="10.00">main</text>
</a>
</g>
</g>
<!-- Node2 -->
<g id="Node000002" class="node">
<title>Node2</title>
<g id="a_Node000002"><a xlink:href="../../d8/daf/affine_8c.html#a483bb8ccf42aaf7375a83e91490eda1e" target="_top" xlink:title="Test multiple strings.">
<polygon fill="white" stroke="#666666" points="110.75,-37.25 73,-37.25 73,-18 110.75,-18 110.75,-37.25"/>
<text text-anchor="middle" x="91.88" y="-23.75" font-family="Helvetica,sans-Serif" font-size="10.00">tests</text>
</a>
</g>
</g>
<!-- Node1&#45;&gt;Node2 -->
<g id="edge1_Node000001_Node000002" class="edge">
<title>Node1&#45;&gt;Node2</title>
<g id="a_edge1_Node000001_Node000002"><a xlink:title=" ">
<path fill="none" stroke="#63b8ff" d="M37.14,-27.62C44.64,-27.62 53.57,-27.62 61.98,-27.62"/>
<polygon fill="#63b8ff" stroke="#63b8ff" points="61.94,-31.13 71.94,-27.62 61.94,-24.13 61.94,-31.13"/>
</a>
</g>
</g>
<!-- Node3 -->
<g id="Node000003" class="node">
<title>Node3</title>
<g id="a_Node000003"><a xlink:href="../../d8/daf/affine_8c.html#a0c4679d9b7da3c5b310586cd6c1fc2c5" target="_top" xlink:title="Tests a given string.">
<polygon fill="white" stroke="#666666" points="208.5,-37.25 146.75,-37.25 146.75,-18 208.5,-18 208.5,-37.25"/>
<text text-anchor="middle" x="177.62" y="-23.75" font-family="Helvetica,sans-Serif" font-size="10.00">test_string</text>
</a>
</g>
</g>
<!-- Node2&#45;&gt;Node3 -->
<g id="edge2_Node000002_Node000003" class="edge">
<title>Node2&#45;&gt;Node3</title>
<g id="a_edge2_Node000002_Node000003"><a xlink:title=" ">
<path fill="none" stroke="#63b8ff" d="M111.05,-27.62C118.29,-27.62 126.93,-27.62 135.54,-27.62"/>
<polygon fill="#63b8ff" stroke="#63b8ff" points="135.3,-31.13 145.3,-27.62 135.3,-24.13 135.3,-31.13"/>
</a>
</g>
</g>
<!-- Node4 -->
<g id="Node000004" class="node">
<title>Node4</title>
<g id="a_Node000004"><a xlink:href="../../d8/daf/affine_8c.html#a310ff5abff6e8d74949ee35552737d37" target="_top" xlink:title="Decrypts an affine ciphertext.">
<polygon fill="white" stroke="#666666" points="322,-56.25 244.5,-56.25 244.5,-37 322,-37 322,-56.25"/>
<text text-anchor="middle" x="283.25" y="-42.75" font-family="Helvetica,sans-Serif" font-size="10.00">affine_decrypt</text>
</a>
</g>
</g>
<!-- Node3&#45;&gt;Node4 -->
<g id="edge3_Node000003_Node000004" class="edge">
<title>Node3&#45;&gt;Node4</title>
<g id="a_edge3_Node000003_Node000004"><a xlink:title=" ">
<path fill="none" stroke="#63b8ff" d="M208.88,-33.17C216.52,-34.57 224.92,-36.11 233.23,-37.64"/>
<polygon fill="#63b8ff" stroke="#63b8ff" points="232.56,-41.26 243.03,-39.62 233.82,-34.37 232.56,-41.26"/>
</a>
</g>
</g>
<!-- Node8 -->
<g id="Node000008" class="node">
<title>Node8</title>
<g id="a_Node000008"><a xlink:href="../../d8/daf/affine_8c.html#a0e9b074b109264adec79026eed67e875" target="_top" xlink:title="Encrypts character string s with key.">
<polygon fill="white" stroke="#666666" points="322,-19.25 244.5,-19.25 244.5,0 322,0 322,-19.25"/>
<text text-anchor="middle" x="283.25" y="-5.75" font-family="Helvetica,sans-Serif" font-size="10.00">affine_encrypt</text>
</a>
</g>
</g>
<!-- Node3&#45;&gt;Node8 -->
<g id="edge7_Node000003_Node000008" class="edge">
<title>Node3&#45;&gt;Node8</title>
<g id="a_edge7_Node000003_Node000008"><a xlink:title=" ">
<path fill="none" stroke="#63b8ff" d="M208.88,-22.37C216.52,-21.04 224.92,-19.58 233.23,-18.14"/>
<polygon fill="#63b8ff" stroke="#63b8ff" points="233.77,-21.42 243.03,-16.26 232.58,-14.53 233.77,-21.42"/>
</a>
</g>
</g>
<!-- Node5 -->
<g id="Node000005" class="node">
<title>Node5</title>
<g id="a_Node000005"><a xlink:href="../../d8/daf/affine_8c.html#af5a0c4b8aa0d2d1f670529da61979c8d" target="_top" xlink:title="Given a valid affine cipher key, this function will produce the inverse key.">
<polygon fill="white" stroke="#666666" points="426.5,-56.25 358,-56.25 358,-37 426.5,-37 426.5,-56.25"/>
<text text-anchor="middle" x="392.25" y="-42.75" font-family="Helvetica,sans-Serif" font-size="10.00">inverse_key</text>
</a>
</g>
</g>
<!-- Node4&#45;&gt;Node5 -->
<g id="edge4_Node000004_Node000005" class="edge">
<title>Node4&#45;&gt;Node5</title>
<g id="a_edge4_Node000004_Node000005"><a xlink:title=" ">
<path fill="none" stroke="#63b8ff" d="M322.28,-46.62C330.2,-46.62 338.63,-46.62 346.77,-46.62"/>
<polygon fill="#63b8ff" stroke="#63b8ff" points="346.61,-50.13 356.61,-46.62 346.61,-43.13 346.61,-50.13"/>
</a>
</g>
</g>
<!-- Node6 -->
<g id="Node000006" class="node">
<title>Node6</title>
<g id="a_Node000006"><a xlink:href="../../d8/daf/affine_8c.html#a06c3bb0ae5d5e9ddc65f8fce1b82e1dd" target="_top" xlink:title="finds the value x such that (a * x) % m = 1">
<polygon fill="white" stroke="#666666" points="575.25,-61.88 462.5,-61.88 462.5,-31.38 575.25,-31.38 575.25,-61.88"/>
<text text-anchor="start" x="470.5" y="-48.38" font-family="Helvetica,sans-Serif" font-size="10.00">modular_multiplicative</text>
<text text-anchor="middle" x="518.88" y="-37.12" font-family="Helvetica,sans-Serif" font-size="10.00">_inverse</text>
</a>
</g>
</g>
<!-- Node5&#45;&gt;Node6 -->
<g id="edge5_Node000005_Node000006" class="edge">
<title>Node5&#45;&gt;Node6</title>
<g id="a_edge5_Node000005_Node000006"><a xlink:title=" ">
<path fill="none" stroke="#63b8ff" d="M426.98,-46.62C434.49,-46.62 442.72,-46.62 451.06,-46.62"/>
<polygon fill="#63b8ff" stroke="#63b8ff" points="451.03,-50.13 461.03,-46.62 451.03,-43.13 451.03,-50.13"/>
</a>
</g>
</g>
<!-- Node7 -->
<g id="Node000007" class="node">
<title>Node7</title>
<g id="a_Node000007"><a xlink:href="../../df/dfa/vector_8c.html#af2f92e8cc55e764980bc0573ab5cd06f" target="_top" xlink:title="This function gets the next item from the Vector each time it&#39;s called.">
<polygon fill="white" stroke="#666666" points="646,-56.25 611.25,-56.25 611.25,-37 646,-37 646,-56.25"/>
<text text-anchor="middle" x="628.62" y="-42.75" font-family="Helvetica,sans-Serif" font-size="10.00">next</text>
</a>
</g>
</g>
<!-- Node6&#45;&gt;Node7 -->
<g id="edge6_Node000006_Node000007" class="edge">
<title>Node6&#45;&gt;Node7</title>
<g id="a_edge6_Node000006_Node000007"><a xlink:title=" ">
<path fill="none" stroke="#63b8ff" d="M575.64,-46.62C584.14,-46.62 592.57,-46.62 600.09,-46.62"/>
<polygon fill="#63b8ff" stroke="#63b8ff" points="600.04,-50.13 610.04,-46.62 600.04,-43.13 600.04,-50.13"/>
</a>
</g>
</g>
</g>
</svg>
