<?xml version="1.0" encoding="UTF-8" standalone="no"?>
<!DOCTYPE svg PUBLIC "-//W3C//DTD SVG 1.1//EN"
 "http://www.w3.org/Graphics/SVG/1.1/DTD/svg11.dtd">
<!-- Generated by graphviz version 8.0.5 (20230430.1635)
 -->
<!-- Title: conversions/int_to_string.c Pages: 1 -->
<svg width="392pt" height="94pt"
 viewBox="0.00 0.00 392.12 93.75" xmlns="http://www.w3.org/2000/svg" xmlns:xlink="http://www.w3.org/1999/xlink">
<g id="graph0" class="graph" transform="scale(1 1) rotate(0) translate(4 89.75)">
<title>conversions/int_to_string.c</title>
<!-- Node1 -->
<g id="Node000001" class="node">
<title>Node1</title>
<g id="a_Node000001"><a xlink:title="Convert a positive integer to string (non&#45;standard function) representation.">
<polygon fill="#999999" stroke="#666666" points="248.38,-85.75 152.88,-85.75 152.88,-55.25 248.38,-55.25 248.38,-85.75"/>
<text text-anchor="start" x="160.88" y="-72.25" font-family="Helvetica,sans-Serif" font-size="10.00">conversions/int_to</text>
<text text-anchor="middle" x="200.62" y="-61" font-family="Helvetica,sans-Serif" font-size="10.00">_string.c</text>
</a>
</g>
</g>
<!-- Node2 -->
<g id="Node000002" class="node">
<title>Node2</title>
<g id="a_Node000002"><a xlink:title=" ">
<polygon fill="#e0e0e0" stroke="#999999" points="51.25,-19.25 0,-19.25 0,0 51.25,0 51.25,-19.25"/>
<text text-anchor="middle" x="25.62" y="-5.75" font-family="Helvetica,sans-Serif" font-size="10.00">assert.h</text>
</a>
</g>
</g>
<!-- Node1&#45;&gt;Node2 -->
<g id="edge1_Node000001_Node000002" class="edge">
<title>Node1&#45;&gt;Node2</title>
<g id="a_edge1_Node000001_Node000002"><a xlink:title=" ">
<path fill="none" stroke="#63b8ff" d="M156.92,-54.8C127.69,-44.96 89.68,-32.18 62.09,-22.89"/>
<polygon fill="#63b8ff" stroke="#63b8ff" points="63.29,-19.27 52.7,-19.4 61.06,-25.9 63.29,-19.27"/>
</a>
</g>
</g>
<!-- Node3 -->
<g id="Node000003" class="node">
<title>Node3</title>
<g id="a_Node000003"><a xlink:title=" ">
<polygon fill="#e0e0e0" stroke="#999999" points="128,-19.25 69.25,-19.25 69.25,0 128,0 128,-19.25"/>
<text text-anchor="middle" x="98.62" y="-5.75" font-family="Helvetica,sans-Serif" font-size="10.00">inttypes.h</text>
</a>
</g>
</g>
<!-- Node1&#45;&gt;Node3 -->
<g id="edge2_Node000001_Node000003" class="edge">
<title>Node1&#45;&gt;Node3</title>
<g id="a_edge2_Node000001_Node000003"><a xlink:title=" ">
<path fill="none" stroke="#63b8ff" d="M175.15,-54.8C159.32,-45.66 139.06,-33.97 123.37,-24.91"/>
<polygon fill="#63b8ff" stroke="#63b8ff" points="125.68,-21.62 115.27,-19.65 122.18,-27.68 125.68,-21.62"/>
</a>
</g>
</g>
<!-- Node4 -->
<g id="Node000004" class="node">
<title>Node4</title>
<g id="a_Node000004"><a xlink:title=" ">
<polygon fill="#e0e0e0" stroke="#999999" points="191.25,-19.25 146,-19.25 146,0 191.25,0 191.25,-19.25"/>
<text text-anchor="middle" x="168.62" y="-5.75" font-family="Helvetica,sans-Serif" font-size="10.00">stdio.h</text>
</a>
</g>
</g>
<!-- Node1&#45;&gt;Node4 -->
<g id="edge3_Node000001_Node000004" class="edge">
<title>Node1&#45;&gt;Node4</title>
<g id="a_edge3_Node000001_Node000004"><a xlink:title=" ">
<path fill="none" stroke="#63b8ff" d="M192.71,-54.95C188.5,-47.19 183.27,-37.56 178.75,-29.26"/>
<polygon fill="#63b8ff" stroke="#63b8ff" points="181.41,-27.82 173.56,-20.7 175.26,-31.16 181.41,-27.82"/>
</a>
</g>
</g>
<!-- Node5 -->
<g id="Node000005" class="node">
<title>Node5</title>
<g id="a_Node000005"><a xlink:title=" ">
<polygon fill="#e0e0e0" stroke="#999999" points="256.38,-19.25 208.88,-19.25 208.88,0 256.38,0 256.38,-19.25"/>
<text text-anchor="middle" x="232.62" y="-5.75" font-family="Helvetica,sans-Serif" font-size="10.00">stdlib.h</text>
</a>
</g>
</g>
<!-- Node1&#45;&gt;Node5 -->
<g id="edge4_Node000001_Node000005" class="edge">
<title>Node1&#45;&gt;Node5</title>
<g id="a_edge4_Node000001_Node000005"><a xlink:title=" ">
<path fill="none" stroke="#63b8ff" d="M208.54,-54.95C212.75,-47.19 217.98,-37.56 222.5,-29.26"/>
<polygon fill="#63b8ff" stroke="#63b8ff" points="225.99,-31.16 227.69,-20.7 219.84,-27.82 225.99,-31.16"/>
</a>
</g>
</g>
<!-- Node6 -->
<g id="Node000006" class="node">
<title>Node6</title>
<g id="a_Node000006"><a xlink:title=" ">
<polygon fill="#e0e0e0" stroke="#999999" points="322.75,-19.25 274.5,-19.25 274.5,0 322.75,0 322.75,-19.25"/>
<text text-anchor="middle" x="298.62" y="-5.75" font-family="Helvetica,sans-Serif" font-size="10.00">string.h</text>
</a>
</g>
</g>
<!-- Node1&#45;&gt;Node6 -->
<g id="edge5_Node000001_Node000006" class="edge">
<title>Node1&#45;&gt;Node6</title>
<g id="a_edge5_Node000001_Node000006"><a xlink:title=" ">
<path fill="none" stroke="#63b8ff" d="M225.1,-54.8C240.17,-45.74 259.41,-34.19 274.42,-25.16"/>
<polygon fill="#63b8ff" stroke="#63b8ff" points="275.83,-27.8 282.6,-19.65 272.22,-21.8 275.83,-27.8"/>
</a>
</g>
</g>
<!-- Node7 -->
<g id="Node000007" class="node">
<title>Node7</title>
<g id="a_Node000007"><a xlink:title=" ">
<polygon fill="#e0e0e0" stroke="#999999" points="384.12,-19.25 341.12,-19.25 341.12,0 384.12,0 384.12,-19.25"/>
<text text-anchor="middle" x="362.62" y="-5.75" font-family="Helvetica,sans-Serif" font-size="10.00">time.h</text>
</a>
</g>
</g>
<!-- Node1&#45;&gt;Node7 -->
<g id="edge6_Node000001_Node000007" class="edge">
<title>Node1&#45;&gt;Node7</title>
<g id="a_edge6_Node000001_Node000007"><a xlink:title=" ">
<path fill="none" stroke="#63b8ff" d="M241.09,-54.8C268.8,-44.72 305.05,-31.55 330.73,-22.22"/>
<polygon fill="#63b8ff" stroke="#63b8ff" points="331.83,-25.18 340.03,-18.47 329.44,-18.6 331.83,-25.18"/>
</a>
</g>
</g>
</g>
</svg>
