<?xml version="1.0" encoding="UTF-8" standalone="no"?>
<!DOCTYPE svg PUBLIC "-//W3C//DTD SVG 1.1//EN"
 "http://www.w3.org/Graphics/SVG/1.1/DTD/svg11.dtd">
<!-- Generated by graphviz version 2.49.3 (20211023.0002)
 -->
<!-- Title: get_next_abundant Pages: 1 -->
<svg width="359pt" height="28pt"
 viewBox="0.00 0.00 359.00 28.00" xmlns="http://www.w3.org/2000/svg" xmlns:xlink="http://www.w3.org/1999/xlink">
<g id="graph0" class="graph" transform="scale(1 1) rotate(0) translate(4 24)">
<title>get_next_abundant</title>
<polygon fill="white" stroke="transparent" points="-4,4 -4,-24 355,-24 355,4 -4,4"/>
<!-- Node1 -->
<g id="node1" class="node">
<title>Node1</title>
<g id="a_node1"><a xlink:title="Find the next abundant number after N and not including N.">
<polygon fill="#bfbfbf" stroke="black" points="0,-0.5 0,-19.5 102,-19.5 102,-0.5 0,-0.5"/>
<text text-anchor="middle" x="51" y="-7.5" font-family="Helvetica,sans-Serif" font-size="10.00">get_next_abundant</text>
</a>
</g>
</g>
<!-- Node2 -->
<g id="node2" class="node">
<title>Node2</title>
<g id="a_node2"><a xlink:href="../../d7/ddb/problem__23_2sol1_8c.html#a4f128410e6582fe26488e2316cc96e17" target="_top" xlink:title="Is the given number an abundant number (1) or not (0)">
<polygon fill="white" stroke="black" points="138,-0.5 138,-19.5 209,-19.5 209,-0.5 138,-0.5"/>
<text text-anchor="middle" x="173.5" y="-7.5" font-family="Helvetica,sans-Serif" font-size="10.00">is_abundant</text>
</a>
</g>
</g>
<!-- Node1&#45;&gt;Node2 -->
<g id="edge1" class="edge">
<title>Node1&#45;&gt;Node2</title>
<path fill="none" stroke="midnightblue" d="M102.06,-10C110.51,-10 119.25,-10 127.56,-10"/>
<polygon fill="midnightblue" stroke="midnightblue" points="127.82,-13.5 137.82,-10 127.82,-6.5 127.82,-13.5"/>
</g>
<!-- Node3 -->
<g id="node3" class="node">
<title>Node3</title>
<g id="a_node3"><a xlink:href="../../d7/ddb/problem__23_2sol1_8c.html#a1aca7f530f82b27100262adba9e7556b" target="_top" xlink:title="Returns: &#45;1 if N is deficient 1 if N is abundant 0 if N is perfect.">
<polygon fill="white" stroke="black" points="245,-0.5 245,-19.5 351,-19.5 351,-0.5 245,-0.5"/>
<text text-anchor="middle" x="298" y="-7.5" font-family="Helvetica,sans-Serif" font-size="10.00">get_perfect_number</text>
</a>
</g>
</g>
<!-- Node2&#45;&gt;Node3 -->
<g id="edge2" class="edge">
<title>Node2&#45;&gt;Node3</title>
<path fill="none" stroke="midnightblue" d="M209.28,-10C217.21,-10 225.87,-10 234.57,-10"/>
<polygon fill="midnightblue" stroke="midnightblue" points="234.75,-13.5 244.75,-10 234.75,-6.5 234.75,-13.5"/>
</g>
</g>
</svg>
