<?xml version="1.0" encoding="UTF-8" standalone="no"?>
<!DOCTYPE svg PUBLIC "-//W3C//DTD SVG 1.1//EN"
 "http://www.w3.org/Graphics/SVG/1.1/DTD/svg11.dtd">
<!-- Generated by graphviz version 2.49.3 (20211023.0002)
 -->
<!-- Title: is_sum_of_abundant Pages: 1 -->
<svg width="504pt" height="47pt"
 viewBox="0.00 0.00 504.00 47.00" xmlns="http://www.w3.org/2000/svg" xmlns:xlink="http://www.w3.org/1999/xlink">
<g id="graph0" class="graph" transform="scale(1 1) rotate(0) translate(4 43)">
<title>is_sum_of_abundant</title>
<polygon fill="white" stroke="transparent" points="-4,4 -4,-43 500,-43 500,4 -4,4"/>
<!-- Node1 -->
<g id="node1" class="node">
<title>Node1</title>
<g id="a_node1"><a xlink:title="check if a given number can be represented as a sum of two abundant numbers.">
<polygon fill="#bfbfbf" stroke="black" points="0,-0.5 0,-19.5 109,-19.5 109,-0.5 0,-0.5"/>
<text text-anchor="middle" x="54.5" y="-7.5" font-family="Helvetica,sans-Serif" font-size="10.00">is_sum_of_abundant</text>
</a>
</g>
</g>
<!-- Node2 -->
<g id="node2" class="node">
<title>Node2</title>
<g id="a_node2"><a xlink:href="../../d7/ddb/problem__23_2sol1_8c.html#ac5d600bf3077f4188afc4c5cd2c40eaf" target="_top" xlink:title="Find the next abundant number after N and not including N.">
<polygon fill="white" stroke="black" points="145,-19.5 145,-38.5 247,-38.5 247,-19.5 145,-19.5"/>
<text text-anchor="middle" x="196" y="-26.5" font-family="Helvetica,sans-Serif" font-size="10.00">get_next_abundant</text>
</a>
</g>
</g>
<!-- Node1&#45;&gt;Node2 -->
<g id="edge1" class="edge">
<title>Node1&#45;&gt;Node2</title>
<path fill="none" stroke="midnightblue" d="M109.04,-17.29C117.34,-18.42 125.97,-19.6 134.41,-20.75"/>
<polygon fill="midnightblue" stroke="midnightblue" points="134.21,-24.25 144.59,-22.13 135.15,-17.32 134.21,-24.25"/>
</g>
<!-- Node3 -->
<g id="node3" class="node">
<title>Node3</title>
<g id="a_node3"><a xlink:href="../../d7/ddb/problem__23_2sol1_8c.html#a4f128410e6582fe26488e2316cc96e17" target="_top" xlink:title="Is the given number an abundant number (1) or not (0)">
<polygon fill="white" stroke="black" points="283,-0.5 283,-19.5 354,-19.5 354,-0.5 283,-0.5"/>
<text text-anchor="middle" x="318.5" y="-7.5" font-family="Helvetica,sans-Serif" font-size="10.00">is_abundant</text>
</a>
</g>
</g>
<!-- Node1&#45;&gt;Node3 -->
<g id="edge4" class="edge">
<title>Node1&#45;&gt;Node3</title>
<path fill="none" stroke="midnightblue" d="M109.15,-10C157.35,-10 227.3,-10 272.6,-10"/>
<polygon fill="midnightblue" stroke="midnightblue" points="272.72,-13.5 282.72,-10 272.72,-6.5 272.72,-13.5"/>
</g>
<!-- Node2&#45;&gt;Node3 -->
<g id="edge2" class="edge">
<title>Node2&#45;&gt;Node3</title>
<path fill="none" stroke="midnightblue" d="M247.06,-21.11C255.61,-19.76 264.44,-18.37 272.84,-17.04"/>
<polygon fill="midnightblue" stroke="midnightblue" points="273.49,-20.48 282.82,-15.47 272.4,-13.57 273.49,-20.48"/>
</g>
<!-- Node4 -->
<g id="node4" class="node">
<title>Node4</title>
<g id="a_node4"><a xlink:href="../../d7/ddb/problem__23_2sol1_8c.html#a1aca7f530f82b27100262adba9e7556b" target="_top" xlink:title="Returns: &#45;1 if N is deficient 1 if N is abundant 0 if N is perfect.">
<polygon fill="white" stroke="black" points="390,-0.5 390,-19.5 496,-19.5 496,-0.5 390,-0.5"/>
<text text-anchor="middle" x="443" y="-7.5" font-family="Helvetica,sans-Serif" font-size="10.00">get_perfect_number</text>
</a>
</g>
</g>
<!-- Node3&#45;&gt;Node4 -->
<g id="edge3" class="edge">
<title>Node3&#45;&gt;Node4</title>
<path fill="none" stroke="midnightblue" d="M354.28,-10C362.21,-10 370.87,-10 379.57,-10"/>
<polygon fill="midnightblue" stroke="midnightblue" points="379.75,-13.5 389.75,-10 379.75,-6.5 379.75,-13.5"/>
</g>
</g>
</svg>
