<?xml version="1.0" encoding="UTF-8" standalone="no"?>
<!DOCTYPE svg PUBLIC "-//W3C//DTD SVG 1.1//EN"
 "http://www.w3.org/Graphics/SVG/1.1/DTD/svg11.dtd">
<!-- Generated by graphviz version 9.0.0 (20230911.1827)
 -->
<!-- Title: is_sum_of_abundant Pages: 1 -->
<svg width="491pt" height="46pt"
 viewBox="0.00 0.00 491.25 46.25" xmlns="http://www.w3.org/2000/svg" xmlns:xlink="http://www.w3.org/1999/xlink">
<g id="graph0" class="graph" transform="scale(1 1) rotate(0) translate(4 42.25)">
<title>is_sum_of_abundant</title>
<!-- Node1 -->
<g id="Node000001" class="node">
<title>Node1</title>
<g id="a_Node000001"><a xlink:title="check if a given number can be represented as a sum of two abundant numbers.">
<polygon fill="#999999" stroke="#666666" points="106,-19.25 0,-19.25 0,0 106,0 106,-19.25"/>
<text text-anchor="middle" x="53" y="-5.75" font-family="Helvetica,sans-Serif" font-size="10.00">is_sum_of_abundant</text>
</a>
</g>
</g>
<!-- Node2 -->
<g id="Node000002" class="node">
<title>Node2</title>
<g id="a_Node000002"><a xlink:href="../../d7/ddb/problem__23_2sol1_8c.html#ac5d600bf3077f4188afc4c5cd2c40eaf" target="_top" xlink:title="Find the next abundant number after N and not including N.">
<polygon fill="white" stroke="#666666" points="240.5,-38.25 142,-38.25 142,-19 240.5,-19 240.5,-38.25"/>
<text text-anchor="middle" x="191.25" y="-24.75" font-family="Helvetica,sans-Serif" font-size="10.00">get_next_abundant</text>
</a>
</g>
</g>
<!-- Node1&#45;&gt;Node2 -->
<g id="edge1_Node000001_Node000002" class="edge">
<title>Node1&#45;&gt;Node2</title>
<g id="a_edge1_Node000001_Node000002"><a xlink:title=" ">
<path fill="none" stroke="#63b8ff" d="M106.29,-16.92C114.25,-18.03 122.51,-19.18 130.61,-20.31"/>
<polygon fill="#63b8ff" stroke="#63b8ff" points="130.02,-23.76 140.4,-21.67 130.98,-16.83 130.02,-23.76"/>
</a>
</g>
</g>
<!-- Node3 -->
<g id="Node000003" class="node">
<title>Node3</title>
<g id="a_Node000003"><a xlink:href="../../d7/ddb/problem__23_2sol1_8c.html#a4f128410e6582fe26488e2316cc96e17" target="_top" xlink:title="Is the given number an abundant number (1) or not (0)">
<polygon fill="white" stroke="#666666" points="345,-19.25 276.5,-19.25 276.5,0 345,0 345,-19.25"/>
<text text-anchor="middle" x="310.75" y="-5.75" font-family="Helvetica,sans-Serif" font-size="10.00">is_abundant</text>
</a>
</g>
</g>
<!-- Node1&#45;&gt;Node3 -->
<g id="edge4_Node000001_Node000003" class="edge">
<title>Node1&#45;&gt;Node3</title>
<g id="a_edge4_Node000001_Node000003"><a xlink:title=" ">
<path fill="none" stroke="#63b8ff" d="M106.37,-9.62C153.06,-9.62 220.66,-9.62 264.9,-9.62"/>
<polygon fill="#63b8ff" stroke="#63b8ff" points="264.66,-13.13 274.66,-9.63 264.66,-6.13 264.66,-13.13"/>
</a>
</g>
</g>
<!-- Node2&#45;&gt;Node3 -->
<g id="edge2_Node000002_Node000003" class="edge">
<title>Node2&#45;&gt;Node3</title>
<g id="a_edge2_Node000002_Node000003"><a xlink:title=" ">
<path fill="none" stroke="#63b8ff" d="M240.72,-20.79C248.71,-19.5 256.95,-18.16 264.84,-16.89"/>
<polygon fill="#63b8ff" stroke="#63b8ff" points="265.28,-20.36 274.59,-15.31 264.16,-13.45 265.28,-20.36"/>
</a>
</g>
</g>
<!-- Node4 -->
<g id="Node000004" class="node">
<title>Node4</title>
<g id="a_Node000004"><a xlink:href="../../d7/ddb/problem__23_2sol1_8c.html#a1aca7f530f82b27100262adba9e7556b" target="_top" xlink:title="Returns: &#45;1 if N is deficient 1 if N is abundant 0 if N is perfect.">
<polygon fill="white" stroke="#666666" points="483.25,-19.25 381,-19.25 381,0 483.25,0 483.25,-19.25"/>
<text text-anchor="middle" x="432.12" y="-5.75" font-family="Helvetica,sans-Serif" font-size="10.00">get_perfect_number</text>
</a>
</g>
</g>
<!-- Node3&#45;&gt;Node4 -->
<g id="edge3_Node000003_Node000004" class="edge">
<title>Node3&#45;&gt;Node4</title>
<g id="a_edge3_Node000003_Node000004"><a xlink:title=" ">
<path fill="none" stroke="#63b8ff" d="M345.32,-9.62C352.91,-9.62 361.19,-9.62 369.53,-9.62"/>
<polygon fill="#63b8ff" stroke="#63b8ff" points="369.35,-13.13 379.35,-9.63 369.35,-6.13 369.35,-13.13"/>
</a>
</g>
</g>
</g>
</svg>
