<?xml version="1.0" encoding="UTF-8" standalone="no"?>
<!DOCTYPE svg PUBLIC "-//W3C//DTD SVG 1.1//EN"
 "http://www.w3.org/Graphics/SVG/1.1/DTD/svg11.dtd">
<!-- Generated by graphviz version 3.0.0 (20220226.1711)
 -->
<!-- Title: example Pages: 1 -->
<svg width="223pt" height="159pt"
 viewBox="0.00 0.00 223.00 159.00" xmlns="http://www.w3.org/2000/svg" xmlns:xlink="http://www.w3.org/1999/xlink">
<g id="graph0" class="graph" transform="scale(1 1) rotate(0) translate(4 155)">
<title>example</title>
<polygon fill="white" stroke="transparent" points="-4,4 -4,-155 219,-155 219,4 -4,4"/>
<!-- Node1 -->
<g id="node1" class="node">
<title>Node1</title>
<g id="a_node1"><a xlink:title="Example function.">
<polygon fill="#bfbfbf" stroke="black" points="0,-84.5 0,-103.5 53,-103.5 53,-84.5 0,-84.5"/>
<text text-anchor="middle" x="26.5" y="-91.5" font-family="Helvetica,sans-Serif" font-size="10.00">example</text>
</a>
</g>
</g>
<!-- Node2 -->
<g id="node2" class="node">
<title>Node2</title>
<g id="a_node2"><a xlink:href="../../dd/d29/doubly__linked__list_8c.html#a37890fb794cb2c436ffcc643c30ec57f" target="_top" xlink:title="Create list function, a new list containing one node will be created.">
<polygon fill="white" stroke="black" points="171,-131.5 171,-150.5 215,-150.5 215,-131.5 171,-131.5"/>
<text text-anchor="middle" x="193" y="-138.5" font-family="Helvetica,sans-Serif" font-size="10.00">create</text>
</a>
</g>
</g>
<!-- Node1&#45;&gt;Node2 -->
<g id="edge1" class="edge">
<title>Node1&#45;&gt;Node2</title>
<path fill="none" stroke="midnightblue" d="M36.33,-103.87C47.34,-115.35 67.36,-133.68 89,-141 112.18,-148.84 140.02,-148.3 160.91,-146.1"/>
<polygon fill="midnightblue" stroke="midnightblue" points="161.35,-149.57 170.84,-144.87 160.49,-142.62 161.35,-149.57"/>
</g>
<!-- Node3 -->
<g id="node3" class="node">
<title>Node3</title>
<g id="a_node3"><a xlink:href="../../dd/d29/doubly__linked__list_8c.html#a04ac29c396dc8335a5827927183c9918" target="_top" xlink:title="Insertion by position into the list function.">
<polygon fill="white" stroke="black" points="91.5,-112.5 91.5,-131.5 132.5,-131.5 132.5,-112.5 91.5,-112.5"/>
<text text-anchor="middle" x="112" y="-119.5" font-family="Helvetica,sans-Serif" font-size="10.00">insert</text>
</a>
</g>
</g>
<!-- Node1&#45;&gt;Node3 -->
<g id="edge2" class="edge">
<title>Node1&#45;&gt;Node3</title>
<path fill="none" stroke="midnightblue" d="M53.01,-102.55C62.09,-105.6 72.4,-109.06 81.77,-112.2"/>
<polygon fill="midnightblue" stroke="midnightblue" points="80.89,-115.59 91.48,-115.45 83.11,-108.96 80.89,-115.59"/>
</g>
<!-- Node4 -->
<g id="node4" class="node">
<title>Node4</title>
<g id="a_node4"><a xlink:href="../../dd/d29/doubly__linked__list_8c.html#a1fadec32fc369a8dcfbcd766e166efa0" target="_top" xlink:title="Print list function.">
<polygon fill="white" stroke="black" points="94.5,-56.5 94.5,-75.5 129.5,-75.5 129.5,-56.5 94.5,-56.5"/>
<text text-anchor="middle" x="112" y="-63.5" font-family="Helvetica,sans-Serif" font-size="10.00">print</text>
</a>
</g>
</g>
<!-- Node1&#45;&gt;Node4 -->
<g id="edge4" class="edge">
<title>Node1&#45;&gt;Node4</title>
<path fill="none" stroke="midnightblue" d="M53.01,-85.45C63.08,-82.07 74.64,-78.19 84.78,-74.79"/>
<polygon fill="midnightblue" stroke="midnightblue" points="85.97,-78.08 94.34,-71.59 83.75,-71.45 85.97,-78.08"/>
</g>
<!-- Node5 -->
<g id="node5" class="node">
<title>Node5</title>
<g id="a_node5"><a xlink:href="../../dd/d29/doubly__linked__list_8c.html#aedd04074dbc6af0de89051f97209311b" target="_top" xlink:title="Search value into the list function.">
<polygon fill="white" stroke="black" points="89,-0.5 89,-19.5 135,-19.5 135,-0.5 89,-0.5"/>
<text text-anchor="middle" x="112" y="-7.5" font-family="Helvetica,sans-Serif" font-size="10.00">search</text>
</a>
</g>
</g>
<!-- Node1&#45;&gt;Node5 -->
<g id="edge6" class="edge">
<title>Node1&#45;&gt;Node5</title>
<path fill="none" stroke="midnightblue" d="M37.08,-84.36C51.05,-70.31 77.2,-44 94.36,-26.74"/>
<polygon fill="midnightblue" stroke="midnightblue" points="96.97,-29.08 101.53,-19.52 92,-24.15 96.97,-29.08"/>
</g>
<!-- Node3&#45;&gt;Node2 -->
<g id="edge3" class="edge">
<title>Node3&#45;&gt;Node2</title>
<path fill="none" stroke="midnightblue" d="M132.53,-126.7C141.05,-128.75 151.26,-131.2 160.79,-133.49"/>
<polygon fill="midnightblue" stroke="midnightblue" points="160.22,-136.96 170.76,-135.89 161.85,-130.15 160.22,-136.96"/>
</g>
<!-- Node4&#45;&gt;Node4 -->
<g id="edge5" class="edge">
<title>Node4&#45;&gt;Node4</title>
<path fill="none" stroke="midnightblue" d="M99.67,-75.76C93.67,-84.57 97.78,-94 112,-94 120.66,-94 125.58,-90.5 126.73,-85.77"/>
<polygon fill="midnightblue" stroke="midnightblue" points="130.07,-84.66 124.33,-75.76 123.26,-86.3 130.07,-84.66"/>
</g>
<!-- Node5&#45;&gt;Node5 -->
<g id="edge7" class="edge">
<title>Node5&#45;&gt;Node5</title>
<path fill="none" stroke="midnightblue" d="M99.67,-19.76C93.67,-28.57 97.78,-38 112,-38 120.66,-38 125.58,-34.5 126.73,-29.77"/>
<polygon fill="midnightblue" stroke="midnightblue" points="130.07,-28.66 124.33,-19.76 123.26,-30.3 130.07,-28.66"/>
</g>
</g>
</svg>
