<?xml version="1.0" encoding="UTF-8" standalone="no"?>
<!DOCTYPE svg PUBLIC "-//W3C//DTD SVG 1.1//EN"
 "http://www.w3.org/Graphics/SVG/1.1/DTD/svg11.dtd">
<!-- Generated by graphviz version 2.46.1 (20210213.1702)
 -->
<!-- Title: main Pages: 1 -->
<svg width="297pt" height="123pt"
 viewBox="0.00 0.00 297.00 123.00" xmlns="http://www.w3.org/2000/svg" xmlns:xlink="http://www.w3.org/1999/xlink">
<g id="graph0" class="graph" transform="scale(1 1) rotate(0) translate(4 119)">
<title>main</title>
<polygon fill="white" stroke="transparent" points="-4,4 -4,-119 293,-119 293,4 -4,4"/>
<!-- Node1 -->
<g id="node1" class="node">
<title>Node1</title>
<g id="a_node1"><a xlink:title="Main function.">
<polygon fill="#bfbfbf" stroke="black" points="0,-57.5 0,-76.5 38,-76.5 38,-57.5 0,-57.5"/>
<text text-anchor="middle" x="19" y="-64.5" font-family="Helvetica,sans-Serif" font-size="10.00">main</text>
</a>
</g>
</g>
<!-- Node2 -->
<g id="node2" class="node">
<title>Node2</title>
<g id="a_node2"><a xlink:href="../../dd/d29/doubly__linked__list_8c.html#afa2b50f4716fc3b42221a72e676e1422" target="_top" xlink:title="Example function.">
<polygon fill="white" stroke="black" points="74,-57.5 74,-76.5 127,-76.5 127,-57.5 74,-57.5"/>
<text text-anchor="middle" x="100.5" y="-64.5" font-family="Helvetica,sans-Serif" font-size="10.00">example</text>
</a>
</g>
</g>
<!-- Node1&#45;&gt;Node2 -->
<g id="edge1" class="edge">
<title>Node1&#45;&gt;Node2</title>
<path fill="none" stroke="midnightblue" d="M38.04,-67C45.68,-67 54.86,-67 63.77,-67"/>
<polygon fill="midnightblue" stroke="midnightblue" points="64,-70.5 74,-67 64,-63.5 64,-70.5"/>
</g>
<!-- Node3 -->
<g id="node3" class="node">
<title>Node3</title>
<g id="a_node3"><a xlink:href="../../dd/d29/doubly__linked__list_8c.html#a37890fb794cb2c436ffcc643c30ec57f" target="_top" xlink:title="Create list function, a new list containing one node will be created.">
<polygon fill="white" stroke="black" points="245,-95.5 245,-114.5 289,-114.5 289,-95.5 245,-95.5"/>
<text text-anchor="middle" x="267" y="-102.5" font-family="Helvetica,sans-Serif" font-size="10.00">create</text>
</a>
</g>
</g>
<!-- Node2&#45;&gt;Node3 -->
<g id="edge2" class="edge">
<title>Node2&#45;&gt;Node3</title>
<path fill="none" stroke="midnightblue" d="M112.81,-76.71C124.49,-86.04 143.68,-99.51 163,-105 186.29,-111.62 213.76,-111.23 234.47,-109.4"/>
<polygon fill="midnightblue" stroke="midnightblue" points="235.04,-112.86 244.62,-108.35 234.31,-105.9 235.04,-112.86"/>
</g>
<!-- Node4 -->
<g id="node4" class="node">
<title>Node4</title>
<g id="a_node4"><a xlink:href="../../dd/d29/doubly__linked__list_8c.html#a04ac29c396dc8335a5827927183c9918" target="_top" xlink:title="Insertion by position into the list function.">
<polygon fill="white" stroke="black" points="165.5,-76.5 165.5,-95.5 206.5,-95.5 206.5,-76.5 165.5,-76.5"/>
<text text-anchor="middle" x="186" y="-83.5" font-family="Helvetica,sans-Serif" font-size="10.00">insert</text>
</a>
</g>
</g>
<!-- Node2&#45;&gt;Node4 -->
<g id="edge3" class="edge">
<title>Node2&#45;&gt;Node4</title>
<path fill="none" stroke="midnightblue" d="M127.01,-72.8C136,-74.85 146.18,-77.17 155.47,-79.28"/>
<polygon fill="midnightblue" stroke="midnightblue" points="154.95,-82.75 165.48,-81.56 156.5,-75.93 154.95,-82.75"/>
</g>
<!-- Node5 -->
<g id="node5" class="node">
<title>Node5</title>
<g id="a_node5"><a xlink:href="../../dd/d29/doubly__linked__list_8c.html#a1fadec32fc369a8dcfbcd766e166efa0" target="_top" xlink:title="Print list function.">
<polygon fill="white" stroke="black" points="168.5,-38.5 168.5,-57.5 203.5,-57.5 203.5,-38.5 168.5,-38.5"/>
<text text-anchor="middle" x="186" y="-45.5" font-family="Helvetica,sans-Serif" font-size="10.00">print</text>
</a>
</g>
</g>
<!-- Node2&#45;&gt;Node5 -->
<g id="edge5" class="edge">
<title>Node2&#45;&gt;Node5</title>
<path fill="none" stroke="midnightblue" d="M127.01,-61.2C136.97,-58.93 148.4,-56.33 158.47,-54.04"/>
<polygon fill="midnightblue" stroke="midnightblue" points="159.37,-57.42 168.34,-51.79 157.81,-50.6 159.37,-57.42"/>
</g>
<!-- Node6 -->
<g id="node6" class="node">
<title>Node6</title>
<g id="a_node6"><a xlink:href="../../dd/d29/doubly__linked__list_8c.html#aedd04074dbc6af0de89051f97209311b" target="_top" xlink:title="Search value into the list function.">
<polygon fill="white" stroke="black" points="163,-0.5 163,-19.5 209,-19.5 209,-0.5 163,-0.5"/>
<text text-anchor="middle" x="186" y="-7.5" font-family="Helvetica,sans-Serif" font-size="10.00">search</text>
</a>
</g>
</g>
<!-- Node2&#45;&gt;Node6 -->
<g id="edge6" class="edge">
<title>Node2&#45;&gt;Node6</title>
<path fill="none" stroke="midnightblue" d="M115.66,-57.33C128.46,-48.6 147.5,-35.6 162.4,-25.43"/>
<polygon fill="midnightblue" stroke="midnightblue" points="164.76,-28.06 171.04,-19.53 160.81,-22.27 164.76,-28.06"/>
</g>
<!-- Node4&#45;&gt;Node3 -->
<g id="edge4" class="edge">
<title>Node4&#45;&gt;Node3</title>
<path fill="none" stroke="midnightblue" d="M206.53,-90.7C215.05,-92.75 225.26,-95.2 234.79,-97.49"/>
<polygon fill="midnightblue" stroke="midnightblue" points="234.22,-100.96 244.76,-99.89 235.85,-94.15 234.22,-100.96"/>
</g>
</g>
</svg>
