<?xml version="1.0" encoding="UTF-8" standalone="no"?>
<!DOCTYPE svg PUBLIC "-//W3C//DTD SVG 1.1//EN"
 "http://www.w3.org/Graphics/SVG/1.1/DTD/svg11.dtd">
<!-- Generated by graphviz version 7.0.4 (20221203.1631)
 -->
<!-- Title: main Pages: 1 -->
<svg width="217pt" height="100pt"
 viewBox="0.00 0.00 217.00 100.00" xmlns="http://www.w3.org/2000/svg" xmlns:xlink="http://www.w3.org/1999/xlink">
<g id="graph0" class="graph" transform="scale(1 1) rotate(0) translate(4 96)">
<title>main</title>
<!-- Node1 -->
<g id="node1" class="node">
<title>Node1</title>
<g id="a_node1"><a xlink:title="Main function.">
<polygon fill="#999999" stroke="#666666" points="38,-46 0,-46 0,-27 38,-27 38,-46"/>
<text text-anchor="middle" x="19" y="-34" font-family="Helvetica,sans-Serif" font-size="10.00">main</text>
</a>
</g>
</g>
<!-- Node2 -->
<g id="node2" class="node">
<title>Node2</title>
<g id="a_node2"><a xlink:href="../../dd/d29/doubly__linked__list_8c.html#afa2b50f4716fc3b42221a72e676e1422" target="_top" xlink:title="Example function.">
<polygon fill="white" stroke="#666666" points="127,-46 74,-46 74,-27 127,-27 127,-46"/>
<text text-anchor="middle" x="100.5" y="-34" font-family="Helvetica,sans-Serif" font-size="10.00">example</text>
</a>
</g>
</g>
<!-- Node1&#45;&gt;Node2 -->
<g id="edge1" class="edge">
<title>Node1&#45;&gt;Node2</title>
<path fill="none" stroke="#63b8ff" d="M38.44,-36.5C45.55,-36.5 53.95,-36.5 62.2,-36.5"/>
<polygon fill="#63b8ff" stroke="#63b8ff" points="62.12,-40 72.12,-36.5 62.12,-33 62.12,-40"/>
</g>
<!-- Node3 -->
<g id="node3" class="node">
<title>Node3</title>
<g id="a_node3"><a xlink:href="../../dd/d29/doubly__linked__list_8c.html#a1fadec32fc369a8dcfbcd766e166efa0" target="_top" xlink:title="Print list function.">
<polygon fill="white" stroke="#666666" points="203.5,-74 168.5,-74 168.5,-55 203.5,-55 203.5,-74"/>
<text text-anchor="middle" x="186" y="-62" font-family="Helvetica,sans-Serif" font-size="10.00">print</text>
</a>
</g>
</g>
<!-- Node2&#45;&gt;Node3 -->
<g id="edge2" class="edge">
<title>Node2&#45;&gt;Node3</title>
<path fill="none" stroke="#63b8ff" d="M127.46,-45.21C136.96,-48.39 147.73,-52 157.37,-55.24"/>
<polygon fill="#63b8ff" stroke="#63b8ff" points="155.99,-58.46 166.58,-58.32 158.21,-51.83 155.99,-58.46"/>
</g>
<!-- Node4 -->
<g id="node4" class="node">
<title>Node4</title>
<g id="a_node4"><a xlink:href="../../dd/d29/doubly__linked__list_8c.html#aedd04074dbc6af0de89051f97209311b" target="_top" xlink:title="Search value into the list function.">
<polygon fill="white" stroke="#666666" points="209,-19 163,-19 163,0 209,0 209,-19"/>
<text text-anchor="middle" x="186" y="-7" font-family="Helvetica,sans-Serif" font-size="10.00">search</text>
</a>
</g>
</g>
<!-- Node2&#45;&gt;Node4 -->
<g id="edge4" class="edge">
<title>Node2&#45;&gt;Node4</title>
<path fill="none" stroke="#63b8ff" d="M127.46,-28.11C135.23,-25.59 143.85,-22.81 152.01,-20.17"/>
<polygon fill="#63b8ff" stroke="#63b8ff" points="152.84,-23.58 161.28,-17.17 150.68,-16.92 152.84,-23.58"/>
</g>
<!-- Node3&#45;&gt;Node3 -->
<g id="edge3" class="edge">
<title>Node3&#45;&gt;Node3</title>
<path fill="none" stroke="#63b8ff" d="M172.61,-74.37C166.51,-82.94 170.97,-92 186,-92 193.98,-92 198.99,-89.44 201.01,-85.76"/>
<polygon fill="#63b8ff" stroke="#63b8ff" points="204.47,-85.27 199.6,-75.87 197.54,-86.26 204.47,-85.27"/>
</g>
<!-- Node4&#45;&gt;Node4 -->
<g id="edge5" class="edge">
<title>Node4&#45;&gt;Node4</title>
<path fill="none" stroke="#63b8ff" d="M172.61,-19.37C166.51,-27.94 170.97,-37 186,-37 193.98,-37 198.99,-34.44 201.01,-30.76"/>
<polygon fill="#63b8ff" stroke="#63b8ff" points="204.47,-30.27 199.6,-20.87 197.54,-31.26 204.47,-30.27"/>
</g>
</g>
</svg>
