<?xml version="1.0" encoding="UTF-8" standalone="no"?>
<!DOCTYPE svg PUBLIC "-//W3C//DTD SVG 1.1//EN"
 "http://www.w3.org/Graphics/SVG/1.1/DTD/svg11.dtd">
<!-- Generated by graphviz version 3.0.0 (20220226.1711)
 -->
<!-- Title: main Pages: 1 -->
<svg width="297pt" height="159pt"
 viewBox="0.00 0.00 297.00 159.00" xmlns="http://www.w3.org/2000/svg" xmlns:xlink="http://www.w3.org/1999/xlink">
<g id="graph0" class="graph" transform="scale(1 1) rotate(0) translate(4 155)">
<title>main</title>
<polygon fill="white" stroke="transparent" points="-4,4 -4,-155 293,-155 293,4 -4,4"/>
<!-- Node1 -->
<g id="node1" class="node">
<title>Node1</title>
<g id="a_node1"><a xlink:title="Main function.">
<polygon fill="#bfbfbf" stroke="black" points="0,-84.5 0,-103.5 38,-103.5 38,-84.5 0,-84.5"/>
<text text-anchor="middle" x="19" y="-91.5" font-family="Helvetica,sans-Serif" font-size="10.00">main</text>
</a>
</g>
</g>
<!-- Node2 -->
<g id="node2" class="node">
<title>Node2</title>
<g id="a_node2"><a xlink:href="../../dd/d29/doubly__linked__list_8c.html#afa2b50f4716fc3b42221a72e676e1422" target="_top" xlink:title="Example function.">
<polygon fill="white" stroke="black" points="74,-84.5 74,-103.5 127,-103.5 127,-84.5 74,-84.5"/>
<text text-anchor="middle" x="100.5" y="-91.5" font-family="Helvetica,sans-Serif" font-size="10.00">example</text>
</a>
</g>
</g>
<!-- Node1&#45;&gt;Node2 -->
<g id="edge1" class="edge">
<title>Node1&#45;&gt;Node2</title>
<path fill="none" stroke="midnightblue" d="M38.04,-94C45.68,-94 54.86,-94 63.77,-94"/>
<polygon fill="midnightblue" stroke="midnightblue" points="64,-97.5 74,-94 64,-90.5 64,-97.5"/>
</g>
<!-- Node3 -->
<g id="node3" class="node">
<title>Node3</title>
<g id="a_node3"><a xlink:href="../../dd/d29/doubly__linked__list_8c.html#a37890fb794cb2c436ffcc643c30ec57f" target="_top" xlink:title="Create list function, a new list containing one node will be created.">
<polygon fill="white" stroke="black" points="245,-131.5 245,-150.5 289,-150.5 289,-131.5 245,-131.5"/>
<text text-anchor="middle" x="267" y="-138.5" font-family="Helvetica,sans-Serif" font-size="10.00">create</text>
</a>
</g>
</g>
<!-- Node2&#45;&gt;Node3 -->
<g id="edge2" class="edge">
<title>Node2&#45;&gt;Node3</title>
<path fill="none" stroke="midnightblue" d="M110.33,-103.87C121.34,-115.35 141.36,-133.68 163,-141 186.18,-148.84 214.02,-148.3 234.91,-146.1"/>
<polygon fill="midnightblue" stroke="midnightblue" points="235.35,-149.57 244.84,-144.87 234.49,-142.62 235.35,-149.57"/>
</g>
<!-- Node4 -->
<g id="node4" class="node">
<title>Node4</title>
<g id="a_node4"><a xlink:href="../../dd/d29/doubly__linked__list_8c.html#a04ac29c396dc8335a5827927183c9918" target="_top" xlink:title="Insertion by position into the list function.">
<polygon fill="white" stroke="black" points="165.5,-112.5 165.5,-131.5 206.5,-131.5 206.5,-112.5 165.5,-112.5"/>
<text text-anchor="middle" x="186" y="-119.5" font-family="Helvetica,sans-Serif" font-size="10.00">insert</text>
</a>
</g>
</g>
<!-- Node2&#45;&gt;Node4 -->
<g id="edge3" class="edge">
<title>Node2&#45;&gt;Node4</title>
<path fill="none" stroke="midnightblue" d="M127.01,-102.55C136.09,-105.6 146.4,-109.06 155.77,-112.2"/>
<polygon fill="midnightblue" stroke="midnightblue" points="154.89,-115.59 165.48,-115.45 157.11,-108.96 154.89,-115.59"/>
</g>
<!-- Node5 -->
<g id="node5" class="node">
<title>Node5</title>
<g id="a_node5"><a xlink:href="../../dd/d29/doubly__linked__list_8c.html#a1fadec32fc369a8dcfbcd766e166efa0" target="_top" xlink:title="Print list function.">
<polygon fill="white" stroke="black" points="168.5,-56.5 168.5,-75.5 203.5,-75.5 203.5,-56.5 168.5,-56.5"/>
<text text-anchor="middle" x="186" y="-63.5" font-family="Helvetica,sans-Serif" font-size="10.00">print</text>
</a>
</g>
</g>
<!-- Node2&#45;&gt;Node5 -->
<g id="edge5" class="edge">
<title>Node2&#45;&gt;Node5</title>
<path fill="none" stroke="midnightblue" d="M127.01,-85.45C137.08,-82.07 148.64,-78.19 158.78,-74.79"/>
<polygon fill="midnightblue" stroke="midnightblue" points="159.97,-78.08 168.34,-71.59 157.75,-71.45 159.97,-78.08"/>
</g>
<!-- Node6 -->
<g id="node6" class="node">
<title>Node6</title>
<g id="a_node6"><a xlink:href="../../dd/d29/doubly__linked__list_8c.html#aedd04074dbc6af0de89051f97209311b" target="_top" xlink:title="Search value into the list function.">
<polygon fill="white" stroke="black" points="163,-0.5 163,-19.5 209,-19.5 209,-0.5 163,-0.5"/>
<text text-anchor="middle" x="186" y="-7.5" font-family="Helvetica,sans-Serif" font-size="10.00">search</text>
</a>
</g>
</g>
<!-- Node2&#45;&gt;Node6 -->
<g id="edge7" class="edge">
<title>Node2&#45;&gt;Node6</title>
<path fill="none" stroke="midnightblue" d="M111.08,-84.36C125.05,-70.31 151.2,-44 168.36,-26.74"/>
<polygon fill="midnightblue" stroke="midnightblue" points="170.97,-29.08 175.53,-19.52 166,-24.15 170.97,-29.08"/>
</g>
<!-- Node4&#45;&gt;Node3 -->
<g id="edge4" class="edge">
<title>Node4&#45;&gt;Node3</title>
<path fill="none" stroke="midnightblue" d="M206.53,-126.7C215.05,-128.75 225.26,-131.2 234.79,-133.49"/>
<polygon fill="midnightblue" stroke="midnightblue" points="234.22,-136.96 244.76,-135.89 235.85,-130.15 234.22,-136.96"/>
</g>
<!-- Node5&#45;&gt;Node5 -->
<g id="edge6" class="edge">
<title>Node5&#45;&gt;Node5</title>
<path fill="none" stroke="midnightblue" d="M173.67,-75.76C167.67,-84.57 171.78,-94 186,-94 194.66,-94 199.58,-90.5 200.73,-85.77"/>
<polygon fill="midnightblue" stroke="midnightblue" points="204.07,-84.66 198.33,-75.76 197.26,-86.3 204.07,-84.66"/>
</g>
<!-- Node6&#45;&gt;Node6 -->
<g id="edge8" class="edge">
<title>Node6&#45;&gt;Node6</title>
<path fill="none" stroke="midnightblue" d="M173.67,-19.76C167.67,-28.57 171.78,-38 186,-38 194.66,-38 199.58,-34.5 200.73,-29.77"/>
<polygon fill="midnightblue" stroke="midnightblue" points="204.07,-28.66 198.33,-19.76 197.26,-30.3 204.07,-28.66"/>
</g>
</g>
</svg>
