<?xml version="1.0" encoding="UTF-8" standalone="no"?>
<!DOCTYPE svg PUBLIC "-//W3C//DTD SVG 1.1//EN"
 "http://www.w3.org/Graphics/SVG/1.1/DTD/svg11.dtd">
<!-- Generated by graphviz version 7.0.4 (20221203.1631)
 -->
<!-- Title: example Pages: 1 -->
<svg width="143pt" height="100pt"
 viewBox="0.00 0.00 143.00 100.00" xmlns="http://www.w3.org/2000/svg" xmlns:xlink="http://www.w3.org/1999/xlink">
<g id="graph0" class="graph" transform="scale(1 1) rotate(0) translate(4 96)">
<title>example</title>
<!-- Node1 -->
<g id="node1" class="node">
<title>Node1</title>
<g id="a_node1"><a xlink:title="Example function.">
<polygon fill="#999999" stroke="#666666" points="53,-46 0,-46 0,-27 53,-27 53,-46"/>
<text text-anchor="middle" x="26.5" y="-34" font-family="Helvetica,sans-Serif" font-size="10.00">example</text>
</a>
</g>
</g>
<!-- Node2 -->
<g id="node2" class="node">
<title>Node2</title>
<g id="a_node2"><a xlink:href="../../dd/d29/doubly__linked__list_8c.html#a1fadec32fc369a8dcfbcd766e166efa0" target="_top" xlink:title="Print list function.">
<polygon fill="white" stroke="#666666" points="129.5,-74 94.5,-74 94.5,-55 129.5,-55 129.5,-74"/>
<text text-anchor="middle" x="112" y="-62" font-family="Helvetica,sans-Serif" font-size="10.00">print</text>
</a>
</g>
</g>
<!-- Node1&#45;&gt;Node2 -->
<g id="edge1" class="edge">
<title>Node1&#45;&gt;Node2</title>
<path fill="none" stroke="#63b8ff" d="M53.46,-45.21C62.96,-48.39 73.73,-52 83.37,-55.24"/>
<polygon fill="#63b8ff" stroke="#63b8ff" points="81.99,-58.46 92.58,-58.32 84.21,-51.83 81.99,-58.46"/>
</g>
<!-- Node3 -->
<g id="node3" class="node">
<title>Node3</title>
<g id="a_node3"><a xlink:href="../../dd/d29/doubly__linked__list_8c.html#aedd04074dbc6af0de89051f97209311b" target="_top" xlink:title="Search value into the list function.">
<polygon fill="white" stroke="#666666" points="135,-19 89,-19 89,0 135,0 135,-19"/>
<text text-anchor="middle" x="112" y="-7" font-family="Helvetica,sans-Serif" font-size="10.00">search</text>
</a>
</g>
</g>
<!-- Node1&#45;&gt;Node3 -->
<g id="edge3" class="edge">
<title>Node1&#45;&gt;Node3</title>
<path fill="none" stroke="#63b8ff" d="M53.46,-28.11C61.23,-25.59 69.85,-22.81 78.01,-20.17"/>
<polygon fill="#63b8ff" stroke="#63b8ff" points="78.84,-23.58 87.28,-17.17 76.68,-16.92 78.84,-23.58"/>
</g>
<!-- Node2&#45;&gt;Node2 -->
<g id="edge2" class="edge">
<title>Node2&#45;&gt;Node2</title>
<path fill="none" stroke="#63b8ff" d="M98.61,-74.37C92.51,-82.94 96.97,-92 112,-92 119.98,-92 124.99,-89.44 127.01,-85.76"/>
<polygon fill="#63b8ff" stroke="#63b8ff" points="130.47,-85.27 125.6,-75.87 123.54,-86.26 130.47,-85.27"/>
</g>
<!-- Node3&#45;&gt;Node3 -->
<g id="edge4" class="edge">
<title>Node3&#45;&gt;Node3</title>
<path fill="none" stroke="#63b8ff" d="M98.61,-19.37C92.51,-27.94 96.97,-37 112,-37 119.98,-37 124.99,-34.44 127.01,-30.76"/>
<polygon fill="#63b8ff" stroke="#63b8ff" points="130.47,-30.27 125.6,-20.87 123.54,-31.26 130.47,-30.27"/>
</g>
</g>
</svg>
