<?xml version="1.0" encoding="UTF-8" standalone="no"?>
<!DOCTYPE svg PUBLIC "-//W3C//DTD SVG 1.1//EN"
 "http://www.w3.org/Graphics/SVG/1.1/DTD/svg11.dtd">
<!-- Generated by graphviz version 2.46.1 (20210213.1702)
 -->
<!-- Title: example Pages: 1 -->
<svg width="223pt" height="123pt"
 viewBox="0.00 0.00 223.00 123.00" xmlns="http://www.w3.org/2000/svg" xmlns:xlink="http://www.w3.org/1999/xlink">
<g id="graph0" class="graph" transform="scale(1 1) rotate(0) translate(4 119)">
<title>example</title>
<polygon fill="white" stroke="transparent" points="-4,4 -4,-119 219,-119 219,4 -4,4"/>
<!-- Node1 -->
<g id="node1" class="node">
<title>Node1</title>
<g id="a_node1"><a xlink:title="Example function.">
<polygon fill="#bfbfbf" stroke="black" points="0,-57.5 0,-76.5 53,-76.5 53,-57.5 0,-57.5"/>
<text text-anchor="middle" x="26.5" y="-64.5" font-family="Helvetica,sans-Serif" font-size="10.00">example</text>
</a>
</g>
</g>
<!-- Node2 -->
<g id="node2" class="node">
<title>Node2</title>
<g id="a_node2"><a xlink:href="../../dd/d29/doubly__linked__list_8c.html#a37890fb794cb2c436ffcc643c30ec57f" target="_top" xlink:title="Create list function, a new list containing one node will be created.">
<polygon fill="white" stroke="black" points="171,-95.5 171,-114.5 215,-114.5 215,-95.5 171,-95.5"/>
<text text-anchor="middle" x="193" y="-102.5" font-family="Helvetica,sans-Serif" font-size="10.00">create</text>
</a>
</g>
</g>
<!-- Node1&#45;&gt;Node2 -->
<g id="edge1" class="edge">
<title>Node1&#45;&gt;Node2</title>
<path fill="none" stroke="midnightblue" d="M38.81,-76.71C50.49,-86.04 69.68,-99.51 89,-105 112.29,-111.62 139.76,-111.23 160.47,-109.4"/>
<polygon fill="midnightblue" stroke="midnightblue" points="161.04,-112.86 170.62,-108.35 160.31,-105.9 161.04,-112.86"/>
</g>
<!-- Node3 -->
<g id="node3" class="node">
<title>Node3</title>
<g id="a_node3"><a xlink:href="../../dd/d29/doubly__linked__list_8c.html#a04ac29c396dc8335a5827927183c9918" target="_top" xlink:title="Insertion by position into the list function.">
<polygon fill="white" stroke="black" points="91.5,-76.5 91.5,-95.5 132.5,-95.5 132.5,-76.5 91.5,-76.5"/>
<text text-anchor="middle" x="112" y="-83.5" font-family="Helvetica,sans-Serif" font-size="10.00">insert</text>
</a>
</g>
</g>
<!-- Node1&#45;&gt;Node3 -->
<g id="edge2" class="edge">
<title>Node1&#45;&gt;Node3</title>
<path fill="none" stroke="midnightblue" d="M53.01,-72.8C62,-74.85 72.18,-77.17 81.47,-79.28"/>
<polygon fill="midnightblue" stroke="midnightblue" points="80.95,-82.75 91.48,-81.56 82.5,-75.93 80.95,-82.75"/>
</g>
<!-- Node4 -->
<g id="node4" class="node">
<title>Node4</title>
<g id="a_node4"><a xlink:href="../../dd/d29/doubly__linked__list_8c.html#a1fadec32fc369a8dcfbcd766e166efa0" target="_top" xlink:title="Print list function.">
<polygon fill="white" stroke="black" points="94.5,-38.5 94.5,-57.5 129.5,-57.5 129.5,-38.5 94.5,-38.5"/>
<text text-anchor="middle" x="112" y="-45.5" font-family="Helvetica,sans-Serif" font-size="10.00">print</text>
</a>
</g>
</g>
<!-- Node1&#45;&gt;Node4 -->
<g id="edge4" class="edge">
<title>Node1&#45;&gt;Node4</title>
<path fill="none" stroke="midnightblue" d="M53.01,-61.2C62.97,-58.93 74.4,-56.33 84.47,-54.04"/>
<polygon fill="midnightblue" stroke="midnightblue" points="85.37,-57.42 94.34,-51.79 83.81,-50.6 85.37,-57.42"/>
</g>
<!-- Node5 -->
<g id="node5" class="node">
<title>Node5</title>
<g id="a_node5"><a xlink:href="../../dd/d29/doubly__linked__list_8c.html#aedd04074dbc6af0de89051f97209311b" target="_top" xlink:title="Search value into the list function.">
<polygon fill="white" stroke="black" points="89,-0.5 89,-19.5 135,-19.5 135,-0.5 89,-0.5"/>
<text text-anchor="middle" x="112" y="-7.5" font-family="Helvetica,sans-Serif" font-size="10.00">search</text>
</a>
</g>
</g>
<!-- Node1&#45;&gt;Node5 -->
<g id="edge5" class="edge">
<title>Node1&#45;&gt;Node5</title>
<path fill="none" stroke="midnightblue" d="M41.66,-57.33C54.46,-48.6 73.5,-35.6 88.4,-25.43"/>
<polygon fill="midnightblue" stroke="midnightblue" points="90.76,-28.06 97.04,-19.53 86.81,-22.27 90.76,-28.06"/>
</g>
<!-- Node3&#45;&gt;Node2 -->
<g id="edge3" class="edge">
<title>Node3&#45;&gt;Node2</title>
<path fill="none" stroke="midnightblue" d="M132.53,-90.7C141.05,-92.75 151.26,-95.2 160.79,-97.49"/>
<polygon fill="midnightblue" stroke="midnightblue" points="160.22,-100.96 170.76,-99.89 161.85,-94.15 160.22,-100.96"/>
</g>
</g>
</svg>
