<?xml version="1.0" encoding="UTF-8" standalone="no"?>
<!DOCTYPE svg PUBLIC "-//W3C//DTD SVG 1.1//EN"
 "http://www.w3.org/Graphics/SVG/1.1/DTD/svg11.dtd">
<!-- Generated by graphviz version 5.0.1 (20220820.1526)
 -->
<!-- Title: main Pages: 1 -->
<svg width="217pt" height="100pt"
 viewBox="0.00 0.00 217.00 100.00" xmlns="http://www.w3.org/2000/svg" xmlns:xlink="http://www.w3.org/1999/xlink">
<g id="graph0" class="graph" transform="scale(1 1) rotate(0) translate(4 96)">
<title>main</title>
<!-- Node1 -->
<g id="node1" class="node">
<title>Node1</title>
<g id="a_node1"><a xlink:title="Main function.">
<polygon fill="#999999" stroke="#666666" points="38,-46 0,-46 0,-27 38,-27 38,-46"/>
<text text-anchor="middle" x="19" y="-34" font-family="Helvetica,sans-Serif" font-size="10.00">main</text>
</a>
</g>
</g>
<!-- Node2 -->
<g id="node2" class="node">
<title>Node2</title>
<g id="a_node2"><a xlink:href="../../dd/d29/doubly__linked__list_8c.html#afa2b50f4716fc3b42221a72e676e1422" target="_top" xlink:title="Example function.">
<polygon fill="white" stroke="#666666" points="127,-46 74,-46 74,-27 127,-27 127,-46"/>
<text text-anchor="middle" x="100.5" y="-34" font-family="Helvetica,sans-Serif" font-size="10.00">example</text>
</a>
</g>
</g>
<!-- Node1&#45;&gt;Node2 -->
<g id="edge1" class="edge">
<title>Node1&#45;&gt;Node2</title>
<path fill="none" stroke="#63b8ff" d="M38.04,-36.5C45.68,-36.5 54.86,-36.5 63.77,-36.5"/>
<polygon fill="#63b8ff" stroke="#63b8ff" points="64,-40 74,-36.5 64,-33 64,-40"/>
</g>
<!-- Node3 -->
<g id="node3" class="node">
<title>Node3</title>
<g id="a_node3"><a xlink:href="../../dd/d29/doubly__linked__list_8c.html#a1fadec32fc369a8dcfbcd766e166efa0" target="_top" xlink:title="Print list function.">
<polygon fill="white" stroke="#666666" points="203.5,-74 168.5,-74 168.5,-55 203.5,-55 203.5,-74"/>
<text text-anchor="middle" x="186" y="-62" font-family="Helvetica,sans-Serif" font-size="10.00">print</text>
</a>
</g>
</g>
<!-- Node2&#45;&gt;Node3 -->
<g id="edge2" class="edge">
<title>Node2&#45;&gt;Node3</title>
<path fill="none" stroke="#63b8ff" d="M127.01,-45.05C137.08,-48.43 148.64,-52.31 158.78,-55.71"/>
<polygon fill="#63b8ff" stroke="#63b8ff" points="157.75,-59.05 168.34,-58.91 159.97,-52.42 157.75,-59.05"/>
</g>
<!-- Node4 -->
<g id="node4" class="node">
<title>Node4</title>
<g id="a_node4"><a xlink:href="../../dd/d29/doubly__linked__list_8c.html#aedd04074dbc6af0de89051f97209311b" target="_top" xlink:title="Search value into the list function.">
<polygon fill="white" stroke="#666666" points="209,-19 163,-19 163,0 209,0 209,-19"/>
<text text-anchor="middle" x="186" y="-7" font-family="Helvetica,sans-Serif" font-size="10.00">search</text>
</a>
</g>
</g>
<!-- Node2&#45;&gt;Node4 -->
<g id="edge4" class="edge">
<title>Node2&#45;&gt;Node4</title>
<path fill="none" stroke="#63b8ff" d="M127.01,-28.25C135.21,-25.6 144.41,-22.63 153.02,-19.84"/>
<polygon fill="#63b8ff" stroke="#63b8ff" points="154.32,-23.1 162.76,-16.69 152.17,-16.44 154.32,-23.1"/>
</g>
<!-- Node3&#45;&gt;Node3 -->
<g id="edge3" class="edge">
<title>Node3&#45;&gt;Node3</title>
<path fill="none" stroke="#63b8ff" d="M173.05,-74.08C166.75,-82.73 171.07,-92 186,-92 195.1,-92 200.25,-88.56 201.47,-83.91"/>
<polygon fill="#63b8ff" stroke="#63b8ff" points="204.82,-82.9 198.95,-74.08 198.04,-84.64 204.82,-82.9"/>
</g>
<!-- Node4&#45;&gt;Node4 -->
<g id="edge5" class="edge">
<title>Node4&#45;&gt;Node4</title>
<path fill="none" stroke="#63b8ff" d="M173.05,-19.08C166.75,-27.73 171.07,-37 186,-37 195.1,-37 200.25,-33.56 201.47,-28.91"/>
<polygon fill="#63b8ff" stroke="#63b8ff" points="204.82,-27.9 198.95,-19.08 198.04,-29.64 204.82,-27.9"/>
</g>
</g>
</svg>
