<?xml version="1.0" encoding="UTF-8" standalone="no"?>
<!DOCTYPE svg PUBLIC "-//W3C//DTD SVG 1.1//EN"
 "http://www.w3.org/Graphics/SVG/1.1/DTD/svg11.dtd">
<!-- Generated by graphviz version 2.49.3 (20211023.0002)
 -->
<!-- Title: example Pages: 1 -->
<svg width="225pt" height="159pt"
 viewBox="0.00 0.00 225.00 159.00" xmlns="http://www.w3.org/2000/svg" xmlns:xlink="http://www.w3.org/1999/xlink">
<g id="graph0" class="graph" transform="scale(1 1) rotate(0) translate(4 155)">
<title>example</title>
<polygon fill="white" stroke="transparent" points="-4,4 -4,-155 221,-155 221,4 -4,4"/>
<!-- Node1 -->
<g id="node1" class="node">
<title>Node1</title>
<g id="a_node1"><a xlink:title="Example function.">
<polygon fill="#bfbfbf" stroke="black" points="0,-84.5 0,-103.5 54,-103.5 54,-84.5 0,-84.5"/>
<text text-anchor="middle" x="27" y="-91.5" font-family="Helvetica,sans-Serif" font-size="10.00">example</text>
</a>
</g>
</g>
<!-- Node2 -->
<g id="node2" class="node">
<title>Node2</title>
<g id="a_node2"><a xlink:href="../../dd/d29/doubly__linked__list_8c.html#a37890fb794cb2c436ffcc643c30ec57f" target="_top" xlink:title="Create list function, a new list containing one node will be created.">
<polygon fill="white" stroke="black" points="173,-131.5 173,-150.5 217,-150.5 217,-131.5 173,-131.5"/>
<text text-anchor="middle" x="195" y="-138.5" font-family="Helvetica,sans-Serif" font-size="10.00">create</text>
</a>
</g>
</g>
<!-- Node1&#45;&gt;Node2 -->
<g id="edge1" class="edge">
<title>Node1&#45;&gt;Node2</title>
<path fill="none" stroke="midnightblue" d="M36.92,-103.87C48.04,-115.36 68.23,-133.68 90,-141 113.43,-148.88 141.53,-148.33 162.62,-146.12"/>
<polygon fill="midnightblue" stroke="midnightblue" points="163.15,-149.58 172.65,-144.88 162.29,-142.63 163.15,-149.58"/>
</g>
<!-- Node3 -->
<g id="node3" class="node">
<title>Node3</title>
<g id="a_node3"><a xlink:href="../../dd/d29/doubly__linked__list_8c.html#a04ac29c396dc8335a5827927183c9918" target="_top" xlink:title="Insertion by position into the list function.">
<polygon fill="white" stroke="black" points="93,-112.5 93,-131.5 134,-131.5 134,-112.5 93,-112.5"/>
<text text-anchor="middle" x="113.5" y="-119.5" font-family="Helvetica,sans-Serif" font-size="10.00">insert</text>
</a>
</g>
</g>
<!-- Node1&#45;&gt;Node3 -->
<g id="edge2" class="edge">
<title>Node1&#45;&gt;Node3</title>
<path fill="none" stroke="midnightblue" d="M54.27,-102.71C63.45,-105.75 73.81,-109.18 83.22,-112.3"/>
<polygon fill="midnightblue" stroke="midnightblue" points="82.36,-115.7 92.96,-115.52 84.56,-109.06 82.36,-115.7"/>
</g>
<!-- Node4 -->
<g id="node4" class="node">
<title>Node4</title>
<g id="a_node4"><a xlink:href="../../dd/d29/doubly__linked__list_8c.html#a1fadec32fc369a8dcfbcd766e166efa0" target="_top" xlink:title="Print list function.">
<polygon fill="white" stroke="black" points="95.5,-56.5 95.5,-75.5 131.5,-75.5 131.5,-56.5 95.5,-56.5"/>
<text text-anchor="middle" x="113.5" y="-63.5" font-family="Helvetica,sans-Serif" font-size="10.00">print</text>
</a>
</g>
</g>
<!-- Node1&#45;&gt;Node4 -->
<g id="edge4" class="edge">
<title>Node1&#45;&gt;Node4</title>
<path fill="none" stroke="midnightblue" d="M54.27,-85.29C64.3,-81.97 75.74,-78.18 85.81,-74.85"/>
<polygon fill="midnightblue" stroke="midnightblue" points="86.92,-78.16 95.31,-71.69 84.72,-71.52 86.92,-78.16"/>
</g>
<!-- Node5 -->
<g id="node5" class="node">
<title>Node5</title>
<g id="a_node5"><a xlink:href="../../dd/d29/doubly__linked__list_8c.html#aedd04074dbc6af0de89051f97209311b" target="_top" xlink:title="Search value into the list function.">
<polygon fill="white" stroke="black" points="90,-0.5 90,-19.5 137,-19.5 137,-0.5 90,-0.5"/>
<text text-anchor="middle" x="113.5" y="-7.5" font-family="Helvetica,sans-Serif" font-size="10.00">search</text>
</a>
</g>
</g>
<!-- Node1&#45;&gt;Node5 -->
<g id="edge6" class="edge">
<title>Node1&#45;&gt;Node5</title>
<path fill="none" stroke="midnightblue" d="M37.69,-84.36C51.83,-70.31 78.3,-44 95.66,-26.74"/>
<polygon fill="midnightblue" stroke="midnightblue" points="98.3,-29.06 102.92,-19.52 93.36,-24.09 98.3,-29.06"/>
</g>
<!-- Node3&#45;&gt;Node2 -->
<g id="edge3" class="edge">
<title>Node3&#45;&gt;Node2</title>
<path fill="none" stroke="midnightblue" d="M134.15,-126.7C142.89,-128.78 153.38,-131.29 163.13,-133.62"/>
<polygon fill="midnightblue" stroke="midnightblue" points="162.36,-137.04 172.9,-135.96 163.99,-130.23 162.36,-137.04"/>
</g>
<!-- Node4&#45;&gt;Node4 -->
<g id="edge5" class="edge">
<title>Node4&#45;&gt;Node4</title>
<path fill="none" stroke="midnightblue" d="M101.17,-75.76C95.17,-84.57 99.28,-94 113.5,-94 122.16,-94 127.08,-90.5 128.23,-85.77"/>
<polygon fill="midnightblue" stroke="midnightblue" points="131.57,-84.66 125.83,-75.76 124.76,-86.3 131.57,-84.66"/>
</g>
<!-- Node5&#45;&gt;Node5 -->
<g id="edge7" class="edge">
<title>Node5&#45;&gt;Node5</title>
<path fill="none" stroke="midnightblue" d="M101.17,-19.76C95.17,-28.57 99.28,-38 113.5,-38 122.16,-38 127.08,-34.5 128.23,-29.77"/>
<polygon fill="midnightblue" stroke="midnightblue" points="131.57,-28.66 125.83,-19.76 124.76,-30.3 131.57,-28.66"/>
</g>
</g>
</svg>
