<?xml version="1.0" encoding="UTF-8" standalone="no"?>
<!DOCTYPE svg PUBLIC "-//W3C//DTD SVG 1.1//EN"
 "http://www.w3.org/Graphics/SVG/1.1/DTD/svg11.dtd">
<!-- Generated by graphviz version 8.0.5 (20230430.1635)
 -->
<!-- Title: sorting/odd_even_sort.c Pages: 1 -->
<svg width="400pt" height="83pt"
 viewBox="0.00 0.00 400.00 82.50" xmlns="http://www.w3.org/2000/svg" xmlns:xlink="http://www.w3.org/1999/xlink">
<g id="graph0" class="graph" transform="scale(1 1) rotate(0) translate(4 78.5)">
<title>sorting/odd_even_sort.c</title>
<!-- Node1 -->
<g id="node1" class="node">
<title>Node1</title>
<g id="a_node1"><a xlink:title="Odd Even Sort implementation">
<polygon fill="#999999" stroke="#666666" points="258.75,-74.5 138.5,-74.5 138.5,-55.25 258.75,-55.25 258.75,-74.5"/>
<text text-anchor="middle" x="198.62" y="-61" font-family="Helvetica,sans-Serif" font-size="10.00">sorting/odd_even_sort.c</text>
</a>
</g>
</g>
<!-- Node2 -->
<g id="node2" class="node">
<title>Node2</title>
<g id="a_node2"><a xlink:title=" ">
<polygon fill="#e0e0e0" stroke="#999999" points="51.25,-19.25 0,-19.25 0,0 51.25,0 51.25,-19.25"/>
<text text-anchor="middle" x="25.62" y="-5.75" font-family="Helvetica,sans-Serif" font-size="10.00">assert.h</text>
</a>
</g>
</g>
<!-- Node1&#45;&gt;Node2 -->
<g id="edge1" class="edge">
<title>Node1&#45;&gt;Node2</title>
<path fill="none" stroke="#63b8ff" d="M169.28,-54.84C139.66,-45.72 93.85,-31.63 61.96,-21.81"/>
<polygon fill="#63b8ff" stroke="#63b8ff" points="63.3,-18.25 52.72,-18.66 61.24,-24.94 63.3,-18.25"/>
</g>
<!-- Node3 -->
<g id="node3" class="node">
<title>Node3</title>
<g id="a_node3"><a xlink:title=" ">
<polygon fill="#e0e0e0" stroke="#999999" points="125.5,-19.25 69.75,-19.25 69.75,0 125.5,0 125.5,-19.25"/>
<text text-anchor="middle" x="97.62" y="-5.75" font-family="Helvetica,sans-Serif" font-size="10.00">stdbool.h</text>
</a>
</g>
</g>
<!-- Node1&#45;&gt;Node3 -->
<g id="edge2" class="edge">
<title>Node1&#45;&gt;Node3</title>
<path fill="none" stroke="#63b8ff" d="M181.49,-54.84C165.89,-46.62 142.61,-34.34 124.53,-24.81"/>
<polygon fill="#63b8ff" stroke="#63b8ff" points="126.32,-21.27 115.84,-19.7 123.06,-27.46 126.32,-21.27"/>
</g>
<!-- Node4 -->
<g id="node4" class="node">
<title>Node4</title>
<g id="a_node4"><a xlink:title=" ">
<polygon fill="#e0e0e0" stroke="#999999" points="189.25,-19.25 144,-19.25 144,0 189.25,0 189.25,-19.25"/>
<text text-anchor="middle" x="166.62" y="-5.75" font-family="Helvetica,sans-Serif" font-size="10.00">stdio.h</text>
</a>
</g>
</g>
<!-- Node1&#45;&gt;Node4 -->
<g id="edge3" class="edge">
<title>Node1&#45;&gt;Node4</title>
<path fill="none" stroke="#63b8ff" d="M193.34,-55.08C189.06,-47.96 182.88,-37.68 177.55,-28.8"/>
<polygon fill="#63b8ff" stroke="#63b8ff" points="180.17,-27.38 172.02,-20.61 174.17,-30.98 180.17,-27.38"/>
</g>
<!-- Node5 -->
<g id="node5" class="node">
<title>Node5</title>
<g id="a_node5"><a xlink:title=" ">
<polygon fill="#e0e0e0" stroke="#999999" points="254.38,-19.25 206.88,-19.25 206.88,0 254.38,0 254.38,-19.25"/>
<text text-anchor="middle" x="230.62" y="-5.75" font-family="Helvetica,sans-Serif" font-size="10.00">stdlib.h</text>
</a>
</g>
</g>
<!-- Node1&#45;&gt;Node5 -->
<g id="edge4" class="edge">
<title>Node1&#45;&gt;Node5</title>
<path fill="none" stroke="#63b8ff" d="M203.91,-55.08C208.19,-47.96 214.37,-37.68 219.7,-28.8"/>
<polygon fill="#63b8ff" stroke="#63b8ff" points="223.08,-30.98 225.23,-20.61 217.08,-27.38 223.08,-30.98"/>
</g>
<!-- Node6 -->
<g id="node6" class="node">
<title>Node6</title>
<g id="a_node6"><a xlink:title=" ">
<polygon fill="#e0e0e0" stroke="#999999" points="315.12,-19.25 272.12,-19.25 272.12,0 315.12,0 315.12,-19.25"/>
<text text-anchor="middle" x="293.62" y="-5.75" font-family="Helvetica,sans-Serif" font-size="10.00">time.h</text>
</a>
</g>
</g>
<!-- Node1&#45;&gt;Node6 -->
<g id="edge5" class="edge">
<title>Node1&#45;&gt;Node6</title>
<path fill="none" stroke="#63b8ff" d="M214.74,-54.84C229.34,-46.66 251.11,-34.46 268.08,-24.94"/>
<polygon fill="#63b8ff" stroke="#63b8ff" points="269.42,-27.65 276.43,-19.7 266,-21.54 269.42,-27.65"/>
</g>
<!-- Node7 -->
<g id="node7" class="node">
<title>Node7</title>
<g id="a_node7"><a xlink:title=" ">
<polygon fill="#e0e0e0" stroke="#999999" points="392,-19.25 333.25,-19.25 333.25,0 392,0 392,-19.25"/>
<text text-anchor="middle" x="362.62" y="-5.75" font-family="Helvetica,sans-Serif" font-size="10.00">inttypes.h</text>
</a>
</g>
</g>
<!-- Node1&#45;&gt;Node7 -->
<g id="edge6" class="edge">
<title>Node1&#45;&gt;Node7</title>
<path fill="none" stroke="#63b8ff" d="M226.45,-54.84C253.42,-46.08 294.56,-32.73 324.56,-22.98"/>
<polygon fill="#63b8ff" stroke="#63b8ff" points="325.24,-26.12 333.67,-19.7 323.08,-19.46 325.24,-26.12"/>
</g>
</g>
</svg>
