<?xml version="1.0" encoding="UTF-8" standalone="no"?>
<!DOCTYPE svg PUBLIC "-//W3C//DTD SVG 1.1//EN"
 "http://www.w3.org/Graphics/SVG/1.1/DTD/svg11.dtd">
<!-- Generated by graphviz version 6.0.1 (20220911.1526)
 -->
<!-- Title: main Pages: 1 -->
<svg width="174pt" height="64pt"
 viewBox="0.00 0.00 174.00 64.00" xmlns="http://www.w3.org/2000/svg" xmlns:xlink="http://www.w3.org/1999/xlink">
<g id="graph0" class="graph" transform="scale(1 1) rotate(0) translate(4 60)">
<title>main</title>
<!-- Node1 -->
<g id="node1" class="node">
<title>Node1</title>
<g id="a_node1"><a xlink:title="Main function.">
<polygon fill="#999999" stroke="#666666" points="38,-37 0,-37 0,-18 38,-18 38,-37"/>
<text text-anchor="middle" x="19" y="-25" font-family="Helvetica,sans-Serif" font-size="10.00">main</text>
</a>
</g>
</g>
<!-- Node2 -->
<g id="node2" class="node">
<title>Node2</title>
<g id="a_node2"><a xlink:href="../../dc/d2e/lu__decompose_8c.html#a0789beb8d3396582d77b7aedf5e5554a" target="_top" xlink:title="Function to display square matrix.">
<polygon fill="white" stroke="#666666" points="143.5,-56 96.5,-56 96.5,-37 143.5,-37 143.5,-56"/>
<text text-anchor="middle" x="120" y="-44" font-family="Helvetica,sans-Serif" font-size="10.00">display</text>
</a>
</g>
</g>
<!-- Node1&#45;&gt;Node2 -->
<g id="edge1" class="edge">
<title>Node1&#45;&gt;Node2</title>
<path fill="none" stroke="#63b8ff" d="M38.16,-30.98C51.62,-33.57 70.34,-37.16 86.37,-40.24"/>
<polygon fill="#63b8ff" stroke="#63b8ff" points="85.96,-43.72 96.44,-42.17 87.28,-36.85 85.96,-43.72"/>
</g>
<!-- Node3 -->
<g id="node3" class="node">
<title>Node3</title>
<g id="a_node3"><a xlink:href="../../dc/d2e/lu__decompose_8c.html#aae40b90a8efd645c749128cf8072bbb4" target="_top" xlink:title="Perform LU decomposition on matrix.">
<polygon fill="white" stroke="#666666" points="166,-19 74,-19 74,0 166,0 166,-19"/>
<text text-anchor="middle" x="120" y="-7" font-family="Helvetica,sans-Serif" font-size="10.00">lu_decomposition</text>
</a>
</g>
</g>
<!-- Node1&#45;&gt;Node3 -->
<g id="edge2" class="edge">
<title>Node1&#45;&gt;Node3</title>
<path fill="none" stroke="#63b8ff" d="M38.16,-24.2C45.54,-22.86 54.49,-21.23 63.72,-19.55"/>
<polygon fill="#63b8ff" stroke="#63b8ff" points="64.57,-22.95 73.78,-17.72 63.32,-16.07 64.57,-22.95"/>
</g>
</g>
</svg>
