<?xml version="1.0" encoding="UTF-8" standalone="no"?>
<!DOCTYPE svg PUBLIC "-//W3C//DTD SVG 1.1//EN"
 "http://www.w3.org/Graphics/SVG/1.1/DTD/svg11.dtd">
<!-- Generated by graphviz version 3.0.0 (20220226.1711)
 -->
<!-- Title: main Pages: 1 -->
<svg width="174pt" height="66pt"
 viewBox="0.00 0.00 174.00 66.00" xmlns="http://www.w3.org/2000/svg" xmlns:xlink="http://www.w3.org/1999/xlink">
<g id="graph0" class="graph" transform="scale(1 1) rotate(0) translate(4 62)">
<title>main</title>
<polygon fill="white" stroke="transparent" points="-4,4 -4,-62 170,-62 170,4 -4,4"/>
<!-- Node1 -->
<g id="node1" class="node">
<title>Node1</title>
<g id="a_node1"><a xlink:title="Main function.">
<polygon fill="#bfbfbf" stroke="black" points="0,-19.5 0,-38.5 38,-38.5 38,-19.5 0,-19.5"/>
<text text-anchor="middle" x="19" y="-26.5" font-family="Helvetica,sans-Serif" font-size="10.00">main</text>
</a>
</g>
</g>
<!-- Node2 -->
<g id="node2" class="node">
<title>Node2</title>
<g id="a_node2"><a xlink:href="../../dc/d2e/lu__decompose_8c.html#a0789beb8d3396582d77b7aedf5e5554a" target="_top" xlink:title="Function to display square matrix.">
<polygon fill="white" stroke="black" points="96.5,-38.5 96.5,-57.5 143.5,-57.5 143.5,-38.5 96.5,-38.5"/>
<text text-anchor="middle" x="120" y="-45.5" font-family="Helvetica,sans-Serif" font-size="10.00">display</text>
</a>
</g>
</g>
<!-- Node1&#45;&gt;Node2 -->
<g id="edge1" class="edge">
<title>Node1&#45;&gt;Node2</title>
<path fill="none" stroke="midnightblue" d="M38.16,-32.48C51.62,-35.07 70.34,-38.66 86.37,-41.74"/>
<polygon fill="midnightblue" stroke="midnightblue" points="85.96,-45.22 96.44,-43.67 87.28,-38.35 85.96,-45.22"/>
</g>
<!-- Node3 -->
<g id="node3" class="node">
<title>Node3</title>
<g id="a_node3"><a xlink:href="../../dc/d2e/lu__decompose_8c.html#aae40b90a8efd645c749128cf8072bbb4" target="_top" xlink:title="Perform LU decomposition on matrix.">
<polygon fill="white" stroke="black" points="74,-0.5 74,-19.5 166,-19.5 166,-0.5 74,-0.5"/>
<text text-anchor="middle" x="120" y="-7.5" font-family="Helvetica,sans-Serif" font-size="10.00">lu_decomposition</text>
</a>
</g>
</g>
<!-- Node1&#45;&gt;Node3 -->
<g id="edge2" class="edge">
<title>Node1&#45;&gt;Node3</title>
<path fill="none" stroke="midnightblue" d="M38.16,-25.52C45.54,-24.1 54.49,-22.38 63.72,-20.61"/>
<polygon fill="midnightblue" stroke="midnightblue" points="64.62,-24 73.78,-18.68 63.3,-17.13 64.62,-24"/>
</g>
</g>
</svg>
