<?xml version="1.0" encoding="UTF-8" standalone="no"?>
<!DOCTYPE svg PUBLIC "-//W3C//DTD SVG 1.1//EN"
 "http://www.w3.org/Graphics/SVG/1.1/DTD/svg11.dtd">
<!-- Generated by graphviz version 5.0.1 (20220820.1526)
 -->
<!-- Title: machine_learning/kohonen_som_trace.c Pages: 1 -->
<svg width="310pt" height="93pt"
 viewBox="0.00 0.00 309.50 93.00" xmlns="http://www.w3.org/2000/svg" xmlns:xlink="http://www.w3.org/1999/xlink">
<g id="graph0" class="graph" transform="scale(1 1) rotate(0) translate(4 89)">
<title>machine_learning/kohonen_som_trace.c</title>
<!-- Node1 -->
<g id="node1" class="node">
<title>Node1</title>
<g id="a_node1"><a xlink:title="Kohonen self organizing map (data tracing)">
<polygon fill="#999999" stroke="#666666" points="219.5,-85 87.5,-85 87.5,-55 219.5,-55 219.5,-85"/>
<text text-anchor="start" x="95.5" y="-73" font-family="Helvetica,sans-Serif" font-size="10.00">machine_learning/kohonen</text>
<text text-anchor="middle" x="153.5" y="-62" font-family="Helvetica,sans-Serif" font-size="10.00">_som_trace.c</text>
</a>
</g>
</g>
<!-- Node2 -->
<g id="node2" class="node">
<title>Node2</title>
<g id="a_node2"><a xlink:title=" ">
<polygon fill="#e0e0e0" stroke="#999999" points="47,-19 0,-19 0,0 47,0 47,-19"/>
<text text-anchor="middle" x="23.5" y="-7" font-family="Helvetica,sans-Serif" font-size="10.00">math.h</text>
</a>
</g>
</g>
<!-- Node1&#45;&gt;Node2 -->
<g id="edge1" class="edge">
<title>Node1&#45;&gt;Node2</title>
<path fill="none" stroke="#63b8ff" d="M122.36,-54.99C100.96,-45.36 72.77,-32.67 51.97,-23.31"/>
<polygon fill="#63b8ff" stroke="#63b8ff" points="53.25,-20.05 42.7,-19.14 50.38,-26.43 53.25,-20.05"/>
</g>
<!-- Node3 -->
<g id="node3" class="node">
<title>Node3</title>
<g id="a_node3"><a xlink:title=" ">
<polygon fill="#e0e0e0" stroke="#999999" points="111.5,-19 65.5,-19 65.5,0 111.5,0 111.5,-19"/>
<text text-anchor="middle" x="88.5" y="-7" font-family="Helvetica,sans-Serif" font-size="10.00">stdio.h</text>
</a>
</g>
</g>
<!-- Node1&#45;&gt;Node3 -->
<g id="edge2" class="edge">
<title>Node1&#45;&gt;Node3</title>
<path fill="none" stroke="#63b8ff" d="M137.77,-54.84C128.14,-46.17 115.81,-35.08 105.89,-26.15"/>
<polygon fill="#63b8ff" stroke="#63b8ff" points="108.01,-23.35 98.24,-19.27 103.33,-28.56 108.01,-23.35"/>
</g>
<!-- Node4 -->
<g id="node4" class="node">
<title>Node4</title>
<g id="a_node4"><a xlink:title=" ">
<polygon fill="#e0e0e0" stroke="#999999" points="177.5,-19 129.5,-19 129.5,0 177.5,0 177.5,-19"/>
<text text-anchor="middle" x="153.5" y="-7" font-family="Helvetica,sans-Serif" font-size="10.00">stdlib.h</text>
</a>
</g>
</g>
<!-- Node1&#45;&gt;Node4 -->
<g id="edge3" class="edge">
<title>Node1&#45;&gt;Node4</title>
<path fill="none" stroke="#63b8ff" d="M153.5,-54.84C153.5,-47.21 153.5,-37.7 153.5,-29.45"/>
<polygon fill="#63b8ff" stroke="#63b8ff" points="157,-29.27 153.5,-19.27 150,-29.27 157,-29.27"/>
</g>
<!-- Node5 -->
<g id="node5" class="node">
<title>Node5</title>
<g id="a_node5"><a xlink:title=" ">
<polygon fill="#e0e0e0" stroke="#999999" points="239.5,-19 195.5,-19 195.5,0 239.5,0 239.5,-19"/>
<text text-anchor="middle" x="217.5" y="-7" font-family="Helvetica,sans-Serif" font-size="10.00">time.h</text>
</a>
</g>
</g>
<!-- Node1&#45;&gt;Node5 -->
<g id="edge4" class="edge">
<title>Node1&#45;&gt;Node5</title>
<path fill="none" stroke="#63b8ff" d="M168.99,-54.84C178.47,-46.17 190.61,-35.08 200.38,-26.15"/>
<polygon fill="#63b8ff" stroke="#63b8ff" points="202.89,-28.6 207.91,-19.27 198.17,-23.43 202.89,-28.6"/>
</g>
<!-- Node6 -->
<g id="node6" class="node">
<title>Node6</title>
<g id="a_node6"><a xlink:title=" ">
<polygon fill="#e0e0e0" stroke="#999999" points="301.5,-19 257.5,-19 257.5,0 301.5,0 301.5,-19"/>
<text text-anchor="middle" x="279.5" y="-7" font-family="Helvetica,sans-Serif" font-size="10.00">omp.h</text>
</a>
</g>
</g>
<!-- Node1&#45;&gt;Node6 -->
<g id="edge5" class="edge">
<title>Node1&#45;&gt;Node6</title>
<path fill="none" stroke="#63b8ff" d="M183.68,-54.99C204.33,-45.4 231.5,-32.79 251.63,-23.44"/>
<polygon fill="#63b8ff" stroke="#63b8ff" points="253.3,-26.52 260.89,-19.14 250.35,-20.18 253.3,-26.52"/>
</g>
</g>
</svg>
