<?xml version="1.0" encoding="UTF-8" standalone="no"?>
<!DOCTYPE svg PUBLIC "-//W3C//DTD SVG 1.1//EN"
 "http://www.w3.org/Graphics/SVG/1.1/DTD/svg11.dtd">
<!-- Generated by graphviz version 2.49.3 (20211023.0002)
 -->
<!-- Title: kohonen_som_tracer Pages: 1 -->
<svg width="433pt" height="28pt"
 viewBox="0.00 0.00 433.00 28.00" xmlns="http://www.w3.org/2000/svg" xmlns:xlink="http://www.w3.org/1999/xlink">
<g id="graph0" class="graph" transform="scale(1 1) rotate(0) translate(4 24)">
<title>kohonen_som_tracer</title>
<polygon fill="white" stroke="transparent" points="-4,4 -4,-24 429,-24 429,4 -4,4"/>
<!-- Node1 -->
<g id="node1" class="node">
<title>Node1</title>
<g id="a_node1"><a xlink:title="Apply incremental algorithm with updating neighborhood and learning rates on all samples in the given...">
<polygon fill="#bfbfbf" stroke="black" points="0,-0.5 0,-19.5 110,-19.5 110,-0.5 0,-0.5"/>
<text text-anchor="middle" x="55" y="-7.5" font-family="Helvetica,sans-Serif" font-size="10.00">kohonen_som_tracer</text>
</a>
</g>
</g>
<!-- Node2 -->
<g id="node2" class="node">
<title>Node2</title>
<g id="a_node2"><a xlink:href="../../d0/dcb/group__kohonen__1d.html#gae334493a0917a24736fe5ba82aa6f81f" target="_top" xlink:title="Update weights of the SOM using Kohonen algorithm.">
<polygon fill="white" stroke="black" points="146,-0.5 146,-19.5 276,-19.5 276,-0.5 146,-0.5"/>
<text text-anchor="middle" x="211" y="-7.5" font-family="Helvetica,sans-Serif" font-size="10.00">kohonen_update_weights</text>
</a>
</g>
</g>
<!-- Node1&#45;&gt;Node2 -->
<g id="edge1" class="edge">
<title>Node1&#45;&gt;Node2</title>
<path fill="none" stroke="midnightblue" d="M110.29,-10C118.57,-10 127.24,-10 135.85,-10"/>
<polygon fill="midnightblue" stroke="midnightblue" points="135.92,-13.5 145.92,-10 135.92,-6.5 135.92,-13.5"/>
</g>
<!-- Node3 -->
<g id="node3" class="node">
<title>Node3</title>
<g id="a_node3"><a xlink:href="../../d0/dcb/group__kohonen__1d.html#ga4a57a413a3cef286a7da6d4666575586" target="_top" xlink:title="Get minimum value and index of the value in a vector.">
<polygon fill="white" stroke="black" points="312,-0.5 312,-19.5 425,-19.5 425,-0.5 312,-0.5"/>
<text text-anchor="middle" x="368.5" y="-7.5" font-family="Helvetica,sans-Serif" font-size="10.00">kohonen_get_min_1d</text>
</a>
</g>
</g>
<!-- Node2&#45;&gt;Node3 -->
<g id="edge2" class="edge">
<title>Node2&#45;&gt;Node3</title>
<path fill="none" stroke="midnightblue" d="M276.15,-10C284.59,-10 293.26,-10 301.73,-10"/>
<polygon fill="midnightblue" stroke="midnightblue" points="301.94,-13.5 311.94,-10 301.94,-6.5 301.94,-13.5"/>
</g>
</g>
</svg>
