<?xml version="1.0" encoding="UTF-8" standalone="no"?>
<!DOCTYPE svg PUBLIC "-//W3C//DTD SVG 1.1//EN"
 "http://www.w3.org/Graphics/SVG/1.1/DTD/svg11.dtd">
<!-- Generated by graphviz version 8.0.5 (20230430.1635)
 -->
<!-- Title: test3 Pages: 1 -->
<svg width="251pt" height="138pt"
 viewBox="0.00 0.00 251.00 138.25" xmlns="http://www.w3.org/2000/svg" xmlns:xlink="http://www.w3.org/1999/xlink">
<g id="graph0" class="graph" transform="scale(1 1) rotate(0) translate(4 134.25)">
<title>test3</title>
<!-- Node1 -->
<g id="Node000001" class="node">
<title>Node1</title>
<g id="a_Node000001"><a xlink:title="Test function 3.">
<polygon fill="#999999" stroke="#666666" points="37.75,-74.25 0,-74.25 0,-55 37.75,-55 37.75,-74.25"/>
<text text-anchor="middle" x="18.88" y="-60.75" font-family="Helvetica,sans-Serif" font-size="10.00">test3</text>
</a>
</g>
</g>
<!-- Node2 -->
<g id="Node000002" class="node">
<title>Node2</title>
<g id="a_Node000002"><a xlink:href="../../d0/dcb/poly__add_8c.html#a29eace09ec1373a92003075f1c2f6d9d" target="_top" xlink:title="The function will create a polynomial.">
<polygon fill="white" stroke="#666666" points="170.38,-130.25 75.62,-130.25 75.62,-111 170.38,-111 170.38,-130.25"/>
<text text-anchor="middle" x="123" y="-116.75" font-family="Helvetica,sans-Serif" font-size="10.00">create_polynomial</text>
</a>
</g>
</g>
<!-- Node1&#45;&gt;Node2 -->
<g id="edge1_Node000001_Node000002" class="edge">
<title>Node1&#45;&gt;Node2</title>
<g id="a_edge1_Node000001_Node000002"><a xlink:title=" ">
<path fill="none" stroke="#63b8ff" d="M32.13,-74.65C42.68,-82.94 58.57,-94.61 73.75,-102.62 76.17,-103.9 78.7,-105.13 81.29,-106.31"/>
<polygon fill="#63b8ff" stroke="#63b8ff" points="79.79,-109.9 90.36,-110.55 82.51,-103.45 79.79,-109.9"/>
</a>
</g>
</g>
<!-- Node3 -->
<g id="Node000003" class="node">
<title>Node3</title>
<g id="a_Node000003"><a xlink:href="../../d0/dcb/poly__add_8c.html#ab9b9bedcb99f279d491d1b856791a36d" target="_top" xlink:title="The function will display the polynomial.">
<polygon fill="white" stroke="#666666" points="172.25,-93.25 73.75,-93.25 73.75,-74 172.25,-74 172.25,-93.25"/>
<text text-anchor="middle" x="123" y="-79.75" font-family="Helvetica,sans-Serif" font-size="10.00">display_polynomial</text>
</a>
</g>
</g>
<!-- Node1&#45;&gt;Node3 -->
<g id="edge2_Node000001_Node000003" class="edge">
<title>Node1&#45;&gt;Node3</title>
<g id="a_edge2_Node000001_Node000003"><a xlink:title=" ">
<path fill="none" stroke="#63b8ff" d="M38.13,-68.02C45.31,-69.36 53.98,-70.97 62.99,-72.65"/>
<polygon fill="#63b8ff" stroke="#63b8ff" points="62.19,-76.24 72.66,-74.63 63.47,-69.36 62.19,-76.24"/>
</a>
</g>
</g>
<!-- Node4 -->
<g id="Node000004" class="node">
<title>Node4</title>
<g id="a_Node000004"><a xlink:href="../../d0/dcb/poly__add_8c.html#a5a103fff33166d6e4d975b8b63c6e895" target="_top" xlink:title="Frees memory space.">
<polygon fill="white" stroke="#666666" points="150.88,-56.25 95.12,-56.25 95.12,-37 150.88,-37 150.88,-56.25"/>
<text text-anchor="middle" x="123" y="-42.75" font-family="Helvetica,sans-Serif" font-size="10.00">free_poly</text>
</a>
</g>
</g>
<!-- Node1&#45;&gt;Node4 -->
<g id="edge3_Node000001_Node000004" class="edge">
<title>Node1&#45;&gt;Node4</title>
<g id="a_edge3_Node000001_Node000004"><a xlink:title=" ">
<path fill="none" stroke="#63b8ff" d="M38.13,-61.41C50.91,-59.16 68.43,-56.07 84.15,-53.3"/>
<polygon fill="#63b8ff" stroke="#63b8ff" points="84.43,-56.62 93.67,-51.44 83.22,-49.73 84.43,-56.62"/>
</a>
</g>
</g>
<!-- Node6 -->
<g id="Node000006" class="node">
<title>Node6</title>
<g id="a_Node000006"><a xlink:href="../../d0/dcb/poly__add_8c.html#a6ff38afe4720527c9513139cbab460af" target="_top" xlink:title="The function will add 2 polynomials.">
<polygon fill="white" stroke="#666666" points="150.5,-19.25 95.5,-19.25 95.5,0 150.5,0 150.5,-19.25"/>
<text text-anchor="middle" x="123" y="-5.75" font-family="Helvetica,sans-Serif" font-size="10.00">poly_add</text>
</a>
</g>
</g>
<!-- Node1&#45;&gt;Node6 -->
<g id="edge5_Node000001_Node000006" class="edge">
<title>Node1&#45;&gt;Node6</title>
<g id="a_edge5_Node000001_Node000006"><a xlink:title=" ">
<path fill="none" stroke="#63b8ff" d="M32.59,-54.56C43.17,-46.53 58.85,-35.37 73.75,-27.62 77.33,-25.76 81.15,-24 85.01,-22.35"/>
<polygon fill="#63b8ff" stroke="#63b8ff" points="86.2,-25.25 94.2,-18.3 83.62,-18.74 86.2,-25.25"/>
</a>
</g>
</g>
<!-- Node5 -->
<g id="Node000005" class="node">
<title>Node5</title>
<g id="a_Node000005"><a xlink:href="../../df/dfa/vector_8c.html#af2f92e8cc55e764980bc0573ab5cd06f" target="_top" xlink:title="This function gets the next item from the Vector each time it&#39;s called.">
<polygon fill="white" stroke="#666666" points="243,-56.25 208.25,-56.25 208.25,-37 243,-37 243,-56.25"/>
<text text-anchor="middle" x="225.62" y="-42.75" font-family="Helvetica,sans-Serif" font-size="10.00">next</text>
</a>
</g>
</g>
<!-- Node4&#45;&gt;Node5 -->
<g id="edge4_Node000004_Node000005" class="edge">
<title>Node4&#45;&gt;Node5</title>
<g id="a_edge4_Node000004_Node000005"><a xlink:title=" ">
<path fill="none" stroke="#63b8ff" d="M151.23,-46.62C165.47,-46.62 182.85,-46.62 197.13,-46.62"/>
<polygon fill="#63b8ff" stroke="#63b8ff" points="196.79,-50.13 206.79,-46.62 196.79,-43.13 196.79,-50.13"/>
</a>
</g>
</g>
</g>
</svg>
