<?xml version="1.0" encoding="UTF-8" standalone="no"?>
<!DOCTYPE svg PUBLIC "-//W3C//DTD SVG 1.1//EN"
 "http://www.w3.org/Graphics/SVG/1.1/DTD/svg11.dtd">
<!-- Generated by graphviz version 9.0.0 (20230911.1827)
 -->
<!-- Title: test3 Pages: 1 -->
<svg width="251pt" height="138pt"
 viewBox="0.00 0.00 251.00 138.25" xmlns="http://www.w3.org/2000/svg" xmlns:xlink="http://www.w3.org/1999/xlink">
<g id="graph0" class="graph" transform="scale(1 1) rotate(0) translate(4 134.25)">
<title>test3</title>
<!-- Node1 -->
<g id="Node000001" class="node">
<title>Node1</title>
<g id="a_Node000001"><a xlink:title="Test function 3.">
<polygon fill="#999999" stroke="#666666" points="37.75,-74.25 0,-74.25 0,-55 37.75,-55 37.75,-74.25"/>
<text text-anchor="middle" x="18.88" y="-60.75" font-family="Helvetica,sans-Serif" font-size="10.00">test3</text>
</a>
</g>
</g>
<!-- Node2 -->
<g id="Node000002" class="node">
<title>Node2</title>
<g id="a_Node000002"><a xlink:href="../../d0/dcb/poly__add_8c.html#a29eace09ec1373a92003075f1c2f6d9d" target="_top" xlink:title="The function will create a polynomial.">
<polygon fill="white" stroke="#666666" points="170.38,-130.25 75.62,-130.25 75.62,-111 170.38,-111 170.38,-130.25"/>
<text text-anchor="middle" x="123" y="-116.75" font-family="Helvetica,sans-Serif" font-size="10.00">create_polynomial</text>
</a>
</g>
</g>
<!-- Node1&#45;&gt;Node2 -->
<g id="edge1_Node000001_Node000002" class="edge">
<title>Node1&#45;&gt;Node2</title>
<g id="a_edge1_Node000001_Node000002"><a xlink:title=" ">
<path fill="none" stroke="#63b8ff" d="M32.13,-74.65C42.68,-82.94 58.57,-94.61 73.75,-102.62 76.08,-103.86 78.52,-105.05 81.01,-106.18"/>
<polygon fill="#63b8ff" stroke="#63b8ff" points="79.4,-109.3 89.97,-109.96 82.12,-102.85 79.4,-109.3"/>
</a>
</g>
</g>
<!-- Node3 -->
<g id="Node000003" class="node">
<title>Node3</title>
<g id="a_Node000003"><a xlink:href="../../d0/dcb/poly__add_8c.html#ab9b9bedcb99f279d491d1b856791a36d" target="_top" xlink:title="The function will display the polynomial.">
<polygon fill="white" stroke="#666666" points="172.25,-93.25 73.75,-93.25 73.75,-74 172.25,-74 172.25,-93.25"/>
<text text-anchor="middle" x="123" y="-79.75" font-family="Helvetica,sans-Serif" font-size="10.00">display_polynomial</text>
</a>
</g>
</g>
<!-- Node1&#45;&gt;Node3 -->
<g id="edge2_Node000001_Node000003" class="edge">
<title>Node1&#45;&gt;Node3</title>
<g id="a_edge2_Node000001_Node000003"><a xlink:title=" ">
<path fill="none" stroke="#63b8ff" d="M38.13,-68.02C45.15,-69.33 53.61,-70.9 62.41,-72.54"/>
<polygon fill="#63b8ff" stroke="#63b8ff" points="61.7,-75.97 72.17,-74.35 62.98,-69.08 61.7,-75.97"/>
</a>
</g>
</g>
<!-- Node4 -->
<g id="Node000004" class="node">
<title>Node4</title>
<g id="a_Node000004"><a xlink:href="../../d0/dcb/poly__add_8c.html#a5a103fff33166d6e4d975b8b63c6e895" target="_top" xlink:title="Frees memory space.">
<polygon fill="white" stroke="#666666" points="150.88,-56.25 95.12,-56.25 95.12,-37 150.88,-37 150.88,-56.25"/>
<text text-anchor="middle" x="123" y="-42.75" font-family="Helvetica,sans-Serif" font-size="10.00">free_poly</text>
</a>
</g>
</g>
<!-- Node1&#45;&gt;Node4 -->
<g id="edge3_Node000001_Node000004" class="edge">
<title>Node1&#45;&gt;Node4</title>
<g id="a_edge3_Node000001_Node000004"><a xlink:title=" ">
<path fill="none" stroke="#63b8ff" d="M38.13,-61.41C50.78,-59.18 68.09,-56.13 83.7,-53.38"/>
<polygon fill="#63b8ff" stroke="#63b8ff" points="83.94,-56.89 93.18,-51.7 82.73,-49.99 83.94,-56.89"/>
</a>
</g>
</g>
<!-- Node6 -->
<g id="Node000006" class="node">
<title>Node6</title>
<g id="a_Node000006"><a xlink:href="../../d0/dcb/poly__add_8c.html#a6ff38afe4720527c9513139cbab460af" target="_top" xlink:title="The function will add 2 polynomials.">
<polygon fill="white" stroke="#666666" points="150.5,-19.25 95.5,-19.25 95.5,0 150.5,0 150.5,-19.25"/>
<text text-anchor="middle" x="123" y="-5.75" font-family="Helvetica,sans-Serif" font-size="10.00">poly_add</text>
</a>
</g>
</g>
<!-- Node1&#45;&gt;Node6 -->
<g id="edge5_Node000001_Node000006" class="edge">
<title>Node1&#45;&gt;Node6</title>
<g id="a_edge5_Node000001_Node000006"><a xlink:title=" ">
<path fill="none" stroke="#63b8ff" d="M32.59,-54.56C43.17,-46.53 58.85,-35.37 73.75,-27.62 77.23,-25.82 80.93,-24.1 84.67,-22.5"/>
<polygon fill="#63b8ff" stroke="#63b8ff" points="85.8,-25.82 93.8,-18.86 83.21,-19.31 85.8,-25.82"/>
</a>
</g>
</g>
<!-- Node5 -->
<g id="Node000005" class="node">
<title>Node5</title>
<g id="a_Node000005"><a xlink:href="../../df/dfa/vector_8c.html#af2f92e8cc55e764980bc0573ab5cd06f" target="_top" xlink:title="This function gets the next item from the Vector each time it&#39;s called.">
<polygon fill="white" stroke="#666666" points="243,-56.25 208.25,-56.25 208.25,-37 243,-37 243,-56.25"/>
<text text-anchor="middle" x="225.62" y="-42.75" font-family="Helvetica,sans-Serif" font-size="10.00">next</text>
</a>
</g>
</g>
<!-- Node4&#45;&gt;Node5 -->
<g id="edge4_Node000004_Node000005" class="edge">
<title>Node4&#45;&gt;Node5</title>
<g id="a_edge4_Node000004_Node000005"><a xlink:title=" ">
<path fill="none" stroke="#63b8ff" d="M151.23,-46.62C165.33,-46.62 182.51,-46.62 196.7,-46.62"/>
<polygon fill="#63b8ff" stroke="#63b8ff" points="196.28,-50.13 206.28,-46.63 196.28,-43.13 196.28,-50.13"/>
</a>
</g>
</g>
</g>
</svg>
