<?xml version="1.0" encoding="UTF-8" standalone="no"?>
<!DOCTYPE svg PUBLIC "-//W3C//DTD SVG 1.1//EN"
 "http://www.w3.org/Graphics/SVG/1.1/DTD/svg11.dtd">
<!-- Generated by graphviz version 3.0.0 (20220226.1711)
 -->
<!-- Title: main Pages: 1 -->
<svg width="255pt" height="142pt"
 viewBox="0.00 0.00 255.00 142.00" xmlns="http://www.w3.org/2000/svg" xmlns:xlink="http://www.w3.org/1999/xlink">
<g id="graph0" class="graph" transform="scale(1 1) rotate(0) translate(4 138)">
<title>main</title>
<polygon fill="white" stroke="transparent" points="-4,4 -4,-138 251,-138 251,4 -4,4"/>
<!-- Node1 -->
<g id="node1" class="node">
<title>Node1</title>
<g id="a_node1"><a xlink:title="Main function.">
<polygon fill="#bfbfbf" stroke="black" points="0,-57.5 0,-76.5 38,-76.5 38,-57.5 0,-57.5"/>
<text text-anchor="middle" x="19" y="-64.5" font-family="Helvetica,sans-Serif" font-size="10.00">main</text>
</a>
</g>
</g>
<!-- Node2 -->
<g id="node2" class="node">
<title>Node2</title>
<g id="a_node2"><a xlink:href="../../d0/dcb/poly__add_8c.html#ab215107dbb50c7efa811a687ce9b95af" target="_top" xlink:title="Test function 1.">
<polygon fill="white" stroke="black" points="74,-95.5 74,-114.5 112,-114.5 112,-95.5 74,-95.5"/>
<text text-anchor="middle" x="93" y="-102.5" font-family="Helvetica,sans-Serif" font-size="10.00">test1</text>
</a>
</g>
</g>
<!-- Node1&#45;&gt;Node2 -->
<g id="edge1" class="edge">
<title>Node1&#45;&gt;Node2</title>
<path fill="none" stroke="midnightblue" d="M38.17,-76.59C46.21,-80.83 55.83,-85.91 64.71,-90.6"/>
<polygon fill="midnightblue" stroke="midnightblue" points="63.11,-93.71 73.59,-95.28 66.38,-87.52 63.11,-93.71"/>
</g>
<!-- Node7 -->
<g id="node7" class="node">
<title>Node7</title>
<g id="a_node7"><a xlink:href="../../d0/dcb/poly__add_8c.html#a0c5173884bd798a6ca6f437b9b932409" target="_top" xlink:title="Test function 2.">
<polygon fill="white" stroke="black" points="74,-57.5 74,-76.5 112,-76.5 112,-57.5 74,-57.5"/>
<text text-anchor="middle" x="93" y="-64.5" font-family="Helvetica,sans-Serif" font-size="10.00">test2</text>
</a>
</g>
</g>
<!-- Node1&#45;&gt;Node7 -->
<g id="edge6" class="edge">
<title>Node1&#45;&gt;Node7</title>
<path fill="none" stroke="midnightblue" d="M38.17,-67C45.87,-67 55.03,-67 63.58,-67"/>
<polygon fill="midnightblue" stroke="midnightblue" points="63.59,-70.5 73.59,-67 63.59,-63.5 63.59,-70.5"/>
</g>
<!-- Node8 -->
<g id="node8" class="node">
<title>Node8</title>
<g id="a_node8"><a xlink:href="../../d0/dcb/poly__add_8c.html#ab138609c765e2fd8b89e9c107cd40d57" target="_top" xlink:title="Test function 3.">
<polygon fill="white" stroke="black" points="74,-19.5 74,-38.5 112,-38.5 112,-19.5 74,-19.5"/>
<text text-anchor="middle" x="93" y="-26.5" font-family="Helvetica,sans-Serif" font-size="10.00">test3</text>
</a>
</g>
</g>
<!-- Node1&#45;&gt;Node8 -->
<g id="edge11" class="edge">
<title>Node1&#45;&gt;Node8</title>
<path fill="none" stroke="midnightblue" d="M38.17,-57.41C46.21,-53.17 55.83,-48.09 64.71,-43.4"/>
<polygon fill="midnightblue" stroke="midnightblue" points="66.38,-46.48 73.59,-38.72 63.11,-40.29 66.38,-46.48"/>
</g>
<!-- Node3 -->
<g id="node3" class="node">
<title>Node3</title>
<g id="a_node3"><a xlink:href="../../d0/dcb/poly__add_8c.html#a29eace09ec1373a92003075f1c2f6d9d" target="_top" xlink:title="The function will create a polynomial.">
<polygon fill="white" stroke="black" points="150,-38.5 150,-57.5 245,-57.5 245,-38.5 150,-38.5"/>
<text text-anchor="middle" x="197.5" y="-45.5" font-family="Helvetica,sans-Serif" font-size="10.00">create_polynomial</text>
</a>
</g>
</g>
<!-- Node2&#45;&gt;Node3 -->
<g id="edge2" class="edge">
<title>Node2&#45;&gt;Node3</title>
<path fill="none" stroke="midnightblue" d="M105.9,-95.37C116.49,-87.1 132.65,-75.25 148,-67 151.67,-65.02 155.6,-63.14 159.56,-61.39"/>
<polygon fill="midnightblue" stroke="midnightblue" points="160.91,-64.62 168.79,-57.53 158.22,-58.16 160.91,-64.62"/>
</g>
<!-- Node4 -->
<g id="node4" class="node">
<title>Node4</title>
<g id="a_node4"><a xlink:href="../../d0/dcb/poly__add_8c.html#ab9b9bedcb99f279d491d1b856791a36d" target="_top" xlink:title="The function will display the polynomial.">
<polygon fill="white" stroke="black" points="148,-0.5 148,-19.5 247,-19.5 247,-0.5 148,-0.5"/>
<text text-anchor="middle" x="197.5" y="-7.5" font-family="Helvetica,sans-Serif" font-size="10.00">display_polynomial</text>
</a>
</g>
</g>
<!-- Node2&#45;&gt;Node4 -->
<g id="edge3" class="edge">
<title>Node2&#45;&gt;Node4</title>
<path fill="none" stroke="midnightblue" d="M103.91,-95.27C106.65,-92.39 109.55,-89.16 112,-86 130.39,-62.35 124.9,-48.08 148,-29 150.01,-27.34 152.19,-25.81 154.47,-24.4"/>
<polygon fill="midnightblue" stroke="midnightblue" points="156.4,-27.34 163.61,-19.58 153.13,-21.15 156.4,-27.34"/>
</g>
<!-- Node5 -->
<g id="node5" class="node">
<title>Node5</title>
<g id="a_node5"><a xlink:href="../../d0/dcb/poly__add_8c.html#a5a103fff33166d6e4d975b8b63c6e895" target="_top" xlink:title="Frees memory space.">
<polygon fill="white" stroke="black" points="169.5,-114.5 169.5,-133.5 225.5,-133.5 225.5,-114.5 169.5,-114.5"/>
<text text-anchor="middle" x="197.5" y="-121.5" font-family="Helvetica,sans-Serif" font-size="10.00">free_poly</text>
</a>
</g>
</g>
<!-- Node2&#45;&gt;Node5 -->
<g id="edge4" class="edge">
<title>Node2&#45;&gt;Node5</title>
<path fill="none" stroke="midnightblue" d="M112.32,-108.4C125.36,-110.81 143.33,-114.14 159.32,-117.11"/>
<polygon fill="midnightblue" stroke="midnightblue" points="158.99,-120.61 169.46,-118.99 160.27,-113.72 158.99,-120.61"/>
</g>
<!-- Node6 -->
<g id="node6" class="node">
<title>Node6</title>
<g id="a_node6"><a xlink:href="../../d0/dcb/poly__add_8c.html#a6ff38afe4720527c9513139cbab460af" target="_top" xlink:title="The function will add 2 polynomials.">
<polygon fill="white" stroke="black" points="169.5,-76.5 169.5,-95.5 225.5,-95.5 225.5,-76.5 169.5,-76.5"/>
<text text-anchor="middle" x="197.5" y="-83.5" font-family="Helvetica,sans-Serif" font-size="10.00">poly_add</text>
</a>
</g>
</g>
<!-- Node2&#45;&gt;Node6 -->
<g id="edge5" class="edge">
<title>Node2&#45;&gt;Node6</title>
<path fill="none" stroke="midnightblue" d="M112.32,-101.6C125.36,-99.19 143.33,-95.86 159.32,-92.89"/>
<polygon fill="midnightblue" stroke="midnightblue" points="160.27,-96.28 169.46,-91.01 158.99,-89.39 160.27,-96.28"/>
</g>
<!-- Node7&#45;&gt;Node3 -->
<g id="edge7" class="edge">
<title>Node7&#45;&gt;Node3</title>
<path fill="none" stroke="midnightblue" d="M112.32,-63.6C120.19,-62.15 129.84,-60.36 139.77,-58.52"/>
<polygon fill="midnightblue" stroke="midnightblue" points="140.54,-61.93 149.73,-56.67 139.26,-55.05 140.54,-61.93"/>
</g>
<!-- Node7&#45;&gt;Node4 -->
<g id="edge8" class="edge">
<title>Node7&#45;&gt;Node4</title>
<path fill="none" stroke="midnightblue" d="M105.9,-57.37C116.49,-49.1 132.65,-37.25 148,-29 151.67,-27.02 155.6,-25.14 159.56,-23.39"/>
<polygon fill="midnightblue" stroke="midnightblue" points="160.91,-26.62 168.79,-19.53 158.22,-20.16 160.91,-26.62"/>
</g>
<!-- Node7&#45;&gt;Node5 -->
<g id="edge9" class="edge">
<title>Node7&#45;&gt;Node5</title>
<path fill="none" stroke="midnightblue" d="M105.9,-76.63C116.49,-84.9 132.65,-96.75 148,-105 151.76,-107.02 155.79,-108.95 159.85,-110.74"/>
<polygon fill="midnightblue" stroke="midnightblue" points="158.72,-114.06 169.3,-114.67 161.41,-107.6 158.72,-114.06"/>
</g>
<!-- Node7&#45;&gt;Node6 -->
<g id="edge10" class="edge">
<title>Node7&#45;&gt;Node6</title>
<path fill="none" stroke="midnightblue" d="M112.32,-70.4C125.36,-72.81 143.33,-76.14 159.32,-79.11"/>
<polygon fill="midnightblue" stroke="midnightblue" points="158.99,-82.61 169.46,-80.99 160.27,-75.72 158.99,-82.61"/>
</g>
<!-- Node8&#45;&gt;Node3 -->
<g id="edge12" class="edge">
<title>Node8&#45;&gt;Node3</title>
<path fill="none" stroke="midnightblue" d="M112.32,-32.4C120.19,-33.85 129.84,-35.64 139.77,-37.48"/>
<polygon fill="midnightblue" stroke="midnightblue" points="139.26,-40.95 149.73,-39.33 140.54,-34.07 139.26,-40.95"/>
</g>
<!-- Node8&#45;&gt;Node4 -->
<g id="edge13" class="edge">
<title>Node8&#45;&gt;Node4</title>
<path fill="none" stroke="midnightblue" d="M112.32,-25.6C119.68,-24.24 128.61,-22.58 137.87,-20.87"/>
<polygon fill="midnightblue" stroke="midnightblue" points="138.79,-24.26 147.98,-18.99 137.51,-17.37 138.79,-24.26"/>
</g>
<!-- Node8&#45;&gt;Node5 -->
<g id="edge14" class="edge">
<title>Node8&#45;&gt;Node5</title>
<path fill="none" stroke="midnightblue" d="M103.91,-38.73C106.65,-41.61 109.55,-44.84 112,-48 130.39,-71.65 124.9,-85.92 148,-105 151.59,-107.96 155.69,-110.5 159.96,-112.67"/>
<polygon fill="midnightblue" stroke="midnightblue" points="158.87,-116.01 169.43,-116.84 161.69,-109.61 158.87,-116.01"/>
</g>
<!-- Node8&#45;&gt;Node6 -->
<g id="edge15" class="edge">
<title>Node8&#45;&gt;Node6</title>
<path fill="none" stroke="midnightblue" d="M105.9,-38.63C116.49,-46.9 132.65,-58.75 148,-67 151.76,-69.02 155.79,-70.95 159.85,-72.74"/>
<polygon fill="midnightblue" stroke="midnightblue" points="158.72,-76.06 169.3,-76.67 161.41,-69.6 158.72,-76.06"/>
</g>
</g>
</svg>
