<?xml version="1.0" encoding="UTF-8" standalone="no"?>
<!DOCTYPE svg PUBLIC "-//W3C//DTD SVG 1.1//EN"
 "http://www.w3.org/Graphics/SVG/1.1/DTD/svg11.dtd">
<!-- Generated by graphviz version 8.0.2 (20230410.1723)
 -->
<!-- Title: main Pages: 1 -->
<svg width="586pt" height="196pt"
 viewBox="0.00 0.00 586.00 196.00" xmlns="http://www.w3.org/2000/svg" xmlns:xlink="http://www.w3.org/1999/xlink">
<g id="graph0" class="graph" transform="scale(1 1) rotate(0) translate(4 192)">
<title>main</title>
<!-- Node1 -->
<g id="node1" class="node">
<title>Node1</title>
<g id="a_node1"><a xlink:title="main function">
<polygon fill="#999999" stroke="#666666" points="38,-112 0,-112 0,-93 38,-93 38,-112"/>
<text text-anchor="middle" x="19" y="-100" font-family="Helvetica,sans-Serif" font-size="10.00">main</text>
</a>
</g>
</g>
<!-- Node2 -->
<g id="node2" class="node">
<title>Node2</title>
<g id="a_node2"><a xlink:href="../../d7/d50/qr__eigen__values_8c.html#a7d96c5e4ae1bd6d29791bcc23a4cb2b0" target="_top" xlink:title="create a square matrix of given size with random elements">
<polygon fill="white" stroke="#666666" points="150,-188 74,-188 74,-169 150,-169 150,-188"/>
<text text-anchor="middle" x="112" y="-176" font-family="Helvetica,sans-Serif" font-size="10.00">create_matrix</text>
</a>
</g>
</g>
<!-- Node1&#45;&gt;Node2 -->
<g id="edge1" class="edge">
<title>Node1&#45;&gt;Node2</title>
<path fill="none" stroke="#63b8ff" d="M29.06,-112.28C39.4,-123.19 57.08,-141.07 74,-154.5 77.58,-157.34 81.49,-160.16 85.4,-162.81"/>
<polygon fill="#63b8ff" stroke="#63b8ff" points="83.04,-166.1 93.32,-168.63 86.86,-160.24 83.04,-166.1"/>
</g>
<!-- Node3 -->
<g id="node3" class="node">
<title>Node3</title>
<g id="a_node3"><a xlink:href="../../d7/d50/qr__eigen__values_8c.html#a0d8ed79786d17df48396b333c09d05bb" target="_top" xlink:title="Compute eigen values using iterative shifted QR decomposition algorithm as follows:">
<polygon fill="white" stroke="#666666" points="260,-93 186,-93 186,-74 260,-74 260,-93"/>
<text text-anchor="middle" x="223" y="-81" font-family="Helvetica,sans-Serif" font-size="10.00">eigen_values</text>
</a>
</g>
</g>
<!-- Node1&#45;&gt;Node3 -->
<g id="edge2" class="edge">
<title>Node1&#45;&gt;Node3</title>
<path fill="none" stroke="#63b8ff" d="M38.08,-110.59C48.38,-114.76 61.66,-119.39 74,-121.5 107.3,-127.19 117.21,-129.62 150,-121.5 167.55,-117.15 185.55,-107.66 199.15,-99.25"/>
<polygon fill="#63b8ff" stroke="#63b8ff" points="200.71,-101.77 207.22,-93.41 196.92,-95.88 200.71,-101.77"/>
</g>
<!-- Node5 -->
<g id="node5" class="node">
<title>Node5</title>
<g id="a_node5"><a xlink:href="../../d4/d68/qr__decompose_8h.html#a90562ce8c3707401e9c5809dece68d6a" target="_top" xlink:title="function to display matrix on stdout">
<polygon fill="white" stroke="#666666" points="370,-37 302,-37 302,-18 370,-18 370,-37"/>
<text text-anchor="middle" x="336" y="-25" font-family="Helvetica,sans-Serif" font-size="10.00">print_matrix</text>
</a>
</g>
</g>
<!-- Node1&#45;&gt;Node5 -->
<g id="edge12" class="edge">
<title>Node1&#45;&gt;Node5</title>
<path fill="none" stroke="#63b8ff" d="M25.92,-92.91C34.63,-79.79 52.23,-56.7 74,-46.5 144.29,-13.57 237.01,-16.13 290.91,-21.48"/>
<polygon fill="#63b8ff" stroke="#63b8ff" points="290.48,-25.06 300.8,-22.65 291.23,-18.1 290.48,-25.06"/>
</g>
<!-- Node11 -->
<g id="node11" class="node">
<title>Node11</title>
<g id="a_node11"><a xlink:href="../../d7/d50/qr__eigen__values_8c.html#a1440a7779ac56f47a3f355ce4a8c7da0" target="_top" xlink:title="test function to compute eigen values of a 2x2 matrix">
<polygon fill="white" stroke="#666666" points="131,-112 93,-112 93,-93 131,-93 131,-112"/>
<text text-anchor="middle" x="112" y="-100" font-family="Helvetica,sans-Serif" font-size="10.00">test1</text>
</a>
</g>
</g>
<!-- Node1&#45;&gt;Node11 -->
<g id="edge13" class="edge">
<title>Node1&#45;&gt;Node11</title>
<path fill="none" stroke="#63b8ff" d="M38.42,-102.5C50.87,-102.5 67.59,-102.5 81.84,-102.5"/>
<polygon fill="#63b8ff" stroke="#63b8ff" points="81.61,-106 91.61,-102.5 81.61,-99 81.61,-106"/>
</g>
<!-- Node12 -->
<g id="node12" class="node">
<title>Node12</title>
<g id="a_node12"><a xlink:href="../../d7/d50/qr__eigen__values_8c.html#a0283886819c7c140a023582b7269e2d0" target="_top" xlink:title="test function to compute eigen values of a 2x2 matrix">
<polygon fill="white" stroke="#666666" points="131,-75 93,-75 93,-56 131,-56 131,-75"/>
<text text-anchor="middle" x="112" y="-63" font-family="Helvetica,sans-Serif" font-size="10.00">test2</text>
</a>
</g>
</g>
<!-- Node1&#45;&gt;Node12 -->
<g id="edge15" class="edge">
<title>Node1&#45;&gt;Node12</title>
<path fill="none" stroke="#63b8ff" d="M38.42,-95.01C51.12,-89.85 68.25,-82.88 82.68,-77.01"/>
<polygon fill="#63b8ff" stroke="#63b8ff" points="83.67,-79.99 91.61,-72.98 81.03,-73.5 83.67,-79.99"/>
</g>
<!-- Node4 -->
<g id="node4" class="node">
<title>Node4</title>
<g id="a_node4"><a xlink:href="../../d7/d50/qr__eigen__values_8c.html#a5835240036dc02ee9a13e65c559fb907" target="_top" xlink:title="Perform multiplication of two matrices.">
<polygon fill="white" stroke="#666666" points="363,-111 309,-111 309,-92 363,-92 363,-111"/>
<text text-anchor="middle" x="336" y="-99" font-family="Helvetica,sans-Serif" font-size="10.00">mat_mul</text>
</a>
</g>
</g>
<!-- Node3&#45;&gt;Node4 -->
<g id="edge3" class="edge">
<title>Node3&#45;&gt;Node4</title>
<path fill="none" stroke="#63b8ff" d="M260.35,-89.39C272.45,-91.36 285.93,-93.54 298.08,-95.51"/>
<polygon fill="#63b8ff" stroke="#63b8ff" points="297.35,-99.1 307.78,-97.25 298.47,-92.19 297.35,-99.1"/>
</g>
<!-- Node3&#45;&gt;Node5 -->
<g id="edge4" class="edge">
<title>Node3&#45;&gt;Node5</title>
<path fill="none" stroke="#63b8ff" d="M242.21,-73.55C256.68,-65.72 277.5,-54.64 296,-45.5 298.31,-44.36 300.71,-43.19 303.13,-42.04"/>
<polygon fill="#63b8ff" stroke="#63b8ff" points="304.47,-44.81 312.04,-37.39 301.5,-38.47 304.47,-44.81"/>
</g>
<!-- Node6 -->
<g id="node6" class="node">
<title>Node6</title>
<g id="a_node6"><a xlink:href="../../d4/d68/qr__decompose_8h.html#a45c7640d9d22c89c11beb1f567843c56" target="_top" xlink:title="Decompose matrix &#160;using Gram&#45;Schmidt process.">
<polygon fill="white" stroke="#666666" points="376,-74 296,-74 296,-55 376,-55 376,-74"/>
<text text-anchor="middle" x="336" y="-62" font-family="Helvetica,sans-Serif" font-size="10.00">qr_decompose</text>
</a>
</g>
</g>
<!-- Node3&#45;&gt;Node6 -->
<g id="edge5" class="edge">
<title>Node3&#45;&gt;Node6</title>
<path fill="none" stroke="#63b8ff" d="M260.35,-77.28C268.17,-75.94 276.58,-74.5 284.82,-73.09"/>
<polygon fill="#63b8ff" stroke="#63b8ff" points="285.24,-76.4 294.51,-71.26 284.06,-69.5 285.24,-76.4"/>
</g>
<!-- Node7 -->
<g id="node7" class="node">
<title>Node7</title>
<g id="a_node7"><a xlink:href="../../d4/d68/qr__decompose_8h.html#a3a584b79941a43d775f9d4ce446dbe05" target="_top" xlink:title="Compute dot product of two vectors of equal lengths.">
<polygon fill="white" stroke="#666666" points="578,-93 516,-93 516,-74 578,-74 578,-93"/>
<text text-anchor="middle" x="547" y="-81" font-family="Helvetica,sans-Serif" font-size="10.00">vector_dot</text>
</a>
</g>
</g>
<!-- Node6&#45;&gt;Node7 -->
<g id="edge6" class="edge">
<title>Node6&#45;&gt;Node7</title>
<path fill="none" stroke="#63b8ff" d="M357.71,-74.43C363.63,-77.32 370.09,-80.5 376,-83.5 392.13,-91.69 394.44,-98.15 412,-102.5 444.01,-110.43 481.21,-103.95 508.27,-96.48"/>
<polygon fill="#63b8ff" stroke="#63b8ff" points="508.87,-99.66 517.48,-93.49 506.9,-92.94 508.87,-99.66"/>
</g>
<!-- Node8 -->
<g id="node8" class="node">
<title>Node8</title>
<g id="a_node8"><a xlink:href="../../d4/d68/qr__decompose_8h.html#abeec1f78a7a7e7251687e75340331212" target="_top" xlink:title="Compute magnitude of vector.">
<polygon fill="white" stroke="#666666" points="480,-93 412,-93 412,-74 480,-74 480,-93"/>
<text text-anchor="middle" x="446" y="-81" font-family="Helvetica,sans-Serif" font-size="10.00">vector_mag</text>
</a>
</g>
</g>
<!-- Node6&#45;&gt;Node8 -->
<g id="edge7" class="edge">
<title>Node6&#45;&gt;Node8</title>
<path fill="none" stroke="#63b8ff" d="M376.3,-71.41C384.26,-72.81 392.68,-74.3 400.8,-75.72"/>
<polygon fill="#63b8ff" stroke="#63b8ff" points="400.15,-79.34 410.6,-77.62 401.36,-72.45 400.15,-79.34"/>
</g>
<!-- Node9 -->
<g id="node9" class="node">
<title>Node9</title>
<g id="a_node9"><a xlink:href="../../d4/d68/qr__decompose_8h.html#a2ed4977f38642dca8b10c16a823c740b" target="_top" xlink:title="Compute projection of vector &#160;on &#160;defined as.">
<polygon fill="white" stroke="#666666" points="478.5,-56 413.5,-56 413.5,-37 478.5,-37 478.5,-56"/>
<text text-anchor="middle" x="446" y="-44" font-family="Helvetica,sans-Serif" font-size="10.00">vector_proj</text>
</a>
</g>
</g>
<!-- Node6&#45;&gt;Node9 -->
<g id="edge9" class="edge">
<title>Node6&#45;&gt;Node9</title>
<path fill="none" stroke="#63b8ff" d="M376.3,-57.95C384.86,-56.52 393.96,-55.01 402.64,-53.56"/>
<polygon fill="#63b8ff" stroke="#63b8ff" points="403.05,-56.87 412.34,-51.78 401.9,-49.97 403.05,-56.87"/>
</g>
<!-- Node10 -->
<g id="node10" class="node">
<title>Node10</title>
<g id="a_node10"><a xlink:href="../../d4/d68/qr__decompose_8h.html#a5ee39e7c8fce8a604dcf7009ce101c02" target="_top" xlink:title="Compute vector subtraction.">
<polygon fill="white" stroke="#666666" points="478.5,-19 413.5,-19 413.5,0 478.5,0 478.5,-19"/>
<text text-anchor="middle" x="446" y="-7" font-family="Helvetica,sans-Serif" font-size="10.00">vector_sub</text>
</a>
</g>
</g>
<!-- Node6&#45;&gt;Node10 -->
<g id="edge11" class="edge">
<title>Node6&#45;&gt;Node10</title>
<path fill="none" stroke="#63b8ff" d="M357.7,-54.55C363.62,-51.66 370.08,-48.48 376,-45.5 389.52,-38.68 404.42,-30.94 416.91,-24.38"/>
<polygon fill="#63b8ff" stroke="#63b8ff" points="418.11,-27.18 425.33,-19.42 414.85,-20.98 418.11,-27.18"/>
</g>
<!-- Node8&#45;&gt;Node7 -->
<g id="edge8" class="edge">
<title>Node8&#45;&gt;Node7</title>
<path fill="none" stroke="#63b8ff" d="M480.24,-83.5C488.12,-83.5 496.62,-83.5 504.8,-83.5"/>
<polygon fill="#63b8ff" stroke="#63b8ff" points="504.68,-87 514.68,-83.5 504.68,-80 504.68,-87"/>
</g>
<!-- Node9&#45;&gt;Node7 -->
<g id="edge10" class="edge">
<title>Node9&#45;&gt;Node7</title>
<path fill="none" stroke="#63b8ff" d="M473.53,-56.42C484.52,-60.52 497.44,-65.35 509.31,-69.79"/>
<polygon fill="#63b8ff" stroke="#63b8ff" points="507.8,-73.33 518.4,-73.56 510.25,-66.78 507.8,-73.33"/>
</g>
<!-- Node11&#45;&gt;Node3 -->
<g id="edge14" class="edge">
<title>Node11&#45;&gt;Node3</title>
<path fill="none" stroke="#63b8ff" d="M131.49,-99.28C143.53,-97.18 159.82,-94.34 175.26,-91.65"/>
<polygon fill="#63b8ff" stroke="#63b8ff" points="175.5,-94.98 184.75,-89.82 174.29,-88.09 175.5,-94.98"/>
</g>
<!-- Node12&#45;&gt;Node3 -->
<g id="edge16" class="edge">
<title>Node12&#45;&gt;Node3</title>
<path fill="none" stroke="#63b8ff" d="M131.49,-68.55C143.53,-70.54 159.82,-73.23 175.26,-75.78"/>
<polygon fill="#63b8ff" stroke="#63b8ff" points="174.31,-79.34 184.75,-77.51 175.45,-72.43 174.31,-79.34"/>
</g>
</g>
</svg>
