<?xml version="1.0" encoding="UTF-8" standalone="no"?>
<!DOCTYPE svg PUBLIC "-//W3C//DTD SVG 1.1//EN"
 "http://www.w3.org/Graphics/SVG/1.1/DTD/svg11.dtd">
<!-- Generated by graphviz version 3.0.0 (20220226.1711)
 -->
<!-- Title: main Pages: 1 -->
<svg width="586pt" height="171pt"
 viewBox="0.00 0.00 586.00 171.39" xmlns="http://www.w3.org/2000/svg" xmlns:xlink="http://www.w3.org/1999/xlink">
<g id="graph0" class="graph" transform="scale(1 1) rotate(0) translate(4 167.39)">
<title>main</title>
<polygon fill="white" stroke="transparent" points="-4,4 -4,-167.39 582,-167.39 582,4 -4,4"/>
<!-- Node1 -->
<g id="node1" class="node">
<title>Node1</title>
<g id="a_node1"><a xlink:title="main function">
<polygon fill="#bfbfbf" stroke="black" points="0,-67.89 0,-86.89 38,-86.89 38,-67.89 0,-67.89"/>
<text text-anchor="middle" x="19" y="-74.89" font-family="Helvetica,sans-Serif" font-size="10.00">main</text>
</a>
</g>
</g>
<!-- Node2 -->
<g id="node2" class="node">
<title>Node2</title>
<g id="a_node2"><a xlink:href="../../d7/d50/qr__eigen__values_8c.html#a7d96c5e4ae1bd6d29791bcc23a4cb2b0" target="_top" xlink:title="create a square matrix of given size with random elements">
<polygon fill="white" stroke="black" points="74,-143.89 74,-162.89 150,-162.89 150,-143.89 74,-143.89"/>
<text text-anchor="middle" x="112" y="-150.89" font-family="Helvetica,sans-Serif" font-size="10.00">create_matrix</text>
</a>
</g>
</g>
<!-- Node1&#45;&gt;Node2 -->
<g id="edge1" class="edge">
<title>Node1&#45;&gt;Node2</title>
<path fill="none" stroke="midnightblue" d="M29.06,-87.18C39.4,-98.08 57.08,-115.96 74,-129.39 77.85,-132.45 82.09,-135.48 86.28,-138.3"/>
<polygon fill="midnightblue" stroke="midnightblue" points="84.4,-141.25 94.69,-143.76 88.21,-135.38 84.4,-141.25"/>
</g>
<!-- Node3 -->
<g id="node3" class="node">
<title>Node3</title>
<g id="a_node3"><a xlink:href="../../d7/d50/qr__eigen__values_8c.html#a0d8ed79786d17df48396b333c09d05bb" target="_top" xlink:title="Compute eigen values using iterative shifted QR decomposition algorithm as follows:">
<polygon fill="white" stroke="black" points="186,-62.89 186,-81.89 260,-81.89 260,-62.89 186,-62.89"/>
<text text-anchor="middle" x="223" y="-69.89" font-family="Helvetica,sans-Serif" font-size="10.00">eigen_values</text>
</a>
</g>
</g>
<!-- Node1&#45;&gt;Node3 -->
<g id="edge2" class="edge">
<title>Node1&#45;&gt;Node3</title>
<path fill="none" stroke="midnightblue" d="M38.08,-85.49C48.38,-89.65 61.66,-94.29 74,-96.39 107.3,-102.08 116.66,-101.8 150,-96.39 163.44,-94.21 177.77,-89.88 190.07,-85.49"/>
<polygon fill="midnightblue" stroke="midnightblue" points="191.3,-88.77 199.45,-81.99 188.86,-82.21 191.3,-88.77"/>
</g>
<!-- Node5 -->
<g id="node5" class="node">
<title>Node5</title>
<g id="a_node5"><a xlink:href="../../d4/d68/qr__decompose_8h.html#a90562ce8c3707401e9c5809dece68d6a" target="_top" xlink:title="function to display matrix on stdout">
<polygon fill="white" stroke="black" points="302,-10.89 302,-29.89 370,-29.89 370,-10.89 302,-10.89"/>
<text text-anchor="middle" x="336" y="-17.89" font-family="Helvetica,sans-Serif" font-size="10.00">print_matrix</text>
</a>
</g>
</g>
<!-- Node1&#45;&gt;Node5 -->
<g id="edge12" class="edge">
<title>Node1&#45;&gt;Node5</title>
<path fill="none" stroke="midnightblue" d="M25.49,-67.87C33.92,-54.33 51.46,-30.09 74,-20.39 145.37,10.3 238.21,-0.12 291.75,-10.35"/>
<polygon fill="midnightblue" stroke="midnightblue" points="291.1,-13.79 301.6,-12.31 292.47,-6.92 291.1,-13.79"/>
</g>
<!-- Node11 -->
<g id="node11" class="node">
<title>Node11</title>
<g id="a_node11"><a xlink:href="../../d7/d50/qr__eigen__values_8c.html#a1440a7779ac56f47a3f355ce4a8c7da0" target="_top" xlink:title="test function to compute eigen values of a 2x2 matrix">
<polygon fill="white" stroke="black" points="93,-67.89 93,-86.89 131,-86.89 131,-67.89 93,-67.89"/>
<text text-anchor="middle" x="112" y="-74.89" font-family="Helvetica,sans-Serif" font-size="10.00">test1</text>
</a>
</g>
</g>
<!-- Node1&#45;&gt;Node11 -->
<g id="edge13" class="edge">
<title>Node1&#45;&gt;Node11</title>
<path fill="none" stroke="midnightblue" d="M38.42,-77.39C51.08,-77.39 68.14,-77.39 82.55,-77.39"/>
<polygon fill="midnightblue" stroke="midnightblue" points="82.92,-80.89 92.92,-77.39 82.92,-73.89 82.92,-80.89"/>
</g>
<!-- Node12 -->
<g id="node12" class="node">
<title>Node12</title>
<g id="a_node12"><a xlink:href="../../d7/d50/qr__eigen__values_8c.html#a0283886819c7c140a023582b7269e2d0" target="_top" xlink:title="test function to compute eigen values of a 2x2 matrix">
<polygon fill="white" stroke="black" points="93,-29.89 93,-48.89 131,-48.89 131,-29.89 93,-29.89"/>
<text text-anchor="middle" x="112" y="-36.89" font-family="Helvetica,sans-Serif" font-size="10.00">test2</text>
</a>
</g>
</g>
<!-- Node1&#45;&gt;Node12 -->
<g id="edge15" class="edge">
<title>Node1&#45;&gt;Node12</title>
<path fill="none" stroke="midnightblue" d="M38.42,-69.7C51.33,-64.31 68.82,-57.01 83.39,-50.92"/>
<polygon fill="midnightblue" stroke="midnightblue" points="85.04,-54.03 92.92,-46.94 82.35,-47.57 85.04,-54.03"/>
</g>
<!-- Node4 -->
<g id="node4" class="node">
<title>Node4</title>
<g id="a_node4"><a xlink:href="../../d7/d50/qr__eigen__values_8c.html#a5835240036dc02ee9a13e65c559fb907" target="_top" xlink:title="Perform multiplication of two matrices.">
<polygon fill="white" stroke="black" points="309,-95.89 309,-114.89 363,-114.89 363,-95.89 309,-95.89"/>
<text text-anchor="middle" x="336" y="-102.89" font-family="Helvetica,sans-Serif" font-size="10.00">mat_mul</text>
</a>
</g>
</g>
<!-- Node3&#45;&gt;Node4 -->
<g id="edge3" class="edge">
<title>Node3&#45;&gt;Node4</title>
<path fill="none" stroke="midnightblue" d="M256.11,-81.94C269.6,-85.95 285.36,-90.64 299.23,-94.76"/>
<polygon fill="midnightblue" stroke="midnightblue" points="298.36,-98.15 308.94,-97.65 300.35,-91.44 298.36,-98.15"/>
</g>
<!-- Node3&#45;&gt;Node5 -->
<g id="edge4" class="edge">
<title>Node3&#45;&gt;Node5</title>
<path fill="none" stroke="midnightblue" d="M244.36,-62.86C261.39,-54.88 285.91,-43.39 305.15,-34.38"/>
<polygon fill="midnightblue" stroke="midnightblue" points="306.82,-37.46 314.39,-30.05 303.85,-31.12 306.82,-37.46"/>
</g>
<!-- Node6 -->
<g id="node6" class="node">
<title>Node6</title>
<g id="a_node6"><a xlink:href="../../d4/d68/qr__decompose_8h.html#a45c7640d9d22c89c11beb1f567843c56" target="_top" xlink:title="Decompose matrix &#160;using Gram&#45;Schmidt process.">
<polygon fill="white" stroke="black" points="296,-57.89 296,-76.89 376,-76.89 376,-57.89 296,-57.89"/>
<text text-anchor="middle" x="336" y="-64.89" font-family="Helvetica,sans-Serif" font-size="10.00">qr_decompose</text>
</a>
</g>
</g>
<!-- Node3&#45;&gt;Node6 -->
<g id="edge5" class="edge">
<title>Node3&#45;&gt;Node6</title>
<path fill="none" stroke="midnightblue" d="M260.04,-70.77C268.23,-70.4 277.07,-70 285.7,-69.61"/>
<polygon fill="midnightblue" stroke="midnightblue" points="285.86,-73.11 295.69,-69.16 285.54,-66.12 285.86,-73.11"/>
</g>
<!-- Node7 -->
<g id="node7" class="node">
<title>Node7</title>
<g id="a_node7"><a xlink:href="../../d4/d68/qr__decompose_8h.html#a3a584b79941a43d775f9d4ce446dbe05" target="_top" xlink:title="Compute dot product of two vectors of equal lengths.">
<polygon fill="white" stroke="black" points="516,-76.89 516,-95.89 578,-95.89 578,-76.89 516,-76.89"/>
<text text-anchor="middle" x="547" y="-83.89" font-family="Helvetica,sans-Serif" font-size="10.00">vector_dot</text>
</a>
</g>
</g>
<!-- Node6&#45;&gt;Node7 -->
<g id="edge6" class="edge">
<title>Node6&#45;&gt;Node7</title>
<path fill="none" stroke="midnightblue" d="M356.9,-76.94C363.05,-79.92 369.82,-83.26 376,-86.39 392.13,-94.58 394.44,-101.04 412,-105.39 444.76,-113.51 482.95,-106.53 510.16,-98.85"/>
<polygon fill="midnightblue" stroke="midnightblue" points="511.44,-102.12 520.01,-95.9 509.43,-95.41 511.44,-102.12"/>
</g>
<!-- Node8 -->
<g id="node8" class="node">
<title>Node8</title>
<g id="a_node8"><a xlink:href="../../d4/d68/qr__decompose_8h.html#abeec1f78a7a7e7251687e75340331212" target="_top" xlink:title="Compute magnitude of vector.">
<polygon fill="white" stroke="black" points="412,-76.89 412,-95.89 480,-95.89 480,-76.89 412,-76.89"/>
<text text-anchor="middle" x="446" y="-83.89" font-family="Helvetica,sans-Serif" font-size="10.00">vector_mag</text>
</a>
</g>
</g>
<!-- Node6&#45;&gt;Node8 -->
<g id="edge7" class="edge">
<title>Node6&#45;&gt;Node8</title>
<path fill="none" stroke="midnightblue" d="M376.3,-74.31C384.61,-75.77 393.44,-77.32 401.89,-78.81"/>
<polygon fill="midnightblue" stroke="midnightblue" points="401.5,-82.29 411.95,-80.58 402.71,-75.4 401.5,-82.29"/>
</g>
<!-- Node9 -->
<g id="node9" class="node">
<title>Node9</title>
<g id="a_node9"><a xlink:href="../../d4/d68/qr__decompose_8h.html#a2ed4977f38642dca8b10c16a823c740b" target="_top" xlink:title="Compute projection of vector &#160;on &#160;defined as.">
<polygon fill="white" stroke="black" points="413.5,-38.89 413.5,-57.89 478.5,-57.89 478.5,-38.89 413.5,-38.89"/>
<text text-anchor="middle" x="446" y="-45.89" font-family="Helvetica,sans-Serif" font-size="10.00">vector_proj</text>
</a>
</g>
</g>
<!-- Node6&#45;&gt;Node9 -->
<g id="edge9" class="edge">
<title>Node6&#45;&gt;Node9</title>
<path fill="none" stroke="midnightblue" d="M376.3,-60.48C385.05,-58.94 394.37,-57.3 403.22,-55.74"/>
<polygon fill="midnightblue" stroke="midnightblue" points="404.1,-59.14 413.34,-53.96 402.88,-52.25 404.1,-59.14"/>
</g>
<!-- Node10 -->
<g id="node10" class="node">
<title>Node10</title>
<g id="a_node10"><a xlink:href="../../d4/d68/qr__decompose_8h.html#a5ee39e7c8fce8a604dcf7009ce101c02" target="_top" xlink:title="Compute vector subtraction.">
<polygon fill="white" stroke="black" points="413.5,-0.89 413.5,-19.89 478.5,-19.89 478.5,-0.89 413.5,-0.89"/>
<text text-anchor="middle" x="446" y="-7.89" font-family="Helvetica,sans-Serif" font-size="10.00">vector_sub</text>
</a>
</g>
</g>
<!-- Node6&#45;&gt;Node10 -->
<g id="edge11" class="edge">
<title>Node6&#45;&gt;Node10</title>
<path fill="none" stroke="midnightblue" d="M355.32,-57.72C372.49,-48.66 398.37,-35 417.93,-24.68"/>
<polygon fill="midnightblue" stroke="midnightblue" points="419.74,-27.68 426.95,-19.92 416.47,-21.49 419.74,-27.68"/>
</g>
<!-- Node8&#45;&gt;Node7 -->
<g id="edge8" class="edge">
<title>Node8&#45;&gt;Node7</title>
<path fill="none" stroke="midnightblue" d="M480.24,-86.39C488.39,-86.39 497.2,-86.39 505.64,-86.39"/>
<polygon fill="midnightblue" stroke="midnightblue" points="505.68,-89.89 515.68,-86.39 505.68,-82.89 505.68,-89.89"/>
</g>
<!-- Node9&#45;&gt;Node7 -->
<g id="edge10" class="edge">
<title>Node9&#45;&gt;Node7</title>
<path fill="none" stroke="midnightblue" d="M471.98,-57.98C483.94,-62.57 498.45,-68.14 511.45,-73.13"/>
<polygon fill="midnightblue" stroke="midnightblue" points="510.44,-76.49 521.03,-76.81 512.94,-69.96 510.44,-76.49"/>
</g>
<!-- Node11&#45;&gt;Node3 -->
<g id="edge14" class="edge">
<title>Node11&#45;&gt;Node3</title>
<path fill="none" stroke="midnightblue" d="M131.49,-76.55C143.65,-75.99 160.13,-75.23 175.7,-74.52"/>
<polygon fill="midnightblue" stroke="midnightblue" points="175.92,-78.01 185.75,-74.06 175.6,-71.02 175.92,-78.01"/>
</g>
<!-- Node12&#45;&gt;Node3 -->
<g id="edge16" class="edge">
<title>Node12&#45;&gt;Node3</title>
<path fill="none" stroke="midnightblue" d="M131.49,-44.99C145,-49.08 163.84,-54.79 180.84,-59.93"/>
<polygon fill="midnightblue" stroke="midnightblue" points="180,-63.34 190.58,-62.88 182.03,-56.64 180,-63.34"/>
</g>
</g>
</svg>
