<?xml version="1.0" encoding="UTF-8" standalone="no"?>
<!DOCTYPE svg PUBLIC "-//W3C//DTD SVG 1.1//EN"
 "http://www.w3.org/Graphics/SVG/1.1/DTD/svg11.dtd">
<!-- Generated by graphviz version 5.0.1 (20220820.1526)
 -->
<!-- Title: eigen_values Pages: 1 -->
<svg width="400pt" height="156pt"
 viewBox="0.00 0.00 400.00 156.00" xmlns="http://www.w3.org/2000/svg" xmlns:xlink="http://www.w3.org/1999/xlink">
<g id="graph0" class="graph" transform="scale(1 1) rotate(0) translate(4 152)">
<title>eigen_values</title>
<!-- Node1 -->
<g id="node1" class="node">
<title>Node1</title>
<g id="a_node1"><a xlink:title="Compute eigen values using iterative shifted QR decomposition algorithm as follows:">
<polygon fill="#999999" stroke="#666666" points="74,-111 0,-111 0,-92 74,-92 74,-111"/>
<text text-anchor="middle" x="37" y="-99" font-family="Helvetica,sans-Serif" font-size="10.00">eigen_values</text>
</a>
</g>
</g>
<!-- Node2 -->
<g id="node2" class="node">
<title>Node2</title>
<g id="a_node2"><a xlink:href="../../d7/d50/qr__eigen__values_8c.html#a5835240036dc02ee9a13e65c559fb907" target="_top" xlink:title="Perform multiplication of two matrices.">
<polygon fill="white" stroke="#666666" points="177,-148 123,-148 123,-129 177,-129 177,-148"/>
<text text-anchor="middle" x="150" y="-136" font-family="Helvetica,sans-Serif" font-size="10.00">mat_mul</text>
</a>
</g>
</g>
<!-- Node1&#45;&gt;Node2 -->
<g id="edge1" class="edge">
<title>Node1&#45;&gt;Node2</title>
<path fill="none" stroke="#63b8ff" d="M66.59,-111.03C80.81,-115.77 98.15,-121.55 113.25,-126.58"/>
<polygon fill="#63b8ff" stroke="#63b8ff" points="112.2,-129.92 122.79,-129.76 114.41,-123.28 112.2,-129.92"/>
</g>
<!-- Node3 -->
<g id="node3" class="node">
<title>Node3</title>
<g id="a_node3"><a xlink:href="../../d4/d68/qr__decompose_8h.html#a90562ce8c3707401e9c5809dece68d6a" target="_top" xlink:title="function to display matrix on stdout">
<polygon fill="white" stroke="#666666" points="184,-111 116,-111 116,-92 184,-92 184,-111"/>
<text text-anchor="middle" x="150" y="-99" font-family="Helvetica,sans-Serif" font-size="10.00">print_matrix</text>
</a>
</g>
</g>
<!-- Node1&#45;&gt;Node3 -->
<g id="edge2" class="edge">
<title>Node1&#45;&gt;Node3</title>
<path fill="none" stroke="#63b8ff" d="M74.04,-101.5C84.1,-101.5 95.15,-101.5 105.59,-101.5"/>
<polygon fill="#63b8ff" stroke="#63b8ff" points="105.77,-105 115.77,-101.5 105.77,-98 105.77,-105"/>
</g>
<!-- Node4 -->
<g id="node4" class="node">
<title>Node4</title>
<g id="a_node4"><a xlink:href="../../d4/d68/qr__decompose_8h.html#a45c7640d9d22c89c11beb1f567843c56" target="_top" xlink:title="Decompose matrix &#160;using Gram&#45;Schmidt process.">
<polygon fill="white" stroke="#666666" points="190,-74 110,-74 110,-55 190,-55 190,-74"/>
<text text-anchor="middle" x="150" y="-62" font-family="Helvetica,sans-Serif" font-size="10.00">qr_decompose</text>
</a>
</g>
</g>
<!-- Node1&#45;&gt;Node4 -->
<g id="edge3" class="edge">
<title>Node1&#45;&gt;Node4</title>
<path fill="none" stroke="#63b8ff" d="M66.59,-91.97C79.95,-87.52 96.05,-82.15 110.47,-77.34"/>
<polygon fill="#63b8ff" stroke="#63b8ff" points="111.75,-80.61 120.13,-74.12 109.53,-73.97 111.75,-80.61"/>
</g>
<!-- Node5 -->
<g id="node5" class="node">
<title>Node5</title>
<g id="a_node5"><a xlink:href="../../d4/d68/qr__decompose_8h.html#a3a584b79941a43d775f9d4ce446dbe05" target="_top" xlink:title="Compute dot product of two vectors of equal lengths.">
<polygon fill="white" stroke="#666666" points="392,-93 330,-93 330,-74 392,-74 392,-93"/>
<text text-anchor="middle" x="361" y="-81" font-family="Helvetica,sans-Serif" font-size="10.00">vector_dot</text>
</a>
</g>
</g>
<!-- Node4&#45;&gt;Node5 -->
<g id="edge4" class="edge">
<title>Node4&#45;&gt;Node5</title>
<path fill="none" stroke="#63b8ff" d="M170.9,-74.04C177.05,-77.03 183.82,-80.37 190,-83.5 206.13,-91.69 208.44,-98.15 226,-102.5 258.76,-110.62 296.95,-103.64 324.16,-95.96"/>
<polygon fill="#63b8ff" stroke="#63b8ff" points="325.44,-99.23 334.01,-93.01 323.43,-92.52 325.44,-99.23"/>
</g>
<!-- Node6 -->
<g id="node6" class="node">
<title>Node6</title>
<g id="a_node6"><a xlink:href="../../d4/d68/qr__decompose_8h.html#abeec1f78a7a7e7251687e75340331212" target="_top" xlink:title="Compute magnitude of vector.">
<polygon fill="white" stroke="#666666" points="294,-93 226,-93 226,-74 294,-74 294,-93"/>
<text text-anchor="middle" x="260" y="-81" font-family="Helvetica,sans-Serif" font-size="10.00">vector_mag</text>
</a>
</g>
</g>
<!-- Node4&#45;&gt;Node6 -->
<g id="edge5" class="edge">
<title>Node4&#45;&gt;Node6</title>
<path fill="none" stroke="#63b8ff" d="M190.3,-71.41C198.61,-72.88 207.44,-74.43 215.89,-75.92"/>
<polygon fill="#63b8ff" stroke="#63b8ff" points="215.5,-79.4 225.95,-77.69 216.71,-72.51 215.5,-79.4"/>
</g>
<!-- Node7 -->
<g id="node7" class="node">
<title>Node7</title>
<g id="a_node7"><a xlink:href="../../d4/d68/qr__decompose_8h.html#a2ed4977f38642dca8b10c16a823c740b" target="_top" xlink:title="Compute projection of vector &#160;on &#160;defined as.">
<polygon fill="white" stroke="#666666" points="292.5,-56 227.5,-56 227.5,-37 292.5,-37 292.5,-56"/>
<text text-anchor="middle" x="260" y="-44" font-family="Helvetica,sans-Serif" font-size="10.00">vector_proj</text>
</a>
</g>
</g>
<!-- Node4&#45;&gt;Node7 -->
<g id="edge7" class="edge">
<title>Node4&#45;&gt;Node7</title>
<path fill="none" stroke="#63b8ff" d="M190.3,-57.95C199.05,-56.49 208.37,-54.94 217.22,-53.46"/>
<polygon fill="#63b8ff" stroke="#63b8ff" points="218.05,-56.87 227.34,-51.78 216.9,-49.97 218.05,-56.87"/>
</g>
<!-- Node8 -->
<g id="node8" class="node">
<title>Node8</title>
<g id="a_node8"><a xlink:href="../../d4/d68/qr__decompose_8h.html#a5ee39e7c8fce8a604dcf7009ce101c02" target="_top" xlink:title="Compute vector subtraction.">
<polygon fill="white" stroke="#666666" points="292.5,-19 227.5,-19 227.5,0 292.5,0 292.5,-19"/>
<text text-anchor="middle" x="260" y="-7" font-family="Helvetica,sans-Serif" font-size="10.00">vector_sub</text>
</a>
</g>
</g>
<!-- Node4&#45;&gt;Node8 -->
<g id="edge9" class="edge">
<title>Node4&#45;&gt;Node8</title>
<path fill="none" stroke="#63b8ff" d="M169.81,-54.92C186.74,-46.3 211.85,-33.51 231.11,-23.7"/>
<polygon fill="#63b8ff" stroke="#63b8ff" points="232.72,-26.81 240.04,-19.16 229.54,-20.57 232.72,-26.81"/>
</g>
<!-- Node6&#45;&gt;Node5 -->
<g id="edge6" class="edge">
<title>Node6&#45;&gt;Node5</title>
<path fill="none" stroke="#63b8ff" d="M294.24,-83.5C302.39,-83.5 311.2,-83.5 319.64,-83.5"/>
<polygon fill="#63b8ff" stroke="#63b8ff" points="319.68,-87 329.68,-83.5 319.68,-80 319.68,-87"/>
</g>
<!-- Node7&#45;&gt;Node5 -->
<g id="edge8" class="edge">
<title>Node7&#45;&gt;Node5</title>
<path fill="none" stroke="#63b8ff" d="M286.49,-56.03C298.07,-60.35 311.95,-65.54 324.52,-70.24"/>
<polygon fill="#63b8ff" stroke="#63b8ff" points="323.65,-73.65 334.25,-73.88 326.11,-67.1 323.65,-73.65"/>
</g>
</g>
</svg>
