<?xml version="1.0" encoding="UTF-8" standalone="no"?>
<!DOCTYPE svg PUBLIC "-//W3C//DTD SVG 1.1//EN"
 "http://www.w3.org/Graphics/SVG/1.1/DTD/svg11.dtd">
<!-- Generated by graphviz version 2.49.3 (20211023.0002)
 -->
<!-- Title: eigen_values Pages: 1 -->
<svg width="406pt" height="161pt"
 viewBox="0.00 0.00 406.00 161.00" xmlns="http://www.w3.org/2000/svg" xmlns:xlink="http://www.w3.org/1999/xlink">
<g id="graph0" class="graph" transform="scale(1 1) rotate(0) translate(4 157)">
<title>eigen_values</title>
<polygon fill="white" stroke="transparent" points="-4,4 -4,-157 402,-157 402,4 -4,4"/>
<!-- Node1 -->
<g id="node1" class="node">
<title>Node1</title>
<g id="a_node1"><a xlink:title="Compute eigen values using iterative shifted QR decomposition algorithm as follows:">
<polygon fill="#bfbfbf" stroke="black" points="0,-95.5 0,-114.5 75,-114.5 75,-95.5 0,-95.5"/>
<text text-anchor="middle" x="37.5" y="-102.5" font-family="Helvetica,sans-Serif" font-size="10.00">eigen_values</text>
</a>
</g>
</g>
<!-- Node2 -->
<g id="node2" class="node">
<title>Node2</title>
<g id="a_node2"><a xlink:href="../../d7/d50/qr__eigen__values_8c.html#a5835240036dc02ee9a13e65c559fb907" target="_top" xlink:title="Perform multiplication of two matrices.">
<polygon fill="white" stroke="black" points="125,-133.5 125,-152.5 180,-152.5 180,-133.5 125,-133.5"/>
<text text-anchor="middle" x="152.5" y="-140.5" font-family="Helvetica,sans-Serif" font-size="10.00">mat_mul</text>
</a>
</g>
</g>
<!-- Node1&#45;&gt;Node2 -->
<g id="edge1" class="edge">
<title>Node1&#45;&gt;Node2</title>
<path fill="none" stroke="midnightblue" d="M67.01,-114.59C81.6,-119.49 99.52,-125.52 115.1,-130.76"/>
<polygon fill="midnightblue" stroke="midnightblue" points="114.34,-134.2 124.94,-134.07 116.57,-127.56 114.34,-134.2"/>
</g>
<!-- Node3 -->
<g id="node3" class="node">
<title>Node3</title>
<g id="a_node3"><a xlink:href="../../d4/d68/qr__decompose_8h.html#a90562ce8c3707401e9c5809dece68d6a" target="_top" xlink:title="function to display matrix on stdout">
<polygon fill="white" stroke="black" points="118,-95.5 118,-114.5 187,-114.5 187,-95.5 118,-95.5"/>
<text text-anchor="middle" x="152.5" y="-102.5" font-family="Helvetica,sans-Serif" font-size="10.00">print_matrix</text>
</a>
</g>
</g>
<!-- Node1&#45;&gt;Node3 -->
<g id="edge2" class="edge">
<title>Node1&#45;&gt;Node3</title>
<path fill="none" stroke="midnightblue" d="M75.19,-105C85.54,-105 96.91,-105 107.64,-105"/>
<polygon fill="midnightblue" stroke="midnightblue" points="107.68,-108.5 117.68,-105 107.68,-101.5 107.68,-108.5"/>
</g>
<!-- Node4 -->
<g id="node4" class="node">
<title>Node4</title>
<g id="a_node4"><a xlink:href="../../d4/d68/qr__decompose_8h.html#a45c7640d9d22c89c11beb1f567843c56" target="_top" xlink:title="Decompose matrix &#160;using Gram&#45;Schmidt process.">
<polygon fill="white" stroke="black" points="111,-57.5 111,-76.5 194,-76.5 194,-57.5 111,-57.5"/>
<text text-anchor="middle" x="152.5" y="-64.5" font-family="Helvetica,sans-Serif" font-size="10.00">qr_decompose</text>
</a>
</g>
</g>
<!-- Node1&#45;&gt;Node4 -->
<g id="edge3" class="edge">
<title>Node1&#45;&gt;Node4</title>
<path fill="none" stroke="midnightblue" d="M67.01,-95.41C81.07,-90.69 98.21,-84.92 113.37,-79.82"/>
<polygon fill="midnightblue" stroke="midnightblue" points="114.63,-83.09 122.99,-76.59 112.4,-76.46 114.63,-83.09"/>
</g>
<!-- Node5 -->
<g id="node5" class="node">
<title>Node5</title>
<g id="a_node5"><a xlink:href="../../d4/d68/qr__decompose_8h.html#a3a584b79941a43d775f9d4ce446dbe05" target="_top" xlink:title="Compute dot product of two vectors of equal lengths.">
<polygon fill="white" stroke="black" points="335,-76.5 335,-95.5 398,-95.5 398,-76.5 335,-76.5"/>
<text text-anchor="middle" x="366.5" y="-83.5" font-family="Helvetica,sans-Serif" font-size="10.00">vector_dot</text>
</a>
</g>
</g>
<!-- Node4&#45;&gt;Node5 -->
<g id="edge4" class="edge">
<title>Node4&#45;&gt;Node5</title>
<path fill="none" stroke="midnightblue" d="M174.61,-76.67C180.88,-79.61 187.74,-82.88 194,-86 210.19,-94.07 212.44,-100.65 230,-105 263.27,-113.24 302.08,-106.16 329.61,-98.41"/>
<polygon fill="midnightblue" stroke="midnightblue" points="330.63,-101.75 339.22,-95.55 328.63,-95.04 330.63,-101.75"/>
</g>
<!-- Node6 -->
<g id="node6" class="node">
<title>Node6</title>
<g id="a_node6"><a xlink:href="../../d4/d68/qr__decompose_8h.html#abeec1f78a7a7e7251687e75340331212" target="_top" xlink:title="Compute magnitude of vector.">
<polygon fill="white" stroke="black" points="230,-76.5 230,-95.5 299,-95.5 299,-76.5 230,-76.5"/>
<text text-anchor="middle" x="264.5" y="-83.5" font-family="Helvetica,sans-Serif" font-size="10.00">vector_mag</text>
</a>
</g>
</g>
<!-- Node4&#45;&gt;Node6 -->
<g id="edge5" class="edge">
<title>Node4&#45;&gt;Node6</title>
<path fill="none" stroke="midnightblue" d="M194.15,-74.02C202.5,-75.46 211.33,-76.99 219.79,-78.45"/>
<polygon fill="midnightblue" stroke="midnightblue" points="219.41,-81.94 229.86,-80.19 220.6,-75.04 219.41,-81.94"/>
</g>
<!-- Node7 -->
<g id="node7" class="node">
<title>Node7</title>
<g id="a_node7"><a xlink:href="../../d4/d68/qr__decompose_8h.html#a2ed4977f38642dca8b10c16a823c740b" target="_top" xlink:title="Compute projection of vector &#160;on &#160;defined as.">
<polygon fill="white" stroke="black" points="231.5,-38.5 231.5,-57.5 297.5,-57.5 297.5,-38.5 231.5,-38.5"/>
<text text-anchor="middle" x="264.5" y="-45.5" font-family="Helvetica,sans-Serif" font-size="10.00">vector_proj</text>
</a>
</g>
</g>
<!-- Node4&#45;&gt;Node7 -->
<g id="edge7" class="edge">
<title>Node4&#45;&gt;Node7</title>
<path fill="none" stroke="midnightblue" d="M194.15,-59.98C202.95,-58.46 212.27,-56.85 221.13,-55.32"/>
<polygon fill="midnightblue" stroke="midnightblue" points="222,-58.72 231.26,-53.57 220.81,-51.82 222,-58.72"/>
</g>
<!-- Node8 -->
<g id="node8" class="node">
<title>Node8</title>
<g id="a_node8"><a xlink:href="../../d4/d68/qr__decompose_8h.html#a5ee39e7c8fce8a604dcf7009ce101c02" target="_top" xlink:title="Compute vector subtraction.">
<polygon fill="white" stroke="black" points="232,-0.5 232,-19.5 297,-19.5 297,-0.5 232,-0.5"/>
<text text-anchor="middle" x="264.5" y="-7.5" font-family="Helvetica,sans-Serif" font-size="10.00">vector_sub</text>
</a>
</g>
</g>
<!-- Node4&#45;&gt;Node8 -->
<g id="edge9" class="edge">
<title>Node4&#45;&gt;Node8</title>
<path fill="none" stroke="midnightblue" d="M172.16,-57.33C189.73,-48.23 216.25,-34.48 236.2,-24.15"/>
<polygon fill="midnightblue" stroke="midnightblue" points="237.85,-27.23 245.12,-19.53 234.63,-21.02 237.85,-27.23"/>
</g>
<!-- Node6&#45;&gt;Node5 -->
<g id="edge6" class="edge">
<title>Node6&#45;&gt;Node5</title>
<path fill="none" stroke="midnightblue" d="M299.08,-86C307.31,-86 316.2,-86 324.73,-86"/>
<polygon fill="midnightblue" stroke="midnightblue" points="324.87,-89.5 334.87,-86 324.87,-82.5 324.87,-89.5"/>
</g>
<!-- Node7&#45;&gt;Node5 -->
<g id="edge8" class="edge">
<title>Node7&#45;&gt;Node5</title>
<path fill="none" stroke="midnightblue" d="M290.73,-57.59C302.81,-62.18 317.47,-67.75 330.6,-72.74"/>
<polygon fill="midnightblue" stroke="midnightblue" points="329.68,-76.13 340.27,-76.41 332.17,-69.59 329.68,-76.13"/>
</g>
</g>
</svg>
