<?xml version="1.0" encoding="UTF-8" standalone="no"?>
<!DOCTYPE svg PUBLIC "-//W3C//DTD SVG 1.1//EN"
 "http://www.w3.org/Graphics/SVG/1.1/DTD/svg11.dtd">
<!-- Generated by graphviz version 2.49.3 (20211023.0002)
 -->
<!-- Title: main Pages: 1 -->
<svg width="593pt" height="172pt"
 viewBox="0.00 0.00 593.00 171.67" xmlns="http://www.w3.org/2000/svg" xmlns:xlink="http://www.w3.org/1999/xlink">
<g id="graph0" class="graph" transform="scale(1 1) rotate(0) translate(4 167.67)">
<title>main</title>
<polygon fill="white" stroke="transparent" points="-4,4 -4,-167.67 589,-167.67 589,4 -4,4"/>
<!-- Node1 -->
<g id="node1" class="node">
<title>Node1</title>
<g id="a_node1"><a xlink:title="main function">
<polygon fill="#bfbfbf" stroke="black" points="0,-68.17 0,-87.17 38,-87.17 38,-68.17 0,-68.17"/>
<text text-anchor="middle" x="19" y="-75.17" font-family="Helvetica,sans-Serif" font-size="10.00">main</text>
</a>
</g>
</g>
<!-- Node2 -->
<g id="node2" class="node">
<title>Node2</title>
<g id="a_node2"><a xlink:href="../../d7/d50/qr__eigen__values_8c.html#a7d96c5e4ae1bd6d29791bcc23a4cb2b0" target="_top" xlink:title="create a square matrix of given size with random elements">
<polygon fill="white" stroke="black" points="74,-144.17 74,-163.17 151,-163.17 151,-144.17 74,-144.17"/>
<text text-anchor="middle" x="112.5" y="-151.17" font-family="Helvetica,sans-Serif" font-size="10.00">create_matrix</text>
</a>
</g>
</g>
<!-- Node1&#45;&gt;Node2 -->
<g id="edge1" class="edge">
<title>Node1&#45;&gt;Node2</title>
<path fill="none" stroke="midnightblue" d="M29.04,-87.47C39.37,-98.39 57.04,-116.29 74,-129.67 77.89,-132.74 82.19,-135.78 86.44,-138.6"/>
<polygon fill="midnightblue" stroke="midnightblue" points="84.65,-141.62 94.96,-144.06 88.43,-135.72 84.65,-141.62"/>
</g>
<!-- Node3 -->
<g id="node3" class="node">
<title>Node3</title>
<g id="a_node3"><a xlink:href="../../d7/d50/qr__eigen__values_8c.html#a0d8ed79786d17df48396b333c09d05bb" target="_top" xlink:title="Compute eigen values using iterative shifted QR decomposition algorithm as follows:">
<polygon fill="white" stroke="black" points="187,-63.17 187,-82.17 262,-82.17 262,-63.17 187,-63.17"/>
<text text-anchor="middle" x="224.5" y="-70.17" font-family="Helvetica,sans-Serif" font-size="10.00">eigen_values</text>
</a>
</g>
</g>
<!-- Node1&#45;&gt;Node3 -->
<g id="edge2" class="edge">
<title>Node1&#45;&gt;Node3</title>
<path fill="none" stroke="midnightblue" d="M38.08,-85.76C48.38,-89.92 61.66,-94.56 74,-96.67 107.73,-102.43 117.21,-102.11 151,-96.67 164.53,-94.49 178.95,-90.15 191.34,-85.76"/>
<polygon fill="midnightblue" stroke="midnightblue" points="192.62,-89.02 200.79,-82.27 190.2,-82.46 192.62,-89.02"/>
</g>
<!-- Node5 -->
<g id="node5" class="node">
<title>Node5</title>
<g id="a_node5"><a xlink:href="../../d4/d68/qr__decompose_8h.html#a90562ce8c3707401e9c5809dece68d6a" target="_top" xlink:title="function to display matrix on stdout">
<polygon fill="white" stroke="black" points="305,-11.17 305,-30.17 374,-30.17 374,-11.17 305,-11.17"/>
<text text-anchor="middle" x="339.5" y="-18.17" font-family="Helvetica,sans-Serif" font-size="10.00">print_matrix</text>
</a>
</g>
</g>
<!-- Node1&#45;&gt;Node5 -->
<g id="edge12" class="edge">
<title>Node1&#45;&gt;Node5</title>
<path fill="none" stroke="midnightblue" d="M25.49,-68.14C33.92,-54.6 51.46,-30.36 74,-20.67 146.32,10.44 240.41,-0.12 294.67,-10.49"/>
<polygon fill="midnightblue" stroke="midnightblue" points="294.16,-13.95 304.65,-12.48 295.53,-7.09 294.16,-13.95"/>
</g>
<!-- Node11 -->
<g id="node11" class="node">
<title>Node11</title>
<g id="a_node11"><a xlink:href="../../d7/d50/qr__eigen__values_8c.html#a1440a7779ac56f47a3f355ce4a8c7da0" target="_top" xlink:title="test function to compute eigen values of a 2x2 matrix">
<polygon fill="white" stroke="black" points="93.5,-68.17 93.5,-87.17 131.5,-87.17 131.5,-68.17 93.5,-68.17"/>
<text text-anchor="middle" x="112.5" y="-75.17" font-family="Helvetica,sans-Serif" font-size="10.00">test1</text>
</a>
</g>
</g>
<!-- Node1&#45;&gt;Node11 -->
<g id="edge13" class="edge">
<title>Node1&#45;&gt;Node11</title>
<path fill="none" stroke="midnightblue" d="M38.08,-77.67C50.99,-77.67 68.6,-77.67 83.34,-77.67"/>
<polygon fill="midnightblue" stroke="midnightblue" points="83.46,-81.17 93.46,-77.67 83.46,-74.17 83.46,-81.17"/>
</g>
<!-- Node12 -->
<g id="node12" class="node">
<title>Node12</title>
<g id="a_node12"><a xlink:href="../../d7/d50/qr__eigen__values_8c.html#a0283886819c7c140a023582b7269e2d0" target="_top" xlink:title="test function to compute eigen values of a 2x2 matrix">
<polygon fill="white" stroke="black" points="93.5,-30.17 93.5,-49.17 131.5,-49.17 131.5,-30.17 93.5,-30.17"/>
<text text-anchor="middle" x="112.5" y="-37.17" font-family="Helvetica,sans-Serif" font-size="10.00">test2</text>
</a>
</g>
</g>
<!-- Node1&#45;&gt;Node12 -->
<g id="edge15" class="edge">
<title>Node1&#45;&gt;Node12</title>
<path fill="none" stroke="midnightblue" d="M38.08,-70.16C51.24,-64.7 69.29,-57.2 84.2,-51.01"/>
<polygon fill="midnightblue" stroke="midnightblue" points="85.57,-54.23 93.46,-47.16 82.88,-47.76 85.57,-54.23"/>
</g>
<!-- Node4 -->
<g id="node4" class="node">
<title>Node4</title>
<g id="a_node4"><a xlink:href="../../d7/d50/qr__eigen__values_8c.html#a5835240036dc02ee9a13e65c559fb907" target="_top" xlink:title="Perform multiplication of two matrices.">
<polygon fill="white" stroke="black" points="312,-96.17 312,-115.17 367,-115.17 367,-96.17 312,-96.17"/>
<text text-anchor="middle" x="339.5" y="-103.17" font-family="Helvetica,sans-Serif" font-size="10.00">mat_mul</text>
</a>
</g>
</g>
<!-- Node3&#45;&gt;Node4 -->
<g id="edge3" class="edge">
<title>Node3&#45;&gt;Node4</title>
<path fill="none" stroke="midnightblue" d="M258.18,-82.21C271.93,-86.23 287.97,-90.91 302.09,-95.03"/>
<polygon fill="midnightblue" stroke="midnightblue" points="301.39,-98.48 311.97,-97.92 303.35,-91.76 301.39,-98.48"/>
</g>
<!-- Node3&#45;&gt;Node5 -->
<g id="edge4" class="edge">
<title>Node3&#45;&gt;Node5</title>
<path fill="none" stroke="midnightblue" d="M246.23,-63.13C263.64,-55.12 288.75,-43.56 308.38,-34.53"/>
<polygon fill="midnightblue" stroke="midnightblue" points="309.9,-37.68 317.52,-30.32 306.98,-31.32 309.9,-37.68"/>
</g>
<!-- Node6 -->
<g id="node6" class="node">
<title>Node6</title>
<g id="a_node6"><a xlink:href="../../d4/d68/qr__decompose_8h.html#a45c7640d9d22c89c11beb1f567843c56" target="_top" xlink:title="Decompose matrix &#160;using Gram&#45;Schmidt process.">
<polygon fill="white" stroke="black" points="298,-58.17 298,-77.17 381,-77.17 381,-58.17 298,-58.17"/>
<text text-anchor="middle" x="339.5" y="-65.17" font-family="Helvetica,sans-Serif" font-size="10.00">qr_decompose</text>
</a>
</g>
</g>
<!-- Node3&#45;&gt;Node6 -->
<g id="edge5" class="edge">
<title>Node3&#45;&gt;Node6</title>
<path fill="none" stroke="midnightblue" d="M262.19,-71.04C270.25,-70.69 278.93,-70.3 287.44,-69.93"/>
<polygon fill="midnightblue" stroke="midnightblue" points="287.86,-73.41 297.69,-69.47 287.55,-66.42 287.86,-73.41"/>
</g>
<!-- Node7 -->
<g id="node7" class="node">
<title>Node7</title>
<g id="a_node7"><a xlink:href="../../d4/d68/qr__decompose_8h.html#a3a584b79941a43d775f9d4ce446dbe05" target="_top" xlink:title="Compute dot product of two vectors of equal lengths.">
<polygon fill="white" stroke="black" points="522,-77.17 522,-96.17 585,-96.17 585,-77.17 522,-77.17"/>
<text text-anchor="middle" x="553.5" y="-84.17" font-family="Helvetica,sans-Serif" font-size="10.00">vector_dot</text>
</a>
</g>
</g>
<!-- Node6&#45;&gt;Node7 -->
<g id="edge6" class="edge">
<title>Node6&#45;&gt;Node7</title>
<path fill="none" stroke="midnightblue" d="M361.61,-77.34C367.88,-80.28 374.74,-83.55 381,-86.67 397.19,-94.73 399.44,-101.32 417,-105.67 450.27,-113.91 489.08,-106.82 516.61,-99.07"/>
<polygon fill="midnightblue" stroke="midnightblue" points="517.63,-102.42 526.22,-96.21 515.63,-95.71 517.63,-102.42"/>
</g>
<!-- Node8 -->
<g id="node8" class="node">
<title>Node8</title>
<g id="a_node8"><a xlink:href="../../d4/d68/qr__decompose_8h.html#abeec1f78a7a7e7251687e75340331212" target="_top" xlink:title="Compute magnitude of vector.">
<polygon fill="white" stroke="black" points="417,-77.17 417,-96.17 486,-96.17 486,-77.17 417,-77.17"/>
<text text-anchor="middle" x="451.5" y="-84.17" font-family="Helvetica,sans-Serif" font-size="10.00">vector_mag</text>
</a>
</g>
</g>
<!-- Node6&#45;&gt;Node8 -->
<g id="edge7" class="edge">
<title>Node6&#45;&gt;Node8</title>
<path fill="none" stroke="midnightblue" d="M381.15,-74.69C389.5,-76.13 398.33,-77.66 406.79,-79.12"/>
<polygon fill="midnightblue" stroke="midnightblue" points="406.41,-82.6 416.86,-80.86 407.6,-75.71 406.41,-82.6"/>
</g>
<!-- Node9 -->
<g id="node9" class="node">
<title>Node9</title>
<g id="a_node9"><a xlink:href="../../d4/d68/qr__decompose_8h.html#a2ed4977f38642dca8b10c16a823c740b" target="_top" xlink:title="Compute projection of vector &#160;on &#160;defined as.">
<polygon fill="white" stroke="black" points="418.5,-39.17 418.5,-58.17 484.5,-58.17 484.5,-39.17 418.5,-39.17"/>
<text text-anchor="middle" x="451.5" y="-46.17" font-family="Helvetica,sans-Serif" font-size="10.00">vector_proj</text>
</a>
</g>
</g>
<!-- Node6&#45;&gt;Node9 -->
<g id="edge9" class="edge">
<title>Node6&#45;&gt;Node9</title>
<path fill="none" stroke="midnightblue" d="M381.15,-60.65C389.95,-59.13 399.27,-57.52 408.13,-55.99"/>
<polygon fill="midnightblue" stroke="midnightblue" points="409,-59.39 418.26,-54.24 407.81,-52.49 409,-59.39"/>
</g>
<!-- Node10 -->
<g id="node10" class="node">
<title>Node10</title>
<g id="a_node10"><a xlink:href="../../d4/d68/qr__decompose_8h.html#a5ee39e7c8fce8a604dcf7009ce101c02" target="_top" xlink:title="Compute vector subtraction.">
<polygon fill="white" stroke="black" points="419,-1.17 419,-20.17 484,-20.17 484,-1.17 419,-1.17"/>
<text text-anchor="middle" x="451.5" y="-8.17" font-family="Helvetica,sans-Serif" font-size="10.00">vector_sub</text>
</a>
</g>
</g>
<!-- Node6&#45;&gt;Node10 -->
<g id="edge11" class="edge">
<title>Node6&#45;&gt;Node10</title>
<path fill="none" stroke="midnightblue" d="M359.16,-58C376.73,-48.9 403.25,-35.15 423.2,-24.82"/>
<polygon fill="midnightblue" stroke="midnightblue" points="424.85,-27.9 432.12,-20.19 421.63,-21.69 424.85,-27.9"/>
</g>
<!-- Node8&#45;&gt;Node7 -->
<g id="edge8" class="edge">
<title>Node8&#45;&gt;Node7</title>
<path fill="none" stroke="midnightblue" d="M486.08,-86.67C494.31,-86.67 503.2,-86.67 511.73,-86.67"/>
<polygon fill="midnightblue" stroke="midnightblue" points="511.87,-90.17 521.87,-86.67 511.87,-83.17 511.87,-90.17"/>
</g>
<!-- Node9&#45;&gt;Node7 -->
<g id="edge10" class="edge">
<title>Node9&#45;&gt;Node7</title>
<path fill="none" stroke="midnightblue" d="M477.73,-58.26C489.81,-62.85 504.47,-68.42 517.6,-73.41"/>
<polygon fill="midnightblue" stroke="midnightblue" points="516.68,-76.8 527.27,-77.08 519.17,-70.26 516.68,-76.8"/>
</g>
<!-- Node11&#45;&gt;Node3 -->
<g id="edge14" class="edge">
<title>Node11&#45;&gt;Node3</title>
<path fill="none" stroke="midnightblue" d="M131.66,-76.84C143.88,-76.29 160.58,-75.53 176.39,-74.81"/>
<polygon fill="midnightblue" stroke="midnightblue" points="176.76,-78.3 186.59,-74.35 176.45,-71.3 176.76,-78.3"/>
</g>
<!-- Node12&#45;&gt;Node3 -->
<g id="edge16" class="edge">
<title>Node12&#45;&gt;Node3</title>
<path fill="none" stroke="midnightblue" d="M131.66,-45.12C145.23,-49.19 164.34,-54.92 181.61,-60.1"/>
<polygon fill="midnightblue" stroke="midnightblue" points="180.93,-63.55 191.51,-63.07 182.94,-56.85 180.93,-63.55"/>
</g>
</g>
</svg>
