<?xml version="1.0" encoding="UTF-8" standalone="no"?>
<!DOCTYPE svg PUBLIC "-//W3C//DTD SVG 1.1//EN"
 "http://www.w3.org/Graphics/SVG/1.1/DTD/svg11.dtd">
<!-- Generated by graphviz version 9.0.0 (20230911.1827)
 -->
<!-- Title: eigen_values Pages: 1 -->
<svg width="398pt" height="156pt"
 viewBox="0.00 0.00 397.50 156.25" xmlns="http://www.w3.org/2000/svg" xmlns:xlink="http://www.w3.org/1999/xlink">
<g id="graph0" class="graph" transform="scale(1 1) rotate(0) translate(4 152.25)">
<title>eigen_values</title>
<!-- Node1 -->
<g id="Node000001" class="node">
<title>Node1</title>
<g id="a_Node000001"><a xlink:title="Compute eigen values using iterative shifted QR decomposition algorithm as follows:">
<polygon fill="#999999" stroke="#666666" points="73,-111.25 0,-111.25 0,-92 73,-92 73,-111.25"/>
<text text-anchor="middle" x="36.5" y="-97.75" font-family="Helvetica,sans-Serif" font-size="10.00">eigen_values</text>
</a>
</g>
</g>
<!-- Node2 -->
<g id="Node000002" class="node">
<title>Node2</title>
<g id="a_Node000002"><a xlink:href="../../d7/d50/qr__eigen__values_8c.html#a5835240036dc02ee9a13e65c559fb907" target="_top" xlink:title="Perform multiplication of two matrices.">
<polygon fill="white" stroke="#666666" points="175.62,-148.25 122.12,-148.25 122.12,-129 175.62,-129 175.62,-148.25"/>
<text text-anchor="middle" x="148.88" y="-134.75" font-family="Helvetica,sans-Serif" font-size="10.00">mat_mul</text>
</a>
</g>
</g>
<!-- Node1&#45;&gt;Node2 -->
<g id="edge1_Node000001_Node000002" class="edge">
<title>Node1&#45;&gt;Node2</title>
<g id="a_edge1_Node000001_Node000002"><a xlink:title=" ">
<path fill="none" stroke="#63b8ff" d="M67.66,-111.74C81.06,-116.23 96.95,-121.55 111.04,-126.28"/>
<polygon fill="#63b8ff" stroke="#63b8ff" points="109.85,-129.57 120.44,-129.43 112.07,-122.93 109.85,-129.57"/>
</a>
</g>
</g>
<!-- Node3 -->
<g id="Node000003" class="node">
<title>Node3</title>
<g id="a_Node000003"><a xlink:href="../../d4/d68/qr__decompose_8h.html#a90562ce8c3707401e9c5809dece68d6a" target="_top" xlink:title="function to display matrix on stdout">
<polygon fill="white" stroke="#666666" points="182.38,-111.25 115.38,-111.25 115.38,-92 182.38,-92 182.38,-111.25"/>
<text text-anchor="middle" x="148.88" y="-97.75" font-family="Helvetica,sans-Serif" font-size="10.00">print_matrix</text>
</a>
</g>
</g>
<!-- Node1&#45;&gt;Node3 -->
<g id="edge2_Node000001_Node000003" class="edge">
<title>Node1&#45;&gt;Node3</title>
<g id="a_edge2_Node000001_Node000003"><a xlink:title=" ">
<path fill="none" stroke="#63b8ff" d="M73.34,-101.62C83.12,-101.62 93.84,-101.62 104.02,-101.62"/>
<polygon fill="#63b8ff" stroke="#63b8ff" points="103.69,-105.13 113.69,-101.63 103.69,-98.13 103.69,-105.13"/>
</a>
</g>
</g>
<!-- Node4 -->
<g id="Node000004" class="node">
<title>Node4</title>
<g id="a_Node000004"><a xlink:href="../../d4/d68/qr__decompose_8h.html#a45c7640d9d22c89c11beb1f567843c56" target="_top" xlink:title="Decompose matrix &#160;using Gram&#45;Schmidt process.">
<polygon fill="white" stroke="#666666" points="188.75,-74.25 109,-74.25 109,-55 188.75,-55 188.75,-74.25"/>
<text text-anchor="middle" x="148.88" y="-60.75" font-family="Helvetica,sans-Serif" font-size="10.00">qr_decompose</text>
</a>
</g>
</g>
<!-- Node1&#45;&gt;Node4 -->
<g id="edge3_Node000001_Node000004" class="edge">
<title>Node1&#45;&gt;Node4</title>
<g id="a_edge3_Node000001_Node000004"><a xlink:title=" ">
<path fill="none" stroke="#63b8ff" d="M67.66,-91.51C79.83,-87.44 94.05,-82.67 107.12,-78.29"/>
<polygon fill="#63b8ff" stroke="#63b8ff" points="107.95,-81.7 116.32,-75.2 105.72,-75.06 107.95,-81.7"/>
</a>
</g>
</g>
<!-- Node5 -->
<g id="Node000005" class="node">
<title>Node5</title>
<g id="a_Node000005"><a xlink:href="../../d4/d68/qr__decompose_8h.html#a3a584b79941a43d775f9d4ce446dbe05" target="_top" xlink:title="Compute dot product of two vectors of equal lengths.">
<polygon fill="white" stroke="#666666" points="389.5,-93.25 327.75,-93.25 327.75,-74 389.5,-74 389.5,-93.25"/>
<text text-anchor="middle" x="358.62" y="-79.75" font-family="Helvetica,sans-Serif" font-size="10.00">vector_dot</text>
</a>
</g>
</g>
<!-- Node4&#45;&gt;Node5 -->
<g id="edge4_Node000004_Node000005" class="edge">
<title>Node4&#45;&gt;Node5</title>
<g id="a_edge4_Node000004_Node000005"><a xlink:title=" ">
<path fill="none" stroke="#63b8ff" d="M172.21,-74.63C177.66,-77.16 183.45,-79.93 188.75,-82.62 205.07,-90.92 207.03,-98.03 224.75,-102.62 256.13,-110.76 292.65,-104.44 319.45,-96.97"/>
<polygon fill="#63b8ff" stroke="#63b8ff" points="320.26,-100.38 328.85,-94.18 318.27,-93.68 320.26,-100.38"/>
</a>
</g>
</g>
<!-- Node6 -->
<g id="Node000006" class="node">
<title>Node6</title>
<g id="a_Node000006"><a xlink:href="../../d4/d68/qr__decompose_8h.html#abeec1f78a7a7e7251687e75340331212" target="_top" xlink:title="Compute magnitude of vector.">
<polygon fill="white" stroke="#666666" points="291.75,-93.25 224.75,-93.25 224.75,-74 291.75,-74 291.75,-93.25"/>
<text text-anchor="middle" x="258.25" y="-79.75" font-family="Helvetica,sans-Serif" font-size="10.00">vector_mag</text>
</a>
</g>
</g>
<!-- Node4&#45;&gt;Node6 -->
<g id="edge5_Node000004_Node000006" class="edge">
<title>Node4&#45;&gt;Node6</title>
<g id="a_edge5_Node000004_Node000006"><a xlink:title=" ">
<path fill="none" stroke="#63b8ff" d="M189.25,-71.59C197.14,-72.99 205.48,-74.46 213.51,-75.88"/>
<polygon fill="#63b8ff" stroke="#63b8ff" points="212.63,-79.28 223.09,-77.58 213.85,-72.39 212.63,-79.28"/>
</a>
</g>
</g>
<!-- Node7 -->
<g id="Node000007" class="node">
<title>Node7</title>
<g id="a_Node000007"><a xlink:href="../../d4/d68/qr__decompose_8h.html#a2ed4977f38642dca8b10c16a823c740b" target="_top" xlink:title="Compute projection of vector &#160;on &#160;defined as.">
<polygon fill="white" stroke="#666666" points="290.25,-56.25 226.25,-56.25 226.25,-37 290.25,-37 290.25,-56.25"/>
<text text-anchor="middle" x="258.25" y="-42.75" font-family="Helvetica,sans-Serif" font-size="10.00">vector_proj</text>
</a>
</g>
</g>
<!-- Node4&#45;&gt;Node7 -->
<g id="edge7_Node000004_Node000007" class="edge">
<title>Node4&#45;&gt;Node7</title>
<g id="a_edge7_Node000004_Node000007"><a xlink:title=" ">
<path fill="none" stroke="#63b8ff" d="M189.25,-58.02C197.56,-56.63 206.37,-55.16 214.79,-53.74"/>
<polygon fill="#63b8ff" stroke="#63b8ff" points="215.17,-57.23 224.45,-52.12 214.01,-50.32 215.17,-57.23"/>
</a>
</g>
</g>
<!-- Node8 -->
<g id="Node000008" class="node">
<title>Node8</title>
<g id="a_Node000008"><a xlink:href="../../d4/d68/qr__decompose_8h.html#a5ee39e7c8fce8a604dcf7009ce101c02" target="_top" xlink:title="Compute vector subtraction.">
<polygon fill="white" stroke="#666666" points="290.25,-19.25 226.25,-19.25 226.25,0 290.25,0 290.25,-19.25"/>
<text text-anchor="middle" x="258.25" y="-5.75" font-family="Helvetica,sans-Serif" font-size="10.00">vector_sub</text>
</a>
</g>
</g>
<!-- Node4&#45;&gt;Node8 -->
<g id="edge9_Node000004_Node000008" class="edge">
<title>Node4&#45;&gt;Node8</title>
<g id="a_edge9_Node000004_Node000008"><a xlink:title=" ">
<path fill="none" stroke="#63b8ff" d="M169.57,-54.54C185.76,-46.24 208.97,-34.35 227.44,-24.89"/>
<polygon fill="#63b8ff" stroke="#63b8ff" points="229.03,-28.01 236.33,-20.34 225.84,-21.78 229.03,-28.01"/>
</a>
</g>
</g>
<!-- Node6&#45;&gt;Node5 -->
<g id="edge6_Node000006_Node000005" class="edge">
<title>Node6&#45;&gt;Node5</title>
<g id="a_edge6_Node000006_Node000005"><a xlink:title=" ">
<path fill="none" stroke="#63b8ff" d="M292.01,-83.62C299.67,-83.62 307.93,-83.62 315.92,-83.62"/>
<polygon fill="#63b8ff" stroke="#63b8ff" points="315.82,-87.13 325.82,-83.63 315.82,-80.13 315.82,-87.13"/>
</a>
</g>
</g>
<!-- Node7&#45;&gt;Node5 -->
<g id="edge8_Node000007_Node000005" class="edge">
<title>Node7&#45;&gt;Node5</title>
<g id="a_edge8_Node000007_Node000005"><a xlink:title=" ">
<path fill="none" stroke="#63b8ff" d="M286.13,-56.74C296.65,-60.69 308.9,-65.3 320.25,-69.57"/>
<polygon fill="#63b8ff" stroke="#63b8ff" points="318.77,-72.75 329.36,-72.99 321.23,-66.2 318.77,-72.75"/>
</a>
</g>
</g>
</g>
</svg>
