<?xml version="1.0" encoding="UTF-8" standalone="no"?>
<!DOCTYPE svg PUBLIC "-//W3C//DTD SVG 1.1//EN"
 "http://www.w3.org/Graphics/SVG/1.1/DTD/svg11.dtd">
<!-- Generated by graphviz version 9.0.0 (20230911.1827)
 -->
<!-- Title: test2 Pages: 1 -->
<svg width="471pt" height="156pt"
 viewBox="0.00 0.00 471.25 156.25" xmlns="http://www.w3.org/2000/svg" xmlns:xlink="http://www.w3.org/1999/xlink">

<svg id="main" version="1.1" xmlns="http://www.w3.org/2000/svg" xmlns:xlink="http://www.w3.org/1999/xlink" xml:space="preserve" onload="init(evt)">
<style type="text/css"><![CDATA[
.node, .edge {opacity: 0.7;}
.node.selected, .edge.selected {opacity: 1;}
.edge:hover path { stroke: red; }
.edge:hover polygon { stroke: red; fill: red; }
]]></style>
<script type="application/ecmascript" xlink:href="../../svg.min.js"/>
<svg id="graph" class="graph">
<g id="graph0" class="graph" transform="scale(1 1) rotate(0) translate(4 152.25)">
<title>test2</title>
<!-- Node1 -->
<g id="Node000001" class="node">
<title>Node1</title>
<g id="a_Node000001"><a xlink:title="test function to compute eigen values of a 2x2 matrix">
<polygon fill="#999999" stroke="#666666" points="37.75,-111.25 0,-111.25 0,-92 37.75,-92 37.75,-111.25"/>
<text text-anchor="middle" x="18.88" y="-97.75" font-family="Helvetica,sans-Serif" font-size="10.00">test2</text>
</a>
</g>
</g>
<!-- Node2 -->
<g id="Node000002" class="node">
<title>Node2</title>
<g id="a_Node000002"><a xlink:href="../../d7/d50/qr__eigen__values_8c.html#a0d8ed79786d17df48396b333c09d05bb" target="_top" xlink:title="Compute eigen values using iterative shifted QR decomposition algorithm as follows:">
<polygon fill="white" stroke="#666666" points="146.75,-111.25 73.75,-111.25 73.75,-92 146.75,-92 146.75,-111.25"/>
<text text-anchor="middle" x="110.25" y="-97.75" font-family="Helvetica,sans-Serif" font-size="10.00">eigen_values</text>
</a>
</g>
</g>
<!-- Node1&#45;&gt;Node2 -->
<g id="edge1_Node000001_Node000002" class="edge">
<title>Node1&#45;&gt;Node2</title>
<g id="a_edge1_Node000001_Node000002"><a xlink:title=" ">
<path fill="none" stroke="#63b8ff" d="M37.96,-101.62C45.05,-101.62 53.55,-101.62 62.17,-101.62"/>
<polygon fill="#63b8ff" stroke="#63b8ff" points="61.95,-105.13 71.95,-101.63 61.95,-98.13 61.95,-105.13"/>
</a>
</g>
</g>
<!-- Node3 -->
<g id="Node000003" class="node">
<title>Node3</title>
<g id="a_Node000003"><a xlink:href="../../d7/d50/qr__eigen__values_8c.html#a5835240036dc02ee9a13e65c559fb907" target="_top" xlink:title="Perform multiplication of two matrices.">
<polygon fill="white" stroke="#666666" points="249.38,-148.25 195.88,-148.25 195.88,-129 249.38,-129 249.38,-148.25"/>
<text text-anchor="middle" x="222.62" y="-134.75" font-family="Helvetica,sans-Serif" font-size="10.00">mat_mul</text>
</a>
</g>
</g>
<!-- Node2&#45;&gt;Node3 -->
<g id="edge2_Node000002_Node000003" class="edge">
<title>Node2&#45;&gt;Node3</title>
<g id="a_edge2_Node000002_Node000003"><a xlink:title=" ">
<path fill="none" stroke="#63b8ff" d="M141.41,-111.74C154.81,-116.23 170.7,-121.55 184.79,-126.28"/>
<polygon fill="#63b8ff" stroke="#63b8ff" points="183.6,-129.57 194.19,-129.43 185.82,-122.93 183.6,-129.57"/>
</a>
</g>
</g>
<!-- Node4 -->
<g id="Node000004" class="node">
<title>Node4</title>
<g id="a_Node000004"><a xlink:href="../../d4/d68/qr__decompose_8h.html#a90562ce8c3707401e9c5809dece68d6a" target="_top" xlink:title="function to display matrix on stdout">
<polygon fill="white" stroke="#666666" points="256.12,-111.25 189.12,-111.25 189.12,-92 256.12,-92 256.12,-111.25"/>
<text text-anchor="middle" x="222.62" y="-97.75" font-family="Helvetica,sans-Serif" font-size="10.00">print_matrix</text>
</a>
</g>
</g>
<!-- Node2&#45;&gt;Node4 -->
<g id="edge3_Node000002_Node000004" class="edge">
<title>Node2&#45;&gt;Node4</title>
<g id="a_edge3_Node000002_Node000004"><a xlink:title=" ">
<path fill="none" stroke="#63b8ff" d="M147.09,-101.62C156.87,-101.62 167.59,-101.62 177.77,-101.62"/>
<polygon fill="#63b8ff" stroke="#63b8ff" points="177.44,-105.13 187.44,-101.63 177.44,-98.13 177.44,-105.13"/>
</a>
</g>
</g>
<!-- Node5 -->
<g id="Node000005" class="node">
<title>Node5</title>
<g id="a_Node000005"><a xlink:href="../../d4/d68/qr__decompose_8h.html#a45c7640d9d22c89c11beb1f567843c56" target="_top" xlink:title="Decompose matrix &#160;using Gram&#45;Schmidt process.">
<polygon fill="white" stroke="#666666" points="262.5,-74.25 182.75,-74.25 182.75,-55 262.5,-55 262.5,-74.25"/>
<text text-anchor="middle" x="222.62" y="-60.75" font-family="Helvetica,sans-Serif" font-size="10.00">qr_decompose</text>
</a>
</g>
</g>
<!-- Node2&#45;&gt;Node5 -->
<g id="edge4_Node000002_Node000005" class="edge">
<title>Node2&#45;&gt;Node5</title>
<g id="a_edge4_Node000002_Node000005"><a xlink:title=" ">
<path fill="none" stroke="#63b8ff" d="M141.41,-91.51C153.58,-87.44 167.8,-82.67 180.87,-78.29"/>
<polygon fill="#63b8ff" stroke="#63b8ff" points="181.7,-81.7 190.07,-75.2 179.47,-75.06 181.7,-81.7"/>
</a>
</g>
</g>
<!-- Node6 -->
<g id="Node000006" class="node">
<title>Node6</title>
<g id="a_Node000006"><a xlink:href="../../d4/d68/qr__decompose_8h.html#a3a584b79941a43d775f9d4ce446dbe05" target="_top" xlink:title="Compute dot product of two vectors of equal lengths.">
<polygon fill="white" stroke="#666666" points="463.25,-93.25 401.5,-93.25 401.5,-74 463.25,-74 463.25,-93.25"/>
<text text-anchor="middle" x="432.38" y="-79.75" font-family="Helvetica,sans-Serif" font-size="10.00">vector_dot</text>
</a>
</g>
</g>
<!-- Node5&#45;&gt;Node6 -->
<g id="edge5_Node000005_Node000006" class="edge">
<title>Node5&#45;&gt;Node6</title>
<g id="a_edge5_Node000005_Node000006"><a xlink:title=" ">
<path fill="none" stroke="#63b8ff" d="M245.96,-74.63C251.41,-77.16 257.2,-79.93 262.5,-82.62 278.82,-90.92 280.78,-98.03 298.5,-102.62 329.88,-110.76 366.4,-104.44 393.2,-96.97"/>
<polygon fill="#63b8ff" stroke="#63b8ff" points="394.01,-100.38 402.6,-94.18 392.02,-93.68 394.01,-100.38"/>
</a>
</g>
</g>
<!-- Node7 -->
<g id="Node000007" class="node">
<title>Node7</title>
<g id="a_Node000007"><a xlink:href="../../d4/d68/qr__decompose_8h.html#abeec1f78a7a7e7251687e75340331212" target="_top" xlink:title="Compute magnitude of vector.">
<polygon fill="white" stroke="#666666" points="365.5,-93.25 298.5,-93.25 298.5,-74 365.5,-74 365.5,-93.25"/>
<text text-anchor="middle" x="332" y="-79.75" font-family="Helvetica,sans-Serif" font-size="10.00">vector_mag</text>
</a>
</g>
</g>
<!-- Node5&#45;&gt;Node7 -->
<g id="edge6_Node000005_Node000007" class="edge">
<title>Node5&#45;&gt;Node7</title>
<g id="a_edge6_Node000005_Node000007"><a xlink:title=" ">
<path fill="none" stroke="#63b8ff" d="M263,-71.59C270.89,-72.99 279.23,-74.46 287.26,-75.88"/>
<polygon fill="#63b8ff" stroke="#63b8ff" points="286.38,-79.28 296.84,-77.58 287.6,-72.39 286.38,-79.28"/>
</a>
</g>
</g>
<!-- Node8 -->
<g id="Node000008" class="node">
<title>Node8</title>
<g id="a_Node000008"><a xlink:href="../../d4/d68/qr__decompose_8h.html#a2ed4977f38642dca8b10c16a823c740b" target="_top" xlink:title="Compute projection of vector &#160;on &#160;defined as.">
<polygon fill="white" stroke="#666666" points="364,-56.25 300,-56.25 300,-37 364,-37 364,-56.25"/>
<text text-anchor="middle" x="332" y="-42.75" font-family="Helvetica,sans-Serif" font-size="10.00">vector_proj</text>
</a>
</g>
</g>
<!-- Node5&#45;&gt;Node8 -->
<g id="edge8_Node000005_Node000008" class="edge">
<title>Node5&#45;&gt;Node8</title>
<g id="a_edge8_Node000005_Node000008"><a xlink:title=" ">
<path fill="none" stroke="#63b8ff" d="M263,-58.02C271.31,-56.63 280.12,-55.16 288.54,-53.74"/>
<polygon fill="#63b8ff" stroke="#63b8ff" points="288.92,-57.23 298.2,-52.12 287.76,-50.32 288.92,-57.23"/>
</a>
</g>
</g>
<!-- Node9 -->
<g id="Node000009" class="node">
<title>Node9</title>
<g id="a_Node000009"><a xlink:href="../../d4/d68/qr__decompose_8h.html#a5ee39e7c8fce8a604dcf7009ce101c02" target="_top" xlink:title="Compute vector subtraction.">
<polygon fill="white" stroke="#666666" points="364,-19.25 300,-19.25 300,0 364,0 364,-19.25"/>
<text text-anchor="middle" x="332" y="-5.75" font-family="Helvetica,sans-Serif" font-size="10.00">vector_sub</text>
</a>
</g>
</g>
<!-- Node5&#45;&gt;Node9 -->
<g id="edge10_Node000005_Node000009" class="edge">
<title>Node5&#45;&gt;Node9</title>
<g id="a_edge10_Node000005_Node000009"><a xlink:title=" ">
<path fill="none" stroke="#63b8ff" d="M243.32,-54.54C259.51,-46.24 282.72,-34.35 301.19,-24.89"/>
<polygon fill="#63b8ff" stroke="#63b8ff" points="302.78,-28.01 310.08,-20.34 299.59,-21.78 302.78,-28.01"/>
</a>
</g>
</g>
<!-- Node7&#45;&gt;Node6 -->
<g id="edge7_Node000007_Node000006" class="edge">
<title>Node7&#45;&gt;Node6</title>
<g id="a_edge7_Node000007_Node000006"><a xlink:title=" ">
<path fill="none" stroke="#63b8ff" d="M365.76,-83.62C373.42,-83.62 381.68,-83.62 389.67,-83.62"/>
<polygon fill="#63b8ff" stroke="#63b8ff" points="389.57,-87.13 399.57,-83.63 389.57,-80.13 389.57,-87.13"/>
</a>
</g>
</g>
<!-- Node8&#45;&gt;Node6 -->
<g id="edge9_Node000008_Node000006" class="edge">
<title>Node8&#45;&gt;Node6</title>
<g id="a_edge9_Node000008_Node000006"><a xlink:title=" ">
<path fill="none" stroke="#63b8ff" d="M359.88,-56.74C370.4,-60.69 382.65,-65.3 394,-69.57"/>
<polygon fill="#63b8ff" stroke="#63b8ff" points="392.52,-72.75 403.11,-72.99 394.98,-66.2 392.52,-72.75"/>
</a>
</g>
</g>
</g>
</svg>
</svg>

<style type='text/css'>
<![CDATA[
[data-mouse-over-selected='false'] { opacity: 0.7; }
[data-mouse-over-selected='true']  { opacity: 1.0; }
]]>
</style>
<script type="application/ecmascript"><![CDATA[
document.addEventListener('DOMContentLoaded', (event) => {
  highlightEdges();
  highlightAdjacentNodes();
});
]]></script>
</svg>
