<?xml version="1.0" encoding="UTF-8" standalone="no"?>
<!DOCTYPE svg PUBLIC "-//W3C//DTD SVG 1.1//EN"
 "http://www.w3.org/Graphics/SVG/1.1/DTD/svg11.dtd">
<!-- Generated by graphviz version 2.49.3 (20211023.0002)
 -->
<!-- Title: test2 Pages: 1 -->
<svg width="480pt" height="161pt"
 viewBox="0.00 0.00 480.00 161.00" xmlns="http://www.w3.org/2000/svg" xmlns:xlink="http://www.w3.org/1999/xlink">
<g id="graph0" class="graph" transform="scale(1 1) rotate(0) translate(4 157)">
<title>test2</title>
<polygon fill="white" stroke="transparent" points="-4,4 -4,-157 476,-157 476,4 -4,4"/>
<!-- Node1 -->
<g id="node1" class="node">
<title>Node1</title>
<g id="a_node1"><a xlink:title="test function to compute eigen values of a 2x2 matrix">
<polygon fill="#bfbfbf" stroke="black" points="0,-95.5 0,-114.5 38,-114.5 38,-95.5 0,-95.5"/>
<text text-anchor="middle" x="19" y="-102.5" font-family="Helvetica,sans-Serif" font-size="10.00">test2</text>
</a>
</g>
</g>
<!-- Node2 -->
<g id="node2" class="node">
<title>Node2</title>
<g id="a_node2"><a xlink:href="../../d7/d50/qr__eigen__values_8c.html#a0d8ed79786d17df48396b333c09d05bb" target="_top" xlink:title="Compute eigen values using iterative shifted QR decomposition algorithm as follows:">
<polygon fill="white" stroke="black" points="74,-95.5 74,-114.5 149,-114.5 149,-95.5 74,-95.5"/>
<text text-anchor="middle" x="111.5" y="-102.5" font-family="Helvetica,sans-Serif" font-size="10.00">eigen_values</text>
</a>
</g>
</g>
<!-- Node1&#45;&gt;Node2 -->
<g id="edge1" class="edge">
<title>Node1&#45;&gt;Node2</title>
<path fill="none" stroke="midnightblue" d="M38.31,-105C45.74,-105 54.7,-105 63.73,-105"/>
<polygon fill="midnightblue" stroke="midnightblue" points="63.89,-108.5 73.89,-105 63.89,-101.5 63.89,-108.5"/>
</g>
<!-- Node3 -->
<g id="node3" class="node">
<title>Node3</title>
<g id="a_node3"><a xlink:href="../../d7/d50/qr__eigen__values_8c.html#a5835240036dc02ee9a13e65c559fb907" target="_top" xlink:title="Perform multiplication of two matrices.">
<polygon fill="white" stroke="black" points="199,-133.5 199,-152.5 254,-152.5 254,-133.5 199,-133.5"/>
<text text-anchor="middle" x="226.5" y="-140.5" font-family="Helvetica,sans-Serif" font-size="10.00">mat_mul</text>
</a>
</g>
</g>
<!-- Node2&#45;&gt;Node3 -->
<g id="edge2" class="edge">
<title>Node2&#45;&gt;Node3</title>
<path fill="none" stroke="midnightblue" d="M141.01,-114.59C155.6,-119.49 173.52,-125.52 189.1,-130.76"/>
<polygon fill="midnightblue" stroke="midnightblue" points="188.34,-134.2 198.94,-134.07 190.57,-127.56 188.34,-134.2"/>
</g>
<!-- Node4 -->
<g id="node4" class="node">
<title>Node4</title>
<g id="a_node4"><a xlink:href="../../d4/d68/qr__decompose_8h.html#a90562ce8c3707401e9c5809dece68d6a" target="_top" xlink:title="function to display matrix on stdout">
<polygon fill="white" stroke="black" points="192,-95.5 192,-114.5 261,-114.5 261,-95.5 192,-95.5"/>
<text text-anchor="middle" x="226.5" y="-102.5" font-family="Helvetica,sans-Serif" font-size="10.00">print_matrix</text>
</a>
</g>
</g>
<!-- Node2&#45;&gt;Node4 -->
<g id="edge3" class="edge">
<title>Node2&#45;&gt;Node4</title>
<path fill="none" stroke="midnightblue" d="M149.19,-105C159.54,-105 170.91,-105 181.64,-105"/>
<polygon fill="midnightblue" stroke="midnightblue" points="181.68,-108.5 191.68,-105 181.68,-101.5 181.68,-108.5"/>
</g>
<!-- Node5 -->
<g id="node5" class="node">
<title>Node5</title>
<g id="a_node5"><a xlink:href="../../d4/d68/qr__decompose_8h.html#a45c7640d9d22c89c11beb1f567843c56" target="_top" xlink:title="Decompose matrix &#160;using Gram&#45;Schmidt process.">
<polygon fill="white" stroke="black" points="185,-57.5 185,-76.5 268,-76.5 268,-57.5 185,-57.5"/>
<text text-anchor="middle" x="226.5" y="-64.5" font-family="Helvetica,sans-Serif" font-size="10.00">qr_decompose</text>
</a>
</g>
</g>
<!-- Node2&#45;&gt;Node5 -->
<g id="edge4" class="edge">
<title>Node2&#45;&gt;Node5</title>
<path fill="none" stroke="midnightblue" d="M141.01,-95.41C155.07,-90.69 172.21,-84.92 187.37,-79.82"/>
<polygon fill="midnightblue" stroke="midnightblue" points="188.63,-83.09 196.99,-76.59 186.4,-76.46 188.63,-83.09"/>
</g>
<!-- Node6 -->
<g id="node6" class="node">
<title>Node6</title>
<g id="a_node6"><a xlink:href="../../d4/d68/qr__decompose_8h.html#a3a584b79941a43d775f9d4ce446dbe05" target="_top" xlink:title="Compute dot product of two vectors of equal lengths.">
<polygon fill="white" stroke="black" points="409,-76.5 409,-95.5 472,-95.5 472,-76.5 409,-76.5"/>
<text text-anchor="middle" x="440.5" y="-83.5" font-family="Helvetica,sans-Serif" font-size="10.00">vector_dot</text>
</a>
</g>
</g>
<!-- Node5&#45;&gt;Node6 -->
<g id="edge5" class="edge">
<title>Node5&#45;&gt;Node6</title>
<path fill="none" stroke="midnightblue" d="M248.61,-76.67C254.88,-79.61 261.74,-82.88 268,-86 284.19,-94.07 286.44,-100.65 304,-105 337.27,-113.24 376.08,-106.16 403.61,-98.41"/>
<polygon fill="midnightblue" stroke="midnightblue" points="404.63,-101.75 413.22,-95.55 402.63,-95.04 404.63,-101.75"/>
</g>
<!-- Node7 -->
<g id="node7" class="node">
<title>Node7</title>
<g id="a_node7"><a xlink:href="../../d4/d68/qr__decompose_8h.html#abeec1f78a7a7e7251687e75340331212" target="_top" xlink:title="Compute magnitude of vector.">
<polygon fill="white" stroke="black" points="304,-76.5 304,-95.5 373,-95.5 373,-76.5 304,-76.5"/>
<text text-anchor="middle" x="338.5" y="-83.5" font-family="Helvetica,sans-Serif" font-size="10.00">vector_mag</text>
</a>
</g>
</g>
<!-- Node5&#45;&gt;Node7 -->
<g id="edge6" class="edge">
<title>Node5&#45;&gt;Node7</title>
<path fill="none" stroke="midnightblue" d="M268.15,-74.02C276.5,-75.46 285.33,-76.99 293.79,-78.45"/>
<polygon fill="midnightblue" stroke="midnightblue" points="293.41,-81.94 303.86,-80.19 294.6,-75.04 293.41,-81.94"/>
</g>
<!-- Node8 -->
<g id="node8" class="node">
<title>Node8</title>
<g id="a_node8"><a xlink:href="../../d4/d68/qr__decompose_8h.html#a2ed4977f38642dca8b10c16a823c740b" target="_top" xlink:title="Compute projection of vector &#160;on &#160;defined as.">
<polygon fill="white" stroke="black" points="305.5,-38.5 305.5,-57.5 371.5,-57.5 371.5,-38.5 305.5,-38.5"/>
<text text-anchor="middle" x="338.5" y="-45.5" font-family="Helvetica,sans-Serif" font-size="10.00">vector_proj</text>
</a>
</g>
</g>
<!-- Node5&#45;&gt;Node8 -->
<g id="edge8" class="edge">
<title>Node5&#45;&gt;Node8</title>
<path fill="none" stroke="midnightblue" d="M268.15,-59.98C276.95,-58.46 286.27,-56.85 295.13,-55.32"/>
<polygon fill="midnightblue" stroke="midnightblue" points="296,-58.72 305.26,-53.57 294.81,-51.82 296,-58.72"/>
</g>
<!-- Node9 -->
<g id="node9" class="node">
<title>Node9</title>
<g id="a_node9"><a xlink:href="../../d4/d68/qr__decompose_8h.html#a5ee39e7c8fce8a604dcf7009ce101c02" target="_top" xlink:title="Compute vector subtraction.">
<polygon fill="white" stroke="black" points="306,-0.5 306,-19.5 371,-19.5 371,-0.5 306,-0.5"/>
<text text-anchor="middle" x="338.5" y="-7.5" font-family="Helvetica,sans-Serif" font-size="10.00">vector_sub</text>
</a>
</g>
</g>
<!-- Node5&#45;&gt;Node9 -->
<g id="edge10" class="edge">
<title>Node5&#45;&gt;Node9</title>
<path fill="none" stroke="midnightblue" d="M246.16,-57.33C263.73,-48.23 290.25,-34.48 310.2,-24.15"/>
<polygon fill="midnightblue" stroke="midnightblue" points="311.85,-27.23 319.12,-19.53 308.63,-21.02 311.85,-27.23"/>
</g>
<!-- Node7&#45;&gt;Node6 -->
<g id="edge7" class="edge">
<title>Node7&#45;&gt;Node6</title>
<path fill="none" stroke="midnightblue" d="M373.08,-86C381.31,-86 390.2,-86 398.73,-86"/>
<polygon fill="midnightblue" stroke="midnightblue" points="398.87,-89.5 408.87,-86 398.87,-82.5 398.87,-89.5"/>
</g>
<!-- Node8&#45;&gt;Node6 -->
<g id="edge9" class="edge">
<title>Node8&#45;&gt;Node6</title>
<path fill="none" stroke="midnightblue" d="M364.73,-57.59C376.81,-62.18 391.47,-67.75 404.6,-72.74"/>
<polygon fill="midnightblue" stroke="midnightblue" points="403.68,-76.13 414.27,-76.41 406.17,-69.59 403.68,-76.13"/>
</g>
</g>
</svg>
