<?xml version="1.0" encoding="UTF-8" standalone="no"?>
<!DOCTYPE svg PUBLIC "-//W3C//DTD SVG 1.1//EN"
 "http://www.w3.org/Graphics/SVG/1.1/DTD/svg11.dtd">
<!-- Generated by graphviz version 9.0.0 (20230911.1827)
 -->
<!-- Title: machine_learning/adaline_learning.c Pages: 1 -->
<svg width="452pt" height="94pt"
 viewBox="0.00 0.00 452.12 93.75" xmlns="http://www.w3.org/2000/svg" xmlns:xlink="http://www.w3.org/1999/xlink">
<g id="graph0" class="graph" transform="scale(1 1) rotate(0) translate(4 89.75)">
<title>machine_learning/adaline_learning.c</title>
<!-- Node1 -->
<g id="Node000001" class="node">
<title>Node1</title>
<g id="a_Node000001"><a xlink:title="Adaptive Linear Neuron (ADALINE) implementation">
<polygon fill="#999999" stroke="#666666" points="289.38,-85.75 163.88,-85.75 163.88,-55.25 289.38,-55.25 289.38,-85.75"/>
<text text-anchor="start" x="171.88" y="-72.25" font-family="Helvetica,sans-Serif" font-size="10.00">machine_learning/adaline</text>
<text text-anchor="middle" x="226.62" y="-61" font-family="Helvetica,sans-Serif" font-size="10.00">_learning.c</text>
</a>
</g>
</g>
<!-- Node2 -->
<g id="Node000002" class="node">
<title>Node2</title>
<g id="a_Node000002"><a xlink:title=" ">
<polygon fill="#e0e0e0" stroke="#999999" points="51.25,-19.25 0,-19.25 0,0 51.25,0 51.25,-19.25"/>
<text text-anchor="middle" x="25.62" y="-5.75" font-family="Helvetica,sans-Serif" font-size="10.00">assert.h</text>
</a>
</g>
</g>
<!-- Node1&#45;&gt;Node2 -->
<g id="edge1_Node000001_Node000002" class="edge">
<title>Node1&#45;&gt;Node2</title>
<g id="a_edge1_Node000001_Node000002"><a xlink:title=" ">
<path fill="none" stroke="#63b8ff" d="M176.42,-54.8C140.95,-44.41 94.22,-30.72 62.24,-21.35"/>
<polygon fill="#63b8ff" stroke="#63b8ff" points="63.62,-18.11 53.04,-18.65 61.65,-24.82 63.62,-18.11"/>
</a>
</g>
</g>
<!-- Node3 -->
<g id="Node000003" class="node">
<title>Node3</title>
<g id="a_Node000003"><a xlink:title=" ">
<polygon fill="#e0e0e0" stroke="#999999" points="116.38,-19.25 68.88,-19.25 68.88,0 116.38,0 116.38,-19.25"/>
<text text-anchor="middle" x="92.62" y="-5.75" font-family="Helvetica,sans-Serif" font-size="10.00">limits.h</text>
</a>
</g>
</g>
<!-- Node1&#45;&gt;Node3 -->
<g id="edge2_Node000001_Node000003" class="edge">
<title>Node1&#45;&gt;Node3</title>
<g id="a_edge2_Node000001_Node000003"><a xlink:title=" ">
<path fill="none" stroke="#63b8ff" d="M193.16,-54.8C171.87,-45.44 144.49,-33.41 123.68,-24.27"/>
<polygon fill="#63b8ff" stroke="#63b8ff" points="125.12,-21.08 114.56,-20.26 122.31,-27.49 125.12,-21.08"/>
</a>
</g>
</g>
<!-- Node4 -->
<g id="Node000004" class="node">
<title>Node4</title>
<g id="a_Node000004"><a xlink:title=" ">
<polygon fill="#e0e0e0" stroke="#999999" points="180.62,-19.25 134.62,-19.25 134.62,0 180.62,0 180.62,-19.25"/>
<text text-anchor="middle" x="157.62" y="-5.75" font-family="Helvetica,sans-Serif" font-size="10.00">math.h</text>
</a>
</g>
</g>
<!-- Node1&#45;&gt;Node4 -->
<g id="edge3_Node000001_Node000004" class="edge">
<title>Node1&#45;&gt;Node4</title>
<g id="a_edge3_Node000001_Node000004"><a xlink:title=" ">
<path fill="none" stroke="#63b8ff" d="M209.57,-54.95C199.67,-46.5 187.17,-35.83 176.91,-27.08"/>
<polygon fill="#63b8ff" stroke="#63b8ff" points="179.29,-24.51 169.41,-20.68 174.75,-29.84 179.29,-24.51"/>
</a>
</g>
</g>
<!-- Node5 -->
<g id="Node000005" class="node">
<title>Node5</title>
<g id="a_Node000005"><a xlink:title=" ">
<polygon fill="#e0e0e0" stroke="#999999" points="254.5,-19.25 198.75,-19.25 198.75,0 254.5,0 254.5,-19.25"/>
<text text-anchor="middle" x="226.62" y="-5.75" font-family="Helvetica,sans-Serif" font-size="10.00">stdbool.h</text>
</a>
</g>
</g>
<!-- Node1&#45;&gt;Node5 -->
<g id="edge4_Node000001_Node000005" class="edge">
<title>Node1&#45;&gt;Node5</title>
<g id="a_edge4_Node000001_Node000005"><a xlink:title=" ">
<path fill="none" stroke="#63b8ff" d="M226.62,-54.95C226.62,-47.71 226.62,-38.84 226.62,-30.94"/>
<polygon fill="#63b8ff" stroke="#63b8ff" points="230.13,-31.21 226.63,-21.21 223.13,-31.21 230.13,-31.21"/>
</a>
</g>
</g>
<!-- Node6 -->
<g id="Node000006" class="node">
<title>Node6</title>
<g id="a_Node000006"><a xlink:title=" ">
<polygon fill="#e0e0e0" stroke="#999999" points="318.25,-19.25 273,-19.25 273,0 318.25,0 318.25,-19.25"/>
<text text-anchor="middle" x="295.62" y="-5.75" font-family="Helvetica,sans-Serif" font-size="10.00">stdio.h</text>
</a>
</g>
</g>
<!-- Node1&#45;&gt;Node6 -->
<g id="edge5_Node000001_Node000006" class="edge">
<title>Node1&#45;&gt;Node6</title>
<g id="a_edge5_Node000001_Node000006"><a xlink:title=" ">
<path fill="none" stroke="#63b8ff" d="M243.68,-54.95C253.58,-46.5 266.08,-35.83 276.34,-27.08"/>
<polygon fill="#63b8ff" stroke="#63b8ff" points="278.5,-29.84 283.84,-20.68 273.96,-24.51 278.5,-29.84"/>
</a>
</g>
</g>
<!-- Node7 -->
<g id="Node000007" class="node">
<title>Node7</title>
<g id="a_Node000007"><a xlink:title=" ">
<polygon fill="#e0e0e0" stroke="#999999" points="383.38,-19.25 335.88,-19.25 335.88,0 383.38,0 383.38,-19.25"/>
<text text-anchor="middle" x="359.62" y="-5.75" font-family="Helvetica,sans-Serif" font-size="10.00">stdlib.h</text>
</a>
</g>
</g>
<!-- Node1&#45;&gt;Node7 -->
<g id="edge6_Node000001_Node000007" class="edge">
<title>Node1&#45;&gt;Node7</title>
<g id="a_edge6_Node000001_Node000007"><a xlink:title=" ">
<path fill="none" stroke="#63b8ff" d="M259.84,-54.8C280.97,-45.44 308.15,-33.41 328.8,-24.27"/>
<polygon fill="#63b8ff" stroke="#63b8ff" points="330.12,-27.51 337.84,-20.27 327.28,-21.11 330.12,-27.51"/>
</a>
</g>
</g>
<!-- Node8 -->
<g id="Node000008" class="node">
<title>Node8</title>
<g id="a_Node000008"><a xlink:title=" ">
<polygon fill="#e0e0e0" stroke="#999999" points="444.12,-19.25 401.12,-19.25 401.12,0 444.12,0 444.12,-19.25"/>
<text text-anchor="middle" x="422.62" y="-5.75" font-family="Helvetica,sans-Serif" font-size="10.00">time.h</text>
</a>
</g>
</g>
<!-- Node1&#45;&gt;Node8 -->
<g id="edge7_Node000001_Node000008" class="edge">
<title>Node1&#45;&gt;Node8</title>
<g id="a_edge7_Node000001_Node000008"><a xlink:title=" ">
<path fill="none" stroke="#63b8ff" d="M275.58,-54.8C311.33,-44.06 358.81,-29.79 390.02,-20.42"/>
<polygon fill="#63b8ff" stroke="#63b8ff" points="390.71,-23.87 399.28,-17.64 388.69,-17.16 390.71,-23.87"/>
</a>
</g>
</g>
</g>
</svg>
