<?xml version="1.0" encoding="UTF-8" standalone="no"?>
<!DOCTYPE svg PUBLIC "-//W3C//DTD SVG 1.1//EN"
 "http://www.w3.org/Graphics/SVG/1.1/DTD/svg11.dtd">
<!-- Generated by graphviz version 8.0.5 (20230430.1635)
 -->
<!-- Title: main Pages: 1 -->
<svg width="311pt" height="126pt"
 viewBox="0.00 0.00 310.50 125.51" xmlns="http://www.w3.org/2000/svg" xmlns:xlink="http://www.w3.org/1999/xlink">
<g id="graph0" class="graph" transform="scale(1 1) rotate(0) translate(4 121.51)">
<title>main</title>
<!-- Node1 -->
<g id="Node000001" class="node">
<title>Node1</title>
<g id="a_Node000001"><a xlink:title="Main function.">
<polygon fill="#999999" stroke="#666666" points="37,-95.25 0,-95.25 0,-76 37,-76 37,-95.25"/>
<text text-anchor="middle" x="18.5" y="-81.75" font-family="Helvetica,sans-Serif" font-size="10.00">main</text>
</a>
</g>
</g>
<!-- Node2 -->
<g id="Node000002" class="node">
<title>Node2</title>
<g id="a_Node000002"><a xlink:href="../../d7/d3b/group__hash.html#ga049d44b5a4804ca5a1b7a290f3fa3202" target="_top" xlink:title="blake2b mixing function G">
<polygon fill="white" stroke="#666666" points="289.02,-57.25 260.23,-57.25 260.23,-38 289.02,-38 289.02,-57.25"/>
<text text-anchor="middle" x="274.62" y="-43.75" font-family="Helvetica,sans-Serif" font-size="10.00">G</text>
</a>
</g>
</g>
<!-- Node1&#45;&gt;Node2 -->
<g id="edge1_Node000001_Node000002" class="edge">
<title>Node1&#45;&gt;Node2</title>
<g id="a_edge1_Node000001_Node000002"><a xlink:title=" ">
<path fill="none" stroke="#63b8ff" d="M37.41,-93.72C47.61,-97.88 60.76,-102.52 73,-104.62 133.33,-115.02 153.63,-126.66 210.75,-104.62 230.82,-96.88 248.45,-79.43 259.9,-65.86"/>
<polygon fill="#63b8ff" stroke="#63b8ff" points="262.96,-68.64 266.49,-58.65 257.5,-64.26 262.96,-68.64"/>
</a>
</g>
</g>
<!-- Node3 -->
<g id="Node000003" class="node">
<title>Node3</title>
<g id="a_Node000003"><a xlink:href="../../de/dcf/rot13_8c.html#aa8dca7b867074164d5f45b0f3851269d" target="_top" xlink:title="Self&#45;test implementations.">
<polygon fill="white" stroke="#666666" points="121.25,-95.25 88.75,-95.25 88.75,-76 121.25,-76 121.25,-95.25"/>
<text text-anchor="middle" x="105" y="-81.75" font-family="Helvetica,sans-Serif" font-size="10.00">test</text>
</a>
</g>
</g>
<!-- Node1&#45;&gt;Node3 -->
<g id="edge2_Node000001_Node000003" class="edge">
<title>Node1&#45;&gt;Node3</title>
<g id="a_edge2_Node000001_Node000003"><a xlink:title=" ">
<path fill="none" stroke="#63b8ff" d="M37.42,-85.62C49.11,-85.62 64.57,-85.62 77.65,-85.62"/>
<polygon fill="#63b8ff" stroke="#63b8ff" points="77.38,-89.13 87.38,-85.62 77.38,-82.13 77.38,-89.13"/>
</a>
</g>
</g>
<!-- Node5 -->
<g id="Node000005" class="node">
<title>Node5</title>
<g id="a_Node000005"><a xlink:href="../../d9/dcc/prim_8c.html#addac7a8c7bfd3e5573dad1f6aeff7768" target="_top" xlink:title="Function user_graph(); gets user input adj.">
<polygon fill="white" stroke="#666666" points="137,-57.25 73,-57.25 73,-38 137,-38 137,-57.25"/>
<text text-anchor="middle" x="105" y="-43.75" font-family="Helvetica,sans-Serif" font-size="10.00">user_graph</text>
</a>
</g>
</g>
<!-- Node1&#45;&gt;Node5 -->
<g id="edge4_Node000001_Node000005" class="edge">
<title>Node1&#45;&gt;Node5</title>
<g id="a_edge4_Node000001_Node000005"><a xlink:title=" ">
<path fill="none" stroke="#63b8ff" d="M37.42,-77.57C47.39,-73.08 60.09,-67.37 71.73,-62.14"/>
<polygon fill="#63b8ff" stroke="#63b8ff" points="72.9,-65 80.58,-57.71 70.03,-58.61 72.9,-65"/>
</a>
</g>
</g>
<!-- Node4 -->
<g id="Node000004" class="node">
<title>Node4</title>
<g id="a_Node000004"><a xlink:href="../../de/dcf/rot13_8c.html#aff3bdb59af9eabba91420f23eb01718c" target="_top" xlink:title="for IO operations">
<polygon fill="white" stroke="#666666" points="210.75,-95.25 173,-95.25 173,-76 210.75,-76 210.75,-95.25"/>
<text text-anchor="middle" x="191.88" y="-81.75" font-family="Helvetica,sans-Serif" font-size="10.00">rot13</text>
</a>
</g>
</g>
<!-- Node3&#45;&gt;Node4 -->
<g id="edge3_Node000003_Node000004" class="edge">
<title>Node3&#45;&gt;Node4</title>
<g id="a_edge3_Node000003_Node000004"><a xlink:title=" ">
<path fill="none" stroke="#63b8ff" d="M121.57,-85.62C132.86,-85.62 148.46,-85.62 162,-85.62"/>
<polygon fill="#63b8ff" stroke="#63b8ff" points="161.76,-89.13 171.76,-85.62 161.76,-82.13 161.76,-89.13"/>
</a>
</g>
</g>
<!-- Node5&#45;&gt;Node2 -->
<g id="edge5_Node000005_Node000002" class="edge">
<title>Node5&#45;&gt;Node2</title>
<g id="a_edge5_Node000005_Node000002"><a xlink:title=" ">
<path fill="none" stroke="#63b8ff" d="M137.14,-47.62C169.57,-47.62 219.69,-47.62 249.32,-47.62"/>
<polygon fill="#63b8ff" stroke="#63b8ff" points="248.95,-51.13 258.95,-47.62 248.95,-44.13 248.95,-51.13"/>
</a>
</g>
</g>
<!-- Node6 -->
<g id="Node000006" class="node">
<title>Node6</title>
<g id="a_Node000006"><a xlink:href="../../d9/dcc/prim_8c.html#a0bea087eb586c437cf0a667f794c8853" target="_top" xlink:title="Used to find MST of user&#45;generated adj matrix G.">
<polygon fill="white" stroke="#666666" points="209.25,-19.25 174.5,-19.25 174.5,0 209.25,0 209.25,-19.25"/>
<text text-anchor="middle" x="191.88" y="-5.75" font-family="Helvetica,sans-Serif" font-size="10.00">prim</text>
</a>
</g>
</g>
<!-- Node5&#45;&gt;Node6 -->
<g id="edge6_Node000005_Node000006" class="edge">
<title>Node5&#45;&gt;Node6</title>
<g id="a_edge6_Node000005_Node000006"><a xlink:title=" ">
<path fill="none" stroke="#63b8ff" d="M128.3,-37.64C139.28,-32.72 152.6,-26.76 164.13,-21.6"/>
<polygon fill="#63b8ff" stroke="#63b8ff" points="165.39,-24.42 173.09,-17.14 162.53,-18.03 165.39,-24.42"/>
</a>
</g>
</g>
<!-- Node6&#45;&gt;Node2 -->
<g id="edge7_Node000006_Node000002" class="edge">
<title>Node6&#45;&gt;Node2</title>
<g id="a_edge7_Node000006_Node000002"><a xlink:title=" ">
<path fill="none" stroke="#63b8ff" d="M209.61,-17.5C221.34,-23.02 237.2,-30.48 250.19,-36.6"/>
<polygon fill="#63b8ff" stroke="#63b8ff" points="248.33,-40.06 258.87,-41.15 251.31,-33.72 248.33,-40.06"/>
</a>
</g>
</g>
<!-- Node7 -->
<g id="Node000007" class="node">
<title>Node7</title>
<g id="a_Node000007"><a xlink:href="../../d9/dcc/prim_8c.html#a72ec66b10f86d67064d34f2b2717fdfc" target="_top" xlink:title="Finds index of minimum element in edge list for an arbitrary vertex.">
<polygon fill="white" stroke="#666666" points="302.5,-19.25 246.75,-19.25 246.75,0 302.5,0 302.5,-19.25"/>
<text text-anchor="middle" x="274.62" y="-5.75" font-family="Helvetica,sans-Serif" font-size="10.00">minimum</text>
</a>
</g>
</g>
<!-- Node6&#45;&gt;Node7 -->
<g id="edge8_Node000006_Node000007" class="edge">
<title>Node6&#45;&gt;Node7</title>
<g id="a_edge8_Node000006_Node000007"><a xlink:title=" ">
<path fill="none" stroke="#63b8ff" d="M209.61,-9.62C217.16,-9.62 226.42,-9.62 235.52,-9.62"/>
<polygon fill="#63b8ff" stroke="#63b8ff" points="235.43,-13.13 245.43,-9.62 235.43,-6.13 235.43,-13.13"/>
</a>
</g>
</g>
</g>
</svg>
