<?xml version="1.0" encoding="UTF-8" standalone="no"?>
<!DOCTYPE svg PUBLIC "-//W3C//DTD SVG 1.1//EN"
 "http://www.w3.org/Graphics/SVG/1.1/DTD/svg11.dtd">
<!-- Generated by graphviz version 9.0.0 (20230911.1827)
 -->
<!-- Title: main Pages: 1 -->
<svg width="311pt" height="126pt"
 viewBox="0.00 0.00 310.50 125.51" xmlns="http://www.w3.org/2000/svg" xmlns:xlink="http://www.w3.org/1999/xlink">

<svg id="main" version="1.1" xmlns="http://www.w3.org/2000/svg" xmlns:xlink="http://www.w3.org/1999/xlink" xml:space="preserve" onload="init(evt)">
<style type="text/css"><![CDATA[
.node, .edge {opacity: 0.7;}
.node.selected, .edge.selected {opacity: 1;}
.edge:hover path { stroke: red; }
.edge:hover polygon { stroke: red; fill: red; }
]]></style>
<script type="application/ecmascript" xlink:href="../../svg.min.js"/>
<svg id="graph" class="graph">
<g id="graph0" class="graph" transform="scale(1 1) rotate(0) translate(4 121.51)">
<title>main</title>
<!-- Node1 -->
<g id="Node000001" class="node">
<title>Node1</title>
<g id="a_Node000001"><a xlink:title="Main function.">
<polygon fill="#999999" stroke="#666666" points="37,-95.25 0,-95.25 0,-76 37,-76 37,-95.25"/>
<text text-anchor="middle" x="18.5" y="-81.75" font-family="Helvetica,sans-Serif" font-size="10.00">main</text>
</a>
</g>
</g>
<!-- Node2 -->
<g id="Node000002" class="node">
<title>Node2</title>
<g id="a_Node000002"><a xlink:href="../../d7/d3b/group__hash.html#ga049d44b5a4804ca5a1b7a290f3fa3202" target="_top" xlink:title="blake2b mixing function G">
<polygon fill="white" stroke="#666666" points="289.02,-57.25 260.23,-57.25 260.23,-38 289.02,-38 289.02,-57.25"/>
<text text-anchor="middle" x="274.62" y="-43.75" font-family="Helvetica,sans-Serif" font-size="10.00">G</text>
</a>
</g>
</g>
<!-- Node1&#45;&gt;Node2 -->
<g id="edge1_Node000001_Node000002" class="edge">
<title>Node1&#45;&gt;Node2</title>
<g id="a_edge1_Node000001_Node000002"><a xlink:title=" ">
<path fill="none" stroke="#63b8ff" d="M37.41,-93.72C47.61,-97.88 60.76,-102.52 73,-104.62 133.33,-115.02 153.63,-126.66 210.75,-104.62 230.63,-96.95 248.12,-79.76 259.57,-66.25"/>
<polygon fill="#63b8ff" stroke="#63b8ff" points="262,-68.81 265.54,-58.83 256.54,-64.42 262,-68.81"/>
</a>
</g>
</g>
<!-- Node3 -->
<g id="Node000003" class="node">
<title>Node3</title>
<g id="a_Node000003"><a xlink:href="../../de/dcf/rot13_8c.html#aa8dca7b867074164d5f45b0f3851269d" target="_top" xlink:title="Self&#45;test implementations.">
<polygon fill="white" stroke="#666666" points="121.25,-95.25 88.75,-95.25 88.75,-76 121.25,-76 121.25,-95.25"/>
<text text-anchor="middle" x="105" y="-81.75" font-family="Helvetica,sans-Serif" font-size="10.00">test</text>
</a>
</g>
</g>
<!-- Node1&#45;&gt;Node3 -->
<g id="edge2_Node000001_Node000003" class="edge">
<title>Node1&#45;&gt;Node3</title>
<g id="a_edge2_Node000001_Node000003"><a xlink:title=" ">
<path fill="none" stroke="#63b8ff" d="M37.42,-85.62C48.99,-85.62 64.26,-85.62 77.25,-85.62"/>
<polygon fill="#63b8ff" stroke="#63b8ff" points="76.86,-89.13 86.86,-85.63 76.86,-82.13 76.86,-89.13"/>
</a>
</g>
</g>
<!-- Node5 -->
<g id="Node000005" class="node">
<title>Node5</title>
<g id="a_Node000005"><a xlink:href="../../d9/dcc/prim_8c.html#addac7a8c7bfd3e5573dad1f6aeff7768" target="_top" xlink:title="Function user_graph(); gets user input adj.">
<polygon fill="white" stroke="#666666" points="137,-57.25 73,-57.25 73,-38 137,-38 137,-57.25"/>
<text text-anchor="middle" x="105" y="-43.75" font-family="Helvetica,sans-Serif" font-size="10.00">user_graph</text>
</a>
</g>
</g>
<!-- Node1&#45;&gt;Node5 -->
<g id="edge4_Node000001_Node000005" class="edge">
<title>Node1&#45;&gt;Node5</title>
<g id="a_edge4_Node000001_Node000005"><a xlink:title=" ">
<path fill="none" stroke="#63b8ff" d="M37.42,-77.57C47.29,-73.13 59.84,-67.48 71.38,-62.3"/>
<polygon fill="#63b8ff" stroke="#63b8ff" points="72.52,-65.62 80.2,-58.33 69.65,-59.24 72.52,-65.62"/>
</a>
</g>
</g>
<!-- Node4 -->
<g id="Node000004" class="node">
<title>Node4</title>
<g id="a_Node000004"><a xlink:href="../../de/dcf/rot13_8c.html#aff3bdb59af9eabba91420f23eb01718c" target="_top" xlink:title="for IO operations">
<polygon fill="white" stroke="#666666" points="210.75,-95.25 173,-95.25 173,-76 210.75,-76 210.75,-95.25"/>
<text text-anchor="middle" x="191.88" y="-81.75" font-family="Helvetica,sans-Serif" font-size="10.00">rot13</text>
</a>
</g>
</g>
<!-- Node3&#45;&gt;Node4 -->
<g id="edge3_Node000003_Node000004" class="edge">
<title>Node3&#45;&gt;Node4</title>
<g id="a_edge3_Node000003_Node000004"><a xlink:title=" ">
<path fill="none" stroke="#63b8ff" d="M121.57,-85.62C132.75,-85.62 148.15,-85.62 161.6,-85.62"/>
<polygon fill="#63b8ff" stroke="#63b8ff" points="161.24,-89.13 171.24,-85.63 161.24,-82.13 161.24,-89.13"/>
</a>
</g>
</g>
<!-- Node5&#45;&gt;Node2 -->
<g id="edge5_Node000005_Node000002" class="edge">
<title>Node5&#45;&gt;Node2</title>
<g id="a_edge5_Node000005_Node000002"><a xlink:title=" ">
<path fill="none" stroke="#63b8ff" d="M137.14,-47.62C169.28,-47.62 218.81,-47.62 248.53,-47.62"/>
<polygon fill="#63b8ff" stroke="#63b8ff" points="248.44,-51.13 258.44,-47.63 248.44,-44.13 248.44,-51.13"/>
</a>
</g>
</g>
<!-- Node6 -->
<g id="Node000006" class="node">
<title>Node6</title>
<g id="a_Node000006"><a xlink:href="../../d9/dcc/prim_8c.html#a0bea087eb586c437cf0a667f794c8853" target="_top" xlink:title="Used to find MST of user&#45;generated adj matrix G.">
<polygon fill="white" stroke="#666666" points="209.25,-19.25 174.5,-19.25 174.5,0 209.25,0 209.25,-19.25"/>
<text text-anchor="middle" x="191.88" y="-5.75" font-family="Helvetica,sans-Serif" font-size="10.00">prim</text>
</a>
</g>
</g>
<!-- Node5&#45;&gt;Node6 -->
<g id="edge6_Node000005_Node000006" class="edge">
<title>Node5&#45;&gt;Node6</title>
<g id="a_edge6_Node000005_Node000006"><a xlink:title=" ">
<path fill="none" stroke="#63b8ff" d="M128.3,-37.64C139.17,-32.78 152.33,-26.88 163.77,-21.76"/>
<polygon fill="#63b8ff" stroke="#63b8ff" points="165.01,-25.04 172.71,-17.76 162.15,-18.65 165.01,-25.04"/>
</a>
</g>
</g>
<!-- Node6&#45;&gt;Node2 -->
<g id="edge7_Node000006_Node000002" class="edge">
<title>Node6&#45;&gt;Node2</title>
<g id="a_edge7_Node000006_Node000002"><a xlink:title=" ">
<path fill="none" stroke="#63b8ff" d="M209.61,-17.5C221.23,-22.97 236.88,-30.33 249.8,-36.42"/>
<polygon fill="#63b8ff" stroke="#63b8ff" points="247.96,-39.41 258.5,-40.51 250.94,-33.08 247.96,-39.41"/>
</a>
</g>
</g>
<!-- Node7 -->
<g id="Node000007" class="node">
<title>Node7</title>
<g id="a_Node000007"><a xlink:href="../../d9/dcc/prim_8c.html#a72ec66b10f86d67064d34f2b2717fdfc" target="_top" xlink:title="Finds index of minimum element in edge list for an arbitrary vertex.">
<polygon fill="white" stroke="#666666" points="302.5,-19.25 246.75,-19.25 246.75,0 302.5,0 302.5,-19.25"/>
<text text-anchor="middle" x="274.62" y="-5.75" font-family="Helvetica,sans-Serif" font-size="10.00">minimum</text>
</a>
</g>
</g>
<!-- Node6&#45;&gt;Node7 -->
<g id="edge8_Node000006_Node000007" class="edge">
<title>Node6&#45;&gt;Node7</title>
<g id="a_edge8_Node000006_Node000007"><a xlink:title=" ">
<path fill="none" stroke="#63b8ff" d="M209.61,-9.62C216.99,-9.62 226.01,-9.62 234.92,-9.62"/>
<polygon fill="#63b8ff" stroke="#63b8ff" points="234.91,-13.13 244.91,-9.63 234.91,-6.13 234.91,-13.13"/>
</a>
</g>
</g>
</g>
</svg>
</svg>

<style type='text/css'>
<![CDATA[
[data-mouse-over-selected='false'] { opacity: 0.7; }
[data-mouse-over-selected='true']  { opacity: 1.0; }
]]>
</style>
<script type="application/ecmascript"><![CDATA[
document.addEventListener('DOMContentLoaded', (event) => {
  highlightEdges();
  highlightAdjacentNodes();
});
]]></script>
</svg>
