<?xml version="1.0" encoding="UTF-8" standalone="no"?>
<!DOCTYPE svg PUBLIC "-//W3C//DTD SVG 1.1//EN"
 "http://www.w3.org/Graphics/SVG/1.1/DTD/svg11.dtd">
<!-- Generated by graphviz version 8.0.5 (20230430.1635)
 -->
<!-- Title: test Pages: 1 -->
<svg width="203pt" height="101pt"
 viewBox="0.00 0.00 203.00 101.25" xmlns="http://www.w3.org/2000/svg" xmlns:xlink="http://www.w3.org/1999/xlink">
<g id="graph0" class="graph" transform="scale(1 1) rotate(0) translate(4 97.25)">
<title>test</title>
<!-- Node1 -->
<g id="Node000001" class="node">
<title>Node1</title>
<g id="a_Node000001"><a xlink:title="Self&#45;test implementations.">
<polygon fill="#999999" stroke="#666666" points="32.5,-56.25 0,-56.25 0,-37 32.5,-37 32.5,-56.25"/>
<text text-anchor="middle" x="16.25" y="-42.75" font-family="Helvetica,sans-Serif" font-size="10.00">test</text>
</a>
</g>
</g>
<!-- Node2 -->
<g id="Node000002" class="node">
<title>Node2</title>
<g id="a_Node000002"><a xlink:href="../../d7/d3b/group__hash.html#ga049d44b5a4804ca5a1b7a290f3fa3202" target="_top" xlink:title="blake2b mixing function G">
<polygon fill="white" stroke="#666666" points="181.53,-93.25 152.72,-93.25 152.72,-74 181.53,-74 181.53,-93.25"/>
<text text-anchor="middle" x="167.12" y="-79.75" font-family="Helvetica,sans-Serif" font-size="10.00">G</text>
</a>
</g>
</g>
<!-- Node1&#45;&gt;Node2 -->
<g id="edge1_Node000001_Node000002" class="edge">
<title>Node1&#45;&gt;Node2</title>
<g id="a_edge1_Node000001_Node000002"><a xlink:title=" ">
<path fill="none" stroke="#63b8ff" d="M32.72,-53.16C42.77,-57.2 56.24,-62.25 68.5,-65.62 92.97,-72.36 121.59,-77.31 141.49,-80.29"/>
<polygon fill="#63b8ff" stroke="#63b8ff" points="140.98,-83.89 151.37,-81.85 141.98,-76.97 140.98,-83.89"/>
</a>
</g>
</g>
<!-- Node3 -->
<g id="Node000003" class="node">
<title>Node3</title>
<g id="a_Node000003"><a xlink:href="../../d9/dcc/prim_8c.html#a0bea087eb586c437cf0a667f794c8853" target="_top" xlink:title="Used to find MST of user&#45;generated adj matrix G.">
<polygon fill="white" stroke="#666666" points="103.25,-56.25 68.5,-56.25 68.5,-37 103.25,-37 103.25,-56.25"/>
<text text-anchor="middle" x="85.88" y="-42.75" font-family="Helvetica,sans-Serif" font-size="10.00">prim</text>
</a>
</g>
</g>
<!-- Node1&#45;&gt;Node3 -->
<g id="edge2_Node000001_Node000003" class="edge">
<title>Node1&#45;&gt;Node3</title>
<g id="a_edge2_Node000001_Node000003"><a xlink:title=" ">
<path fill="none" stroke="#63b8ff" d="M32.93,-46.62C40.23,-46.62 49.13,-46.62 57.48,-46.62"/>
<polygon fill="#63b8ff" stroke="#63b8ff" points="57.33,-50.13 67.33,-46.62 57.33,-43.13 57.33,-50.13"/>
</a>
</g>
</g>
<!-- Node5 -->
<g id="Node000005" class="node">
<title>Node5</title>
<g id="a_Node000005"><a xlink:href="../../de/dcf/rot13_8c.html#aa8dca7b867074164d5f45b0f3851269d" target="_top" xlink:title="Self&#45;test implementations.">
<polygon fill="white" stroke="#666666" points="102.12,-19.25 69.62,-19.25 69.62,0 102.12,0 102.12,-19.25"/>
<text text-anchor="middle" x="85.88" y="-5.75" font-family="Helvetica,sans-Serif" font-size="10.00">test</text>
</a>
</g>
</g>
<!-- Node1&#45;&gt;Node5 -->
<g id="edge5_Node000001_Node000005" class="edge">
<title>Node1&#45;&gt;Node5</title>
<g id="a_edge5_Node000001_Node000005"><a xlink:title=" ">
<path fill="none" stroke="#63b8ff" d="M32.93,-38.04C40.87,-33.7 50.7,-28.32 59.67,-23.42"/>
<polygon fill="#63b8ff" stroke="#63b8ff" points="61.18,-26.03 68.28,-18.16 57.82,-19.89 61.18,-26.03"/>
</a>
</g>
</g>
<!-- Node3&#45;&gt;Node2 -->
<g id="edge3_Node000003_Node000002" class="edge">
<title>Node3&#45;&gt;Node2</title>
<g id="a_edge3_Node000003_Node000002"><a xlink:title=" ">
<path fill="none" stroke="#63b8ff" d="M103.68,-54.47C114.97,-59.74 130.01,-66.76 142.49,-72.59"/>
<polygon fill="#63b8ff" stroke="#63b8ff" points="140.71,-76.09 151.25,-77.15 143.67,-69.74 140.71,-76.09"/>
</a>
</g>
</g>
<!-- Node4 -->
<g id="Node000004" class="node">
<title>Node4</title>
<g id="a_Node000004"><a xlink:href="../../d9/dcc/prim_8c.html#a72ec66b10f86d67064d34f2b2717fdfc" target="_top" xlink:title="Finds index of minimum element in edge list for an arbitrary vertex.">
<polygon fill="white" stroke="#666666" points="195,-56.25 139.25,-56.25 139.25,-37 195,-37 195,-56.25"/>
<text text-anchor="middle" x="167.12" y="-42.75" font-family="Helvetica,sans-Serif" font-size="10.00">minimum</text>
</a>
</g>
</g>
<!-- Node3&#45;&gt;Node4 -->
<g id="edge4_Node000003_Node000004" class="edge">
<title>Node3&#45;&gt;Node4</title>
<g id="a_edge4_Node000003_Node000004"><a xlink:title=" ">
<path fill="none" stroke="#63b8ff" d="M103.68,-46.62C110.9,-46.62 119.66,-46.62 128.29,-46.62"/>
<polygon fill="#63b8ff" stroke="#63b8ff" points="128.05,-50.13 138.05,-46.62 128.05,-43.13 128.05,-50.13"/>
</a>
</g>
</g>
<!-- Node6 -->
<g id="Node000006" class="node">
<title>Node6</title>
<g id="a_Node000006"><a xlink:href="../../de/dcf/rot13_8c.html#aff3bdb59af9eabba91420f23eb01718c" target="_top" xlink:title="for IO operations">
<polygon fill="white" stroke="#666666" points="186,-19.25 148.25,-19.25 148.25,0 186,0 186,-19.25"/>
<text text-anchor="middle" x="167.12" y="-5.75" font-family="Helvetica,sans-Serif" font-size="10.00">rot13</text>
</a>
</g>
</g>
<!-- Node5&#45;&gt;Node6 -->
<g id="edge6_Node000005_Node000006" class="edge">
<title>Node5&#45;&gt;Node6</title>
<g id="a_edge6_Node000005_Node000006"><a xlink:title=" ">
<path fill="none" stroke="#63b8ff" d="M102.53,-9.62C112.45,-9.62 125.57,-9.62 137.31,-9.62"/>
<polygon fill="#63b8ff" stroke="#63b8ff" points="137,-13.13 147,-9.62 137,-6.13 137,-13.13"/>
</a>
</g>
</g>
</g>
</svg>
