<?xml version="1.0" encoding="UTF-8" standalone="no"?>
<!DOCTYPE svg PUBLIC "-//W3C//DTD SVG 1.1//EN"
 "http://www.w3.org/Graphics/SVG/1.1/DTD/svg11.dtd">
<!-- Generated by graphviz version 8.0.2 (20230410.1723)
 -->
<!-- Title: user_graph Pages: 1 -->
<svg width="236pt" height="64pt"
 viewBox="0.00 0.00 236.00 64.00" xmlns="http://www.w3.org/2000/svg" xmlns:xlink="http://www.w3.org/1999/xlink">
<g id="graph0" class="graph" transform="scale(1 1) rotate(0) translate(4 60)">
<title>user_graph</title>
<!-- Node1 -->
<g id="node1" class="node">
<title>Node1</title>
<g id="a_node1"><a xlink:title="Function user_graph(); gets user input adj.">
<polygon fill="#999999" stroke="#666666" points="65,-38 0,-38 0,-19 65,-19 65,-38"/>
<text text-anchor="middle" x="32.5" y="-26" font-family="Helvetica,sans-Serif" font-size="10.00">user_graph</text>
</a>
</g>
</g>
<!-- Node2 -->
<g id="node2" class="node">
<title>Node2</title>
<g id="a_node2"><a xlink:href="../../d7/d3b/group__hash.html#ga049d44b5a4804ca5a1b7a290f3fa3202" target="_top" xlink:title="blake2b mixing function G">
<polygon fill="white" stroke="#666666" points="214.5,-56 185.5,-56 185.5,-37 214.5,-37 214.5,-56"/>
<text text-anchor="middle" x="200" y="-44" font-family="Helvetica,sans-Serif" font-size="10.00">G</text>
</a>
</g>
</g>
<!-- Node1&#45;&gt;Node2 -->
<g id="edge1" class="edge">
<title>Node1&#45;&gt;Node2</title>
<path fill="none" stroke="#63b8ff" d="M65.41,-31.97C97.28,-35.44 145.57,-40.69 174.52,-43.84"/>
<polygon fill="#63b8ff" stroke="#63b8ff" points="173.98,-47.41 184.3,-45.01 174.74,-40.45 173.98,-47.41"/>
</g>
<!-- Node3 -->
<g id="node3" class="node">
<title>Node3</title>
<g id="a_node3"><a xlink:href="../../d9/dcc/prim_8c.html#a0bea087eb586c437cf0a667f794c8853" target="_top" xlink:title="Used to find MST of user&#45;generated adj matrix G.">
<polygon fill="white" stroke="#666666" points="136,-19 101,-19 101,0 136,0 136,-19"/>
<text text-anchor="middle" x="118.5" y="-7" font-family="Helvetica,sans-Serif" font-size="10.00">prim</text>
</a>
</g>
</g>
<!-- Node1&#45;&gt;Node3 -->
<g id="edge2" class="edge">
<title>Node1&#45;&gt;Node3</title>
<path fill="none" stroke="#63b8ff" d="M65.26,-21.32C73.47,-19.46 82.23,-17.48 90.19,-15.68"/>
<polygon fill="#63b8ff" stroke="#63b8ff" points="90.79,-18.9 99.77,-13.28 89.24,-12.08 90.79,-18.9"/>
</g>
<!-- Node3&#45;&gt;Node2 -->
<g id="edge3" class="edge">
<title>Node3&#45;&gt;Node2</title>
<path fill="none" stroke="#63b8ff" d="M136.36,-17.35C147.68,-22.62 162.77,-29.64 175.29,-35.47"/>
<polygon fill="#63b8ff" stroke="#63b8ff" points="173.54,-38.97 184.08,-40.02 176.49,-32.63 173.54,-38.97"/>
</g>
<!-- Node4 -->
<g id="node4" class="node">
<title>Node4</title>
<g id="a_node4"><a xlink:href="../../d9/dcc/prim_8c.html#a72ec66b10f86d67064d34f2b2717fdfc" target="_top" xlink:title="Finds index of minimum element in edge list for an arbitrary vertex.">
<polygon fill="white" stroke="#666666" points="228,-19 172,-19 172,0 228,0 228,-19"/>
<text text-anchor="middle" x="200" y="-7" font-family="Helvetica,sans-Serif" font-size="10.00">minimum</text>
</a>
</g>
</g>
<!-- Node3&#45;&gt;Node4 -->
<g id="edge4" class="edge">
<title>Node3&#45;&gt;Node4</title>
<path fill="none" stroke="#63b8ff" d="M136.36,-9.5C143.46,-9.5 152.04,-9.5 160.53,-9.5"/>
<polygon fill="#63b8ff" stroke="#63b8ff" points="160.53,-13 170.53,-9.5 160.53,-6 160.53,-13"/>
</g>
</g>
</svg>
