<?xml version="1.0" encoding="UTF-8" standalone="no"?>
<!DOCTYPE svg PUBLIC "-//W3C//DTD SVG 1.1//EN"
 "http://www.w3.org/Graphics/SVG/1.1/DTD/svg11.dtd">
<!-- Generated by graphviz version 7.0.0 (20221023.0053)
 -->
<!-- Title: main Pages: 1 -->
<svg width="407pt" height="174pt"
 viewBox="0.00 0.00 407.00 174.00" xmlns="http://www.w3.org/2000/svg" xmlns:xlink="http://www.w3.org/1999/xlink">
<g id="graph0" class="graph" transform="scale(1 1) rotate(0) translate(4 170)">
<title>main</title>
<!-- Node1 -->
<g id="node1" class="node">
<title>Node1</title>
<g id="a_node1"><a xlink:title="Main function.">
<polygon fill="#999999" stroke="#666666" points="38,-64 0,-64 0,-45 38,-45 38,-64"/>
<text text-anchor="middle" x="19" y="-52" font-family="Helvetica,sans-Serif" font-size="10.00">main</text>
</a>
</g>
</g>
<!-- Node2 -->
<g id="node2" class="node">
<title>Node2</title>
<g id="a_node2"><a xlink:href="../../d1/dba/decimal__to__any__base_8c.html#aa8dca7b867074164d5f45b0f3851269d" target="_top" xlink:title="Self&#45;test implementations.">
<polygon fill="white" stroke="#666666" points="123,-88 90,-88 90,-69 123,-69 123,-88"/>
<text text-anchor="middle" x="106.5" y="-76" font-family="Helvetica,sans-Serif" font-size="10.00">test</text>
</a>
</g>
</g>
<!-- Node1&#45;&gt;Node2 -->
<g id="edge1" class="edge">
<title>Node1&#45;&gt;Node2</title>
<path fill="none" stroke="#63b8ff" d="M38.13,-59.59C49.96,-62.91 65.6,-67.3 78.84,-71.02"/>
<polygon fill="#63b8ff" stroke="#63b8ff" points="77.66,-74.32 88.24,-73.65 79.55,-67.58 77.66,-74.32"/>
</g>
<!-- Node7 -->
<g id="node7" class="node">
<title>Node7</title>
<g id="a_node7"><a xlink:href="../../d9/dcc/prim_8c.html#addac7a8c7bfd3e5573dad1f6aeff7768" target="_top" xlink:title="Function user_graph(); gets user input adj.">
<polygon fill="white" stroke="#666666" points="139,-46 74,-46 74,-27 139,-27 139,-46"/>
<text text-anchor="middle" x="106.5" y="-34" font-family="Helvetica,sans-Serif" font-size="10.00">user_graph</text>
</a>
</g>
</g>
<!-- Node1&#45;&gt;Node7 -->
<g id="edge8" class="edge">
<title>Node1&#45;&gt;Node7</title>
<path fill="none" stroke="#63b8ff" d="M38.13,-50.68C45.29,-49.18 53.84,-47.37 62.42,-45.57"/>
<polygon fill="#63b8ff" stroke="#63b8ff" points="63.03,-49.02 72.1,-43.53 61.59,-42.17 63.03,-49.02"/>
</g>
<!-- Node3 -->
<g id="node3" class="node">
<title>Node3</title>
<g id="a_node3"><a xlink:href="../../d1/dba/decimal__to__any__base_8c.html#a3e4a7cfc97a528faa4d6e5741461109c" target="_top" xlink:title="decimal_to_anybase ensure the validity of the parameters and convert any unsigned integers into any a...">
<polygon fill="white" stroke="#666666" points="281,-90 175,-90 175,-71 281,-71 281,-90"/>
<text text-anchor="middle" x="228" y="-78" font-family="Helvetica,sans-Serif" font-size="10.00">decimal_to_anybase</text>
</a>
</g>
</g>
<!-- Node2&#45;&gt;Node3 -->
<g id="edge2" class="edge">
<title>Node2&#45;&gt;Node3</title>
<path fill="none" stroke="#63b8ff" d="M123.12,-78.76C133.61,-78.94 148.19,-79.18 163.12,-79.43"/>
<polygon fill="#63b8ff" stroke="#63b8ff" points="162.97,-82.93 173.03,-79.6 163.09,-75.93 162.97,-82.93"/>
</g>
<!-- Node4 -->
<g id="node4" class="node">
<title>Node4</title>
<g id="a_node4"><a xlink:href="../../d1/dba/decimal__to__any__base_8c.html#a899b3a7e0f1fac5a465eac0d4b10d711" target="_top" xlink:title="Calculate the final length of the converted number.">
<polygon fill="white" stroke="#666666" points="396.5,-148 319.5,-148 319.5,-129 396.5,-129 396.5,-148"/>
<text text-anchor="middle" x="358" y="-136" font-family="Helvetica,sans-Serif" font-size="10.00">converted_len</text>
</a>
</g>
</g>
<!-- Node3&#45;&gt;Node4 -->
<g id="edge3" class="edge">
<title>Node3&#45;&gt;Node4</title>
<path fill="none" stroke="#63b8ff" d="M250.69,-90.39C268.49,-98.49 294.37,-110.26 317,-120.5 319.46,-121.61 322,-122.76 324.56,-123.92"/>
<polygon fill="#63b8ff" stroke="#63b8ff" points="323.05,-127.07 333.61,-127.99 325.93,-120.69 323.05,-127.07"/>
</g>
<!-- Node5 -->
<g id="node5" class="node">
<title>Node5</title>
<g id="a_node5"><a xlink:href="../../d1/dba/decimal__to__any__base_8c.html#a0c5ccb926a23bc0050f213ba3408e18d" target="_top" xlink:title="Convert positive decimal integer into anybase recursively.">
<polygon fill="white" stroke="#666666" points="389,-93 327,-93 327,-74 389,-74 389,-93"/>
<text text-anchor="middle" x="358" y="-81" font-family="Helvetica,sans-Serif" font-size="10.00">convertion</text>
</a>
</g>
</g>
<!-- Node3&#45;&gt;Node5 -->
<g id="edge5" class="edge">
<title>Node3&#45;&gt;Node5</title>
<path fill="none" stroke="#63b8ff" d="M281.43,-81.73C292.79,-82 304.65,-82.27 315.52,-82.53"/>
<polygon fill="#63b8ff" stroke="#63b8ff" points="315.26,-86.02 325.33,-82.76 315.42,-79.02 315.26,-86.02"/>
</g>
<!-- Node6 -->
<g id="node6" class="node">
<title>Node6</title>
<g id="a_node6"><a xlink:href="../../d1/dba/decimal__to__any__base_8c.html#ae071f62d704823751bf9a085bf0a1bd7" target="_top" xlink:title="for IO operations">
<polygon fill="white" stroke="#666666" points="399,-56 317,-56 317,-37 399,-37 399,-56"/>
<text text-anchor="middle" x="358" y="-44" font-family="Helvetica,sans-Serif" font-size="10.00">isbad_alphabet</text>
</a>
</g>
</g>
<!-- Node3&#45;&gt;Node6 -->
<g id="edge7" class="edge">
<title>Node3&#45;&gt;Node6</title>
<path fill="none" stroke="#63b8ff" d="M266.37,-70.57C279.53,-67.08 294.51,-63.1 308.46,-59.39"/>
<polygon fill="#63b8ff" stroke="#63b8ff" points="309.14,-62.84 317.9,-56.89 307.34,-56.07 309.14,-62.84"/>
</g>
<!-- Node4&#45;&gt;Node4 -->
<g id="edge4" class="edge">
<title>Node4&#45;&gt;Node4</title>
<path fill="none" stroke="#63b8ff" d="M337.65,-148.37C328.36,-156.94 335.15,-166 358,-166 370.5,-166 378.19,-163.29 381.07,-159.43"/>
<polygon fill="#63b8ff" stroke="#63b8ff" points="384.5,-158.71 378.71,-149.84 377.71,-160.38 384.5,-158.71"/>
</g>
<!-- Node5&#45;&gt;Node5 -->
<g id="edge6" class="edge">
<title>Node5&#45;&gt;Node5</title>
<path fill="none" stroke="#63b8ff" d="M337.65,-93.37C328.36,-101.94 335.15,-111 358,-111 370.5,-111 378.19,-108.29 381.07,-104.43"/>
<polygon fill="#63b8ff" stroke="#63b8ff" points="384.5,-103.71 378.71,-94.84 377.71,-105.38 384.5,-103.71"/>
</g>
<!-- Node8 -->
<g id="node8" class="node">
<title>Node8</title>
<g id="a_node8"><a xlink:href="../../d9/dcc/prim_8c.html#a0bea087eb586c437cf0a667f794c8853" target="_top" xlink:title="Used to find MST of user&#45;generated adj matrix G.">
<polygon fill="white" stroke="#666666" points="245.5,-37 210.5,-37 210.5,-18 245.5,-18 245.5,-37"/>
<text text-anchor="middle" x="228" y="-25" font-family="Helvetica,sans-Serif" font-size="10.00">prim</text>
</a>
</g>
</g>
<!-- Node7&#45;&gt;Node8 -->
<g id="edge9" class="edge">
<title>Node7&#45;&gt;Node8</title>
<path fill="none" stroke="#63b8ff" d="M139.21,-34.11C157.75,-32.72 180.95,-30.97 198.84,-29.62"/>
<polygon fill="#63b8ff" stroke="#63b8ff" points="199.04,-33.12 208.75,-28.87 198.51,-26.14 199.04,-33.12"/>
</g>
<!-- Node9 -->
<g id="node9" class="node">
<title>Node9</title>
<g id="a_node9"><a xlink:href="../../d9/dcc/prim_8c.html#a72ec66b10f86d67064d34f2b2717fdfc" target="_top" xlink:title="Finds index of minimum element in edge list for an arbitrary vertex.">
<polygon fill="white" stroke="#666666" points="386,-19 330,-19 330,0 386,0 386,-19"/>
<text text-anchor="middle" x="358" y="-7" font-family="Helvetica,sans-Serif" font-size="10.00">minimum</text>
</a>
</g>
</g>
<!-- Node8&#45;&gt;Node9 -->
<g id="edge10" class="edge">
<title>Node8&#45;&gt;Node9</title>
<path fill="none" stroke="#63b8ff" d="M246,-25.11C264.35,-22.53 294.19,-18.33 318.31,-14.94"/>
<polygon fill="#63b8ff" stroke="#63b8ff" points="318.7,-18.42 328.12,-13.56 317.73,-11.49 318.7,-18.42"/>
</g>
</g>
</svg>
