<?xml version="1.0" encoding="UTF-8" standalone="no"?>
<!DOCTYPE svg PUBLIC "-//W3C//DTD SVG 1.1//EN"
 "http://www.w3.org/Graphics/SVG/1.1/DTD/svg11.dtd">
<!-- Generated by graphviz version 9.0.0 (20230911.1827)
 -->
<!-- Title: user_graph Pages: 1 -->
<svg width="235pt" height="64pt"
 viewBox="0.00 0.00 234.50 64.25" xmlns="http://www.w3.org/2000/svg" xmlns:xlink="http://www.w3.org/1999/xlink">

<svg id="main" version="1.1" xmlns="http://www.w3.org/2000/svg" xmlns:xlink="http://www.w3.org/1999/xlink" xml:space="preserve" onload="init(evt)">
<style type="text/css"><![CDATA[
.node, .edge {opacity: 0.7;}
.node.selected, .edge.selected {opacity: 1;}
.edge:hover path { stroke: red; }
.edge:hover polygon { stroke: red; fill: red; }
]]></style>
<script type="application/ecmascript" xlink:href="../../svg.min.js"/>
<svg id="graph" class="graph">
<g id="graph0" class="graph" transform="scale(1 1) rotate(0) translate(4 60.25)">
<title>user_graph</title>
<!-- Node1 -->
<g id="Node000001" class="node">
<title>Node1</title>
<g id="a_Node000001"><a xlink:title="Function user_graph(); gets user input adj.">
<polygon fill="#999999" stroke="#666666" points="64,-38.25 0,-38.25 0,-19 64,-19 64,-38.25"/>
<text text-anchor="middle" x="32" y="-24.75" font-family="Helvetica,sans-Serif" font-size="10.00">user_graph</text>
</a>
</g>
</g>
<!-- Node2 -->
<g id="Node000002" class="node">
<title>Node2</title>
<g id="a_Node000002"><a xlink:href="../../d7/d3b/group__hash.html#ga049d44b5a4804ca5a1b7a290f3fa3202" target="_top" xlink:title="blake2b mixing function G">
<polygon fill="white" stroke="#666666" points="213.03,-56.25 184.22,-56.25 184.22,-37 213.03,-37 213.03,-56.25"/>
<text text-anchor="middle" x="198.62" y="-42.75" font-family="Helvetica,sans-Serif" font-size="10.00">G</text>
</a>
</g>
</g>
<!-- Node1&#45;&gt;Node2 -->
<g id="edge1_Node000001_Node000002" class="edge">
<title>Node1&#45;&gt;Node2</title>
<g id="a_edge1_Node000001_Node000002"><a xlink:title=" ">
<path fill="none" stroke="#63b8ff" d="M64.35,-32.05C95.86,-35.5 143.79,-40.74 172.77,-43.91"/>
<polygon fill="#63b8ff" stroke="#63b8ff" points="172.1,-47.35 182.42,-44.96 172.86,-40.4 172.1,-47.35"/>
</a>
</g>
</g>
<!-- Node3 -->
<g id="Node000003" class="node">
<title>Node3</title>
<g id="a_Node000003"><a xlink:href="../../d9/dcc/prim_8c.html#a0bea087eb586c437cf0a667f794c8853" target="_top" xlink:title="Used to find MST of user&#45;generated adj matrix G.">
<polygon fill="white" stroke="#666666" points="134.75,-19.25 100,-19.25 100,0 134.75,0 134.75,-19.25"/>
<text text-anchor="middle" x="117.38" y="-5.75" font-family="Helvetica,sans-Serif" font-size="10.00">prim</text>
</a>
</g>
</g>
<!-- Node1&#45;&gt;Node3 -->
<g id="edge2_Node000001_Node000003" class="edge">
<title>Node1&#45;&gt;Node3</title>
<g id="a_edge2_Node000001_Node000003"><a xlink:title=" ">
<path fill="none" stroke="#63b8ff" d="M64.05,-21.55C72.04,-19.73 80.59,-17.78 88.42,-16"/>
<polygon fill="#63b8ff" stroke="#63b8ff" points="89.12,-19.42 98.1,-13.79 87.57,-12.6 89.12,-19.42"/>
</a>
</g>
</g>
<!-- Node3&#45;&gt;Node2 -->
<g id="edge3_Node000003_Node000002" class="edge">
<title>Node3&#45;&gt;Node2</title>
<g id="a_edge3_Node000003_Node000002"><a xlink:title=" ">
<path fill="none" stroke="#63b8ff" d="M135.18,-17.47C146.36,-22.69 161.21,-29.62 173.62,-35.42"/>
<polygon fill="#63b8ff" stroke="#63b8ff" points="171.83,-38.45 182.38,-39.51 174.8,-32.1 171.83,-38.45"/>
</a>
</g>
</g>
<!-- Node4 -->
<g id="Node000004" class="node">
<title>Node4</title>
<g id="a_Node000004"><a xlink:href="../../d9/dcc/prim_8c.html#a72ec66b10f86d67064d34f2b2717fdfc" target="_top" xlink:title="Finds index of minimum element in edge list for an arbitrary vertex.">
<polygon fill="white" stroke="#666666" points="226.5,-19.25 170.75,-19.25 170.75,0 226.5,0 226.5,-19.25"/>
<text text-anchor="middle" x="198.62" y="-5.75" font-family="Helvetica,sans-Serif" font-size="10.00">minimum</text>
</a>
</g>
</g>
<!-- Node3&#45;&gt;Node4 -->
<g id="edge4_Node000003_Node000004" class="edge">
<title>Node3&#45;&gt;Node4</title>
<g id="a_edge4_Node000003_Node000004"><a xlink:title=" ">
<path fill="none" stroke="#63b8ff" d="M135.18,-9.62C142.24,-9.62 150.77,-9.62 159.22,-9.62"/>
<polygon fill="#63b8ff" stroke="#63b8ff" points="159.04,-13.13 169.04,-9.63 159.04,-6.13 159.04,-13.13"/>
</a>
</g>
</g>
</g>
</svg>
</svg>

<style type='text/css'>
<![CDATA[
[data-mouse-over-selected='false'] { opacity: 0.7; }
[data-mouse-over-selected='true']  { opacity: 1.0; }
]]>
</style>
<script type="application/ecmascript"><![CDATA[
document.addEventListener('DOMContentLoaded', (event) => {
  highlightEdges();
  highlightAdjacentNodes();
});
]]></script>
</svg>
