<?xml version="1.0" encoding="UTF-8" standalone="no"?>
<!DOCTYPE svg PUBLIC "-//W3C//DTD SVG 1.1//EN"
 "http://www.w3.org/Graphics/SVG/1.1/DTD/svg11.dtd">
<!-- Generated by graphviz version 8.0.2 (20230410.1723)
 -->
<!-- Title: main Pages: 1 -->
<svg width="313pt" height="125pt"
 viewBox="0.00 0.00 313.00 125.47" xmlns="http://www.w3.org/2000/svg" xmlns:xlink="http://www.w3.org/1999/xlink">
<g id="graph0" class="graph" transform="scale(1 1) rotate(0) translate(4 121.47)">
<title>main</title>
<!-- Node1 -->
<g id="node1" class="node">
<title>Node1</title>
<g id="a_node1"><a xlink:title="Main function.">
<polygon fill="#999999" stroke="#666666" points="38,-95 0,-95 0,-76 38,-76 38,-95"/>
<text text-anchor="middle" x="19" y="-83" font-family="Helvetica,sans-Serif" font-size="10.00">main</text>
</a>
</g>
</g>
<!-- Node2 -->
<g id="node2" class="node">
<title>Node2</title>
<g id="a_node2"><a xlink:href="../../d7/d3b/group__hash.html#ga049d44b5a4804ca5a1b7a290f3fa3202" target="_top" xlink:title="blake2b mixing function G">
<polygon fill="white" stroke="#666666" points="291.5,-57 262.5,-57 262.5,-38 291.5,-38 291.5,-57"/>
<text text-anchor="middle" x="277" y="-45" font-family="Helvetica,sans-Serif" font-size="10.00">G</text>
</a>
</g>
</g>
<!-- Node1&#45;&gt;Node2 -->
<g id="edge1" class="edge">
<title>Node1&#45;&gt;Node2</title>
<path fill="none" stroke="#63b8ff" d="M38.08,-93.59C48.38,-97.76 61.66,-102.39 74,-104.5 134.9,-114.9 155.35,-126.71 213,-104.5 233.32,-96.67 251.16,-78.91 262.62,-65.28"/>
<polygon fill="#63b8ff" stroke="#63b8ff" points="265.68,-68.06 269.19,-58.06 260.21,-63.69 265.68,-68.06"/>
</g>
<!-- Node3 -->
<g id="node3" class="node">
<title>Node3</title>
<g id="a_node3"><a xlink:href="../../de/dcf/rot13_8c.html#aa8dca7b867074164d5f45b0f3851269d" target="_top" xlink:title="Self&#45;test implementations.">
<polygon fill="white" stroke="#666666" points="123,-95 90,-95 90,-76 123,-76 123,-95"/>
<text text-anchor="middle" x="106.5" y="-83" font-family="Helvetica,sans-Serif" font-size="10.00">test</text>
</a>
</g>
</g>
<!-- Node1&#45;&gt;Node3 -->
<g id="edge2" class="edge">
<title>Node1&#45;&gt;Node3</title>
<path fill="none" stroke="#63b8ff" d="M38.13,-85.5C49.96,-85.5 65.6,-85.5 78.84,-85.5"/>
<polygon fill="#63b8ff" stroke="#63b8ff" points="78.69,-89 88.69,-85.5 78.69,-82 78.69,-89"/>
</g>
<!-- Node5 -->
<g id="node5" class="node">
<title>Node5</title>
<g id="a_node5"><a xlink:href="../../d9/dcc/prim_8c.html#addac7a8c7bfd3e5573dad1f6aeff7768" target="_top" xlink:title="Function user_graph(); gets user input adj.">
<polygon fill="white" stroke="#666666" points="139,-57 74,-57 74,-38 139,-38 139,-57"/>
<text text-anchor="middle" x="106.5" y="-45" font-family="Helvetica,sans-Serif" font-size="10.00">user_graph</text>
</a>
</g>
</g>
<!-- Node1&#45;&gt;Node5 -->
<g id="edge4" class="edge">
<title>Node1&#45;&gt;Node5</title>
<path fill="none" stroke="#63b8ff" d="M38.13,-77.44C48.29,-72.93 61.27,-67.16 73.11,-61.89"/>
<polygon fill="#63b8ff" stroke="#63b8ff" points="74.42,-64.7 82.13,-57.44 71.57,-58.3 74.42,-64.7"/>
</g>
<!-- Node4 -->
<g id="node4" class="node">
<title>Node4</title>
<g id="a_node4"><a xlink:href="../../de/dcf/rot13_8c.html#aff3bdb59af9eabba91420f23eb01718c" target="_top" xlink:title="for IO operations">
<polygon fill="white" stroke="#666666" points="213,-95 175,-95 175,-76 213,-76 213,-95"/>
<text text-anchor="middle" x="194" y="-83" font-family="Helvetica,sans-Serif" font-size="10.00">rot13</text>
</a>
</g>
</g>
<!-- Node3&#45;&gt;Node4 -->
<g id="edge3" class="edge">
<title>Node3&#45;&gt;Node4</title>
<path fill="none" stroke="#63b8ff" d="M123.18,-85.5C134.56,-85.5 150.27,-85.5 163.92,-85.5"/>
<polygon fill="#63b8ff" stroke="#63b8ff" points="163.75,-89 173.75,-85.5 163.75,-82 163.75,-89"/>
</g>
<!-- Node5&#45;&gt;Node2 -->
<g id="edge5" class="edge">
<title>Node5&#45;&gt;Node2</title>
<path fill="none" stroke="#63b8ff" d="M139.19,-47.5C171.85,-47.5 222.04,-47.5 251.69,-47.5"/>
<polygon fill="#63b8ff" stroke="#63b8ff" points="251.32,-51 261.32,-47.5 251.32,-44 251.32,-51"/>
</g>
<!-- Node6 -->
<g id="node6" class="node">
<title>Node6</title>
<g id="a_node6"><a xlink:href="../../d9/dcc/prim_8c.html#a0bea087eb586c437cf0a667f794c8853" target="_top" xlink:title="Used to find MST of user&#45;generated adj matrix G.">
<polygon fill="white" stroke="#666666" points="211.5,-19 176.5,-19 176.5,0 211.5,0 211.5,-19"/>
<text text-anchor="middle" x="194" y="-7" font-family="Helvetica,sans-Serif" font-size="10.00">prim</text>
</a>
</g>
</g>
<!-- Node5&#45;&gt;Node6 -->
<g id="edge6" class="edge">
<title>Node5&#45;&gt;Node6</title>
<path fill="none" stroke="#63b8ff" d="M129.96,-37.52C141.03,-32.6 154.45,-26.64 166.06,-21.48"/>
<polygon fill="#63b8ff" stroke="#63b8ff" points="167.37,-24.28 175.09,-17.02 164.53,-17.88 167.37,-24.28"/>
</g>
<!-- Node6&#45;&gt;Node2 -->
<g id="edge7" class="edge">
<title>Node6&#45;&gt;Node2</title>
<path fill="none" stroke="#63b8ff" d="M211.78,-17.37C223.56,-22.9 239.46,-30.36 252.49,-36.47"/>
<polygon fill="#63b8ff" stroke="#63b8ff" points="250.66,-39.95 261.2,-41.02 253.63,-33.61 250.66,-39.95"/>
</g>
<!-- Node7 -->
<g id="node7" class="node">
<title>Node7</title>
<g id="a_node7"><a xlink:href="../../d9/dcc/prim_8c.html#a72ec66b10f86d67064d34f2b2717fdfc" target="_top" xlink:title="Finds index of minimum element in edge list for an arbitrary vertex.">
<polygon fill="white" stroke="#666666" points="305,-19 249,-19 249,0 305,0 305,-19"/>
<text text-anchor="middle" x="277" y="-7" font-family="Helvetica,sans-Serif" font-size="10.00">minimum</text>
</a>
</g>
</g>
<!-- Node6&#45;&gt;Node7 -->
<g id="edge8" class="edge">
<title>Node6&#45;&gt;Node7</title>
<path fill="none" stroke="#63b8ff" d="M211.78,-9.5C219.36,-9.5 228.65,-9.5 237.78,-9.5"/>
<polygon fill="#63b8ff" stroke="#63b8ff" points="237.72,-13 247.72,-9.5 237.72,-6 237.72,-13"/>
</g>
</g>
</svg>
