<?xml version="1.0" encoding="UTF-8" standalone="no"?>
<!DOCTYPE svg PUBLIC "-//W3C//DTD SVG 1.1//EN"
 "http://www.w3.org/Graphics/SVG/1.1/DTD/svg11.dtd">
<!-- Generated by graphviz version 7.1.0 (20230121.1956)
 -->
<!-- Title: main Pages: 1 -->
<svg width="313pt" height="125pt"
 viewBox="0.00 0.00 313.00 125.47" xmlns="http://www.w3.org/2000/svg" xmlns:xlink="http://www.w3.org/1999/xlink">
<g id="graph0" class="graph" transform="scale(1 1) rotate(0) translate(4 121.47)">
<title>main</title>
<!-- Node1 -->
<g id="node1" class="node">
<title>Node1</title>
<g id="a_node1"><a xlink:title="Main function.">
<polygon fill="#999999" stroke="#666666" points="38,-95 0,-95 0,-76 38,-76 38,-95"/>
<text text-anchor="middle" x="19" y="-83" font-family="Helvetica,sans-Serif" font-size="10.00">main</text>
</a>
</g>
</g>
<!-- Node2 -->
<g id="node2" class="node">
<title>Node2</title>
<g id="a_node2"><a xlink:href="../../d7/d3b/group__hash.html#ga049d44b5a4804ca5a1b7a290f3fa3202" target="_top" xlink:title="blake2b mixing function G">
<polygon fill="white" stroke="#666666" points="291.5,-57 262.5,-57 262.5,-38 291.5,-38 291.5,-57"/>
<text text-anchor="middle" x="277" y="-45" font-family="Helvetica,sans-Serif" font-size="10.00">G</text>
</a>
</g>
</g>
<!-- Node1&#45;&gt;Node2 -->
<g id="edge1" class="edge">
<title>Node1&#45;&gt;Node2</title>
<path fill="none" stroke="#63b8ff" d="M38.08,-93.59C48.38,-97.76 61.66,-102.39 74,-104.5 134.9,-114.9 155.35,-126.71 213,-104.5 233.13,-96.75 250.82,-79.25 262.29,-65.67"/>
<polygon fill="#63b8ff" stroke="#63b8ff" points="264.72,-68.24 268.24,-58.25 259.26,-63.86 264.72,-68.24"/>
</g>
<!-- Node3 -->
<g id="node3" class="node">
<title>Node3</title>
<g id="a_node3"><a xlink:href="../../de/dcf/rot13_8c.html#aa8dca7b867074164d5f45b0f3851269d" target="_top" xlink:title="Self&#45;test implementations.">
<polygon fill="white" stroke="#666666" points="123,-95 90,-95 90,-76 123,-76 123,-95"/>
<text text-anchor="middle" x="106.5" y="-83" font-family="Helvetica,sans-Serif" font-size="10.00">test</text>
</a>
</g>
</g>
<!-- Node1&#45;&gt;Node3 -->
<g id="edge2" class="edge">
<title>Node1&#45;&gt;Node3</title>
<path fill="none" stroke="#63b8ff" d="M38.13,-85.5C49.84,-85.5 65.29,-85.5 78.44,-85.5"/>
<polygon fill="#63b8ff" stroke="#63b8ff" points="78.18,-89 88.18,-85.5 78.18,-82 78.18,-89"/>
</g>
<!-- Node5 -->
<g id="node5" class="node">
<title>Node5</title>
<g id="a_node5"><a xlink:href="../../d9/dcc/prim_8c.html#addac7a8c7bfd3e5573dad1f6aeff7768" target="_top" xlink:title="Function user_graph(); gets user input adj.">
<polygon fill="white" stroke="#666666" points="139,-57 74,-57 74,-38 139,-38 139,-57"/>
<text text-anchor="middle" x="106.5" y="-45" font-family="Helvetica,sans-Serif" font-size="10.00">user_graph</text>
</a>
</g>
</g>
<!-- Node1&#45;&gt;Node5 -->
<g id="edge4" class="edge">
<title>Node1&#45;&gt;Node5</title>
<path fill="none" stroke="#63b8ff" d="M38.13,-77.44C48.19,-72.97 61.01,-67.27 72.75,-62.05"/>
<polygon fill="#63b8ff" stroke="#63b8ff" points="74.03,-65.32 81.75,-58.06 71.19,-58.92 74.03,-65.32"/>
</g>
<!-- Node4 -->
<g id="node4" class="node">
<title>Node4</title>
<g id="a_node4"><a xlink:href="../../de/dcf/rot13_8c.html#aff3bdb59af9eabba91420f23eb01718c" target="_top" xlink:title="for IO operations">
<polygon fill="white" stroke="#666666" points="213,-95 175,-95 175,-76 213,-76 213,-95"/>
<text text-anchor="middle" x="194" y="-83" font-family="Helvetica,sans-Serif" font-size="10.00">rot13</text>
</a>
</g>
</g>
<!-- Node3&#45;&gt;Node4 -->
<g id="edge3" class="edge">
<title>Node3&#45;&gt;Node4</title>
<path fill="none" stroke="#63b8ff" d="M123.18,-85.5C134.44,-85.5 149.96,-85.5 163.51,-85.5"/>
<polygon fill="#63b8ff" stroke="#63b8ff" points="163.23,-89 173.23,-85.5 163.23,-82 163.23,-89"/>
</g>
<!-- Node5&#45;&gt;Node2 -->
<g id="edge5" class="edge">
<title>Node5&#45;&gt;Node2</title>
<path fill="none" stroke="#63b8ff" d="M139.19,-47.5C171.56,-47.5 221.15,-47.5 250.9,-47.5"/>
<polygon fill="#63b8ff" stroke="#63b8ff" points="250.81,-51 260.81,-47.5 250.81,-44 250.81,-51"/>
</g>
<!-- Node6 -->
<g id="node6" class="node">
<title>Node6</title>
<g id="a_node6"><a xlink:href="../../d9/dcc/prim_8c.html#a0bea087eb586c437cf0a667f794c8853" target="_top" xlink:title="Used to find MST of user&#45;generated adj matrix G.">
<polygon fill="white" stroke="#666666" points="211.5,-19 176.5,-19 176.5,0 211.5,0 211.5,-19"/>
<text text-anchor="middle" x="194" y="-7" font-family="Helvetica,sans-Serif" font-size="10.00">prim</text>
</a>
</g>
</g>
<!-- Node5&#45;&gt;Node6 -->
<g id="edge6" class="edge">
<title>Node5&#45;&gt;Node6</title>
<path fill="none" stroke="#63b8ff" d="M129.96,-37.52C140.91,-32.65 154.17,-26.76 165.7,-21.63"/>
<polygon fill="#63b8ff" stroke="#63b8ff" points="166.99,-24.89 174.71,-17.63 164.15,-18.49 166.99,-24.89"/>
</g>
<!-- Node6&#45;&gt;Node2 -->
<g id="edge7" class="edge">
<title>Node6&#45;&gt;Node2</title>
<path fill="none" stroke="#63b8ff" d="M211.78,-17.37C223.44,-22.84 239.14,-30.21 252.11,-36.29"/>
<polygon fill="#63b8ff" stroke="#63b8ff" points="250.29,-39.3 260.83,-40.38 253.26,-32.97 250.29,-39.3"/>
</g>
<!-- Node7 -->
<g id="node7" class="node">
<title>Node7</title>
<g id="a_node7"><a xlink:href="../../d9/dcc/prim_8c.html#a72ec66b10f86d67064d34f2b2717fdfc" target="_top" xlink:title="Finds index of minimum element in edge list for an arbitrary vertex.">
<polygon fill="white" stroke="#666666" points="305,-19 249,-19 249,0 305,0 305,-19"/>
<text text-anchor="middle" x="277" y="-7" font-family="Helvetica,sans-Serif" font-size="10.00">minimum</text>
</a>
</g>
</g>
<!-- Node6&#45;&gt;Node7 -->
<g id="edge8" class="edge">
<title>Node6&#45;&gt;Node7</title>
<path fill="none" stroke="#63b8ff" d="M211.78,-9.5C219.28,-9.5 228.44,-9.5 237.48,-9.5"/>
<polygon fill="#63b8ff" stroke="#63b8ff" points="237.2,-13 247.2,-9.5 237.2,-6 237.2,-13"/>
</g>
</g>
</svg>
