<?xml version="1.0" encoding="UTF-8" standalone="no"?>
<!DOCTYPE svg PUBLIC "-//W3C//DTD SVG 1.1//EN"
 "http://www.w3.org/Graphics/SVG/1.1/DTD/svg11.dtd">
<!-- Generated by graphviz version 8.0.5 (20230430.1635)
 -->
<!-- Title: numerical_methods/ode_semi_implicit_euler.c Pages: 1 -->
<svg width="244pt" height="94pt"
 viewBox="0.00 0.00 243.50 93.75" xmlns="http://www.w3.org/2000/svg" xmlns:xlink="http://www.w3.org/1999/xlink">
<g id="graph0" class="graph" transform="scale(1 1) rotate(0) translate(4 89.75)">
<title>numerical_methods/ode_semi_implicit_euler.c</title>
<!-- Node1 -->
<g id="node1" class="node">
<title>Node1</title>
<g id="a_node1"><a xlink:title="Solve a multivariable first order ordinary differential equation (ODEs) using semi implicit Euler met...">
<polygon fill="#999999" stroke="#666666" points="178.75,-85.75 59.25,-85.75 59.25,-55.25 178.75,-55.25 178.75,-85.75"/>
<text text-anchor="start" x="67.25" y="-72.25" font-family="Helvetica,sans-Serif" font-size="10.00">numerical_methods/ode</text>
<text text-anchor="middle" x="119" y="-61" font-family="Helvetica,sans-Serif" font-size="10.00">_semi_implicit_euler.c</text>
</a>
</g>
</g>
<!-- Node2 -->
<g id="node2" class="node">
<title>Node2</title>
<g id="a_node2"><a xlink:title=" ">
<polygon fill="#e0e0e0" stroke="#999999" points="46,-19.25 0,-19.25 0,0 46,0 46,-19.25"/>
<text text-anchor="middle" x="23" y="-5.75" font-family="Helvetica,sans-Serif" font-size="10.00">math.h</text>
</a>
</g>
</g>
<!-- Node1&#45;&gt;Node2 -->
<g id="edge1" class="edge">
<title>Node1&#45;&gt;Node2</title>
<path fill="none" stroke="#63b8ff" d="M95.27,-54.95C80.51,-45.9 61.6,-34.3 46.83,-25.24"/>
<polygon fill="#63b8ff" stroke="#63b8ff" points="49.15,-21.95 38.8,-19.7 45.49,-27.91 49.15,-21.95"/>
</g>
<!-- Node3 -->
<g id="node3" class="node">
<title>Node3</title>
<g id="a_node3"><a xlink:title=" ">
<polygon fill="#e0e0e0" stroke="#999999" points="109.62,-19.25 64.38,-19.25 64.38,0 109.62,0 109.62,-19.25"/>
<text text-anchor="middle" x="87" y="-5.75" font-family="Helvetica,sans-Serif" font-size="10.00">stdio.h</text>
</a>
</g>
</g>
<!-- Node1&#45;&gt;Node3 -->
<g id="edge2" class="edge">
<title>Node1&#45;&gt;Node3</title>
<path fill="none" stroke="#63b8ff" d="M111.09,-54.95C106.87,-47.19 101.64,-37.56 97.13,-29.26"/>
<polygon fill="#63b8ff" stroke="#63b8ff" points="99.78,-27.82 91.93,-20.7 93.63,-31.16 99.78,-27.82"/>
</g>
<!-- Node4 -->
<g id="node4" class="node">
<title>Node4</title>
<g id="a_node4"><a xlink:title=" ">
<polygon fill="#e0e0e0" stroke="#999999" points="174.75,-19.25 127.25,-19.25 127.25,0 174.75,0 174.75,-19.25"/>
<text text-anchor="middle" x="151" y="-5.75" font-family="Helvetica,sans-Serif" font-size="10.00">stdlib.h</text>
</a>
</g>
</g>
<!-- Node1&#45;&gt;Node4 -->
<g id="edge3" class="edge">
<title>Node1&#45;&gt;Node4</title>
<path fill="none" stroke="#63b8ff" d="M126.91,-54.95C131.13,-47.19 136.36,-37.56 140.87,-29.26"/>
<polygon fill="#63b8ff" stroke="#63b8ff" points="144.37,-31.16 146.07,-20.7 138.22,-27.82 144.37,-31.16"/>
</g>
<!-- Node5 -->
<g id="node5" class="node">
<title>Node5</title>
<g id="a_node5"><a xlink:title=" ">
<polygon fill="#e0e0e0" stroke="#999999" points="235.5,-19.25 192.5,-19.25 192.5,0 235.5,0 235.5,-19.25"/>
<text text-anchor="middle" x="214" y="-5.75" font-family="Helvetica,sans-Serif" font-size="10.00">time.h</text>
</a>
</g>
</g>
<!-- Node1&#45;&gt;Node5 -->
<g id="edge4" class="edge">
<title>Node1&#45;&gt;Node5</title>
<path fill="none" stroke="#63b8ff" d="M142.48,-54.95C157.09,-45.9 175.8,-34.3 190.42,-25.24"/>
<polygon fill="#63b8ff" stroke="#63b8ff" points="191.7,-27.94 198.35,-19.7 188.01,-21.99 191.7,-27.94"/>
</g>
</g>
</svg>
