<?xml version="1.0" encoding="UTF-8" standalone="no"?>
<!DOCTYPE svg PUBLIC "-//W3C//DTD SVG 1.1//EN"
 "http://www.w3.org/Graphics/SVG/1.1/DTD/svg11.dtd">
<!-- Generated by graphviz version 7.0.6 (20230106.0513)
 -->
<!-- Title: main Pages: 1 -->
<svg width="205pt" height="64pt"
 viewBox="0.00 0.00 205.00 64.00" xmlns="http://www.w3.org/2000/svg" xmlns:xlink="http://www.w3.org/1999/xlink">
<g id="graph0" class="graph" transform="scale(1 1) rotate(0) translate(4 60)">
<title>main</title>
<!-- Node1 -->
<g id="node1" class="node">
<title>Node1</title>
<g id="a_node1"><a xlink:title="Main function.">
<polygon fill="#999999" stroke="#666666" points="38,-37 0,-37 0,-18 38,-18 38,-37"/>
<text text-anchor="middle" x="19" y="-25" font-family="Helvetica,sans-Serif" font-size="10.00">main</text>
</a>
</g>
</g>
<!-- Node2 -->
<g id="node2" class="node">
<title>Node2</title>
<g id="a_node2"><a xlink:href="../../d6/d2e/cartesian__to__polar_8c.html#ae1a3968e7947464bee7714f6d43b7002" target="_top" xlink:title="Test implementation.">
<polygon fill="white" stroke="#666666" points="107,-37 74,-37 74,-18 107,-18 107,-37"/>
<text text-anchor="middle" x="90.5" y="-25" font-family="Helvetica,sans-Serif" font-size="10.00">test</text>
</a>
</g>
</g>
<!-- Node1&#45;&gt;Node2 -->
<g id="edge1" class="edge">
<title>Node1&#45;&gt;Node2</title>
<path fill="none" stroke="#63b8ff" d="M38.26,-27.5C45.72,-27.5 54.5,-27.5 62.66,-27.5"/>
<polygon fill="#63b8ff" stroke="#63b8ff" points="62.44,-31 72.44,-27.5 62.44,-24 62.44,-31"/>
</g>
<!-- Node3 -->
<g id="node3" class="node">
<title>Node3</title>
<g id="a_node3"><a xlink:href="../../d6/d2e/cartesian__to__polar_8c.html#a60e62b809ca9dcb1b20a140b30d30f60" target="_top" xlink:title="Generate a random number in the given limits.">
<polygon fill="white" stroke="#666666" points="197,-56 143,-56 143,-37 197,-37 197,-56"/>
<text text-anchor="middle" x="170" y="-44" font-family="Helvetica,sans-Serif" font-size="10.00">get_rand</text>
</a>
</g>
</g>
<!-- Node2&#45;&gt;Node3 -->
<g id="edge2" class="edge">
<title>Node2&#45;&gt;Node3</title>
<path fill="none" stroke="#63b8ff" d="M107.18,-31.34C114.26,-33.08 122.94,-35.21 131.54,-37.32"/>
<polygon fill="#63b8ff" stroke="#63b8ff" points="130.64,-40.7 141.19,-39.68 132.31,-33.9 130.64,-40.7"/>
</g>
<!-- Node4 -->
<g id="node4" class="node">
<title>Node4</title>
<g id="a_node4"><a xlink:href="../../d6/d2e/cartesian__to__polar_8c.html#afb80d77f0c994240309ccddcc9525e70" target="_top" xlink:title="Function to convert cartesian coordinates to polar.">
<polygon fill="white" stroke="#666666" points="195.5,-19 144.5,-19 144.5,0 195.5,0 195.5,-19"/>
<text text-anchor="middle" x="170" y="-7" font-family="Helvetica,sans-Serif" font-size="10.00">to_polar</text>
</a>
</g>
</g>
<!-- Node2&#45;&gt;Node4 -->
<g id="edge3" class="edge">
<title>Node2&#45;&gt;Node4</title>
<path fill="none" stroke="#63b8ff" d="M107.18,-23.86C114.73,-22.1 124.11,-19.93 133.27,-17.8"/>
<polygon fill="#63b8ff" stroke="#63b8ff" points="133.76,-21.28 142.71,-15.61 132.18,-14.46 133.76,-21.28"/>
</g>
</g>
</svg>
