<?xml version="1.0" encoding="UTF-8" standalone="no"?>
<!DOCTYPE svg PUBLIC "-//W3C//DTD SVG 1.1//EN"
 "http://www.w3.org/Graphics/SVG/1.1/DTD/svg11.dtd">
<!-- Generated by graphviz version 5.0.1 (20220820.1526)
 -->
<!-- Title: main Pages: 1 -->
<svg width="205pt" height="64pt"
 viewBox="0.00 0.00 205.00 64.00" xmlns="http://www.w3.org/2000/svg" xmlns:xlink="http://www.w3.org/1999/xlink">
<g id="graph0" class="graph" transform="scale(1 1) rotate(0) translate(4 60)">
<title>main</title>
<!-- Node1 -->
<g id="node1" class="node">
<title>Node1</title>
<g id="a_node1"><a xlink:title="Main function.">
<polygon fill="#999999" stroke="#666666" points="38,-37 0,-37 0,-18 38,-18 38,-37"/>
<text text-anchor="middle" x="19" y="-25" font-family="Helvetica,sans-Serif" font-size="10.00">main</text>
</a>
</g>
</g>
<!-- Node2 -->
<g id="node2" class="node">
<title>Node2</title>
<g id="a_node2"><a xlink:href="../../d6/d2e/cartesian__to__polar_8c.html#ae1a3968e7947464bee7714f6d43b7002" target="_top" xlink:title="Test implementation.">
<polygon fill="white" stroke="#666666" points="107,-37 74,-37 74,-18 107,-18 107,-37"/>
<text text-anchor="middle" x="90.5" y="-25" font-family="Helvetica,sans-Serif" font-size="10.00">test</text>
</a>
</g>
</g>
<!-- Node1&#45;&gt;Node2 -->
<g id="edge1" class="edge">
<title>Node1&#45;&gt;Node2</title>
<path fill="none" stroke="#63b8ff" d="M38.26,-27.5C46.07,-27.5 55.31,-27.5 63.79,-27.5"/>
<polygon fill="#63b8ff" stroke="#63b8ff" points="63.95,-31 73.95,-27.5 63.95,-24 63.95,-31"/>
</g>
<!-- Node3 -->
<g id="node3" class="node">
<title>Node3</title>
<g id="a_node3"><a xlink:href="../../d6/d2e/cartesian__to__polar_8c.html#a60e62b809ca9dcb1b20a140b30d30f60" target="_top" xlink:title="Generate a random number in the given limits.">
<polygon fill="white" stroke="#666666" points="197,-56 143,-56 143,-37 197,-37 197,-56"/>
<text text-anchor="middle" x="170" y="-44" font-family="Helvetica,sans-Serif" font-size="10.00">get_rand</text>
</a>
</g>
</g>
<!-- Node2&#45;&gt;Node3 -->
<g id="edge2" class="edge">
<title>Node2&#45;&gt;Node3</title>
<path fill="none" stroke="#63b8ff" d="M107.18,-31.34C114.72,-33.19 124.08,-35.49 133.23,-37.73"/>
<polygon fill="#63b8ff" stroke="#63b8ff" points="132.42,-41.14 142.96,-40.12 134.09,-34.34 132.42,-41.14"/>
</g>
<!-- Node4 -->
<g id="node4" class="node">
<title>Node4</title>
<g id="a_node4"><a xlink:href="../../d6/d2e/cartesian__to__polar_8c.html#afb80d77f0c994240309ccddcc9525e70" target="_top" xlink:title="Function to convert cartesian coordinates to polar.">
<polygon fill="white" stroke="#666666" points="195.5,-19 144.5,-19 144.5,0 195.5,0 195.5,-19"/>
<text text-anchor="middle" x="170" y="-7" font-family="Helvetica,sans-Serif" font-size="10.00">to_polar</text>
</a>
</g>
</g>
<!-- Node2&#45;&gt;Node4 -->
<g id="edge3" class="edge">
<title>Node2&#45;&gt;Node4</title>
<path fill="none" stroke="#63b8ff" d="M107.18,-23.86C115.13,-22.01 125.11,-19.69 134.71,-17.46"/>
<polygon fill="#63b8ff" stroke="#63b8ff" points="135.54,-20.86 144.49,-15.19 133.96,-14.05 135.54,-20.86"/>
</g>
</g>
</svg>
