<?xml version="1.0" encoding="UTF-8" standalone="no"?>
<!DOCTYPE svg PUBLIC "-//W3C//DTD SVG 1.1//EN"
 "http://www.w3.org/Graphics/SVG/1.1/DTD/svg11.dtd">
<!-- Generated by graphviz version 8.0.5 (20230430.1635)
 -->
<!-- Title: test Pages: 1 -->
<svg width="130pt" height="64pt"
 viewBox="0.00 0.00 130.00 64.25" xmlns="http://www.w3.org/2000/svg" xmlns:xlink="http://www.w3.org/1999/xlink">
<g id="graph0" class="graph" transform="scale(1 1) rotate(0) translate(4 60.25)">
<title>test</title>
<!-- Node1 -->
<g id="Node000001" class="node">
<title>Node1</title>
<g id="a_Node000001"><a xlink:title="Test implementation.">
<polygon fill="#999999" stroke="#666666" points="32.5,-37.25 0,-37.25 0,-18 32.5,-18 32.5,-37.25"/>
<text text-anchor="middle" x="16.25" y="-23.75" font-family="Helvetica,sans-Serif" font-size="10.00">test</text>
</a>
</g>
</g>
<!-- Node2 -->
<g id="Node000002" class="node">
<title>Node2</title>
<g id="a_Node000002"><a xlink:href="../../d6/d2e/cartesian__to__polar_8c.html#a60e62b809ca9dcb1b20a140b30d30f60" target="_top" xlink:title="Generate a random number in the given limits.">
<polygon fill="white" stroke="#666666" points="122,-56.25 68.5,-56.25 68.5,-37 122,-37 122,-56.25"/>
<text text-anchor="middle" x="95.25" y="-42.75" font-family="Helvetica,sans-Serif" font-size="10.00">get_rand</text>
</a>
</g>
</g>
<!-- Node1&#45;&gt;Node2 -->
<g id="edge1_Node000001_Node000002" class="edge">
<title>Node1&#45;&gt;Node2</title>
<g id="a_edge1_Node000001_Node000002"><a xlink:title=" ">
<path fill="none" stroke="#63b8ff" d="M32.83,-31.47C40.02,-33.24 48.88,-35.43 57.61,-37.58"/>
<polygon fill="#63b8ff" stroke="#63b8ff" points="56.53,-41.17 67.08,-40.17 58.21,-34.37 56.53,-41.17"/>
</a>
</g>
</g>
<!-- Node3 -->
<g id="Node000003" class="node">
<title>Node3</title>
<g id="a_Node000003"><a xlink:href="../../d6/d2e/cartesian__to__polar_8c.html#afb80d77f0c994240309ccddcc9525e70" target="_top" xlink:title="Function to convert cartesian coordinates to polar.">
<polygon fill="white" stroke="#666666" points="120.5,-19.25 70,-19.25 70,0 120.5,0 120.5,-19.25"/>
<text text-anchor="middle" x="95.25" y="-5.75" font-family="Helvetica,sans-Serif" font-size="10.00">to_polar</text>
</a>
</g>
</g>
<!-- Node1&#45;&gt;Node3 -->
<g id="edge2_Node000001_Node000003" class="edge">
<title>Node1&#45;&gt;Node3</title>
<g id="a_edge2_Node000001_Node000003"><a xlink:title=" ">
<path fill="none" stroke="#63b8ff" d="M32.83,-23.98C40.41,-22.21 49.86,-20 59.05,-17.85"/>
<polygon fill="#63b8ff" stroke="#63b8ff" points="59.65,-21.07 68.6,-15.39 58.06,-14.26 59.65,-21.07"/>
</a>
</g>
</g>
</g>
</svg>
