<?xml version="1.0" encoding="UTF-8" standalone="no"?>
<!DOCTYPE svg PUBLIC "-//W3C//DTD SVG 1.1//EN"
 "http://www.w3.org/Graphics/SVG/1.1/DTD/svg11.dtd">
<!-- Generated by graphviz version 8.0.2 (20230410.1723)
 -->
<!-- Title: client_server/udp_client.c Pages: 1 -->
<svg width="666pt" height="82pt"
 viewBox="0.00 0.00 665.50 82.00" xmlns="http://www.w3.org/2000/svg" xmlns:xlink="http://www.w3.org/1999/xlink">
<g id="graph0" class="graph" transform="scale(1 1) rotate(0) translate(4 78)">
<title>client_server/udp_client.c</title>
<!-- Node1 -->
<g id="node1" class="node">
<title>Node1</title>
<g id="a_node1"><a xlink:title="Client side implementation of UDP client&#45;server model.">
<polygon fill="#999999" stroke="#666666" points="420,-74 292,-74 292,-55 420,-55 420,-74"/>
<text text-anchor="middle" x="356" y="-62" font-family="Helvetica,sans-Serif" font-size="10.00">client_server/udp_client.c</text>
</a>
</g>
</g>
<!-- Node2 -->
<g id="node2" class="node">
<title>Node2</title>
<g id="a_node2"><a xlink:title=" ">
<polygon fill="#e0e0e0" stroke="#999999" points="62,-19 0,-19 0,0 62,0 62,-19"/>
<text text-anchor="middle" x="31" y="-7" font-family="Helvetica,sans-Serif" font-size="10.00">arpa/inet.h</text>
</a>
</g>
</g>
<!-- Node1&#45;&gt;Node2 -->
<g id="edge1" class="edge">
<title>Node1&#45;&gt;Node2</title>
<path fill="none" stroke="#63b8ff" d="M291.88,-54.51C236.38,-46.49 153.72,-34 72.78,-19.25"/>
<polygon fill="#63b8ff" stroke="#63b8ff" points="73.88,-15.71 63.41,-17.34 72.61,-22.59 73.88,-15.71"/>
</g>
<!-- Node3 -->
<g id="node3" class="node">
<title>Node3</title>
<g id="a_node3"><a xlink:title=" ">
<polygon fill="#e0e0e0" stroke="#999999" points="129.5,-19 80.5,-19 80.5,0 129.5,0 129.5,-19"/>
<text text-anchor="middle" x="105" y="-7" font-family="Helvetica,sans-Serif" font-size="10.00">netdb.h</text>
</a>
</g>
</g>
<!-- Node1&#45;&gt;Node3 -->
<g id="edge2" class="edge">
<title>Node1&#45;&gt;Node3</title>
<path fill="none" stroke="#63b8ff" d="M308.65,-54.55C266.72,-46.47 203.62,-33.91 140.39,-19.47"/>
<polygon fill="#63b8ff" stroke="#63b8ff" points="141.36,-15.87 130.83,-17.04 139.79,-22.69 141.36,-15.87"/>
</g>
<!-- Node4 -->
<g id="node4" class="node">
<title>Node4</title>
<g id="a_node4"><a xlink:title=" ">
<polygon fill="#e0e0e0" stroke="#999999" points="212.5,-19 147.5,-19 147.5,0 212.5,0 212.5,-19"/>
<text text-anchor="middle" x="180" y="-7" font-family="Helvetica,sans-Serif" font-size="10.00">netinet/in.h</text>
</a>
</g>
</g>
<!-- Node1&#45;&gt;Node4 -->
<g id="edge3" class="edge">
<title>Node1&#45;&gt;Node4</title>
<path fill="none" stroke="#63b8ff" d="M326.14,-54.51C296.98,-45.73 252.39,-32.3 220.13,-22.59"/>
<polygon fill="#63b8ff" stroke="#63b8ff" points="221.29,-18.98 210.71,-19.45 219.27,-25.68 221.29,-18.98"/>
</g>
<!-- Node5 -->
<g id="node5" class="node">
<title>Node5</title>
<g id="a_node5"><a xlink:title=" ">
<polygon fill="#e0e0e0" stroke="#999999" points="303.5,-19 230.5,-19 230.5,0 303.5,0 303.5,-19"/>
<text text-anchor="middle" x="267" y="-7" font-family="Helvetica,sans-Serif" font-size="10.00">sys/socket.h</text>
</a>
</g>
</g>
<!-- Node1&#45;&gt;Node5 -->
<g id="edge4" class="edge">
<title>Node1&#45;&gt;Node5</title>
<path fill="none" stroke="#63b8ff" d="M340.9,-54.51C327.27,-46.39 306.97,-34.3 291.09,-24.85"/>
<polygon fill="#63b8ff" stroke="#63b8ff" points="293.26,-21.47 282.87,-19.36 289.68,-27.48 293.26,-21.47"/>
</g>
<!-- Node6 -->
<g id="node6" class="node">
<title>Node6</title>
<g id="a_node6"><a xlink:title=" ">
<polygon fill="#e0e0e0" stroke="#999999" points="390,-19 322,-19 322,0 390,0 390,-19"/>
<text text-anchor="middle" x="356" y="-7" font-family="Helvetica,sans-Serif" font-size="10.00">sys/types.h</text>
</a>
</g>
</g>
<!-- Node1&#45;&gt;Node6 -->
<g id="edge5" class="edge">
<title>Node1&#45;&gt;Node6</title>
<path fill="none" stroke="#63b8ff" d="M356,-54.75C356,-48.11 356,-38.73 356,-30.31"/>
<polygon fill="#63b8ff" stroke="#63b8ff" points="359.5,-30.44 356,-20.44 352.5,-30.44 359.5,-30.44"/>
</g>
<!-- Node7 -->
<g id="node7" class="node">
<title>Node7</title>
<g id="a_node7"><a xlink:title=" ">
<polygon fill="#e0e0e0" stroke="#999999" points="459.5,-19 408.5,-19 408.5,0 459.5,0 459.5,-19"/>
<text text-anchor="middle" x="434" y="-7" font-family="Helvetica,sans-Serif" font-size="10.00">unistd.h</text>
</a>
</g>
</g>
<!-- Node1&#45;&gt;Node7 -->
<g id="edge6" class="edge">
<title>Node1&#45;&gt;Node7</title>
<path fill="none" stroke="#63b8ff" d="M369.23,-54.51C380.96,-46.54 398.3,-34.75 412.1,-25.38"/>
<polygon fill="#63b8ff" stroke="#63b8ff" points="413.66,-27.87 419.96,-19.36 409.73,-22.08 413.66,-27.87"/>
</g>
<!-- Node8 -->
<g id="node8" class="node">
<title>Node8</title>
<g id="a_node8"><a xlink:title=" ">
<polygon fill="#e0e0e0" stroke="#999999" points="524,-19 478,-19 478,0 524,0 524,-19"/>
<text text-anchor="middle" x="501" y="-7" font-family="Helvetica,sans-Serif" font-size="10.00">stdio.h</text>
</a>
</g>
</g>
<!-- Node1&#45;&gt;Node8 -->
<g id="edge7" class="edge">
<title>Node1&#45;&gt;Node8</title>
<path fill="none" stroke="#63b8ff" d="M380.6,-54.51C404.56,-45.75 441.17,-32.37 467.73,-22.66"/>
<polygon fill="#63b8ff" stroke="#63b8ff" points="468.53,-25.73 476.72,-19.01 466.13,-19.15 468.53,-25.73"/>
</g>
<!-- Node9 -->
<g id="node9" class="node">
<title>Node9</title>
<g id="a_node9"><a xlink:title=" ">
<polygon fill="#e0e0e0" stroke="#999999" points="590,-19 542,-19 542,0 590,0 590,-19"/>
<text text-anchor="middle" x="566" y="-7" font-family="Helvetica,sans-Serif" font-size="10.00">stdlib.h</text>
</a>
</g>
</g>
<!-- Node1&#45;&gt;Node9 -->
<g id="edge8" class="edge">
<title>Node1&#45;&gt;Node9</title>
<path fill="none" stroke="#63b8ff" d="M391.95,-54.53C425.56,-46.12 477.42,-33.12 531.39,-19.4"/>
<polygon fill="#63b8ff" stroke="#63b8ff" points="532.03,-22.59 540.85,-16.74 530.3,-15.81 532.03,-22.59"/>
</g>
<!-- Node10 -->
<g id="node10" class="node">
<title>Node10</title>
<g id="a_node10"><a xlink:title=" ">
<polygon fill="#e0e0e0" stroke="#999999" points="657.5,-19 608.5,-19 608.5,0 657.5,0 657.5,-19"/>
<text text-anchor="middle" x="633" y="-7" font-family="Helvetica,sans-Serif" font-size="10.00">string.h</text>
</a>
</g>
</g>
<!-- Node1&#45;&gt;Node10 -->
<g id="edge9" class="edge">
<title>Node1&#45;&gt;Node10</title>
<path fill="none" stroke="#63b8ff" d="M410.73,-54.51C457.79,-46.54 527.72,-34.15 597.82,-19.14"/>
<polygon fill="#63b8ff" stroke="#63b8ff" points="598.12,-22.44 607.16,-16.9 596.65,-15.59 598.12,-22.44"/>
</g>
</g>
</svg>
