<?xml version="1.0" encoding="UTF-8" standalone="no"?>
<!DOCTYPE svg PUBLIC "-//W3C//DTD SVG 1.1//EN"
 "http://www.w3.org/Graphics/SVG/1.1/DTD/svg11.dtd">
<!-- Generated by graphviz version 8.0.5 (20230430.1635)
 -->
<!-- Title: main Pages: 1 -->
<svg width="296pt" height="27pt"
 viewBox="0.00 0.00 296.25 27.25" xmlns="http://www.w3.org/2000/svg" xmlns:xlink="http://www.w3.org/1999/xlink">
<g id="graph0" class="graph" transform="scale(1 1) rotate(0) translate(4 23.25)">
<title>main</title>
<!-- Node1 -->
<g id="node1" class="node">
<title>Node1</title>
<g id="a_node1"><a xlink:title="Main function.">
<polygon fill="#999999" stroke="#666666" points="37,-19.25 0,-19.25 0,0 37,0 37,-19.25"/>
<text text-anchor="middle" x="18.5" y="-5.75" font-family="Helvetica,sans-Serif" font-size="10.00">main</text>
</a>
</g>
</g>
<!-- Node2 -->
<g id="node2" class="node">
<title>Node2</title>
<g id="a_node2"><a xlink:href="../../d0/df3/6_8c.html#aa8dca7b867074164d5f45b0f3851269d" target="_top" xlink:title="Self&#45;test implementations.">
<polygon fill="white" stroke="#666666" points="105.5,-19.25 73,-19.25 73,0 105.5,0 105.5,-19.25"/>
<text text-anchor="middle" x="89.25" y="-5.75" font-family="Helvetica,sans-Serif" font-size="10.00">test</text>
</a>
</g>
</g>
<!-- Node1&#45;&gt;Node2 -->
<g id="edge1" class="edge">
<title>Node1&#45;&gt;Node2</title>
<path fill="none" stroke="#63b8ff" d="M37.2,-9.62C44.67,-9.62 53.52,-9.62 61.73,-9.62"/>
<polygon fill="#63b8ff" stroke="#63b8ff" points="61.71,-13.13 71.71,-9.62 61.71,-6.13 61.71,-13.13"/>
</g>
<!-- Node3 -->
<g id="node3" class="node">
<title>Node3</title>
<g id="a_node3"><a xlink:href="../../d0/df3/6_8c.html#a109c3813445bcf97d154a671119deae9" target="_top" xlink:title="Self&#45;test implementations.">
<polygon fill="white" stroke="#666666" points="204,-19.25 141.5,-19.25 141.5,0 204,0 204,-19.25"/>
<text text-anchor="middle" x="172.75" y="-5.75" font-family="Helvetica,sans-Serif" font-size="10.00">testZigZag</text>
</a>
</g>
</g>
<!-- Node2&#45;&gt;Node3 -->
<g id="edge2" class="edge">
<title>Node2&#45;&gt;Node3</title>
<path fill="none" stroke="#63b8ff" d="M105.96,-9.62C112.99,-9.62 121.63,-9.62 130.32,-9.62"/>
<polygon fill="#63b8ff" stroke="#63b8ff" points="130.23,-13.13 140.23,-9.62 130.23,-6.13 130.23,-13.13"/>
</g>
<!-- Node4 -->
<g id="node4" class="node">
<title>Node4</title>
<g id="a_node4"><a xlink:href="../../d0/df3/6_8c.html#afdf3bfe2dc8aadac13c7e6d051d3bd5d" target="_top" xlink:title="for assert for unsigned int with fixed size">
<polygon fill="white" stroke="#666666" points="288.25,-19.25 240,-19.25 240,0 288.25,0 288.25,-19.25"/>
<text text-anchor="middle" x="264.12" y="-5.75" font-family="Helvetica,sans-Serif" font-size="10.00">convert</text>
</a>
</g>
</g>
<!-- Node3&#45;&gt;Node4 -->
<g id="edge3" class="edge">
<title>Node3&#45;&gt;Node4</title>
<path fill="none" stroke="#63b8ff" d="M204.26,-9.62C212.09,-9.62 220.58,-9.62 228.6,-9.62"/>
<polygon fill="#63b8ff" stroke="#63b8ff" points="228.52,-13.13 238.52,-9.62 228.52,-6.13 228.52,-13.13"/>
</g>
</g>
</svg>
