<?xml version="1.0" encoding="UTF-8" standalone="no"?>
<!DOCTYPE svg PUBLIC "-//W3C//DTD SVG 1.1//EN"
 "http://www.w3.org/Graphics/SVG/1.1/DTD/svg11.dtd">
<!-- Generated by graphviz version 5.0.1 (20220820.1526)
 -->
<!-- Title: main Pages: 1 -->
<svg width="299pt" height="27pt"
 viewBox="0.00 0.00 299.00 27.00" xmlns="http://www.w3.org/2000/svg" xmlns:xlink="http://www.w3.org/1999/xlink">
<g id="graph0" class="graph" transform="scale(1 1) rotate(0) translate(4 23)">
<title>main</title>
<!-- Node1 -->
<g id="node1" class="node">
<title>Node1</title>
<g id="a_node1"><a xlink:title="Main function.">
<polygon fill="#999999" stroke="#666666" points="38,-19 0,-19 0,0 38,0 38,-19"/>
<text text-anchor="middle" x="19" y="-7" font-family="Helvetica,sans-Serif" font-size="10.00">main</text>
</a>
</g>
</g>
<!-- Node2 -->
<g id="node2" class="node">
<title>Node2</title>
<g id="a_node2"><a xlink:href="../../d0/df3/6_8c.html#aa8dca7b867074164d5f45b0f3851269d" target="_top" xlink:title="Self&#45;test implementations.">
<polygon fill="white" stroke="#666666" points="107,-19 74,-19 74,0 107,0 107,-19"/>
<text text-anchor="middle" x="90.5" y="-7" font-family="Helvetica,sans-Serif" font-size="10.00">test</text>
</a>
</g>
</g>
<!-- Node1&#45;&gt;Node2 -->
<g id="edge1" class="edge">
<title>Node1&#45;&gt;Node2</title>
<path fill="none" stroke="#63b8ff" d="M38.26,-9.5C46.07,-9.5 55.31,-9.5 63.79,-9.5"/>
<polygon fill="#63b8ff" stroke="#63b8ff" points="63.95,-13 73.95,-9.5 63.95,-6 63.95,-13"/>
</g>
<!-- Node3 -->
<g id="node3" class="node">
<title>Node3</title>
<g id="a_node3"><a xlink:href="../../d0/df3/6_8c.html#a109c3813445bcf97d154a671119deae9" target="_top" xlink:title="Self&#45;test implementations.">
<polygon fill="white" stroke="#666666" points="206,-19 143,-19 143,0 206,0 206,-19"/>
<text text-anchor="middle" x="174.5" y="-7" font-family="Helvetica,sans-Serif" font-size="10.00">testZigZag</text>
</a>
</g>
</g>
<!-- Node2&#45;&gt;Node3 -->
<g id="edge2" class="edge">
<title>Node2&#45;&gt;Node3</title>
<path fill="none" stroke="#63b8ff" d="M107.31,-9.5C114.61,-9.5 123.66,-9.5 132.69,-9.5"/>
<polygon fill="#63b8ff" stroke="#63b8ff" points="132.79,-13 142.79,-9.5 132.79,-6 132.79,-13"/>
</g>
<!-- Node4 -->
<g id="node4" class="node">
<title>Node4</title>
<g id="a_node4"><a xlink:href="../../d0/df3/6_8c.html#afdf3bfe2dc8aadac13c7e6d051d3bd5d" target="_top" xlink:title="for assert for unsigned int with fixed size">
<polygon fill="white" stroke="#666666" points="291,-19 242,-19 242,0 291,0 291,-19"/>
<text text-anchor="middle" x="266.5" y="-7" font-family="Helvetica,sans-Serif" font-size="10.00">convert</text>
</a>
</g>
</g>
<!-- Node3&#45;&gt;Node4 -->
<g id="edge3" class="edge">
<title>Node3&#45;&gt;Node4</title>
<path fill="none" stroke="#63b8ff" d="M206.22,-9.5C214.38,-9.5 223.25,-9.5 231.57,-9.5"/>
<polygon fill="#63b8ff" stroke="#63b8ff" points="231.73,-13 241.73,-9.5 231.73,-6 231.73,-13"/>
</g>
</g>
</svg>
