<?xml version="1.0" encoding="UTF-8" standalone="no"?>
<!DOCTYPE svg PUBLIC "-//W3C//DTD SVG 1.1//EN"
 "http://www.w3.org/Graphics/SVG/1.1/DTD/svg11.dtd">
<!-- Generated by graphviz version 8.0.5 (20230430.1635)
 -->
<!-- Title: test Pages: 1 -->
<svg width="223pt" height="27pt"
 viewBox="0.00 0.00 223.25 27.25" xmlns="http://www.w3.org/2000/svg" xmlns:xlink="http://www.w3.org/1999/xlink">
<g id="graph0" class="graph" transform="scale(1 1) rotate(0) translate(4 23.25)">
<title>test</title>
<!-- Node1 -->
<g id="Node000001" class="node">
<title>Node1</title>
<g id="a_Node000001"><a xlink:title="Self&#45;test implementations.">
<polygon fill="#999999" stroke="#666666" points="32.5,-19.25 0,-19.25 0,0 32.5,0 32.5,-19.25"/>
<text text-anchor="middle" x="16.25" y="-5.75" font-family="Helvetica,sans-Serif" font-size="10.00">test</text>
</a>
</g>
</g>
<!-- Node2 -->
<g id="Node000002" class="node">
<title>Node2</title>
<g id="a_Node000002"><a xlink:href="../../d0/df3/6_8c.html#a109c3813445bcf97d154a671119deae9" target="_top" xlink:title="Self&#45;test implementations.">
<polygon fill="white" stroke="#666666" points="131,-19.25 68.5,-19.25 68.5,0 131,0 131,-19.25"/>
<text text-anchor="middle" x="99.75" y="-5.75" font-family="Helvetica,sans-Serif" font-size="10.00">testZigZag</text>
</a>
</g>
</g>
<!-- Node1&#45;&gt;Node2 -->
<g id="edge1_Node000001_Node000002" class="edge">
<title>Node1&#45;&gt;Node2</title>
<g id="a_edge1_Node000001_Node000002"><a xlink:title=" ">
<path fill="none" stroke="#63b8ff" d="M32.96,-9.62C39.99,-9.62 48.63,-9.62 57.32,-9.62"/>
<polygon fill="#63b8ff" stroke="#63b8ff" points="57.23,-13.13 67.23,-9.62 57.23,-6.13 57.23,-13.13"/>
</a>
</g>
</g>
<!-- Node3 -->
<g id="Node000003" class="node">
<title>Node3</title>
<g id="a_Node000003"><a xlink:href="../../d0/df3/6_8c.html#afdf3bfe2dc8aadac13c7e6d051d3bd5d" target="_top" xlink:title="for assert for unsigned int with fixed size">
<polygon fill="white" stroke="#666666" points="215.25,-19.25 167,-19.25 167,0 215.25,0 215.25,-19.25"/>
<text text-anchor="middle" x="191.12" y="-5.75" font-family="Helvetica,sans-Serif" font-size="10.00">convert</text>
</a>
</g>
</g>
<!-- Node2&#45;&gt;Node3 -->
<g id="edge2_Node000002_Node000003" class="edge">
<title>Node2&#45;&gt;Node3</title>
<g id="a_edge2_Node000002_Node000003"><a xlink:title=" ">
<path fill="none" stroke="#63b8ff" d="M131.26,-9.62C139.09,-9.62 147.58,-9.62 155.6,-9.62"/>
<polygon fill="#63b8ff" stroke="#63b8ff" points="155.52,-13.13 165.52,-9.62 155.52,-6.13 155.52,-13.13"/>
</a>
</g>
</g>
</g>
</svg>
