<?xml version="1.0" encoding="UTF-8" standalone="no"?>
<!DOCTYPE svg PUBLIC "-//W3C//DTD SVG 1.1//EN"
 "http://www.w3.org/Graphics/SVG/1.1/DTD/svg11.dtd">
<!-- Generated by graphviz version 8.0.2 (20230410.1723)
 -->
<!-- Title: main Pages: 1 -->
<svg width="279pt" height="101pt"
 viewBox="0.00 0.00 279.00 101.00" xmlns="http://www.w3.org/2000/svg" xmlns:xlink="http://www.w3.org/1999/xlink">
<g id="graph0" class="graph" transform="scale(1 1) rotate(0) translate(4 97)">
<title>main</title>
<!-- Node1 -->
<g id="node1" class="node">
<title>Node1</title>
<g id="a_node1"><a xlink:title="Main function.">
<polygon fill="#999999" stroke="#666666" points="38,-56 0,-56 0,-37 38,-37 38,-56"/>
<text text-anchor="middle" x="19" y="-44" font-family="Helvetica,sans-Serif" font-size="10.00">main</text>
</a>
</g>
</g>
<!-- Node2 -->
<g id="node2" class="node">
<title>Node2</title>
<g id="a_node2"><a xlink:href="../../da/d4a/bisection__method_8c.html#aa8dca7b867074164d5f45b0f3851269d" target="_top" xlink:title="Self&#45;test implementations.">
<polygon fill="white" stroke="#666666" points="107,-56 74,-56 74,-37 107,-37 107,-56"/>
<text text-anchor="middle" x="90.5" y="-44" font-family="Helvetica,sans-Serif" font-size="10.00">test</text>
</a>
</g>
</g>
<!-- Node1&#45;&gt;Node2 -->
<g id="edge1" class="edge">
<title>Node1&#45;&gt;Node2</title>
<path fill="none" stroke="#63b8ff" d="M38.26,-46.5C45.89,-46.5 54.9,-46.5 63.23,-46.5"/>
<polygon fill="#63b8ff" stroke="#63b8ff" points="62.95,-50 72.95,-46.5 62.95,-43 62.95,-50"/>
</g>
<!-- Node3 -->
<g id="node3" class="node">
<title>Node3</title>
<g id="a_node3"><a xlink:href="../../da/d4a/bisection__method_8c.html#a2cc3091aa922139350e918ba04164421" target="_top" xlink:title="Root&#45;finding method for a continuous function given two values with opposite signs.">
<polygon fill="white" stroke="#666666" points="199,-56 143,-56 143,-37 199,-37 199,-56"/>
<text text-anchor="middle" x="171" y="-44" font-family="Helvetica,sans-Serif" font-size="10.00">bisection</text>
</a>
</g>
</g>
<!-- Node2&#45;&gt;Node3 -->
<g id="edge2" class="edge">
<title>Node2&#45;&gt;Node3</title>
<path fill="none" stroke="#63b8ff" d="M107.39,-46.5C114.5,-46.5 123.24,-46.5 131.89,-46.5"/>
<polygon fill="#63b8ff" stroke="#63b8ff" points="131.69,-50 141.69,-46.5 131.69,-43 131.69,-50"/>
</g>
<!-- Node4 -->
<g id="node4" class="node">
<title>Node4</title>
<g id="a_node4"><a xlink:href="../../d9/ddd/remote__command__exec__udp__client_8c.html#a7e15c8e2885871839fc2b820dfbdb4ce" target="_top" xlink:title="Utility function used to print an error message to stderr.">
<polygon fill="white" stroke="#666666" points="271,-93 235,-93 235,-74 271,-74 271,-93"/>
<text text-anchor="middle" x="253" y="-81" font-family="Helvetica,sans-Serif" font-size="10.00">error</text>
</a>
</g>
</g>
<!-- Node3&#45;&gt;Node4 -->
<g id="edge3" class="edge">
<title>Node3&#45;&gt;Node4</title>
<path fill="none" stroke="#63b8ff" d="M193.44,-56.42C203.09,-60.88 214.59,-66.2 224.84,-70.94"/>
<polygon fill="#63b8ff" stroke="#63b8ff" points="223,-74.41 233.55,-75.43 225.94,-68.05 223,-74.41"/>
</g>
<!-- Node5 -->
<g id="node5" class="node">
<title>Node5</title>
<g id="a_node5"><a xlink:href="../../da/d4a/bisection__method_8c.html#aba60904b56a5dce7e291d2f7d62e9782" target="_top" xlink:title="Continuous function for which we want to find the root.">
<polygon fill="white" stroke="#666666" points="270.5,-56 235.5,-56 235.5,-37 270.5,-37 270.5,-56"/>
<text text-anchor="middle" x="253" y="-44" font-family="Helvetica,sans-Serif" font-size="10.00">func</text>
</a>
</g>
</g>
<!-- Node3&#45;&gt;Node5 -->
<g id="edge4" class="edge">
<title>Node3&#45;&gt;Node5</title>
<path fill="none" stroke="#63b8ff" d="M199.08,-46.5C207.22,-46.5 216.15,-46.5 224.32,-46.5"/>
<polygon fill="#63b8ff" stroke="#63b8ff" points="224.21,-50 234.21,-46.5 224.2,-43 224.21,-50"/>
</g>
<!-- Node6 -->
<g id="node6" class="node">
<title>Node6</title>
<g id="a_node6"><a xlink:href="../../da/d4a/bisection__method_8c.html#a858396a5abdb7865e71cf803fdcb37ae" target="_top" xlink:title="Function to check if two input values have the same sign (the property of being positive or negative)">
<polygon fill="white" stroke="#666666" points="270.5,-19 235.5,-19 235.5,0 270.5,0 270.5,-19"/>
<text text-anchor="middle" x="253" y="-7" font-family="Helvetica,sans-Serif" font-size="10.00">sign</text>
</a>
</g>
</g>
<!-- Node3&#45;&gt;Node6 -->
<g id="edge5" class="edge">
<title>Node3&#45;&gt;Node6</title>
<path fill="none" stroke="#63b8ff" d="M193.44,-36.58C203.23,-32.06 214.92,-26.65 225.28,-21.86"/>
<polygon fill="#63b8ff" stroke="#63b8ff" points="226.46,-24.71 234.07,-17.33 223.52,-18.35 226.46,-24.71"/>
</g>
</g>
</svg>
