<?xml version="1.0" encoding="UTF-8" standalone="no"?>
<!DOCTYPE svg PUBLIC "-//W3C//DTD SVG 1.1//EN"
 "http://www.w3.org/Graphics/SVG/1.1/DTD/svg11.dtd">
<!-- Generated by graphviz version 9.0.0 (20230911.1827)
 -->
<!-- Title: main Pages: 1 -->
<svg width="276pt" height="101pt"
 viewBox="0.00 0.00 276.00 101.25" xmlns="http://www.w3.org/2000/svg" xmlns:xlink="http://www.w3.org/1999/xlink">

<svg id="main" version="1.1" xmlns="http://www.w3.org/2000/svg" xmlns:xlink="http://www.w3.org/1999/xlink" xml:space="preserve" onload="init(evt)">
<style type="text/css"><![CDATA[
.node, .edge {opacity: 0.7;}
.node.selected, .edge.selected {opacity: 1;}
.edge:hover path { stroke: red; }
.edge:hover polygon { stroke: red; fill: red; }
]]></style>
<script type="application/ecmascript" xlink:href="../../svg.min.js"/>
<svg id="graph" class="graph">
<g id="graph0" class="graph" transform="scale(1 1) rotate(0) translate(4 97.25)">
<title>main</title>
<!-- Node1 -->
<g id="Node000001" class="node">
<title>Node1</title>
<g id="a_Node000001"><a xlink:title="Main function.">
<polygon fill="#999999" stroke="#666666" points="37,-56.25 0,-56.25 0,-37 37,-37 37,-56.25"/>
<text text-anchor="middle" x="18.5" y="-42.75" font-family="Helvetica,sans-Serif" font-size="10.00">main</text>
</a>
</g>
</g>
<!-- Node2 -->
<g id="Node000002" class="node">
<title>Node2</title>
<g id="a_Node000002"><a xlink:href="../../da/d4a/bisection__method_8c.html#aa8dca7b867074164d5f45b0f3851269d" target="_top" xlink:title="Self&#45;test implementations.">
<polygon fill="white" stroke="#666666" points="105.5,-56.25 73,-56.25 73,-37 105.5,-37 105.5,-56.25"/>
<text text-anchor="middle" x="89.25" y="-42.75" font-family="Helvetica,sans-Serif" font-size="10.00">test</text>
</a>
</g>
</g>
<!-- Node1&#45;&gt;Node2 -->
<g id="edge1_Node000001_Node000002" class="edge">
<title>Node1&#45;&gt;Node2</title>
<g id="a_edge1_Node000001_Node000002"><a xlink:title=" ">
<path fill="none" stroke="#63b8ff" d="M37.2,-46.62C44.58,-46.62 53.31,-46.62 61.45,-46.62"/>
<polygon fill="#63b8ff" stroke="#63b8ff" points="61.2,-50.13 71.2,-46.63 61.2,-43.13 61.2,-50.13"/>
</a>
</g>
</g>
<!-- Node3 -->
<g id="Node000003" class="node">
<title>Node3</title>
<g id="a_Node000003"><a xlink:href="../../da/d4a/bisection__method_8c.html#a2cc3091aa922139350e918ba04164421" target="_top" xlink:title="Root&#45;finding method for a continuous function given two values with opposite signs.">
<polygon fill="white" stroke="#666666" points="196.5,-56.25 141.5,-56.25 141.5,-37 196.5,-37 196.5,-56.25"/>
<text text-anchor="middle" x="169" y="-42.75" font-family="Helvetica,sans-Serif" font-size="10.00">bisection</text>
</a>
</g>
</g>
<!-- Node2&#45;&gt;Node3 -->
<g id="edge2_Node000002_Node000003" class="edge">
<title>Node2&#45;&gt;Node3</title>
<g id="a_edge2_Node000002_Node000003"><a xlink:title=" ">
<path fill="none" stroke="#63b8ff" d="M105.98,-46.62C112.94,-46.62 121.45,-46.62 129.91,-46.62"/>
<polygon fill="#63b8ff" stroke="#63b8ff" points="129.75,-50.13 139.75,-46.63 129.75,-43.13 129.75,-50.13"/>
</a>
</g>
</g>
<!-- Node4 -->
<g id="Node000004" class="node">
<title>Node4</title>
<g id="a_Node000004"><a xlink:href="../../d9/ddd/remote__command__exec__udp__client_8c.html#a7e15c8e2885871839fc2b820dfbdb4ce" target="_top" xlink:title="Utility function used to print an error message to stderr.">
<polygon fill="white" stroke="#666666" points="268,-93.25 232.5,-93.25 232.5,-74 268,-74 268,-93.25"/>
<text text-anchor="middle" x="250.25" y="-79.75" font-family="Helvetica,sans-Serif" font-size="10.00">error</text>
</a>
</g>
</g>
<!-- Node3&#45;&gt;Node4 -->
<g id="edge3_Node000003_Node000004" class="edge">
<title>Node3&#45;&gt;Node4</title>
<g id="a_edge3_Node000003_Node000004"><a xlink:title=" ">
<path fill="none" stroke="#63b8ff" d="M191.66,-56.74C201.01,-61.1 212.06,-66.26 221.97,-70.89"/>
<polygon fill="#63b8ff" stroke="#63b8ff" points="220.23,-73.94 230.77,-75 223.19,-67.59 220.23,-73.94"/>
</a>
</g>
</g>
<!-- Node5 -->
<g id="Node000005" class="node">
<title>Node5</title>
<g id="a_Node000005"><a xlink:href="../../da/d4a/bisection__method_8c.html#aba60904b56a5dce7e291d2f7d62e9782" target="_top" xlink:title="Continuous function for which we want to find the root.">
<polygon fill="white" stroke="#666666" points="267.62,-56.25 232.88,-56.25 232.88,-37 267.62,-37 267.62,-56.25"/>
<text text-anchor="middle" x="250.25" y="-42.75" font-family="Helvetica,sans-Serif" font-size="10.00">func</text>
</a>
</g>
</g>
<!-- Node3&#45;&gt;Node5 -->
<g id="edge4_Node000003_Node000005" class="edge">
<title>Node3&#45;&gt;Node5</title>
<g id="a_edge4_Node000003_Node000005"><a xlink:title=" ">
<path fill="none" stroke="#63b8ff" d="M196.83,-46.62C204.7,-46.62 213.33,-46.62 221.27,-46.62"/>
<polygon fill="#63b8ff" stroke="#63b8ff" points="221.1,-50.13 231.1,-46.63 221.1,-43.13 221.1,-50.13"/>
</a>
</g>
</g>
<!-- Node6 -->
<g id="Node000006" class="node">
<title>Node6</title>
<g id="a_Node000006"><a xlink:href="../../da/d4a/bisection__method_8c.html#a858396a5abdb7865e71cf803fdcb37ae" target="_top" xlink:title="Function to check if two input values have the same sign (the property of being positive or negative)">
<polygon fill="white" stroke="#666666" points="267.25,-19.25 233.25,-19.25 233.25,0 267.25,0 267.25,-19.25"/>
<text text-anchor="middle" x="250.25" y="-5.75" font-family="Helvetica,sans-Serif" font-size="10.00">sign</text>
</a>
</g>
</g>
<!-- Node3&#45;&gt;Node6 -->
<g id="edge5_Node000003_Node000006" class="edge">
<title>Node3&#45;&gt;Node6</title>
<g id="a_edge5_Node000003_Node000006"><a xlink:title=" ">
<path fill="none" stroke="#63b8ff" d="M191.66,-36.51C201.21,-32.05 212.54,-26.76 222.61,-22.06"/>
<polygon fill="#63b8ff" stroke="#63b8ff" points="223.95,-25.3 231.53,-17.9 220.99,-18.96 223.95,-25.3"/>
</a>
</g>
</g>
</g>
</svg>
</svg>

<style type='text/css'>
<![CDATA[
[data-mouse-over-selected='false'] { opacity: 0.7; }
[data-mouse-over-selected='true']  { opacity: 1.0; }
]]>
</style>
<script type="application/ecmascript"><![CDATA[
document.addEventListener('DOMContentLoaded', (event) => {
  highlightEdges();
  highlightAdjacentNodes();
});
]]></script>
</svg>
