<?xml version="1.0" encoding="UTF-8" standalone="no"?>
<!DOCTYPE svg PUBLIC "-//W3C//DTD SVG 1.1//EN"
 "http://www.w3.org/Graphics/SVG/1.1/DTD/svg11.dtd">
<!-- Generated by graphviz version 8.0.2 (20230410.1723)
 -->
<!-- Title: bisection Pages: 1 -->
<svg width="136pt" height="101pt"
 viewBox="0.00 0.00 136.00 101.00" xmlns="http://www.w3.org/2000/svg" xmlns:xlink="http://www.w3.org/1999/xlink">
<g id="graph0" class="graph" transform="scale(1 1) rotate(0) translate(4 97)">
<title>bisection</title>
<!-- Node1 -->
<g id="node1" class="node">
<title>Node1</title>
<g id="a_node1"><a xlink:title="Root&#45;finding method for a continuous function given two values with opposite signs.">
<polygon fill="#999999" stroke="#666666" points="56,-56 0,-56 0,-37 56,-37 56,-56"/>
<text text-anchor="middle" x="28" y="-44" font-family="Helvetica,sans-Serif" font-size="10.00">bisection</text>
</a>
</g>
</g>
<!-- Node2 -->
<g id="node2" class="node">
<title>Node2</title>
<g id="a_node2"><a xlink:href="../../d9/ddd/remote__command__exec__udp__client_8c.html#a7e15c8e2885871839fc2b820dfbdb4ce" target="_top" xlink:title="Utility function used to print an error message to stderr.">
<polygon fill="white" stroke="#666666" points="128,-93 92,-93 92,-74 128,-74 128,-93"/>
<text text-anchor="middle" x="110" y="-81" font-family="Helvetica,sans-Serif" font-size="10.00">error</text>
</a>
</g>
</g>
<!-- Node1&#45;&gt;Node2 -->
<g id="edge1" class="edge">
<title>Node1&#45;&gt;Node2</title>
<path fill="none" stroke="#63b8ff" d="M50.44,-56.42C60.09,-60.88 71.59,-66.2 81.84,-70.94"/>
<polygon fill="#63b8ff" stroke="#63b8ff" points="80,-74.41 90.55,-75.43 82.94,-68.05 80,-74.41"/>
</g>
<!-- Node3 -->
<g id="node3" class="node">
<title>Node3</title>
<g id="a_node3"><a xlink:href="../../da/d4a/bisection__method_8c.html#aba60904b56a5dce7e291d2f7d62e9782" target="_top" xlink:title="Continuous function for which we want to find the root.">
<polygon fill="white" stroke="#666666" points="127.5,-56 92.5,-56 92.5,-37 127.5,-37 127.5,-56"/>
<text text-anchor="middle" x="110" y="-44" font-family="Helvetica,sans-Serif" font-size="10.00">func</text>
</a>
</g>
</g>
<!-- Node1&#45;&gt;Node3 -->
<g id="edge2" class="edge">
<title>Node1&#45;&gt;Node3</title>
<path fill="none" stroke="#63b8ff" d="M56.08,-46.5C64.22,-46.5 73.15,-46.5 81.32,-46.5"/>
<polygon fill="#63b8ff" stroke="#63b8ff" points="81.21,-50 91.21,-46.5 81.2,-43 81.21,-50"/>
</g>
<!-- Node4 -->
<g id="node4" class="node">
<title>Node4</title>
<g id="a_node4"><a xlink:href="../../da/d4a/bisection__method_8c.html#a858396a5abdb7865e71cf803fdcb37ae" target="_top" xlink:title="Function to check if two input values have the same sign (the property of being positive or negative)">
<polygon fill="white" stroke="#666666" points="127.5,-19 92.5,-19 92.5,0 127.5,0 127.5,-19"/>
<text text-anchor="middle" x="110" y="-7" font-family="Helvetica,sans-Serif" font-size="10.00">sign</text>
</a>
</g>
</g>
<!-- Node1&#45;&gt;Node4 -->
<g id="edge3" class="edge">
<title>Node1&#45;&gt;Node4</title>
<path fill="none" stroke="#63b8ff" d="M50.44,-36.58C60.23,-32.06 71.92,-26.65 82.28,-21.86"/>
<polygon fill="#63b8ff" stroke="#63b8ff" points="83.46,-24.71 91.07,-17.33 80.52,-18.35 83.46,-24.71"/>
</g>
</g>
</svg>
