<?xml version="1.0" encoding="UTF-8" standalone="no"?>
<!DOCTYPE svg PUBLIC "-//W3C//DTD SVG 1.1//EN"
 "http://www.w3.org/Graphics/SVG/1.1/DTD/svg11.dtd">
<!-- Generated by graphviz version 8.0.5 (20230430.1635)
 -->
<!-- Title: main Pages: 1 -->
<svg width="231pt" height="230pt"
 viewBox="0.00 0.00 230.75 230.25" xmlns="http://www.w3.org/2000/svg" xmlns:xlink="http://www.w3.org/1999/xlink">
<g id="graph0" class="graph" transform="scale(1 1) rotate(0) translate(4 226.25)">
<title>main</title>
<!-- Node1 -->
<g id="Node000001" class="node">
<title>Node1</title>
<g id="a_Node000001"><a xlink:title="Main function.">
<polygon fill="#999999" stroke="#666666" points="37,-120.25 0,-120.25 0,-101 37,-101 37,-120.25"/>
<text text-anchor="middle" x="18.5" y="-106.75" font-family="Helvetica,sans-Serif" font-size="10.00">main</text>
</a>
</g>
</g>
<!-- Node2 -->
<g id="Node000002" class="node">
<title>Node2</title>
<g id="a_Node000002"><a xlink:href="../../d5/d24/dynamic__stack_8c.html#aa8dca7b867074164d5f45b0f3851269d" target="_top" xlink:title="Self&#45;test implementations.">
<polygon fill="white" stroke="#666666" points="105.5,-120.25 73,-120.25 73,-101 105.5,-101 105.5,-120.25"/>
<text text-anchor="middle" x="89.25" y="-106.75" font-family="Helvetica,sans-Serif" font-size="10.00">test</text>
</a>
</g>
</g>
<!-- Node1&#45;&gt;Node2 -->
<g id="edge1_Node000001_Node000002" class="edge">
<title>Node1&#45;&gt;Node2</title>
<g id="a_edge1_Node000001_Node000002"><a xlink:title=" ">
<path fill="none" stroke="#63b8ff" d="M37.2,-110.62C44.67,-110.62 53.52,-110.62 61.73,-110.62"/>
<polygon fill="#63b8ff" stroke="#63b8ff" points="61.71,-114.13 71.71,-110.62 61.71,-107.13 61.71,-114.13"/>
</a>
</g>
</g>
<!-- Node3 -->
<g id="Node000003" class="node">
<title>Node3</title>
<g id="a_Node000003"><a xlink:href="../../d5/d24/dynamic__stack_8c.html#ab628a00140af56945b3f514cef0b3da0" target="_top" xlink:title="Create a Stack object.">
<polygon fill="white" stroke="#666666" points="218.25,-222.25 146,-222.25 146,-203 218.25,-203 218.25,-222.25"/>
<text text-anchor="middle" x="182.12" y="-208.75" font-family="Helvetica,sans-Serif" font-size="10.00">create_stack</text>
</a>
</g>
</g>
<!-- Node2&#45;&gt;Node3 -->
<g id="edge2_Node000002_Node000003" class="edge">
<title>Node2&#45;&gt;Node3</title>
<g id="a_edge2_Node000002_Node000003"><a xlink:title=" ">
<path fill="none" stroke="#63b8ff" d="M93.98,-120.48C100.91,-137.64 117.33,-173.22 141.5,-194.62 142.38,-195.4 143.29,-196.15 144.24,-196.87"/>
<polygon fill="#63b8ff" stroke="#63b8ff" points="142.06,-200.27 152.39,-202.63 145.79,-194.34 142.06,-200.27"/>
</a>
</g>
</g>
<!-- Node4 -->
<g id="Node000004" class="node">
<title>Node4</title>
<g id="a_Node000004"><a xlink:href="../../d5/d24/dynamic__stack_8c.html#a0eebbddad64a35d337093293466e26a1" target="_top" xlink:title="The function is used to check whether the stack is empty or not and return true or false accordingly.">
<polygon fill="white" stroke="#666666" points="207.38,-185.25 156.88,-185.25 156.88,-166 207.38,-166 207.38,-185.25"/>
<text text-anchor="middle" x="182.12" y="-171.75" font-family="Helvetica,sans-Serif" font-size="10.00">isempty</text>
</a>
</g>
</g>
<!-- Node2&#45;&gt;Node4 -->
<g id="edge3_Node000002_Node000004" class="edge">
<title>Node2&#45;&gt;Node4</title>
<g id="a_edge3_Node000002_Node000004"><a xlink:title=" ">
<path fill="none" stroke="#63b8ff" d="M99.31,-120.62C109,-130.88 125.19,-146.84 141.5,-157.62 143.25,-158.78 145.08,-159.9 146.97,-160.97"/>
<polygon fill="#63b8ff" stroke="#63b8ff" points="145.1,-164.46 155.59,-165.94 148.31,-158.24 145.1,-164.46"/>
</a>
</g>
</g>
<!-- Node5 -->
<g id="Node000005" class="node">
<title>Node5</title>
<g id="a_Node000005"><a xlink:href="../../da/d96/infix__to__postfix2_8c.html#a312e7f6c761a199c1369fbe651e084f0" target="_top" xlink:title="Function to pop from the stack.">
<polygon fill="white" stroke="#666666" points="198,-148.25 166.25,-148.25 166.25,-129 198,-129 198,-148.25"/>
<text text-anchor="middle" x="182.12" y="-134.75" font-family="Helvetica,sans-Serif" font-size="10.00">pop</text>
</a>
</g>
</g>
<!-- Node2&#45;&gt;Node5 -->
<g id="edge4_Node000002_Node000005" class="edge">
<title>Node2&#45;&gt;Node5</title>
<g id="a_edge4_Node000002_Node000005"><a xlink:title=" ">
<path fill="none" stroke="#63b8ff" d="M105.67,-115.37C119.33,-119.58 139.54,-125.81 155.61,-130.76"/>
<polygon fill="#63b8ff" stroke="#63b8ff" points="154.35,-134.35 164.94,-133.95 156.41,-127.66 154.35,-134.35"/>
</a>
</g>
</g>
<!-- Node6 -->
<g id="Node000006" class="node">
<title>Node6</title>
<g id="a_Node000006"><a xlink:href="../../db/d0c/infix__to__postfix_8c.html#a613462735d30cae1b85b606ecab30554" target="_top" xlink:title="push function">
<polygon fill="white" stroke="#666666" points="200.62,-93.25 163.62,-93.25 163.62,-74 200.62,-74 200.62,-93.25"/>
<text text-anchor="middle" x="182.12" y="-79.75" font-family="Helvetica,sans-Serif" font-size="10.00">push</text>
</a>
</g>
</g>
<!-- Node2&#45;&gt;Node6 -->
<g id="edge5_Node000002_Node000006" class="edge">
<title>Node2&#45;&gt;Node6</title>
<g id="a_edge5_Node000002_Node000006"><a xlink:title=" ">
<path fill="none" stroke="#63b8ff" d="M105.67,-106.04C118.58,-102.21 137.37,-96.63 152.96,-91.99"/>
<polygon fill="#63b8ff" stroke="#63b8ff" points="153.54,-95.17 162.13,-88.97 151.55,-88.46 153.54,-95.17"/>
</a>
</g>
</g>
<!-- Node7 -->
<g id="Node000007" class="node">
<title>Node7</title>
<g id="a_Node000007"><a xlink:href="../../d5/d24/dynamic__stack_8c.html#a9fe3f4e1147dd49a0ad4ca8f0228827d" target="_top" xlink:title="To display the current capacity of the stack.">
<polygon fill="white" stroke="#666666" points="222.75,-56.25 141.5,-56.25 141.5,-37 222.75,-37 222.75,-56.25"/>
<text text-anchor="middle" x="182.12" y="-42.75" font-family="Helvetica,sans-Serif" font-size="10.00">show_capacity</text>
</a>
</g>
</g>
<!-- Node2&#45;&gt;Node7 -->
<g id="edge7_Node000002_Node000007" class="edge">
<title>Node2&#45;&gt;Node7</title>
<g id="a_edge7_Node000002_Node000007"><a xlink:title=" ">
<path fill="none" stroke="#63b8ff" d="M99.35,-100.86C109.07,-90.83 125.29,-75.22 141.5,-64.62 143.02,-63.63 144.61,-62.66 146.23,-61.73"/>
<polygon fill="#63b8ff" stroke="#63b8ff" points="147.54,-64.47 154.78,-56.74 144.3,-58.27 147.54,-64.47"/>
</a>
</g>
</g>
<!-- Node8 -->
<g id="Node000008" class="node">
<title>Node8</title>
<g id="a_Node000008"><a xlink:href="../../d5/d24/dynamic__stack_8c.html#ad46c93f9aac8431f73dc5e3a4413097e" target="_top" xlink:title="Used to get the size of the Stack or the number of elements present in the Stack.">
<polygon fill="white" stroke="#666666" points="213.75,-19.25 150.5,-19.25 150.5,0 213.75,0 213.75,-19.25"/>
<text text-anchor="middle" x="182.12" y="-5.75" font-family="Helvetica,sans-Serif" font-size="10.00">stack_size</text>
</a>
</g>
</g>
<!-- Node2&#45;&gt;Node8 -->
<g id="edge8_Node000002_Node000008" class="edge">
<title>Node2&#45;&gt;Node8</title>
<g id="a_edge8_Node000002_Node000008"><a xlink:title=" ">
<path fill="none" stroke="#63b8ff" d="M94.12,-100.62C101.17,-83.57 117.61,-48.67 141.5,-27.62 142.38,-26.85 143.3,-26.1 144.25,-25.39"/>
<polygon fill="#63b8ff" stroke="#63b8ff" points="145.8,-27.92 152.4,-19.64 142.07,-21.99 145.8,-27.92"/>
</a>
</g>
</g>
<!-- Node6&#45;&gt;Node6 -->
<g id="edge6_Node000006_Node000006" class="edge">
<title>Node6&#45;&gt;Node6</title>
<g id="a_edge6_Node000006_Node000006"><a xlink:title=" ">
<path fill="none" stroke="#63b8ff" d="M167.58,-93.54C160.95,-102.15 165.8,-111.25 182.12,-111.25 191.31,-111.25 196.86,-108.37 198.78,-104.32"/>
<polygon fill="#63b8ff" stroke="#63b8ff" points="202.02,-103.68 196.67,-94.54 195.15,-105.02 202.02,-103.68"/>
</a>
</g>
</g>
</g>
</svg>
