<?xml version="1.0" encoding="UTF-8" standalone="no"?>
<!DOCTYPE svg PUBLIC "-//W3C//DTD SVG 1.1//EN"
 "http://www.w3.org/Graphics/SVG/1.1/DTD/svg11.dtd">
<!-- Generated by graphviz version 2.49.3 (20211023.0002)
 -->
<!-- Title: merge_sort Pages: 1 -->
<svg width="156pt" height="66pt"
 viewBox="0.00 0.00 156.00 66.00" xmlns="http://www.w3.org/2000/svg" xmlns:xlink="http://www.w3.org/1999/xlink">
<g id="graph0" class="graph" transform="scale(1 1) rotate(0) translate(4 62)">
<title>merge_sort</title>
<polygon fill="white" stroke="transparent" points="-4,4 -4,-62 152,-62 152,4 -4,4"/>
<!-- Node1 -->
<g id="node1" class="node">
<title>Node1</title>
<g id="a_node1"><a xlink:title="Merge sort algorithm implementation.">
<polygon fill="#bfbfbf" stroke="black" points="0,-19.5 0,-38.5 67,-38.5 67,-19.5 0,-19.5"/>
<text text-anchor="middle" x="33.5" y="-26.5" font-family="Helvetica,sans-Serif" font-size="10.00">merge_sort</text>
</a>
</g>
</g>
<!-- Node1&#45;&gt;Node1 -->
<g id="edge2" class="edge">
<title>Node1&#45;&gt;Node1</title>
<path fill="none" stroke="midnightblue" d="M19.32,-38.76C12.42,-47.57 17.15,-57 33.5,-57 43.72,-57 49.4,-53.31 50.54,-48.4"/>
<polygon fill="midnightblue" stroke="midnightblue" points="53.88,-47.35 47.68,-38.76 47.16,-49.34 53.88,-47.35"/>
</g>
<!-- Node2 -->
<g id="node2" class="node">
<title>Node2</title>
<g id="a_node2"><a xlink:href="../../d5/d4c/group__sorting.html#ga8dc3ec66cb3350313fdb34bfd1674729" target="_top" xlink:title="Perform merge of segments.">
<polygon fill="white" stroke="black" points="103,-38.5 103,-57.5 148,-57.5 148,-38.5 103,-38.5"/>
<text text-anchor="middle" x="125.5" y="-45.5" font-family="Helvetica,sans-Serif" font-size="10.00">merge</text>
</a>
</g>
</g>
<!-- Node1&#45;&gt;Node2 -->
<g id="edge1" class="edge">
<title>Node1&#45;&gt;Node2</title>
<path fill="none" stroke="midnightblue" d="M67.25,-35.91C75.59,-37.67 84.53,-39.56 92.82,-41.31"/>
<polygon fill="midnightblue" stroke="midnightblue" points="92.36,-44.79 102.87,-43.43 93.8,-37.94 92.36,-44.79"/>
</g>
<!-- Node3 -->
<g id="node3" class="node">
<title>Node3</title>
<g id="a_node3"><a xlink:href="../../d5/d4c/group__sorting.html#ga4b9708d87be7a409eff20e5e7e8b43c8" target="_top" xlink:title="Swap two integer variables.">
<polygon fill="white" stroke="black" points="105.5,-0.5 105.5,-19.5 145.5,-19.5 145.5,-0.5 105.5,-0.5"/>
<text text-anchor="middle" x="125.5" y="-7.5" font-family="Helvetica,sans-Serif" font-size="10.00">swap</text>
</a>
</g>
</g>
<!-- Node1&#45;&gt;Node3 -->
<g id="edge3" class="edge">
<title>Node1&#45;&gt;Node3</title>
<path fill="none" stroke="midnightblue" d="M67.25,-22.09C76.42,-20.15 86.33,-18.06 95.29,-16.17"/>
<polygon fill="midnightblue" stroke="midnightblue" points="96.2,-19.55 105.26,-14.06 94.76,-12.7 96.2,-19.55"/>
</g>
</g>
</svg>
