<?xml version="1.0" encoding="UTF-8" standalone="no"?>
<!DOCTYPE svg PUBLIC "-//W3C//DTD SVG 1.1//EN"
 "http://www.w3.org/Graphics/SVG/1.1/DTD/svg11.dtd">
<!-- Generated by graphviz version 3.0.0 (20220226.1711)
 -->
<!-- Title: client_server/remote_command_exec_udp_client.c Pages: 1 -->
<svg width="798pt" height="95pt"
 viewBox="0.00 0.00 797.50 95.00" xmlns="http://www.w3.org/2000/svg" xmlns:xlink="http://www.w3.org/1999/xlink">
<g id="graph0" class="graph" transform="scale(1 1) rotate(0) translate(4 91)">
<title>client_server/remote_command_exec_udp_client.c</title>
<polygon fill="white" stroke="transparent" points="-4,4 -4,-91 793.5,-91 793.5,4 -4,4"/>
<!-- Node1 -->
<g id="node1" class="node">
<title>Node1</title>
<g id="a_node1"><a xlink:title="Client&#45;side implementation of [Remote Command Execution Using UDP](https://www.imperva....">
<polygon fill="#bfbfbf" stroke="black" points="311.5,-56.5 311.5,-86.5 460.5,-86.5 460.5,-56.5 311.5,-56.5"/>
<text text-anchor="start" x="319.5" y="-74.5" font-family="Helvetica,sans-Serif" font-size="10.00">client_server/remote</text>
<text text-anchor="middle" x="386" y="-63.5" font-family="Helvetica,sans-Serif" font-size="10.00">_command_exec_udp_client.c</text>
</a>
</g>
</g>
<!-- Node2 -->
<g id="node2" class="node">
<title>Node2</title>
<g id="a_node2"><a xlink:title=" ">
<polygon fill="white" stroke="#bfbfbf" points="0,-0.5 0,-19.5 62,-19.5 62,-0.5 0,-0.5"/>
<text text-anchor="middle" x="31" y="-7.5" font-family="Helvetica,sans-Serif" font-size="10.00">arpa/inet.h</text>
</a>
</g>
</g>
<!-- Node1&#45;&gt;Node2 -->
<g id="edge1" class="edge">
<title>Node1&#45;&gt;Node2</title>
<path fill="none" stroke="midnightblue" d="M311.31,-59.87C249.71,-50.79 159.82,-36.84 72.49,-20.2"/>
<polygon fill="midnightblue" stroke="midnightblue" points="72.88,-16.71 62.4,-18.26 71.57,-23.58 72.88,-16.71"/>
</g>
<!-- Node3 -->
<g id="node3" class="node">
<title>Node3</title>
<g id="a_node3"><a xlink:title=" ">
<polygon fill="white" stroke="#bfbfbf" points="80.5,-0.5 80.5,-19.5 127.5,-19.5 127.5,-0.5 80.5,-0.5"/>
<text text-anchor="middle" x="104" y="-7.5" font-family="Helvetica,sans-Serif" font-size="10.00">errno.h</text>
</a>
</g>
</g>
<!-- Node1&#45;&gt;Node3 -->
<g id="edge2" class="edge">
<title>Node1&#45;&gt;Node3</title>
<path fill="none" stroke="midnightblue" d="M311.29,-56.92C263.87,-47.95 201.03,-35.42 137.5,-20.24"/>
<polygon fill="midnightblue" stroke="midnightblue" points="138.26,-16.82 127.71,-17.88 136.62,-23.63 138.26,-16.82"/>
</g>
<!-- Node4 -->
<g id="node4" class="node">
<title>Node4</title>
<g id="a_node4"><a xlink:title=" ">
<polygon fill="white" stroke="#bfbfbf" points="145.5,-0.5 145.5,-19.5 194.5,-19.5 194.5,-0.5 145.5,-0.5"/>
<text text-anchor="middle" x="170" y="-7.5" font-family="Helvetica,sans-Serif" font-size="10.00">netdb.h</text>
</a>
</g>
</g>
<!-- Node1&#45;&gt;Node4 -->
<g id="edge3" class="edge">
<title>Node1&#45;&gt;Node4</title>
<path fill="none" stroke="midnightblue" d="M335.08,-56.47C294.79,-45.37 239.61,-30.17 204.37,-20.47"/>
<polygon fill="midnightblue" stroke="midnightblue" points="205.13,-17.05 194.56,-17.76 203.27,-23.79 205.13,-17.05"/>
</g>
<!-- Node5 -->
<g id="node5" class="node">
<title>Node5</title>
<g id="a_node5"><a xlink:title=" ">
<polygon fill="white" stroke="#bfbfbf" points="212.5,-0.5 212.5,-19.5 277.5,-19.5 277.5,-0.5 212.5,-0.5"/>
<text text-anchor="middle" x="245" y="-7.5" font-family="Helvetica,sans-Serif" font-size="10.00">netinet/in.h</text>
</a>
</g>
</g>
<!-- Node1&#45;&gt;Node5 -->
<g id="edge4" class="edge">
<title>Node1&#45;&gt;Node5</title>
<path fill="none" stroke="midnightblue" d="M352.58,-56.4C329.03,-46.46 297.76,-33.26 275.01,-23.66"/>
<polygon fill="midnightblue" stroke="midnightblue" points="276.09,-20.32 265.52,-19.66 273.37,-26.77 276.09,-20.32"/>
</g>
<!-- Node6 -->
<g id="node6" class="node">
<title>Node6</title>
<g id="a_node6"><a xlink:title=" ">
<polygon fill="white" stroke="#bfbfbf" points="295.5,-0.5 295.5,-19.5 344.5,-19.5 344.5,-0.5 295.5,-0.5"/>
<text text-anchor="middle" x="320" y="-7.5" font-family="Helvetica,sans-Serif" font-size="10.00">stdint.h</text>
</a>
</g>
</g>
<!-- Node1&#45;&gt;Node6 -->
<g id="edge5" class="edge">
<title>Node1&#45;&gt;Node6</title>
<path fill="none" stroke="midnightblue" d="M370.36,-56.4C360.37,-47.4 347.42,-35.72 337.15,-26.47"/>
<polygon fill="midnightblue" stroke="midnightblue" points="339.37,-23.75 329.6,-19.66 334.69,-28.95 339.37,-23.75"/>
</g>
<!-- Node7 -->
<g id="node7" class="node">
<title>Node7</title>
<g id="a_node7"><a xlink:title=" ">
<polygon fill="white" stroke="#bfbfbf" points="363,-0.5 363,-19.5 409,-19.5 409,-0.5 363,-0.5"/>
<text text-anchor="middle" x="386" y="-7.5" font-family="Helvetica,sans-Serif" font-size="10.00">stdio.h</text>
</a>
</g>
</g>
<!-- Node1&#45;&gt;Node7 -->
<g id="edge6" class="edge">
<title>Node1&#45;&gt;Node7</title>
<path fill="none" stroke="midnightblue" d="M386,-56.4C386,-48.47 386,-38.46 386,-29.86"/>
<polygon fill="midnightblue" stroke="midnightblue" points="389.5,-29.66 386,-19.66 382.5,-29.66 389.5,-29.66"/>
</g>
<!-- Node8 -->
<g id="node8" class="node">
<title>Node8</title>
<g id="a_node8"><a xlink:title=" ">
<polygon fill="white" stroke="#bfbfbf" points="427,-0.5 427,-19.5 475,-19.5 475,-0.5 427,-0.5"/>
<text text-anchor="middle" x="451" y="-7.5" font-family="Helvetica,sans-Serif" font-size="10.00">stdlib.h</text>
</a>
</g>
</g>
<!-- Node1&#45;&gt;Node8 -->
<g id="edge7" class="edge">
<title>Node1&#45;&gt;Node8</title>
<path fill="none" stroke="midnightblue" d="M401.4,-56.4C411.24,-47.4 423.99,-35.72 434.11,-26.47"/>
<polygon fill="midnightblue" stroke="midnightblue" points="436.53,-28.99 441.54,-19.66 431.8,-23.83 436.53,-28.99"/>
</g>
<!-- Node9 -->
<g id="node9" class="node">
<title>Node9</title>
<g id="a_node9"><a xlink:title=" ">
<polygon fill="white" stroke="#bfbfbf" points="493.5,-0.5 493.5,-19.5 542.5,-19.5 542.5,-0.5 493.5,-0.5"/>
<text text-anchor="middle" x="518" y="-7.5" font-family="Helvetica,sans-Serif" font-size="10.00">string.h</text>
</a>
</g>
</g>
<!-- Node1&#45;&gt;Node9 -->
<g id="edge8" class="edge">
<title>Node1&#45;&gt;Node9</title>
<path fill="none" stroke="midnightblue" d="M417.28,-56.4C439.23,-46.51 468.34,-33.38 489.62,-23.79"/>
<polygon fill="midnightblue" stroke="midnightblue" points="491.11,-26.96 498.79,-19.66 488.24,-20.58 491.11,-26.96"/>
</g>
<!-- Node10 -->
<g id="node10" class="node">
<title>Node10</title>
<g id="a_node10"><a xlink:title=" ">
<polygon fill="white" stroke="#bfbfbf" points="560.5,-0.5 560.5,-19.5 633.5,-19.5 633.5,-0.5 560.5,-0.5"/>
<text text-anchor="middle" x="597" y="-7.5" font-family="Helvetica,sans-Serif" font-size="10.00">sys/socket.h</text>
</a>
</g>
</g>
<!-- Node1&#45;&gt;Node10 -->
<g id="edge9" class="edge">
<title>Node1&#45;&gt;Node10</title>
<path fill="none" stroke="midnightblue" d="M435.74,-56.47C472.77,-46.03 522.68,-31.96 557.12,-22.25"/>
<polygon fill="midnightblue" stroke="midnightblue" points="558.16,-25.59 566.83,-19.51 556.26,-18.85 558.16,-25.59"/>
</g>
<!-- Node11 -->
<g id="node11" class="node">
<title>Node11</title>
<g id="a_node11"><a xlink:title=" ">
<polygon fill="white" stroke="#bfbfbf" points="652,-0.5 652,-19.5 720,-19.5 720,-0.5 652,-0.5"/>
<text text-anchor="middle" x="686" y="-7.5" font-family="Helvetica,sans-Serif" font-size="10.00">sys/types.h</text>
</a>
</g>
</g>
<!-- Node1&#45;&gt;Node11 -->
<g id="edge10" class="edge">
<title>Node1&#45;&gt;Node11</title>
<path fill="none" stroke="midnightblue" d="M458.61,-56.48C507.69,-46.94 574.25,-33.9 641.77,-20.23"/>
<polygon fill="midnightblue" stroke="midnightblue" points="642.64,-23.63 651.74,-18.21 641.24,-16.77 642.64,-23.63"/>
</g>
<!-- Node12 -->
<g id="node12" class="node">
<title>Node12</title>
<g id="a_node12"><a xlink:title=" ">
<polygon fill="white" stroke="#bfbfbf" points="738.5,-0.5 738.5,-19.5 789.5,-19.5 789.5,-0.5 738.5,-0.5"/>
<text text-anchor="middle" x="764" y="-7.5" font-family="Helvetica,sans-Serif" font-size="10.00">unistd.h</text>
</a>
</g>
</g>
<!-- Node1&#45;&gt;Node12 -->
<g id="edge11" class="edge">
<title>Node1&#45;&gt;Node12</title>
<path fill="none" stroke="midnightblue" d="M460.66,-61.81C528.09,-53.44 630.2,-39.46 728.36,-19.93"/>
<polygon fill="midnightblue" stroke="midnightblue" points="729.34,-23.3 738.46,-17.9 727.96,-16.44 729.34,-23.3"/>
</g>
</g>
</svg>
