<?xml version="1.0" encoding="UTF-8" standalone="no"?>
<!DOCTYPE svg PUBLIC "-//W3C//DTD SVG 1.1//EN"
 "http://www.w3.org/Graphics/SVG/1.1/DTD/svg11.dtd">
<!-- Generated by graphviz version 6.0.1 (20220911.1526)
 -->
<!-- Title: client_server/remote_command_exec_udp_client.c Pages: 1 -->
<svg width="798pt" height="93pt"
 viewBox="0.00 0.00 797.50 93.00" xmlns="http://www.w3.org/2000/svg" xmlns:xlink="http://www.w3.org/1999/xlink">
<g id="graph0" class="graph" transform="scale(1 1) rotate(0) translate(4 89)">
<title>client_server/remote_command_exec_udp_client.c</title>
<!-- Node1 -->
<g id="node1" class="node">
<title>Node1</title>
<g id="a_node1"><a xlink:title="Client&#45;side implementation of [Remote Command Execution Using UDP](https://www.imperva....">
<polygon fill="#999999" stroke="#666666" points="460.5,-85 311.5,-85 311.5,-55 460.5,-55 460.5,-85"/>
<text text-anchor="start" x="319.5" y="-73" font-family="Helvetica,sans-Serif" font-size="10.00">client_server/remote</text>
<text text-anchor="middle" x="386" y="-62" font-family="Helvetica,sans-Serif" font-size="10.00">_command_exec_udp_client.c</text>
</a>
</g>
</g>
<!-- Node2 -->
<g id="node2" class="node">
<title>Node2</title>
<g id="a_node2"><a xlink:title=" ">
<polygon fill="#e0e0e0" stroke="#999999" points="62,-19 0,-19 0,0 62,0 62,-19"/>
<text text-anchor="middle" x="31" y="-7" font-family="Helvetica,sans-Serif" font-size="10.00">arpa/inet.h</text>
</a>
</g>
</g>
<!-- Node1&#45;&gt;Node2 -->
<g id="edge1" class="edge">
<title>Node1&#45;&gt;Node2</title>
<path fill="none" stroke="#63b8ff" d="M311.35,-58.27C249.78,-49.16 159.91,-35.28 72.5,-19.2"/>
<polygon fill="#63b8ff" stroke="#63b8ff" points="72.88,-15.71 62.41,-17.34 71.61,-22.6 72.88,-15.71"/>
</g>
<!-- Node3 -->
<g id="node3" class="node">
<title>Node3</title>
<g id="a_node3"><a xlink:title=" ">
<polygon fill="#e0e0e0" stroke="#999999" points="127.5,-19 80.5,-19 80.5,0 127.5,0 127.5,-19"/>
<text text-anchor="middle" x="104" y="-7" font-family="Helvetica,sans-Serif" font-size="10.00">errno.h</text>
</a>
</g>
</g>
<!-- Node1&#45;&gt;Node3 -->
<g id="edge2" class="edge">
<title>Node1&#45;&gt;Node3</title>
<path fill="none" stroke="#63b8ff" d="M311.35,-55.33C263.96,-46.36 201.12,-33.92 137.52,-19.25"/>
<polygon fill="#63b8ff" stroke="#63b8ff" points="138.26,-15.83 127.72,-16.98 136.67,-22.65 138.26,-15.83"/>
</g>
<!-- Node4 -->
<g id="node4" class="node">
<title>Node4</title>
<g id="a_node4"><a xlink:title=" ">
<polygon fill="#e0e0e0" stroke="#999999" points="194.5,-19 145.5,-19 145.5,0 194.5,0 194.5,-19"/>
<text text-anchor="middle" x="170" y="-7" font-family="Helvetica,sans-Serif" font-size="10.00">netdb.h</text>
</a>
</g>
</g>
<!-- Node1&#45;&gt;Node4 -->
<g id="edge3" class="edge">
<title>Node1&#45;&gt;Node4</title>
<path fill="none" stroke="#63b8ff" d="M334.26,-54.99C294.05,-44.1 239.4,-29.3 204.41,-19.82"/>
<polygon fill="#63b8ff" stroke="#63b8ff" points="205.22,-16.41 194.65,-17.18 203.39,-23.17 205.22,-16.41"/>
</g>
<!-- Node5 -->
<g id="node5" class="node">
<title>Node5</title>
<g id="a_node5"><a xlink:title=" ">
<polygon fill="#e0e0e0" stroke="#999999" points="277.5,-19 212.5,-19 212.5,0 277.5,0 277.5,-19"/>
<text text-anchor="middle" x="245" y="-7" font-family="Helvetica,sans-Serif" font-size="10.00">netinet/in.h</text>
</a>
</g>
</g>
<!-- Node1&#45;&gt;Node5 -->
<g id="edge4" class="edge">
<title>Node1&#45;&gt;Node5</title>
<path fill="none" stroke="#63b8ff" d="M352.23,-54.99C328.81,-45.27 297.88,-32.44 275.27,-23.06"/>
<polygon fill="#63b8ff" stroke="#63b8ff" points="276.4,-19.74 265.82,-19.14 273.72,-26.2 276.4,-19.74"/>
</g>
<!-- Node6 -->
<g id="node6" class="node">
<title>Node6</title>
<g id="a_node6"><a xlink:title=" ">
<polygon fill="#e0e0e0" stroke="#999999" points="344.5,-19 295.5,-19 295.5,0 344.5,0 344.5,-19"/>
<text text-anchor="middle" x="320" y="-7" font-family="Helvetica,sans-Serif" font-size="10.00">stdint.h</text>
</a>
</g>
</g>
<!-- Node1&#45;&gt;Node6 -->
<g id="edge5" class="edge">
<title>Node1&#45;&gt;Node6</title>
<path fill="none" stroke="#63b8ff" d="M370.02,-54.84C360.25,-46.17 347.73,-35.08 337.66,-26.15"/>
<polygon fill="#63b8ff" stroke="#63b8ff" points="339.69,-23.28 329.89,-19.27 335.05,-28.52 339.69,-23.28"/>
</g>
<!-- Node7 -->
<g id="node7" class="node">
<title>Node7</title>
<g id="a_node7"><a xlink:title=" ">
<polygon fill="#e0e0e0" stroke="#999999" points="409,-19 363,-19 363,0 409,0 409,-19"/>
<text text-anchor="middle" x="386" y="-7" font-family="Helvetica,sans-Serif" font-size="10.00">stdio.h</text>
</a>
</g>
</g>
<!-- Node1&#45;&gt;Node7 -->
<g id="edge6" class="edge">
<title>Node1&#45;&gt;Node7</title>
<path fill="none" stroke="#63b8ff" d="M386,-54.84C386,-47.21 386,-37.7 386,-29.45"/>
<polygon fill="#63b8ff" stroke="#63b8ff" points="389.5,-29.27 386,-19.27 382.5,-29.27 389.5,-29.27"/>
</g>
<!-- Node8 -->
<g id="node8" class="node">
<title>Node8</title>
<g id="a_node8"><a xlink:title=" ">
<polygon fill="#e0e0e0" stroke="#999999" points="475,-19 427,-19 427,0 475,0 475,-19"/>
<text text-anchor="middle" x="451" y="-7" font-family="Helvetica,sans-Serif" font-size="10.00">stdlib.h</text>
</a>
</g>
</g>
<!-- Node1&#45;&gt;Node8 -->
<g id="edge7" class="edge">
<title>Node1&#45;&gt;Node8</title>
<path fill="none" stroke="#63b8ff" d="M401.73,-54.84C411.36,-46.17 423.69,-35.08 433.61,-26.15"/>
<polygon fill="#63b8ff" stroke="#63b8ff" points="436.17,-28.56 441.26,-19.27 431.49,-23.35 436.17,-28.56"/>
</g>
<!-- Node9 -->
<g id="node9" class="node">
<title>Node9</title>
<g id="a_node9"><a xlink:title=" ">
<polygon fill="#e0e0e0" stroke="#999999" points="542.5,-19 493.5,-19 493.5,0 542.5,0 542.5,-19"/>
<text text-anchor="middle" x="518" y="-7" font-family="Helvetica,sans-Serif" font-size="10.00">string.h</text>
</a>
</g>
</g>
<!-- Node1&#45;&gt;Node9 -->
<g id="edge8" class="edge">
<title>Node1&#45;&gt;Node9</title>
<path fill="none" stroke="#63b8ff" d="M417.62,-54.99C439.35,-45.36 467.97,-32.67 489.09,-23.31"/>
<polygon fill="#63b8ff" stroke="#63b8ff" points="490.78,-26.39 498.51,-19.14 487.95,-19.99 490.78,-26.39"/>
</g>
<!-- Node10 -->
<g id="node10" class="node">
<title>Node10</title>
<g id="a_node10"><a xlink:title=" ">
<polygon fill="#e0e0e0" stroke="#999999" points="633.5,-19 560.5,-19 560.5,0 633.5,0 633.5,-19"/>
<text text-anchor="middle" x="597" y="-7" font-family="Helvetica,sans-Serif" font-size="10.00">sys/socket.h</text>
</a>
</g>
</g>
<!-- Node1&#45;&gt;Node10 -->
<g id="edge9" class="edge">
<title>Node1&#45;&gt;Node10</title>
<path fill="none" stroke="#63b8ff" d="M436.54,-54.99C473.27,-44.8 522.33,-31.2 556.49,-21.73"/>
<polygon fill="#63b8ff" stroke="#63b8ff" points="557.45,-25.1 566.15,-19.05 555.58,-18.35 557.45,-25.1"/>
</g>
<!-- Node11 -->
<g id="node11" class="node">
<title>Node11</title>
<g id="a_node11"><a xlink:title=" ">
<polygon fill="#e0e0e0" stroke="#999999" points="720,-19 652,-19 652,0 720,0 720,-19"/>
<text text-anchor="middle" x="686" y="-7" font-family="Helvetica,sans-Serif" font-size="10.00">sys/types.h</text>
</a>
</g>
</g>
<!-- Node1&#45;&gt;Node11 -->
<g id="edge10" class="edge">
<title>Node1&#45;&gt;Node11</title>
<path fill="none" stroke="#63b8ff" d="M458.29,-55C507.39,-45.47 574.06,-32.51 641.74,-19.24"/>
<polygon fill="#63b8ff" stroke="#63b8ff" points="642.59,-22.64 651.73,-17.28 641.25,-15.77 642.59,-22.64"/>
</g>
<!-- Node12 -->
<g id="node12" class="node">
<title>Node12</title>
<g id="a_node12"><a xlink:title=" ">
<polygon fill="#e0e0e0" stroke="#999999" points="789.5,-19 738.5,-19 738.5,0 789.5,0 789.5,-19"/>
<text text-anchor="middle" x="764" y="-7" font-family="Helvetica,sans-Serif" font-size="10.00">unistd.h</text>
</a>
</g>
</g>
<!-- Node1&#45;&gt;Node12 -->
<g id="edge11" class="edge">
<title>Node1&#45;&gt;Node12</title>
<path fill="none" stroke="#63b8ff" d="M460.61,-60.17C528,-51.72 630.08,-37.77 728.34,-18.95"/>
<polygon fill="#63b8ff" stroke="#63b8ff" points="729.29,-22.33 738.45,-17 727.96,-15.46 729.29,-22.33"/>
</g>
</g>
</svg>
