<?xml version="1.0" encoding="UTF-8" standalone="no"?>
<!DOCTYPE svg PUBLIC "-//W3C//DTD SVG 1.1//EN"
 "http://www.w3.org/Graphics/SVG/1.1/DTD/svg11.dtd">
<!-- Generated by graphviz version 3.0.0 (20220226.1711)
 -->
<!-- Title: main Pages: 1 -->
<svg width="182pt" height="28pt"
 viewBox="0.00 0.00 182.00 28.00" xmlns="http://www.w3.org/2000/svg" xmlns:xlink="http://www.w3.org/1999/xlink">
<g id="graph0" class="graph" transform="scale(1 1) rotate(0) translate(4 24)">
<title>main</title>
<polygon fill="white" stroke="transparent" points="-4,4 -4,-24 178,-24 178,4 -4,4"/>
<!-- Node1 -->
<g id="node1" class="node">
<title>Node1</title>
<g id="a_node1"><a xlink:title="Main function.">
<polygon fill="#bfbfbf" stroke="black" points="0,-0.5 0,-19.5 38,-19.5 38,-0.5 0,-0.5"/>
<text text-anchor="middle" x="19" y="-7.5" font-family="Helvetica,sans-Serif" font-size="10.00">main</text>
</a>
</g>
</g>
<!-- Node2 -->
<g id="node2" class="node">
<title>Node2</title>
<g id="a_node2"><a xlink:href="../../d5/d7c/problem__5_2sol3_8c.html#ae9606f1867e9921867d6572f51377b4c" target="_top" xlink:title="Compute Least Common Multiple (LCM) of two numbers.">
<polygon fill="white" stroke="black" points="74,-0.5 74,-19.5 106,-19.5 106,-0.5 74,-0.5"/>
<text text-anchor="middle" x="90" y="-7.5" font-family="Helvetica,sans-Serif" font-size="10.00">lcm</text>
</a>
</g>
</g>
<!-- Node1&#45;&gt;Node2 -->
<g id="edge1" class="edge">
<title>Node1&#45;&gt;Node2</title>
<path fill="none" stroke="midnightblue" d="M38.13,-10C45.88,-10 55.06,-10 63.48,-10"/>
<polygon fill="midnightblue" stroke="midnightblue" points="63.56,-13.5 73.56,-10 63.56,-6.5 63.56,-13.5"/>
</g>
<!-- Node3 -->
<g id="node3" class="node">
<title>Node3</title>
<g id="a_node3"><a xlink:href="../../d5/d7c/problem__5_2sol3_8c.html#a59347107cbfdf48d51108e50280e760d" target="_top" xlink:title="Compute Greatest Common Divisor (GCD) of two numbers using Euclids algorithm.">
<polygon fill="white" stroke="black" points="142,-0.5 142,-19.5 174,-19.5 174,-0.5 142,-0.5"/>
<text text-anchor="middle" x="158" y="-7.5" font-family="Helvetica,sans-Serif" font-size="10.00">gcd</text>
</a>
</g>
</g>
<!-- Node2&#45;&gt;Node3 -->
<g id="edge2" class="edge">
<title>Node2&#45;&gt;Node3</title>
<path fill="none" stroke="midnightblue" d="M106.31,-10C113.8,-10 123.03,-10 131.55,-10"/>
<polygon fill="midnightblue" stroke="midnightblue" points="131.78,-13.5 141.78,-10 131.78,-6.5 131.78,-13.5"/>
</g>
</g>
</svg>
