<?xml version="1.0" encoding="UTF-8" standalone="no"?>
<!DOCTYPE svg PUBLIC "-//W3C//DTD SVG 1.1//EN"
 "http://www.w3.org/Graphics/SVG/1.1/DTD/svg11.dtd">
<!-- Generated by graphviz version 8.0.5 (20230430.1635)
 -->
<!-- Title: main Pages: 1 -->
<svg width="181pt" height="27pt"
 viewBox="0.00 0.00 180.50 27.25" xmlns="http://www.w3.org/2000/svg" xmlns:xlink="http://www.w3.org/1999/xlink">
<g id="graph0" class="graph" transform="scale(1 1) rotate(0) translate(4 23.25)">
<title>main</title>
<!-- Node1 -->
<g id="Node000001" class="node">
<title>Node1</title>
<g id="a_Node000001"><a xlink:title="Main function.">
<polygon fill="#999999" stroke="#666666" points="37,-19.25 0,-19.25 0,0 37,0 37,-19.25"/>
<text text-anchor="middle" x="18.5" y="-5.75" font-family="Helvetica,sans-Serif" font-size="10.00">main</text>
</a>
</g>
</g>
<!-- Node2 -->
<g id="Node000002" class="node">
<title>Node2</title>
<g id="a_Node000002"><a xlink:href="../../d5/d7c/problem__5_2sol3_8c.html#ae9606f1867e9921867d6572f51377b4c" target="_top" xlink:title="Compute Least Common Multiple (LCM) of two numbers.">
<polygon fill="white" stroke="#666666" points="104.75,-19.25 73,-19.25 73,0 104.75,0 104.75,-19.25"/>
<text text-anchor="middle" x="88.88" y="-5.75" font-family="Helvetica,sans-Serif" font-size="10.00">lcm</text>
</a>
</g>
</g>
<!-- Node1&#45;&gt;Node2 -->
<g id="edge1_Node000001_Node000002" class="edge">
<title>Node1&#45;&gt;Node2</title>
<g id="a_edge1_Node000001_Node000002"><a xlink:title=" ">
<path fill="none" stroke="#63b8ff" d="M37.46,-9.62C44.89,-9.62 53.64,-9.62 61.75,-9.62"/>
<polygon fill="#63b8ff" stroke="#63b8ff" points="61.58,-13.13 71.58,-9.62 61.58,-6.13 61.58,-13.13"/>
</a>
</g>
</g>
<!-- Node3 -->
<g id="Node000003" class="node">
<title>Node3</title>
<g id="a_Node000003"><a xlink:href="../../d5/d7c/problem__5_2sol3_8c.html#a59347107cbfdf48d51108e50280e760d" target="_top" xlink:title="Compute Greatest Common Divisor (GCD) of two numbers using Euclids algorithm.">
<polygon fill="white" stroke="#666666" points="172.5,-19.25 140.75,-19.25 140.75,0 172.5,0 172.5,-19.25"/>
<text text-anchor="middle" x="156.62" y="-5.75" font-family="Helvetica,sans-Serif" font-size="10.00">gcd</text>
</a>
</g>
</g>
<!-- Node2&#45;&gt;Node3 -->
<g id="edge2_Node000002_Node000003" class="edge">
<title>Node2&#45;&gt;Node3</title>
<g id="a_edge2_Node000002_Node000003"><a xlink:title=" ">
<path fill="none" stroke="#63b8ff" d="M105.12,-9.62C112.43,-9.62 121.38,-9.62 129.7,-9.62"/>
<polygon fill="#63b8ff" stroke="#63b8ff" points="129.46,-13.13 139.46,-9.62 129.46,-6.13 129.46,-13.13"/>
</a>
</g>
</g>
</g>
</svg>
