<?xml version="1.0" encoding="UTF-8" standalone="no"?>
<!DOCTYPE svg PUBLIC "-//W3C//DTD SVG 1.1//EN"
 "http://www.w3.org/Graphics/SVG/1.1/DTD/svg11.dtd">
<!-- Generated by graphviz version 7.0.6 (20230106.0513)
 -->
<!-- Title: main Pages: 1 -->
<svg width="182pt" height="27pt"
 viewBox="0.00 0.00 182.00 27.00" xmlns="http://www.w3.org/2000/svg" xmlns:xlink="http://www.w3.org/1999/xlink">
<g id="graph0" class="graph" transform="scale(1 1) rotate(0) translate(4 23)">
<title>main</title>
<!-- Node1 -->
<g id="node1" class="node">
<title>Node1</title>
<g id="a_node1"><a xlink:title="Main function.">
<polygon fill="#999999" stroke="#666666" points="38,-19 0,-19 0,0 38,0 38,-19"/>
<text text-anchor="middle" x="19" y="-7" font-family="Helvetica,sans-Serif" font-size="10.00">main</text>
</a>
</g>
</g>
<!-- Node2 -->
<g id="node2" class="node">
<title>Node2</title>
<g id="a_node2"><a xlink:href="../../d5/d7c/problem__5_2sol3_8c.html#ae9606f1867e9921867d6572f51377b4c" target="_top" xlink:title="Compute Least Common Multiple (LCM) of two numbers.">
<polygon fill="white" stroke="#666666" points="106,-19 74,-19 74,0 106,0 106,-19"/>
<text text-anchor="middle" x="90" y="-7" font-family="Helvetica,sans-Serif" font-size="10.00">lcm</text>
</a>
</g>
</g>
<!-- Node1&#45;&gt;Node2 -->
<g id="edge1" class="edge">
<title>Node1&#45;&gt;Node2</title>
<path fill="none" stroke="#63b8ff" d="M38.49,-9.5C45.81,-9.5 54.36,-9.5 62.32,-9.5"/>
<polygon fill="#63b8ff" stroke="#63b8ff" points="62.21,-13 72.21,-9.5 62.21,-6 62.21,-13"/>
</g>
<!-- Node3 -->
<g id="node3" class="node">
<title>Node3</title>
<g id="a_node3"><a xlink:href="../../d5/d7c/problem__5_2sol3_8c.html#a59347107cbfdf48d51108e50280e760d" target="_top" xlink:title="Compute Greatest Common Divisor (GCD) of two numbers using Euclids algorithm.">
<polygon fill="white" stroke="#666666" points="174,-19 142,-19 142,0 174,0 174,-19"/>
<text text-anchor="middle" x="158" y="-7" font-family="Helvetica,sans-Serif" font-size="10.00">gcd</text>
</a>
</g>
</g>
<!-- Node2&#45;&gt;Node3 -->
<g id="edge2" class="edge">
<title>Node2&#45;&gt;Node3</title>
<path fill="none" stroke="#63b8ff" d="M106.31,-9.5C113.47,-9.5 122.21,-9.5 130.41,-9.5"/>
<polygon fill="#63b8ff" stroke="#63b8ff" points="130.26,-13 140.26,-9.5 130.26,-6 130.26,-13"/>
</g>
</g>
</svg>
