<?xml version="1.0" encoding="UTF-8" standalone="no"?>
<!DOCTYPE svg PUBLIC "-//W3C//DTD SVG 1.1//EN"
 "http://www.w3.org/Graphics/SVG/1.1/DTD/svg11.dtd">
<!-- Generated by graphviz version 6.0.1 (20220911.1526)
 -->
<!-- Title: T Pages: 1 -->
<svg width="86pt" height="93pt"
 viewBox="0.00 0.00 86.00 93.00" xmlns="http://www.w3.org/2000/svg" xmlns:xlink="http://www.w3.org/1999/xlink">
<g id="graph0" class="graph" transform="scale(1 1) rotate(0) translate(4 89)">
<title>T</title>
<!-- Node1 -->
<g id="node1" class="node">
<title>Node1</title>
<g id="a_node1"><a xlink:title=" ">
<polygon fill="#999999" stroke="#666666" points="33.5,-19 4.5,-19 4.5,0 33.5,0 33.5,-19"/>
<text text-anchor="middle" x="19" y="-7" font-family="Helvetica,sans-Serif" font-size="10.00">T</text>
</a>
</g>
</g>
<!-- Node2 -->
<g id="node2" class="node">
<title>Node2</title>
<g id="a_node2"><a xlink:href="../../d0/d6b/structelem.html" target="_top" xlink:title=" ">
<polygon fill="white" stroke="#bfbfbf" points="38,-85 0,-85 0,-66 38,-66 38,-85"/>
<text text-anchor="middle" x="19" y="-73" font-family="Helvetica,sans-Serif" font-size="10.00">elem</text>
</a>
</g>
</g>
<!-- Node2&#45;&gt;Node1 -->
<g id="edge1" class="edge">
<title>Node2&#45;&gt;Node1</title>
<path fill="none" stroke="#9a32cd" stroke-dasharray="5,2" d="M19,-55.58C19,-43.63 19,-28.72 19,-19.41"/>
<polygon fill="#9a32cd" stroke="#9a32cd" points="15.5,-55.87 19,-65.87 22.5,-55.87 15.5,-55.87"/>
<text text-anchor="middle" x="31.5" y="-40" font-family="Helvetica,sans-Serif" font-size="10.00"> head</text>
</g>
<!-- Node2&#45;&gt;Node2 -->
<g id="edge2" class="edge">
<title>Node2&#45;&gt;Node2</title>
<path fill="none" stroke="#9a32cd" stroke-dasharray="5,2" d="M48.25,-81.18C52.86,-80.34 56,-78.45 56,-75.5 56,-70.67 47.53,-68.66 38.04,-69.5"/>
<polygon fill="#9a32cd" stroke="#9a32cd" points="47.92,-77.69 38.04,-81.5 48.14,-84.69 47.92,-77.69"/>
<text text-anchor="middle" x="67" y="-73" font-family="Helvetica,sans-Serif" font-size="10.00"> next</text>
</g>
</g>
</svg>
