<?xml version="1.0" encoding="UTF-8" standalone="no"?>
<!DOCTYPE svg PUBLIC "-//W3C//DTD SVG 1.1//EN"
 "http://www.w3.org/Graphics/SVG/1.1/DTD/svg11.dtd">
<!-- Generated by graphviz version 8.0.2 (20230410.1723)
 -->
<!-- Title: developer_tools/malloc_dbg.h Pages: 1 -->
<svg width="246pt" height="104pt"
 viewBox="0.00 0.00 246.00 104.00" xmlns="http://www.w3.org/2000/svg" xmlns:xlink="http://www.w3.org/1999/xlink">
<g id="graph0" class="graph" transform="scale(1 1) rotate(0) translate(4 100)">
<title>developer_tools/malloc_dbg.h</title>
<!-- Node1 -->
<g id="node1" class="node">
<title>Node1</title>
<g id="a_node1"><a xlink:title="Header file that contains macros used to replace malloc/calloc and free.">
<polygon fill="#999999" stroke="#666666" points="180,-96 64,-96 64,-66 180,-66 180,-96"/>
<text text-anchor="start" x="72" y="-84" font-family="Helvetica,sans-Serif" font-size="10.00">developer_tools/malloc</text>
<text text-anchor="middle" x="122" y="-73" font-family="Helvetica,sans-Serif" font-size="10.00">_dbg.h</text>
</a>
</g>
</g>
<!-- Node2 -->
<g id="node2" class="node">
<title>Node2</title>
<g id="a_node2"><a xlink:href="../../db/d84/malloc__dbg_8c.html" target="_top" xlink:title="This file contains malloc_dbg, calloc_dbg, free_dbg and printLeaks implementations.">
<polygon fill="white" stroke="#666666" points="116,-30 0,-30 0,0 116,0 116,-30"/>
<text text-anchor="start" x="8" y="-18" font-family="Helvetica,sans-Serif" font-size="10.00">developer_tools/malloc</text>
<text text-anchor="middle" x="58" y="-7" font-family="Helvetica,sans-Serif" font-size="10.00">_dbg.c</text>
</a>
</g>
</g>
<!-- Node1&#45;&gt;Node2 -->
<g id="edge1" class="edge">
<title>Node1&#45;&gt;Node2</title>
<path fill="none" stroke="#63b8ff" d="M100.09,-58.09C90.85,-48.85 80.36,-38.36 72.16,-30.16"/>
<polygon fill="#63b8ff" stroke="#63b8ff" points="97.25,-60.2 106.8,-64.8 102.2,-55.25 97.25,-60.2"/>
</g>
<!-- Node3 -->
<g id="node3" class="node">
<title>Node3</title>
<g id="a_node3"><a xlink:href="../../dd/d11/test__malloc__dbg_8c.html" target="_top" xlink:title="File used to test the malloc_dbg, calloc_dbg and free_dbg functions.">
<polygon fill="white" stroke="#666666" points="238,-30 134,-30 134,0 238,0 238,-30"/>
<text text-anchor="start" x="142" y="-18" font-family="Helvetica,sans-Serif" font-size="10.00">developer_tools/test</text>
<text text-anchor="middle" x="186" y="-7" font-family="Helvetica,sans-Serif" font-size="10.00">_malloc_dbg.c</text>
</a>
</g>
</g>
<!-- Node1&#45;&gt;Node3 -->
<g id="edge2" class="edge">
<title>Node1&#45;&gt;Node3</title>
<path fill="none" stroke="#63b8ff" d="M143.91,-58.09C153.15,-48.85 163.64,-38.36 171.84,-30.16"/>
<polygon fill="#63b8ff" stroke="#63b8ff" points="141.8,-55.25 137.2,-64.8 146.75,-60.2 141.8,-55.25"/>
</g>
</g>
</svg>
