<?xml version="1.0" encoding="UTF-8" standalone="no"?>
<!DOCTYPE svg PUBLIC "-//W3C//DTD SVG 1.1//EN"
 "http://www.w3.org/Graphics/SVG/1.1/DTD/svg11.dtd">
<!-- Generated by graphviz version 8.0.4 (20230421.1958)
 -->
<!-- Title: sorting/patience_sort.c Pages: 1 -->
<svg width="187pt" height="83pt"
 viewBox="0.00 0.00 187.38 82.50" xmlns="http://www.w3.org/2000/svg" xmlns:xlink="http://www.w3.org/1999/xlink">
<g id="graph0" class="graph" transform="scale(1 1) rotate(0) translate(4 78.5)">
<title>sorting/patience_sort.c</title>
<!-- Node1 -->
<g id="node1" class="node">
<title>Node1</title>
<g id="a_node1"><a xlink:title="Patience Sort">
<polygon fill="#999999" stroke="#666666" points="149.12,-74.5 34.12,-74.5 34.12,-55.25 149.12,-55.25 149.12,-74.5"/>
<text text-anchor="middle" x="91.62" y="-61" font-family="Helvetica,sans-Serif" font-size="10.00">sorting/patience_sort.c</text>
</a>
</g>
</g>
<!-- Node2 -->
<g id="node2" class="node">
<title>Node2</title>
<g id="a_node2"><a xlink:title=" ">
<polygon fill="#e0e0e0" stroke="#999999" points="51.25,-19.25 0,-19.25 0,0 51.25,0 51.25,-19.25"/>
<text text-anchor="middle" x="25.62" y="-5.75" font-family="Helvetica,sans-Serif" font-size="10.00">assert.h</text>
</a>
</g>
</g>
<!-- Node1&#45;&gt;Node2 -->
<g id="edge1" class="edge">
<title>Node1&#45;&gt;Node2</title>
<path fill="none" stroke="#63b8ff" d="M80.43,-54.84C70.79,-47.07 56.67,-35.67 45.18,-26.4"/>
<polygon fill="#63b8ff" stroke="#63b8ff" points="47.64,-23.08 37.66,-19.52 43.24,-28.53 47.64,-23.08"/>
</g>
<!-- Node3 -->
<g id="node3" class="node">
<title>Node3</title>
<g id="a_node3"><a xlink:title=" ">
<polygon fill="#e0e0e0" stroke="#999999" points="114.25,-19.25 69,-19.25 69,0 114.25,0 114.25,-19.25"/>
<text text-anchor="middle" x="91.62" y="-5.75" font-family="Helvetica,sans-Serif" font-size="10.00">stdio.h</text>
</a>
</g>
</g>
<!-- Node1&#45;&gt;Node3 -->
<g id="edge2" class="edge">
<title>Node1&#45;&gt;Node3</title>
<path fill="none" stroke="#63b8ff" d="M91.62,-55.08C91.62,-48.42 91.62,-38.99 91.62,-30.53"/>
<polygon fill="#63b8ff" stroke="#63b8ff" points="95.13,-30.61 91.62,-20.61 88.13,-30.61 95.13,-30.61"/>
</g>
<!-- Node4 -->
<g id="node4" class="node">
<title>Node4</title>
<g id="a_node4"><a xlink:title=" ">
<polygon fill="#e0e0e0" stroke="#999999" points="179.38,-19.25 131.88,-19.25 131.88,0 179.38,0 179.38,-19.25"/>
<text text-anchor="middle" x="155.62" y="-5.75" font-family="Helvetica,sans-Serif" font-size="10.00">stdlib.h</text>
</a>
</g>
</g>
<!-- Node1&#45;&gt;Node4 -->
<g id="edge3" class="edge">
<title>Node1&#45;&gt;Node4</title>
<path fill="none" stroke="#63b8ff" d="M102.48,-54.84C111.82,-47.07 125.52,-35.67 136.67,-26.4"/>
<polygon fill="#63b8ff" stroke="#63b8ff" points="138.48,-28.61 143.93,-19.52 134,-23.23 138.48,-28.61"/>
</g>
</g>
</svg>
