<?xml version="1.0" encoding="UTF-8" standalone="no"?>
<!DOCTYPE svg PUBLIC "-//W3C//DTD SVG 1.1//EN"
 "http://www.w3.org/Graphics/SVG/1.1/DTD/svg11.dtd">
<!-- Generated by graphviz version 3.0.0 (20220226.1711)
 -->
<!-- Title: main Pages: 1 -->
<svg width="227pt" height="28pt"
 viewBox="0.00 0.00 227.00 28.00" xmlns="http://www.w3.org/2000/svg" xmlns:xlink="http://www.w3.org/1999/xlink">
<g id="graph0" class="graph" transform="scale(1 1) rotate(0) translate(4 24)">
<title>main</title>
<polygon fill="white" stroke="transparent" points="-4,4 -4,-24 223,-24 223,4 -4,4"/>
<!-- Node1 -->
<g id="node1" class="node">
<title>Node1</title>
<g id="a_node1"><a xlink:title="Main function.">
<polygon fill="#bfbfbf" stroke="black" points="0,-0.5 0,-19.5 38,-19.5 38,-0.5 0,-0.5"/>
<text text-anchor="middle" x="19" y="-7.5" font-family="Helvetica,sans-Serif" font-size="10.00">main</text>
</a>
</g>
</g>
<!-- Node2 -->
<g id="node2" class="node">
<title>Node2</title>
<g id="a_node2"><a xlink:href="../../dc/d63/problem__8_2sol1_8c.html#a9ffc8845f17b01a353767a40a3adf7bd" target="_top" xlink:title="Compute the product of two numbers in a file.">
<polygon fill="white" stroke="black" points="74,-0.5 74,-19.5 142,-19.5 142,-0.5 74,-0.5"/>
<text text-anchor="middle" x="108" y="-7.5" font-family="Helvetica,sans-Serif" font-size="10.00">get_product</text>
</a>
</g>
</g>
<!-- Node1&#45;&gt;Node2 -->
<g id="edge1" class="edge">
<title>Node1&#45;&gt;Node2</title>
<path fill="none" stroke="midnightblue" d="M38.03,-10C45.55,-10 54.64,-10 63.72,-10"/>
<polygon fill="midnightblue" stroke="midnightblue" points="63.88,-13.5 73.88,-10 63.88,-6.5 63.88,-13.5"/>
</g>
<!-- Node3 -->
<g id="node3" class="node">
<title>Node3</title>
<g id="a_node3"><a xlink:href="../../d1/ded/group__misc.html#ga6f8e8c9d25b5891d57e588d80d75028a" target="_top" xlink:title="Count func counts the number of prime numbers.">
<polygon fill="white" stroke="black" points="178,-0.5 178,-19.5 219,-19.5 219,-0.5 178,-0.5"/>
<text text-anchor="middle" x="198.5" y="-7.5" font-family="Helvetica,sans-Serif" font-size="10.00">count</text>
</a>
</g>
</g>
<!-- Node2&#45;&gt;Node3 -->
<g id="edge2" class="edge">
<title>Node2&#45;&gt;Node3</title>
<path fill="none" stroke="midnightblue" d="M142.21,-10C150.53,-10 159.4,-10 167.56,-10"/>
<polygon fill="midnightblue" stroke="midnightblue" points="167.75,-13.5 177.75,-10 167.75,-6.5 167.75,-13.5"/>
</g>
</g>
</svg>
