<?xml version="1.0" encoding="UTF-8" standalone="no"?>
<!DOCTYPE svg PUBLIC "-//W3C//DTD SVG 1.1//EN"
 "http://www.w3.org/Graphics/SVG/1.1/DTD/svg11.dtd">
<!-- Generated by graphviz version 8.0.2 (20230410.1723)
 -->
<!-- Title: machine_learning/k_means_clustering.c Pages: 1 -->
<svg width="378pt" height="93pt"
 viewBox="0.00 0.00 378.00 93.00" xmlns="http://www.w3.org/2000/svg" xmlns:xlink="http://www.w3.org/1999/xlink">
<g id="graph0" class="graph" transform="scale(1 1) rotate(0) translate(4 89)">
<title>machine_learning/k_means_clustering.c</title>
<!-- Node1 -->
<g id="node1" class="node">
<title>Node1</title>
<g id="a_node1"><a xlink:title="K Means Clustering Algorithm implemented.">
<polygon fill="#999999" stroke="#666666" points="236.5,-85 129.5,-85 129.5,-55 236.5,-55 236.5,-85"/>
<text text-anchor="start" x="137.5" y="-73" font-family="Helvetica,sans-Serif" font-size="10.00">machine_learning/k</text>
<text text-anchor="middle" x="183" y="-62" font-family="Helvetica,sans-Serif" font-size="10.00">_means_clustering.c</text>
</a>
</g>
</g>
<!-- Node2 -->
<g id="node2" class="node">
<title>Node2</title>
<g id="a_node2"><a xlink:title=" ">
<polygon fill="#e0e0e0" stroke="#999999" points="44,-19 0,-19 0,0 44,0 44,-19"/>
<text text-anchor="middle" x="22" y="-7" font-family="Helvetica,sans-Serif" font-size="10.00">float.h</text>
</a>
</g>
</g>
<!-- Node1&#45;&gt;Node2 -->
<g id="edge1" class="edge">
<title>Node1&#45;&gt;Node2</title>
<path fill="none" stroke="#63b8ff" d="M143.2,-54.54C115.99,-44.65 80.35,-31.7 54.78,-22.41"/>
<polygon fill="#63b8ff" stroke="#63b8ff" points="56.08,-18.8 45.48,-18.67 53.69,-25.37 56.08,-18.8"/>
</g>
<!-- Node3 -->
<g id="node3" class="node">
<title>Node3</title>
<g id="a_node3"><a xlink:title=" ">
<polygon fill="#e0e0e0" stroke="#999999" points="109.5,-19 62.5,-19 62.5,0 109.5,0 109.5,-19"/>
<text text-anchor="middle" x="86" y="-7" font-family="Helvetica,sans-Serif" font-size="10.00">math.h</text>
</a>
</g>
</g>
<!-- Node1&#45;&gt;Node3 -->
<g id="edge2" class="edge">
<title>Node1&#45;&gt;Node3</title>
<path fill="none" stroke="#63b8ff" d="M159.02,-54.54C144.02,-45.49 124.77,-33.88 109.8,-24.85"/>
<polygon fill="#63b8ff" stroke="#63b8ff" points="112.04,-21.51 101.67,-19.35 108.42,-27.51 112.04,-21.51"/>
</g>
<!-- Node4 -->
<g id="node4" class="node">
<title>Node4</title>
<g id="a_node4"><a xlink:title=" ">
<polygon fill="#e0e0e0" stroke="#999999" points="174,-19 128,-19 128,0 174,0 174,-19"/>
<text text-anchor="middle" x="151" y="-7" font-family="Helvetica,sans-Serif" font-size="10.00">stdio.h</text>
</a>
</g>
</g>
<!-- Node1&#45;&gt;Node4 -->
<g id="edge3" class="edge">
<title>Node1&#45;&gt;Node4</title>
<path fill="none" stroke="#63b8ff" d="M175.09,-54.54C170.82,-46.74 165.51,-37.03 160.96,-28.71"/>
<polygon fill="#63b8ff" stroke="#63b8ff" points="163.62,-27.27 155.75,-20.18 157.47,-30.63 163.62,-27.27"/>
</g>
<!-- Node5 -->
<g id="node5" class="node">
<title>Node5</title>
<g id="a_node5"><a xlink:title=" ">
<polygon fill="#e0e0e0" stroke="#999999" points="240,-19 192,-19 192,0 240,0 240,-19"/>
<text text-anchor="middle" x="216" y="-7" font-family="Helvetica,sans-Serif" font-size="10.00">stdlib.h</text>
</a>
</g>
</g>
<!-- Node1&#45;&gt;Node5 -->
<g id="edge4" class="edge">
<title>Node1&#45;&gt;Node5</title>
<path fill="none" stroke="#63b8ff" d="M191.16,-54.54C195.56,-46.74 201.04,-37.03 205.73,-28.71"/>
<polygon fill="#63b8ff" stroke="#63b8ff" points="209.24,-30.6 211.11,-20.18 203.14,-27.17 209.24,-30.6"/>
</g>
<!-- Node6 -->
<g id="node6" class="node">
<title>Node6</title>
<g id="a_node6"><a xlink:title=" ">
<polygon fill="#e0e0e0" stroke="#999999" points="307.5,-19 258.5,-19 258.5,0 307.5,0 307.5,-19"/>
<text text-anchor="middle" x="283" y="-7" font-family="Helvetica,sans-Serif" font-size="10.00">string.h</text>
</a>
</g>
</g>
<!-- Node1&#45;&gt;Node6 -->
<g id="edge5" class="edge">
<title>Node1&#45;&gt;Node6</title>
<path fill="none" stroke="#63b8ff" d="M207.72,-54.54C223.19,-45.49 243.03,-33.88 258.47,-24.85"/>
<polygon fill="#63b8ff" stroke="#63b8ff" points="260.01,-27.42 266.88,-19.35 256.48,-21.37 260.01,-27.42"/>
</g>
<!-- Node7 -->
<g id="node7" class="node">
<title>Node7</title>
<g id="a_node7"><a xlink:title=" ">
<polygon fill="#e0e0e0" stroke="#999999" points="370,-19 326,-19 326,0 370,0 370,-19"/>
<text text-anchor="middle" x="348" y="-7" font-family="Helvetica,sans-Serif" font-size="10.00">time.h</text>
</a>
</g>
</g>
<!-- Node1&#45;&gt;Node7 -->
<g id="edge6" class="edge">
<title>Node1&#45;&gt;Node7</title>
<path fill="none" stroke="#63b8ff" d="M223.79,-54.54C252.14,-44.49 289.4,-31.27 315.7,-21.95"/>
<polygon fill="#63b8ff" stroke="#63b8ff" points="316.63,-24.98 324.89,-18.34 314.29,-18.38 316.63,-24.98"/>
</g>
</g>
</svg>
