<?xml version="1.0" encoding="UTF-8" standalone="no"?>
<!DOCTYPE svg PUBLIC "-//W3C//DTD SVG 1.1//EN"
 "http://www.w3.org/Graphics/SVG/1.1/DTD/svg11.dtd">
<!-- Generated by graphviz version 8.0.5 (20230430.1635)
 -->
<!-- Title: machine_learning/k_means_clustering.c Pages: 1 -->
<svg width="372pt" height="94pt"
 viewBox="0.00 0.00 372.00 93.75" xmlns="http://www.w3.org/2000/svg" xmlns:xlink="http://www.w3.org/1999/xlink">

<svg id="main" version="1.1" xmlns="http://www.w3.org/2000/svg" xmlns:xlink="http://www.w3.org/1999/xlink" xml:space="preserve" onload="init(evt)">
<style type="text/css"><![CDATA[
.node, .edge {opacity: 0.7;}
.node.selected, .edge.selected {opacity: 1;}
.edge:hover path { stroke: red; }
.edge:hover polygon { stroke: red; fill: red; }
]]></style>
<script type="application/ecmascript" xlink:href="../../svg.min.js"/>
<svg id="graph" class="graph">
<g id="graph0" class="graph" transform="scale(1 1) rotate(0) translate(4 89.75)">
<title>machine_learning/k_means_clustering.c</title>
<!-- Node1 -->
<g id="Node000001" class="node">
<title>Node1</title>
<g id="a_Node000001"><a xlink:title="K Means Clustering Algorithm implemented.">
<polygon fill="#999999" stroke="#666666" points="233.5,-85.75 127.5,-85.75 127.5,-55.25 233.5,-55.25 233.5,-85.75"/>
<text text-anchor="start" x="135.5" y="-72.25" font-family="Helvetica,sans-Serif" font-size="10.00">machine_learning/k</text>
<text text-anchor="middle" x="180.5" y="-61" font-family="Helvetica,sans-Serif" font-size="10.00">_means_clustering.c</text>
</a>
</g>
</g>
<!-- Node2 -->
<g id="Node000002" class="node">
<title>Node2</title>
<g id="a_Node000002"><a xlink:title=" ">
<polygon fill="#e0e0e0" stroke="#999999" points="43,-19.25 0,-19.25 0,0 43,0 43,-19.25"/>
<text text-anchor="middle" x="21.5" y="-5.75" font-family="Helvetica,sans-Serif" font-size="10.00">float.h</text>
</a>
</g>
</g>
<!-- Node1&#45;&gt;Node2 -->
<g id="edge1_Node000001_Node000002" class="edge">
<title>Node1&#45;&gt;Node2</title>
<g id="a_edge1_Node000001_Node000002"><a xlink:title=" ">
<path fill="none" stroke="#63b8ff" d="M140.79,-54.8C113.75,-44.78 78.43,-31.7 53.25,-22.38"/>
<polygon fill="#63b8ff" stroke="#63b8ff" points="54.73,-18.83 44.14,-18.64 52.3,-25.39 54.73,-18.83"/>
</a>
</g>
</g>
<!-- Node3 -->
<g id="Node000003" class="node">
<title>Node3</title>
<g id="a_Node000003"><a xlink:title=" ">
<polygon fill="#e0e0e0" stroke="#999999" points="107.5,-19.25 61.5,-19.25 61.5,0 107.5,0 107.5,-19.25"/>
<text text-anchor="middle" x="84.5" y="-5.75" font-family="Helvetica,sans-Serif" font-size="10.00">math.h</text>
</a>
</g>
</g>
<!-- Node1&#45;&gt;Node3 -->
<g id="edge2_Node000001_Node000003" class="edge">
<title>Node1&#45;&gt;Node3</title>
<g id="a_edge2_Node000001_Node000003"><a xlink:title=" ">
<path fill="none" stroke="#63b8ff" d="M156.77,-54.95C142.01,-45.9 123.1,-34.3 108.33,-25.24"/>
<polygon fill="#63b8ff" stroke="#63b8ff" points="110.65,-21.95 100.3,-19.7 106.99,-27.91 110.65,-21.95"/>
</a>
</g>
</g>
<!-- Node4 -->
<g id="Node000004" class="node">
<title>Node4</title>
<g id="a_Node000004"><a xlink:title=" ">
<polygon fill="#e0e0e0" stroke="#999999" points="171.12,-19.25 125.88,-19.25 125.88,0 171.12,0 171.12,-19.25"/>
<text text-anchor="middle" x="148.5" y="-5.75" font-family="Helvetica,sans-Serif" font-size="10.00">stdio.h</text>
</a>
</g>
</g>
<!-- Node1&#45;&gt;Node4 -->
<g id="edge3_Node000001_Node000004" class="edge">
<title>Node1&#45;&gt;Node4</title>
<g id="a_edge3_Node000001_Node000004"><a xlink:title=" ">
<path fill="none" stroke="#63b8ff" d="M172.59,-54.95C168.37,-47.19 163.14,-37.56 158.63,-29.26"/>
<polygon fill="#63b8ff" stroke="#63b8ff" points="161.28,-27.82 153.43,-20.7 155.13,-31.16 161.28,-27.82"/>
</a>
</g>
</g>
<!-- Node5 -->
<g id="Node000005" class="node">
<title>Node5</title>
<g id="a_Node000005"><a xlink:title=" ">
<polygon fill="#e0e0e0" stroke="#999999" points="236.25,-19.25 188.75,-19.25 188.75,0 236.25,0 236.25,-19.25"/>
<text text-anchor="middle" x="212.5" y="-5.75" font-family="Helvetica,sans-Serif" font-size="10.00">stdlib.h</text>
</a>
</g>
</g>
<!-- Node1&#45;&gt;Node5 -->
<g id="edge4_Node000001_Node000005" class="edge">
<title>Node1&#45;&gt;Node5</title>
<g id="a_edge4_Node000001_Node000005"><a xlink:title=" ">
<path fill="none" stroke="#63b8ff" d="M188.41,-54.95C192.63,-47.19 197.86,-37.56 202.37,-29.26"/>
<polygon fill="#63b8ff" stroke="#63b8ff" points="205.87,-31.16 207.57,-20.7 199.72,-27.82 205.87,-31.16"/>
</a>
</g>
</g>
<!-- Node6 -->
<g id="Node000006" class="node">
<title>Node6</title>
<g id="a_Node000006"><a xlink:title=" ">
<polygon fill="#e0e0e0" stroke="#999999" points="302.62,-19.25 254.38,-19.25 254.38,0 302.62,0 302.62,-19.25"/>
<text text-anchor="middle" x="278.5" y="-5.75" font-family="Helvetica,sans-Serif" font-size="10.00">string.h</text>
</a>
</g>
</g>
<!-- Node1&#45;&gt;Node6 -->
<g id="edge5_Node000001_Node000006" class="edge">
<title>Node1&#45;&gt;Node6</title>
<g id="a_edge5_Node000001_Node000006"><a xlink:title=" ">
<path fill="none" stroke="#63b8ff" d="M204.98,-54.8C220.04,-45.74 239.28,-34.19 254.3,-25.16"/>
<polygon fill="#63b8ff" stroke="#63b8ff" points="255.7,-27.8 262.47,-19.65 252.1,-21.8 255.7,-27.8"/>
</a>
</g>
</g>
<!-- Node7 -->
<g id="Node000007" class="node">
<title>Node7</title>
<g id="a_Node000007"><a xlink:title=" ">
<polygon fill="#e0e0e0" stroke="#999999" points="364,-19.25 321,-19.25 321,0 364,0 364,-19.25"/>
<text text-anchor="middle" x="342.5" y="-5.75" font-family="Helvetica,sans-Serif" font-size="10.00">time.h</text>
</a>
</g>
</g>
<!-- Node1&#45;&gt;Node7 -->
<g id="edge6_Node000001_Node000007" class="edge">
<title>Node1&#45;&gt;Node7</title>
<g id="a_edge6_Node000001_Node000007"><a xlink:title=" ">
<path fill="none" stroke="#63b8ff" d="M220.96,-54.8C248.68,-44.72 284.93,-31.55 310.6,-22.22"/>
<polygon fill="#63b8ff" stroke="#63b8ff" points="311.7,-25.18 319.91,-18.47 309.31,-18.6 311.7,-25.18"/>
</a>
</g>
</g>
</g>
</svg>
</svg>

<style type='text/css'>
<![CDATA[
[data-mouse-over-selected='false'] { opacity: 0.7; }
[data-mouse-over-selected='true']  { opacity: 1.0; }
]]>
</style>
<script type="application/ecmascript"><![CDATA[
document.addEventListener('DOMContentLoaded', (event) => {
  highlightEdges();
  highlightAdjacentNodes();
});
]]></script>
</svg>
