<?xml version="1.0" encoding="UTF-8" standalone="no"?>
<!DOCTYPE svg PUBLIC "-//W3C//DTD SVG 1.1//EN"
 "http://www.w3.org/Graphics/SVG/1.1/DTD/svg11.dtd">
<!-- Generated by graphviz version 9.0.0 (20230911.1827)
 -->
<!-- Title: main Pages: 1 -->
<svg width="197pt" height="82pt"
 viewBox="0.00 0.00 197.05 82.25" xmlns="http://www.w3.org/2000/svg" xmlns:xlink="http://www.w3.org/1999/xlink">
<g id="graph0" class="graph" transform="scale(1 1) rotate(0) translate(4 78.25)">
<title>main</title>
<!-- Node1 -->
<g id="Node000001" class="node">
<title>Node1</title>
<g id="a_Node000001"><a xlink:title="Main function.">
<polygon fill="#999999" stroke="#666666" points="37,-56.25 0,-56.25 0,-37 37,-37 37,-56.25"/>
<text text-anchor="middle" x="18.5" y="-42.75" font-family="Helvetica,sans-Serif" font-size="10.00">main</text>
</a>
</g>
</g>
<!-- Node2 -->
<g id="Node000002" class="node">
<title>Node2</title>
<g id="a_Node000002"><a xlink:href="../../d0/d6f/fibonacci_8c.html#ae082919377416805160894716b2344d7" target="_top" xlink:title="for assert() for errno &#45; to determine whether there is an error while using strtol()">
<polygon fill="white" stroke="#666666" points="189.05,-56.25 160.25,-56.25 160.25,-37 189.05,-37 189.05,-56.25"/>
<text text-anchor="middle" x="174.65" y="-42.75" font-family="Helvetica,sans-Serif" font-size="10.00">fib</text>
</a>
</g>
</g>
<!-- Node1&#45;&gt;Node2 -->
<g id="edge1_Node000001_Node000002" class="edge">
<title>Node1&#45;&gt;Node2</title>
<g id="a_edge1_Node000001_Node000002"><a xlink:title=" ">
<path fill="none" stroke="#63b8ff" d="M37.41,-54.72C47.61,-58.88 60.76,-63.52 73,-65.62 95.45,-69.49 101.85,-69.78 124.25,-65.62 132.63,-64.07 141.42,-61.15 149.22,-58.06"/>
<polygon fill="#63b8ff" stroke="#63b8ff" points="150.57,-61.28 158.39,-54.13 147.82,-54.85 150.57,-61.28"/>
</a>
</g>
</g>
<!-- Node3 -->
<g id="Node000003" class="node">
<title>Node3</title>
<g id="a_Node000003"><a xlink:href="../../d0/d6f/fibonacci_8c.html#aeb1b48abe7f99ab8e1d71426f28ab025" target="_top" xlink:title="Get the input from the user.">
<polygon fill="white" stroke="#666666" points="124.25,-56.25 73,-56.25 73,-37 124.25,-37 124.25,-56.25"/>
<text text-anchor="middle" x="98.62" y="-42.75" font-family="Helvetica,sans-Serif" font-size="10.00">getInput</text>
</a>
</g>
</g>
<!-- Node1&#45;&gt;Node3 -->
<g id="edge3_Node000001_Node000003" class="edge">
<title>Node1&#45;&gt;Node3</title>
<g id="a_edge3_Node000001_Node000003"><a xlink:title=" ">
<path fill="none" stroke="#63b8ff" d="M37.23,-46.62C44.33,-46.62 52.78,-46.62 61.08,-46.62"/>
<polygon fill="#63b8ff" stroke="#63b8ff" points="61.05,-50.13 71.05,-46.63 61.05,-43.13 61.05,-50.13"/>
</a>
</g>
</g>
<!-- Node4 -->
<g id="Node000004" class="node">
<title>Node4</title>
<g id="a_Node000004"><a xlink:href="../../d0/d6f/fibonacci_8c.html#aa8dca7b867074164d5f45b0f3851269d" target="_top" xlink:title="self&#45;test implementation">
<polygon fill="white" stroke="#666666" points="114.88,-19.25 82.38,-19.25 82.38,0 114.88,0 114.88,-19.25"/>
<text text-anchor="middle" x="98.62" y="-5.75" font-family="Helvetica,sans-Serif" font-size="10.00">test</text>
</a>
</g>
</g>
<!-- Node1&#45;&gt;Node4 -->
<g id="edge4_Node000001_Node000004" class="edge">
<title>Node1&#45;&gt;Node4</title>
<g id="a_edge4_Node000001_Node000004"><a xlink:title=" ">
<path fill="none" stroke="#63b8ff" d="M37.23,-38.23C47.46,-33.38 60.52,-27.2 71.87,-21.82"/>
<polygon fill="#63b8ff" stroke="#63b8ff" points="73.17,-25.08 80.71,-17.63 70.18,-18.75 73.17,-25.08"/>
</a>
</g>
</g>
<!-- Node2&#45;&gt;Node2 -->
<g id="edge2_Node000002_Node000002" class="edge">
<title>Node2&#45;&gt;Node2</title>
<g id="a_edge2_Node000002_Node000002"><a xlink:title=" ">
<path fill="none" stroke="#63b8ff" d="M162.75,-56.54C157.32,-65.15 161.29,-74.25 174.65,-74.25 181.96,-74.25 186.46,-71.53 188.14,-67.65"/>
<polygon fill="#63b8ff" stroke="#63b8ff" points="191.65,-67.44 186.77,-58.04 184.72,-68.43 191.65,-67.44"/>
</a>
</g>
</g>
<!-- Node4&#45;&gt;Node2 -->
<g id="edge5_Node000004_Node000002" class="edge">
<title>Node4&#45;&gt;Node2</title>
<g id="a_edge5_Node000004_Node000002"><a xlink:title=" ">
<path fill="none" stroke="#63b8ff" d="M115.32,-17.47C125.36,-22.49 138.56,-29.09 149.87,-34.74"/>
<polygon fill="#63b8ff" stroke="#63b8ff" points="148.1,-37.77 158.61,-39.11 151.23,-31.51 148.1,-37.77"/>
</a>
</g>
</g>
</g>
</svg>
