<?xml version="1.0" encoding="UTF-8" standalone="no"?>
<!DOCTYPE svg PUBLIC "-//W3C//DTD SVG 1.1//EN"
 "http://www.w3.org/Graphics/SVG/1.1/DTD/svg11.dtd">
<!-- Generated by graphviz version 8.0.5 (20230430.1635)
 -->
<!-- Title: test Pages: 1 -->
<svg width="301pt" height="27pt"
 viewBox="0.00 0.00 300.50 27.25" xmlns="http://www.w3.org/2000/svg" xmlns:xlink="http://www.w3.org/1999/xlink">
<g id="graph0" class="graph" transform="scale(1 1) rotate(0) translate(4 23.25)">
<title>test</title>
<!-- Node1 -->
<g id="Node000001" class="node">
<title>Node1</title>
<g id="a_Node000001"><a xlink:title="Test function.">
<polygon fill="#999999" stroke="#666666" points="32.5,-19.25 0,-19.25 0,0 32.5,0 32.5,-19.25"/>
<text text-anchor="middle" x="16.25" y="-5.75" font-family="Helvetica,sans-Serif" font-size="10.00">test</text>
</a>
</g>
</g>
<!-- Node2 -->
<g id="Node000002" class="node">
<title>Node2</title>
<g id="a_Node000002"><a xlink:href="../../d0/d8a/octal__to__hexadecimal_8c.html#a823ef5170955cfef40e07d9a4d2e87e2" target="_top" xlink:title="Convert octal number to hexadecimal number dynamically allocated memory needs to be freed by the call...">
<polygon fill="white" stroke="#666666" points="173,-19.25 68.5,-19.25 68.5,0 173,0 173,-19.25"/>
<text text-anchor="middle" x="120.75" y="-5.75" font-family="Helvetica,sans-Serif" font-size="10.00">octalToHexadecimal</text>
</a>
</g>
</g>
<!-- Node1&#45;&gt;Node2 -->
<g id="edge1_Node000001_Node000002" class="edge">
<title>Node1&#45;&gt;Node2</title>
<g id="a_edge1_Node000001_Node000002"><a xlink:title=" ">
<path fill="none" stroke="#63b8ff" d="M32.82,-9.62C39.74,-9.62 48.39,-9.62 57.53,-9.62"/>
<polygon fill="#63b8ff" stroke="#63b8ff" points="57.4,-13.13 67.4,-9.62 57.4,-6.13 57.4,-13.13"/>
</a>
</g>
</g>
<!-- Node3 -->
<g id="Node000003" class="node">
<title>Node3</title>
<g id="a_Node000003"><a xlink:href="../../d0/d8a/octal__to__hexadecimal_8c.html#a86a4edb605c2a03d9175c59de679347d" target="_top" xlink:title="Convert octal number to decimal number.">
<polygon fill="white" stroke="#666666" points="292.5,-19.25 209,-19.25 209,0 292.5,0 292.5,-19.25"/>
<text text-anchor="middle" x="250.75" y="-5.75" font-family="Helvetica,sans-Serif" font-size="10.00">octalToDecimal</text>
</a>
</g>
</g>
<!-- Node2&#45;&gt;Node3 -->
<g id="edge2_Node000002_Node000003" class="edge">
<title>Node2&#45;&gt;Node3</title>
<g id="a_edge2_Node000002_Node000003"><a xlink:title=" ">
<path fill="none" stroke="#63b8ff" d="M173.44,-9.62C181.55,-9.62 189.94,-9.62 198.05,-9.62"/>
<polygon fill="#63b8ff" stroke="#63b8ff" points="197.88,-13.13 207.88,-9.62 197.88,-6.13 197.88,-13.13"/>
</a>
</g>
</g>
</g>
</svg>
