<?xml version="1.0" encoding="UTF-8" standalone="no"?>
<!DOCTYPE svg PUBLIC "-//W3C//DTD SVG 1.1//EN"
 "http://www.w3.org/Graphics/SVG/1.1/DTD/svg11.dtd">
<!-- Generated by graphviz version 8.0.2 (20230410.1723)
 -->
<!-- Title: main Pages: 1 -->
<svg width="376pt" height="46pt"
 viewBox="0.00 0.00 376.00 46.00" xmlns="http://www.w3.org/2000/svg" xmlns:xlink="http://www.w3.org/1999/xlink">
<g id="graph0" class="graph" transform="scale(1 1) rotate(0) translate(4 42)">
<title>main</title>
<!-- Node1 -->
<g id="node1" class="node">
<title>Node1</title>
<g id="a_node1"><a xlink:title="Main function.">
<polygon fill="#999999" stroke="#666666" points="38,-38 0,-38 0,-19 38,-19 38,-38"/>
<text text-anchor="middle" x="19" y="-26" font-family="Helvetica,sans-Serif" font-size="10.00">main</text>
</a>
</g>
</g>
<!-- Node2 -->
<g id="node2" class="node">
<title>Node2</title>
<g id="a_node2"><a xlink:href="../../d0/d8a/octal__to__hexadecimal_8c.html#a823ef5170955cfef40e07d9a4d2e87e2" target="_top" xlink:title="Convert octal number to hexadecimal number dynamically allocated memory needs to be freed by the call...">
<polygon fill="white" stroke="#666666" points="248,-38 143,-38 143,-19 248,-19 248,-38"/>
<text text-anchor="middle" x="195.5" y="-26" font-family="Helvetica,sans-Serif" font-size="10.00">octalToHexadecimal</text>
</a>
</g>
</g>
<!-- Node1&#45;&gt;Node2 -->
<g id="edge1" class="edge">
<title>Node1&#45;&gt;Node2</title>
<path fill="none" stroke="#63b8ff" d="M38.34,-28.5C60.53,-28.5 99.04,-28.5 132.27,-28.5"/>
<polygon fill="#63b8ff" stroke="#63b8ff" points="131.84,-32 141.84,-28.5 131.84,-25 131.84,-32"/>
</g>
<!-- Node4 -->
<g id="node4" class="node">
<title>Node4</title>
<g id="a_node4"><a xlink:href="../../d0/d8a/octal__to__hexadecimal_8c.html#aa8dca7b867074164d5f45b0f3851269d" target="_top" xlink:title="Test function.">
<polygon fill="white" stroke="#666666" points="107,-19 74,-19 74,0 107,0 107,-19"/>
<text text-anchor="middle" x="90.5" y="-7" font-family="Helvetica,sans-Serif" font-size="10.00">test</text>
</a>
</g>
</g>
<!-- Node1&#45;&gt;Node4 -->
<g id="edge3" class="edge">
<title>Node1&#45;&gt;Node4</title>
<path fill="none" stroke="#63b8ff" d="M38.26,-23.51C45.98,-21.4 55.11,-18.9 63.51,-16.61"/>
<polygon fill="#63b8ff" stroke="#63b8ff" points="64.23,-19.76 72.95,-13.75 62.38,-13.01 64.23,-19.76"/>
</g>
<!-- Node3 -->
<g id="node3" class="node">
<title>Node3</title>
<g id="a_node3"><a xlink:href="../../d0/d8a/octal__to__hexadecimal_8c.html#a86a4edb605c2a03d9175c59de679347d" target="_top" xlink:title="Convert octal number to decimal number.">
<polygon fill="white" stroke="#666666" points="368,-38 284,-38 284,-19 368,-19 368,-38"/>
<text text-anchor="middle" x="326" y="-26" font-family="Helvetica,sans-Serif" font-size="10.00">octalToDecimal</text>
</a>
</g>
</g>
<!-- Node2&#45;&gt;Node3 -->
<g id="edge2" class="edge">
<title>Node2&#45;&gt;Node3</title>
<path fill="none" stroke="#63b8ff" d="M248.4,-28.5C256.44,-28.5 264.75,-28.5 272.81,-28.5"/>
<polygon fill="#63b8ff" stroke="#63b8ff" points="272.57,-32 282.57,-28.5 272.57,-25 272.57,-32"/>
</g>
<!-- Node4&#45;&gt;Node2 -->
<g id="edge4" class="edge">
<title>Node4&#45;&gt;Node2</title>
<path fill="none" stroke="#63b8ff" d="M107.14,-12.39C114.18,-13.68 122.98,-15.31 132.27,-17.02"/>
<polygon fill="#63b8ff" stroke="#63b8ff" points="131.43,-20.61 141.9,-18.98 132.7,-13.73 131.43,-20.61"/>
</g>
</g>
</svg>
