<?xml version="1.0" encoding="UTF-8" standalone="no"?>
<!DOCTYPE svg PUBLIC "-//W3C//DTD SVG 1.1//EN"
 "http://www.w3.org/Graphics/SVG/1.1/DTD/svg11.dtd">
<!-- Generated by graphviz version 9.0.0 (20230911.1827)
 -->
<!-- Title: main Pages: 1 -->
<svg width="374pt" height="46pt"
 viewBox="0.00 0.00 373.50 46.25" xmlns="http://www.w3.org/2000/svg" xmlns:xlink="http://www.w3.org/1999/xlink">

<svg id="main" version="1.1" xmlns="http://www.w3.org/2000/svg" xmlns:xlink="http://www.w3.org/1999/xlink" xml:space="preserve" onload="init(evt)">
<style type="text/css"><![CDATA[
.node, .edge {opacity: 0.7;}
.node.selected, .edge.selected {opacity: 1;}
.edge:hover path { stroke: red; }
.edge:hover polygon { stroke: red; fill: red; }
]]></style>
<script type="application/ecmascript" xlink:href="../../svg.min.js"/>
<svg id="graph" class="graph">
<g id="graph0" class="graph" transform="scale(1 1) rotate(0) translate(4 42.25)">
<title>main</title>
<!-- Node1 -->
<g id="Node000001" class="node">
<title>Node1</title>
<g id="a_Node000001"><a xlink:title="Main function.">
<polygon fill="#999999" stroke="#666666" points="37,-38.25 0,-38.25 0,-19 37,-19 37,-38.25"/>
<text text-anchor="middle" x="18.5" y="-24.75" font-family="Helvetica,sans-Serif" font-size="10.00">main</text>
</a>
</g>
</g>
<!-- Node2 -->
<g id="Node000002" class="node">
<title>Node2</title>
<g id="a_Node000002"><a xlink:href="../../d0/d8a/octal__to__hexadecimal_8c.html#a823ef5170955cfef40e07d9a4d2e87e2" target="_top" xlink:title="Convert octal number to hexadecimal number dynamically allocated memory needs to be freed by the call...">
<polygon fill="white" stroke="#666666" points="246,-38.25 141.5,-38.25 141.5,-19 246,-19 246,-38.25"/>
<text text-anchor="middle" x="193.75" y="-24.75" font-family="Helvetica,sans-Serif" font-size="10.00">octalToHexadecimal</text>
</a>
</g>
</g>
<!-- Node1&#45;&gt;Node2 -->
<g id="edge1_Node000001_Node000002" class="edge">
<title>Node1&#45;&gt;Node2</title>
<g id="a_edge1_Node000001_Node000002"><a xlink:title=" ">
<path fill="none" stroke="#63b8ff" d="M37.39,-28.62C59.12,-28.62 96.96,-28.62 129.85,-28.62"/>
<polygon fill="#63b8ff" stroke="#63b8ff" points="129.73,-32.13 139.73,-28.63 129.73,-25.13 129.73,-32.13"/>
</a>
</g>
</g>
<!-- Node4 -->
<g id="Node000004" class="node">
<title>Node4</title>
<g id="a_Node000004"><a xlink:href="../../d0/d8a/octal__to__hexadecimal_8c.html#aa8dca7b867074164d5f45b0f3851269d" target="_top" xlink:title="Test function.">
<polygon fill="white" stroke="#666666" points="105.5,-19.25 73,-19.25 73,0 105.5,0 105.5,-19.25"/>
<text text-anchor="middle" x="89.25" y="-5.75" font-family="Helvetica,sans-Serif" font-size="10.00">test</text>
</a>
</g>
</g>
<!-- Node1&#45;&gt;Node4 -->
<g id="edge3_Node000001_Node000004" class="edge">
<title>Node1&#45;&gt;Node4</title>
<g id="a_edge3_Node000001_Node000004"><a xlink:title=" ">
<path fill="none" stroke="#63b8ff" d="M37.2,-23.73C44.67,-21.67 53.52,-19.22 61.73,-16.95"/>
<polygon fill="#63b8ff" stroke="#63b8ff" points="62.55,-20.36 71.25,-14.32 60.68,-13.61 62.55,-20.36"/>
</a>
</g>
</g>
<!-- Node3 -->
<g id="Node000003" class="node">
<title>Node3</title>
<g id="a_Node000003"><a xlink:href="../../d0/d8a/octal__to__hexadecimal_8c.html#a86a4edb605c2a03d9175c59de679347d" target="_top" xlink:title="Convert octal number to decimal number.">
<polygon fill="white" stroke="#666666" points="365.5,-38.25 282,-38.25 282,-19 365.5,-19 365.5,-38.25"/>
<text text-anchor="middle" x="323.75" y="-24.75" font-family="Helvetica,sans-Serif" font-size="10.00">octalToDecimal</text>
</a>
</g>
</g>
<!-- Node2&#45;&gt;Node3 -->
<g id="edge2_Node000002_Node000003" class="edge">
<title>Node2&#45;&gt;Node3</title>
<g id="a_edge2_Node000002_Node000003"><a xlink:title=" ">
<path fill="none" stroke="#63b8ff" d="M246.44,-28.62C254.37,-28.62 262.56,-28.62 270.49,-28.62"/>
<polygon fill="#63b8ff" stroke="#63b8ff" points="270.37,-32.13 280.37,-28.63 270.37,-25.13 270.37,-32.13"/>
</a>
</g>
</g>
<!-- Node4&#45;&gt;Node2 -->
<g id="edge4_Node000004_Node000002" class="edge">
<title>Node4&#45;&gt;Node2</title>
<g id="a_edge4_Node000004_Node000002"><a xlink:title=" ">
<path fill="none" stroke="#63b8ff" d="M105.82,-12.51C112.67,-13.78 121.2,-15.36 130.23,-17.04"/>
<polygon fill="#63b8ff" stroke="#63b8ff" points="129.44,-20.45 139.91,-18.83 130.72,-13.57 129.44,-20.45"/>
</a>
</g>
</g>
</g>
</svg>
</svg>

<style type='text/css'>
<![CDATA[
[data-mouse-over-selected='false'] { opacity: 0.7; }
[data-mouse-over-selected='true']  { opacity: 1.0; }
]]>
</style>
<script type="application/ecmascript"><![CDATA[
document.addEventListener('DOMContentLoaded', (event) => {
  highlightEdges();
  highlightAdjacentNodes();
});
]]></script>
</svg>
