<?xml version="1.0" encoding="UTF-8" standalone="no"?>
<!DOCTYPE svg PUBLIC "-//W3C//DTD SVG 1.1//EN"
 "http://www.w3.org/Graphics/SVG/1.1/DTD/svg11.dtd">
<!-- Generated by graphviz version 2.49.3 (20211023.0002)
 -->
<!-- Title: main Pages: 1 -->
<svg width="377pt" height="47pt"
 viewBox="0.00 0.00 377.00 47.00" xmlns="http://www.w3.org/2000/svg" xmlns:xlink="http://www.w3.org/1999/xlink">
<g id="graph0" class="graph" transform="scale(1 1) rotate(0) translate(4 43)">
<title>main</title>
<polygon fill="white" stroke="transparent" points="-4,4 -4,-43 373,-43 373,4 -4,4"/>
<!-- Node1 -->
<g id="node1" class="node">
<title>Node1</title>
<g id="a_node1"><a xlink:title="Main function.">
<polygon fill="#bfbfbf" stroke="black" points="0,-19.5 0,-38.5 38,-38.5 38,-19.5 0,-19.5"/>
<text text-anchor="middle" x="19" y="-26.5" font-family="Helvetica,sans-Serif" font-size="10.00">main</text>
</a>
</g>
</g>
<!-- Node2 -->
<g id="node2" class="node">
<title>Node2</title>
<g id="a_node2"><a xlink:href="../../d0/d8a/octal__to__hexadecimal_8c.html#a823ef5170955cfef40e07d9a4d2e87e2" target="_top" xlink:title="Convert octal number to hexadecimal number dynamically allocated memory needs to be freed by the call...">
<polygon fill="white" stroke="black" points="143,-19.5 143,-38.5 249,-38.5 249,-19.5 143,-19.5"/>
<text text-anchor="middle" x="196" y="-26.5" font-family="Helvetica,sans-Serif" font-size="10.00">octalToHexadecimal</text>
</a>
</g>
</g>
<!-- Node1&#45;&gt;Node2 -->
<g id="edge1" class="edge">
<title>Node1&#45;&gt;Node2</title>
<path fill="none" stroke="midnightblue" d="M38.07,-29C60.31,-29 99.25,-29 132.77,-29"/>
<polygon fill="midnightblue" stroke="midnightblue" points="132.98,-32.5 142.98,-29 132.98,-25.5 132.98,-32.5"/>
</g>
<!-- Node4 -->
<g id="node4" class="node">
<title>Node4</title>
<g id="a_node4"><a xlink:href="../../d0/d8a/octal__to__hexadecimal_8c.html#aa8dca7b867074164d5f45b0f3851269d" target="_top" xlink:title="Test function.">
<polygon fill="white" stroke="black" points="74,-0.5 74,-19.5 107,-19.5 107,-0.5 74,-0.5"/>
<text text-anchor="middle" x="90.5" y="-7.5" font-family="Helvetica,sans-Serif" font-size="10.00">test</text>
</a>
</g>
</g>
<!-- Node1&#45;&gt;Node4 -->
<g id="edge3" class="edge">
<title>Node1&#45;&gt;Node4</title>
<path fill="none" stroke="midnightblue" d="M38.26,-24.01C46.15,-21.85 55.52,-19.29 64.07,-16.95"/>
<polygon fill="midnightblue" stroke="midnightblue" points="65.23,-20.26 73.95,-14.25 63.38,-13.51 65.23,-20.26"/>
</g>
<!-- Node3 -->
<g id="node3" class="node">
<title>Node3</title>
<g id="a_node3"><a xlink:href="../../d0/d8a/octal__to__hexadecimal_8c.html#a86a4edb605c2a03d9175c59de679347d" target="_top" xlink:title="Convert octal number to decimal number.">
<polygon fill="white" stroke="black" points="285,-19.5 285,-38.5 369,-38.5 369,-19.5 285,-19.5"/>
<text text-anchor="middle" x="327" y="-26.5" font-family="Helvetica,sans-Serif" font-size="10.00">octalToDecimal</text>
</a>
</g>
</g>
<!-- Node2&#45;&gt;Node3 -->
<g id="edge2" class="edge">
<title>Node2&#45;&gt;Node3</title>
<path fill="none" stroke="midnightblue" d="M249.1,-29C257.55,-29 266.3,-29 274.73,-29"/>
<polygon fill="midnightblue" stroke="midnightblue" points="274.81,-32.5 284.81,-29 274.81,-25.5 274.81,-32.5"/>
</g>
<!-- Node4&#45;&gt;Node2 -->
<g id="edge4" class="edge">
<title>Node4&#45;&gt;Node2</title>
<path fill="none" stroke="midnightblue" d="M107.22,-12.89C114.44,-14.21 123.51,-15.88 133.07,-17.63"/>
<polygon fill="midnightblue" stroke="midnightblue" points="132.68,-21.12 143.15,-19.48 133.95,-14.23 132.68,-21.12"/>
</g>
</g>
</svg>
