<?xml version="1.0" encoding="UTF-8" standalone="no"?>
<!DOCTYPE svg PUBLIC "-//W3C//DTD SVG 1.1//EN"
 "http://www.w3.org/Graphics/SVG/1.1/DTD/svg11.dtd">
<!-- Generated by graphviz version 8.0.2 (20230410.1723)
 -->
<!-- Title: test Pages: 1 -->
<svg width="302pt" height="27pt"
 viewBox="0.00 0.00 302.00 27.00" xmlns="http://www.w3.org/2000/svg" xmlns:xlink="http://www.w3.org/1999/xlink">
<g id="graph0" class="graph" transform="scale(1 1) rotate(0) translate(4 23)">
<title>test</title>
<!-- Node1 -->
<g id="node1" class="node">
<title>Node1</title>
<g id="a_node1"><a xlink:title="Test function.">
<polygon fill="#999999" stroke="#666666" points="33,-19 0,-19 0,0 33,0 33,-19"/>
<text text-anchor="middle" x="16.5" y="-7" font-family="Helvetica,sans-Serif" font-size="10.00">test</text>
</a>
</g>
</g>
<!-- Node2 -->
<g id="node2" class="node">
<title>Node2</title>
<g id="a_node2"><a xlink:href="../../d0/d8a/octal__to__hexadecimal_8c.html#a823ef5170955cfef40e07d9a4d2e87e2" target="_top" xlink:title="Convert octal number to hexadecimal number dynamically allocated memory needs to be freed by the call...">
<polygon fill="white" stroke="#666666" points="174,-19 69,-19 69,0 174,0 174,-19"/>
<text text-anchor="middle" x="121.5" y="-7" font-family="Helvetica,sans-Serif" font-size="10.00">octalToHexadecimal</text>
</a>
</g>
</g>
<!-- Node1&#45;&gt;Node2 -->
<g id="edge1" class="edge">
<title>Node1&#45;&gt;Node2</title>
<path fill="none" stroke="#63b8ff" d="M33.14,-9.5C40.1,-9.5 48.79,-9.5 57.97,-9.5"/>
<polygon fill="#63b8ff" stroke="#63b8ff" points="57.9,-13 67.9,-9.5 57.9,-6 57.9,-13"/>
</g>
<!-- Node3 -->
<g id="node3" class="node">
<title>Node3</title>
<g id="a_node3"><a xlink:href="../../d0/d8a/octal__to__hexadecimal_8c.html#a86a4edb605c2a03d9175c59de679347d" target="_top" xlink:title="Convert octal number to decimal number.">
<polygon fill="white" stroke="#666666" points="294,-19 210,-19 210,0 294,0 294,-19"/>
<text text-anchor="middle" x="252" y="-7" font-family="Helvetica,sans-Serif" font-size="10.00">octalToDecimal</text>
</a>
</g>
</g>
<!-- Node2&#45;&gt;Node3 -->
<g id="edge2" class="edge">
<title>Node2&#45;&gt;Node3</title>
<path fill="none" stroke="#63b8ff" d="M174.4,-9.5C182.44,-9.5 190.75,-9.5 198.81,-9.5"/>
<polygon fill="#63b8ff" stroke="#63b8ff" points="198.57,-13 208.57,-9.5 198.57,-6 198.57,-13"/>
</g>
</g>
</svg>
