<?xml version="1.0" encoding="UTF-8" standalone="no"?>
<!DOCTYPE svg PUBLIC "-//W3C//DTD SVG 1.1//EN"
 "http://www.w3.org/Graphics/SVG/1.1/DTD/svg11.dtd">
<!-- Generated by graphviz version 8.0.5 (20230430.1635)
 -->
<!-- Title: searching/floyd_cycle_detection_algorithm.c Pages: 1 -->
<svg width="199pt" height="94pt"
 viewBox="0.00 0.00 199.25 93.75" xmlns="http://www.w3.org/2000/svg" xmlns:xlink="http://www.w3.org/1999/xlink">
<g id="graph0" class="graph" transform="scale(1 1) rotate(0) translate(4 89.75)">
<title>searching/floyd_cycle_detection_algorithm.c</title>
<!-- Node1 -->
<g id="Node000001" class="node">
<title>Node1</title>
<g id="a_Node000001"><a xlink:title="Implementation of Floyd&#39;s Cycle Detection algorithm.">
<polygon fill="#999999" stroke="#666666" points="155.75,-85.75 41.5,-85.75 41.5,-55.25 155.75,-55.25 155.75,-85.75"/>
<text text-anchor="start" x="49.5" y="-72.25" font-family="Helvetica,sans-Serif" font-size="10.00">searching/floyd_cycle</text>
<text text-anchor="middle" x="98.62" y="-61" font-family="Helvetica,sans-Serif" font-size="10.00">_detection_algorithm.c</text>
</a>
</g>
</g>
<!-- Node2 -->
<g id="Node000002" class="node">
<title>Node2</title>
<g id="a_Node000002"><a xlink:title=" ">
<polygon fill="#e0e0e0" stroke="#999999" points="51.25,-19.25 0,-19.25 0,0 51.25,0 51.25,-19.25"/>
<text text-anchor="middle" x="25.62" y="-5.75" font-family="Helvetica,sans-Serif" font-size="10.00">assert.h</text>
</a>
</g>
</g>
<!-- Node1&#45;&gt;Node2 -->
<g id="edge1_Node000001_Node000002" class="edge">
<title>Node1&#45;&gt;Node2</title>
<g id="a_edge1_Node000001_Node000002"><a xlink:title=" ">
<path fill="none" stroke="#63b8ff" d="M80.58,-54.95C69.89,-46.33 56.34,-35.4 45.37,-26.55"/>
<polygon fill="#63b8ff" stroke="#63b8ff" points="47.86,-23.25 37.88,-19.7 43.47,-28.7 47.86,-23.25"/>
</a>
</g>
</g>
<!-- Node3 -->
<g id="Node000003" class="node">
<title>Node3</title>
<g id="a_Node000003"><a xlink:title=" ">
<polygon fill="#e0e0e0" stroke="#999999" points="128,-19.25 69.25,-19.25 69.25,0 128,0 128,-19.25"/>
<text text-anchor="middle" x="98.62" y="-5.75" font-family="Helvetica,sans-Serif" font-size="10.00">inttypes.h</text>
</a>
</g>
</g>
<!-- Node1&#45;&gt;Node3 -->
<g id="edge2_Node000001_Node000003" class="edge">
<title>Node1&#45;&gt;Node3</title>
<g id="a_edge2_Node000001_Node000003"><a xlink:title=" ">
<path fill="none" stroke="#63b8ff" d="M98.62,-54.95C98.62,-47.62 98.62,-38.62 98.62,-30.66"/>
<polygon fill="#63b8ff" stroke="#63b8ff" points="102.13,-30.7 98.62,-20.7 95.13,-30.7 102.13,-30.7"/>
</a>
</g>
</g>
<!-- Node4 -->
<g id="Node000004" class="node">
<title>Node4</title>
<g id="a_Node000004"><a xlink:title=" ">
<polygon fill="#e0e0e0" stroke="#999999" points="191.25,-19.25 146,-19.25 146,0 191.25,0 191.25,-19.25"/>
<text text-anchor="middle" x="168.62" y="-5.75" font-family="Helvetica,sans-Serif" font-size="10.00">stdio.h</text>
</a>
</g>
</g>
<!-- Node1&#45;&gt;Node4 -->
<g id="edge3_Node000001_Node000004" class="edge">
<title>Node1&#45;&gt;Node4</title>
<g id="a_edge3_Node000001_Node000004"><a xlink:title=" ">
<path fill="none" stroke="#63b8ff" d="M115.93,-54.95C126.18,-46.33 139.17,-35.4 149.69,-26.55"/>
<polygon fill="#63b8ff" stroke="#63b8ff" points="151.43,-28.82 156.83,-19.7 146.93,-23.46 151.43,-28.82"/>
</a>
</g>
</g>
</g>
</svg>
