<?xml version="1.0" encoding="UTF-8" standalone="no"?>
<!DOCTYPE svg PUBLIC "-//W3C//DTD SVG 1.1//EN"
 "http://www.w3.org/Graphics/SVG/1.1/DTD/svg11.dtd">
<!-- Generated by graphviz version 7.0.6 (20230106.0513)
 -->
<!-- Title: searching/floyd_cycle_detection_algorithm.c Pages: 1 -->
<svg width="202pt" height="93pt"
 viewBox="0.00 0.00 202.00 93.00" xmlns="http://www.w3.org/2000/svg" xmlns:xlink="http://www.w3.org/1999/xlink">
<g id="graph0" class="graph" transform="scale(1 1) rotate(0) translate(4 89)">
<title>searching/floyd_cycle_detection_algorithm.c</title>
<!-- Node1 -->
<g id="node1" class="node">
<title>Node1</title>
<g id="a_node1"><a xlink:title="Implementation of Floyd&#39;s Cycle Detection algorithm.">
<polygon fill="#999999" stroke="#666666" points="157.5,-85 42.5,-85 42.5,-55 157.5,-55 157.5,-85"/>
<text text-anchor="start" x="50.5" y="-73" font-family="Helvetica,sans-Serif" font-size="10.00">searching/floyd_cycle</text>
<text text-anchor="middle" x="100" y="-62" font-family="Helvetica,sans-Serif" font-size="10.00">_detection_algorithm.c</text>
</a>
</g>
</g>
<!-- Node2 -->
<g id="node2" class="node">
<title>Node2</title>
<g id="a_node2"><a xlink:title=" ">
<polygon fill="#e0e0e0" stroke="#999999" points="52,-19 0,-19 0,0 52,0 52,-19"/>
<text text-anchor="middle" x="26" y="-7" font-family="Helvetica,sans-Serif" font-size="10.00">assert.h</text>
</a>
</g>
</g>
<!-- Node1&#45;&gt;Node2 -->
<g id="edge1" class="edge">
<title>Node1&#45;&gt;Node2</title>
<path fill="none" stroke="#63b8ff" d="M81.71,-54.54C70.85,-45.96 57.08,-35.07 45.94,-26.26"/>
<polygon fill="#63b8ff" stroke="#63b8ff" points="48.18,-23.57 38.16,-20.11 43.84,-29.06 48.18,-23.57"/>
</g>
<!-- Node3 -->
<g id="node3" class="node">
<title>Node3</title>
<g id="a_node3"><a xlink:title=" ">
<polygon fill="#e0e0e0" stroke="#999999" points="129.5,-19 70.5,-19 70.5,0 129.5,0 129.5,-19"/>
<text text-anchor="middle" x="100" y="-7" font-family="Helvetica,sans-Serif" font-size="10.00">inttypes.h</text>
</a>
</g>
</g>
<!-- Node1&#45;&gt;Node3 -->
<g id="edge2" class="edge">
<title>Node1&#45;&gt;Node3</title>
<path fill="none" stroke="#63b8ff" d="M100,-54.54C100,-47.34 100,-38.53 100,-30.68"/>
<polygon fill="#63b8ff" stroke="#63b8ff" points="103.5,-30.69 100,-20.69 96.5,-30.69 103.5,-30.69"/>
</g>
<!-- Node4 -->
<g id="node4" class="node">
<title>Node4</title>
<g id="a_node4"><a xlink:title=" ">
<polygon fill="#e0e0e0" stroke="#999999" points="194,-19 148,-19 148,0 194,0 194,-19"/>
<text text-anchor="middle" x="171" y="-7" font-family="Helvetica,sans-Serif" font-size="10.00">stdio.h</text>
</a>
</g>
</g>
<!-- Node1&#45;&gt;Node4 -->
<g id="edge3" class="edge">
<title>Node1&#45;&gt;Node4</title>
<path fill="none" stroke="#63b8ff" d="M117.55,-54.54C127.97,-45.96 141.18,-35.07 151.87,-26.26"/>
<polygon fill="#63b8ff" stroke="#63b8ff" points="153.81,-29.2 159.3,-20.14 149.36,-23.8 153.81,-29.2"/>
</g>
</g>
</svg>
