<?xml version="1.0" encoding="UTF-8" standalone="no"?>
<!DOCTYPE svg PUBLIC "-//W3C//DTD SVG 1.1//EN"
 "http://www.w3.org/Graphics/SVG/1.1/DTD/svg11.dtd">
<!-- Generated by graphviz version 9.0.0 (20230911.1827)
 -->
<!-- Title: math/cantor_set.c Pages: 1 -->
<svg width="185pt" height="83pt"
 viewBox="0.00 0.00 184.75 82.50" xmlns="http://www.w3.org/2000/svg" xmlns:xlink="http://www.w3.org/1999/xlink">
<g id="graph0" class="graph" transform="scale(1 1) rotate(0) translate(4 78.5)">
<title>math/cantor_set.c</title>
<!-- Node1 -->
<g id="Node000001" class="node">
<title>Node1</title>
<g id="a_Node000001"><a xlink:title="Program to generate Cantor ternary set">
<polygon fill="#999999" stroke="#666666" points="134,-74.5 39.25,-74.5 39.25,-55.25 134,-55.25 134,-74.5"/>
<text text-anchor="middle" x="86.62" y="-61" font-family="Helvetica,sans-Serif" font-size="10.00">math/cantor_set.c</text>
</a>
</g>
</g>
<!-- Node2 -->
<g id="Node000002" class="node">
<title>Node2</title>
<g id="a_Node000002"><a xlink:title=" ">
<polygon fill="#e0e0e0" stroke="#999999" points="45.25,-19.25 0,-19.25 0,0 45.25,0 45.25,-19.25"/>
<text text-anchor="middle" x="22.62" y="-5.75" font-family="Helvetica,sans-Serif" font-size="10.00">stdio.h</text>
</a>
</g>
</g>
<!-- Node1&#45;&gt;Node2 -->
<g id="edge1_Node000001_Node000002" class="edge">
<title>Node1&#45;&gt;Node2</title>
<g id="a_edge1_Node000001_Node000002"><a xlink:title=" ">
<path fill="none" stroke="#63b8ff" d="M75.77,-54.84C66.52,-47.15 53,-35.9 41.92,-26.68"/>
<polygon fill="#63b8ff" stroke="#63b8ff" points="44.41,-24.2 34.48,-20.49 39.93,-29.58 44.41,-24.2"/>
</a>
</g>
</g>
<!-- Node3 -->
<g id="Node000003" class="node">
<title>Node3</title>
<g id="a_Node000003"><a xlink:title=" ">
<polygon fill="#e0e0e0" stroke="#999999" points="110.38,-19.25 62.88,-19.25 62.88,0 110.38,0 110.38,-19.25"/>
<text text-anchor="middle" x="86.62" y="-5.75" font-family="Helvetica,sans-Serif" font-size="10.00">stdlib.h</text>
</a>
</g>
</g>
<!-- Node1&#45;&gt;Node3 -->
<g id="edge2_Node000001_Node000003" class="edge">
<title>Node1&#45;&gt;Node3</title>
<g id="a_edge2_Node000001_Node000003"><a xlink:title=" ">
<path fill="none" stroke="#63b8ff" d="M86.62,-55.08C86.62,-48.57 86.62,-39.42 86.62,-31.12"/>
<polygon fill="#63b8ff" stroke="#63b8ff" points="90.13,-31.12 86.63,-21.12 83.13,-31.12 90.13,-31.12"/>
</a>
</g>
</g>
<!-- Node4 -->
<g id="Node000004" class="node">
<title>Node4</title>
<g id="a_Node000004"><a xlink:title=" ">
<polygon fill="#e0e0e0" stroke="#999999" points="176.75,-19.25 128.5,-19.25 128.5,0 176.75,0 176.75,-19.25"/>
<text text-anchor="middle" x="152.62" y="-5.75" font-family="Helvetica,sans-Serif" font-size="10.00">string.h</text>
</a>
</g>
</g>
<!-- Node1&#45;&gt;Node4 -->
<g id="edge3_Node000001_Node000004" class="edge">
<title>Node1&#45;&gt;Node4</title>
<g id="a_edge3_Node000001_Node000004"><a xlink:title=" ">
<path fill="none" stroke="#63b8ff" d="M97.82,-54.84C107.36,-47.15 121.3,-35.9 132.73,-26.68"/>
<polygon fill="#63b8ff" stroke="#63b8ff" points="134.83,-29.48 140.42,-20.48 130.44,-24.03 134.83,-29.48"/>
</a>
</g>
</g>
</g>
</svg>
