<?xml version="1.0" encoding="UTF-8" standalone="no"?>
<!DOCTYPE svg PUBLIC "-//W3C//DTD SVG 1.1//EN"
 "http://www.w3.org/Graphics/SVG/1.1/DTD/svg11.dtd">
<!-- Generated by graphviz version 7.0.6 (20230106.0513)
 -->
<!-- Title: main Pages: 1 -->
<svg width="226pt" height="46pt"
 viewBox="0.00 0.00 226.00 46.00" xmlns="http://www.w3.org/2000/svg" xmlns:xlink="http://www.w3.org/1999/xlink">
<g id="graph0" class="graph" transform="scale(1 1) rotate(0) translate(4 42)">
<title>main</title>
<!-- Node1 -->
<g id="node1" class="node">
<title>Node1</title>
<g id="a_node1"><a xlink:title="the main function take one argument of type char* example : .">
<polygon fill="#999999" stroke="#666666" points="38,-38 0,-38 0,-19 38,-19 38,-38"/>
<text text-anchor="middle" x="19" y="-26" font-family="Helvetica,sans-Serif" font-size="10.00">main</text>
</a>
</g>
</g>
<!-- Node2 -->
<g id="node2" class="node">
<title>Node2</title>
<g id="a_node2"><a xlink:href="../../d7/dd8/c__atoi__str__to__integer_8c.html#ad19049ebfc2088bc1e75e7e958f7b60f" target="_top" xlink:title="the function take a string and return an integer">
<polygon fill="white" stroke="#666666" points="218,-38 175,-38 175,-19 218,-19 218,-38"/>
<text text-anchor="middle" x="196.5" y="-26" font-family="Helvetica,sans-Serif" font-size="10.00">c_atoi</text>
</a>
</g>
</g>
<!-- Node1&#45;&gt;Node2 -->
<g id="edge1" class="edge">
<title>Node1&#45;&gt;Node2</title>
<path fill="none" stroke="#63b8ff" d="M38.45,-28.5C68.15,-28.5 126.93,-28.5 163.55,-28.5"/>
<polygon fill="#63b8ff" stroke="#63b8ff" points="163.08,-32 173.08,-28.5 163.08,-25 163.08,-32"/>
</g>
<!-- Node3 -->
<g id="node3" class="node">
<title>Node3</title>
<g id="a_node3"><a xlink:href="../../d7/dd8/c__atoi__str__to__integer_8c.html#a8c66c03637e48e375b80b5d7791e57be" target="_top" xlink:title="test the function implementation">
<polygon fill="white" stroke="#666666" points="139,-19 74,-19 74,0 139,0 139,-19"/>
<text text-anchor="middle" x="106.5" y="-7" font-family="Helvetica,sans-Serif" font-size="10.00">test_c_atoi</text>
</a>
</g>
</g>
<!-- Node1&#45;&gt;Node3 -->
<g id="edge2" class="edge">
<title>Node1&#45;&gt;Node3</title>
<path fill="none" stroke="#63b8ff" d="M38.13,-24.47C45.29,-22.88 53.84,-20.98 62.42,-19.07"/>
<polygon fill="#63b8ff" stroke="#63b8ff" points="63.1,-22.51 72.1,-16.92 61.58,-15.67 63.1,-22.51"/>
</g>
<!-- Node3&#45;&gt;Node2 -->
<g id="edge3" class="edge">
<title>Node3&#45;&gt;Node2</title>
<path fill="none" stroke="#63b8ff" d="M139.27,-16.36C147.21,-18.07 155.72,-19.91 163.67,-21.63"/>
<polygon fill="#63b8ff" stroke="#63b8ff" points="162.76,-25.01 173.28,-23.7 164.24,-18.17 162.76,-25.01"/>
</g>
</g>
</svg>
