<?xml version="1.0" encoding="UTF-8" standalone="no"?>
<!DOCTYPE svg PUBLIC "-//W3C//DTD SVG 1.1//EN"
 "http://www.w3.org/Graphics/SVG/1.1/DTD/svg11.dtd">
<!-- Generated by graphviz version 3.0.0 (20220226.1711)
 -->
<!-- Title: main Pages: 1 -->
<svg width="226pt" height="47pt"
 viewBox="0.00 0.00 226.00 47.00" xmlns="http://www.w3.org/2000/svg" xmlns:xlink="http://www.w3.org/1999/xlink">
<g id="graph0" class="graph" transform="scale(1 1) rotate(0) translate(4 43)">
<title>main</title>
<polygon fill="white" stroke="transparent" points="-4,4 -4,-43 222,-43 222,4 -4,4"/>
<!-- Node1 -->
<g id="node1" class="node">
<title>Node1</title>
<g id="a_node1"><a xlink:title="the main function take one argument of type char* example : .">
<polygon fill="#bfbfbf" stroke="black" points="0,-19.5 0,-38.5 38,-38.5 38,-19.5 0,-19.5"/>
<text text-anchor="middle" x="19" y="-26.5" font-family="Helvetica,sans-Serif" font-size="10.00">main</text>
</a>
</g>
</g>
<!-- Node2 -->
<g id="node2" class="node">
<title>Node2</title>
<g id="a_node2"><a xlink:href="../../d7/dd8/c__atoi__str__to__integer_8c.html#ad19049ebfc2088bc1e75e7e958f7b60f" target="_top" xlink:title="the function take a string and return an integer">
<polygon fill="white" stroke="black" points="175,-19.5 175,-38.5 218,-38.5 218,-19.5 175,-19.5"/>
<text text-anchor="middle" x="196.5" y="-26.5" font-family="Helvetica,sans-Serif" font-size="10.00">c_atoi</text>
</a>
</g>
</g>
<!-- Node1&#45;&gt;Node2 -->
<g id="edge1" class="edge">
<title>Node1&#45;&gt;Node2</title>
<path fill="none" stroke="midnightblue" d="M38.12,-29C68.01,-29 127.99,-29 164.65,-29"/>
<polygon fill="midnightblue" stroke="midnightblue" points="164.78,-32.5 174.78,-29 164.78,-25.5 164.78,-32.5"/>
</g>
<!-- Node3 -->
<g id="node3" class="node">
<title>Node3</title>
<g id="a_node3"><a xlink:href="../../d7/dd8/c__atoi__str__to__integer_8c.html#a8c66c03637e48e375b80b5d7791e57be" target="_top" xlink:title="test the function implementation">
<polygon fill="white" stroke="black" points="74,-0.5 74,-19.5 139,-19.5 139,-0.5 74,-0.5"/>
<text text-anchor="middle" x="106.5" y="-7.5" font-family="Helvetica,sans-Serif" font-size="10.00">test_c_atoi</text>
</a>
</g>
</g>
<!-- Node1&#45;&gt;Node3 -->
<g id="edge2" class="edge">
<title>Node1&#45;&gt;Node3</title>
<path fill="none" stroke="midnightblue" d="M38.13,-24.97C45.76,-23.27 54.98,-21.23 64.12,-19.2"/>
<polygon fill="midnightblue" stroke="midnightblue" points="64.92,-22.6 73.92,-17.02 63.4,-15.77 64.92,-22.6"/>
</g>
<!-- Node3&#45;&gt;Node2 -->
<g id="edge3" class="edge">
<title>Node3&#45;&gt;Node2</title>
<path fill="none" stroke="midnightblue" d="M139.27,-16.86C147.58,-18.65 156.52,-20.58 164.77,-22.37"/>
<polygon fill="midnightblue" stroke="midnightblue" points="164.24,-25.83 174.76,-24.52 165.72,-18.99 164.24,-25.83"/>
</g>
</g>
</svg>
