<?xml version="1.0" encoding="UTF-8" standalone="no"?>
<!DOCTYPE svg PUBLIC "-//W3C//DTD SVG 1.1//EN"
 "http://www.w3.org/Graphics/SVG/1.1/DTD/svg11.dtd">
<!-- Generated by graphviz version 7.0.6 (20230106.0513)
 -->
<!-- Title: min_printf Pages: 1 -->
<svg width="474pt" height="289pt"
 viewBox="0.00 0.00 474.00 289.00" xmlns="http://www.w3.org/2000/svg" xmlns:xlink="http://www.w3.org/1999/xlink">
<g id="graph0" class="graph" transform="scale(1 1) rotate(0) translate(4 285)">
<title>min_printf</title>
<!-- Node1 -->
<g id="node1" class="node">
<title>Node1</title>
<g id="a_node1"><a xlink:title="min_printf is the function same as printf">
<polygon fill="#999999" stroke="#666666" points="59,-187 0,-187 0,-168 59,-168 59,-187"/>
<text text-anchor="middle" x="29.5" y="-175" font-family="Helvetica,sans-Serif" font-size="10.00">min_printf</text>
</a>
</g>
</g>
<!-- Node2 -->
<g id="node2" class="node">
<title>Node2</title>
<g id="a_node2"><a xlink:href="../../d9/deb/min__printf_8h.html#a409d428c337bf5476567a228274f49f1" target="_top" xlink:title="Returns specific required next character.">
<polygon fill="white" stroke="#666666" points="180,-281 134,-281 134,-262 180,-262 180,-281"/>
<text text-anchor="middle" x="157" y="-269" font-family="Helvetica,sans-Serif" font-size="10.00">get_ch</text>
</a>
</g>
</g>
<!-- Node1&#45;&gt;Node2 -->
<g id="edge1" class="edge">
<title>Node1&#45;&gt;Node2</title>
<path fill="none" stroke="#63b8ff" d="M36.12,-187.24C45.96,-203.43 67.88,-235.85 95,-253.5 103.22,-258.85 113.09,-262.66 122.46,-265.35"/>
<polygon fill="#63b8ff" stroke="#63b8ff" points="121.5,-268.71 132.05,-267.73 123.19,-261.92 121.5,-268.71"/>
</g>
<!-- Node3 -->
<g id="node3" class="node">
<title>Node3</title>
<g id="a_node3"><a xlink:href="../../d9/deb/min__printf_8h.html#aa61e2407aab2c75e9837c77cab937d03" target="_top" xlink:title="Takes width and precision specified from the format of the string.">
<polygon fill="white" stroke="#666666" points="219,-244 95,-244 95,-225 219,-225 219,-244"/>
<text text-anchor="middle" x="157" y="-232" font-family="Helvetica,sans-Serif" font-size="10.00">get_width_and_precision</text>
</a>
</g>
</g>
<!-- Node1&#45;&gt;Node3 -->
<g id="edge2" class="edge">
<title>Node1&#45;&gt;Node3</title>
<path fill="none" stroke="#63b8ff" d="M48.62,-187.37C61.42,-194.2 79.06,-203.31 95,-210.5 102.47,-213.87 110.57,-217.25 118.35,-220.36"/>
<polygon fill="#63b8ff" stroke="#63b8ff" points="117.04,-223.6 127.63,-223.99 119.6,-217.09 117.04,-223.6"/>
</g>
<!-- Node6 -->
<g id="node6" class="node">
<title>Node6</title>
<g id="a_node6"><a xlink:href="../../d9/deb/min__printf_8h.html#a4d63203d920bebd6a96f5f4aeccb21e5" target="_top" xlink:title="The algorithm here is also the same as the print_int_value function.">
<polygon fill="white" stroke="#666666" points="206,-168 108,-168 108,-149 206,-149 206,-168"/>
<text text-anchor="middle" x="157" y="-156" font-family="Helvetica,sans-Serif" font-size="10.00">print_double_value</text>
</a>
</g>
</g>
<!-- Node1&#45;&gt;Node6 -->
<g id="edge5" class="edge">
<title>Node1&#45;&gt;Node6</title>
<path fill="none" stroke="#63b8ff" d="M59.29,-173.14C70.37,-171.46 83.48,-169.48 96.4,-167.52"/>
<polygon fill="#63b8ff" stroke="#63b8ff" points="96.8,-171 106.17,-166.04 95.75,-164.08 96.8,-171"/>
</g>
<!-- Node9 -->
<g id="node9" class="node">
<title>Node9</title>
<g id="a_node9"><a xlink:href="../../d9/deb/min__printf_8h.html#a0a848efdf2ee124bba62e056eb9ab824" target="_top" xlink:title=" ">
<polygon fill="white" stroke="#666666" points="350,-207 270,-207 270,-188 350,-188 350,-207"/>
<text text-anchor="middle" x="310" y="-195" font-family="Helvetica,sans-Serif" font-size="10.00">print_int_value</text>
</a>
</g>
</g>
<!-- Node1&#45;&gt;Node9 -->
<g id="edge12" class="edge">
<title>Node1&#45;&gt;Node9</title>
<path fill="none" stroke="#63b8ff" d="M59.26,-179.57C106.29,-182.94 200.27,-189.69 258.58,-193.88"/>
<polygon fill="#63b8ff" stroke="#63b8ff" points="258,-197.35 268.23,-194.57 258.5,-190.36 258,-197.35"/>
</g>
<!-- Node10 -->
<g id="node10" class="node">
<title>Node10</title>
<g id="a_node10"><a xlink:href="../../d9/deb/min__printf_8h.html#ad2f9a02e1d69f58e2fb1248f49d09f4b" target="_top" xlink:title="Prints one character on screen.">
<polygon fill="white" stroke="#666666" points="460.5,-76 406.5,-76 406.5,-57 460.5,-57 460.5,-76"/>
<text text-anchor="middle" x="433.5" y="-64" font-family="Helvetica,sans-Serif" font-size="10.00">put_char</text>
</a>
</g>
</g>
<!-- Node1&#45;&gt;Node10 -->
<g id="edge15" class="edge">
<title>Node1&#45;&gt;Node10</title>
<path fill="none" stroke="#63b8ff" d="M45.72,-167.58C80.83,-145.37 170.91,-92.13 255,-73.5 302.34,-63.01 358.48,-62.77 394.76,-64.14"/>
<polygon fill="#63b8ff" stroke="#63b8ff" points="394.6,-67.64 404.75,-64.59 394.92,-60.64 394.6,-67.64"/>
</g>
<!-- Node12 -->
<g id="node12" class="node">
<title>Node12</title>
<g id="a_node12"><a xlink:href="../../d9/deb/min__printf_8h.html#af569209570eca8bc6770fb7d9dc873e6" target="_top" xlink:title=" ">
<polygon fill="white" stroke="#666666" points="189.5,-19 124.5,-19 124.5,0 189.5,0 189.5,-19"/>
<text text-anchor="middle" x="157" y="-7" font-family="Helvetica,sans-Serif" font-size="10.00">print_string</text>
</a>
</g>
</g>
<!-- Node1&#45;&gt;Node12 -->
<g id="edge13" class="edge">
<title>Node1&#45;&gt;Node12</title>
<path fill="none" stroke="#63b8ff" d="M32.25,-167.63C37.29,-141.97 54.19,-72.47 95,-33.5 100.42,-28.33 107.09,-24.23 114,-20.99"/>
<polygon fill="#63b8ff" stroke="#63b8ff" points="114.85,-24.42 122.79,-17.41 112.21,-17.94 114.85,-24.42"/>
</g>
<!-- Node4 -->
<g id="node4" class="node">
<title>Node4</title>
<g id="a_node4"><a xlink:href="../../d9/deb/min__printf_8h.html#ad4908ab912d8dc481225e33ca3285c21" target="_top" xlink:title="Checks if a character is a number.">
<polygon fill="white" stroke="#666666" points="341,-281 279,-281 279,-262 341,-262 341,-281"/>
<text text-anchor="middle" x="310" y="-269" font-family="Helvetica,sans-Serif" font-size="10.00">is_number</text>
</a>
</g>
</g>
<!-- Node3&#45;&gt;Node4 -->
<g id="edge3" class="edge">
<title>Node3&#45;&gt;Node4</title>
<path fill="none" stroke="#63b8ff" d="M198.47,-244.42C219.94,-249.68 246.27,-256.13 267.85,-261.42"/>
<polygon fill="#63b8ff" stroke="#63b8ff" points="266.95,-264.8 277.5,-263.78 268.62,-258 266.95,-264.8"/>
</g>
<!-- Node5 -->
<g id="node5" class="node">
<title>Node5</title>
<g id="a_node5"><a xlink:href="../../d9/deb/min__printf_8h.html#aa8a17b7d234a2fb2174da02074a14055" target="_top" xlink:title="Stores character to the buffer&#45;&gt;buffr_char">
<polygon fill="white" stroke="#666666" points="338,-244 282,-244 282,-225 338,-225 338,-244"/>
<text text-anchor="middle" x="310" y="-232" font-family="Helvetica,sans-Serif" font-size="10.00">unget_ch</text>
</a>
</g>
</g>
<!-- Node3&#45;&gt;Node5 -->
<g id="edge4" class="edge">
<title>Node3&#45;&gt;Node5</title>
<path fill="none" stroke="#63b8ff" d="M219.42,-234.5C236.72,-234.5 255.06,-234.5 270.6,-234.5"/>
<polygon fill="#63b8ff" stroke="#63b8ff" points="270.36,-238 280.36,-234.5 270.36,-231 270.36,-238"/>
</g>
<!-- Node7 -->
<g id="node7" class="node">
<title>Node7</title>
<g id="a_node7"><a xlink:href="../../d9/deb/min__printf_8h.html#aefb40d94d5d9fa2a28bc64755dde096f" target="_top" xlink:title="Calculates the number of digits in a number.">
<polygon fill="white" stroke="#666666" points="365,-133 255,-133 255,-114 365,-114 365,-133"/>
<text text-anchor="middle" x="310" y="-121" font-family="Helvetica,sans-Serif" font-size="10.00">get_number_of_digits</text>
</a>
</g>
</g>
<!-- Node6&#45;&gt;Node7 -->
<g id="edge6" class="edge">
<title>Node6&#45;&gt;Node7</title>
<path fill="none" stroke="#63b8ff" d="M200.87,-148.56C217.68,-144.67 237.17,-140.15 254.94,-136.03"/>
<polygon fill="#63b8ff" stroke="#63b8ff" points="255.6,-139.47 264.55,-133.8 254.02,-132.65 255.6,-139.47"/>
</g>
<!-- Node8 -->
<g id="node8" class="node">
<title>Node8</title>
<g id="a_node8"><a xlink:href="../../d9/deb/min__printf_8h.html#a8421f89b76edcf21292c5100bfca586b" target="_top" xlink:title=" ">
<polygon fill="white" stroke="#666666" points="347.5,-170 272.5,-170 272.5,-151 347.5,-151 347.5,-170"/>
<text text-anchor="middle" x="310" y="-158" font-family="Helvetica,sans-Serif" font-size="10.00">power_of_ten</text>
</a>
</g>
</g>
<!-- Node6&#45;&gt;Node8 -->
<g id="edge7" class="edge">
<title>Node6&#45;&gt;Node8</title>
<path fill="none" stroke="#63b8ff" d="M206.19,-159.14C223.67,-159.37 243.4,-159.63 260.87,-159.86"/>
<polygon fill="#63b8ff" stroke="#63b8ff" points="260.7,-163.36 270.75,-159.99 260.79,-156.36 260.7,-163.36"/>
</g>
<!-- Node6&#45;&gt;Node9 -->
<g id="edge8" class="edge">
<title>Node6&#45;&gt;Node9</title>
<path fill="none" stroke="#63b8ff" d="M196.49,-168.44C215.59,-173.37 238.88,-179.39 259.31,-184.66"/>
<polygon fill="#63b8ff" stroke="#63b8ff" points="258.29,-188.02 268.85,-187.13 260.04,-181.24 258.29,-188.02"/>
</g>
<!-- Node6&#45;&gt;Node10 -->
<g id="edge11" class="edge">
<title>Node6&#45;&gt;Node10</title>
<path fill="none" stroke="#63b8ff" d="M172.82,-148.66C191.31,-136.79 224.27,-117 255,-105.5 301.79,-87.98 358.62,-77.21 395.16,-71.55"/>
<polygon fill="#63b8ff" stroke="#63b8ff" points="395.4,-75.05 404.77,-70.11 394.36,-68.13 395.4,-75.05"/>
</g>
<!-- Node9&#45;&gt;Node10 -->
<g id="edge9" class="edge">
<title>Node9&#45;&gt;Node10</title>
<path fill="none" stroke="#63b8ff" d="M350.48,-188.06C355.68,-185.78 360.69,-182.97 365,-179.5 395.75,-154.78 415.73,-112.01 425.47,-86.77"/>
<polygon fill="#63b8ff" stroke="#63b8ff" points="428.66,-88.26 428.82,-77.67 422.08,-85.85 428.66,-88.26"/>
</g>
<!-- Node11 -->
<g id="node11" class="node">
<title>Node11</title>
<g id="a_node11"><a xlink:href="../../d9/deb/min__printf_8h.html#a8d68ec60643cacdb402176549565754e" target="_top" xlink:title="Reverses a string using two pointer algorithm">
<polygon fill="white" stroke="#666666" points="466,-207 401,-207 401,-188 466,-188 466,-207"/>
<text text-anchor="middle" x="433.5" y="-195" font-family="Helvetica,sans-Serif" font-size="10.00">reverse_str</text>
</a>
</g>
</g>
<!-- Node9&#45;&gt;Node11 -->
<g id="edge10" class="edge">
<title>Node9&#45;&gt;Node11</title>
<path fill="none" stroke="#63b8ff" d="M350.45,-197.5C362.86,-197.5 376.63,-197.5 389.3,-197.5"/>
<polygon fill="#63b8ff" stroke="#63b8ff" points="389.03,-201 399.03,-197.5 389.03,-194 389.03,-201"/>
</g>
<!-- Node12&#45;&gt;Node10 -->
<g id="edge14" class="edge">
<title>Node12&#45;&gt;Node10</title>
<path fill="none" stroke="#63b8ff" d="M189.87,-9.87C231.1,-11.1 304.76,-15.85 365,-33.5 379.23,-37.67 394.14,-44.65 406.31,-51.11"/>
<polygon fill="#63b8ff" stroke="#63b8ff" points="404.45,-54.08 414.89,-55.85 407.83,-47.95 404.45,-54.08"/>
</g>
</g>
</svg>
