<?xml version="1.0" encoding="UTF-8" standalone="no"?>
<!DOCTYPE svg PUBLIC "-//W3C//DTD SVG 1.1//EN"
 "http://www.w3.org/Graphics/SVG/1.1/DTD/svg11.dtd">
<!-- Generated by graphviz version 9.0.0 (20230911.1827)
 -->
<!-- Title: print_double_value Pages: 1 -->
<svg width="351pt" height="140pt"
 viewBox="0.00 0.00 350.75 140.25" xmlns="http://www.w3.org/2000/svg" xmlns:xlink="http://www.w3.org/1999/xlink">

<svg id="main" version="1.1" xmlns="http://www.w3.org/2000/svg" xmlns:xlink="http://www.w3.org/1999/xlink" xml:space="preserve" onload="init(evt)">
<style type="text/css"><![CDATA[
.node, .edge {opacity: 0.7;}
.node.selected, .edge.selected {opacity: 1;}
.edge:hover path { stroke: red; }
.edge:hover polygon { stroke: red; fill: red; }
]]></style>
<script type="application/ecmascript" xlink:href="../../svg.min.js"/>
<svg id="graph" class="graph">
<g id="graph0" class="graph" transform="scale(1 1) rotate(0) translate(4 136.25)">
<title>print_double_value</title>
<!-- Node1 -->
<g id="Node000001" class="node">
<title>Node1</title>
<g id="a_Node000001"><a xlink:title="The algorithm here is also the same as the print_int_value function.">
<polygon fill="#999999" stroke="#666666" points="97,-76.25 0,-76.25 0,-57 97,-57 97,-76.25"/>
<text text-anchor="middle" x="48.5" y="-62.75" font-family="Helvetica,sans-Serif" font-size="10.00">print_double_value</text>
</a>
</g>
</g>
<!-- Node2 -->
<g id="Node000002" class="node">
<title>Node2</title>
<g id="a_Node000002"><a xlink:href="../../d9/deb/min__printf_8h.html#aefb40d94d5d9fa2a28bc64755dde096f" target="_top" xlink:title="Calculates the number of digits in a number.">
<polygon fill="white" stroke="#666666" points="242,-132.25 133,-132.25 133,-113 242,-113 242,-132.25"/>
<text text-anchor="middle" x="187.5" y="-118.75" font-family="Helvetica,sans-Serif" font-size="10.00">get_number_of_digits</text>
</a>
</g>
</g>
<!-- Node1&#45;&gt;Node2 -->
<g id="edge1_Node000001_Node000002" class="edge">
<title>Node1&#45;&gt;Node2</title>
<g id="a_edge1_Node000001_Node000002"><a xlink:title=" ">
<path fill="none" stroke="#63b8ff" d="M69.84,-76.59C86.59,-84.62 111.07,-95.97 133,-104.62 136.62,-106.05 140.4,-107.47 144.21,-108.85"/>
<polygon fill="#63b8ff" stroke="#63b8ff" points="142.88,-112.09 153.48,-112.09 145.19,-105.48 142.88,-112.09"/>
</a>
</g>
</g>
<!-- Node3 -->
<g id="Node000003" class="node">
<title>Node3</title>
<g id="a_Node000003"><a xlink:href="../../d9/deb/min__printf_8h.html#a8421f89b76edcf21292c5100bfca586b" target="_top" xlink:title=" ">
<polygon fill="white" stroke="#666666" points="224.75,-95.25 150.25,-95.25 150.25,-76 224.75,-76 224.75,-95.25"/>
<text text-anchor="middle" x="187.5" y="-81.75" font-family="Helvetica,sans-Serif" font-size="10.00">power_of_ten</text>
</a>
</g>
</g>
<!-- Node1&#45;&gt;Node3 -->
<g id="edge2_Node000001_Node000003" class="edge">
<title>Node1&#45;&gt;Node3</title>
<g id="a_edge2_Node000001_Node000003"><a xlink:title=" ">
<path fill="none" stroke="#63b8ff" d="M97.42,-73.27C110.78,-75.12 125.31,-77.14 138.67,-78.99"/>
<polygon fill="#63b8ff" stroke="#63b8ff" points="138.17,-82.46 148.56,-80.36 139.13,-75.52 138.17,-82.46"/>
</a>
</g>
</g>
<!-- Node4 -->
<g id="Node000004" class="node">
<title>Node4</title>
<g id="a_Node000004"><a xlink:href="../../d9/deb/min__printf_8h.html#a0a848efdf2ee124bba62e056eb9ab824" target="_top" xlink:title=" ">
<polygon fill="white" stroke="#666666" points="227,-19.25 148,-19.25 148,0 227,0 227,-19.25"/>
<text text-anchor="middle" x="187.5" y="-5.75" font-family="Helvetica,sans-Serif" font-size="10.00">print_int_value</text>
</a>
</g>
</g>
<!-- Node1&#45;&gt;Node4 -->
<g id="edge3_Node000001_Node000004" class="edge">
<title>Node1&#45;&gt;Node4</title>
<g id="a_edge3_Node000001_Node000004"><a xlink:title=" ">
<path fill="none" stroke="#63b8ff" d="M73.68,-56.57C95.39,-47.53 127.53,-34.16 151.95,-24"/>
<polygon fill="#63b8ff" stroke="#63b8ff" points="153.28,-27.24 161.17,-20.17 150.59,-20.78 153.28,-27.24"/>
</a>
</g>
</g>
<!-- Node5 -->
<g id="Node000005" class="node">
<title>Node5</title>
<g id="a_Node000005"><a xlink:href="../../d9/deb/min__printf_8h.html#ad2f9a02e1d69f58e2fb1248f49d09f4b" target="_top" xlink:title="Prints one character on screen.">
<polygon fill="white" stroke="#666666" points="337.12,-56.25 283.62,-56.25 283.62,-37 337.12,-37 337.12,-56.25"/>
<text text-anchor="middle" x="310.38" y="-42.75" font-family="Helvetica,sans-Serif" font-size="10.00">put_char</text>
</a>
</g>
</g>
<!-- Node1&#45;&gt;Node5 -->
<g id="edge6_Node000001_Node000005" class="edge">
<title>Node1&#45;&gt;Node5</title>
<g id="a_edge6_Node000001_Node000005"><a xlink:title=" ">
<path fill="none" stroke="#63b8ff" d="M97.47,-62.93C147.93,-59.05 226.26,-53.02 272.22,-49.48"/>
<polygon fill="#63b8ff" stroke="#63b8ff" points="272.23,-52.99 281.94,-48.74 271.7,-46.01 272.23,-52.99"/>
</a>
</g>
</g>
<!-- Node4&#45;&gt;Node5 -->
<g id="edge4_Node000004_Node000005" class="edge">
<title>Node4&#45;&gt;Node5</title>
<g id="a_edge4_Node000004_Node000005"><a xlink:title=" ">
<path fill="none" stroke="#63b8ff" d="M221.53,-19.74C237.32,-24.57 256.27,-30.37 272.53,-35.35"/>
<polygon fill="#63b8ff" stroke="#63b8ff" points="271.24,-38.61 281.83,-38.19 273.29,-31.92 271.24,-38.61"/>
</a>
</g>
</g>
<!-- Node6 -->
<g id="Node000006" class="node">
<title>Node6</title>
<g id="a_Node000006"><a xlink:href="../../d9/deb/min__printf_8h.html#a8d68ec60643cacdb402176549565754e" target="_top" xlink:title="Reverses a string using two pointer algorithm">
<polygon fill="white" stroke="#666666" points="342.75,-19.25 278,-19.25 278,0 342.75,0 342.75,-19.25"/>
<text text-anchor="middle" x="310.38" y="-5.75" font-family="Helvetica,sans-Serif" font-size="10.00">reverse_str</text>
</a>
</g>
</g>
<!-- Node4&#45;&gt;Node6 -->
<g id="edge5_Node000004_Node000006" class="edge">
<title>Node4&#45;&gt;Node6</title>
<g id="a_edge5_Node000004_Node000006"><a xlink:title=" ">
<path fill="none" stroke="#63b8ff" d="M227.41,-9.62C239.88,-9.62 253.76,-9.62 266.49,-9.62"/>
<polygon fill="#63b8ff" stroke="#63b8ff" points="266.29,-13.13 276.29,-9.63 266.29,-6.13 266.29,-13.13"/>
</a>
</g>
</g>
</g>
</svg>
</svg>

<style type='text/css'>
<![CDATA[
[data-mouse-over-selected='false'] { opacity: 0.7; }
[data-mouse-over-selected='true']  { opacity: 1.0; }
]]>
</style>
<script type="application/ecmascript"><![CDATA[
document.addEventListener('DOMContentLoaded', (event) => {
  highlightEdges();
  highlightAdjacentNodes();
});
]]></script>
</svg>
