<?xml version="1.0" encoding="UTF-8" standalone="no"?>
<!DOCTYPE svg PUBLIC "-//W3C//DTD SVG 1.1//EN"
 "http://www.w3.org/Graphics/SVG/1.1/DTD/svg11.dtd">
<!-- Generated by graphviz version 9.0.0 (20230911.1827)
 -->
<!-- Title: get_width_and_precision Pages: 1 -->
<svg width="228pt" height="64pt"
 viewBox="0.00 0.00 228.25 64.25" xmlns="http://www.w3.org/2000/svg" xmlns:xlink="http://www.w3.org/1999/xlink">
<g id="graph0" class="graph" transform="scale(1 1) rotate(0) translate(4 60.25)">
<title>get_width_and_precision</title>
<!-- Node1 -->
<g id="Node000001" class="node">
<title>Node1</title>
<g id="a_Node000001"><a xlink:title="Takes width and precision specified from the format of the string.">
<polygon fill="#999999" stroke="#666666" points="123.25,-37.25 0,-37.25 0,-18 123.25,-18 123.25,-37.25"/>
<text text-anchor="middle" x="61.62" y="-23.75" font-family="Helvetica,sans-Serif" font-size="10.00">get_width_and_precision</text>
</a>
</g>
</g>
<!-- Node2 -->
<g id="Node000002" class="node">
<title>Node2</title>
<g id="a_Node000002"><a xlink:href="../../d9/deb/min__printf_8h.html#ad4908ab912d8dc481225e33ca3285c21" target="_top" xlink:title="Checks if a character is a number.">
<polygon fill="white" stroke="#666666" points="220.25,-56.25 159.25,-56.25 159.25,-37 220.25,-37 220.25,-56.25"/>
<text text-anchor="middle" x="189.75" y="-42.75" font-family="Helvetica,sans-Serif" font-size="10.00">is_number</text>
</a>
</g>
</g>
<!-- Node1&#45;&gt;Node2 -->
<g id="edge1_Node000001_Node000002" class="edge">
<title>Node1&#45;&gt;Node2</title>
<g id="a_edge1_Node000001_Node000002"><a xlink:title=" ">
<path fill="none" stroke="#63b8ff" d="M123.47,-36.79C131.67,-38.03 139.92,-39.27 147.66,-40.44"/>
<polygon fill="#63b8ff" stroke="#63b8ff" points="147.05,-43.88 157.46,-41.91 148.09,-36.96 147.05,-43.88"/>
</a>
</g>
</g>
<!-- Node3 -->
<g id="Node000003" class="node">
<title>Node3</title>
<g id="a_Node000003"><a xlink:href="../../d9/deb/min__printf_8h.html#aa8a17b7d234a2fb2174da02074a14055" target="_top" xlink:title="Stores character to the buffer&#45;&gt;buffr_char">
<polygon fill="white" stroke="#666666" points="217.62,-19.25 161.88,-19.25 161.88,0 217.62,0 217.62,-19.25"/>
<text text-anchor="middle" x="189.75" y="-5.75" font-family="Helvetica,sans-Serif" font-size="10.00">unget_ch</text>
</a>
</g>
</g>
<!-- Node1&#45;&gt;Node3 -->
<g id="edge2_Node000001_Node000003" class="edge">
<title>Node1&#45;&gt;Node3</title>
<g id="a_edge2_Node000001_Node000003"><a xlink:title=" ">
<path fill="none" stroke="#63b8ff" d="M123.47,-18.94C132.65,-17.63 141.9,-16.31 150.42,-15.09"/>
<polygon fill="#63b8ff" stroke="#63b8ff" points="150.63,-18.6 160.03,-13.72 149.64,-11.67 150.63,-18.6"/>
</a>
</g>
</g>
</g>
</svg>
