<?xml version="1.0" encoding="UTF-8" standalone="no"?>
<!DOCTYPE svg PUBLIC "-//W3C//DTD SVG 1.1//EN"
 "http://www.w3.org/Graphics/SVG/1.1/DTD/svg11.dtd">
<!-- Generated by graphviz version 3.0.0 (20220226.1711)
 -->
<!-- Title: print_double_value Pages: 1 -->
<svg width="353pt" height="142pt"
 viewBox="0.00 0.00 353.00 142.00" xmlns="http://www.w3.org/2000/svg" xmlns:xlink="http://www.w3.org/1999/xlink">
<g id="graph0" class="graph" transform="scale(1 1) rotate(0) translate(4 138)">
<title>print_double_value</title>
<polygon fill="white" stroke="transparent" points="-4,4 -4,-138 349,-138 349,4 -4,4"/>
<!-- Node1 -->
<g id="node1" class="node">
<title>Node1</title>
<g id="a_node1"><a xlink:title="The algorithm here is also the same as the print_int_value function.">
<polygon fill="#bfbfbf" stroke="black" points="0,-57.5 0,-76.5 98,-76.5 98,-57.5 0,-57.5"/>
<text text-anchor="middle" x="49" y="-64.5" font-family="Helvetica,sans-Serif" font-size="10.00">print_double_value</text>
</a>
</g>
</g>
<!-- Node2 -->
<g id="node2" class="node">
<title>Node2</title>
<g id="a_node2"><a xlink:href="../../d9/deb/min__printf_8h.html#aefb40d94d5d9fa2a28bc64755dde096f" target="_top" xlink:title="Calculates the number of digits in a number.">
<polygon fill="white" stroke="black" points="134,-114.5 134,-133.5 244,-133.5 244,-114.5 134,-114.5"/>
<text text-anchor="middle" x="189" y="-121.5" font-family="Helvetica,sans-Serif" font-size="10.00">get_number_of_digits</text>
</a>
</g>
</g>
<!-- Node1&#45;&gt;Node2 -->
<g id="edge1" class="edge">
<title>Node1&#45;&gt;Node2</title>
<path fill="none" stroke="midnightblue" d="M69.82,-76.55C86.71,-84.55 111.72,-96.06 134,-105 139.13,-107.06 144.58,-109.12 149.97,-111.08"/>
<polygon fill="midnightblue" stroke="midnightblue" points="148.93,-114.43 159.52,-114.5 151.28,-107.84 148.93,-114.43"/>
</g>
<!-- Node3 -->
<g id="node3" class="node">
<title>Node3</title>
<g id="a_node3"><a xlink:href="../../d9/deb/min__printf_8h.html#a8421f89b76edcf21292c5100bfca586b" target="_top" xlink:title=" ">
<polygon fill="white" stroke="black" points="151.5,-76.5 151.5,-95.5 226.5,-95.5 226.5,-76.5 151.5,-76.5"/>
<text text-anchor="middle" x="189" y="-83.5" font-family="Helvetica,sans-Serif" font-size="10.00">power_of_ten</text>
</a>
</g>
</g>
<!-- Node1&#45;&gt;Node3 -->
<g id="edge2" class="edge">
<title>Node1&#45;&gt;Node3</title>
<path fill="none" stroke="midnightblue" d="M98.27,-73.65C112.14,-75.56 127.25,-77.64 141.04,-79.53"/>
<polygon fill="midnightblue" stroke="midnightblue" points="140.91,-83.05 151.29,-80.95 141.86,-76.11 140.91,-83.05"/>
</g>
<!-- Node4 -->
<g id="node4" class="node">
<title>Node4</title>
<g id="a_node4"><a xlink:href="../../d9/deb/min__printf_8h.html#a0a848efdf2ee124bba62e056eb9ab824" target="_top" xlink:title=" ">
<polygon fill="white" stroke="black" points="149,-0.5 149,-19.5 229,-19.5 229,-0.5 149,-0.5"/>
<text text-anchor="middle" x="189" y="-7.5" font-family="Helvetica,sans-Serif" font-size="10.00">print_int_value</text>
</a>
</g>
</g>
<!-- Node1&#45;&gt;Node4 -->
<g id="edge3" class="edge">
<title>Node1&#45;&gt;Node4</title>
<path fill="none" stroke="midnightblue" d="M73.1,-57.46C95.59,-48.17 129.98,-33.96 155.28,-23.51"/>
<polygon fill="midnightblue" stroke="midnightblue" points="156.92,-26.62 164.83,-19.57 154.25,-20.15 156.92,-26.62"/>
</g>
<!-- Node5 -->
<g id="node5" class="node">
<title>Node5</title>
<g id="a_node5"><a xlink:href="../../d9/deb/min__printf_8h.html#ad2f9a02e1d69f58e2fb1248f49d09f4b" target="_top" xlink:title="Prints one character on screen.">
<polygon fill="white" stroke="black" points="285.5,-38.5 285.5,-57.5 339.5,-57.5 339.5,-38.5 285.5,-38.5"/>
<text text-anchor="middle" x="312.5" y="-45.5" font-family="Helvetica,sans-Serif" font-size="10.00">put_char</text>
</a>
</g>
</g>
<!-- Node1&#45;&gt;Node5 -->
<g id="edge6" class="edge">
<title>Node1&#45;&gt;Node5</title>
<path fill="none" stroke="midnightblue" d="M98.27,-63.49C149.47,-59.77 229.2,-53.98 275.28,-50.63"/>
<polygon fill="midnightblue" stroke="midnightblue" points="275.69,-54.11 285.41,-49.9 275.18,-47.13 275.69,-54.11"/>
</g>
<!-- Node4&#45;&gt;Node5 -->
<g id="edge4" class="edge">
<title>Node4&#45;&gt;Node5</title>
<path fill="none" stroke="midnightblue" d="M220.66,-19.59C237.35,-24.81 258.09,-31.3 275.54,-36.75"/>
<polygon fill="midnightblue" stroke="midnightblue" points="274.79,-40.19 285.38,-39.83 276.88,-33.51 274.79,-40.19"/>
</g>
<!-- Node6 -->
<g id="node6" class="node">
<title>Node6</title>
<g id="a_node6"><a xlink:href="../../d9/deb/min__printf_8h.html#a8d68ec60643cacdb402176549565754e" target="_top" xlink:title="Reverses a string using two pointer algorithm">
<polygon fill="white" stroke="black" points="280,-0.5 280,-19.5 345,-19.5 345,-0.5 280,-0.5"/>
<text text-anchor="middle" x="312.5" y="-7.5" font-family="Helvetica,sans-Serif" font-size="10.00">reverse_str</text>
</a>
</g>
</g>
<!-- Node4&#45;&gt;Node6 -->
<g id="edge5" class="edge">
<title>Node4&#45;&gt;Node6</title>
<path fill="none" stroke="midnightblue" d="M229.11,-10C242.03,-10 256.45,-10 269.57,-10"/>
<polygon fill="midnightblue" stroke="midnightblue" points="269.76,-13.5 279.76,-10 269.76,-6.5 269.76,-13.5"/>
</g>
</g>
</svg>
