<?xml version="1.0" encoding="UTF-8" standalone="no"?>
<!DOCTYPE svg PUBLIC "-//W3C//DTD SVG 1.1//EN"
 "http://www.w3.org/Graphics/SVG/1.1/DTD/svg11.dtd">
<!-- Generated by graphviz version 6.0.1 (20220911.1526)
 -->
<!-- Title: print_double_value Pages: 1 -->
<svg width="353pt" height="140pt"
 viewBox="0.00 0.00 353.00 140.00" xmlns="http://www.w3.org/2000/svg" xmlns:xlink="http://www.w3.org/1999/xlink">
<g id="graph0" class="graph" transform="scale(1 1) rotate(0) translate(4 136)">
<title>print_double_value</title>
<!-- Node1 -->
<g id="node1" class="node">
<title>Node1</title>
<g id="a_node1"><a xlink:title="The algorithm here is also the same as the print_int_value function.">
<polygon fill="#999999" stroke="#666666" points="98,-76 0,-76 0,-57 98,-57 98,-76"/>
<text text-anchor="middle" x="49" y="-64" font-family="Helvetica,sans-Serif" font-size="10.00">print_double_value</text>
</a>
</g>
</g>
<!-- Node2 -->
<g id="node2" class="node">
<title>Node2</title>
<g id="a_node2"><a xlink:href="../../d9/deb/min__printf_8h.html#aefb40d94d5d9fa2a28bc64755dde096f" target="_top" xlink:title="Calculates the number of digits in a number.">
<polygon fill="white" stroke="#666666" points="244,-132 134,-132 134,-113 244,-113 244,-132"/>
<text text-anchor="middle" x="189" y="-120" font-family="Helvetica,sans-Serif" font-size="10.00">get_number_of_digits</text>
</a>
</g>
</g>
<!-- Node1&#45;&gt;Node2 -->
<g id="edge1" class="edge">
<title>Node1&#45;&gt;Node2</title>
<path fill="none" stroke="#63b8ff" d="M69.78,-76.15C86.65,-84.2 111.64,-95.74 134,-104.5 138.48,-106.25 143.21,-107.99 147.93,-109.66"/>
<polygon fill="#63b8ff" stroke="#63b8ff" points="146.93,-113.02 157.53,-112.95 149.21,-106.4 146.93,-113.02"/>
</g>
<!-- Node3 -->
<g id="node3" class="node">
<title>Node3</title>
<g id="a_node3"><a xlink:href="../../d9/deb/min__printf_8h.html#a8421f89b76edcf21292c5100bfca586b" target="_top" xlink:title=" ">
<polygon fill="white" stroke="#666666" points="226.5,-95 151.5,-95 151.5,-76 226.5,-76 226.5,-95"/>
<text text-anchor="middle" x="189" y="-83" font-family="Helvetica,sans-Serif" font-size="10.00">power_of_ten</text>
</a>
</g>
</g>
<!-- Node1&#45;&gt;Node3 -->
<g id="edge2" class="edge">
<title>Node1&#45;&gt;Node3</title>
<path fill="none" stroke="#63b8ff" d="M98.27,-73.15C112.14,-75.06 127.25,-77.14 141.04,-79.03"/>
<polygon fill="#63b8ff" stroke="#63b8ff" points="140.91,-82.55 151.29,-80.45 141.86,-75.61 140.91,-82.55"/>
</g>
<!-- Node4 -->
<g id="node4" class="node">
<title>Node4</title>
<g id="a_node4"><a xlink:href="../../d9/deb/min__printf_8h.html#a0a848efdf2ee124bba62e056eb9ab824" target="_top" xlink:title=" ">
<polygon fill="white" stroke="#666666" points="229,-19 149,-19 149,0 229,0 229,-19"/>
<text text-anchor="middle" x="189" y="-7" font-family="Helvetica,sans-Serif" font-size="10.00">print_int_value</text>
</a>
</g>
</g>
<!-- Node1&#45;&gt;Node4 -->
<g id="edge3" class="edge">
<title>Node1&#45;&gt;Node4</title>
<path fill="none" stroke="#63b8ff" d="M73.1,-56.96C95.59,-47.67 129.98,-33.46 155.28,-23.01"/>
<polygon fill="#63b8ff" stroke="#63b8ff" points="156.92,-26.12 164.83,-19.07 154.25,-19.65 156.92,-26.12"/>
</g>
<!-- Node5 -->
<g id="node5" class="node">
<title>Node5</title>
<g id="a_node5"><a xlink:href="../../d9/deb/min__printf_8h.html#ad2f9a02e1d69f58e2fb1248f49d09f4b" target="_top" xlink:title="Prints one character on screen.">
<polygon fill="white" stroke="#666666" points="339.5,-56 285.5,-56 285.5,-37 339.5,-37 339.5,-56"/>
<text text-anchor="middle" x="312.5" y="-44" font-family="Helvetica,sans-Serif" font-size="10.00">put_char</text>
</a>
</g>
</g>
<!-- Node1&#45;&gt;Node5 -->
<g id="edge6" class="edge">
<title>Node1&#45;&gt;Node5</title>
<path fill="none" stroke="#63b8ff" d="M98.27,-62.81C149.47,-58.89 229.2,-52.79 275.28,-49.27"/>
<polygon fill="#63b8ff" stroke="#63b8ff" points="275.7,-52.75 285.41,-48.5 275.17,-45.77 275.7,-52.75"/>
</g>
<!-- Node4&#45;&gt;Node5 -->
<g id="edge4" class="edge">
<title>Node4&#45;&gt;Node5</title>
<path fill="none" stroke="#63b8ff" d="M221.29,-19.03C237.86,-24.08 258.3,-30.3 275.53,-35.55"/>
<polygon fill="#63b8ff" stroke="#63b8ff" points="274.66,-38.94 285.25,-38.51 276.7,-32.24 274.66,-38.94"/>
</g>
<!-- Node6 -->
<g id="node6" class="node">
<title>Node6</title>
<g id="a_node6"><a xlink:href="../../d9/deb/min__printf_8h.html#a8d68ec60643cacdb402176549565754e" target="_top" xlink:title="Reverses a string using two pointer algorithm">
<polygon fill="white" stroke="#666666" points="345,-19 280,-19 280,0 345,0 345,-19"/>
<text text-anchor="middle" x="312.5" y="-7" font-family="Helvetica,sans-Serif" font-size="10.00">reverse_str</text>
</a>
</g>
</g>
<!-- Node4&#45;&gt;Node6 -->
<g id="edge5" class="edge">
<title>Node4&#45;&gt;Node6</title>
<path fill="none" stroke="#63b8ff" d="M229.11,-9.5C242.03,-9.5 256.45,-9.5 269.57,-9.5"/>
<polygon fill="#63b8ff" stroke="#63b8ff" points="269.76,-13 279.76,-9.5 269.76,-6 269.76,-13"/>
</g>
</g>
</svg>
