<?xml version="1.0" encoding="UTF-8" standalone="no"?>
<!DOCTYPE svg PUBLIC "-//W3C//DTD SVG 1.1//EN"
 "http://www.w3.org/Graphics/SVG/1.1/DTD/svg11.dtd">
<!-- Generated by graphviz version 3.0.0 (20220226.1711)
 -->
<!-- Title: print_int_value Pages: 1 -->
<svg width="189pt" height="66pt"
 viewBox="0.00 0.00 189.00 66.00" xmlns="http://www.w3.org/2000/svg" xmlns:xlink="http://www.w3.org/1999/xlink">
<g id="graph0" class="graph" transform="scale(1 1) rotate(0) translate(4 62)">
<title>print_int_value</title>
<polygon fill="white" stroke="transparent" points="-4,4 -4,-62 185,-62 185,4 -4,4"/>
<!-- Node1 -->
<g id="node1" class="node">
<title>Node1</title>
<g id="a_node1"><a xlink:title=" ">
<polygon fill="#bfbfbf" stroke="black" points="0,-19.5 0,-38.5 80,-38.5 80,-19.5 0,-19.5"/>
<text text-anchor="middle" x="40" y="-26.5" font-family="Helvetica,sans-Serif" font-size="10.00">print_int_value</text>
</a>
</g>
</g>
<!-- Node2 -->
<g id="node2" class="node">
<title>Node2</title>
<g id="a_node2"><a xlink:href="../../d9/deb/min__printf_8h.html#ad2f9a02e1d69f58e2fb1248f49d09f4b" target="_top" xlink:title="Prints one character on screen.">
<polygon fill="white" stroke="black" points="121.5,-38.5 121.5,-57.5 175.5,-57.5 175.5,-38.5 121.5,-38.5"/>
<text text-anchor="middle" x="148.5" y="-45.5" font-family="Helvetica,sans-Serif" font-size="10.00">put_char</text>
</a>
</g>
</g>
<!-- Node1&#45;&gt;Node2 -->
<g id="edge1" class="edge">
<title>Node1&#45;&gt;Node2</title>
<path fill="none" stroke="midnightblue" d="M80.05,-35.97C90.27,-37.79 101.25,-39.75 111.31,-41.54"/>
<polygon fill="midnightblue" stroke="midnightblue" points="110.95,-45.03 121.4,-43.34 112.17,-38.14 110.95,-45.03"/>
</g>
<!-- Node3 -->
<g id="node3" class="node">
<title>Node3</title>
<g id="a_node3"><a xlink:href="../../d9/deb/min__printf_8h.html#a8d68ec60643cacdb402176549565754e" target="_top" xlink:title="Reverses a string using two pointer algorithm">
<polygon fill="white" stroke="black" points="116,-0.5 116,-19.5 181,-19.5 181,-0.5 116,-0.5"/>
<text text-anchor="middle" x="148.5" y="-7.5" font-family="Helvetica,sans-Serif" font-size="10.00">reverse_str</text>
</a>
</g>
</g>
<!-- Node1&#45;&gt;Node3 -->
<g id="edge2" class="edge">
<title>Node1&#45;&gt;Node3</title>
<path fill="none" stroke="midnightblue" d="M80.05,-22.03C88.41,-20.54 97.27,-18.96 105.72,-17.45"/>
<polygon fill="midnightblue" stroke="midnightblue" points="106.54,-20.86 115.77,-15.66 105.31,-13.97 106.54,-20.86"/>
</g>
</g>
</svg>
