<?xml version="1.0" encoding="UTF-8" standalone="no"?>
<!DOCTYPE svg PUBLIC "-//W3C//DTD SVG 1.1//EN"
 "http://www.w3.org/Graphics/SVG/1.1/DTD/svg11.dtd">
<!-- Generated by graphviz version 9.0.0 (20230911.1827)
 -->
<!-- Title: min_printf Pages: 1 -->
<svg width="472pt" height="289pt"
 viewBox="0.00 0.00 471.75 289.25" xmlns="http://www.w3.org/2000/svg" xmlns:xlink="http://www.w3.org/1999/xlink">
<g id="graph0" class="graph" transform="scale(1 1) rotate(0) translate(4 285.25)">
<title>min_printf</title>
<!-- Node1 -->
<g id="Node000001" class="node">
<title>Node1</title>
<g id="a_Node000001"><a xlink:title="min_printf is the function same as printf">
<polygon fill="#999999" stroke="#666666" points="58.75,-187.25 0,-187.25 0,-168 58.75,-168 58.75,-187.25"/>
<text text-anchor="middle" x="29.38" y="-173.75" font-family="Helvetica,sans-Serif" font-size="10.00">min_printf</text>
</a>
</g>
</g>
<!-- Node2 -->
<g id="Node000002" class="node">
<title>Node2</title>
<g id="a_Node000002"><a xlink:href="../../d9/deb/min__printf_8h.html#a409d428c337bf5476567a228274f49f1" target="_top" xlink:title="Returns specific required next character.">
<polygon fill="white" stroke="#666666" points="179,-281.25 133.75,-281.25 133.75,-262 179,-262 179,-281.25"/>
<text text-anchor="middle" x="156.38" y="-267.75" font-family="Helvetica,sans-Serif" font-size="10.00">get_ch</text>
</a>
</g>
</g>
<!-- Node1&#45;&gt;Node2 -->
<g id="edge1_Node000001_Node000002" class="edge">
<title>Node1&#45;&gt;Node2</title>
<g id="a_edge1_Node000001_Node000002"><a xlink:title=" ">
<path fill="none" stroke="#63b8ff" d="M36.14,-187.62C46.04,-203.89 67.82,-236.04 94.75,-253.62 102.99,-259 112.88,-262.82 122.27,-265.51"/>
<polygon fill="#63b8ff" stroke="#63b8ff" points="121.3,-268.88 131.85,-267.9 122.99,-262.08 121.3,-268.88"/>
</a>
</g>
</g>
<!-- Node3 -->
<g id="Node000003" class="node">
<title>Node3</title>
<g id="a_Node000003"><a xlink:href="../../d9/deb/min__printf_8h.html#aa61e2407aab2c75e9837c77cab937d03" target="_top" xlink:title="Takes width and precision specified from the format of the string.">
<polygon fill="white" stroke="#666666" points="218,-244.25 94.75,-244.25 94.75,-225 218,-225 218,-244.25"/>
<text text-anchor="middle" x="156.38" y="-230.75" font-family="Helvetica,sans-Serif" font-size="10.00">get_width_and_precision</text>
</a>
</g>
</g>
<!-- Node1&#45;&gt;Node3 -->
<g id="edge2_Node000001_Node000003" class="edge">
<title>Node1&#45;&gt;Node3</title>
<g id="a_edge2_Node000001_Node000003"><a xlink:title=" ">
<path fill="none" stroke="#63b8ff" d="M48.74,-187.64C61.49,-194.44 78.96,-203.47 94.75,-210.62 102.11,-213.96 110.08,-217.3 117.74,-220.38"/>
<polygon fill="#63b8ff" stroke="#63b8ff" points="116.29,-223.57 126.87,-223.99 118.86,-217.06 116.29,-223.57"/>
</a>
</g>
</g>
<!-- Node6 -->
<g id="Node000006" class="node">
<title>Node6</title>
<g id="a_Node000006"><a xlink:href="../../d9/deb/min__printf_8h.html#a4d63203d920bebd6a96f5f4aeccb21e5" target="_top" xlink:title="The algorithm here is also the same as the print_int_value function.">
<polygon fill="white" stroke="#666666" points="204.88,-168.25 107.88,-168.25 107.88,-149 204.88,-149 204.88,-168.25"/>
<text text-anchor="middle" x="156.38" y="-154.75" font-family="Helvetica,sans-Serif" font-size="10.00">print_double_value</text>
</a>
</g>
</g>
<!-- Node1&#45;&gt;Node6 -->
<g id="edge5_Node000001_Node000006" class="edge">
<title>Node1&#45;&gt;Node6</title>
<g id="a_edge5_Node000001_Node000006"><a xlink:title=" ">
<path fill="none" stroke="#63b8ff" d="M59.05,-173.27C70.2,-171.57 83.41,-169.56 96.41,-167.59"/>
<polygon fill="#63b8ff" stroke="#63b8ff" points="96.87,-171.06 106.23,-166.1 95.81,-164.14 96.87,-171.06"/>
</a>
</g>
</g>
<!-- Node9 -->
<g id="Node000009" class="node">
<title>Node9</title>
<g id="a_Node000009"><a xlink:href="../../d9/deb/min__printf_8h.html#a0a848efdf2ee124bba62e056eb9ab824" target="_top" xlink:title=" ">
<polygon fill="white" stroke="#666666" points="348,-207.25 269,-207.25 269,-188 348,-188 348,-207.25"/>
<text text-anchor="middle" x="308.5" y="-193.75" font-family="Helvetica,sans-Serif" font-size="10.00">print_int_value</text>
</a>
</g>
</g>
<!-- Node1&#45;&gt;Node9 -->
<g id="edge12_Node000001_Node000009" class="edge">
<title>Node1&#45;&gt;Node9</title>
<g id="a_edge12_Node000001_Node000009"><a xlink:title=" ">
<path fill="none" stroke="#63b8ff" d="M59.25,-179.71C106.07,-183.09 199.14,-189.8 257.07,-193.99"/>
<polygon fill="#63b8ff" stroke="#63b8ff" points="256.78,-197.47 267.01,-194.7 257.29,-190.49 256.78,-197.47"/>
</a>
</g>
</g>
<!-- Node10 -->
<g id="Node000010" class="node">
<title>Node10</title>
<g id="a_Node000010"><a xlink:href="../../d9/deb/min__printf_8h.html#ad2f9a02e1d69f58e2fb1248f49d09f4b" target="_top" xlink:title="Prints one character on screen.">
<polygon fill="white" stroke="#666666" points="458.12,-76.25 404.62,-76.25 404.62,-57 458.12,-57 458.12,-76.25"/>
<text text-anchor="middle" x="431.38" y="-62.75" font-family="Helvetica,sans-Serif" font-size="10.00">put_char</text>
</a>
</g>
</g>
<!-- Node1&#45;&gt;Node10 -->
<g id="edge15_Node000001_Node000010" class="edge">
<title>Node1&#45;&gt;Node10</title>
<g id="a_edge15_Node000001_Node000010"><a xlink:title=" ">
<path fill="none" stroke="#63b8ff" d="M45.51,-167.56C80.41,-145.03 170.01,-91.07 254,-72.62 301.05,-62.29 356.84,-62.39 392.88,-64"/>
<polygon fill="#63b8ff" stroke="#63b8ff" points="392.63,-67.49 402.79,-64.52 392.99,-60.5 392.63,-67.49"/>
</a>
</g>
</g>
<!-- Node12 -->
<g id="Node000012" class="node">
<title>Node12</title>
<g id="a_Node000012"><a xlink:href="../../d9/deb/min__printf_8h.html#af569209570eca8bc6770fb7d9dc873e6" target="_top" xlink:title=" ">
<polygon fill="white" stroke="#666666" points="188.38,-19.25 124.38,-19.25 124.38,0 188.38,0 188.38,-19.25"/>
<text text-anchor="middle" x="156.38" y="-5.75" font-family="Helvetica,sans-Serif" font-size="10.00">print_string</text>
</a>
</g>
</g>
<!-- Node1&#45;&gt;Node12 -->
<g id="edge13_Node000001_Node000012" class="edge">
<title>Node1&#45;&gt;Node12</title>
<g id="a_edge13_Node000001_Node000012"><a xlink:title=" ">
<path fill="none" stroke="#63b8ff" d="M32.12,-167.76C37.15,-142.11 54,-72.64 94.75,-33.62 100.19,-28.42 106.89,-24.3 113.84,-21.05"/>
<polygon fill="#63b8ff" stroke="#63b8ff" points="114.72,-24.47 122.67,-17.46 112.09,-17.98 114.72,-24.47"/>
</a>
</g>
</g>
<!-- Node4 -->
<g id="Node000004" class="node">
<title>Node4</title>
<g id="a_Node000004"><a xlink:href="../../d9/deb/min__printf_8h.html#ad4908ab912d8dc481225e33ca3285c21" target="_top" xlink:title="Checks if a character is a number.">
<polygon fill="white" stroke="#666666" points="339,-281.25 278,-281.25 278,-262 339,-262 339,-281.25"/>
<text text-anchor="middle" x="308.5" y="-267.75" font-family="Helvetica,sans-Serif" font-size="10.00">is_number</text>
</a>
</g>
</g>
<!-- Node3&#45;&gt;Node4 -->
<g id="edge3_Node000003_Node000004" class="edge">
<title>Node3&#45;&gt;Node4</title>
<g id="a_edge3_Node000003_Node000004"><a xlink:title=" ">
<path fill="none" stroke="#63b8ff" d="M198.4,-244.74C219.74,-250 245.74,-256.4 267,-261.64"/>
<polygon fill="#63b8ff" stroke="#63b8ff" points="265.94,-264.99 276.48,-263.98 267.61,-258.19 265.94,-264.99"/>
</a>
</g>
</g>
<!-- Node5 -->
<g id="Node000005" class="node">
<title>Node5</title>
<g id="a_Node000005"><a xlink:href="../../d9/deb/min__printf_8h.html#aa8a17b7d234a2fb2174da02074a14055" target="_top" xlink:title="Stores character to the buffer&#45;&gt;buffr_char">
<polygon fill="white" stroke="#666666" points="336.38,-244.25 280.62,-244.25 280.62,-225 336.38,-225 336.38,-244.25"/>
<text text-anchor="middle" x="308.5" y="-230.75" font-family="Helvetica,sans-Serif" font-size="10.00">unget_ch</text>
</a>
</g>
</g>
<!-- Node3&#45;&gt;Node5 -->
<g id="edge4_Node000003_Node000005" class="edge">
<title>Node3&#45;&gt;Node5</title>
<g id="a_edge4_Node000003_Node000005"><a xlink:title=" ">
<path fill="none" stroke="#63b8ff" d="M218.44,-234.62C235.51,-234.62 253.59,-234.62 268.97,-234.62"/>
<polygon fill="#63b8ff" stroke="#63b8ff" points="268.63,-238.13 278.63,-234.63 268.63,-231.13 268.63,-238.13"/>
</a>
</g>
</g>
<!-- Node7 -->
<g id="Node000007" class="node">
<title>Node7</title>
<g id="a_Node000007"><a xlink:href="../../d9/deb/min__printf_8h.html#aefb40d94d5d9fa2a28bc64755dde096f" target="_top" xlink:title="Calculates the number of digits in a number.">
<polygon fill="white" stroke="#666666" points="363,-133.25 254,-133.25 254,-114 363,-114 363,-133.25"/>
<text text-anchor="middle" x="308.5" y="-119.75" font-family="Helvetica,sans-Serif" font-size="10.00">get_number_of_digits</text>
</a>
</g>
</g>
<!-- Node6&#45;&gt;Node7 -->
<g id="edge6_Node000006_Node000007" class="edge">
<title>Node6&#45;&gt;Node7</title>
<g id="a_edge6_Node000006_Node000007"><a xlink:title=" ">
<path fill="none" stroke="#63b8ff" d="M200.8,-148.5C217.14,-144.69 235.92,-140.31 253.13,-136.3"/>
<polygon fill="#63b8ff" stroke="#63b8ff" points="253.76,-139.75 262.7,-134.07 252.17,-132.93 253.76,-139.75"/>
</a>
</g>
</g>
<!-- Node8 -->
<g id="Node000008" class="node">
<title>Node8</title>
<g id="a_Node000008"><a xlink:href="../../d9/deb/min__printf_8h.html#a8421f89b76edcf21292c5100bfca586b" target="_top" xlink:title=" ">
<polygon fill="white" stroke="#666666" points="345.75,-170.25 271.25,-170.25 271.25,-151 345.75,-151 345.75,-170.25"/>
<text text-anchor="middle" x="308.5" y="-156.75" font-family="Helvetica,sans-Serif" font-size="10.00">power_of_ten</text>
</a>
</g>
</g>
<!-- Node6&#45;&gt;Node8 -->
<g id="edge7_Node000006_Node000008" class="edge">
<title>Node6&#45;&gt;Node8</title>
<g id="a_edge7_Node000006_Node000008"><a xlink:title=" ">
<path fill="none" stroke="#63b8ff" d="M205.29,-159.26C222.75,-159.5 242.47,-159.76 259.9,-159.99"/>
<polygon fill="#63b8ff" stroke="#63b8ff" points="259.41,-163.48 269.46,-160.12 259.51,-156.49 259.41,-163.48"/>
</a>
</g>
</g>
<!-- Node6&#45;&gt;Node9 -->
<g id="edge8_Node000006_Node000009" class="edge">
<title>Node6&#45;&gt;Node9</title>
<g id="a_edge8_Node000006_Node000009"><a xlink:title=" ">
<path fill="none" stroke="#63b8ff" d="M196.04,-168.67C214.79,-173.54 237.54,-179.45 257.58,-184.66"/>
<polygon fill="#63b8ff" stroke="#63b8ff" points="256.69,-188.04 267.24,-187.17 258.45,-181.27 256.69,-188.04"/>
</a>
</g>
</g>
<!-- Node6&#45;&gt;Node10 -->
<g id="edge11_Node000006_Node000010" class="edge">
<title>Node6&#45;&gt;Node10</title>
<g id="a_edge11_Node000006_Node000010"><a xlink:title=" ">
<path fill="none" stroke="#63b8ff" d="M172.09,-148.56C190.47,-136.42 223.26,-116.23 254,-104.62 300.41,-87.11 356.89,-76.72 393.23,-71.35"/>
<polygon fill="#63b8ff" stroke="#63b8ff" points="393.37,-74.86 402.78,-69.99 392.39,-67.93 393.37,-74.86"/>
</a>
</g>
</g>
<!-- Node9&#45;&gt;Node10 -->
<g id="edge9_Node000009_Node000010" class="edge">
<title>Node9&#45;&gt;Node10</title>
<g id="a_edge9_Node000009_Node000010"><a xlink:title=" ">
<path fill="none" stroke="#63b8ff" d="M348.34,-188.26C353.59,-185.97 358.65,-183.13 363,-179.62 393.54,-154.99 413.43,-112.53 423.21,-87.26"/>
<polygon fill="#63b8ff" stroke="#63b8ff" points="426.41,-88.71 426.58,-78.11 419.84,-86.29 426.41,-88.71"/>
</a>
</g>
</g>
<!-- Node11 -->
<g id="Node000011" class="node">
<title>Node11</title>
<g id="a_Node000011"><a xlink:href="../../d9/deb/min__printf_8h.html#a8d68ec60643cacdb402176549565754e" target="_top" xlink:title="Reverses a string using two pointer algorithm">
<polygon fill="white" stroke="#666666" points="463.75,-207.25 399,-207.25 399,-188 463.75,-188 463.75,-207.25"/>
<text text-anchor="middle" x="431.38" y="-193.75" font-family="Helvetica,sans-Serif" font-size="10.00">reverse_str</text>
</a>
</g>
</g>
<!-- Node9&#45;&gt;Node11 -->
<g id="edge10_Node000009_Node000011" class="edge">
<title>Node9&#45;&gt;Node11</title>
<g id="a_edge10_Node000009_Node000011"><a xlink:title=" ">
<path fill="none" stroke="#63b8ff" d="M348.41,-197.62C360.88,-197.62 374.76,-197.62 387.49,-197.62"/>
<polygon fill="#63b8ff" stroke="#63b8ff" points="387.29,-201.13 397.29,-197.63 387.29,-194.13 387.29,-201.13"/>
</a>
</g>
</g>
<!-- Node12&#45;&gt;Node10 -->
<g id="edge14_Node000012_Node000010" class="edge">
<title>Node12&#45;&gt;Node10</title>
<g id="a_edge14_Node000012_Node000010"><a xlink:title=" ">
<path fill="none" stroke="#63b8ff" d="M188.68,-10.01C229.57,-11.24 303,-15.99 363,-33.62 377.11,-37.77 391.88,-44.68 403.99,-51.11"/>
<polygon fill="#63b8ff" stroke="#63b8ff" points="402.08,-54.05 412.53,-55.82 405.46,-47.93 402.08,-54.05"/>
</a>
</g>
</g>
</g>
</svg>
