<?xml version="1.0" encoding="UTF-8" standalone="no"?>
<!DOCTYPE svg PUBLIC "-//W3C//DTD SVG 1.1//EN"
 "http://www.w3.org/Graphics/SVG/1.1/DTD/svg11.dtd">
<!-- Generated by graphviz version 8.0.5 (20230430.1635)
 -->
<!-- Title: print_double_value Pages: 1 -->
<svg width="351pt" height="140pt"
 viewBox="0.00 0.00 350.75 140.25" xmlns="http://www.w3.org/2000/svg" xmlns:xlink="http://www.w3.org/1999/xlink">
<g id="graph0" class="graph" transform="scale(1 1) rotate(0) translate(4 136.25)">
<title>print_double_value</title>
<!-- Node1 -->
<g id="Node000001" class="node">
<title>Node1</title>
<g id="a_Node000001"><a xlink:title="The algorithm here is also the same as the print_int_value function.">
<polygon fill="#999999" stroke="#666666" points="97,-76.25 0,-76.25 0,-57 97,-57 97,-76.25"/>
<text text-anchor="middle" x="48.5" y="-62.75" font-family="Helvetica,sans-Serif" font-size="10.00">print_double_value</text>
</a>
</g>
</g>
<!-- Node2 -->
<g id="Node000002" class="node">
<title>Node2</title>
<g id="a_Node000002"><a xlink:href="../../d9/deb/min__printf_8h.html#aefb40d94d5d9fa2a28bc64755dde096f" target="_top" xlink:title="Calculates the number of digits in a number.">
<polygon fill="white" stroke="#666666" points="242,-132.25 133,-132.25 133,-113 242,-113 242,-132.25"/>
<text text-anchor="middle" x="187.5" y="-118.75" font-family="Helvetica,sans-Serif" font-size="10.00">get_number_of_digits</text>
</a>
</g>
</g>
<!-- Node1&#45;&gt;Node2 -->
<g id="edge1_Node000001_Node000002" class="edge">
<title>Node1&#45;&gt;Node2</title>
<g id="a_edge1_Node000001_Node000002"><a xlink:title=" ">
<path fill="none" stroke="#63b8ff" d="M69.84,-76.59C86.59,-84.62 111.07,-95.97 133,-104.62 136.73,-106.1 140.63,-107.56 144.56,-108.97"/>
<polygon fill="#63b8ff" stroke="#63b8ff" points="143.31,-112.59 153.9,-112.59 145.62,-105.99 143.31,-112.59"/>
</a>
</g>
</g>
<!-- Node3 -->
<g id="Node000003" class="node">
<title>Node3</title>
<g id="a_Node000003"><a xlink:href="../../d9/deb/min__printf_8h.html#a8421f89b76edcf21292c5100bfca586b" target="_top" xlink:title=" ">
<polygon fill="white" stroke="#666666" points="224.75,-95.25 150.25,-95.25 150.25,-76 224.75,-76 224.75,-95.25"/>
<text text-anchor="middle" x="187.5" y="-81.75" font-family="Helvetica,sans-Serif" font-size="10.00">power_of_ten</text>
</a>
</g>
</g>
<!-- Node1&#45;&gt;Node3 -->
<g id="edge2_Node000001_Node000003" class="edge">
<title>Node1&#45;&gt;Node3</title>
<g id="a_edge2_Node000001_Node000003"><a xlink:title=" ">
<path fill="none" stroke="#63b8ff" d="M97.42,-73.27C111.05,-75.16 125.89,-77.22 139.48,-79.1"/>
<polygon fill="#63b8ff" stroke="#63b8ff" points="138.67,-82.66 149.06,-80.57 139.63,-75.73 138.67,-82.66"/>
</a>
</g>
</g>
<!-- Node4 -->
<g id="Node000004" class="node">
<title>Node4</title>
<g id="a_Node000004"><a xlink:href="../../d9/deb/min__printf_8h.html#a0a848efdf2ee124bba62e056eb9ab824" target="_top" xlink:title=" ">
<polygon fill="white" stroke="#666666" points="227,-19.25 148,-19.25 148,0 227,0 227,-19.25"/>
<text text-anchor="middle" x="187.5" y="-5.75" font-family="Helvetica,sans-Serif" font-size="10.00">print_int_value</text>
</a>
</g>
</g>
<!-- Node1&#45;&gt;Node4 -->
<g id="edge3_Node000001_Node000004" class="edge">
<title>Node1&#45;&gt;Node4</title>
<g id="a_edge3_Node000001_Node000004"><a xlink:title=" ">
<path fill="none" stroke="#63b8ff" d="M73.68,-56.57C95.59,-47.45 128.11,-33.92 152.61,-23.73"/>
<polygon fill="#63b8ff" stroke="#63b8ff" points="153.68,-26.66 161.56,-19.58 150.99,-20.19 153.68,-26.66"/>
</a>
</g>
</g>
<!-- Node5 -->
<g id="Node000005" class="node">
<title>Node5</title>
<g id="a_Node000005"><a xlink:href="../../d9/deb/min__printf_8h.html#ad2f9a02e1d69f58e2fb1248f49d09f4b" target="_top" xlink:title="Prints one character on screen.">
<polygon fill="white" stroke="#666666" points="337.12,-56.25 283.62,-56.25 283.62,-37 337.12,-37 337.12,-56.25"/>
<text text-anchor="middle" x="310.38" y="-42.75" font-family="Helvetica,sans-Serif" font-size="10.00">put_char</text>
</a>
</g>
</g>
<!-- Node1&#45;&gt;Node5 -->
<g id="edge6_Node000001_Node000005" class="edge">
<title>Node1&#45;&gt;Node5</title>
<g id="a_edge6_Node000001_Node000005"><a xlink:title=" ">
<path fill="none" stroke="#63b8ff" d="M97.47,-62.93C148.03,-59.04 226.59,-53 272.51,-49.46"/>
<polygon fill="#63b8ff" stroke="#63b8ff" points="272.74,-52.88 282.44,-48.62 272.21,-45.9 272.74,-52.88"/>
</a>
</g>
</g>
<!-- Node4&#45;&gt;Node5 -->
<g id="edge4_Node000004_Node000005" class="edge">
<title>Node4&#45;&gt;Node5</title>
<g id="a_edge4_Node000004_Node000005"><a xlink:title=" ">
<path fill="none" stroke="#63b8ff" d="M221.53,-19.74C237.47,-24.61 256.64,-30.48 273,-35.49"/>
<polygon fill="#63b8ff" stroke="#63b8ff" points="271.69,-39.06 282.28,-38.64 273.74,-32.36 271.69,-39.06"/>
</a>
</g>
</g>
<!-- Node6 -->
<g id="Node000006" class="node">
<title>Node6</title>
<g id="a_Node000006"><a xlink:href="../../d9/deb/min__printf_8h.html#a8d68ec60643cacdb402176549565754e" target="_top" xlink:title="Reverses a string using two pointer algorithm">
<polygon fill="white" stroke="#666666" points="342.75,-19.25 278,-19.25 278,0 342.75,0 342.75,-19.25"/>
<text text-anchor="middle" x="310.38" y="-5.75" font-family="Helvetica,sans-Serif" font-size="10.00">reverse_str</text>
</a>
</g>
</g>
<!-- Node4&#45;&gt;Node6 -->
<g id="edge5_Node000004_Node000006" class="edge">
<title>Node4&#45;&gt;Node6</title>
<g id="a_edge5_Node000004_Node000006"><a xlink:title=" ">
<path fill="none" stroke="#63b8ff" d="M227.41,-9.62C240.01,-9.62 254.04,-9.62 266.88,-9.62"/>
<polygon fill="#63b8ff" stroke="#63b8ff" points="266.8,-13.13 276.8,-9.62 266.8,-6.13 266.8,-13.13"/>
</a>
</g>
</g>
</g>
</svg>
