<?xml version="1.0" encoding="UTF-8" standalone="no"?>
<!DOCTYPE svg PUBLIC "-//W3C//DTD SVG 1.1//EN"
 "http://www.w3.org/Graphics/SVG/1.1/DTD/svg11.dtd">
<!-- Generated by graphviz version 9.0.0 (20230911.1827)
 -->
<!-- Title: heapSort Pages: 1 -->
<svg width="172pt" height="64pt"
 viewBox="0.00 0.00 172.00 64.25" xmlns="http://www.w3.org/2000/svg" xmlns:xlink="http://www.w3.org/1999/xlink">
<g id="graph0" class="graph" transform="scale(1 1) rotate(0) translate(4 60.25)">
<title>heapSort</title>
<!-- Node1 -->
<g id="Node000001" class="node">
<title>Node1</title>
<g id="a_Node000001"><a xlink:title="Heap Sort algorithm.">
<polygon fill="#999999" stroke="#666666" points="55,-37.25 0,-37.25 0,-18 55,-18 55,-37.25"/>
<text text-anchor="middle" x="27.5" y="-23.75" font-family="Helvetica,sans-Serif" font-size="10.00">heapSort</text>
</a>
</g>
</g>
<!-- Node2 -->
<g id="Node000002" class="node">
<title>Node2</title>
<g id="a_Node000002"><a xlink:href="../../de/dff/heap__sort__2_8c.html#a00cd944b33a5fe5972111ded9b49793c" target="_top" xlink:title="heapifyDown Adjusts new root to the correct position in the heap This heapify procedure can be though...">
<polygon fill="white" stroke="#666666" points="164,-56.25 91,-56.25 91,-37 164,-37 164,-56.25"/>
<text text-anchor="middle" x="127.5" y="-42.75" font-family="Helvetica,sans-Serif" font-size="10.00">heapifyDown</text>
</a>
</g>
</g>
<!-- Node1&#45;&gt;Node2 -->
<g id="edge1_Node000001_Node000002" class="edge">
<title>Node1&#45;&gt;Node2</title>
<g id="a_edge1_Node000001_Node000002"><a xlink:title=" ">
<path fill="none" stroke="#63b8ff" d="M55.28,-32.82C62.76,-34.27 71.12,-35.89 79.4,-37.49"/>
<polygon fill="#63b8ff" stroke="#63b8ff" points="78.6,-40.9 89.08,-39.37 79.93,-34.03 78.6,-40.9"/>
</a>
</g>
</g>
<!-- Node3 -->
<g id="Node000003" class="node">
<title>Node3</title>
<g id="a_Node000003"><a xlink:href="../../de/dff/heap__sort__2_8c.html#a619753b978f962aa2337e1fdb4e59e33" target="_top" xlink:title="heapifyUp Adjusts arr[i] to the correct position in the heap This heapify procedure can be thought of...">
<polygon fill="white" stroke="#666666" points="157.62,-19.25 97.38,-19.25 97.38,0 157.62,0 157.62,-19.25"/>
<text text-anchor="middle" x="127.5" y="-5.75" font-family="Helvetica,sans-Serif" font-size="10.00">heapifyUp</text>
</a>
</g>
</g>
<!-- Node1&#45;&gt;Node3 -->
<g id="edge2_Node000001_Node000003" class="edge">
<title>Node1&#45;&gt;Node3</title>
<g id="a_edge2_Node000001_Node000003"><a xlink:title=" ">
<path fill="none" stroke="#63b8ff" d="M55.28,-22.71C64.67,-20.98 75.44,-19 85.71,-17.12"/>
<polygon fill="#63b8ff" stroke="#63b8ff" points="86.31,-20.57 95.51,-15.32 85.04,-13.68 86.31,-20.57"/>
</a>
</g>
</g>
</g>
</svg>
