<?xml version="1.0" encoding="UTF-8" standalone="no"?>
<!DOCTYPE svg PUBLIC "-//W3C//DTD SVG 1.1//EN"
 "http://www.w3.org/Graphics/SVG/1.1/DTD/svg11.dtd">
<!-- Generated by graphviz version 7.0.6 (20230106.0513)
 -->
<!-- Title: test Pages: 1 -->
<svg width="243pt" height="64pt"
 viewBox="0.00 0.00 243.00 64.00" xmlns="http://www.w3.org/2000/svg" xmlns:xlink="http://www.w3.org/1999/xlink">
<g id="graph0" class="graph" transform="scale(1 1) rotate(0) translate(4 60)">
<title>test</title>
<!-- Node1 -->
<g id="node1" class="node">
<title>Node1</title>
<g id="a_node1"><a xlink:title="Self&#45;test implementations.">
<polygon fill="#999999" stroke="#666666" points="33,-37 0,-37 0,-18 33,-18 33,-37"/>
<text text-anchor="middle" x="16.5" y="-25" font-family="Helvetica,sans-Serif" font-size="10.00">test</text>
</a>
</g>
</g>
<!-- Node2 -->
<g id="node2" class="node">
<title>Node2</title>
<g id="a_node2"><a xlink:href="../../de/dff/heap__sort__2_8c.html#a672a47d865e7fa18f1ff23001ef4a485" target="_top" xlink:title="Heap Sort algorithm.">
<polygon fill="white" stroke="#666666" points="125,-37 69,-37 69,-18 125,-18 125,-37"/>
<text text-anchor="middle" x="97" y="-25" font-family="Helvetica,sans-Serif" font-size="10.00">heapSort</text>
</a>
</g>
</g>
<!-- Node1&#45;&gt;Node2 -->
<g id="edge1" class="edge">
<title>Node1&#45;&gt;Node2</title>
<path fill="none" stroke="#63b8ff" d="M33.39,-27.5C40.35,-27.5 48.85,-27.5 57.32,-27.5"/>
<polygon fill="#63b8ff" stroke="#63b8ff" points="57.18,-31 67.18,-27.5 57.18,-24 57.18,-31"/>
</g>
<!-- Node3 -->
<g id="node3" class="node">
<title>Node3</title>
<g id="a_node3"><a xlink:href="../../de/dff/heap__sort__2_8c.html#a00cd944b33a5fe5972111ded9b49793c" target="_top" xlink:title="heapifyDown Adjusts new root to the correct position in the heap This heapify procedure can be though...">
<polygon fill="white" stroke="#666666" points="235,-56 161,-56 161,-37 235,-37 235,-56"/>
<text text-anchor="middle" x="198" y="-44" font-family="Helvetica,sans-Serif" font-size="10.00">heapifyDown</text>
</a>
</g>
</g>
<!-- Node2&#45;&gt;Node3 -->
<g id="edge2" class="edge">
<title>Node2&#45;&gt;Node3</title>
<path fill="none" stroke="#63b8ff" d="M125.31,-32.74C132.79,-34.18 141.12,-35.78 149.38,-37.36"/>
<polygon fill="#63b8ff" stroke="#63b8ff" points="148.54,-40.76 159.02,-39.21 149.86,-33.89 148.54,-40.76"/>
</g>
<!-- Node4 -->
<g id="node4" class="node">
<title>Node4</title>
<g id="a_node4"><a xlink:href="../../de/dff/heap__sort__2_8c.html#a619753b978f962aa2337e1fdb4e59e33" target="_top" xlink:title="heapifyUp Adjusts arr[i] to the correct position in the heap This heapify procedure can be thought of...">
<polygon fill="white" stroke="#666666" points="228.5,-19 167.5,-19 167.5,0 228.5,0 228.5,-19"/>
<text text-anchor="middle" x="198" y="-7" font-family="Helvetica,sans-Serif" font-size="10.00">heapifyUp</text>
</a>
</g>
</g>
<!-- Node2&#45;&gt;Node4 -->
<g id="edge3" class="edge">
<title>Node2&#45;&gt;Node4</title>
<path fill="none" stroke="#63b8ff" d="M125.31,-22.53C134.9,-20.79 145.88,-18.79 156.32,-16.9"/>
<polygon fill="#63b8ff" stroke="#63b8ff" points="156.64,-20.4 165.86,-15.16 155.39,-13.51 156.64,-20.4"/>
</g>
</g>
</svg>
