<?xml version="1.0" encoding="UTF-8" standalone="no"?>
<!DOCTYPE svg PUBLIC "-//W3C//DTD SVG 1.1//EN"
 "http://www.w3.org/Graphics/SVG/1.1/DTD/svg11.dtd">
<!-- Generated by graphviz version 3.0.0 (20220226.1711)
 -->
<!-- Title: test Pages: 1 -->
<svg width="319pt" height="104pt"
 viewBox="0.00 0.00 319.00 104.00" xmlns="http://www.w3.org/2000/svg" xmlns:xlink="http://www.w3.org/1999/xlink">
<g id="graph0" class="graph" transform="scale(1 1) rotate(0) translate(4 100)">
<title>test</title>
<polygon fill="white" stroke="transparent" points="-4,4 -4,-100 315,-100 315,4 -4,4"/>
<!-- Node1 -->
<g id="node1" class="node">
<title>Node1</title>
<g id="a_node1"><a xlink:title="Self&#45;test implementations.">
<polygon fill="#bfbfbf" stroke="black" points="0,-38.5 0,-57.5 33,-57.5 33,-38.5 0,-38.5"/>
<text text-anchor="middle" x="16.5" y="-45.5" font-family="Helvetica,sans-Serif" font-size="10.00">test</text>
</a>
</g>
</g>
<!-- Node2 -->
<g id="node2" class="node">
<title>Node2</title>
<g id="a_node2"><a xlink:href="../../de/dff/heap__sort__2_8c.html#a672a47d865e7fa18f1ff23001ef4a485" target="_top" xlink:title="Heap Sort algorithm.">
<polygon fill="white" stroke="black" points="69,-38.5 69,-57.5 125,-57.5 125,-38.5 69,-38.5"/>
<text text-anchor="middle" x="97" y="-45.5" font-family="Helvetica,sans-Serif" font-size="10.00">heapSort</text>
</a>
</g>
</g>
<!-- Node1&#45;&gt;Node2 -->
<g id="edge1" class="edge">
<title>Node1&#45;&gt;Node2</title>
<path fill="none" stroke="midnightblue" d="M33.01,-48C40.41,-48 49.62,-48 58.69,-48"/>
<polygon fill="midnightblue" stroke="midnightblue" points="58.76,-51.5 68.76,-48 58.76,-44.5 58.76,-51.5"/>
</g>
<!-- Node3 -->
<g id="node3" class="node">
<title>Node3</title>
<g id="a_node3"><a xlink:href="../../de/dff/heap__sort__2_8c.html#a00cd944b33a5fe5972111ded9b49793c" target="_top" xlink:title="heapifyDown Adjusts new root to the correct position in the heap This heapify procedure can be though...">
<polygon fill="white" stroke="black" points="161,-76.5 161,-95.5 235,-95.5 235,-76.5 161,-76.5"/>
<text text-anchor="middle" x="198" y="-83.5" font-family="Helvetica,sans-Serif" font-size="10.00">heapifyDown</text>
</a>
</g>
</g>
<!-- Node2&#45;&gt;Node3 -->
<g id="edge2" class="edge">
<title>Node2&#45;&gt;Node3</title>
<path fill="none" stroke="midnightblue" d="M122.98,-57.59C134.94,-62.18 149.45,-67.75 162.45,-72.74"/>
<polygon fill="midnightblue" stroke="midnightblue" points="161.44,-76.1 172.03,-76.41 163.94,-69.56 161.44,-76.1"/>
</g>
<!-- Node4 -->
<g id="node4" class="node">
<title>Node4</title>
<g id="a_node4"><a xlink:href="../../de/dff/heap__sort__2_8c.html#aaf68497ab808b560dbf109da6435905a" target="_top" xlink:title="for assert">
<polygon fill="white" stroke="black" points="271,-38.5 271,-57.5 311,-57.5 311,-38.5 271,-38.5"/>
<text text-anchor="middle" x="291" y="-45.5" font-family="Helvetica,sans-Serif" font-size="10.00">swap</text>
</a>
</g>
</g>
<!-- Node2&#45;&gt;Node4 -->
<g id="edge6" class="edge">
<title>Node2&#45;&gt;Node4</title>
<path fill="none" stroke="midnightblue" d="M125.1,-48C160.95,-48 223.88,-48 260.76,-48"/>
<polygon fill="midnightblue" stroke="midnightblue" points="260.87,-51.5 270.87,-48 260.87,-44.5 260.87,-51.5"/>
</g>
<!-- Node5 -->
<g id="node5" class="node">
<title>Node5</title>
<g id="a_node5"><a xlink:href="../../de/dff/heap__sort__2_8c.html#a619753b978f962aa2337e1fdb4e59e33" target="_top" xlink:title="heapifyUp Adjusts arr[i] to the correct position in the heap This heapify procedure can be thought of...">
<polygon fill="white" stroke="black" points="167.5,-0.5 167.5,-19.5 228.5,-19.5 228.5,-0.5 167.5,-0.5"/>
<text text-anchor="middle" x="198" y="-7.5" font-family="Helvetica,sans-Serif" font-size="10.00">heapifyUp</text>
</a>
</g>
</g>
<!-- Node2&#45;&gt;Node5 -->
<g id="edge4" class="edge">
<title>Node2&#45;&gt;Node5</title>
<path fill="none" stroke="midnightblue" d="M122.98,-38.41C134.94,-33.82 149.45,-28.25 162.45,-23.26"/>
<polygon fill="midnightblue" stroke="midnightblue" points="163.94,-26.44 172.03,-19.59 161.44,-19.9 163.94,-26.44"/>
</g>
<!-- Node3&#45;&gt;Node4 -->
<g id="edge3" class="edge">
<title>Node3&#45;&gt;Node4</title>
<path fill="none" stroke="midnightblue" d="M221.96,-76.41C233.96,-71.4 248.76,-65.22 261.49,-59.91"/>
<polygon fill="midnightblue" stroke="midnightblue" points="262.86,-63.13 270.74,-56.04 260.16,-56.67 262.86,-63.13"/>
</g>
<!-- Node5&#45;&gt;Node4 -->
<g id="edge5" class="edge">
<title>Node5&#45;&gt;Node4</title>
<path fill="none" stroke="midnightblue" d="M221.96,-19.59C233.96,-24.6 248.76,-30.78 261.49,-36.09"/>
<polygon fill="midnightblue" stroke="midnightblue" points="260.16,-39.33 270.74,-39.96 262.86,-32.87 260.16,-39.33"/>
</g>
</g>
</svg>
