<?xml version="1.0" encoding="UTF-8" standalone="no"?>
<!DOCTYPE svg PUBLIC "-//W3C//DTD SVG 1.1//EN"
 "http://www.w3.org/Graphics/SVG/1.1/DTD/svg11.dtd">
<!-- Generated by graphviz version 7.0.6 (20230106.0513)
 -->
<!-- Title: sorting/bubble_sort_2.c Pages: 1 -->
<svg width="200pt" height="82pt"
 viewBox="0.00 0.00 200.00 82.00" xmlns="http://www.w3.org/2000/svg" xmlns:xlink="http://www.w3.org/1999/xlink">
<g id="graph0" class="graph" transform="scale(1 1) rotate(0) translate(4 78)">
<title>sorting/bubble_sort_2.c</title>
<!-- Node1 -->
<g id="node1" class="node">
<title>Node1</title>
<g id="a_node1"><a xlink:title="implementation of Bubble sort algorithm">
<polygon fill="#999999" stroke="#666666" points="151,-74 33,-74 33,-55 151,-55 151,-74"/>
<text text-anchor="middle" x="92" y="-62" font-family="Helvetica,sans-Serif" font-size="10.00">sorting/bubble_sort_2.c</text>
</a>
</g>
</g>
<!-- Node2 -->
<g id="node2" class="node">
<title>Node2</title>
<g id="a_node2"><a xlink:title=" ">
<polygon fill="#e0e0e0" stroke="#999999" points="48,-19 0,-19 0,0 48,0 48,-19"/>
<text text-anchor="middle" x="24" y="-7" font-family="Helvetica,sans-Serif" font-size="10.00">stdlib.h</text>
</a>
</g>
</g>
<!-- Node1&#45;&gt;Node2 -->
<g id="edge1" class="edge">
<title>Node1&#45;&gt;Node2</title>
<path fill="none" stroke="#63b8ff" d="M80.46,-54.51C70.54,-46.77 55.99,-35.43 44.14,-26.2"/>
<polygon fill="#63b8ff" stroke="#63b8ff" points="46.6,-23.68 36.56,-20.29 42.29,-29.2 46.6,-23.68"/>
</g>
<!-- Node3 -->
<g id="node3" class="node">
<title>Node3</title>
<g id="a_node3"><a xlink:title=" ">
<polygon fill="#e0e0e0" stroke="#999999" points="118,-19 66,-19 66,0 118,0 118,-19"/>
<text text-anchor="middle" x="92" y="-7" font-family="Helvetica,sans-Serif" font-size="10.00">assert.h</text>
</a>
</g>
</g>
<!-- Node1&#45;&gt;Node3 -->
<g id="edge2" class="edge">
<title>Node1&#45;&gt;Node3</title>
<path fill="none" stroke="#63b8ff" d="M92,-54.75C92,-48.27 92,-39.16 92,-30.9"/>
<polygon fill="#63b8ff" stroke="#63b8ff" points="95.5,-30.96 92,-20.96 88.5,-30.96 95.5,-30.96"/>
</g>
<!-- Node4 -->
<g id="node4" class="node">
<title>Node4</title>
<g id="a_node4"><a xlink:title=" ">
<polygon fill="#e0e0e0" stroke="#999999" points="192,-19 136,-19 136,0 192,0 192,-19"/>
<text text-anchor="middle" x="164" y="-7" font-family="Helvetica,sans-Serif" font-size="10.00">stdbool.h</text>
</a>
</g>
</g>
<!-- Node1&#45;&gt;Node4 -->
<g id="edge3" class="edge">
<title>Node1&#45;&gt;Node4</title>
<path fill="none" stroke="#63b8ff" d="M104.21,-54.51C114.83,-46.7 130.44,-35.21 143.04,-25.93"/>
<polygon fill="#63b8ff" stroke="#63b8ff" points="144.77,-29 150.75,-20.26 140.62,-23.36 144.77,-29"/>
</g>
</g>
</svg>
