<?xml version="1.0" encoding="UTF-8" standalone="no"?>
<!DOCTYPE svg PUBLIC "-//W3C//DTD SVG 1.1//EN"
 "http://www.w3.org/Graphics/SVG/1.1/DTD/svg11.dtd">
<!-- Generated by graphviz version 8.0.5 (20230430.1635)
 -->
<!-- Title: sorting/bubble_sort_2.c Pages: 1 -->
<svg width="199pt" height="83pt"
 viewBox="0.00 0.00 198.62 82.50" xmlns="http://www.w3.org/2000/svg" xmlns:xlink="http://www.w3.org/1999/xlink">
<g id="graph0" class="graph" transform="scale(1 1) rotate(0) translate(4 78.5)">
<title>sorting/bubble_sort_2.c</title>
<!-- Node1 -->
<g id="Node000001" class="node">
<title>Node1</title>
<g id="a_Node000001"><a xlink:title="implementation of Bubble sort algorithm">
<polygon fill="#999999" stroke="#666666" points="149.38,-74.5 32.12,-74.5 32.12,-55.25 149.38,-55.25 149.38,-74.5"/>
<text text-anchor="middle" x="90.75" y="-61" font-family="Helvetica,sans-Serif" font-size="10.00">sorting/bubble_sort_2.c</text>
</a>
</g>
</g>
<!-- Node2 -->
<g id="Node000002" class="node">
<title>Node2</title>
<g id="a_Node000002"><a xlink:title=" ">
<polygon fill="#e0e0e0" stroke="#999999" points="47.5,-19.25 0,-19.25 0,0 47.5,0 47.5,-19.25"/>
<text text-anchor="middle" x="23.75" y="-5.75" font-family="Helvetica,sans-Serif" font-size="10.00">stdlib.h</text>
</a>
</g>
</g>
<!-- Node1&#45;&gt;Node2 -->
<g id="edge1_Node000001_Node000002" class="edge">
<title>Node1&#45;&gt;Node2</title>
<g id="a_edge1_Node000001_Node000002"><a xlink:title=" ">
<path fill="none" stroke="#63b8ff" d="M79.38,-54.84C69.51,-46.99 54.98,-35.45 43.25,-26.12"/>
<polygon fill="#63b8ff" stroke="#63b8ff" points="45.95,-23.01 35.95,-19.52 41.6,-28.49 45.95,-23.01"/>
</a>
</g>
</g>
<!-- Node3 -->
<g id="Node000003" class="node">
<title>Node3</title>
<g id="a_Node000003"><a xlink:title=" ">
<polygon fill="#e0e0e0" stroke="#999999" points="116.38,-19.25 65.12,-19.25 65.12,0 116.38,0 116.38,-19.25"/>
<text text-anchor="middle" x="90.75" y="-5.75" font-family="Helvetica,sans-Serif" font-size="10.00">assert.h</text>
</a>
</g>
</g>
<!-- Node1&#45;&gt;Node3 -->
<g id="edge2_Node000001_Node000003" class="edge">
<title>Node1&#45;&gt;Node3</title>
<g id="a_edge2_Node000001_Node000003"><a xlink:title=" ">
<path fill="none" stroke="#63b8ff" d="M90.75,-55.08C90.75,-48.42 90.75,-38.99 90.75,-30.53"/>
<polygon fill="#63b8ff" stroke="#63b8ff" points="94.25,-30.61 90.75,-20.61 87.25,-30.61 94.25,-30.61"/>
</a>
</g>
</g>
<!-- Node4 -->
<g id="Node000004" class="node">
<title>Node4</title>
<g id="a_Node000004"><a xlink:title=" ">
<polygon fill="#e0e0e0" stroke="#999999" points="190.62,-19.25 134.88,-19.25 134.88,0 190.62,0 190.62,-19.25"/>
<text text-anchor="middle" x="162.75" y="-5.75" font-family="Helvetica,sans-Serif" font-size="10.00">stdbool.h</text>
</a>
</g>
</g>
<!-- Node1&#45;&gt;Node4 -->
<g id="edge3_Node000001_Node000004" class="edge">
<title>Node1&#45;&gt;Node4</title>
<g id="a_edge3_Node000001_Node000004"><a xlink:title=" ">
<path fill="none" stroke="#63b8ff" d="M102.96,-54.84C113.68,-46.91 129.49,-35.22 142.16,-25.85"/>
<polygon fill="#63b8ff" stroke="#63b8ff" points="143.76,-28.29 149.72,-19.52 139.6,-22.66 143.76,-28.29"/>
</a>
</g>
</g>
</g>
</svg>
