<?xml version="1.0" encoding="UTF-8" standalone="no"?>
<!DOCTYPE svg PUBLIC "-//W3C//DTD SVG 1.1//EN"
 "http://www.w3.org/Graphics/SVG/1.1/DTD/svg11.dtd">
<!-- Generated by graphviz version 2.44.0 (20200408.0750)
 -->
<!-- Title: numerical_methods/qr_eigen_values.c Pages: 1 -->
<svg width="343pt" height="151pt"
 viewBox="0.00 0.00 342.50 151.00" xmlns="http://www.w3.org/2000/svg" xmlns:xlink="http://www.w3.org/1999/xlink">
<g id="graph0" class="graph" transform="scale(1 1) rotate(0) translate(4 147)">
<title>numerical_methods/qr_eigen_values.c</title>
<polygon fill="white" stroke="transparent" points="-4,4 -4,-147 338.5,-147 338.5,4 -4,4"/>
<!-- Node1 -->
<g id="node1" class="node">
<title>Node1</title>
<g id="a_node1"><a xlink:title="Compute real eigen values and eigen vectors of a symmetric matrix using QR decomposition method.">
<polygon fill="#bfbfbf" stroke="black" points="117,-112.5 117,-142.5 230,-142.5 230,-112.5 117,-112.5"/>
<text text-anchor="start" x="125" y="-130.5" font-family="Helvetica,sans-Serif" font-size="10.00">numerical_methods/qr</text>
<text text-anchor="middle" x="173.5" y="-119.5" font-family="Helvetica,sans-Serif" font-size="10.00">_eigen_values.c</text>
</a>
</g>
</g>
<!-- Node2 -->
<g id="node2" class="node">
<title>Node2</title>
<g id="a_node2"><a xlink:href="../../d4/d68/qr__decompose_8h.html" target="_top" xlink:title="Library functions to compute QR decomposition of a given matrix.">
<polygon fill="white" stroke="black" points="37,-56.5 37,-75.5 126,-75.5 126,-56.5 37,-56.5"/>
<text text-anchor="middle" x="81.5" y="-63.5" font-family="Helvetica,sans-Serif" font-size="10.00">qr_decompose.h</text>
</a>
</g>
</g>
<!-- Node1&#45;&gt;Node2 -->
<g id="edge1" class="edge">
<title>Node1&#45;&gt;Node2</title>
<path fill="none" stroke="midnightblue" d="M151.7,-112.4C137.09,-102.95 117.93,-90.56 103.32,-81.11"/>
<polygon fill="midnightblue" stroke="midnightblue" points="105.18,-78.15 94.89,-75.66 101.38,-84.03 105.18,-78.15"/>
</g>
<!-- Node3 -->
<g id="node3" class="node">
<title>Node3</title>
<g id="a_node3"><a xlink:title=" ">
<polygon fill="white" stroke="#bfbfbf" points="0,-0.5 0,-19.5 47,-19.5 47,-0.5 0,-0.5"/>
<text text-anchor="middle" x="23.5" y="-7.5" font-family="Helvetica,sans-Serif" font-size="10.00">math.h</text>
</a>
</g>
</g>
<!-- Node1&#45;&gt;Node3 -->
<g id="edge6" class="edge">
<title>Node1&#45;&gt;Node3</title>
<path fill="none" stroke="midnightblue" d="M116.81,-121.89C85.34,-116.16 48.43,-103.55 27.5,-76 17.57,-62.93 17.62,-43.78 19.52,-29.65"/>
<polygon fill="midnightblue" stroke="midnightblue" points="23,-30.06 21.29,-19.6 16.11,-28.84 23,-30.06"/>
</g>
<!-- Node4 -->
<g id="node4" class="node">
<title>Node4</title>
<g id="a_node4"><a xlink:title=" ">
<polygon fill="white" stroke="#bfbfbf" points="69.5,-0.5 69.5,-19.5 115.5,-19.5 115.5,-0.5 69.5,-0.5"/>
<text text-anchor="middle" x="92.5" y="-7.5" font-family="Helvetica,sans-Serif" font-size="10.00">stdio.h</text>
</a>
</g>
</g>
<!-- Node1&#45;&gt;Node4 -->
<g id="edge7" class="edge">
<title>Node1&#45;&gt;Node4</title>
<path fill="none" stroke="midnightblue" d="M167.25,-112.33C160.44,-97.61 148.74,-74.22 135.5,-56 127.89,-45.53 118,-35.01 109.61,-26.78"/>
<polygon fill="midnightblue" stroke="midnightblue" points="111.81,-24.04 102.17,-19.66 106.98,-29.1 111.81,-24.04"/>
</g>
<!-- Node5 -->
<g id="node5" class="node">
<title>Node5</title>
<g id="a_node5"><a xlink:title=" ">
<polygon fill="white" stroke="#bfbfbf" points="156.5,-0.5 156.5,-19.5 204.5,-19.5 204.5,-0.5 156.5,-0.5"/>
<text text-anchor="middle" x="180.5" y="-7.5" font-family="Helvetica,sans-Serif" font-size="10.00">stdlib.h</text>
</a>
</g>
</g>
<!-- Node1&#45;&gt;Node5 -->
<g id="edge8" class="edge">
<title>Node1&#45;&gt;Node5</title>
<path fill="none" stroke="midnightblue" d="M174.36,-112.34C175.61,-91.62 177.95,-53.02 179.35,-29.9"/>
<polygon fill="midnightblue" stroke="midnightblue" points="182.86,-29.86 179.97,-19.67 175.88,-29.44 182.86,-29.86"/>
</g>
<!-- Node6 -->
<g id="node6" class="node">
<title>Node6</title>
<g id="a_node6"><a xlink:title=" ">
<polygon fill="white" stroke="#bfbfbf" points="220.5,-56.5 220.5,-75.5 272.5,-75.5 272.5,-56.5 220.5,-56.5"/>
<text text-anchor="middle" x="246.5" y="-63.5" font-family="Helvetica,sans-Serif" font-size="10.00">assert.h</text>
</a>
</g>
</g>
<!-- Node1&#45;&gt;Node6 -->
<g id="edge5" class="edge">
<title>Node1&#45;&gt;Node6</title>
<path fill="none" stroke="midnightblue" d="M190.8,-112.4C201.95,-103.31 216.45,-91.49 227.86,-82.19"/>
<polygon fill="midnightblue" stroke="midnightblue" points="230.34,-84.69 235.88,-75.66 225.92,-79.26 230.34,-84.69"/>
</g>
<!-- Node7 -->
<g id="node7" class="node">
<title>Node7</title>
<g id="a_node7"><a xlink:title=" ">
<polygon fill="white" stroke="#bfbfbf" points="290.5,-56.5 290.5,-75.5 334.5,-75.5 334.5,-56.5 290.5,-56.5"/>
<text text-anchor="middle" x="312.5" y="-63.5" font-family="Helvetica,sans-Serif" font-size="10.00">time.h</text>
</a>
</g>
</g>
<!-- Node1&#45;&gt;Node7 -->
<g id="edge9" class="edge">
<title>Node1&#45;&gt;Node7</title>
<path fill="none" stroke="midnightblue" d="M206.44,-112.4C229.66,-102.46 260.49,-89.26 282.92,-79.66"/>
<polygon fill="midnightblue" stroke="midnightblue" points="284.46,-82.81 292.27,-75.66 281.7,-76.38 284.46,-82.81"/>
</g>
<!-- Node2&#45;&gt;Node3 -->
<g id="edge2" class="edge">
<title>Node2&#45;&gt;Node3</title>
<path fill="none" stroke="midnightblue" d="M72.18,-56.32C63.61,-48.34 50.69,-36.31 40.31,-26.65"/>
<polygon fill="midnightblue" stroke="midnightblue" points="42.69,-24.09 32.99,-19.83 37.92,-29.21 42.69,-24.09"/>
</g>
<!-- Node2&#45;&gt;Node4 -->
<g id="edge3" class="edge">
<title>Node2&#45;&gt;Node4</title>
<path fill="none" stroke="midnightblue" d="M83.32,-56.08C84.77,-48.93 86.87,-38.64 88.69,-29.69"/>
<polygon fill="midnightblue" stroke="midnightblue" points="92.15,-30.25 90.72,-19.75 85.29,-28.85 92.15,-30.25"/>
</g>
<!-- Node2&#45;&gt;Node5 -->
<g id="edge4" class="edge">
<title>Node2&#45;&gt;Node5</title>
<path fill="none" stroke="midnightblue" d="M97.41,-56.32C113.14,-47.74 137.44,-34.49 155.71,-24.52"/>
<polygon fill="midnightblue" stroke="midnightblue" points="157.53,-27.52 164.63,-19.65 154.18,-21.37 157.53,-27.52"/>
</g>
</g>
</svg>
