<?xml version="1.0" encoding="UTF-8" standalone="no"?>
<!DOCTYPE svg PUBLIC "-//W3C//DTD SVG 1.1//EN"
 "http://www.w3.org/Graphics/SVG/1.1/DTD/svg11.dtd">
<!-- Generated by graphviz version 7.0.6 (20230106.0513)
 -->
<!-- Title: numerical_methods/qr_eigen_values.c Pages: 1 -->
<svg width="344pt" height="148pt"
 viewBox="0.00 0.00 344.00 148.00" xmlns="http://www.w3.org/2000/svg" xmlns:xlink="http://www.w3.org/1999/xlink">
<g id="graph0" class="graph" transform="scale(1 1) rotate(0) translate(4 144)">
<title>numerical_methods/qr_eigen_values.c</title>
<!-- Node1 -->
<g id="node1" class="node">
<title>Node1</title>
<g id="a_node1"><a xlink:title="Compute real eigen values and eigen vectors of a symmetric matrix using QR decomposition method.">
<polygon fill="#999999" stroke="#666666" points="245.5,-140 132.5,-140 132.5,-110 245.5,-110 245.5,-140"/>
<text text-anchor="start" x="140.5" y="-128" font-family="Helvetica,sans-Serif" font-size="10.00">numerical_methods/qr</text>
<text text-anchor="middle" x="189" y="-117" font-family="Helvetica,sans-Serif" font-size="10.00">_eigen_values.c</text>
</a>
</g>
</g>
<!-- Node2 -->
<g id="node2" class="node">
<title>Node2</title>
<g id="a_node2"><a xlink:title=" ">
<polygon fill="#e0e0e0" stroke="#999999" points="52,-74 0,-74 0,-55 52,-55 52,-74"/>
<text text-anchor="middle" x="26" y="-62" font-family="Helvetica,sans-Serif" font-size="10.00">assert.h</text>
</a>
</g>
</g>
<!-- Node1&#45;&gt;Node2 -->
<g id="edge1" class="edge">
<title>Node1&#45;&gt;Node2</title>
<path fill="none" stroke="#63b8ff" d="M148.71,-109.54C121.94,-99.93 87.11,-87.43 61.41,-78.21"/>
<polygon fill="#63b8ff" stroke="#63b8ff" points="62.67,-74.94 52.07,-74.86 60.3,-81.53 62.67,-74.94"/>
</g>
<!-- Node3 -->
<g id="node3" class="node">
<title>Node3</title>
<g id="a_node3"><a xlink:title=" ">
<polygon fill="#e0e0e0" stroke="#999999" points="118.5,-19 71.5,-19 71.5,0 118.5,0 118.5,-19"/>
<text text-anchor="middle" x="95" y="-7" font-family="Helvetica,sans-Serif" font-size="10.00">math.h</text>
</a>
</g>
</g>
<!-- Node1&#45;&gt;Node3 -->
<g id="edge2" class="edge">
<title>Node1&#45;&gt;Node3</title>
<path fill="none" stroke="#63b8ff" d="M143.87,-109.55C126.94,-101.77 109.31,-90.32 99,-74 90.86,-61.12 90.33,-43.69 91.58,-30.34"/>
<polygon fill="#63b8ff" stroke="#63b8ff" points="95.02,-30.97 92.91,-20.59 88.09,-30.02 95.02,-30.97"/>
</g>
<!-- Node4 -->
<g id="node4" class="node">
<title>Node4</title>
<g id="a_node4"><a xlink:title=" ">
<polygon fill="#e0e0e0" stroke="#999999" points="187,-19 141,-19 141,0 187,0 187,-19"/>
<text text-anchor="middle" x="164" y="-7" font-family="Helvetica,sans-Serif" font-size="10.00">stdio.h</text>
</a>
</g>
</g>
<!-- Node1&#45;&gt;Node4 -->
<g id="edge3" class="edge">
<title>Node1&#45;&gt;Node4</title>
<path fill="none" stroke="#63b8ff" d="M197.97,-109.65C205.65,-95.45 214.38,-73.25 207,-55 202.57,-44.03 193.99,-34.26 185.65,-26.69"/>
<polygon fill="#63b8ff" stroke="#63b8ff" points="187.99,-24.08 178.07,-20.36 183.5,-29.45 187.99,-24.08"/>
</g>
<!-- Node5 -->
<g id="node5" class="node">
<title>Node5</title>
<g id="a_node5"><a xlink:title=" ">
<polygon fill="#e0e0e0" stroke="#999999" points="276,-19 228,-19 228,0 276,0 276,-19"/>
<text text-anchor="middle" x="252" y="-7" font-family="Helvetica,sans-Serif" font-size="10.00">stdlib.h</text>
</a>
</g>
</g>
<!-- Node1&#45;&gt;Node5 -->
<g id="edge4" class="edge">
<title>Node1&#45;&gt;Node5</title>
<path fill="none" stroke="#63b8ff" d="M199.09,-109.9C205.92,-100.06 214.96,-86.51 222,-74 230.15,-59.52 238.12,-42.46 243.8,-29.67"/>
<polygon fill="#63b8ff" stroke="#63b8ff" points="246.92,-31.28 247.7,-20.71 240.5,-28.48 246.92,-31.28"/>
</g>
<!-- Node6 -->
<g id="node6" class="node">
<title>Node6</title>
<g id="a_node6"><a xlink:title=" ">
<polygon fill="#e0e0e0" stroke="#999999" points="336,-74 292,-74 292,-55 336,-55 336,-74"/>
<text text-anchor="middle" x="314" y="-62" font-family="Helvetica,sans-Serif" font-size="10.00">time.h</text>
</a>
</g>
</g>
<!-- Node1&#45;&gt;Node6 -->
<g id="edge5" class="edge">
<title>Node1&#45;&gt;Node6</title>
<path fill="none" stroke="#63b8ff" d="M219.9,-109.54C239.69,-100.28 265.23,-88.33 284.7,-79.21"/>
<polygon fill="#63b8ff" stroke="#63b8ff" points="286.15,-82.4 293.73,-74.99 283.19,-76.06 286.15,-82.4"/>
</g>
<!-- Node7 -->
<g id="node7" class="node">
<title>Node7</title>
<g id="a_node7"><a xlink:href="../../d4/d68/qr__decompose_8h.html" target="_top" xlink:title="Library functions to compute QR decomposition of a given matrix.">
<polygon fill="white" stroke="#666666" points="197.5,-74 108.5,-74 108.5,-55 197.5,-55 197.5,-74"/>
<text text-anchor="middle" x="153" y="-62" font-family="Helvetica,sans-Serif" font-size="10.00">qr_decompose.h</text>
</a>
</g>
</g>
<!-- Node1&#45;&gt;Node7 -->
<g id="edge6" class="edge">
<title>Node1&#45;&gt;Node7</title>
<path fill="none" stroke="#63b8ff" d="M180.1,-109.54C175.3,-101.74 169.32,-92.03 164.21,-83.71"/>
<polygon fill="#63b8ff" stroke="#63b8ff" points="167.35,-82.15 159.13,-75.46 161.39,-85.82 167.35,-82.15"/>
</g>
<!-- Node7&#45;&gt;Node3 -->
<g id="edge7" class="edge">
<title>Node7&#45;&gt;Node3</title>
<path fill="none" stroke="#63b8ff" d="M143.16,-54.51C134.95,-47 123.02,-36.1 113.09,-27.03"/>
<polygon fill="#63b8ff" stroke="#63b8ff" points="115.55,-24.54 105.81,-20.38 110.83,-29.71 115.55,-24.54"/>
</g>
<!-- Node7&#45;&gt;Node4 -->
<g id="edge8" class="edge">
<title>Node7&#45;&gt;Node4</title>
<path fill="none" stroke="#63b8ff" d="M154.82,-54.75C156.18,-48.19 158.1,-38.95 159.83,-30.6"/>
<polygon fill="#63b8ff" stroke="#63b8ff" points="163.23,-31.43 161.84,-20.92 156.38,-30 163.23,-31.43"/>
</g>
<!-- Node7&#45;&gt;Node5 -->
<g id="edge9" class="edge">
<title>Node7&#45;&gt;Node5</title>
<path fill="none" stroke="#63b8ff" d="M169.79,-54.51C185.1,-46.31 207.97,-34.07 225.7,-24.58"/>
<polygon fill="#63b8ff" stroke="#63b8ff" points="226.96,-27.88 234.12,-20.07 223.65,-21.71 226.96,-27.88"/>
</g>
</g>
</svg>
