<?xml version="1.0" encoding="UTF-8" standalone="no"?>
<!DOCTYPE svg PUBLIC "-//W3C//DTD SVG 1.1//EN"
 "http://www.w3.org/Graphics/SVG/1.1/DTD/svg11.dtd">
<!-- Generated by graphviz version 2.49.3 (20211023.0002)
 -->
<!-- Title: numerical_methods/qr_eigen_values.c Pages: 1 -->
<svg width="346pt" height="151pt"
 viewBox="0.00 0.00 346.00 151.00" xmlns="http://www.w3.org/2000/svg" xmlns:xlink="http://www.w3.org/1999/xlink">
<g id="graph0" class="graph" transform="scale(1 1) rotate(0) translate(4 147)">
<title>numerical_methods/qr_eigen_values.c</title>
<polygon fill="white" stroke="transparent" points="-4,4 -4,-147 342,-147 342,4 -4,4"/>
<!-- Node1 -->
<g id="node1" class="node">
<title>Node1</title>
<g id="a_node1"><a xlink:title="Compute real eigen values and eigen vectors of a symmetric matrix using QR decomposition method.">
<polygon fill="#bfbfbf" stroke="black" points="133.5,-112.5 133.5,-142.5 248.5,-142.5 248.5,-112.5 133.5,-112.5"/>
<text text-anchor="start" x="141.5" y="-130.5" font-family="Helvetica,sans-Serif" font-size="10.00">numerical_methods/qr</text>
<text text-anchor="middle" x="191" y="-119.5" font-family="Helvetica,sans-Serif" font-size="10.00">_eigen_values.c</text>
</a>
</g>
</g>
<!-- Node2 -->
<g id="node2" class="node">
<title>Node2</title>
<g id="a_node2"><a xlink:title=" ">
<polygon fill="white" stroke="#bfbfbf" points="0,-56.5 0,-75.5 52,-75.5 52,-56.5 0,-56.5"/>
<text text-anchor="middle" x="26" y="-63.5" font-family="Helvetica,sans-Serif" font-size="10.00">assert.h</text>
</a>
</g>
</g>
<!-- Node1&#45;&gt;Node2 -->
<g id="edge1" class="edge">
<title>Node1&#45;&gt;Node2</title>
<path fill="none" stroke="midnightblue" d="M151.9,-112.4C123.84,-102.28 86.43,-88.79 59.69,-79.15"/>
<polygon fill="midnightblue" stroke="midnightblue" points="60.6,-75.76 50.01,-75.66 58.23,-82.34 60.6,-75.76"/>
</g>
<!-- Node3 -->
<g id="node3" class="node">
<title>Node3</title>
<g id="a_node3"><a xlink:title=" ">
<polygon fill="white" stroke="#bfbfbf" points="73.5,-0.5 73.5,-19.5 120.5,-19.5 120.5,-0.5 73.5,-0.5"/>
<text text-anchor="middle" x="97" y="-7.5" font-family="Helvetica,sans-Serif" font-size="10.00">math.h</text>
</a>
</g>
</g>
<!-- Node1&#45;&gt;Node3 -->
<g id="edge2" class="edge">
<title>Node1&#45;&gt;Node3</title>
<path fill="none" stroke="midnightblue" d="M145.1,-112.42C127.6,-104.6 109.38,-92.93 99,-76 90.61,-62.31 90.93,-43.78 92.86,-30"/>
<polygon fill="midnightblue" stroke="midnightblue" points="96.38,-30.23 94.71,-19.76 89.49,-28.98 96.38,-30.23"/>
</g>
<!-- Node4 -->
<g id="node4" class="node">
<title>Node4</title>
<g id="a_node4"><a xlink:title=" ">
<polygon fill="white" stroke="#bfbfbf" points="143,-0.5 143,-19.5 189,-19.5 189,-0.5 143,-0.5"/>
<text text-anchor="middle" x="166" y="-7.5" font-family="Helvetica,sans-Serif" font-size="10.00">stdio.h</text>
</a>
</g>
</g>
<!-- Node1&#45;&gt;Node4 -->
<g id="edge3" class="edge">
<title>Node1&#45;&gt;Node4</title>
<path fill="none" stroke="midnightblue" d="M199.72,-112.38C207.5,-97.89 216.57,-74.88 209,-56 204.32,-44.33 195.01,-33.97 186.24,-26.14"/>
<polygon fill="midnightblue" stroke="midnightblue" points="188.42,-23.4 178.5,-19.7 183.95,-28.78 188.42,-23.4"/>
</g>
<!-- Node5 -->
<g id="node5" class="node">
<title>Node5</title>
<g id="a_node5"><a xlink:title=" ">
<polygon fill="white" stroke="#bfbfbf" points="230,-0.5 230,-19.5 278,-19.5 278,-0.5 230,-0.5"/>
<text text-anchor="middle" x="254" y="-7.5" font-family="Helvetica,sans-Serif" font-size="10.00">stdlib.h</text>
</a>
</g>
</g>
<!-- Node1&#45;&gt;Node5 -->
<g id="edge4" class="edge">
<title>Node1&#45;&gt;Node5</title>
<path fill="none" stroke="midnightblue" d="M201.11,-112.26C207.96,-102.33 217,-88.64 224,-76 232.55,-60.56 240.85,-42.24 246.54,-28.99"/>
<polygon fill="midnightblue" stroke="midnightblue" points="249.84,-30.18 250.5,-19.61 243.39,-27.46 249.84,-30.18"/>
</g>
<!-- Node6 -->
<g id="node6" class="node">
<title>Node6</title>
<g id="a_node6"><a xlink:title=" ">
<polygon fill="white" stroke="#bfbfbf" points="294,-56.5 294,-75.5 338,-75.5 338,-56.5 294,-56.5"/>
<text text-anchor="middle" x="316" y="-63.5" font-family="Helvetica,sans-Serif" font-size="10.00">time.h</text>
</a>
</g>
</g>
<!-- Node1&#45;&gt;Node6 -->
<g id="edge5" class="edge">
<title>Node1&#45;&gt;Node6</title>
<path fill="none" stroke="midnightblue" d="M220.62,-112.4C241.22,-102.59 268.48,-89.62 288.58,-80.05"/>
<polygon fill="midnightblue" stroke="midnightblue" points="290.29,-83.12 297.81,-75.66 287.28,-76.8 290.29,-83.12"/>
</g>
<!-- Node7 -->
<g id="node7" class="node">
<title>Node7</title>
<g id="a_node7"><a xlink:href="../../d4/d68/qr__decompose_8h.html" target="_top" xlink:title="Library functions to compute QR decomposition of a given matrix.">
<polygon fill="white" stroke="black" points="108.5,-56.5 108.5,-75.5 199.5,-75.5 199.5,-56.5 108.5,-56.5"/>
<text text-anchor="middle" x="154" y="-63.5" font-family="Helvetica,sans-Serif" font-size="10.00">qr_decompose.h</text>
</a>
</g>
</g>
<!-- Node1&#45;&gt;Node7 -->
<g id="edge6" class="edge">
<title>Node1&#45;&gt;Node7</title>
<path fill="none" stroke="midnightblue" d="M182.23,-112.4C177.02,-104.02 170.37,-93.33 164.83,-84.42"/>
<polygon fill="midnightblue" stroke="midnightblue" points="167.64,-82.3 159.38,-75.66 161.69,-86 167.64,-82.3"/>
</g>
<!-- Node7&#45;&gt;Node3 -->
<g id="edge7" class="edge">
<title>Node7&#45;&gt;Node3</title>
<path fill="none" stroke="midnightblue" d="M144.84,-56.32C136.5,-48.42 123.97,-36.55 113.82,-26.94"/>
<polygon fill="midnightblue" stroke="midnightblue" points="115.99,-24.17 106.32,-19.83 111.18,-29.25 115.99,-24.17"/>
</g>
<!-- Node7&#45;&gt;Node4 -->
<g id="edge8" class="edge">
<title>Node7&#45;&gt;Node4</title>
<path fill="none" stroke="midnightblue" d="M155.98,-56.08C157.57,-48.93 159.86,-38.64 161.85,-29.69"/>
<polygon fill="midnightblue" stroke="midnightblue" points="165.3,-30.27 164.06,-19.75 158.47,-28.75 165.3,-30.27"/>
</g>
<!-- Node7&#45;&gt;Node5 -->
<g id="edge9" class="edge">
<title>Node7&#45;&gt;Node5</title>
<path fill="none" stroke="midnightblue" d="M170.07,-56.32C185.96,-47.74 210.51,-34.49 228.96,-24.52"/>
<polygon fill="midnightblue" stroke="midnightblue" points="230.84,-27.49 237.97,-19.65 227.51,-21.33 230.84,-27.49"/>
</g>
</g>
</svg>
