<?xml version="1.0" encoding="UTF-8" standalone="no"?>
<!DOCTYPE svg PUBLIC "-//W3C//DTD SVG 1.1//EN"
 "http://www.w3.org/Graphics/SVG/1.1/DTD/svg11.dtd">
<!-- Generated by graphviz version 8.0.2 (20230410.1723)
 -->
<!-- Title: numerical_methods/qr_eigen_values.c Pages: 1 -->
<svg width="344pt" height="148pt"
 viewBox="0.00 0.00 344.00 148.00" xmlns="http://www.w3.org/2000/svg" xmlns:xlink="http://www.w3.org/1999/xlink">
<g id="graph0" class="graph" transform="scale(1 1) rotate(0) translate(4 144)">
<title>numerical_methods/qr_eigen_values.c</title>
<!-- Node1 -->
<g id="node1" class="node">
<title>Node1</title>
<g id="a_node1"><a xlink:title="Compute real eigen values and eigen vectors of a symmetric matrix using QR decomposition method.">
<polygon fill="#999999" stroke="#666666" points="245.5,-140 132.5,-140 132.5,-110 245.5,-110 245.5,-140"/>
<text text-anchor="start" x="140.5" y="-128" font-family="Helvetica,sans-Serif" font-size="10.00">numerical_methods/qr</text>
<text text-anchor="middle" x="189" y="-117" font-family="Helvetica,sans-Serif" font-size="10.00">_eigen_values.c</text>
</a>
</g>
</g>
<!-- Node2 -->
<g id="node2" class="node">
<title>Node2</title>
<g id="a_node2"><a xlink:title=" ">
<polygon fill="#e0e0e0" stroke="#999999" points="52,-74 0,-74 0,-55 52,-55 52,-74"/>
<text text-anchor="middle" x="26" y="-62" font-family="Helvetica,sans-Serif" font-size="10.00">assert.h</text>
</a>
</g>
</g>
<!-- Node1&#45;&gt;Node2 -->
<g id="edge1" class="edge">
<title>Node1&#45;&gt;Node2</title>
<path fill="none" stroke="#63b8ff" d="M148.71,-109.54C121.7,-99.84 86.49,-87.21 60.72,-77.96"/>
<polygon fill="#63b8ff" stroke="#63b8ff" points="62.24,-74.43 51.65,-74.35 59.88,-81.02 62.24,-74.43"/>
</g>
<!-- Node3 -->
<g id="node3" class="node">
<title>Node3</title>
<g id="a_node3"><a xlink:title=" ">
<polygon fill="#e0e0e0" stroke="#999999" points="118.5,-19 71.5,-19 71.5,0 118.5,0 118.5,-19"/>
<text text-anchor="middle" x="95" y="-7" font-family="Helvetica,sans-Serif" font-size="10.00">math.h</text>
</a>
</g>
</g>
<!-- Node1&#45;&gt;Node3 -->
<g id="edge2" class="edge">
<title>Node1&#45;&gt;Node3</title>
<path fill="none" stroke="#63b8ff" d="M143.87,-109.55C126.94,-101.77 109.31,-90.32 99,-74 90.78,-60.99 90.32,-43.33 91.61,-29.93"/>
<polygon fill="#63b8ff" stroke="#63b8ff" points="95.21,-30.48 93.12,-20.09 88.28,-29.51 95.21,-30.48"/>
</g>
<!-- Node4 -->
<g id="node4" class="node">
<title>Node4</title>
<g id="a_node4"><a xlink:title=" ">
<polygon fill="#e0e0e0" stroke="#999999" points="187,-19 141,-19 141,0 187,0 187,-19"/>
<text text-anchor="middle" x="164" y="-7" font-family="Helvetica,sans-Serif" font-size="10.00">stdio.h</text>
</a>
</g>
</g>
<!-- Node1&#45;&gt;Node4 -->
<g id="edge3" class="edge">
<title>Node1&#45;&gt;Node4</title>
<path fill="none" stroke="#63b8ff" d="M197.97,-109.65C205.65,-95.45 214.38,-73.25 207,-55 202.47,-43.79 193.62,-33.84 185.12,-26.21"/>
<polygon fill="#63b8ff" stroke="#63b8ff" points="187.83,-23.09 177.91,-19.39 183.36,-28.47 187.83,-23.09"/>
</g>
<!-- Node5 -->
<g id="node5" class="node">
<title>Node5</title>
<g id="a_node5"><a xlink:title=" ">
<polygon fill="#e0e0e0" stroke="#999999" points="276,-19 228,-19 228,0 276,0 276,-19"/>
<text text-anchor="middle" x="252" y="-7" font-family="Helvetica,sans-Serif" font-size="10.00">stdlib.h</text>
</a>
</g>
</g>
<!-- Node1&#45;&gt;Node5 -->
<g id="edge4" class="edge">
<title>Node1&#45;&gt;Node5</title>
<path fill="none" stroke="#63b8ff" d="M199.09,-109.9C205.92,-100.06 214.96,-86.51 222,-74 230.23,-59.37 238.28,-42.11 243.97,-29.28"/>
<polygon fill="#63b8ff" stroke="#63b8ff" points="247.52,-30.89 248.31,-20.32 241.1,-28.1 247.52,-30.89"/>
</g>
<!-- Node6 -->
<g id="node6" class="node">
<title>Node6</title>
<g id="a_node6"><a xlink:title=" ">
<polygon fill="#e0e0e0" stroke="#999999" points="336,-74 292,-74 292,-55 336,-55 336,-74"/>
<text text-anchor="middle" x="314" y="-62" font-family="Helvetica,sans-Serif" font-size="10.00">time.h</text>
</a>
</g>
</g>
<!-- Node1&#45;&gt;Node6 -->
<g id="edge5" class="edge">
<title>Node1&#45;&gt;Node6</title>
<path fill="none" stroke="#63b8ff" d="M219.9,-109.54C239.88,-100.19 265.7,-88.1 285.24,-78.96"/>
<polygon fill="#63b8ff" stroke="#63b8ff" points="286.52,-81.76 294.1,-74.35 283.56,-75.41 286.52,-81.76"/>
</g>
<!-- Node7 -->
<g id="node7" class="node">
<title>Node7</title>
<g id="a_node7"><a xlink:href="../../d4/d68/qr__decompose_8h.html" target="_top" xlink:title="Library functions to compute QR decomposition of a given matrix.">
<polygon fill="white" stroke="#666666" points="197.5,-74 108.5,-74 108.5,-55 197.5,-55 197.5,-74"/>
<text text-anchor="middle" x="153" y="-62" font-family="Helvetica,sans-Serif" font-size="10.00">qr_decompose.h</text>
</a>
</g>
</g>
<!-- Node1&#45;&gt;Node7 -->
<g id="edge6" class="edge">
<title>Node1&#45;&gt;Node7</title>
<path fill="none" stroke="#63b8ff" d="M180.1,-109.54C175.25,-101.65 169.19,-91.81 164.04,-83.44"/>
<polygon fill="#63b8ff" stroke="#63b8ff" points="166.56,-81.86 158.34,-75.18 160.6,-85.53 166.56,-81.86"/>
</g>
<!-- Node7&#45;&gt;Node3 -->
<g id="edge7" class="edge">
<title>Node7&#45;&gt;Node3</title>
<path fill="none" stroke="#63b8ff" d="M143.16,-54.51C134.86,-46.93 122.77,-35.88 112.78,-26.75"/>
<polygon fill="#63b8ff" stroke="#63b8ff" points="115.44,-24.52 105.69,-20.36 110.71,-29.69 115.44,-24.52"/>
</g>
<!-- Node7&#45;&gt;Node4 -->
<g id="edge8" class="edge">
<title>Node7&#45;&gt;Node4</title>
<path fill="none" stroke="#63b8ff" d="M154.82,-54.75C156.21,-48.04 158.19,-38.52 159.95,-30.02"/>
<polygon fill="#63b8ff" stroke="#63b8ff" points="163.54,-30.94 162.14,-20.44 156.68,-29.52 163.54,-30.94"/>
</g>
<!-- Node7&#45;&gt;Node5 -->
<g id="edge9" class="edge">
<title>Node7&#45;&gt;Node5</title>
<path fill="none" stroke="#63b8ff" d="M169.79,-54.51C185.25,-46.24 208.4,-33.84 226.2,-24.31"/>
<polygon fill="#63b8ff" stroke="#63b8ff" points="227.29,-27.16 234.45,-19.36 223.99,-20.99 227.29,-27.16"/>
</g>
</g>
</svg>
