<?xml version="1.0" encoding="UTF-8" standalone="no"?>
<!DOCTYPE svg PUBLIC "-//W3C//DTD SVG 1.1//EN"
 "http://www.w3.org/Graphics/SVG/1.1/DTD/svg11.dtd">
<!-- Generated by graphviz version 8.0.5 (20230430.1635)
 -->
<!-- Title: test Pages: 1 -->
<svg width="153pt" height="82pt"
 viewBox="0.00 0.00 153.25 82.25" xmlns="http://www.w3.org/2000/svg" xmlns:xlink="http://www.w3.org/1999/xlink">
<g id="graph0" class="graph" transform="scale(1 1) rotate(0) translate(4 78.25)">
<title>test</title>
<!-- Node1 -->
<g id="Node000001" class="node">
<title>Node1</title>
<g id="a_Node000001"><a xlink:title="Test implementations.">
<polygon fill="#999999" stroke="#666666" points="32.5,-37.25 0,-37.25 0,-18 32.5,-18 32.5,-37.25"/>
<text text-anchor="middle" x="16.25" y="-23.75" font-family="Helvetica,sans-Serif" font-size="10.00">test</text>
</a>
</g>
</g>
<!-- Node2 -->
<g id="Node000002" class="node">
<title>Node2</title>
<g id="a_Node000002"><a xlink:href="../../df/d3b/binary__search_8c.html#a40855c608ca64048d04cff6526f0a582" target="_top" xlink:title="Recursive implementation.">
<polygon fill="white" stroke="#666666" points="145.25,-56.25 68.5,-56.25 68.5,-37 145.25,-37 145.25,-56.25"/>
<text text-anchor="middle" x="106.88" y="-42.75" font-family="Helvetica,sans-Serif" font-size="10.00">binarysearch1</text>
</a>
</g>
</g>
<!-- Node1&#45;&gt;Node2 -->
<g id="edge1_Node000001_Node000002" class="edge">
<title>Node1&#45;&gt;Node2</title>
<g id="a_edge1_Node000001_Node000002"><a xlink:title=" ">
<path fill="none" stroke="#63b8ff" d="M32.69,-30.93C39.75,-32.45 48.53,-34.33 57.55,-36.26"/>
<polygon fill="#63b8ff" stroke="#63b8ff" points="56.63,-39.86 67.14,-38.53 58.09,-33.02 56.63,-39.86"/>
</a>
</g>
</g>
<!-- Node3 -->
<g id="Node000003" class="node">
<title>Node3</title>
<g id="a_Node000003"><a xlink:href="../../df/d3b/binary__search_8c.html#a908fd6d2ad0bba33f63f8454888a0032" target="_top" xlink:title="Iterative implementation.">
<polygon fill="white" stroke="#666666" points="145.25,-19.25 68.5,-19.25 68.5,0 145.25,0 145.25,-19.25"/>
<text text-anchor="middle" x="106.88" y="-5.75" font-family="Helvetica,sans-Serif" font-size="10.00">binarysearch2</text>
</a>
</g>
</g>
<!-- Node1&#45;&gt;Node3 -->
<g id="edge3_Node000001_Node000003" class="edge">
<title>Node1&#45;&gt;Node3</title>
<g id="a_edge3_Node000001_Node000003"><a xlink:title=" ">
<path fill="none" stroke="#63b8ff" d="M32.69,-24.49C39.75,-23.06 48.53,-21.27 57.55,-19.44"/>
<polygon fill="#63b8ff" stroke="#63b8ff" points="58.03,-22.71 67.14,-17.29 56.64,-15.85 58.03,-22.71"/>
</a>
</g>
</g>
<!-- Node2&#45;&gt;Node2 -->
<g id="edge2_Node000002_Node000002" class="edge">
<title>Node2&#45;&gt;Node2</title>
<g id="a_edge2_Node000002_Node000002"><a xlink:title=" ">
<path fill="none" stroke="#63b8ff" d="M92.69,-56.54C86.22,-65.15 90.94,-74.25 106.88,-74.25 115.84,-74.25 121.25,-71.37 123.13,-67.32"/>
<polygon fill="#63b8ff" stroke="#63b8ff" points="126.38,-66.7 121.06,-57.54 119.5,-68.02 126.38,-66.7"/>
</a>
</g>
</g>
</g>
</svg>
