<?xml version="1.0" encoding="UTF-8" standalone="no"?>
<!DOCTYPE svg PUBLIC "-//W3C//DTD SVG 1.1//EN"
 "http://www.w3.org/Graphics/SVG/1.1/DTD/svg11.dtd">
<!-- Generated by graphviz version 8.0.5 (20230430.1635)
 -->
<!-- Title: math/fibonacci.c Pages: 1 -->
<svg width="313pt" height="83pt"
 viewBox="0.00 0.00 313.12 82.50" xmlns="http://www.w3.org/2000/svg" xmlns:xlink="http://www.w3.org/1999/xlink">
<g id="graph0" class="graph" transform="scale(1 1) rotate(0) translate(4 78.5)">
<title>math/fibonacci.c</title>
<!-- Node1 -->
<g id="node1" class="node">
<title>Node1</title>
<g id="a_node1"><a xlink:title="Program to print the nth term of the Fibonacci series.">
<polygon fill="#999999" stroke="#666666" points="200.62,-74.5 112.62,-74.5 112.62,-55.25 200.62,-55.25 200.62,-74.5"/>
<text text-anchor="middle" x="156.62" y="-61" font-family="Helvetica,sans-Serif" font-size="10.00">math/fibonacci.c</text>
</a>
</g>
</g>
<!-- Node2 -->
<g id="node2" class="node">
<title>Node2</title>
<g id="a_node2"><a xlink:title=" ">
<polygon fill="#e0e0e0" stroke="#999999" points="51.25,-19.25 0,-19.25 0,0 51.25,0 51.25,-19.25"/>
<text text-anchor="middle" x="25.62" y="-5.75" font-family="Helvetica,sans-Serif" font-size="10.00">assert.h</text>
</a>
</g>
</g>
<!-- Node1&#45;&gt;Node2 -->
<g id="edge1" class="edge">
<title>Node1&#45;&gt;Node2</title>
<path fill="none" stroke="#63b8ff" d="M134.4,-54.84C113.42,-46.31 81.71,-33.42 57.93,-23.76"/>
<polygon fill="#63b8ff" stroke="#63b8ff" points="59.54,-20.23 48.96,-19.7 56.9,-26.71 59.54,-20.23"/>
</g>
<!-- Node3 -->
<g id="node3" class="node">
<title>Node3</title>
<g id="a_node3"><a xlink:title=" ">
<polygon fill="#e0e0e0" stroke="#999999" points="115.62,-19.25 69.62,-19.25 69.62,0 115.62,0 115.62,-19.25"/>
<text text-anchor="middle" x="92.62" y="-5.75" font-family="Helvetica,sans-Serif" font-size="10.00">errno.h</text>
</a>
</g>
</g>
<!-- Node1&#45;&gt;Node3 -->
<g id="edge2" class="edge">
<title>Node1&#45;&gt;Node3</title>
<path fill="none" stroke="#63b8ff" d="M145.77,-54.84C136.43,-47.07 122.73,-35.67 111.58,-26.4"/>
<polygon fill="#63b8ff" stroke="#63b8ff" points="114.25,-23.23 104.32,-19.52 109.77,-28.61 114.25,-23.23"/>
</g>
<!-- Node4 -->
<g id="node4" class="node">
<title>Node4</title>
<g id="a_node4"><a xlink:title=" ">
<polygon fill="#e0e0e0" stroke="#999999" points="179.25,-19.25 134,-19.25 134,0 179.25,0 179.25,-19.25"/>
<text text-anchor="middle" x="156.62" y="-5.75" font-family="Helvetica,sans-Serif" font-size="10.00">stdio.h</text>
</a>
</g>
</g>
<!-- Node1&#45;&gt;Node4 -->
<g id="edge3" class="edge">
<title>Node1&#45;&gt;Node4</title>
<path fill="none" stroke="#63b8ff" d="M156.62,-55.08C156.62,-48.42 156.62,-38.99 156.62,-30.53"/>
<polygon fill="#63b8ff" stroke="#63b8ff" points="160.13,-30.61 156.62,-20.61 153.13,-30.61 160.13,-30.61"/>
</g>
<!-- Node5 -->
<g id="node5" class="node">
<title>Node5</title>
<g id="a_node5"><a xlink:title=" ">
<polygon fill="#e0e0e0" stroke="#999999" points="244.38,-19.25 196.88,-19.25 196.88,0 244.38,0 244.38,-19.25"/>
<text text-anchor="middle" x="220.62" y="-5.75" font-family="Helvetica,sans-Serif" font-size="10.00">stdlib.h</text>
</a>
</g>
</g>
<!-- Node1&#45;&gt;Node5 -->
<g id="edge4" class="edge">
<title>Node1&#45;&gt;Node5</title>
<path fill="none" stroke="#63b8ff" d="M167.48,-54.84C176.82,-47.07 190.52,-35.67 201.67,-26.4"/>
<polygon fill="#63b8ff" stroke="#63b8ff" points="203.48,-28.61 208.93,-19.52 199,-23.23 203.48,-28.61"/>
</g>
<!-- Node6 -->
<g id="node6" class="node">
<title>Node6</title>
<g id="a_node6"><a xlink:title=" ">
<polygon fill="#e0e0e0" stroke="#999999" points="305.12,-19.25 262.12,-19.25 262.12,0 305.12,0 305.12,-19.25"/>
<text text-anchor="middle" x="283.62" y="-5.75" font-family="Helvetica,sans-Serif" font-size="10.00">time.h</text>
</a>
</g>
</g>
<!-- Node1&#45;&gt;Node6 -->
<g id="edge5" class="edge">
<title>Node1&#45;&gt;Node6</title>
<path fill="none" stroke="#63b8ff" d="M178.17,-54.84C198.42,-46.35 228.98,-33.54 252,-23.89"/>
<polygon fill="#63b8ff" stroke="#63b8ff" points="253.11,-26.8 260.98,-19.7 250.4,-20.34 253.11,-26.8"/>
</g>
</g>
</svg>
