<?xml version="1.0" encoding="UTF-8" standalone="no"?>
<!DOCTYPE svg PUBLIC "-//W3C//DTD SVG 1.1//EN"
 "http://www.w3.org/Graphics/SVG/1.1/DTD/svg11.dtd">
<!-- Generated by graphviz version 8.0.2 (20230410.1723)
 -->
<!-- Title: get_angle Pages: 1 -->
<svg width="264pt" height="46pt"
 viewBox="0.00 0.00 264.00 46.00" xmlns="http://www.w3.org/2000/svg" xmlns:xlink="http://www.w3.org/1999/xlink">
<g id="graph0" class="graph" transform="scale(1 1) rotate(0) translate(4 42)">
<title>get_angle</title>
<!-- Node1 -->
<g id="node1" class="node">
<title>Node1</title>
<g id="a_node1"><a xlink:title="Obtain the angle between two given vectors.">
<polygon fill="#999999" stroke="#666666" points="59,-38 0,-38 0,-19 59,-19 59,-38"/>
<text text-anchor="middle" x="29.5" y="-26" font-family="Helvetica,sans-Serif" font-size="10.00">get_angle</text>
</a>
</g>
</g>
<!-- Node2 -->
<g id="node2" class="node">
<title>Node2</title>
<g id="a_node2"><a xlink:href="../../de/d7b/group__vec__3d.html#ga243e74d542d0d4d14fa3ae0bc2170d84" target="_top" xlink:title="Obtain the dot product of two 3D vectors.">
<polygon fill="white" stroke="#666666" points="256,-38 202,-38 202,-19 256,-19 256,-38"/>
<text text-anchor="middle" x="229" y="-26" font-family="Helvetica,sans-Serif" font-size="10.00">dot_prod</text>
</a>
</g>
</g>
<!-- Node1&#45;&gt;Node2 -->
<g id="edge1" class="edge">
<title>Node1&#45;&gt;Node2</title>
<path fill="none" stroke="#63b8ff" d="M59.22,-28.5C94.08,-28.5 152.93,-28.5 191.11,-28.5"/>
<polygon fill="#63b8ff" stroke="#63b8ff" points="190.77,-32 200.77,-28.5 190.77,-25 190.77,-32"/>
</g>
<!-- Node3 -->
<g id="node3" class="node">
<title>Node3</title>
<g id="a_node3"><a xlink:href="../../de/d7b/group__vec__3d.html#ga94805165d037d111d7d7c0df99e3a5de" target="_top" xlink:title="Compute the norm a vector.">
<polygon fill="white" stroke="#666666" points="166,-19 95,-19 95,0 166,0 166,-19"/>
<text text-anchor="middle" x="130.5" y="-7" font-family="Helvetica,sans-Serif" font-size="10.00">vector_norm</text>
</a>
</g>
</g>
<!-- Node1&#45;&gt;Node3 -->
<g id="edge2" class="edge">
<title>Node1&#45;&gt;Node3</title>
<path fill="none" stroke="#63b8ff" d="M59.4,-22.95C67.19,-21.46 75.8,-19.81 84.24,-18.19"/>
<polygon fill="#63b8ff" stroke="#63b8ff" points="84.62,-21.49 93.78,-16.16 83.3,-14.61 84.62,-21.49"/>
</g>
<!-- Node3&#45;&gt;Node2 -->
<g id="edge3" class="edge">
<title>Node3&#45;&gt;Node2</title>
<path fill="none" stroke="#63b8ff" d="M166.34,-16.36C174.36,-17.94 182.91,-19.62 191.01,-21.22"/>
<polygon fill="#63b8ff" stroke="#63b8ff" points="190.21,-24.82 200.69,-23.32 191.56,-17.95 190.21,-24.82"/>
</g>
</g>
</svg>
