<?xml version="1.0" encoding="UTF-8" standalone="no"?>
<!DOCTYPE svg PUBLIC "-//W3C//DTD SVG 1.1//EN"
 "http://www.w3.org/Graphics/SVG/1.1/DTD/svg11.dtd">
<!-- Generated by graphviz version 9.0.0 (20230911.1827)
 -->
<!-- Title: misc/mcnaughton_yamada_thompson.c Pages: 1 -->
<svg width="254pt" height="94pt"
 viewBox="0.00 0.00 254.38 93.75" xmlns="http://www.w3.org/2000/svg" xmlns:xlink="http://www.w3.org/1999/xlink">
<g id="graph0" class="graph" transform="scale(1 1) rotate(0) translate(4 89.75)">
<title>misc/mcnaughton_yamada_thompson.c</title>
<!-- Node1 -->
<g id="Node000001" class="node">
<title>Node1</title>
<g id="a_Node000001"><a xlink:title="McNaughton–Yamada–Thompson algorithm">
<polygon fill="#999999" stroke="#666666" points="190.12,-85.75 57.12,-85.75 57.12,-55.25 190.12,-55.25 190.12,-85.75"/>
<text text-anchor="start" x="65.12" y="-72.25" font-family="Helvetica,sans-Serif" font-size="10.00">misc/mcnaughton_yamada</text>
<text text-anchor="middle" x="123.62" y="-61" font-family="Helvetica,sans-Serif" font-size="10.00">_thompson.c</text>
</a>
</g>
</g>
<!-- Node2 -->
<g id="Node000002" class="node">
<title>Node2</title>
<g id="a_Node000002"><a xlink:title=" ">
<polygon fill="#e0e0e0" stroke="#999999" points="51.25,-19.25 0,-19.25 0,0 51.25,0 51.25,-19.25"/>
<text text-anchor="middle" x="25.62" y="-5.75" font-family="Helvetica,sans-Serif" font-size="10.00">assert.h</text>
</a>
</g>
</g>
<!-- Node1&#45;&gt;Node2 -->
<g id="edge1_Node000001_Node000002" class="edge">
<title>Node1&#45;&gt;Node2</title>
<g id="a_edge1_Node000001_Node000002"><a xlink:title=" ">
<path fill="none" stroke="#63b8ff" d="M99.15,-54.8C84.22,-45.83 65.21,-34.41 50.26,-25.42"/>
<polygon fill="#63b8ff" stroke="#63b8ff" points="52.33,-22.58 41.95,-20.43 48.72,-28.58 52.33,-22.58"/>
</a>
</g>
</g>
<!-- Node3 -->
<g id="Node000003" class="node">
<title>Node3</title>
<g id="a_Node000003"><a xlink:title=" ">
<polygon fill="#e0e0e0" stroke="#999999" points="114.25,-19.25 69,-19.25 69,0 114.25,0 114.25,-19.25"/>
<text text-anchor="middle" x="91.62" y="-5.75" font-family="Helvetica,sans-Serif" font-size="10.00">stdio.h</text>
</a>
</g>
</g>
<!-- Node1&#45;&gt;Node3 -->
<g id="edge2_Node000001_Node000003" class="edge">
<title>Node1&#45;&gt;Node3</title>
<g id="a_edge2_Node000001_Node000003"><a xlink:title=" ">
<path fill="none" stroke="#63b8ff" d="M115.71,-54.95C111.59,-47.36 106.5,-37.99 102.06,-29.82"/>
<polygon fill="#63b8ff" stroke="#63b8ff" points="105.13,-28.15 97.28,-21.03 98.98,-31.49 105.13,-28.15"/>
</a>
</g>
</g>
<!-- Node4 -->
<g id="Node000004" class="node">
<title>Node4</title>
<g id="a_Node000004"><a xlink:title=" ">
<polygon fill="#e0e0e0" stroke="#999999" points="180.75,-19.25 132.5,-19.25 132.5,0 180.75,0 180.75,-19.25"/>
<text text-anchor="middle" x="156.62" y="-5.75" font-family="Helvetica,sans-Serif" font-size="10.00">string.h</text>
</a>
</g>
</g>
<!-- Node1&#45;&gt;Node4 -->
<g id="edge3_Node000001_Node000004" class="edge">
<title>Node1&#45;&gt;Node4</title>
<g id="a_edge3_Node000001_Node000004"><a xlink:title=" ">
<path fill="none" stroke="#63b8ff" d="M131.78,-54.95C136.08,-47.28 141.41,-37.77 146.02,-29.54"/>
<polygon fill="#63b8ff" stroke="#63b8ff" points="148.96,-31.46 150.8,-21.02 142.86,-28.03 148.96,-31.46"/>
</a>
</g>
</g>
<!-- Node5 -->
<g id="Node000005" class="node">
<title>Node5</title>
<g id="a_Node000005"><a xlink:title=" ">
<polygon fill="#e0e0e0" stroke="#999999" points="246.38,-19.25 198.88,-19.25 198.88,0 246.38,0 246.38,-19.25"/>
<text text-anchor="middle" x="222.62" y="-5.75" font-family="Helvetica,sans-Serif" font-size="10.00">stdlib.h</text>
</a>
</g>
</g>
<!-- Node1&#45;&gt;Node5 -->
<g id="edge4_Node000001_Node000005" class="edge">
<title>Node1&#45;&gt;Node5</title>
<g id="a_edge4_Node000001_Node000005"><a xlink:title=" ">
<path fill="none" stroke="#63b8ff" d="M148.35,-54.8C163.43,-45.83 182.64,-34.41 197.74,-25.42"/>
<polygon fill="#63b8ff" stroke="#63b8ff" points="199.34,-28.55 206.14,-20.43 195.76,-22.53 199.34,-28.55"/>
</a>
</g>
</g>
</g>
</svg>
