<?xml version="1.0" encoding="UTF-8" standalone="no"?>
<!DOCTYPE svg PUBLIC "-//W3C//DTD SVG 1.1//EN"
 "http://www.w3.org/Graphics/SVG/1.1/DTD/svg11.dtd">
<!-- Generated by graphviz version 8.0.2 (20230410.1723)
 -->
<!-- Title: test Pages: 1 -->
<svg width="115pt" height="193pt"
 viewBox="0.00 0.00 115.00 193.00" xmlns="http://www.w3.org/2000/svg" xmlns:xlink="http://www.w3.org/1999/xlink">
<g id="graph0" class="graph" transform="scale(1 1) rotate(0) translate(4 189)">
<title>test</title>
<!-- Node1 -->
<g id="node1" class="node">
<title>Node1</title>
<g id="a_node1"><a xlink:title="This function tests the functions used to work with Vectors.">
<polygon fill="#999999" stroke="#666666" points="33,-111 0,-111 0,-92 33,-92 33,-111"/>
<text text-anchor="middle" x="16.5" y="-99" font-family="Helvetica,sans-Serif" font-size="10.00">test</text>
</a>
</g>
</g>
<!-- Node2 -->
<g id="node2" class="node">
<title>Node2</title>
<g id="a_node2"><a xlink:href="../../df/dfa/vector_8c.html#a15f534ebe962fda31cc191852befc250" target="_top" xlink:title="This function get the item at the specified index of the Vector.">
<polygon fill="white" stroke="#666666" points="103,-185 73,-185 73,-166 103,-166 103,-185"/>
<text text-anchor="middle" x="88" y="-173" font-family="Helvetica,sans-Serif" font-size="10.00">get</text>
</a>
</g>
</g>
<!-- Node1&#45;&gt;Node2 -->
<g id="edge1" class="edge">
<title>Node1&#45;&gt;Node2</title>
<path fill="none" stroke="#63b8ff" d="M26.13,-111.12C36.26,-122.37 53.64,-141.48 69,-157.5 69.16,-157.67 69.32,-157.84 69.48,-158"/>
<polygon fill="#63b8ff" stroke="#63b8ff" points="66.52,-159.99 76.02,-164.67 71.51,-155.09 66.52,-159.99"/>
</g>
<!-- Node3 -->
<g id="node3" class="node">
<title>Node3</title>
<g id="a_node3"><a xlink:href="../../df/dfa/vector_8c.html#a27a32c68950e464846b6730512968e4b" target="_top" xlink:title="This function initilaizes the vector and gives it a size of 1 and initializes the first index to 0.">
<polygon fill="white" stroke="#666666" points="102.5,-148 73.5,-148 73.5,-129 102.5,-129 102.5,-148"/>
<text text-anchor="middle" x="88" y="-136" font-family="Helvetica,sans-Serif" font-size="10.00">init</text>
</a>
</g>
</g>
<!-- Node1&#45;&gt;Node3 -->
<g id="edge2" class="edge">
<title>Node1&#45;&gt;Node3</title>
<path fill="none" stroke="#63b8ff" d="M33.27,-109.9C42.28,-114.69 53.75,-120.8 63.77,-126.13"/>
<polygon fill="#63b8ff" stroke="#63b8ff" points="61.7,-129.53 72.17,-131.14 64.99,-123.35 61.7,-129.53"/>
</g>
<!-- Node4 -->
<g id="node4" class="node">
<title>Node4</title>
<g id="a_node4"><a xlink:href="../../df/dfa/vector_8c.html#af2f92e8cc55e764980bc0573ab5cd06f" target="_top" xlink:title="This function gets the next item from the Vector each time it&#39;s called.">
<polygon fill="white" stroke="#666666" points="105.5,-111 70.5,-111 70.5,-92 105.5,-92 105.5,-111"/>
<text text-anchor="middle" x="88" y="-99" font-family="Helvetica,sans-Serif" font-size="10.00">next</text>
</a>
</g>
</g>
<!-- Node1&#45;&gt;Node4 -->
<g id="edge3" class="edge">
<title>Node1&#45;&gt;Node4</title>
<path fill="none" stroke="#63b8ff" d="M33.27,-101.5C41.04,-101.5 50.64,-101.5 59.57,-101.5"/>
<polygon fill="#63b8ff" stroke="#63b8ff" points="59.32,-105 69.32,-101.5 59.32,-98 59.32,-105"/>
</g>
<!-- Node5 -->
<g id="node5" class="node">
<title>Node5</title>
<g id="a_node5"><a xlink:href="../../db/d0c/infix__to__postfix_8c.html#a613462735d30cae1b85b606ecab30554" target="_top" xlink:title="push function">
<polygon fill="white" stroke="#666666" points="107,-56 69,-56 69,-37 107,-37 107,-56"/>
<text text-anchor="middle" x="88" y="-44" font-family="Helvetica,sans-Serif" font-size="10.00">push</text>
</a>
</g>
</g>
<!-- Node1&#45;&gt;Node5 -->
<g id="edge4" class="edge">
<title>Node1&#45;&gt;Node5</title>
<path fill="none" stroke="#63b8ff" d="M29.93,-91.67C40.01,-83.69 54.43,-72.27 66.26,-62.91"/>
<polygon fill="#63b8ff" stroke="#63b8ff" points="68.01,-65.2 73.68,-56.25 63.67,-59.71 68.01,-65.2"/>
</g>
<!-- Node6 -->
<g id="node6" class="node">
<title>Node6</title>
<g id="a_node6"><a xlink:href="../../df/dfa/vector_8c.html#a6facac5424445995bd2f8bb03ffcb548" target="_top" xlink:title="This function sets an item at the specified index of the Vector.">
<polygon fill="white" stroke="#666666" points="103,-19 73,-19 73,0 103,0 103,-19"/>
<text text-anchor="middle" x="88" y="-7" font-family="Helvetica,sans-Serif" font-size="10.00">set</text>
</a>
</g>
</g>
<!-- Node1&#45;&gt;Node6 -->
<g id="edge6" class="edge">
<title>Node1&#45;&gt;Node6</title>
<path fill="none" stroke="#63b8ff" d="M23.74,-91.73C33.03,-77.41 51.31,-50.1 69,-28.5 69.32,-28.11 69.64,-27.72 69.97,-27.34"/>
<polygon fill="#63b8ff" stroke="#63b8ff" points="72.1,-30.09 76.19,-20.31 66.9,-25.4 72.1,-30.09"/>
</g>
<!-- Node5&#45;&gt;Node5 -->
<g id="edge5" class="edge">
<title>Node5&#45;&gt;Node5</title>
<path fill="none" stroke="#63b8ff" d="M76.81,-56.37C71.7,-64.94 75.43,-74 88,-74 95.07,-74 99.34,-71.13 100.82,-67.1"/>
<polygon fill="#63b8ff" stroke="#63b8ff" points="104.15,-66.73 99.19,-57.37 97.23,-67.78 104.15,-66.73"/>
</g>
</g>
</svg>
