<?xml version="1.0" encoding="UTF-8" standalone="no"?>
<!DOCTYPE svg PUBLIC "-//W3C//DTD SVG 1.1//EN"
 "http://www.w3.org/Graphics/SVG/1.1/DTD/svg11.dtd">
<!-- Generated by graphviz version 8.0.5 (20230430.1635)
 -->
<!-- Title: main Pages: 1 -->
<svg width="189pt" height="196pt"
 viewBox="0.00 0.00 188.75 196.25" xmlns="http://www.w3.org/2000/svg" xmlns:xlink="http://www.w3.org/1999/xlink">

<svg id="main" version="1.1" xmlns="http://www.w3.org/2000/svg" xmlns:xlink="http://www.w3.org/1999/xlink" xml:space="preserve" onload="init(evt)">
<style type="text/css"><![CDATA[
.node, .edge {opacity: 0.7;}
.node.selected, .edge.selected {opacity: 1;}
.edge:hover path { stroke: red; }
.edge:hover polygon { stroke: red; fill: red; }
]]></style>
<script type="application/ecmascript" xlink:href="../../svg.min.js"/>
<svg id="graph" class="graph">
<g id="graph0" class="graph" transform="scale(1 1) rotate(0) translate(4 192.25)">
<title>main</title>
<!-- Node1 -->
<g id="Node000001" class="node">
<title>Node1</title>
<g id="a_Node000001"><a xlink:title="Main function.">
<polygon fill="#999999" stroke="#666666" points="37,-95.25 0,-95.25 0,-76 37,-76 37,-95.25"/>
<text text-anchor="middle" x="18.5" y="-81.75" font-family="Helvetica,sans-Serif" font-size="10.00">main</text>
</a>
</g>
</g>
<!-- Node2 -->
<g id="Node000002" class="node">
<title>Node2</title>
<g id="a_Node000002"><a xlink:href="../../df/dfa/vector_8c.html#a27a32c68950e464846b6730512968e4b" target="_top" xlink:title="This function initilaizes the vector and gives it a size of 1 and initializes the first index to 0.">
<polygon fill="white" stroke="#666666" points="176.65,-188.25 147.85,-188.25 147.85,-169 176.65,-169 176.65,-188.25"/>
<text text-anchor="middle" x="162.25" y="-174.75" font-family="Helvetica,sans-Serif" font-size="10.00">init</text>
</a>
</g>
</g>
<!-- Node1&#45;&gt;Node2 -->
<g id="edge1_Node000001_Node000002" class="edge">
<title>Node1&#45;&gt;Node2</title>
<g id="a_edge1_Node000001_Node000002"><a xlink:title=" ">
<path fill="none" stroke="#63b8ff" d="M33.48,-95.52C44.21,-103.06 59.44,-113.64 73,-122.62 94.95,-137.17 120.38,-153.22 138.28,-164.4"/>
<polygon fill="#63b8ff" stroke="#63b8ff" points="136.04,-167.75 146.38,-170.06 139.74,-161.81 136.04,-167.75"/>
</a>
</g>
</g>
<!-- Node3 -->
<g id="Node000003" class="node">
<title>Node3</title>
<g id="a_Node000003"><a xlink:href="../../df/dfa/vector_8c.html#abdb067a98f90bcd9b0aa4ceb364d607f" target="_top" xlink:title="This function prints the entire Vector as a list.">
<polygon fill="white" stroke="#666666" points="107.75,-19.25 73,-19.25 73,0 107.75,0 107.75,-19.25"/>
<text text-anchor="middle" x="90.38" y="-5.75" font-family="Helvetica,sans-Serif" font-size="10.00">print</text>
</a>
</g>
</g>
<!-- Node1&#45;&gt;Node3 -->
<g id="edge2_Node000001_Node000003" class="edge">
<title>Node1&#45;&gt;Node3</title>
<g id="a_edge2_Node000001_Node000003"><a xlink:title=" ">
<path fill="none" stroke="#63b8ff" d="M28.63,-75.69C39.89,-63.45 59.22,-42.42 73.05,-27.38"/>
<polygon fill="#63b8ff" stroke="#63b8ff" points="75.27,-30.05 79.46,-20.32 70.11,-25.32 75.27,-30.05"/>
</a>
</g>
</g>
<!-- Node4 -->
<g id="Node000004" class="node">
<title>Node4</title>
<g id="a_Node000004"><a xlink:href="../../db/d0c/infix__to__postfix_8c.html#a613462735d30cae1b85b606ecab30554" target="_top" xlink:title="push function">
<polygon fill="white" stroke="#666666" points="180.75,-133.25 143.75,-133.25 143.75,-114 180.75,-114 180.75,-133.25"/>
<text text-anchor="middle" x="162.25" y="-119.75" font-family="Helvetica,sans-Serif" font-size="10.00">push</text>
</a>
</g>
</g>
<!-- Node1&#45;&gt;Node4 -->
<g id="edge3_Node000001_Node000004" class="edge">
<title>Node1&#45;&gt;Node4</title>
<g id="a_edge3_Node000001_Node000004"><a xlink:title=" ">
<path fill="none" stroke="#63b8ff" d="M37.15,-92.54C47.49,-96.43 60.86,-101.18 73,-104.62 92.79,-110.24 115.48,-115.1 132.9,-118.49"/>
<polygon fill="#63b8ff" stroke="#63b8ff" points="132.03,-122.08 142.5,-120.5 133.33,-115.2 132.03,-122.08"/>
</a>
</g>
</g>
<!-- Node5 -->
<g id="Node000005" class="node">
<title>Node5</title>
<g id="a_Node000005"><a xlink:href="../../df/dfa/vector_8c.html#a6facac5424445995bd2f8bb03ffcb548" target="_top" xlink:title="This function sets an item at the specified index of the Vector.">
<polygon fill="white" stroke="#666666" points="177,-22.25 147.5,-22.25 147.5,-3 177,-3 177,-22.25"/>
<text text-anchor="middle" x="162.25" y="-8.75" font-family="Helvetica,sans-Serif" font-size="10.00">set</text>
</a>
</g>
</g>
<!-- Node1&#45;&gt;Node5 -->
<g id="edge5_Node000001_Node000005" class="edge">
<title>Node1&#45;&gt;Node5</title>
<g id="a_edge5_Node000001_Node000005"><a xlink:title=" ">
<path fill="none" stroke="#63b8ff" d="M37.45,-76.38C62.93,-63.26 109.61,-39.22 137.8,-24.7"/>
<polygon fill="#63b8ff" stroke="#63b8ff" points="138.98,-27.51 146.27,-19.82 135.78,-21.29 138.98,-27.51"/>
</a>
</g>
</g>
<!-- Node6 -->
<g id="Node000006" class="node">
<title>Node6</title>
<g id="a_Node000006"><a xlink:href="../../df/dfa/vector_8c.html#aa8dca7b867074164d5f45b0f3851269d" target="_top" xlink:title="This function tests the functions used to work with Vectors.">
<polygon fill="white" stroke="#666666" points="106.62,-95.25 74.12,-95.25 74.12,-76 106.62,-76 106.62,-95.25"/>
<text text-anchor="middle" x="90.38" y="-81.75" font-family="Helvetica,sans-Serif" font-size="10.00">test</text>
</a>
</g>
</g>
<!-- Node1&#45;&gt;Node6 -->
<g id="edge6_Node000001_Node000006" class="edge">
<title>Node1&#45;&gt;Node6</title>
<g id="a_edge6_Node000001_Node000006"><a xlink:title=" ">
<path fill="none" stroke="#63b8ff" d="M37.49,-85.62C45.28,-85.62 54.54,-85.62 63.07,-85.62"/>
<polygon fill="#63b8ff" stroke="#63b8ff" points="63.05,-89.13 73.05,-85.62 63.05,-82.13 63.05,-89.13"/>
</a>
</g>
</g>
<!-- Node4&#45;&gt;Node4 -->
<g id="edge4_Node000004_Node000004" class="edge">
<title>Node4&#45;&gt;Node4</title>
<g id="a_edge4_Node000004_Node000004"><a xlink:title=" ">
<path fill="none" stroke="#63b8ff" d="M151,-133.54C145.86,-142.15 149.62,-151.25 162.25,-151.25 169.36,-151.25 173.65,-148.37 175.14,-144.32"/>
<polygon fill="#63b8ff" stroke="#63b8ff" points="178.46,-143.9 173.5,-134.54 171.54,-144.95 178.46,-143.9"/>
</a>
</g>
</g>
<!-- Node6&#45;&gt;Node2 -->
<g id="edge8_Node000006_Node000002" class="edge">
<title>Node6&#45;&gt;Node2</title>
<g id="a_edge8_Node000006_Node000002"><a xlink:title=" ">
<path fill="none" stroke="#63b8ff" d="M97.67,-95.7C106.17,-109.08 122.16,-133.43 143.99,-160.23"/>
<polygon fill="#63b8ff" stroke="#63b8ff" points="141.88,-162.15 150.96,-167.61 147.26,-157.68 141.88,-162.15"/>
</a>
</g>
</g>
<!-- Node6&#45;&gt;Node4 -->
<g id="edge10_Node000006_Node000004" class="edge">
<title>Node6&#45;&gt;Node4</title>
<g id="a_edge10_Node000006_Node000004"><a xlink:title=" ">
<path fill="none" stroke="#63b8ff" d="M106.88,-94.06C114.8,-98.36 124.66,-103.73 133.8,-108.7"/>
<polygon fill="#63b8ff" stroke="#63b8ff" points="131.86,-112.17 142.32,-113.87 135.21,-106.02 131.86,-112.17"/>
</a>
</g>
</g>
<!-- Node6&#45;&gt;Node5 -->
<g id="edge11_Node000006_Node000005" class="edge">
<title>Node6&#45;&gt;Node5</title>
<g id="a_edge11_Node000006_Node000005"><a xlink:title=" ">
<path fill="none" stroke="#63b8ff" d="M100.62,-75.86C111.06,-64.84 128.57,-46.4 143.75,-30.62 143.83,-30.54 143.91,-30.46 143.99,-30.38"/>
<polygon fill="#63b8ff" stroke="#63b8ff" points="146.16,-33.13 150.6,-23.51 141.13,-28.26 146.16,-33.13"/>
</a>
</g>
</g>
<!-- Node7 -->
<g id="Node000007" class="node">
<title>Node7</title>
<g id="a_Node000007"><a xlink:href="../../df/dfa/vector_8c.html#a15f534ebe962fda31cc191852befc250" target="_top" xlink:title="This function get the item at the specified index of the Vector.">
<polygon fill="white" stroke="#666666" points="177,-59.25 147.5,-59.25 147.5,-40 177,-40 177,-59.25"/>
<text text-anchor="middle" x="162.25" y="-45.75" font-family="Helvetica,sans-Serif" font-size="10.00">get</text>
</a>
</g>
</g>
<!-- Node6&#45;&gt;Node7 -->
<g id="edge7_Node000006_Node000007" class="edge">
<title>Node6&#45;&gt;Node7</title>
<g id="a_edge7_Node000006_Node000007"><a xlink:title=" ">
<path fill="none" stroke="#63b8ff" d="M106.88,-77.64C115.93,-72.97 127.52,-67 137.68,-61.77"/>
<polygon fill="#63b8ff" stroke="#63b8ff" points="138.92,-64.55 146.21,-56.86 135.72,-58.33 138.92,-64.55"/>
</a>
</g>
</g>
<!-- Node8 -->
<g id="Node000008" class="node">
<title>Node8</title>
<g id="a_Node000008"><a xlink:href="../../df/dfa/vector_8c.html#af2f92e8cc55e764980bc0573ab5cd06f" target="_top" xlink:title="This function gets the next item from the Vector each time it&#39;s called.">
<polygon fill="white" stroke="#666666" points="179.62,-96.25 144.88,-96.25 144.88,-77 179.62,-77 179.62,-96.25"/>
<text text-anchor="middle" x="162.25" y="-82.75" font-family="Helvetica,sans-Serif" font-size="10.00">next</text>
</a>
</g>
</g>
<!-- Node6&#45;&gt;Node8 -->
<g id="edge9_Node000006_Node000008" class="edge">
<title>Node6&#45;&gt;Node8</title>
<g id="a_edge9_Node000006_Node000008"><a xlink:title=" ">
<path fill="none" stroke="#63b8ff" d="M106.88,-85.85C114.89,-85.96 124.88,-86.1 134.12,-86.24"/>
<polygon fill="#63b8ff" stroke="#63b8ff" points="133.76,-89.75 143.81,-86.39 133.86,-82.75 133.76,-89.75"/>
</a>
</g>
</g>
</g>
</svg>
</svg>

<style type='text/css'>
<![CDATA[
[data-mouse-over-selected='false'] { opacity: 0.7; }
[data-mouse-over-selected='true']  { opacity: 1.0; }
]]>
</style>
<script type="application/ecmascript"><![CDATA[
document.addEventListener('DOMContentLoaded', (event) => {
  highlightEdges();
  highlightAdjacentNodes();
});
]]></script>
</svg>
