<?xml version="1.0" encoding="UTF-8" standalone="no"?>
<!DOCTYPE svg PUBLIC "-//W3C//DTD SVG 1.1//EN"
 "http://www.w3.org/Graphics/SVG/1.1/DTD/svg11.dtd">
<!-- Generated by graphviz version 7.0.6 (20230106.0513)
 -->
<!-- Title: main Pages: 1 -->
<svg width="191pt" height="196pt"
 viewBox="0.00 0.00 191.00 196.00" xmlns="http://www.w3.org/2000/svg" xmlns:xlink="http://www.w3.org/1999/xlink">
<g id="graph0" class="graph" transform="scale(1 1) rotate(0) translate(4 192)">
<title>main</title>
<!-- Node1 -->
<g id="node1" class="node">
<title>Node1</title>
<g id="a_node1"><a xlink:title="Main function.">
<polygon fill="#999999" stroke="#666666" points="38,-95 0,-95 0,-76 38,-76 38,-95"/>
<text text-anchor="middle" x="19" y="-83" font-family="Helvetica,sans-Serif" font-size="10.00">main</text>
</a>
</g>
</g>
<!-- Node2 -->
<g id="node2" class="node">
<title>Node2</title>
<g id="a_node2"><a xlink:href="../../df/dfa/vector_8c.html#a27a32c68950e464846b6730512968e4b" target="_top" xlink:title="This function initilaizes the vector and gives it a size of 1 and initializes the first index to 0.">
<polygon fill="white" stroke="#666666" points="178.5,-188 149.5,-188 149.5,-169 178.5,-169 178.5,-188"/>
<text text-anchor="middle" x="164" y="-176" font-family="Helvetica,sans-Serif" font-size="10.00">init</text>
</a>
</g>
</g>
<!-- Node1&#45;&gt;Node2 -->
<g id="edge1" class="edge">
<title>Node1&#45;&gt;Node2</title>
<path fill="none" stroke="#63b8ff" d="M34.11,-95.39C44.95,-102.93 60.32,-113.52 74,-122.5 95.94,-136.91 121.31,-152.8 139.33,-163.96"/>
<polygon fill="#63b8ff" stroke="#63b8ff" points="137.38,-166.87 147.73,-169.14 141.06,-160.91 137.38,-166.87"/>
</g>
<!-- Node3 -->
<g id="node3" class="node">
<title>Node3</title>
<g id="a_node3"><a xlink:href="../../df/dfa/vector_8c.html#abdb067a98f90bcd9b0aa4ceb364d607f" target="_top" xlink:title="This function prints the entire Vector as a list.">
<polygon fill="white" stroke="#666666" points="109,-19 74,-19 74,0 109,0 109,-19"/>
<text text-anchor="middle" x="91.5" y="-7" font-family="Helvetica,sans-Serif" font-size="10.00">print</text>
</a>
</g>
</g>
<!-- Node1&#45;&gt;Node3 -->
<g id="edge2" class="edge">
<title>Node1&#45;&gt;Node3</title>
<path fill="none" stroke="#63b8ff" d="M29.22,-75.56C40.57,-63.32 60.08,-42.3 74.03,-27.25"/>
<polygon fill="#63b8ff" stroke="#63b8ff" points="76.24,-30.02 80.47,-20.31 71.11,-25.26 76.24,-30.02"/>
</g>
<!-- Node4 -->
<g id="node4" class="node">
<title>Node4</title>
<g id="a_node4"><a xlink:href="../../db/d0c/infix__to__postfix_8c.html#a613462735d30cae1b85b606ecab30554" target="_top" xlink:title="push function">
<polygon fill="white" stroke="#666666" points="183,-133 145,-133 145,-114 183,-114 183,-133"/>
<text text-anchor="middle" x="164" y="-121" font-family="Helvetica,sans-Serif" font-size="10.00">push</text>
</a>
</g>
</g>
<!-- Node1&#45;&gt;Node4 -->
<g id="edge3" class="edge">
<title>Node1&#45;&gt;Node4</title>
<path fill="none" stroke="#63b8ff" d="M38.31,-92.6C48.68,-96.45 61.95,-101.11 74,-104.5 93.65,-110.03 116.13,-114.82 133.58,-118.2"/>
<polygon fill="#63b8ff" stroke="#63b8ff" points="132.8,-121.62 143.28,-120.03 134.1,-114.74 132.8,-121.62"/>
</g>
<!-- Node5 -->
<g id="node5" class="node">
<title>Node5</title>
<g id="a_node5"><a xlink:href="../../df/dfa/vector_8c.html#a6facac5424445995bd2f8bb03ffcb548" target="_top" xlink:title="This function sets an item at the specified index of the Vector.">
<polygon fill="white" stroke="#666666" points="179,-22 149,-22 149,-3 179,-3 179,-22"/>
<text text-anchor="middle" x="164" y="-10" font-family="Helvetica,sans-Serif" font-size="10.00">set</text>
</a>
</g>
</g>
<!-- Node1&#45;&gt;Node5 -->
<g id="edge5" class="edge">
<title>Node1&#45;&gt;Node5</title>
<path fill="none" stroke="#63b8ff" d="M38.4,-76.11C63.95,-63.06 110.23,-39.44 138.63,-24.94"/>
<polygon fill="#63b8ff" stroke="#63b8ff" points="139.89,-28.23 147.21,-20.56 136.71,-21.99 139.89,-28.23"/>
</g>
<!-- Node6 -->
<g id="node6" class="node">
<title>Node6</title>
<g id="a_node6"><a xlink:href="../../df/dfa/vector_8c.html#aa8dca7b867074164d5f45b0f3851269d" target="_top" xlink:title="This function tests the functions used to work with Vectors.">
<polygon fill="white" stroke="#666666" points="108,-95 75,-95 75,-76 108,-76 108,-95"/>
<text text-anchor="middle" x="91.5" y="-83" font-family="Helvetica,sans-Serif" font-size="10.00">test</text>
</a>
</g>
</g>
<!-- Node1&#45;&gt;Node6 -->
<g id="edge6" class="edge">
<title>Node1&#45;&gt;Node6</title>
<path fill="none" stroke="#63b8ff" d="M38.16,-85.5C45.81,-85.5 54.88,-85.5 63.3,-85.5"/>
<polygon fill="#63b8ff" stroke="#63b8ff" points="63.05,-89 73.05,-85.5 63.05,-82 63.05,-89"/>
</g>
<!-- Node4&#45;&gt;Node4 -->
<g id="edge4" class="edge">
<title>Node4&#45;&gt;Node4</title>
<path fill="none" stroke="#63b8ff" d="M152.65,-133.37C147.47,-141.94 151.26,-151 164,-151 170.77,-151 175.01,-148.44 176.72,-144.76"/>
<polygon fill="#63b8ff" stroke="#63b8ff" points="180.2,-144.38 175.53,-134.87 173.25,-145.22 180.2,-144.38"/>
</g>
<!-- Node6&#45;&gt;Node2 -->
<g id="edge8" class="edge">
<title>Node6&#45;&gt;Node2</title>
<path fill="none" stroke="#63b8ff" d="M98.46,-95.12C106.81,-108.35 122.85,-132.89 144.99,-159.73"/>
<polygon fill="#63b8ff" stroke="#63b8ff" points="142.3,-161.97 151.42,-167.36 147.65,-157.46 142.3,-161.97"/>
</g>
<!-- Node6&#45;&gt;Node4 -->
<g id="edge10" class="edge">
<title>Node6&#45;&gt;Node4</title>
<path fill="none" stroke="#63b8ff" d="M108.5,-94.12C116.21,-98.28 125.69,-103.39 134.57,-108.17"/>
<polygon fill="#63b8ff" stroke="#63b8ff" points="132.78,-111.19 143.24,-112.85 136.1,-105.02 132.78,-111.19"/>
</g>
<!-- Node6&#45;&gt;Node5 -->
<g id="edge11" class="edge">
<title>Node6&#45;&gt;Node5</title>
<path fill="none" stroke="#63b8ff" d="M101.73,-75.7C110.94,-65.94 125.68,-50.4 145.08,-30.51"/>
<polygon fill="#63b8ff" stroke="#63b8ff" points="147.5,-33.04 152,-23.44 142.5,-28.14 147.5,-33.04"/>
</g>
<!-- Node7 -->
<g id="node7" class="node">
<title>Node7</title>
<g id="a_node7"><a xlink:href="../../df/dfa/vector_8c.html#a15f534ebe962fda31cc191852befc250" target="_top" xlink:title="This function get the item at the specified index of the Vector.">
<polygon fill="white" stroke="#666666" points="179,-59 149,-59 149,-40 179,-40 179,-59"/>
<text text-anchor="middle" x="164" y="-47" font-family="Helvetica,sans-Serif" font-size="10.00">get</text>
</a>
</g>
</g>
<!-- Node6&#45;&gt;Node7 -->
<g id="edge7" class="edge">
<title>Node6&#45;&gt;Node7</title>
<path fill="none" stroke="#63b8ff" d="M108.5,-77.33C117.33,-72.82 128.49,-67.12 138.4,-62.06"/>
<polygon fill="#63b8ff" stroke="#63b8ff" points="139.84,-65.26 147.16,-57.59 136.66,-59.02 139.84,-65.26"/>
</g>
<!-- Node8 -->
<g id="node8" class="node">
<title>Node8</title>
<g id="a_node8"><a xlink:href="../../df/dfa/vector_8c.html#af2f92e8cc55e764980bc0573ab5cd06f" target="_top" xlink:title="This function gets the next item from the Vector each time it&#39;s called.">
<polygon fill="white" stroke="#666666" points="181.5,-96 146.5,-96 146.5,-77 181.5,-77 181.5,-96"/>
<text text-anchor="middle" x="164" y="-84" font-family="Helvetica,sans-Serif" font-size="10.00">next</text>
</a>
</g>
</g>
<!-- Node6&#45;&gt;Node8 -->
<g id="edge9" class="edge">
<title>Node6&#45;&gt;Node8</title>
<path fill="none" stroke="#63b8ff" d="M108.5,-85.73C116.29,-85.84 125.9,-85.97 134.87,-86.1"/>
<polygon fill="#63b8ff" stroke="#63b8ff" points="134.52,-89.6 144.57,-86.24 134.62,-82.6 134.52,-89.6"/>
</g>
</g>
</svg>
