<?xml version="1.0" encoding="UTF-8" standalone="no"?>
<!DOCTYPE svg PUBLIC "-//W3C//DTD SVG 1.1//EN"
 "http://www.w3.org/Graphics/SVG/1.1/DTD/svg11.dtd">
<!-- Generated by graphviz version 7.0.6 (20230106.0513)
 -->
<!-- Title: main Pages: 1 -->
<svg width="111pt" height="45pt"
 viewBox="0.00 0.00 111.00 45.00" xmlns="http://www.w3.org/2000/svg" xmlns:xlink="http://www.w3.org/1999/xlink">
<g id="graph0" class="graph" transform="scale(1 1) rotate(0) translate(4 41)">
<title>main</title>
<!-- Node1 -->
<g id="node1" class="node">
<title>Node1</title>
<g id="a_node1"><a xlink:title="main function">
<polygon fill="#999999" stroke="#666666" points="38,-19 0,-19 0,0 38,0 38,-19"/>
<text text-anchor="middle" x="19" y="-7" font-family="Helvetica,sans-Serif" font-size="10.00">main</text>
</a>
</g>
</g>
<!-- Node2 -->
<g id="node2" class="node">
<title>Node2</title>
<g id="a_node2"><a xlink:href="../../d4/d99/fibonacci__fast_8c.html#a7a3d55bd19854075cba2eed6b63cb2d3" target="_top" xlink:title="Get the &#160;and &#160;Fibonacci number using recursive half&#45;interval decimation.">
<polygon fill="white" stroke="#666666" points="103,-19 74,-19 74,0 103,0 103,-19"/>
<text text-anchor="middle" x="88.5" y="-7" font-family="Helvetica,sans-Serif" font-size="10.00">fib</text>
</a>
</g>
</g>
<!-- Node1&#45;&gt;Node2 -->
<g id="edge1" class="edge">
<title>Node1&#45;&gt;Node2</title>
<path fill="none" stroke="#63b8ff" d="M38.44,-9.5C45.81,-9.5 54.4,-9.5 62.32,-9.5"/>
<polygon fill="#63b8ff" stroke="#63b8ff" points="62.06,-13 72.06,-9.5 62.06,-6 62.06,-13"/>
</g>
<!-- Node2&#45;&gt;Node2 -->
<g id="edge2" class="edge">
<title>Node2&#45;&gt;Node2</title>
<path fill="none" stroke="#63b8ff" d="M77.62,-19.37C72.66,-27.94 76.28,-37 88.5,-37 94.99,-37 99.06,-34.44 100.7,-30.76"/>
<polygon fill="#63b8ff" stroke="#63b8ff" points="104.18,-30.4 99.55,-20.87 97.23,-31.21 104.18,-30.4"/>
</g>
</g>
</svg>
