<?xml version="1.0" encoding="UTF-8" standalone="no"?>
<!DOCTYPE svg PUBLIC "-//W3C//DTD SVG 1.1//EN"
 "http://www.w3.org/Graphics/SVG/1.1/DTD/svg11.dtd">
<!-- Generated by graphviz version 8.0.5 (20230430.1635)
 -->
<!-- Title: main Pages: 1 -->
<svg width="110pt" height="45pt"
 viewBox="0.00 0.00 109.80 45.25" xmlns="http://www.w3.org/2000/svg" xmlns:xlink="http://www.w3.org/1999/xlink">
<g id="graph0" class="graph" transform="scale(1 1) rotate(0) translate(4 41.25)">
<title>main</title>
<!-- Node1 -->
<g id="Node000001" class="node">
<title>Node1</title>
<g id="a_Node000001"><a xlink:title="main function">
<polygon fill="#999999" stroke="#666666" points="37,-19.25 0,-19.25 0,0 37,0 37,-19.25"/>
<text text-anchor="middle" x="18.5" y="-5.75" font-family="Helvetica,sans-Serif" font-size="10.00">main</text>
</a>
</g>
</g>
<!-- Node2 -->
<g id="Node000002" class="node">
<title>Node2</title>
<g id="a_Node000002"><a xlink:href="../../d4/d99/fibonacci__fast_8c.html#a7a3d55bd19854075cba2eed6b63cb2d3" target="_top" xlink:title="Get the &#160;and &#160;Fibonacci number using recursive half&#45;interval decimation.">
<polygon fill="white" stroke="#666666" points="101.8,-19.25 73,-19.25 73,0 101.8,0 101.8,-19.25"/>
<text text-anchor="middle" x="87.4" y="-5.75" font-family="Helvetica,sans-Serif" font-size="10.00">fib</text>
</a>
</g>
</g>
<!-- Node1&#45;&gt;Node2 -->
<g id="edge1_Node000001_Node000002" class="edge">
<title>Node1&#45;&gt;Node2</title>
<g id="a_edge1_Node000001_Node000002"><a xlink:title=" ">
<path fill="none" stroke="#63b8ff" d="M37.43,-9.62C45,-9.62 53.95,-9.62 62.1,-9.62"/>
<polygon fill="#63b8ff" stroke="#63b8ff" points="61.88,-13.13 71.88,-9.62 61.88,-6.13 61.88,-13.13"/>
</a>
</g>
</g>
<!-- Node2&#45;&gt;Node2 -->
<g id="edge2_Node000002_Node000002" class="edge">
<title>Node2&#45;&gt;Node2</title>
<g id="a_edge2_Node000002_Node000002"><a xlink:title=" ">
<path fill="none" stroke="#63b8ff" d="M76.61,-19.54C71.69,-28.15 75.29,-37.25 87.4,-37.25 94.21,-37.25 98.33,-34.37 99.75,-30.32"/>
<polygon fill="#63b8ff" stroke="#63b8ff" points="103.09,-29.93 98.19,-20.54 96.16,-30.94 103.09,-29.93"/>
</a>
</g>
</g>
</g>
</svg>
