<?xml version="1.0" encoding="UTF-8" standalone="no"?>
<!DOCTYPE svg PUBLIC "-//W3C//DTD SVG 1.1//EN"
 "http://www.w3.org/Graphics/SVG/1.1/DTD/svg11.dtd">
<!-- Generated by graphviz version 8.0.2 (20230410.1723)
 -->
<!-- Title: semi_implicit_euler Pages: 1 -->
<svg width="355pt" height="27pt"
 viewBox="0.00 0.00 355.00 27.00" xmlns="http://www.w3.org/2000/svg" xmlns:xlink="http://www.w3.org/1999/xlink">
<g id="graph0" class="graph" transform="scale(1 1) rotate(0) translate(4 23)">
<title>semi_implicit_euler</title>
<!-- Node1 -->
<g id="node1" class="node">
<title>Node1</title>
<g id="a_node1"><a xlink:title="Compute approximation using the semi&#45;implicit&#45;Euler method in the given limits.">
<polygon fill="#999999" stroke="#666666" points="100,-19 0,-19 0,0 100,0 100,-19"/>
<text text-anchor="middle" x="50" y="-7" font-family="Helvetica,sans-Serif" font-size="10.00">semi_implicit_euler</text>
</a>
</g>
</g>
<!-- Node2 -->
<g id="node2" class="node">
<title>Node2</title>
<g id="a_node2"><a xlink:href="../../d4/d99/ode__semi__implicit__euler_8c.html#a720b7e995d2bbc615f94a2c7dbcf84eb" target="_top" xlink:title="Compute next step approximation using the semi&#45;implicit&#45;Euler method.">
<polygon fill="white" stroke="#666666" points="260,-19 136,-19 136,0 260,0 260,-19"/>
<text text-anchor="middle" x="198" y="-7" font-family="Helvetica,sans-Serif" font-size="10.00">semi_implicit_euler_step</text>
</a>
</g>
</g>
<!-- Node1&#45;&gt;Node2 -->
<g id="edge1" class="edge">
<title>Node1&#45;&gt;Node2</title>
<path fill="none" stroke="#63b8ff" d="M100.43,-9.5C108.31,-9.5 116.6,-9.5 124.88,-9.5"/>
<polygon fill="#63b8ff" stroke="#63b8ff" points="124.71,-13 134.71,-9.5 124.71,-6 124.71,-13"/>
</g>
<!-- Node3 -->
<g id="node3" class="node">
<title>Node3</title>
<g id="a_node3"><a xlink:href="../../d4/d99/ode__semi__implicit__euler_8c.html#a97075291390a68c262ed66e157a57eb4" target="_top" xlink:title="Problem statement for a system with first&#45;order differential equations.">
<polygon fill="white" stroke="#666666" points="347,-19 296,-19 296,0 347,0 347,-19"/>
<text text-anchor="middle" x="321.5" y="-7" font-family="Helvetica,sans-Serif" font-size="10.00">problem</text>
</a>
</g>
</g>
<!-- Node2&#45;&gt;Node3 -->
<g id="edge2" class="edge">
<title>Node2&#45;&gt;Node3</title>
<path fill="none" stroke="#63b8ff" d="M260.46,-9.5C268.85,-9.5 277.21,-9.5 284.92,-9.5"/>
<polygon fill="#63b8ff" stroke="#63b8ff" points="284.67,-13 294.67,-9.5 284.67,-6 284.67,-13"/>
</g>
</g>
</svg>
