<?xml version="1.0" encoding="UTF-8" standalone="no"?>
<!DOCTYPE svg PUBLIC "-//W3C//DTD SVG 1.1//EN"
 "http://www.w3.org/Graphics/SVG/1.1/DTD/svg11.dtd">
<!-- Generated by graphviz version 8.0.2 (20230410.1723)
 -->
<!-- Title: numerical_methods/realtime_stats.c Pages: 1 -->
<svg width="190pt" height="93pt"
 viewBox="0.00 0.00 190.00 93.00" xmlns="http://www.w3.org/2000/svg" xmlns:xlink="http://www.w3.org/1999/xlink">
<g id="graph0" class="graph" transform="scale(1 1) rotate(0) translate(4 89)">
<title>numerical_methods/realtime_stats.c</title>
<!-- Node1 -->
<g id="node1" class="node">
<title>Node1</title>
<g id="a_node1"><a xlink:title="Compute statistics for data entered in rreal&#45;time.">
<polygon fill="#999999" stroke="#666666" points="163.5,-85 24.5,-85 24.5,-55 163.5,-55 163.5,-85"/>
<text text-anchor="start" x="32.5" y="-73" font-family="Helvetica,sans-Serif" font-size="10.00">numerical_methods/realtime</text>
<text text-anchor="middle" x="94" y="-62" font-family="Helvetica,sans-Serif" font-size="10.00">_stats.c</text>
</a>
</g>
</g>
<!-- Node2 -->
<g id="node2" class="node">
<title>Node2</title>
<g id="a_node2"><a xlink:title=" ">
<polygon fill="#e0e0e0" stroke="#999999" points="52,-19 0,-19 0,0 52,0 52,-19"/>
<text text-anchor="middle" x="26" y="-7" font-family="Helvetica,sans-Serif" font-size="10.00">assert.h</text>
</a>
</g>
</g>
<!-- Node1&#45;&gt;Node2 -->
<g id="edge1" class="edge">
<title>Node1&#45;&gt;Node2</title>
<path fill="none" stroke="#63b8ff" d="M77.19,-54.54C67.21,-45.96 54.56,-35.07 44.32,-26.26"/>
<polygon fill="#63b8ff" stroke="#63b8ff" points="46.95,-23.04 37.08,-19.18 42.38,-28.35 46.95,-23.04"/>
</g>
<!-- Node3 -->
<g id="node3" class="node">
<title>Node3</title>
<g id="a_node3"><a xlink:title=" ">
<polygon fill="#e0e0e0" stroke="#999999" points="117.5,-19 70.5,-19 70.5,0 117.5,0 117.5,-19"/>
<text text-anchor="middle" x="94" y="-7" font-family="Helvetica,sans-Serif" font-size="10.00">math.h</text>
</a>
</g>
</g>
<!-- Node1&#45;&gt;Node3 -->
<g id="edge2" class="edge">
<title>Node1&#45;&gt;Node3</title>
<path fill="none" stroke="#63b8ff" d="M94,-54.54C94,-47.17 94,-38.1 94,-30.11"/>
<polygon fill="#63b8ff" stroke="#63b8ff" points="97.5,-30.18 94,-20.18 90.5,-30.18 97.5,-30.18"/>
</g>
<!-- Node4 -->
<g id="node4" class="node">
<title>Node4</title>
<g id="a_node4"><a xlink:title=" ">
<polygon fill="#e0e0e0" stroke="#999999" points="182,-19 136,-19 136,0 182,0 182,-19"/>
<text text-anchor="middle" x="159" y="-7" font-family="Helvetica,sans-Serif" font-size="10.00">stdio.h</text>
</a>
</g>
</g>
<!-- Node1&#45;&gt;Node4 -->
<g id="edge3" class="edge">
<title>Node1&#45;&gt;Node4</title>
<path fill="none" stroke="#63b8ff" d="M110.07,-54.54C119.51,-46.04 131.46,-35.29 141.19,-26.53"/>
<polygon fill="#63b8ff" stroke="#63b8ff" points="143.27,-29.47 148.36,-20.18 138.59,-24.26 143.27,-29.47"/>
</g>
</g>
</svg>
