<?xml version="1.0" encoding="UTF-8" standalone="no"?>
<!DOCTYPE svg PUBLIC "-//W3C//DTD SVG 1.1//EN"
 "http://www.w3.org/Graphics/SVG/1.1/DTD/svg11.dtd">
<!-- Generated by graphviz version 8.0.5 (20230430.1635)
 -->
<!-- Title: client_server/tcp_full_duplex_client.c Pages: 1 -->
<svg width="723pt" height="94pt"
 viewBox="0.00 0.00 723.12 93.75" xmlns="http://www.w3.org/2000/svg" xmlns:xlink="http://www.w3.org/1999/xlink">
<g id="graph0" class="graph" transform="scale(1 1) rotate(0) translate(4 89.75)">
<title>client_server/tcp_full_duplex_client.c</title>
<!-- Node1 -->
<g id="Node000001" class="node">
<title>Node1</title>
<g id="a_Node000001"><a xlink:title="Client&#45;side implementation of TCP Full Duplex Communication">
<polygon fill="#999999" stroke="#666666" points="401.88,-85.75 295.88,-85.75 295.88,-55.25 401.88,-55.25 401.88,-85.75"/>
<text text-anchor="start" x="303.88" y="-72.25" font-family="Helvetica,sans-Serif" font-size="10.00">client_server/tcp_full</text>
<text text-anchor="middle" x="348.88" y="-61" font-family="Helvetica,sans-Serif" font-size="10.00">_duplex_client.c</text>
</a>
</g>
</g>
<!-- Node2 -->
<g id="Node000002" class="node">
<title>Node2</title>
<g id="a_Node000002"><a xlink:title=" ">
<polygon fill="#e0e0e0" stroke="#999999" points="61.75,-19.25 0,-19.25 0,0 61.75,0 61.75,-19.25"/>
<text text-anchor="middle" x="30.88" y="-5.75" font-family="Helvetica,sans-Serif" font-size="10.00">arpa/inet.h</text>
</a>
</g>
</g>
<!-- Node1&#45;&gt;Node2 -->
<g id="edge1_Node000001_Node000002" class="edge">
<title>Node1&#45;&gt;Node2</title>
<g id="a_edge1_Node000001_Node000002"><a xlink:title=" ">
<path fill="none" stroke="#63b8ff" d="M295.48,-60.4C241.74,-51.11 156.19,-36 72.58,-19.53"/>
<polygon fill="#63b8ff" stroke="#63b8ff" points="73.35,-15.92 62.86,-17.41 71.99,-22.79 73.35,-15.92"/>
</a>
</g>
</g>
<!-- Node3 -->
<g id="Node000003" class="node">
<title>Node3</title>
<g id="a_Node000003"><a xlink:title=" ">
<polygon fill="#e0e0e0" stroke="#999999" points="128,-19.25 79.75,-19.25 79.75,0 128,0 128,-19.25"/>
<text text-anchor="middle" x="103.88" y="-5.75" font-family="Helvetica,sans-Serif" font-size="10.00">netdb.h</text>
</a>
</g>
</g>
<!-- Node1&#45;&gt;Node3 -->
<g id="edge2_Node000001_Node000003" class="edge">
<title>Node1&#45;&gt;Node3</title>
<g id="a_edge2_Node000001_Node000003"><a xlink:title=" ">
<path fill="none" stroke="#63b8ff" d="M295.65,-57.24C255.15,-47.83 197.78,-34.33 138.97,-19.73"/>
<polygon fill="#63b8ff" stroke="#63b8ff" points="139.92,-16.11 129.37,-17.09 138.23,-22.91 139.92,-16.11"/>
</a>
</g>
</g>
<!-- Node4 -->
<g id="Node000004" class="node">
<title>Node4</title>
<g id="a_Node000004"><a xlink:title=" ">
<polygon fill="#e0e0e0" stroke="#999999" points="209.88,-19.25 145.88,-19.25 145.88,0 209.88,0 209.88,-19.25"/>
<text text-anchor="middle" x="177.88" y="-5.75" font-family="Helvetica,sans-Serif" font-size="10.00">netinet/in.h</text>
</a>
</g>
</g>
<!-- Node1&#45;&gt;Node4 -->
<g id="edge3_Node000001_Node000004" class="edge">
<title>Node1&#45;&gt;Node4</title>
<g id="a_edge3_Node000001_Node000004"><a xlink:title=" ">
<path fill="none" stroke="#63b8ff" d="M306.17,-54.8C277.96,-45.08 241.38,-32.49 214.5,-23.23"/>
<polygon fill="#63b8ff" stroke="#63b8ff" points="215.95,-19.69 205.35,-19.74 213.67,-26.31 215.95,-19.69"/>
</a>
</g>
</g>
<!-- Node5 -->
<g id="Node000005" class="node">
<title>Node5</title>
<g id="a_Node000005"><a xlink:title=" ">
<polygon fill="#e0e0e0" stroke="#999999" points="276,-19.25 227.75,-19.25 227.75,0 276,0 276,-19.25"/>
<text text-anchor="middle" x="251.88" y="-5.75" font-family="Helvetica,sans-Serif" font-size="10.00">stdint.h</text>
</a>
</g>
</g>
<!-- Node1&#45;&gt;Node5 -->
<g id="edge4_Node000001_Node000005" class="edge">
<title>Node1&#45;&gt;Node5</title>
<g id="a_edge4_Node000001_Node000005"><a xlink:title=" ">
<path fill="none" stroke="#63b8ff" d="M324.9,-54.95C309.99,-45.9 290.88,-34.3 275.95,-25.24"/>
<polygon fill="#63b8ff" stroke="#63b8ff" points="278.19,-21.9 267.83,-19.7 274.56,-27.88 278.19,-21.9"/>
</a>
</g>
</g>
<!-- Node6 -->
<g id="Node000006" class="node">
<title>Node6</title>
<g id="a_Node000006"><a xlink:title=" ">
<polygon fill="#e0e0e0" stroke="#999999" points="339.5,-19.25 294.25,-19.25 294.25,0 339.5,0 339.5,-19.25"/>
<text text-anchor="middle" x="316.88" y="-5.75" font-family="Helvetica,sans-Serif" font-size="10.00">stdio.h</text>
</a>
</g>
</g>
<!-- Node1&#45;&gt;Node6 -->
<g id="edge5_Node000001_Node000006" class="edge">
<title>Node1&#45;&gt;Node6</title>
<g id="a_edge5_Node000001_Node000006"><a xlink:title=" ">
<path fill="none" stroke="#63b8ff" d="M340.96,-54.95C336.75,-47.19 331.52,-37.56 327,-29.26"/>
<polygon fill="#63b8ff" stroke="#63b8ff" points="329.66,-27.82 321.81,-20.7 323.51,-31.16 329.66,-27.82"/>
</a>
</g>
</g>
<!-- Node7 -->
<g id="Node000007" class="node">
<title>Node7</title>
<g id="a_Node000007"><a xlink:title=" ">
<polygon fill="#e0e0e0" stroke="#999999" points="404.62,-19.25 357.12,-19.25 357.12,0 404.62,0 404.62,-19.25"/>
<text text-anchor="middle" x="380.88" y="-5.75" font-family="Helvetica,sans-Serif" font-size="10.00">stdlib.h</text>
</a>
</g>
</g>
<!-- Node1&#45;&gt;Node7 -->
<g id="edge6_Node000001_Node000007" class="edge">
<title>Node1&#45;&gt;Node7</title>
<g id="a_edge6_Node000001_Node000007"><a xlink:title=" ">
<path fill="none" stroke="#63b8ff" d="M356.79,-54.95C361,-47.19 366.23,-37.56 370.75,-29.26"/>
<polygon fill="#63b8ff" stroke="#63b8ff" points="374.24,-31.16 375.94,-20.7 368.09,-27.82 374.24,-31.16"/>
</a>
</g>
</g>
<!-- Node8 -->
<g id="Node000008" class="node">
<title>Node8</title>
<g id="a_Node000008"><a xlink:title=" ">
<polygon fill="#e0e0e0" stroke="#999999" points="471,-19.25 422.75,-19.25 422.75,0 471,0 471,-19.25"/>
<text text-anchor="middle" x="446.88" y="-5.75" font-family="Helvetica,sans-Serif" font-size="10.00">string.h</text>
</a>
</g>
</g>
<!-- Node1&#45;&gt;Node8 -->
<g id="edge7_Node000001_Node000008" class="edge">
<title>Node1&#45;&gt;Node8</title>
<g id="a_edge7_Node000001_Node000008"><a xlink:title=" ">
<path fill="none" stroke="#63b8ff" d="M373.35,-54.8C388.42,-45.74 407.66,-34.19 422.67,-25.16"/>
<polygon fill="#63b8ff" stroke="#63b8ff" points="424.08,-27.8 430.85,-19.65 420.47,-21.8 424.08,-27.8"/>
</a>
</g>
</g>
<!-- Node9 -->
<g id="Node000009" class="node">
<title>Node9</title>
<g id="a_Node000009"><a xlink:title=" ">
<polygon fill="#e0e0e0" stroke="#999999" points="561,-19.25 488.75,-19.25 488.75,0 561,0 561,-19.25"/>
<text text-anchor="middle" x="524.88" y="-5.75" font-family="Helvetica,sans-Serif" font-size="10.00">sys/socket.h</text>
</a>
</g>
</g>
<!-- Node1&#45;&gt;Node9 -->
<g id="edge8_Node000001_Node000009" class="edge">
<title>Node1&#45;&gt;Node9</title>
<g id="a_edge8_Node000001_Node000009"><a xlink:title=" ">
<path fill="none" stroke="#63b8ff" d="M392.83,-54.8C421.99,-45.04 459.85,-32.38 487.55,-23.11"/>
<polygon fill="#63b8ff" stroke="#63b8ff" points="488.25,-26.23 496.62,-19.74 486.03,-19.59 488.25,-26.23"/>
</a>
</g>
</g>
<!-- Node10 -->
<g id="Node000010" class="node">
<title>Node10</title>
<g id="a_Node000010"><a xlink:title=" ">
<polygon fill="#e0e0e0" stroke="#999999" points="646.38,-19.25 579.38,-19.25 579.38,0 646.38,0 646.38,-19.25"/>
<text text-anchor="middle" x="612.88" y="-5.75" font-family="Helvetica,sans-Serif" font-size="10.00">sys/types.h</text>
</a>
</g>
</g>
<!-- Node1&#45;&gt;Node10 -->
<g id="edge9_Node000001_Node000010" class="edge">
<title>Node1&#45;&gt;Node10</title>
<g id="a_edge9_Node000001_Node000010"><a xlink:title=" ">
<path fill="none" stroke="#63b8ff" d="M402.3,-57.59C451.26,-46.67 522.89,-30.69 568.7,-20.48"/>
<polygon fill="#63b8ff" stroke="#63b8ff" points="569.19,-23.73 578.19,-18.14 567.67,-16.9 569.19,-23.73"/>
</a>
</g>
</g>
<!-- Node11 -->
<g id="Node000011" class="node">
<title>Node11</title>
<g id="a_Node000011"><a xlink:title=" ">
<polygon fill="#e0e0e0" stroke="#999999" points="715.12,-19.25 664.62,-19.25 664.62,0 715.12,0 715.12,-19.25"/>
<text text-anchor="middle" x="689.88" y="-5.75" font-family="Helvetica,sans-Serif" font-size="10.00">unistd.h</text>
</a>
</g>
</g>
<!-- Node1&#45;&gt;Node11 -->
<g id="edge10_Node000001_Node000011" class="edge">
<title>Node1&#45;&gt;Node11</title>
<g id="a_edge10_Node000001_Node000011"><a xlink:title=" ">
<path fill="none" stroke="#63b8ff" d="M402.1,-62.21C461.31,-53.78 559.99,-38.8 653.78,-19.54"/>
<polygon fill="#63b8ff" stroke="#63b8ff" points="654.23,-22.82 663.31,-17.36 652.81,-15.97 654.23,-22.82"/>
</a>
</g>
</g>
</g>
</svg>
