<?xml version="1.0" encoding="UTF-8" standalone="no"?>
<!DOCTYPE svg PUBLIC "-//W3C//DTD SVG 1.1//EN"
 "http://www.w3.org/Graphics/SVG/1.1/DTD/svg11.dtd">
<!-- Generated by graphviz version 3.0.0 (20220226.1711)
 -->
<!-- Title: client_server/tcp_full_duplex_client.c Pages: 1 -->
<svg width="733pt" height="95pt"
 viewBox="0.00 0.00 732.50 95.00" xmlns="http://www.w3.org/2000/svg" xmlns:xlink="http://www.w3.org/1999/xlink">
<g id="graph0" class="graph" transform="scale(1 1) rotate(0) translate(4 91)">
<title>client_server/tcp_full_duplex_client.c</title>
<polygon fill="white" stroke="transparent" points="-4,4 -4,-91 728.5,-91 728.5,4 -4,4"/>
<!-- Node1 -->
<g id="node1" class="node">
<title>Node1</title>
<g id="a_node1"><a xlink:title="Client&#45;side implementation of TCP Full Duplex Communication">
<polygon fill="#bfbfbf" stroke="black" points="299.5,-56.5 299.5,-86.5 406.5,-86.5 406.5,-56.5 299.5,-56.5"/>
<text text-anchor="start" x="307.5" y="-74.5" font-family="Helvetica,sans-Serif" font-size="10.00">client_server/tcp_full</text>
<text text-anchor="middle" x="353" y="-63.5" font-family="Helvetica,sans-Serif" font-size="10.00">_duplex_client.c</text>
</a>
</g>
</g>
<!-- Node2 -->
<g id="node2" class="node">
<title>Node2</title>
<g id="a_node2"><a xlink:title=" ">
<polygon fill="white" stroke="#bfbfbf" points="0,-0.5 0,-19.5 62,-19.5 62,-0.5 0,-0.5"/>
<text text-anchor="middle" x="31" y="-7.5" font-family="Helvetica,sans-Serif" font-size="10.00">arpa/inet.h</text>
</a>
</g>
</g>
<!-- Node1&#45;&gt;Node2 -->
<g id="edge1" class="edge">
<title>Node1&#45;&gt;Node2</title>
<path fill="none" stroke="midnightblue" d="M299.33,-61.61C244.66,-52.4 157.2,-37.21 72.46,-20.23"/>
<polygon fill="midnightblue" stroke="midnightblue" points="72.91,-16.75 62.41,-18.21 71.53,-23.61 72.91,-16.75"/>
</g>
<!-- Node3 -->
<g id="node3" class="node">
<title>Node3</title>
<g id="a_node3"><a xlink:title=" ">
<polygon fill="white" stroke="#bfbfbf" points="80.5,-0.5 80.5,-19.5 129.5,-19.5 129.5,-0.5 80.5,-0.5"/>
<text text-anchor="middle" x="105" y="-7.5" font-family="Helvetica,sans-Serif" font-size="10.00">netdb.h</text>
</a>
</g>
</g>
<!-- Node1&#45;&gt;Node3 -->
<g id="edge2" class="edge">
<title>Node1&#45;&gt;Node3</title>
<path fill="none" stroke="midnightblue" d="M299.42,-58.47C258.14,-49.08 199.41,-35.44 139.8,-20.4"/>
<polygon fill="midnightblue" stroke="midnightblue" points="140.39,-16.94 129.84,-17.88 138.68,-23.73 140.39,-16.94"/>
</g>
<!-- Node4 -->
<g id="node4" class="node">
<title>Node4</title>
<g id="a_node4"><a xlink:title=" ">
<polygon fill="white" stroke="#bfbfbf" points="147.5,-0.5 147.5,-19.5 212.5,-19.5 212.5,-0.5 147.5,-0.5"/>
<text text-anchor="middle" x="180" y="-7.5" font-family="Helvetica,sans-Serif" font-size="10.00">netinet/in.h</text>
</a>
</g>
</g>
<!-- Node1&#45;&gt;Node4 -->
<g id="edge3" class="edge">
<title>Node1&#45;&gt;Node4</title>
<path fill="none" stroke="midnightblue" d="M312,-56.4C282.37,-46.21 242.77,-32.59 214.7,-22.93"/>
<polygon fill="midnightblue" stroke="midnightblue" points="215.52,-19.51 204.92,-19.57 213.24,-26.13 215.52,-19.51"/>
</g>
<!-- Node5 -->
<g id="node5" class="node">
<title>Node5</title>
<g id="a_node5"><a xlink:title=" ">
<polygon fill="white" stroke="#bfbfbf" points="230.5,-0.5 230.5,-19.5 279.5,-19.5 279.5,-0.5 230.5,-0.5"/>
<text text-anchor="middle" x="255" y="-7.5" font-family="Helvetica,sans-Serif" font-size="10.00">stdint.h</text>
</a>
</g>
</g>
<!-- Node1&#45;&gt;Node5 -->
<g id="edge4" class="edge">
<title>Node1&#45;&gt;Node5</title>
<path fill="none" stroke="midnightblue" d="M329.78,-56.4C314.21,-46.95 293.8,-34.56 278.24,-25.11"/>
<polygon fill="midnightblue" stroke="midnightblue" points="279.62,-21.86 269.26,-19.66 275.99,-27.84 279.62,-21.86"/>
</g>
<!-- Node6 -->
<g id="node6" class="node">
<title>Node6</title>
<g id="a_node6"><a xlink:title=" ">
<polygon fill="white" stroke="#bfbfbf" points="298,-0.5 298,-19.5 344,-19.5 344,-0.5 298,-0.5"/>
<text text-anchor="middle" x="321" y="-7.5" font-family="Helvetica,sans-Serif" font-size="10.00">stdio.h</text>
</a>
</g>
</g>
<!-- Node1&#45;&gt;Node6 -->
<g id="edge5" class="edge">
<title>Node1&#45;&gt;Node6</title>
<path fill="none" stroke="midnightblue" d="M345.42,-56.4C340.96,-48.11 335.28,-37.55 330.52,-28.71"/>
<polygon fill="midnightblue" stroke="midnightblue" points="333.48,-26.81 325.66,-19.66 327.31,-30.12 333.48,-26.81"/>
</g>
<!-- Node7 -->
<g id="node7" class="node">
<title>Node7</title>
<g id="a_node7"><a xlink:title=" ">
<polygon fill="white" stroke="#bfbfbf" points="362,-0.5 362,-19.5 410,-19.5 410,-0.5 362,-0.5"/>
<text text-anchor="middle" x="386" y="-7.5" font-family="Helvetica,sans-Serif" font-size="10.00">stdlib.h</text>
</a>
</g>
</g>
<!-- Node1&#45;&gt;Node7 -->
<g id="edge6" class="edge">
<title>Node1&#45;&gt;Node7</title>
<path fill="none" stroke="midnightblue" d="M360.82,-56.4C365.47,-48.02 371.4,-37.33 376.34,-28.42"/>
<polygon fill="midnightblue" stroke="midnightblue" points="379.41,-30.1 381.2,-19.66 373.29,-26.71 379.41,-30.1"/>
</g>
<!-- Node8 -->
<g id="node8" class="node">
<title>Node8</title>
<g id="a_node8"><a xlink:title=" ">
<polygon fill="white" stroke="#bfbfbf" points="428.5,-0.5 428.5,-19.5 477.5,-19.5 477.5,-0.5 428.5,-0.5"/>
<text text-anchor="middle" x="453" y="-7.5" font-family="Helvetica,sans-Serif" font-size="10.00">string.h</text>
</a>
</g>
</g>
<!-- Node1&#45;&gt;Node8 -->
<g id="edge7" class="edge">
<title>Node1&#45;&gt;Node8</title>
<path fill="none" stroke="midnightblue" d="M376.7,-56.4C392.73,-46.86 413.8,-34.32 429.74,-24.84"/>
<polygon fill="midnightblue" stroke="midnightblue" points="431.64,-27.78 438.45,-19.66 428.07,-21.76 431.64,-27.78"/>
</g>
<!-- Node9 -->
<g id="node9" class="node">
<title>Node9</title>
<g id="a_node9"><a xlink:title=" ">
<polygon fill="white" stroke="#bfbfbf" points="495.5,-0.5 495.5,-19.5 568.5,-19.5 568.5,-0.5 495.5,-0.5"/>
<text text-anchor="middle" x="532" y="-7.5" font-family="Helvetica,sans-Serif" font-size="10.00">sys/socket.h</text>
</a>
</g>
</g>
<!-- Node1&#45;&gt;Node9 -->
<g id="edge8" class="edge">
<title>Node1&#45;&gt;Node9</title>
<path fill="none" stroke="midnightblue" d="M395.42,-56.4C426.22,-46.16 467.41,-32.47 496.48,-22.81"/>
<polygon fill="midnightblue" stroke="midnightblue" points="497.83,-26.05 506.22,-19.57 495.62,-19.4 497.83,-26.05"/>
</g>
<!-- Node10 -->
<g id="node10" class="node">
<title>Node10</title>
<g id="a_node10"><a xlink:title=" ">
<polygon fill="white" stroke="#bfbfbf" points="587,-0.5 587,-19.5 655,-19.5 655,-0.5 587,-0.5"/>
<text text-anchor="middle" x="621" y="-7.5" font-family="Helvetica,sans-Serif" font-size="10.00">sys/types.h</text>
</a>
</g>
</g>
<!-- Node1&#45;&gt;Node10 -->
<g id="edge9" class="edge">
<title>Node1&#45;&gt;Node10</title>
<path fill="none" stroke="midnightblue" d="M406.59,-58.6C456.54,-47.51 530.15,-31.17 576.82,-20.81"/>
<polygon fill="midnightblue" stroke="midnightblue" points="577.63,-24.21 586.64,-18.63 576.11,-17.38 577.63,-24.21"/>
</g>
<!-- Node11 -->
<g id="node11" class="node">
<title>Node11</title>
<g id="a_node11"><a xlink:title=" ">
<polygon fill="white" stroke="#bfbfbf" points="673.5,-0.5 673.5,-19.5 724.5,-19.5 724.5,-0.5 673.5,-0.5"/>
<text text-anchor="middle" x="699" y="-7.5" font-family="Helvetica,sans-Serif" font-size="10.00">unistd.h</text>
</a>
</g>
</g>
<!-- Node1&#45;&gt;Node11 -->
<g id="edge10" class="edge">
<title>Node1&#45;&gt;Node11</title>
<path fill="none" stroke="midnightblue" d="M406.65,-63.3C466.79,-54.89 567.36,-39.81 663.56,-19.92"/>
<polygon fill="midnightblue" stroke="midnightblue" points="664.38,-23.33 673.45,-17.86 662.94,-16.47 664.38,-23.33"/>
</g>
</g>
</svg>
