<?xml version="1.0" encoding="UTF-8" standalone="no"?>
<!DOCTYPE svg PUBLIC "-//W3C//DTD SVG 1.1//EN"
 "http://www.w3.org/Graphics/SVG/1.1/DTD/svg11.dtd">
<!-- Generated by graphviz version 6.0.1 (20220911.1526)
 -->
<!-- Title: main Pages: 1 -->
<svg width="204pt" height="27pt"
 viewBox="0.00 0.00 204.00 27.00" xmlns="http://www.w3.org/2000/svg" xmlns:xlink="http://www.w3.org/1999/xlink">
<g id="graph0" class="graph" transform="scale(1 1) rotate(0) translate(4 23)">
<title>main</title>
<!-- Node1 -->
<g id="node1" class="node">
<title>Node1</title>
<g id="a_node1"><a xlink:title="Driver Code.">
<polygon fill="#999999" stroke="#666666" points="38,-19 0,-19 0,0 38,0 38,-19"/>
<text text-anchor="middle" x="19" y="-7" font-family="Helvetica,sans-Serif" font-size="10.00">main</text>
</a>
</g>
</g>
<!-- Node2 -->
<g id="node2" class="node">
<title>Node2</title>
<g id="a_node2"><a xlink:href="../../d4/dcc/strong__number_8c.html#ae1a3968e7947464bee7714f6d43b7002" target="_top" xlink:title="Test function.">
<polygon fill="white" stroke="#666666" points="107,-19 74,-19 74,0 107,0 107,-19"/>
<text text-anchor="middle" x="90.5" y="-7" font-family="Helvetica,sans-Serif" font-size="10.00">test</text>
</a>
</g>
</g>
<!-- Node1&#45;&gt;Node2 -->
<g id="edge1" class="edge">
<title>Node1&#45;&gt;Node2</title>
<path fill="none" stroke="#63b8ff" d="M38.26,-9.5C46.07,-9.5 55.31,-9.5 63.79,-9.5"/>
<polygon fill="#63b8ff" stroke="#63b8ff" points="63.95,-13 73.95,-9.5 63.95,-6 63.95,-13"/>
</g>
<!-- Node3 -->
<g id="node3" class="node">
<title>Node3</title>
<g id="a_node3"><a xlink:href="../../d4/dcc/strong__number_8c.html#a03654cadb0cfe1195810dbe5da0265b5" target="_top" xlink:title="Check if given number is strong number or not.">
<polygon fill="white" stroke="#666666" points="196,-19 143,-19 143,0 196,0 196,-19"/>
<text text-anchor="middle" x="169.5" y="-7" font-family="Helvetica,sans-Serif" font-size="10.00">isStrong</text>
</a>
</g>
</g>
<!-- Node2&#45;&gt;Node3 -->
<g id="edge2" class="edge">
<title>Node2&#45;&gt;Node3</title>
<path fill="none" stroke="#63b8ff" d="M107.08,-9.5C114.55,-9.5 123.84,-9.5 132.9,-9.5"/>
<polygon fill="#63b8ff" stroke="#63b8ff" points="132.94,-13 142.94,-9.5 132.94,-6 132.94,-13"/>
</g>
</g>
</svg>
