<?xml version="1.0" encoding="UTF-8" standalone="no"?>
<!DOCTYPE svg PUBLIC "-//W3C//DTD SVG 1.1//EN"
 "http://www.w3.org/Graphics/SVG/1.1/DTD/svg11.dtd">
<!-- Generated by graphviz version 8.0.2 (20230410.1723)
 -->
<!-- Title: dual_quat_ Pages: 1 -->
<svg width="75pt" height="170pt"
 viewBox="0.00 0.00 75.00 170.00" xmlns="http://www.w3.org/2000/svg" xmlns:xlink="http://www.w3.org/1999/xlink">
<g id="graph0" class="graph" transform="scale(1 1) rotate(0) translate(4 166)">
<title>dual_quat_</title>
<!-- Node1 -->
<g id="node1" class="node">
<title>Node1</title>
<g id="a_node1"><a xlink:title="a dual quaternion type">
<polygon fill="#999999" stroke="#666666" points="65.5,-19 1.5,-19 1.5,0 65.5,0 65.5,-19"/>
<text text-anchor="middle" x="33.5" y="-7" font-family="Helvetica,sans-Serif" font-size="10.00">dual_quat_</text>
</a>
</g>
</g>
<!-- Node2 -->
<g id="node2" class="node">
<title>Node2</title>
<g id="a_node2"><a xlink:href="../../de/d58/structquaternion__.html" target="_top" xlink:title="a Quaternion type represented using a scalar &#160;or &#160;and a 3D vector">
<polygon fill="white" stroke="#666666" points="67,-96 0,-96 0,-77 67,-77 67,-96"/>
<text text-anchor="middle" x="33.5" y="-84" font-family="Helvetica,sans-Serif" font-size="10.00">quaternion_</text>
</a>
</g>
</g>
<!-- Node2&#45;&gt;Node1 -->
<g id="edge1" class="edge">
<title>Node2&#45;&gt;Node1</title>
<path fill="none" stroke="#9a32cd" stroke-dasharray="5,2" d="M33.5,-65.87C33.5,-50.83 33.5,-30.77 33.5,-19.39"/>
<polygon fill="#9a32cd" stroke="#9a32cd" points="30,-65.6 33.5,-75.6 37,-65.6 30,-65.6"/>
<text text-anchor="middle" x="44.5" y="-51" font-family="Helvetica,sans-Serif" font-size="10.00"> dual</text>
<text text-anchor="middle" x="44.5" y="-40" font-family="Helvetica,sans-Serif" font-size="10.00">real</text>
</g>
<!-- Node3 -->
<g id="node3" class="node">
<title>Node3</title>
<g id="a_node3"><a xlink:href="../../d5/db4/structvec__3d__.html" target="_top" xlink:title="3D vector type">
<polygon fill="white" stroke="#666666" points="60,-162 7,-162 7,-143 60,-143 60,-162"/>
<text text-anchor="middle" x="33.5" y="-150" font-family="Helvetica,sans-Serif" font-size="10.00">vec_3d_</text>
</a>
</g>
</g>
<!-- Node3&#45;&gt;Node2 -->
<g id="edge2" class="edge">
<title>Node3&#45;&gt;Node2</title>
<path fill="none" stroke="#9a32cd" stroke-dasharray="5,2" d="M33.5,-131.93C33.5,-120.05 33.5,-105.46 33.5,-96.32"/>
<polygon fill="#9a32cd" stroke="#9a32cd" points="30,-131.6 33.5,-141.6 37,-131.6 30,-131.6"/>
<text text-anchor="middle" x="44.5" y="-117" font-family="Helvetica,sans-Serif" font-size="10.00"> dual</text>
</g>
</g>
</svg>
