<?xml version="1.0" encoding="UTF-8" standalone="no"?>
<!DOCTYPE svg PUBLIC "-//W3C//DTD SVG 1.1//EN"
 "http://www.w3.org/Graphics/SVG/1.1/DTD/svg11.dtd">
<!-- Generated by graphviz version 9.0.0 (20230911.1827)
 -->
<!-- Title: main Pages: 1 -->
<svg width="244pt" height="45pt"
 viewBox="0.00 0.00 244.25 45.25" xmlns="http://www.w3.org/2000/svg" xmlns:xlink="http://www.w3.org/1999/xlink">
<g id="graph0" class="graph" transform="scale(1 1) rotate(0) translate(4 41.25)">
<title>main</title>
<!-- Node1 -->
<g id="Node000001" class="node">
<title>Node1</title>
<g id="a_Node000001"><a xlink:title="Driver Code.">
<polygon fill="#999999" stroke="#666666" points="37,-19.25 0,-19.25 0,0 37,0 37,-19.25"/>
<text text-anchor="middle" x="18.5" y="-5.75" font-family="Helvetica,sans-Serif" font-size="10.00">main</text>
</a>
</g>
</g>
<!-- Node2 -->
<g id="Node000002" class="node">
<title>Node2</title>
<g id="a_Node000002"><a xlink:href="../../d8/d30/decimal__to__binary__recursion_8c.html#aa8dca7b867074164d5f45b0f3851269d" target="_top" xlink:title="Test function.">
<polygon fill="white" stroke="#666666" points="105.5,-19.25 73,-19.25 73,0 105.5,0 105.5,-19.25"/>
<text text-anchor="middle" x="89.25" y="-5.75" font-family="Helvetica,sans-Serif" font-size="10.00">test</text>
</a>
</g>
</g>
<!-- Node1&#45;&gt;Node2 -->
<g id="edge1_Node000001_Node000002" class="edge">
<title>Node1&#45;&gt;Node2</title>
<g id="a_edge1_Node000001_Node000002"><a xlink:title=" ">
<path fill="none" stroke="#63b8ff" d="M37.2,-9.62C44.58,-9.62 53.31,-9.62 61.45,-9.62"/>
<polygon fill="#63b8ff" stroke="#63b8ff" points="61.2,-13.13 71.2,-9.63 61.2,-6.13 61.2,-13.13"/>
</a>
</g>
</g>
<!-- Node3 -->
<g id="Node000003" class="node">
<title>Node3</title>
<g id="a_Node000003"><a xlink:href="../../d8/d30/decimal__to__binary__recursion_8c.html#acbbe6358ec95b3201865a72b2ac522c8" target="_top" xlink:title="Decimal to binary using recursion algorithm.">
<polygon fill="white" stroke="#666666" points="236.25,-19.25 141.5,-19.25 141.5,0 236.25,0 236.25,-19.25"/>
<text text-anchor="middle" x="188.88" y="-5.75" font-family="Helvetica,sans-Serif" font-size="10.00">decimal_to_binary</text>
</a>
</g>
</g>
<!-- Node2&#45;&gt;Node3 -->
<g id="edge2_Node000002_Node000003" class="edge">
<title>Node2&#45;&gt;Node3</title>
<g id="a_edge2_Node000002_Node000003"><a xlink:title=" ">
<path fill="none" stroke="#63b8ff" d="M105.94,-9.62C112.68,-9.62 121.03,-9.62 129.78,-9.62"/>
<polygon fill="#63b8ff" stroke="#63b8ff" points="129.49,-13.13 139.49,-9.63 129.49,-6.13 129.49,-13.13"/>
</a>
</g>
</g>
<!-- Node3&#45;&gt;Node3 -->
<g id="edge3_Node000003_Node000003" class="edge">
<title>Node3&#45;&gt;Node3</title>
<g id="a_edge3_Node000003_Node000003"><a xlink:title=" ">
<path fill="none" stroke="#63b8ff" d="M173.28,-19.54C166.16,-28.15 171.36,-37.25 188.88,-37.25 198.45,-37.25 204.35,-34.53 206.56,-30.65"/>
<polygon fill="#63b8ff" stroke="#63b8ff" points="210.04,-30.21 204.75,-21.03 203.16,-31.5 210.04,-30.21"/>
</a>
</g>
</g>
</g>
</svg>
