<?xml version="1.0" encoding="UTF-8" standalone="no"?>
<!DOCTYPE svg PUBLIC "-//W3C//DTD SVG 1.1//EN"
 "http://www.w3.org/Graphics/SVG/1.1/DTD/svg11.dtd">
<!-- Generated by graphviz version 7.0.6 (20230106.0513)
 -->
<!-- Title: test Pages: 1 -->
<svg width="172pt" height="45pt"
 viewBox="0.00 0.00 172.00 45.00" xmlns="http://www.w3.org/2000/svg" xmlns:xlink="http://www.w3.org/1999/xlink">
<g id="graph0" class="graph" transform="scale(1 1) rotate(0) translate(4 41)">
<title>test</title>
<!-- Node1 -->
<g id="node1" class="node">
<title>Node1</title>
<g id="a_node1"><a xlink:title="Test function.">
<polygon fill="#999999" stroke="#666666" points="33,-19 0,-19 0,0 33,0 33,-19"/>
<text text-anchor="middle" x="16.5" y="-7" font-family="Helvetica,sans-Serif" font-size="10.00">test</text>
</a>
</g>
</g>
<!-- Node2 -->
<g id="node2" class="node">
<title>Node2</title>
<g id="a_node2"><a xlink:href="../../d8/d30/decimal__to__binary__recursion_8c.html#acbbe6358ec95b3201865a72b2ac522c8" target="_top" xlink:title="Decimal to binary using recursion algorithm.">
<polygon fill="white" stroke="#666666" points="164,-19 69,-19 69,0 164,0 164,-19"/>
<text text-anchor="middle" x="116.5" y="-7" font-family="Helvetica,sans-Serif" font-size="10.00">decimal_to_binary</text>
</a>
</g>
</g>
<!-- Node1&#45;&gt;Node2 -->
<g id="edge1" class="edge">
<title>Node1&#45;&gt;Node2</title>
<path fill="none" stroke="#63b8ff" d="M33.25,-9.5C40.09,-9.5 48.58,-9.5 57.48,-9.5"/>
<polygon fill="#63b8ff" stroke="#63b8ff" points="57.37,-13 67.37,-9.5 57.37,-6 57.37,-13"/>
</g>
<!-- Node2&#45;&gt;Node2 -->
<g id="edge2" class="edge">
<title>Node2&#45;&gt;Node2</title>
<path fill="none" stroke="#63b8ff" d="M100.84,-19.37C93.7,-27.94 98.92,-37 116.5,-37 126.11,-37 132.03,-34.29 134.25,-30.43"/>
<polygon fill="#63b8ff" stroke="#63b8ff" points="137.74,-30.03 132.44,-20.86 130.86,-31.33 137.74,-30.03"/>
</g>
</g>
</svg>
