<?xml version="1.0" encoding="UTF-8" standalone="no"?>
<!DOCTYPE svg PUBLIC "-//W3C//DTD SVG 1.1//EN"
 "http://www.w3.org/Graphics/SVG/1.1/DTD/svg11.dtd">
<!-- Generated by graphviz version 7.0.6 (20230106.0513)
 -->
<!-- Title: conversions/infix_to_postfix2.c Pages: 1 -->
<svg width="393pt" height="93pt"
 viewBox="0.00 0.00 393.00 93.00" xmlns="http://www.w3.org/2000/svg" xmlns:xlink="http://www.w3.org/1999/xlink">
<g id="graph0" class="graph" transform="scale(1 1) rotate(0) translate(4 89)">
<title>conversions/infix_to_postfix2.c</title>
<!-- Node1 -->
<g id="node1" class="node">
<title>Node1</title>
<g id="a_node1"><a xlink:title="Infix to Postfix converter implementation">
<polygon fill="#999999" stroke="#666666" points="241,-85 137,-85 137,-55 241,-55 241,-85"/>
<text text-anchor="start" x="145" y="-73" font-family="Helvetica,sans-Serif" font-size="10.00">conversions/infix_to</text>
<text text-anchor="middle" x="189" y="-62" font-family="Helvetica,sans-Serif" font-size="10.00">_postfix2.c</text>
</a>
</g>
</g>
<!-- Node2 -->
<g id="node2" class="node">
<title>Node2</title>
<g id="a_node2"><a xlink:title=" ">
<polygon fill="#e0e0e0" stroke="#999999" points="46,-19 0,-19 0,0 46,0 46,-19"/>
<text text-anchor="middle" x="23" y="-7" font-family="Helvetica,sans-Serif" font-size="10.00">stdio.h</text>
</a>
</g>
</g>
<!-- Node1&#45;&gt;Node2 -->
<g id="edge1" class="edge">
<title>Node1&#45;&gt;Node2</title>
<path fill="none" stroke="#63b8ff" d="M147.97,-54.54C119.91,-44.65 83.16,-31.7 56.79,-22.41"/>
<polygon fill="#63b8ff" stroke="#63b8ff" points="58.2,-19.2 47.61,-19.17 55.88,-25.8 58.2,-19.2"/>
</g>
<!-- Node3 -->
<g id="node3" class="node">
<title>Node3</title>
<g id="a_node3"><a xlink:title=" ">
<polygon fill="#e0e0e0" stroke="#999999" points="113.5,-19 64.5,-19 64.5,0 113.5,0 113.5,-19"/>
<text text-anchor="middle" x="89" y="-7" font-family="Helvetica,sans-Serif" font-size="10.00">string.h</text>
</a>
</g>
</g>
<!-- Node1&#45;&gt;Node3 -->
<g id="edge2" class="edge">
<title>Node1&#45;&gt;Node3</title>
<path fill="none" stroke="#63b8ff" d="M164.28,-54.54C148.96,-45.58 129.34,-34.1 113.98,-25.11"/>
<polygon fill="#63b8ff" stroke="#63b8ff" points="115.83,-22.14 105.43,-20.11 112.29,-28.18 115.83,-22.14"/>
</g>
<!-- Node4 -->
<g id="node4" class="node">
<title>Node4</title>
<g id="a_node4"><a xlink:title=" ">
<polygon fill="#e0e0e0" stroke="#999999" points="180.5,-19 131.5,-19 131.5,0 180.5,0 180.5,-19"/>
<text text-anchor="middle" x="156" y="-7" font-family="Helvetica,sans-Serif" font-size="10.00">ctype.h</text>
</a>
</g>
</g>
<!-- Node1&#45;&gt;Node4 -->
<g id="edge3" class="edge">
<title>Node1&#45;&gt;Node4</title>
<path fill="none" stroke="#63b8ff" d="M180.84,-54.54C176.49,-46.82 171.09,-37.24 166.43,-28.99"/>
<polygon fill="#63b8ff" stroke="#63b8ff" points="169.6,-27.48 161.64,-20.49 163.5,-30.92 169.6,-27.48"/>
</g>
<!-- Node5 -->
<g id="node5" class="node">
<title>Node5</title>
<g id="a_node5"><a xlink:title=" ">
<polygon fill="#e0e0e0" stroke="#999999" points="247,-19 199,-19 199,0 247,0 247,-19"/>
<text text-anchor="middle" x="223" y="-7" font-family="Helvetica,sans-Serif" font-size="10.00">stdlib.h</text>
</a>
</g>
</g>
<!-- Node1&#45;&gt;Node5 -->
<g id="edge4" class="edge">
<title>Node1&#45;&gt;Node5</title>
<path fill="none" stroke="#63b8ff" d="M197.4,-54.54C201.89,-46.82 207.46,-37.24 212.25,-28.99"/>
<polygon fill="#63b8ff" stroke="#63b8ff" points="215.2,-30.89 217.2,-20.48 209.15,-27.37 215.2,-30.89"/>
</g>
<!-- Node6 -->
<g id="node6" class="node">
<title>Node6</title>
<g id="a_node6"><a xlink:title=" ">
<polygon fill="#e0e0e0" stroke="#999999" points="314.5,-19 265.5,-19 265.5,0 314.5,0 314.5,-19"/>
<text text-anchor="middle" x="290" y="-7" font-family="Helvetica,sans-Serif" font-size="10.00">stdint.h</text>
</a>
</g>
</g>
<!-- Node1&#45;&gt;Node6 -->
<g id="edge5" class="edge">
<title>Node1&#45;&gt;Node6</title>
<path fill="none" stroke="#63b8ff" d="M213.97,-54.54C229.44,-45.58 249.25,-34.1 264.77,-25.11"/>
<polygon fill="#63b8ff" stroke="#63b8ff" points="266.52,-28.15 273.42,-20.1 263.01,-22.09 266.52,-28.15"/>
</g>
<!-- Node7 -->
<g id="node7" class="node">
<title>Node7</title>
<g id="a_node7"><a xlink:title=" ">
<polygon fill="#e0e0e0" stroke="#999999" points="385,-19 333,-19 333,0 385,0 385,-19"/>
<text text-anchor="middle" x="359" y="-7" font-family="Helvetica,sans-Serif" font-size="10.00">assert.h</text>
</a>
</g>
</g>
<!-- Node1&#45;&gt;Node7 -->
<g id="edge6" class="edge">
<title>Node1&#45;&gt;Node7</title>
<path fill="none" stroke="#63b8ff" d="M231.02,-54.54C258.98,-44.92 295.36,-32.4 322.19,-23.17"/>
<polygon fill="#63b8ff" stroke="#63b8ff" points="323.3,-26.49 331.61,-19.92 321.02,-19.87 323.3,-26.49"/>
</g>
</g>
</svg>
