<?xml version="1.0" encoding="UTF-8" standalone="no"?>
<!DOCTYPE svg PUBLIC "-//W3C//DTD SVG 1.1//EN"
 "http://www.w3.org/Graphics/SVG/1.1/DTD/svg11.dtd">
<!-- Generated by graphviz version 3.0.0 (20220226.1711)
 -->
<!-- Title: conversions/infix_to_postfix2.c Pages: 1 -->
<svg width="393pt" height="95pt"
 viewBox="0.00 0.00 393.00 95.00" xmlns="http://www.w3.org/2000/svg" xmlns:xlink="http://www.w3.org/1999/xlink">
<g id="graph0" class="graph" transform="scale(1 1) rotate(0) translate(4 91)">
<title>conversions/infix_to_postfix2.c</title>
<polygon fill="white" stroke="transparent" points="-4,4 -4,-91 389,-91 389,4 -4,4"/>
<!-- Node1 -->
<g id="node1" class="node">
<title>Node1</title>
<g id="a_node1"><a xlink:title="Infix to Postfix converter implementation">
<polygon fill="#bfbfbf" stroke="black" points="137,-56.5 137,-86.5 241,-86.5 241,-56.5 137,-56.5"/>
<text text-anchor="start" x="145" y="-74.5" font-family="Helvetica,sans-Serif" font-size="10.00">conversions/infix_to</text>
<text text-anchor="middle" x="189" y="-63.5" font-family="Helvetica,sans-Serif" font-size="10.00">_postfix2.c</text>
</a>
</g>
</g>
<!-- Node2 -->
<g id="node2" class="node">
<title>Node2</title>
<g id="a_node2"><a xlink:title=" ">
<polygon fill="white" stroke="#bfbfbf" points="0,-0.5 0,-19.5 46,-19.5 46,-0.5 0,-0.5"/>
<text text-anchor="middle" x="23" y="-7.5" font-family="Helvetica,sans-Serif" font-size="10.00">stdio.h</text>
</a>
</g>
</g>
<!-- Node1&#45;&gt;Node2 -->
<g id="edge1" class="edge">
<title>Node1&#45;&gt;Node2</title>
<path fill="none" stroke="midnightblue" d="M149.66,-56.4C121.1,-46.16 82.89,-32.46 55.93,-22.8"/>
<polygon fill="midnightblue" stroke="midnightblue" points="56.79,-19.39 46.19,-19.31 54.42,-25.98 56.79,-19.39"/>
</g>
<!-- Node3 -->
<g id="node3" class="node">
<title>Node3</title>
<g id="a_node3"><a xlink:title=" ">
<polygon fill="white" stroke="#bfbfbf" points="64.5,-0.5 64.5,-19.5 113.5,-19.5 113.5,-0.5 64.5,-0.5"/>
<text text-anchor="middle" x="89" y="-7.5" font-family="Helvetica,sans-Serif" font-size="10.00">string.h</text>
</a>
</g>
</g>
<!-- Node1&#45;&gt;Node3 -->
<g id="edge2" class="edge">
<title>Node1&#45;&gt;Node3</title>
<path fill="none" stroke="midnightblue" d="M165.3,-56.4C149.27,-46.86 128.2,-34.32 112.26,-24.84"/>
<polygon fill="midnightblue" stroke="midnightblue" points="113.93,-21.76 103.55,-19.66 110.36,-27.78 113.93,-21.76"/>
</g>
<!-- Node4 -->
<g id="node4" class="node">
<title>Node4</title>
<g id="a_node4"><a xlink:title=" ">
<polygon fill="white" stroke="#bfbfbf" points="131.5,-0.5 131.5,-19.5 180.5,-19.5 180.5,-0.5 131.5,-0.5"/>
<text text-anchor="middle" x="156" y="-7.5" font-family="Helvetica,sans-Serif" font-size="10.00">ctype.h</text>
</a>
</g>
</g>
<!-- Node1&#45;&gt;Node4 -->
<g id="edge3" class="edge">
<title>Node1&#45;&gt;Node4</title>
<path fill="none" stroke="midnightblue" d="M181.18,-56.4C176.53,-48.02 170.6,-37.33 165.66,-28.42"/>
<polygon fill="midnightblue" stroke="midnightblue" points="168.71,-26.71 160.8,-19.66 162.59,-30.1 168.71,-26.71"/>
</g>
<!-- Node5 -->
<g id="node5" class="node">
<title>Node5</title>
<g id="a_node5"><a xlink:title=" ">
<polygon fill="white" stroke="#bfbfbf" points="199,-0.5 199,-19.5 247,-19.5 247,-0.5 199,-0.5"/>
<text text-anchor="middle" x="223" y="-7.5" font-family="Helvetica,sans-Serif" font-size="10.00">stdlib.h</text>
</a>
</g>
</g>
<!-- Node1&#45;&gt;Node5 -->
<g id="edge4" class="edge">
<title>Node1&#45;&gt;Node5</title>
<path fill="none" stroke="midnightblue" d="M197.06,-56.4C201.85,-48.02 207.96,-37.33 213.04,-28.42"/>
<polygon fill="midnightblue" stroke="midnightblue" points="216.13,-30.08 218.05,-19.66 210.05,-26.6 216.13,-30.08"/>
</g>
<!-- Node6 -->
<g id="node6" class="node">
<title>Node6</title>
<g id="a_node6"><a xlink:title=" ">
<polygon fill="white" stroke="#bfbfbf" points="265.5,-0.5 265.5,-19.5 314.5,-19.5 314.5,-0.5 265.5,-0.5"/>
<text text-anchor="middle" x="290" y="-7.5" font-family="Helvetica,sans-Serif" font-size="10.00">stdint.h</text>
</a>
</g>
</g>
<!-- Node1&#45;&gt;Node6 -->
<g id="edge5" class="edge">
<title>Node1&#45;&gt;Node6</title>
<path fill="none" stroke="midnightblue" d="M212.94,-56.4C229.13,-46.86 250.41,-34.32 266.5,-24.84"/>
<polygon fill="midnightblue" stroke="midnightblue" points="268.46,-27.75 275.3,-19.66 264.91,-21.72 268.46,-27.75"/>
</g>
<!-- Node7 -->
<g id="node7" class="node">
<title>Node7</title>
<g id="a_node7"><a xlink:title=" ">
<polygon fill="white" stroke="#bfbfbf" points="333,-0.5 333,-19.5 385,-19.5 385,-0.5 333,-0.5"/>
<text text-anchor="middle" x="359" y="-7.5" font-family="Helvetica,sans-Serif" font-size="10.00">assert.h</text>
</a>
</g>
</g>
<!-- Node1&#45;&gt;Node7 -->
<g id="edge6" class="edge">
<title>Node1&#45;&gt;Node7</title>
<path fill="none" stroke="midnightblue" d="M229.29,-56.4C258.32,-46.24 297.08,-32.67 324.65,-23.02"/>
<polygon fill="midnightblue" stroke="midnightblue" points="325.98,-26.26 334.26,-19.66 323.67,-19.66 325.98,-26.26"/>
</g>
</g>
</svg>
