<?xml version="1.0" encoding="UTF-8" standalone="no"?>
<!DOCTYPE svg PUBLIC "-//W3C//DTD SVG 1.1//EN"
 "http://www.w3.org/Graphics/SVG/1.1/DTD/svg11.dtd">
<!-- Generated by graphviz version 8.0.5 (20230430.1635)
 -->
<!-- Title: conversions/infix_to_postfix2.c Pages: 1 -->
<svg width="387pt" height="94pt"
 viewBox="0.00 0.00 387.25 93.75" xmlns="http://www.w3.org/2000/svg" xmlns:xlink="http://www.w3.org/1999/xlink">
<g id="graph0" class="graph" transform="scale(1 1) rotate(0) translate(4 89.75)">
<title>conversions/infix_to_postfix2.c</title>
<!-- Node1 -->
<g id="Node000001" class="node">
<title>Node1</title>
<g id="a_Node000001"><a xlink:title="Infix to Postfix converter implementation">
<polygon fill="#999999" stroke="#666666" points="238.12,-85.75 135.12,-85.75 135.12,-55.25 238.12,-55.25 238.12,-85.75"/>
<text text-anchor="start" x="143.12" y="-72.25" font-family="Helvetica,sans-Serif" font-size="10.00">conversions/infix_to</text>
<text text-anchor="middle" x="186.62" y="-61" font-family="Helvetica,sans-Serif" font-size="10.00">_postfix2.c</text>
</a>
</g>
</g>
<!-- Node2 -->
<g id="Node000002" class="node">
<title>Node2</title>
<g id="a_Node000002"><a xlink:title=" ">
<polygon fill="#e0e0e0" stroke="#999999" points="45.25,-19.25 0,-19.25 0,0 45.25,0 45.25,-19.25"/>
<text text-anchor="middle" x="22.62" y="-5.75" font-family="Helvetica,sans-Serif" font-size="10.00">stdio.h</text>
</a>
</g>
</g>
<!-- Node1&#45;&gt;Node2 -->
<g id="edge1_Node000001_Node000002" class="edge">
<title>Node1&#45;&gt;Node2</title>
<g id="a_edge1_Node000001_Node000002"><a xlink:title=" ">
<path fill="none" stroke="#63b8ff" d="M145.66,-54.8C117.81,-44.8 81.45,-31.74 55.5,-22.43"/>
<polygon fill="#63b8ff" stroke="#63b8ff" points="57,-18.89 46.41,-18.8 54.64,-25.48 57,-18.89"/>
</a>
</g>
</g>
<!-- Node3 -->
<g id="Node000003" class="node">
<title>Node3</title>
<g id="a_Node000003"><a xlink:title=" ">
<polygon fill="#e0e0e0" stroke="#999999" points="111.75,-19.25 63.5,-19.25 63.5,0 111.75,0 111.75,-19.25"/>
<text text-anchor="middle" x="87.62" y="-5.75" font-family="Helvetica,sans-Serif" font-size="10.00">string.h</text>
</a>
</g>
</g>
<!-- Node1&#45;&gt;Node3 -->
<g id="edge2_Node000001_Node000003" class="edge">
<title>Node1&#45;&gt;Node3</title>
<g id="a_edge2_Node000001_Node000003"><a xlink:title=" ">
<path fill="none" stroke="#63b8ff" d="M161.9,-54.8C146.68,-45.74 127.24,-34.19 112.07,-25.16"/>
<polygon fill="#63b8ff" stroke="#63b8ff" points="114.19,-21.76 103.81,-19.65 110.61,-27.77 114.19,-21.76"/>
</a>
</g>
</g>
<!-- Node4 -->
<g id="Node000004" class="node">
<title>Node4</title>
<g id="a_Node000004"><a xlink:title=" ">
<polygon fill="#e0e0e0" stroke="#999999" points="177.75,-19.25 129.5,-19.25 129.5,0 177.75,0 177.75,-19.25"/>
<text text-anchor="middle" x="153.62" y="-5.75" font-family="Helvetica,sans-Serif" font-size="10.00">ctype.h</text>
</a>
</g>
</g>
<!-- Node1&#45;&gt;Node4 -->
<g id="edge3_Node000001_Node000004" class="edge">
<title>Node1&#45;&gt;Node4</title>
<g id="a_edge3_Node000001_Node000004"><a xlink:title=" ">
<path fill="none" stroke="#63b8ff" d="M178.47,-54.95C174.12,-47.19 168.72,-37.56 164.07,-29.26"/>
<polygon fill="#63b8ff" stroke="#63b8ff" points="166.65,-27.71 158.71,-20.7 160.55,-31.14 166.65,-27.71"/>
</a>
</g>
</g>
<!-- Node5 -->
<g id="Node000005" class="node">
<title>Node5</title>
<g id="a_Node000005"><a xlink:title=" ">
<polygon fill="#e0e0e0" stroke="#999999" points="243.38,-19.25 195.88,-19.25 195.88,0 243.38,0 243.38,-19.25"/>
<text text-anchor="middle" x="219.62" y="-5.75" font-family="Helvetica,sans-Serif" font-size="10.00">stdlib.h</text>
</a>
</g>
</g>
<!-- Node1&#45;&gt;Node5 -->
<g id="edge4_Node000001_Node000005" class="edge">
<title>Node1&#45;&gt;Node5</title>
<g id="a_edge4_Node000001_Node000005"><a xlink:title=" ">
<path fill="none" stroke="#63b8ff" d="M194.78,-54.95C199.13,-47.19 204.53,-37.56 209.18,-29.26"/>
<polygon fill="#63b8ff" stroke="#63b8ff" points="212.7,-31.14 214.54,-20.7 206.6,-27.71 212.7,-31.14"/>
</a>
</g>
</g>
<!-- Node6 -->
<g id="Node000006" class="node">
<title>Node6</title>
<g id="a_Node000006"><a xlink:title=" ">
<polygon fill="#e0e0e0" stroke="#999999" points="309.75,-19.25 261.5,-19.25 261.5,0 309.75,0 309.75,-19.25"/>
<text text-anchor="middle" x="285.62" y="-5.75" font-family="Helvetica,sans-Serif" font-size="10.00">stdint.h</text>
</a>
</g>
</g>
<!-- Node1&#45;&gt;Node6 -->
<g id="edge5_Node000001_Node000006" class="edge">
<title>Node1&#45;&gt;Node6</title>
<g id="a_edge5_Node000001_Node000006"><a xlink:title=" ">
<path fill="none" stroke="#63b8ff" d="M211.35,-54.8C226.57,-45.74 246.01,-34.19 261.18,-25.16"/>
<polygon fill="#63b8ff" stroke="#63b8ff" points="262.64,-27.77 269.44,-19.65 259.06,-21.76 262.64,-27.77"/>
</a>
</g>
</g>
<!-- Node7 -->
<g id="Node000007" class="node">
<title>Node7</title>
<g id="a_Node000007"><a xlink:title=" ">
<polygon fill="#e0e0e0" stroke="#999999" points="379.25,-19.25 328,-19.25 328,0 379.25,0 379.25,-19.25"/>
<text text-anchor="middle" x="353.62" y="-5.75" font-family="Helvetica,sans-Serif" font-size="10.00">assert.h</text>
</a>
</g>
</g>
<!-- Node1&#45;&gt;Node7 -->
<g id="edge6_Node000001_Node000007" class="edge">
<title>Node1&#45;&gt;Node7</title>
<g id="a_edge6_Node000001_Node000007"><a xlink:title=" ">
<path fill="none" stroke="#63b8ff" d="M228.34,-54.8C255.85,-45.1 291.51,-32.52 317.75,-23.27"/>
<polygon fill="#63b8ff" stroke="#63b8ff" points="318.75,-26.28 327.01,-19.65 316.42,-19.68 318.75,-26.28"/>
</a>
</g>
</g>
</g>
</svg>
