<?xml version="1.0" encoding="UTF-8" standalone="no"?>
<!DOCTYPE svg PUBLIC "-//W3C//DTD SVG 1.1//EN"
 "http://www.w3.org/Graphics/SVG/1.1/DTD/svg11.dtd">
<!-- Generated by graphviz version 2.49.3 (20211023.0002)
 -->
<!-- Title: test Pages: 1 -->
<svg width="218pt" height="46pt"
 viewBox="0.00 0.00 218.00 46.00" xmlns="http://www.w3.org/2000/svg" xmlns:xlink="http://www.w3.org/1999/xlink">
<g id="graph0" class="graph" transform="scale(1 1) rotate(0) translate(4 42)">
<title>test</title>
<polygon fill="white" stroke="transparent" points="-4,4 -4,-42 214,-42 214,4 -4,4"/>
<!-- Node1 -->
<g id="node1" class="node">
<title>Node1</title>
<g id="a_node1"><a xlink:title="Test function.">
<polygon fill="#bfbfbf" stroke="black" points="0,-0.5 0,-19.5 33,-19.5 33,-0.5 0,-0.5"/>
<text text-anchor="middle" x="16.5" y="-7.5" font-family="Helvetica,sans-Serif" font-size="10.00">test</text>
</a>
</g>
</g>
<!-- Node2 -->
<g id="node2" class="node">
<title>Node2</title>
<g id="a_node2"><a xlink:href="../../d5/d38/bubble__sort__recursion_8c.html#aa8989f6c9bfd1f040854fa18b180114f" target="_top" xlink:title="Bubble sort algorithm implements using recursion.">
<polygon fill="white" stroke="black" points="69,-0.5 69,-19.5 134,-19.5 134,-0.5 69,-0.5"/>
<text text-anchor="middle" x="101.5" y="-7.5" font-family="Helvetica,sans-Serif" font-size="10.00">bubbleSort</text>
</a>
</g>
</g>
<!-- Node1&#45;&gt;Node2 -->
<g id="edge1" class="edge">
<title>Node1&#45;&gt;Node2</title>
<path fill="none" stroke="midnightblue" d="M33.11,-10C40.41,-10 49.49,-10 58.6,-10"/>
<polygon fill="midnightblue" stroke="midnightblue" points="58.8,-13.5 68.8,-10 58.8,-6.5 58.8,-13.5"/>
</g>
<!-- Node2&#45;&gt;Node2 -->
<g id="edge2" class="edge">
<title>Node2&#45;&gt;Node2</title>
<path fill="none" stroke="midnightblue" d="M88.55,-19.76C82.25,-28.57 86.57,-38 101.5,-38 110.6,-38 115.75,-34.5 116.97,-29.77"/>
<polygon fill="midnightblue" stroke="midnightblue" points="120.28,-28.6 114.45,-19.76 113.5,-30.31 120.28,-28.6"/>
</g>
<!-- Node3 -->
<g id="node3" class="node">
<title>Node3</title>
<g id="a_node3"><a xlink:href="../../d5/d38/bubble__sort__recursion_8c.html#ad126fa7239be97373c96861adc70b1d3" target="_top" xlink:title="Swapped two numbers using pointer.">
<polygon fill="white" stroke="black" points="170,-0.5 170,-19.5 210,-19.5 210,-0.5 170,-0.5"/>
<text text-anchor="middle" x="190" y="-7.5" font-family="Helvetica,sans-Serif" font-size="10.00">swap</text>
</a>
</g>
</g>
<!-- Node2&#45;&gt;Node3 -->
<g id="edge3" class="edge">
<title>Node2&#45;&gt;Node3</title>
<path fill="none" stroke="midnightblue" d="M134.22,-10C142.53,-10 151.46,-10 159.65,-10"/>
<polygon fill="midnightblue" stroke="midnightblue" points="159.86,-13.5 169.86,-10 159.86,-6.5 159.86,-13.5"/>
</g>
</g>
</svg>
