<?xml version="1.0" encoding="UTF-8" standalone="no"?>
<!DOCTYPE svg PUBLIC "-//W3C//DTD SVG 1.1//EN"
 "http://www.w3.org/Graphics/SVG/1.1/DTD/svg11.dtd">
<!-- Generated by graphviz version 3.0.0 (20220226.1711)
 -->
<!-- Title: bubbleSort Pages: 1 -->
<svg width="147pt" height="46pt"
 viewBox="0.00 0.00 147.00 46.00" xmlns="http://www.w3.org/2000/svg" xmlns:xlink="http://www.w3.org/1999/xlink">
<g id="graph0" class="graph" transform="scale(1 1) rotate(0) translate(4 42)">
<title>bubbleSort</title>
<polygon fill="white" stroke="transparent" points="-4,4 -4,-42 143,-42 143,4 -4,4"/>
<!-- Node1 -->
<g id="node1" class="node">
<title>Node1</title>
<g id="a_node1"><a xlink:title="Bubble sort algorithm implements using recursion.">
<polygon fill="#bfbfbf" stroke="black" points="0,-0.5 0,-19.5 63,-19.5 63,-0.5 0,-0.5"/>
<text text-anchor="middle" x="31.5" y="-7.5" font-family="Helvetica,sans-Serif" font-size="10.00">bubbleSort</text>
</a>
</g>
</g>
<!-- Node1&#45;&gt;Node1 -->
<g id="edge1" class="edge">
<title>Node1&#45;&gt;Node1</title>
<path fill="none" stroke="midnightblue" d="M18.24,-19.76C11.8,-28.57 16.21,-38 31.5,-38 41.05,-38 46.36,-34.31 47.43,-29.4"/>
<polygon fill="midnightblue" stroke="midnightblue" points="50.8,-28.46 44.76,-19.76 44.05,-30.33 50.8,-28.46"/>
</g>
<!-- Node2 -->
<g id="node2" class="node">
<title>Node2</title>
<g id="a_node2"><a xlink:href="../../d5/d38/bubble__sort__recursion_8c.html#ad126fa7239be97373c96861adc70b1d3" target="_top" xlink:title="Swapped two numbers using pointer.">
<polygon fill="white" stroke="black" points="99,-0.5 99,-19.5 139,-19.5 139,-0.5 99,-0.5"/>
<text text-anchor="middle" x="119" y="-7.5" font-family="Helvetica,sans-Serif" font-size="10.00">swap</text>
</a>
</g>
</g>
<!-- Node1&#45;&gt;Node2 -->
<g id="edge2" class="edge">
<title>Node1&#45;&gt;Node2</title>
<path fill="none" stroke="midnightblue" d="M63.37,-10C71.62,-10 80.5,-10 88.67,-10"/>
<polygon fill="midnightblue" stroke="midnightblue" points="88.87,-13.5 98.87,-10 88.87,-6.5 88.87,-13.5"/>
</g>
</g>
</svg>
