<?xml version="1.0" encoding="UTF-8" standalone="no"?>
<!DOCTYPE svg PUBLIC "-//W3C//DTD SVG 1.1//EN"
 "http://www.w3.org/Graphics/SVG/1.1/DTD/svg11.dtd">
<!-- Generated by graphviz version 2.49.3 (20211023.0002)
 -->
<!-- Title: bubbleSort Pages: 1 -->
<svg width="149pt" height="46pt"
 viewBox="0.00 0.00 149.00 46.00" xmlns="http://www.w3.org/2000/svg" xmlns:xlink="http://www.w3.org/1999/xlink">
<g id="graph0" class="graph" transform="scale(1 1) rotate(0) translate(4 42)">
<title>bubbleSort</title>
<polygon fill="white" stroke="transparent" points="-4,4 -4,-42 145,-42 145,4 -4,4"/>
<!-- Node1 -->
<g id="node1" class="node">
<title>Node1</title>
<g id="a_node1"><a xlink:title="Bubble sort algorithm implements using recursion.">
<polygon fill="#bfbfbf" stroke="black" points="0,-0.5 0,-19.5 65,-19.5 65,-0.5 0,-0.5"/>
<text text-anchor="middle" x="32.5" y="-7.5" font-family="Helvetica,sans-Serif" font-size="10.00">bubbleSort</text>
</a>
</g>
</g>
<!-- Node1&#45;&gt;Node1 -->
<g id="edge1" class="edge">
<title>Node1&#45;&gt;Node1</title>
<path fill="none" stroke="midnightblue" d="M18.94,-19.76C12.34,-28.57 16.86,-38 32.5,-38 42.28,-38 47.71,-34.31 48.8,-29.4"/>
<polygon fill="midnightblue" stroke="midnightblue" points="52.16,-28.42 46.06,-19.76 45.42,-30.33 52.16,-28.42"/>
</g>
<!-- Node2 -->
<g id="node2" class="node">
<title>Node2</title>
<g id="a_node2"><a xlink:href="../../d5/d38/bubble__sort__recursion_8c.html#ad126fa7239be97373c96861adc70b1d3" target="_top" xlink:title="Swapped two numbers using pointer.">
<polygon fill="white" stroke="black" points="101,-0.5 101,-19.5 141,-19.5 141,-0.5 101,-0.5"/>
<text text-anchor="middle" x="121" y="-7.5" font-family="Helvetica,sans-Serif" font-size="10.00">swap</text>
</a>
</g>
</g>
<!-- Node1&#45;&gt;Node2 -->
<g id="edge2" class="edge">
<title>Node1&#45;&gt;Node2</title>
<path fill="none" stroke="midnightblue" d="M65.22,-10C73.53,-10 82.46,-10 90.65,-10"/>
<polygon fill="midnightblue" stroke="midnightblue" points="90.86,-13.5 100.86,-10 90.86,-6.5 90.86,-13.5"/>
</g>
</g>
</svg>
