<?xml version="1.0" encoding="UTF-8" standalone="no"?>
<!DOCTYPE svg PUBLIC "-//W3C//DTD SVG 1.1//EN"
 "http://www.w3.org/Graphics/SVG/1.1/DTD/svg11.dtd">
<!-- Generated by graphviz version 5.0.1 (20220820.1526)
 -->
<!-- Title: main Pages: 1 -->
<svg width="214pt" height="45pt"
 viewBox="0.00 0.00 214.00 45.00" xmlns="http://www.w3.org/2000/svg" xmlns:xlink="http://www.w3.org/1999/xlink">
<g id="graph0" class="graph" transform="scale(1 1) rotate(0) translate(4 41)">
<title>main</title>
<!-- Node1 -->
<g id="node1" class="node">
<title>Node1</title>
<g id="a_node1"><a xlink:title="Driver Code.">
<polygon fill="#999999" stroke="#666666" points="38,-19 0,-19 0,0 38,0 38,-19"/>
<text text-anchor="middle" x="19" y="-7" font-family="Helvetica,sans-Serif" font-size="10.00">main</text>
</a>
</g>
</g>
<!-- Node2 -->
<g id="node2" class="node">
<title>Node2</title>
<g id="a_node2"><a xlink:href="../../d5/d38/bubble__sort__recursion_8c.html#ae1a3968e7947464bee7714f6d43b7002" target="_top" xlink:title="Test function.">
<polygon fill="white" stroke="#666666" points="107,-19 74,-19 74,0 107,0 107,-19"/>
<text text-anchor="middle" x="90.5" y="-7" font-family="Helvetica,sans-Serif" font-size="10.00">test</text>
</a>
</g>
</g>
<!-- Node1&#45;&gt;Node2 -->
<g id="edge1" class="edge">
<title>Node1&#45;&gt;Node2</title>
<path fill="none" stroke="#63b8ff" d="M38.26,-9.5C46.07,-9.5 55.31,-9.5 63.79,-9.5"/>
<polygon fill="#63b8ff" stroke="#63b8ff" points="63.95,-13 73.95,-9.5 63.95,-6 63.95,-13"/>
</g>
<!-- Node3 -->
<g id="node3" class="node">
<title>Node3</title>
<g id="a_node3"><a xlink:href="../../d5/d38/bubble__sort__recursion_8c.html#aa8989f6c9bfd1f040854fa18b180114f" target="_top" xlink:title="Bubble sort algorithm implements using recursion.">
<polygon fill="white" stroke="#666666" points="206,-19 143,-19 143,0 206,0 206,-19"/>
<text text-anchor="middle" x="174.5" y="-7" font-family="Helvetica,sans-Serif" font-size="10.00">bubbleSort</text>
</a>
</g>
</g>
<!-- Node2&#45;&gt;Node3 -->
<g id="edge2" class="edge">
<title>Node2&#45;&gt;Node3</title>
<path fill="none" stroke="#63b8ff" d="M107.31,-9.5C114.61,-9.5 123.66,-9.5 132.69,-9.5"/>
<polygon fill="#63b8ff" stroke="#63b8ff" points="132.79,-13 142.79,-9.5 132.79,-6 132.79,-13"/>
</g>
<!-- Node3&#45;&gt;Node3 -->
<g id="edge3" class="edge">
<title>Node3&#45;&gt;Node3</title>
<path fill="none" stroke="#63b8ff" d="M161.55,-19.08C155.25,-27.73 159.57,-37 174.5,-37 183.6,-37 188.75,-33.56 189.97,-28.91"/>
<polygon fill="#63b8ff" stroke="#63b8ff" points="193.32,-27.9 187.45,-19.08 186.54,-29.64 193.32,-27.9"/>
</g>
</g>
</svg>
