<?xml version="1.0" encoding="UTF-8" standalone="no"?>
<!DOCTYPE svg PUBLIC "-//W3C//DTD SVG 1.1//EN"
 "http://www.w3.org/Graphics/SVG/1.1/DTD/svg11.dtd">
<!-- Generated by graphviz version 8.0.2 (20230410.1723)
 -->
<!-- Title: test Pages: 1 -->
<svg width="140pt" height="45pt"
 viewBox="0.00 0.00 140.00 45.00" xmlns="http://www.w3.org/2000/svg" xmlns:xlink="http://www.w3.org/1999/xlink">
<g id="graph0" class="graph" transform="scale(1 1) rotate(0) translate(4 41)">
<title>test</title>
<!-- Node1 -->
<g id="node1" class="node">
<title>Node1</title>
<g id="a_node1"><a xlink:title="Test function.">
<polygon fill="#999999" stroke="#666666" points="33,-19 0,-19 0,0 33,0 33,-19"/>
<text text-anchor="middle" x="16.5" y="-7" font-family="Helvetica,sans-Serif" font-size="10.00">test</text>
</a>
</g>
</g>
<!-- Node2 -->
<g id="node2" class="node">
<title>Node2</title>
<g id="a_node2"><a xlink:href="../../d5/d38/bubble__sort__recursion_8c.html#aa8989f6c9bfd1f040854fa18b180114f" target="_top" xlink:title="Bubble sort algorithm implements using recursion.">
<polygon fill="white" stroke="#666666" points="132,-19 69,-19 69,0 132,0 132,-19"/>
<text text-anchor="middle" x="100.5" y="-7" font-family="Helvetica,sans-Serif" font-size="10.00">bubbleSort</text>
</a>
</g>
</g>
<!-- Node1&#45;&gt;Node2 -->
<g id="edge1" class="edge">
<title>Node1&#45;&gt;Node2</title>
<path fill="none" stroke="#63b8ff" d="M33.31,-9.5C40.38,-9.5 49.08,-9.5 57.82,-9.5"/>
<polygon fill="#63b8ff" stroke="#63b8ff" points="57.79,-13 67.79,-9.5 57.79,-6 57.79,-13"/>
</g>
<!-- Node2&#45;&gt;Node2 -->
<g id="edge2" class="edge">
<title>Node2&#45;&gt;Node2</title>
<path fill="none" stroke="#63b8ff" d="M87.35,-19.37C81.35,-27.94 85.73,-37 100.5,-37 108.81,-37 113.83,-34.13 115.56,-30.1"/>
<polygon fill="#63b8ff" stroke="#63b8ff" points="118.85,-29.6 113.65,-20.37 111.96,-30.83 118.85,-29.6"/>
</g>
</g>
</svg>
