<?xml version="1.0" encoding="UTF-8" standalone="no"?>
<!DOCTYPE svg PUBLIC "-//W3C//DTD SVG 1.1//EN"
 "http://www.w3.org/Graphics/SVG/1.1/DTD/svg11.dtd">
<!-- Generated by graphviz version 2.49.3 (20211023.0002)
 -->
<!-- Title: main Pages: 1 -->
<svg width="292pt" height="46pt"
 viewBox="0.00 0.00 292.00 46.00" xmlns="http://www.w3.org/2000/svg" xmlns:xlink="http://www.w3.org/1999/xlink">
<g id="graph0" class="graph" transform="scale(1 1) rotate(0) translate(4 42)">
<title>main</title>
<polygon fill="white" stroke="transparent" points="-4,4 -4,-42 288,-42 288,4 -4,4"/>
<!-- Node1 -->
<g id="node1" class="node">
<title>Node1</title>
<g id="a_node1"><a xlink:title="Driver Code.">
<polygon fill="#bfbfbf" stroke="black" points="0,-0.5 0,-19.5 38,-19.5 38,-0.5 0,-0.5"/>
<text text-anchor="middle" x="19" y="-7.5" font-family="Helvetica,sans-Serif" font-size="10.00">main</text>
</a>
</g>
</g>
<!-- Node2 -->
<g id="node2" class="node">
<title>Node2</title>
<g id="a_node2"><a xlink:href="../../d5/d38/bubble__sort__recursion_8c.html#ae1a3968e7947464bee7714f6d43b7002" target="_top" xlink:title="Test function.">
<polygon fill="white" stroke="black" points="74,-0.5 74,-19.5 107,-19.5 107,-0.5 74,-0.5"/>
<text text-anchor="middle" x="90.5" y="-7.5" font-family="Helvetica,sans-Serif" font-size="10.00">test</text>
</a>
</g>
</g>
<!-- Node1&#45;&gt;Node2 -->
<g id="edge1" class="edge">
<title>Node1&#45;&gt;Node2</title>
<path fill="none" stroke="midnightblue" d="M38.26,-10C46.07,-10 55.31,-10 63.79,-10"/>
<polygon fill="midnightblue" stroke="midnightblue" points="63.95,-13.5 73.95,-10 63.95,-6.5 63.95,-13.5"/>
</g>
<!-- Node3 -->
<g id="node3" class="node">
<title>Node3</title>
<g id="a_node3"><a xlink:href="../../d5/d38/bubble__sort__recursion_8c.html#aa8989f6c9bfd1f040854fa18b180114f" target="_top" xlink:title="Bubble sort algorithm implements using recursion.">
<polygon fill="white" stroke="black" points="143,-0.5 143,-19.5 208,-19.5 208,-0.5 143,-0.5"/>
<text text-anchor="middle" x="175.5" y="-7.5" font-family="Helvetica,sans-Serif" font-size="10.00">bubbleSort</text>
</a>
</g>
</g>
<!-- Node2&#45;&gt;Node3 -->
<g id="edge2" class="edge">
<title>Node2&#45;&gt;Node3</title>
<path fill="none" stroke="midnightblue" d="M107.11,-10C114.41,-10 123.49,-10 132.6,-10"/>
<polygon fill="midnightblue" stroke="midnightblue" points="132.8,-13.5 142.8,-10 132.8,-6.5 132.8,-13.5"/>
</g>
<!-- Node3&#45;&gt;Node3 -->
<g id="edge3" class="edge">
<title>Node3&#45;&gt;Node3</title>
<path fill="none" stroke="midnightblue" d="M162.55,-19.76C156.25,-28.57 160.57,-38 175.5,-38 184.6,-38 189.75,-34.5 190.97,-29.77"/>
<polygon fill="midnightblue" stroke="midnightblue" points="194.28,-28.6 188.45,-19.76 187.5,-30.31 194.28,-28.6"/>
</g>
<!-- Node4 -->
<g id="node4" class="node">
<title>Node4</title>
<g id="a_node4"><a xlink:href="../../d5/d38/bubble__sort__recursion_8c.html#ad126fa7239be97373c96861adc70b1d3" target="_top" xlink:title="Swapped two numbers using pointer.">
<polygon fill="white" stroke="black" points="244,-0.5 244,-19.5 284,-19.5 284,-0.5 244,-0.5"/>
<text text-anchor="middle" x="264" y="-7.5" font-family="Helvetica,sans-Serif" font-size="10.00">swap</text>
</a>
</g>
</g>
<!-- Node3&#45;&gt;Node4 -->
<g id="edge4" class="edge">
<title>Node3&#45;&gt;Node4</title>
<path fill="none" stroke="midnightblue" d="M208.22,-10C216.53,-10 225.46,-10 233.65,-10"/>
<polygon fill="midnightblue" stroke="midnightblue" points="233.86,-13.5 243.86,-10 233.86,-6.5 233.86,-13.5"/>
</g>
</g>
</svg>
