<?xml version="1.0" encoding="UTF-8" standalone="no"?>
<!DOCTYPE svg PUBLIC "-//W3C//DTD SVG 1.1//EN"
 "http://www.w3.org/Graphics/SVG/1.1/DTD/svg11.dtd">
<!-- Generated by graphviz version 9.0.0 (20230911.1827)
 -->
<!-- Title: leetcode/src/6.c Pages: 1 -->
<svg width="321pt" height="83pt"
 viewBox="0.00 0.00 320.75 82.50" xmlns="http://www.w3.org/2000/svg" xmlns:xlink="http://www.w3.org/1999/xlink">
<g id="graph0" class="graph" transform="scale(1 1) rotate(0) translate(4 78.5)">
<title>leetcode/src/6.c</title>
<!-- Node1 -->
<g id="Node000001" class="node">
<title>Node1</title>
<g id="a_Node000001"><a xlink:title="Implementation of the ZigZag Conversion Leetcode problem.">
<polygon fill="#999999" stroke="#666666" points="201.5,-74.5 115.75,-74.5 115.75,-55.25 201.5,-55.25 201.5,-74.5"/>
<text text-anchor="middle" x="158.62" y="-61" font-family="Helvetica,sans-Serif" font-size="10.00">leetcode/src/6.c</text>
</a>
</g>
</g>
<!-- Node2 -->
<g id="Node000002" class="node">
<title>Node2</title>
<g id="a_Node000002"><a xlink:title=" ">
<polygon fill="#e0e0e0" stroke="#999999" points="51.25,-19.25 0,-19.25 0,0 51.25,0 51.25,-19.25"/>
<text text-anchor="middle" x="25.62" y="-5.75" font-family="Helvetica,sans-Serif" font-size="10.00">assert.h</text>
</a>
</g>
</g>
<!-- Node1&#45;&gt;Node2 -->
<g id="edge1_Node000001_Node000002" class="edge">
<title>Node1&#45;&gt;Node2</title>
<g id="a_edge1_Node000001_Node000002"><a xlink:title=" ">
<path fill="none" stroke="#63b8ff" d="M136.06,-54.84C114.85,-46.35 82.85,-33.54 58.75,-23.89"/>
<polygon fill="#63b8ff" stroke="#63b8ff" points="60.29,-20.73 49.7,-20.27 57.69,-27.23 60.29,-20.73"/>
</a>
</g>
</g>
<!-- Node3 -->
<g id="Node000003" class="node">
<title>Node3</title>
<g id="a_Node000003"><a xlink:title=" ">
<polygon fill="#e0e0e0" stroke="#999999" points="117.75,-19.25 69.5,-19.25 69.5,0 117.75,0 117.75,-19.25"/>
<text text-anchor="middle" x="93.62" y="-5.75" font-family="Helvetica,sans-Serif" font-size="10.00">stdint.h</text>
</a>
</g>
</g>
<!-- Node1&#45;&gt;Node3 -->
<g id="edge2_Node000001_Node000003" class="edge">
<title>Node1&#45;&gt;Node3</title>
<g id="a_edge2_Node000001_Node000003"><a xlink:title=" ">
<path fill="none" stroke="#63b8ff" d="M147.6,-54.84C138.2,-47.15 124.48,-35.9 113.22,-26.68"/>
<polygon fill="#63b8ff" stroke="#63b8ff" points="115.61,-24.11 105.66,-20.48 111.18,-29.53 115.61,-24.11"/>
</a>
</g>
</g>
<!-- Node4 -->
<g id="Node000004" class="node">
<title>Node4</title>
<g id="a_Node000004"><a xlink:title=" ">
<polygon fill="#e0e0e0" stroke="#999999" points="181.25,-19.25 136,-19.25 136,0 181.25,0 181.25,-19.25"/>
<text text-anchor="middle" x="158.62" y="-5.75" font-family="Helvetica,sans-Serif" font-size="10.00">stdio.h</text>
</a>
</g>
</g>
<!-- Node1&#45;&gt;Node4 -->
<g id="edge3_Node000001_Node000004" class="edge">
<title>Node1&#45;&gt;Node4</title>
<g id="a_edge3_Node000001_Node000004"><a xlink:title=" ">
<path fill="none" stroke="#63b8ff" d="M158.62,-55.08C158.62,-48.57 158.62,-39.42 158.62,-31.12"/>
<polygon fill="#63b8ff" stroke="#63b8ff" points="162.13,-31.12 158.63,-21.12 155.13,-31.12 162.13,-31.12"/>
</a>
</g>
</g>
<!-- Node5 -->
<g id="Node000005" class="node">
<title>Node5</title>
<g id="a_Node000005"><a xlink:title=" ">
<polygon fill="#e0e0e0" stroke="#999999" points="246.38,-19.25 198.88,-19.25 198.88,0 246.38,0 246.38,-19.25"/>
<text text-anchor="middle" x="222.62" y="-5.75" font-family="Helvetica,sans-Serif" font-size="10.00">stdlib.h</text>
</a>
</g>
</g>
<!-- Node1&#45;&gt;Node5 -->
<g id="edge4_Node000001_Node000005" class="edge">
<title>Node1&#45;&gt;Node5</title>
<g id="a_edge4_Node000001_Node000005"><a xlink:title=" ">
<path fill="none" stroke="#63b8ff" d="M169.48,-54.84C178.73,-47.15 192.25,-35.9 203.33,-26.68"/>
<polygon fill="#63b8ff" stroke="#63b8ff" points="205.32,-29.58 210.77,-20.49 200.84,-24.2 205.32,-29.58"/>
</a>
</g>
</g>
<!-- Node6 -->
<g id="Node000006" class="node">
<title>Node6</title>
<g id="a_Node000006"><a xlink:title=" ">
<polygon fill="#e0e0e0" stroke="#999999" points="312.75,-19.25 264.5,-19.25 264.5,0 312.75,0 312.75,-19.25"/>
<text text-anchor="middle" x="288.62" y="-5.75" font-family="Helvetica,sans-Serif" font-size="10.00">string.h</text>
</a>
</g>
</g>
<!-- Node1&#45;&gt;Node6 -->
<g id="edge5_Node000001_Node000006" class="edge">
<title>Node1&#45;&gt;Node6</title>
<g id="a_edge5_Node000001_Node000006"><a xlink:title=" ">
<path fill="none" stroke="#63b8ff" d="M180.68,-54.84C201.31,-46.39 232.41,-33.65 255.93,-24.02"/>
<polygon fill="#63b8ff" stroke="#63b8ff" points="257.14,-27.31 265.06,-20.28 254.48,-20.83 257.14,-27.31"/>
</a>
</g>
</g>
</g>
</svg>
