<?xml version="1.0" encoding="UTF-8" standalone="no"?>
<!DOCTYPE svg PUBLIC "-//W3C//DTD SVG 1.1//EN"
 "http://www.w3.org/Graphics/SVG/1.1/DTD/svg11.dtd">
<!-- Generated by graphviz version 7.0.6 (20230106.0513)
 -->
<!-- Title: leetcode/src/6.c Pages: 1 -->
<svg width="326pt" height="82pt"
 viewBox="0.00 0.00 325.50 82.00" xmlns="http://www.w3.org/2000/svg" xmlns:xlink="http://www.w3.org/1999/xlink">
<g id="graph0" class="graph" transform="scale(1 1) rotate(0) translate(4 78)">
<title>leetcode/src/6.c</title>
<!-- Node1 -->
<g id="node1" class="node">
<title>Node1</title>
<g id="a_node1"><a xlink:title="Implementation of the ZigZag Conversion Leetcode problem.">
<polygon fill="#999999" stroke="#666666" points="204,-74 118,-74 118,-55 204,-55 204,-74"/>
<text text-anchor="middle" x="161" y="-62" font-family="Helvetica,sans-Serif" font-size="10.00">leetcode/src/6.c</text>
</a>
</g>
</g>
<!-- Node2 -->
<g id="node2" class="node">
<title>Node2</title>
<g id="a_node2"><a xlink:title=" ">
<polygon fill="#e0e0e0" stroke="#999999" points="52,-19 0,-19 0,0 52,0 52,-19"/>
<text text-anchor="middle" x="26" y="-7" font-family="Helvetica,sans-Serif" font-size="10.00">assert.h</text>
</a>
</g>
</g>
<!-- Node1&#45;&gt;Node2 -->
<g id="edge1" class="edge">
<title>Node1&#45;&gt;Node2</title>
<path fill="none" stroke="#63b8ff" d="M138.1,-54.51C116.44,-46.01 83.69,-33.15 59.18,-23.53"/>
<polygon fill="#63b8ff" stroke="#63b8ff" points="60.56,-20.31 49.97,-19.91 58,-26.82 60.56,-20.31"/>
</g>
<!-- Node3 -->
<g id="node3" class="node">
<title>Node3</title>
<g id="a_node3"><a xlink:title=" ">
<polygon fill="#e0e0e0" stroke="#999999" points="119.5,-19 70.5,-19 70.5,0 119.5,0 119.5,-19"/>
<text text-anchor="middle" x="95" y="-7" font-family="Helvetica,sans-Serif" font-size="10.00">stdint.h</text>
</a>
</g>
</g>
<!-- Node1&#45;&gt;Node3 -->
<g id="edge2" class="edge">
<title>Node1&#45;&gt;Node3</title>
<path fill="none" stroke="#63b8ff" d="M149.8,-54.51C140.26,-46.85 126.33,-35.66 114.89,-26.47"/>
<polygon fill="#63b8ff" stroke="#63b8ff" points="117.2,-23.84 107.21,-20.31 112.82,-29.3 117.2,-23.84"/>
</g>
<!-- Node4 -->
<g id="node4" class="node">
<title>Node4</title>
<g id="a_node4"><a xlink:title=" ">
<polygon fill="#e0e0e0" stroke="#999999" points="184,-19 138,-19 138,0 184,0 184,-19"/>
<text text-anchor="middle" x="161" y="-7" font-family="Helvetica,sans-Serif" font-size="10.00">stdio.h</text>
</a>
</g>
</g>
<!-- Node1&#45;&gt;Node4 -->
<g id="edge3" class="edge">
<title>Node1&#45;&gt;Node4</title>
<path fill="none" stroke="#63b8ff" d="M161,-54.75C161,-48.27 161,-39.16 161,-30.9"/>
<polygon fill="#63b8ff" stroke="#63b8ff" points="164.5,-30.96 161,-20.96 157.5,-30.96 164.5,-30.96"/>
</g>
<!-- Node5 -->
<g id="node5" class="node">
<title>Node5</title>
<g id="a_node5"><a xlink:title=" ">
<polygon fill="#e0e0e0" stroke="#999999" points="250,-19 202,-19 202,0 250,0 250,-19"/>
<text text-anchor="middle" x="226" y="-7" font-family="Helvetica,sans-Serif" font-size="10.00">stdlib.h</text>
</a>
</g>
</g>
<!-- Node1&#45;&gt;Node5 -->
<g id="edge4" class="edge">
<title>Node1&#45;&gt;Node5</title>
<path fill="none" stroke="#63b8ff" d="M172.03,-54.51C181.42,-46.85 195.15,-35.66 206.41,-26.47"/>
<polygon fill="#63b8ff" stroke="#63b8ff" points="208.43,-29.35 213.96,-20.31 204,-23.92 208.43,-29.35"/>
</g>
<!-- Node6 -->
<g id="node6" class="node">
<title>Node6</title>
<g id="a_node6"><a xlink:title=" ">
<polygon fill="#e0e0e0" stroke="#999999" points="317.5,-19 268.5,-19 268.5,0 317.5,0 317.5,-19"/>
<text text-anchor="middle" x="293" y="-7" font-family="Helvetica,sans-Serif" font-size="10.00">string.h</text>
</a>
</g>
</g>
<!-- Node1&#45;&gt;Node6 -->
<g id="edge5" class="edge">
<title>Node1&#45;&gt;Node6</title>
<path fill="none" stroke="#63b8ff" d="M183.39,-54.51C204.57,-46.01 236.59,-33.15 260.56,-23.53"/>
<polygon fill="#63b8ff" stroke="#63b8ff" points="261.56,-26.9 269.53,-19.92 258.95,-20.4 261.56,-26.9"/>
</g>
</g>
</svg>
