<?xml version="1.0" encoding="UTF-8" standalone="no"?>
<!DOCTYPE svg PUBLIC "-//W3C//DTD SVG 1.1//EN"
 "http://www.w3.org/Graphics/SVG/1.1/DTD/svg11.dtd">
<!-- Generated by graphviz version 8.0.4 (20230421.1958)
 -->
<!-- Title: data_structures/binary_trees/segment_tree.c Pages: 1 -->
<svg width="331pt" height="94pt"
 viewBox="0.00 0.00 330.75 93.75" xmlns="http://www.w3.org/2000/svg" xmlns:xlink="http://www.w3.org/1999/xlink">
<g id="graph0" class="graph" transform="scale(1 1) rotate(0) translate(4 89.75)">
<title>data_structures/binary_trees/segment_tree.c</title>
<!-- Node1 -->
<g id="node1" class="node">
<title>Node1</title>
<g id="a_node1"><a xlink:title="segment trees with only point updates">
<polygon fill="#999999" stroke="#666666" points="225.38,-85.75 111.88,-85.75 111.88,-55.25 225.38,-55.25 225.38,-85.75"/>
<text text-anchor="start" x="119.88" y="-72.25" font-family="Helvetica,sans-Serif" font-size="10.00">data_structures/binary</text>
<text text-anchor="middle" x="168.62" y="-61" font-family="Helvetica,sans-Serif" font-size="10.00">_trees/segment_tree.c</text>
</a>
</g>
</g>
<!-- Node2 -->
<g id="node2" class="node">
<title>Node2</title>
<g id="a_node2"><a xlink:title=" ">
<polygon fill="#e0e0e0" stroke="#999999" points="51.25,-19.25 0,-19.25 0,0 51.25,0 51.25,-19.25"/>
<text text-anchor="middle" x="25.62" y="-5.75" font-family="Helvetica,sans-Serif" font-size="10.00">assert.h</text>
</a>
</g>
</g>
<!-- Node1&#45;&gt;Node2 -->
<g id="edge1" class="edge">
<title>Node1&#45;&gt;Node2</title>
<path fill="none" stroke="#63b8ff" d="M132.91,-54.8C109.77,-45.27 79.9,-32.97 57.55,-23.77"/>
<polygon fill="#63b8ff" stroke="#63b8ff" points="59.13,-20.22 48.56,-19.65 56.47,-26.7 59.13,-20.22"/>
</g>
<!-- Node3 -->
<g id="node3" class="node">
<title>Node3</title>
<g id="a_node3"><a xlink:title=" ">
<polygon fill="#e0e0e0" stroke="#999999" points="128,-19.25 69.25,-19.25 69.25,0 128,0 128,-19.25"/>
<text text-anchor="middle" x="98.62" y="-5.75" font-family="Helvetica,sans-Serif" font-size="10.00">inttypes.h</text>
</a>
</g>
</g>
<!-- Node1&#45;&gt;Node3 -->
<g id="edge2" class="edge">
<title>Node1&#45;&gt;Node3</title>
<path fill="none" stroke="#63b8ff" d="M151.32,-54.95C141.07,-46.33 128.08,-35.4 117.56,-26.55"/>
<polygon fill="#63b8ff" stroke="#63b8ff" points="120.32,-23.46 110.42,-19.7 115.82,-28.82 120.32,-23.46"/>
</g>
<!-- Node4 -->
<g id="node4" class="node">
<title>Node4</title>
<g id="a_node4"><a xlink:title=" ">
<polygon fill="#e0e0e0" stroke="#999999" points="191.25,-19.25 146,-19.25 146,0 191.25,0 191.25,-19.25"/>
<text text-anchor="middle" x="168.62" y="-5.75" font-family="Helvetica,sans-Serif" font-size="10.00">stdio.h</text>
</a>
</g>
</g>
<!-- Node1&#45;&gt;Node4 -->
<g id="edge3" class="edge">
<title>Node1&#45;&gt;Node4</title>
<path fill="none" stroke="#63b8ff" d="M168.62,-54.95C168.62,-47.62 168.62,-38.62 168.62,-30.66"/>
<polygon fill="#63b8ff" stroke="#63b8ff" points="172.13,-30.7 168.62,-20.7 165.13,-30.7 172.13,-30.7"/>
</g>
<!-- Node5 -->
<g id="node5" class="node">
<title>Node5</title>
<g id="a_node5"><a xlink:title=" ">
<polygon fill="#e0e0e0" stroke="#999999" points="256.38,-19.25 208.88,-19.25 208.88,0 256.38,0 256.38,-19.25"/>
<text text-anchor="middle" x="232.62" y="-5.75" font-family="Helvetica,sans-Serif" font-size="10.00">stdlib.h</text>
</a>
</g>
</g>
<!-- Node1&#45;&gt;Node5 -->
<g id="edge4" class="edge">
<title>Node1&#45;&gt;Node5</title>
<path fill="none" stroke="#63b8ff" d="M184.45,-54.95C193.63,-46.5 205.22,-35.83 214.74,-27.08"/>
<polygon fill="#63b8ff" stroke="#63b8ff" points="216.77,-30.05 221.76,-20.7 212.03,-24.9 216.77,-30.05"/>
</g>
<!-- Node6 -->
<g id="node6" class="node">
<title>Node6</title>
<g id="a_node6"><a xlink:title=" ">
<polygon fill="#e0e0e0" stroke="#999999" points="322.75,-19.25 274.5,-19.25 274.5,0 322.75,0 322.75,-19.25"/>
<text text-anchor="middle" x="298.62" y="-5.75" font-family="Helvetica,sans-Serif" font-size="10.00">string.h</text>
</a>
</g>
</g>
<!-- Node1&#45;&gt;Node6 -->
<g id="edge5" class="edge">
<title>Node1&#45;&gt;Node6</title>
<path fill="none" stroke="#63b8ff" d="M201.09,-54.8C221.84,-45.4 248.55,-33.3 268.77,-24.14"/>
<polygon fill="#63b8ff" stroke="#63b8ff" points="270.02,-26.97 277.69,-19.65 267.14,-20.59 270.02,-26.97"/>
</g>
</g>
</svg>
