<?xml version="1.0" encoding="UTF-8" standalone="no"?>
<!DOCTYPE svg PUBLIC "-//W3C//DTD SVG 1.1//EN"
 "http://www.w3.org/Graphics/SVG/1.1/DTD/svg11.dtd">
<!-- Generated by graphviz version 3.0.0 (20220226.1711)
 -->
<!-- Title: convert Pages: 1 -->
<svg width="175pt" height="180pt"
 viewBox="0.00 0.00 175.00 180.00" xmlns="http://www.w3.org/2000/svg" xmlns:xlink="http://www.w3.org/1999/xlink">
<g id="graph0" class="graph" transform="scale(1 1) rotate(0) translate(4 176)">
<title>convert</title>
<polygon fill="white" stroke="transparent" points="-4,4 -4,-176 171,-176 171,4 -4,4"/>
<!-- Node1 -->
<g id="node1" class="node">
<title>Node1</title>
<g id="a_node1"><a xlink:title="convert function">
<polygon fill="#bfbfbf" stroke="black" points="0,-76.5 0,-95.5 49,-95.5 49,-76.5 0,-76.5"/>
<text text-anchor="middle" x="24.5" y="-83.5" font-family="Helvetica,sans-Serif" font-size="10.00">convert</text>
</a>
</g>
</g>
<!-- Node2 -->
<g id="node2" class="node">
<title>Node2</title>
<g id="a_node2"><a xlink:href="../../db/d0c/infix__to__postfix_8c.html#ac91f38ad7885fca93e39325361a5c787" target="_top" xlink:title="getPrecedence function returns the precedence after comparing two operators passed as parameter.">
<polygon fill="white" stroke="black" points="85,-152.5 85,-171.5 167,-171.5 167,-152.5 85,-152.5"/>
<text text-anchor="middle" x="126" y="-159.5" font-family="Helvetica,sans-Serif" font-size="10.00">getPrecedence</text>
</a>
</g>
</g>
<!-- Node1&#45;&gt;Node2 -->
<g id="edge1" class="edge">
<title>Node1&#45;&gt;Node2</title>
<path fill="none" stroke="midnightblue" d="M33.97,-95.87C44.85,-108.1 64.74,-129.03 85,-143 87.37,-144.64 89.91,-146.2 92.51,-147.68"/>
<polygon fill="midnightblue" stroke="midnightblue" points="90.97,-150.83 101.46,-152.36 94.22,-144.62 90.97,-150.83"/>
</g>
<!-- Node3 -->
<g id="node3" class="node">
<title>Node3</title>
<g id="a_node3"><a xlink:href="../../db/d0c/infix__to__postfix_8c.html#afa8471c76bc57b12ad21de22beb39021" target="_top" xlink:title="isEmpty function">
<polygon fill="white" stroke="black" points="99.5,-114.5 99.5,-133.5 152.5,-133.5 152.5,-114.5 99.5,-114.5"/>
<text text-anchor="middle" x="126" y="-121.5" font-family="Helvetica,sans-Serif" font-size="10.00">isEmpty</text>
</a>
</g>
</g>
<!-- Node1&#45;&gt;Node3 -->
<g id="edge2" class="edge">
<title>Node1&#45;&gt;Node3</title>
<path fill="none" stroke="midnightblue" d="M49.08,-95.01C61.38,-99.7 76.67,-105.54 90.29,-110.74"/>
<polygon fill="midnightblue" stroke="midnightblue" points="89.26,-114.1 99.85,-114.39 91.76,-107.56 89.26,-114.1"/>
</g>
<!-- Node4 -->
<g id="node4" class="node">
<title>Node4</title>
<g id="a_node4"><a xlink:href="../../db/d0c/infix__to__postfix_8c.html#afd8245c04b202240390de23170f72d6b" target="_top" xlink:title="isOprnd function">
<polygon fill="white" stroke="black" points="101,-76.5 101,-95.5 151,-95.5 151,-76.5 101,-76.5"/>
<text text-anchor="middle" x="126" y="-83.5" font-family="Helvetica,sans-Serif" font-size="10.00">isOprnd</text>
</a>
</g>
</g>
<!-- Node1&#45;&gt;Node4 -->
<g id="edge3" class="edge">
<title>Node1&#45;&gt;Node4</title>
<path fill="none" stroke="midnightblue" d="M49.08,-86C61.54,-86 77.05,-86 90.8,-86"/>
<polygon fill="midnightblue" stroke="midnightblue" points="90.9,-89.5 100.9,-86 90.9,-82.5 90.9,-89.5"/>
</g>
<!-- Node5 -->
<g id="node5" class="node">
<title>Node5</title>
<g id="a_node5"><a xlink:href="../../db/d0c/infix__to__postfix_8c.html#a940cdcd27c40699eebb4ef113b2d9451" target="_top" xlink:title="pop function">
<polygon fill="white" stroke="black" points="110,-38.5 110,-57.5 142,-57.5 142,-38.5 110,-38.5"/>
<text text-anchor="middle" x="126" y="-45.5" font-family="Helvetica,sans-Serif" font-size="10.00">pop</text>
</a>
</g>
</g>
<!-- Node1&#45;&gt;Node5 -->
<g id="edge4" class="edge">
<title>Node1&#45;&gt;Node5</title>
<path fill="none" stroke="midnightblue" d="M49.08,-76.99C64.54,-71.09 84.72,-63.38 100.39,-57.4"/>
<polygon fill="midnightblue" stroke="midnightblue" points="101.84,-60.59 109.94,-53.75 99.34,-54.05 101.84,-60.59"/>
</g>
<!-- Node6 -->
<g id="node6" class="node">
<title>Node6</title>
<g id="a_node6"><a xlink:href="../../db/d0c/infix__to__postfix_8c.html#a613462735d30cae1b85b606ecab30554" target="_top" xlink:title="push function">
<polygon fill="white" stroke="black" points="107,-0.5 107,-19.5 145,-19.5 145,-0.5 107,-0.5"/>
<text text-anchor="middle" x="126" y="-7.5" font-family="Helvetica,sans-Serif" font-size="10.00">push</text>
</a>
</g>
</g>
<!-- Node1&#45;&gt;Node6 -->
<g id="edge5" class="edge">
<title>Node1&#45;&gt;Node6</title>
<path fill="none" stroke="midnightblue" d="M33.97,-76.13C44.85,-63.9 64.74,-42.97 85,-29 88.88,-26.33 93.19,-23.84 97.51,-21.61"/>
<polygon fill="midnightblue" stroke="midnightblue" points="99.3,-24.64 106.8,-17.16 96.27,-18.32 99.3,-24.64"/>
</g>
</g>
</svg>
