<?xml version="1.0" encoding="UTF-8" standalone="no"?>
<!DOCTYPE svg PUBLIC "-//W3C//DTD SVG 1.1//EN"
 "http://www.w3.org/Graphics/SVG/1.1/DTD/svg11.dtd">
<!-- Generated by graphviz version 8.0.2 (20230410.1723)
 -->
<!-- Title: convert Pages: 1 -->
<svg width="175pt" height="193pt"
 viewBox="0.00 0.00 175.00 193.00" xmlns="http://www.w3.org/2000/svg" xmlns:xlink="http://www.w3.org/1999/xlink">
<g id="graph0" class="graph" transform="scale(1 1) rotate(0) translate(4 189)">
<title>convert</title>
<!-- Node1 -->
<g id="node1" class="node">
<title>Node1</title>
<g id="a_node1"><a xlink:title="convert function">
<polygon fill="#999999" stroke="#666666" points="49,-111 0,-111 0,-92 49,-92 49,-111"/>
<text text-anchor="middle" x="24.5" y="-99" font-family="Helvetica,sans-Serif" font-size="10.00">convert</text>
</a>
</g>
</g>
<!-- Node2 -->
<g id="node2" class="node">
<title>Node2</title>
<g id="a_node2"><a xlink:href="../../db/d0c/infix__to__postfix_8c.html#ac91f38ad7885fca93e39325361a5c787" target="_top" xlink:title="getPrecedence function returns the precedence after comparing two operators passed as parameter.">
<polygon fill="white" stroke="#666666" points="167,-185 85,-185 85,-166 167,-166 167,-185"/>
<text text-anchor="middle" x="126" y="-173" font-family="Helvetica,sans-Serif" font-size="10.00">getPrecedence</text>
</a>
</g>
</g>
<!-- Node1&#45;&gt;Node2 -->
<g id="edge1" class="edge">
<title>Node1&#45;&gt;Node2</title>
<path fill="none" stroke="#63b8ff" d="M33.96,-111.25C44.83,-123.33 64.71,-143.95 85,-157.5 86.71,-158.64 88.5,-159.74 90.35,-160.8"/>
<polygon fill="#63b8ff" stroke="#63b8ff" points="88.29,-164.2 98.78,-165.69 91.51,-157.98 88.29,-164.2"/>
</g>
<!-- Node3 -->
<g id="node3" class="node">
<title>Node3</title>
<g id="a_node3"><a xlink:href="../../da/d96/infix__to__postfix2_8c.html#a653c98c68c558505b75b04c44b7c838e" target="_top" xlink:title="Function to check whether the stack is empty or not.">
<polygon fill="white" stroke="#666666" points="152.5,-148 99.5,-148 99.5,-129 152.5,-129 152.5,-148"/>
<text text-anchor="middle" x="126" y="-136" font-family="Helvetica,sans-Serif" font-size="10.00">isEmpty</text>
</a>
</g>
</g>
<!-- Node1&#45;&gt;Node3 -->
<g id="edge2" class="edge">
<title>Node1&#45;&gt;Node3</title>
<path fill="none" stroke="#63b8ff" d="M49.33,-110.36C61.22,-114.78 75.84,-120.22 89.06,-125.13"/>
<polygon fill="#63b8ff" stroke="#63b8ff" points="87.68,-128.73 98.27,-128.93 90.12,-122.17 87.68,-128.73"/>
</g>
<!-- Node4 -->
<g id="node4" class="node">
<title>Node4</title>
<g id="a_node4"><a xlink:href="../../db/d0c/infix__to__postfix_8c.html#afd8245c04b202240390de23170f72d6b" target="_top" xlink:title="isOprnd function">
<polygon fill="white" stroke="#666666" points="151,-111 101,-111 101,-92 151,-92 151,-111"/>
<text text-anchor="middle" x="126" y="-99" font-family="Helvetica,sans-Serif" font-size="10.00">isOprnd</text>
</a>
</g>
</g>
<!-- Node1&#45;&gt;Node4 -->
<g id="edge3" class="edge">
<title>Node1&#45;&gt;Node4</title>
<path fill="none" stroke="#63b8ff" d="M49.33,-101.5C61.46,-101.5 76.44,-101.5 89.86,-101.5"/>
<polygon fill="#63b8ff" stroke="#63b8ff" points="89.67,-105 99.67,-101.5 89.67,-98 89.67,-105"/>
</g>
<!-- Node5 -->
<g id="node5" class="node">
<title>Node5</title>
<g id="a_node5"><a xlink:href="../../da/d96/infix__to__postfix2_8c.html#a312e7f6c761a199c1369fbe651e084f0" target="_top" xlink:title="Function to pop from the stack.">
<polygon fill="white" stroke="#666666" points="142,-74 110,-74 110,-55 142,-55 142,-74"/>
<text text-anchor="middle" x="126" y="-62" font-family="Helvetica,sans-Serif" font-size="10.00">pop</text>
</a>
</g>
</g>
<!-- Node1&#45;&gt;Node5 -->
<g id="edge4" class="edge">
<title>Node1&#45;&gt;Node5</title>
<path fill="none" stroke="#63b8ff" d="M49.33,-92.64C64.56,-86.97 84.28,-79.64 99.78,-73.88"/>
<polygon fill="#63b8ff" stroke="#63b8ff" points="100.56,-76.95 108.72,-70.18 98.13,-70.39 100.56,-76.95"/>
</g>
<!-- Node6 -->
<g id="node6" class="node">
<title>Node6</title>
<g id="a_node6"><a xlink:href="../../db/d0c/infix__to__postfix_8c.html#a613462735d30cae1b85b606ecab30554" target="_top" xlink:title="push function">
<polygon fill="white" stroke="#666666" points="145,-19 107,-19 107,0 145,0 145,-19"/>
<text text-anchor="middle" x="126" y="-7" font-family="Helvetica,sans-Serif" font-size="10.00">push</text>
</a>
</g>
</g>
<!-- Node1&#45;&gt;Node6 -->
<g id="edge5" class="edge">
<title>Node1&#45;&gt;Node6</title>
<path fill="none" stroke="#63b8ff" d="M36.15,-91.65C52.91,-76.16 85.65,-45.88 106.37,-26.73"/>
<polygon fill="#63b8ff" stroke="#63b8ff" points="108.46,-29.63 113.43,-20.27 103.71,-24.49 108.46,-29.63"/>
</g>
<!-- Node6&#45;&gt;Node6 -->
<g id="edge6" class="edge">
<title>Node6&#45;&gt;Node6</title>
<path fill="none" stroke="#63b8ff" d="M110.11,-19.37C102.86,-27.94 108.16,-37 126,-37 136.04,-37 142.1,-34.13 144.2,-30.1"/>
<polygon fill="#63b8ff" stroke="#63b8ff" points="147.42,-29.41 141.89,-20.37 140.57,-30.88 147.42,-29.41"/>
</g>
</g>
</svg>
