<?xml version="1.0" encoding="UTF-8" standalone="no"?>
<!DOCTYPE svg PUBLIC "-//W3C//DTD SVG 1.1//EN"
 "http://www.w3.org/Graphics/SVG/1.1/DTD/svg11.dtd">
<!-- Generated by graphviz version 8.0.5 (20230430.1635)
 -->
<!-- Title: convert Pages: 1 -->
<svg width="174pt" height="193pt"
 viewBox="0.00 0.00 173.50 193.25" xmlns="http://www.w3.org/2000/svg" xmlns:xlink="http://www.w3.org/1999/xlink">
<g id="graph0" class="graph" transform="scale(1 1) rotate(0) translate(4 189.25)">
<title>convert</title>
<!-- Node1 -->
<g id="Node000001" class="node">
<title>Node1</title>
<g id="a_Node000001"><a xlink:title="convert function">
<polygon fill="#999999" stroke="#666666" points="48.25,-111.25 0,-111.25 0,-92 48.25,-92 48.25,-111.25"/>
<text text-anchor="middle" x="24.12" y="-97.75" font-family="Helvetica,sans-Serif" font-size="10.00">convert</text>
</a>
</g>
</g>
<!-- Node2 -->
<g id="Node000002" class="node">
<title>Node2</title>
<g id="a_Node000002"><a xlink:href="../../db/d0c/infix__to__postfix_8c.html#ac91f38ad7885fca93e39325361a5c787" target="_top" xlink:title="getPrecedence function returns the precedence after comparing two operators passed as parameter.">
<polygon fill="white" stroke="#666666" points="165.5,-185.25 84.25,-185.25 84.25,-166 165.5,-166 165.5,-185.25"/>
<text text-anchor="middle" x="124.88" y="-171.75" font-family="Helvetica,sans-Serif" font-size="10.00">getPrecedence</text>
</a>
</g>
</g>
<!-- Node1&#45;&gt;Node2 -->
<g id="edge1_Node000001_Node000002" class="edge">
<title>Node1&#45;&gt;Node2</title>
<g id="a_edge1_Node000001_Node000002"><a xlink:title=" ">
<path fill="none" stroke="#63b8ff" d="M33.53,-111.37C44.32,-123.44 64.08,-144.05 84.25,-157.62 85.76,-158.64 87.33,-159.62 88.95,-160.57"/>
<polygon fill="#63b8ff" stroke="#63b8ff" points="86.99,-164.02 97.47,-165.6 90.26,-157.84 86.99,-164.02"/>
</a>
</g>
</g>
<!-- Node3 -->
<g id="Node000003" class="node">
<title>Node3</title>
<g id="a_Node000003"><a xlink:href="../../da/d96/infix__to__postfix2_8c.html#a653c98c68c558505b75b04c44b7c838e" target="_top" xlink:title="Function to check whether the stack is empty or not.">
<polygon fill="white" stroke="#666666" points="150.88,-148.25 98.88,-148.25 98.88,-129 150.88,-129 150.88,-148.25"/>
<text text-anchor="middle" x="124.88" y="-134.75" font-family="Helvetica,sans-Serif" font-size="10.00">isEmpty</text>
</a>
</g>
</g>
<!-- Node1&#45;&gt;Node3 -->
<g id="edge2_Node000001_Node000003" class="edge">
<title>Node1&#45;&gt;Node3</title>
<g id="a_edge2_Node000001_Node000003"><a xlink:title=" ">
<path fill="none" stroke="#63b8ff" d="M48.53,-110.39C60.41,-114.85 75.09,-120.35 88.34,-125.31"/>
<polygon fill="#63b8ff" stroke="#63b8ff" points="86.97,-128.91 97.56,-129.14 89.43,-122.36 86.97,-128.91"/>
</a>
</g>
</g>
<!-- Node4 -->
<g id="Node000004" class="node">
<title>Node4</title>
<g id="a_Node000004"><a xlink:href="../../db/d0c/infix__to__postfix_8c.html#afd8245c04b202240390de23170f72d6b" target="_top" xlink:title="isOprnd function">
<polygon fill="white" stroke="#666666" points="149.75,-111.25 100,-111.25 100,-92 149.75,-92 149.75,-111.25"/>
<text text-anchor="middle" x="124.88" y="-97.75" font-family="Helvetica,sans-Serif" font-size="10.00">isOprnd</text>
</a>
</g>
</g>
<!-- Node1&#45;&gt;Node4 -->
<g id="edge3_Node000001_Node000004" class="edge">
<title>Node1&#45;&gt;Node4</title>
<g id="a_edge3_Node000001_Node000004"><a xlink:title=" ">
<path fill="none" stroke="#63b8ff" d="M48.53,-101.62C60.56,-101.62 75.46,-101.62 88.84,-101.62"/>
<polygon fill="#63b8ff" stroke="#63b8ff" points="88.61,-105.13 98.61,-101.62 88.61,-98.13 88.61,-105.13"/>
</a>
</g>
</g>
<!-- Node5 -->
<g id="Node000005" class="node">
<title>Node5</title>
<g id="a_Node000005"><a xlink:href="../../da/d96/infix__to__postfix2_8c.html#a312e7f6c761a199c1369fbe651e084f0" target="_top" xlink:title="Function to pop from the stack.">
<polygon fill="white" stroke="#666666" points="140.75,-74.25 109,-74.25 109,-55 140.75,-55 140.75,-74.25"/>
<text text-anchor="middle" x="124.88" y="-60.75" font-family="Helvetica,sans-Serif" font-size="10.00">pop</text>
</a>
</g>
</g>
<!-- Node1&#45;&gt;Node5 -->
<g id="edge4_Node000001_Node000005" class="edge">
<title>Node1&#45;&gt;Node5</title>
<g id="a_edge4_Node000001_Node000005"><a xlink:title=" ">
<path fill="none" stroke="#63b8ff" d="M48.53,-92.86C63.63,-87.2 83.28,-79.84 98.72,-74.05"/>
<polygon fill="#63b8ff" stroke="#63b8ff" points="99.49,-77.12 107.63,-70.34 97.04,-70.57 99.49,-77.12"/>
</a>
</g>
</g>
<!-- Node6 -->
<g id="Node000006" class="node">
<title>Node6</title>
<g id="a_Node000006"><a xlink:href="../../db/d0c/infix__to__postfix_8c.html#a613462735d30cae1b85b606ecab30554" target="_top" xlink:title="push function">
<polygon fill="white" stroke="#666666" points="143.38,-19.25 106.38,-19.25 106.38,0 143.38,0 143.38,-19.25"/>
<text text-anchor="middle" x="124.88" y="-5.75" font-family="Helvetica,sans-Serif" font-size="10.00">push</text>
</a>
</g>
</g>
<!-- Node1&#45;&gt;Node6 -->
<g id="edge5_Node000001_Node000006" class="edge">
<title>Node1&#45;&gt;Node6</title>
<g id="a_edge5_Node000001_Node000006"><a xlink:title=" ">
<path fill="none" stroke="#63b8ff" d="M35.53,-91.65C47.29,-80.39 67.04,-61.59 84.25,-45.62 90.96,-39.4 98.37,-32.64 104.94,-26.68"/>
<polygon fill="#63b8ff" stroke="#63b8ff" points="106.65,-29.95 111.72,-20.65 101.95,-24.76 106.65,-29.95"/>
</a>
</g>
</g>
<!-- Node6&#45;&gt;Node6 -->
<g id="edge6_Node000006_Node000006" class="edge">
<title>Node6&#45;&gt;Node6</title>
<g id="a_edge6_Node000006_Node000006"><a xlink:title=" ">
<path fill="none" stroke="#63b8ff" d="M109.1,-19.54C101.91,-28.15 107.17,-37.25 124.88,-37.25 135.11,-37.25 141.19,-34.21 143.1,-29.98"/>
<polygon fill="#63b8ff" stroke="#63b8ff" points="146.35,-29.47 140.65,-20.54 139.53,-31.07 146.35,-29.47"/>
</a>
</g>
</g>
</g>
</svg>
