<?xml version="1.0" encoding="UTF-8" standalone="no"?>
<!DOCTYPE svg PUBLIC "-//W3C//DTD SVG 1.1//EN"
 "http://www.w3.org/Graphics/SVG/1.1/DTD/svg11.dtd">
<!-- Generated by graphviz version 8.0.2 (20230410.1723)
 -->
<!-- Title: main Pages: 1 -->
<svg width="249pt" height="193pt"
 viewBox="0.00 0.00 249.00 193.00" xmlns="http://www.w3.org/2000/svg" xmlns:xlink="http://www.w3.org/1999/xlink">
<g id="graph0" class="graph" transform="scale(1 1) rotate(0) translate(4 189)">
<title>main</title>
<!-- Node1 -->
<g id="node1" class="node">
<title>Node1</title>
<g id="a_node1"><a xlink:title="main function">
<polygon fill="#999999" stroke="#666666" points="38,-111 0,-111 0,-92 38,-92 38,-111"/>
<text text-anchor="middle" x="19" y="-99" font-family="Helvetica,sans-Serif" font-size="10.00">main</text>
</a>
</g>
</g>
<!-- Node2 -->
<g id="node2" class="node">
<title>Node2</title>
<g id="a_node2"><a xlink:href="../../db/d0c/infix__to__postfix_8c.html#a92af69ffc1e1f965ebce6a44672e96b1" target="_top" xlink:title="convert function">
<polygon fill="white" stroke="#666666" points="123,-111 74,-111 74,-92 123,-92 123,-111"/>
<text text-anchor="middle" x="98.5" y="-99" font-family="Helvetica,sans-Serif" font-size="10.00">convert</text>
</a>
</g>
</g>
<!-- Node1&#45;&gt;Node2 -->
<g id="edge1" class="edge">
<title>Node1&#45;&gt;Node2</title>
<path fill="none" stroke="#63b8ff" d="M38.37,-101.5C45.71,-101.5 54.42,-101.5 62.87,-101.5"/>
<polygon fill="#63b8ff" stroke="#63b8ff" points="62.68,-105 72.68,-101.5 62.68,-98 62.68,-105"/>
</g>
<!-- Node3 -->
<g id="node3" class="node">
<title>Node3</title>
<g id="a_node3"><a xlink:href="../../db/d0c/infix__to__postfix_8c.html#ac91f38ad7885fca93e39325361a5c787" target="_top" xlink:title="getPrecedence function returns the precedence after comparing two operators passed as parameter.">
<polygon fill="white" stroke="#666666" points="241,-185 159,-185 159,-166 241,-166 241,-185"/>
<text text-anchor="middle" x="200" y="-173" font-family="Helvetica,sans-Serif" font-size="10.00">getPrecedence</text>
</a>
</g>
</g>
<!-- Node2&#45;&gt;Node3 -->
<g id="edge2" class="edge">
<title>Node2&#45;&gt;Node3</title>
<path fill="none" stroke="#63b8ff" d="M107.96,-111.25C118.83,-123.33 138.71,-143.95 159,-157.5 160.71,-158.64 162.5,-159.74 164.35,-160.8"/>
<polygon fill="#63b8ff" stroke="#63b8ff" points="162.29,-164.2 172.78,-165.69 165.51,-157.98 162.29,-164.2"/>
</g>
<!-- Node4 -->
<g id="node4" class="node">
<title>Node4</title>
<g id="a_node4"><a xlink:href="../../da/d96/infix__to__postfix2_8c.html#a653c98c68c558505b75b04c44b7c838e" target="_top" xlink:title="Function to check whether the stack is empty or not.">
<polygon fill="white" stroke="#666666" points="226.5,-148 173.5,-148 173.5,-129 226.5,-129 226.5,-148"/>
<text text-anchor="middle" x="200" y="-136" font-family="Helvetica,sans-Serif" font-size="10.00">isEmpty</text>
</a>
</g>
</g>
<!-- Node2&#45;&gt;Node4 -->
<g id="edge3" class="edge">
<title>Node2&#45;&gt;Node4</title>
<path fill="none" stroke="#63b8ff" d="M123.33,-110.36C135.22,-114.78 149.84,-120.22 163.06,-125.13"/>
<polygon fill="#63b8ff" stroke="#63b8ff" points="161.68,-128.73 172.27,-128.93 164.12,-122.17 161.68,-128.73"/>
</g>
<!-- Node5 -->
<g id="node5" class="node">
<title>Node5</title>
<g id="a_node5"><a xlink:href="../../db/d0c/infix__to__postfix_8c.html#afd8245c04b202240390de23170f72d6b" target="_top" xlink:title="isOprnd function">
<polygon fill="white" stroke="#666666" points="225,-111 175,-111 175,-92 225,-92 225,-111"/>
<text text-anchor="middle" x="200" y="-99" font-family="Helvetica,sans-Serif" font-size="10.00">isOprnd</text>
</a>
</g>
</g>
<!-- Node2&#45;&gt;Node5 -->
<g id="edge4" class="edge">
<title>Node2&#45;&gt;Node5</title>
<path fill="none" stroke="#63b8ff" d="M123.33,-101.5C135.46,-101.5 150.44,-101.5 163.86,-101.5"/>
<polygon fill="#63b8ff" stroke="#63b8ff" points="163.67,-105 173.67,-101.5 163.67,-98 163.67,-105"/>
</g>
<!-- Node6 -->
<g id="node6" class="node">
<title>Node6</title>
<g id="a_node6"><a xlink:href="../../da/d96/infix__to__postfix2_8c.html#a312e7f6c761a199c1369fbe651e084f0" target="_top" xlink:title="Function to pop from the stack.">
<polygon fill="white" stroke="#666666" points="216,-74 184,-74 184,-55 216,-55 216,-74"/>
<text text-anchor="middle" x="200" y="-62" font-family="Helvetica,sans-Serif" font-size="10.00">pop</text>
</a>
</g>
</g>
<!-- Node2&#45;&gt;Node6 -->
<g id="edge5" class="edge">
<title>Node2&#45;&gt;Node6</title>
<path fill="none" stroke="#63b8ff" d="M123.33,-92.64C138.56,-86.97 158.28,-79.64 173.78,-73.88"/>
<polygon fill="#63b8ff" stroke="#63b8ff" points="174.56,-76.95 182.72,-70.18 172.13,-70.39 174.56,-76.95"/>
</g>
<!-- Node7 -->
<g id="node7" class="node">
<title>Node7</title>
<g id="a_node7"><a xlink:href="../../db/d0c/infix__to__postfix_8c.html#a613462735d30cae1b85b606ecab30554" target="_top" xlink:title="push function">
<polygon fill="white" stroke="#666666" points="219,-19 181,-19 181,0 219,0 219,-19"/>
<text text-anchor="middle" x="200" y="-7" font-family="Helvetica,sans-Serif" font-size="10.00">push</text>
</a>
</g>
</g>
<!-- Node2&#45;&gt;Node7 -->
<g id="edge6" class="edge">
<title>Node2&#45;&gt;Node7</title>
<path fill="none" stroke="#63b8ff" d="M110.15,-91.65C126.91,-76.16 159.65,-45.88 180.37,-26.73"/>
<polygon fill="#63b8ff" stroke="#63b8ff" points="182.46,-29.63 187.43,-20.27 177.71,-24.49 182.46,-29.63"/>
</g>
<!-- Node7&#45;&gt;Node7 -->
<g id="edge7" class="edge">
<title>Node7&#45;&gt;Node7</title>
<path fill="none" stroke="#63b8ff" d="M184.11,-19.37C176.86,-27.94 182.16,-37 200,-37 210.04,-37 216.1,-34.13 218.2,-30.1"/>
<polygon fill="#63b8ff" stroke="#63b8ff" points="221.42,-29.41 215.89,-20.37 214.57,-30.88 221.42,-29.41"/>
</g>
</g>
</svg>
