<?xml version="1.0" encoding="UTF-8" standalone="no"?>
<!DOCTYPE svg PUBLIC "-//W3C//DTD SVG 1.1//EN"
 "http://www.w3.org/Graphics/SVG/1.1/DTD/svg11.dtd">
<!-- Generated by graphviz version 8.0.2 (20230410.1723)
 -->
<!-- Title: test Pages: 1 -->
<svg width="178pt" height="45pt"
 viewBox="0.00 0.00 177.72 45.00" xmlns="http://www.w3.org/2000/svg" xmlns:xlink="http://www.w3.org/1999/xlink">
<g id="graph0" class="graph" transform="scale(1 1) rotate(0) translate(4 41)">
<title>test</title>
<!-- Node1 -->
<g id="node1" class="node">
<title>Node1</title>
<g id="a_node1"><a xlink:title="Self&#45;test implementations.">
<polygon fill="#999999" stroke="#666666" points="35.72,-19 2.72,-19 2.72,0 35.72,0 35.72,-19"/>
<text text-anchor="middle" x="19.22" y="-7" font-family="Helvetica,sans-Serif" font-size="10.00">test</text>
</a>
</g>
</g>
<!-- Node1&#45;&gt;Node1 -->
<g id="edge2" class="edge">
<title>Node1&#45;&gt;Node1</title>
<path fill="none" stroke="#63b8ff" d="M3.33,-19.37C-3.92,-27.94 1.38,-37 19.22,-37 29.25,-37 35.32,-34.13 37.42,-30.1"/>
<polygon fill="#63b8ff" stroke="#63b8ff" points="40.63,-29.41 35.11,-20.37 33.79,-30.88 40.63,-29.41"/>
</g>
<!-- Node2 -->
<g id="node2" class="node">
<title>Node2</title>
<g id="a_node2"><a xlink:href="../../d1/dc7/run__length__encoding_8c.html#ac3cc4a63cf2a14a08e05c5537ecf59c2" target="_top" xlink:title="for IO operations">
<polygon fill="white" stroke="#666666" points="169.72,-19 71.72,-19 71.72,0 169.72,0 169.72,-19"/>
<text text-anchor="middle" x="120.72" y="-7" font-family="Helvetica,sans-Serif" font-size="10.00">run_length_encode</text>
</a>
</g>
</g>
<!-- Node1&#45;&gt;Node2 -->
<g id="edge1" class="edge">
<title>Node1&#45;&gt;Node2</title>
<path fill="none" stroke="#63b8ff" d="M36.2,-9.5C43.15,-9.5 51.77,-9.5 60.8,-9.5"/>
<polygon fill="#63b8ff" stroke="#63b8ff" points="60.52,-13 70.52,-9.5 60.52,-6 60.52,-13"/>
</g>
</g>
</svg>
