<?xml version="1.0" encoding="UTF-8" standalone="no"?>
<!DOCTYPE svg PUBLIC "-//W3C//DTD SVG 1.1//EN"
 "http://www.w3.org/Graphics/SVG/1.1/DTD/svg11.dtd">
<!-- Generated by graphviz version 8.0.5 (20230430.1635)
 -->
<!-- Title: test Pages: 1 -->
<svg width="177pt" height="45pt"
 viewBox="0.00 0.00 177.15 45.25" xmlns="http://www.w3.org/2000/svg" xmlns:xlink="http://www.w3.org/1999/xlink">
<g id="graph0" class="graph" transform="scale(1 1) rotate(0) translate(4 41.25)">
<title>test</title>
<!-- Node1 -->
<g id="Node000001" class="node">
<title>Node1</title>
<g id="a_Node000001"><a xlink:title="Self&#45;test implementations.">
<polygon fill="#999999" stroke="#666666" points="35.4,-19.25 2.9,-19.25 2.9,0 35.4,0 35.4,-19.25"/>
<text text-anchor="middle" x="19.15" y="-5.75" font-family="Helvetica,sans-Serif" font-size="10.00">test</text>
</a>
</g>
</g>
<!-- Node1&#45;&gt;Node1 -->
<g id="edge2_Node000001_Node000001" class="edge">
<title>Node1&#45;&gt;Node1</title>
<g id="a_edge2_Node000001_Node000001"><a xlink:title=" ">
<path fill="none" stroke="#63b8ff" d="M3.32,-19.54C-3.91,-28.15 1.37,-37.25 19.15,-37.25 29.42,-37.25 35.52,-34.21 37.45,-29.98"/>
<polygon fill="#63b8ff" stroke="#63b8ff" points="40.68,-29.47 34.98,-20.54 33.87,-31.07 40.68,-29.47"/>
</a>
</g>
</g>
<!-- Node2 -->
<g id="Node000002" class="node">
<title>Node2</title>
<g id="a_Node000002"><a xlink:href="../../d1/dc7/run__length__encoding_8c.html#ac3cc4a63cf2a14a08e05c5537ecf59c2" target="_top" xlink:title="for IO operations">
<polygon fill="white" stroke="#666666" points="169.15,-19.25 71.4,-19.25 71.4,0 169.15,0 169.15,-19.25"/>
<text text-anchor="middle" x="120.27" y="-5.75" font-family="Helvetica,sans-Serif" font-size="10.00">run_length_encode</text>
</a>
</g>
</g>
<!-- Node1&#45;&gt;Node2 -->
<g id="edge1_Node000001_Node000002" class="edge">
<title>Node1&#45;&gt;Node2</title>
<g id="a_edge1_Node000001_Node000002"><a xlink:title=" ">
<path fill="none" stroke="#63b8ff" d="M35.64,-9.62C42.6,-9.62 51.31,-9.62 60.45,-9.62"/>
<polygon fill="#63b8ff" stroke="#63b8ff" points="60.31,-13.13 70.31,-9.62 60.31,-6.13 60.31,-13.13"/>
</a>
</g>
</g>
</g>
</svg>
