<?xml version="1.0" encoding="UTF-8" standalone="no"?>
<!DOCTYPE svg PUBLIC "-//W3C//DTD SVG 1.1//EN"
 "http://www.w3.org/Graphics/SVG/1.1/DTD/svg11.dtd">
<!-- Generated by graphviz version 8.0.2 (20230410.1723)
 -->
<!-- Title: main Pages: 1 -->
<svg width="331pt" height="45pt"
 viewBox="0.00 0.00 331.00 45.00" xmlns="http://www.w3.org/2000/svg" xmlns:xlink="http://www.w3.org/1999/xlink">
<g id="graph0" class="graph" transform="scale(1 1) rotate(0) translate(4 41)">
<title>main</title>
<!-- Node1 -->
<g id="node1" class="node">
<title>Node1</title>
<g id="a_node1"><a xlink:title="Main function.">
<polygon fill="#999999" stroke="#666666" points="38,-19 0,-19 0,0 38,0 38,-19"/>
<text text-anchor="middle" x="19" y="-7" font-family="Helvetica,sans-Serif" font-size="10.00">main</text>
</a>
</g>
</g>
<!-- Node2 -->
<g id="node2" class="node">
<title>Node2</title>
<g id="a_node2"><a xlink:href="../../dd/de6/roman__numerals__to__decimal_8c.html#aa8dca7b867074164d5f45b0f3851269d" target="_top" xlink:title="Self&#45;test implementations.">
<polygon fill="white" stroke="#666666" points="107,-19 74,-19 74,0 107,0 107,-19"/>
<text text-anchor="middle" x="90.5" y="-7" font-family="Helvetica,sans-Serif" font-size="10.00">test</text>
</a>
</g>
</g>
<!-- Node1&#45;&gt;Node2 -->
<g id="edge1" class="edge">
<title>Node1&#45;&gt;Node2</title>
<path fill="none" stroke="#63b8ff" d="M38.26,-9.5C45.89,-9.5 54.9,-9.5 63.23,-9.5"/>
<polygon fill="#63b8ff" stroke="#63b8ff" points="62.95,-13 72.95,-9.5 62.95,-6 62.95,-13"/>
</g>
<!-- Node3 -->
<g id="node3" class="node">
<title>Node3</title>
<g id="a_node3"><a xlink:href="../../dd/de6/roman__numerals__to__decimal_8c.html#a1e86fb4466b6a175b910fa19c4a6ea03" target="_top" xlink:title="Converts roman numerals into a decimal number.">
<polygon fill="white" stroke="#666666" points="239,-19 143,-19 143,0 239,0 239,-19"/>
<text text-anchor="middle" x="191" y="-7" font-family="Helvetica,sans-Serif" font-size="10.00">roman_to_decimal</text>
</a>
</g>
</g>
<!-- Node2&#45;&gt;Node3 -->
<g id="edge2" class="edge">
<title>Node2&#45;&gt;Node3</title>
<path fill="none" stroke="#63b8ff" d="M107.33,-9.5C114.28,-9.5 122.93,-9.5 131.98,-9.5"/>
<polygon fill="#63b8ff" stroke="#63b8ff" points="131.71,-13 141.71,-9.5 131.71,-6 131.71,-13"/>
</g>
<!-- Node4 -->
<g id="node4" class="node">
<title>Node4</title>
<g id="a_node4"><a xlink:href="../../dd/de6/roman__numerals__to__decimal_8c.html#a95b7915cdb0df66a0aae7b769d3bbf88" target="_top" xlink:title="for assert">
<polygon fill="white" stroke="#666666" points="323,-19 275,-19 275,0 323,0 323,-19"/>
<text text-anchor="middle" x="299" y="-7" font-family="Helvetica,sans-Serif" font-size="10.00">symbol</text>
</a>
</g>
</g>
<!-- Node3&#45;&gt;Node4 -->
<g id="edge3" class="edge">
<title>Node3&#45;&gt;Node4</title>
<path fill="none" stroke="#63b8ff" d="M239.42,-9.5C247.64,-9.5 256.04,-9.5 263.83,-9.5"/>
<polygon fill="#63b8ff" stroke="#63b8ff" points="263.69,-13 273.69,-9.5 263.69,-6 263.69,-13"/>
</g>
<!-- Node4&#45;&gt;Node4 -->
<g id="edge4" class="edge">
<title>Node4&#45;&gt;Node4</title>
<path fill="none" stroke="#63b8ff" d="M282.09,-19.37C274.38,-27.94 280.02,-37 299,-37 309.98,-37 316.49,-33.97 318.54,-29.76"/>
<polygon fill="#63b8ff" stroke="#63b8ff" points="321.76,-29.2 315.91,-20.37 314.97,-30.92 321.76,-29.2"/>
</g>
</g>
</svg>
