<?xml version="1.0" encoding="UTF-8" standalone="no"?>
<!DOCTYPE svg PUBLIC "-//W3C//DTD SVG 1.1//EN"
 "http://www.w3.org/Graphics/SVG/1.1/DTD/svg11.dtd">
<!-- Generated by graphviz version 9.0.0 (20230911.1827)
 -->
<!-- Title: main Pages: 1 -->
<svg width="329pt" height="45pt"
 viewBox="0.00 0.00 328.50 45.25" xmlns="http://www.w3.org/2000/svg" xmlns:xlink="http://www.w3.org/1999/xlink">
<g id="graph0" class="graph" transform="scale(1 1) rotate(0) translate(4 41.25)">
<title>main</title>
<!-- Node1 -->
<g id="Node000001" class="node">
<title>Node1</title>
<g id="a_Node000001"><a xlink:title="Main function.">
<polygon fill="#999999" stroke="#666666" points="37,-19.25 0,-19.25 0,0 37,0 37,-19.25"/>
<text text-anchor="middle" x="18.5" y="-5.75" font-family="Helvetica,sans-Serif" font-size="10.00">main</text>
</a>
</g>
</g>
<!-- Node2 -->
<g id="Node000002" class="node">
<title>Node2</title>
<g id="a_Node000002"><a xlink:href="../../dd/de6/roman__numerals__to__decimal_8c.html#aa8dca7b867074164d5f45b0f3851269d" target="_top" xlink:title="Self&#45;test implementations.">
<polygon fill="white" stroke="#666666" points="105.5,-19.25 73,-19.25 73,0 105.5,0 105.5,-19.25"/>
<text text-anchor="middle" x="89.25" y="-5.75" font-family="Helvetica,sans-Serif" font-size="10.00">test</text>
</a>
</g>
</g>
<!-- Node1&#45;&gt;Node2 -->
<g id="edge1_Node000001_Node000002" class="edge">
<title>Node1&#45;&gt;Node2</title>
<g id="a_edge1_Node000001_Node000002"><a xlink:title=" ">
<path fill="none" stroke="#63b8ff" d="M37.2,-9.62C44.58,-9.62 53.31,-9.62 61.45,-9.62"/>
<polygon fill="#63b8ff" stroke="#63b8ff" points="61.2,-13.13 71.2,-9.63 61.2,-6.13 61.2,-13.13"/>
</a>
</g>
</g>
<!-- Node3 -->
<g id="Node000003" class="node">
<title>Node3</title>
<g id="a_Node000003"><a xlink:href="../../dd/de6/roman__numerals__to__decimal_8c.html#a1e86fb4466b6a175b910fa19c4a6ea03" target="_top" xlink:title="Converts roman numerals into a decimal number.">
<polygon fill="white" stroke="#666666" points="237,-19.25 141.5,-19.25 141.5,0 237,0 237,-19.25"/>
<text text-anchor="middle" x="189.25" y="-5.75" font-family="Helvetica,sans-Serif" font-size="10.00">roman_to_decimal</text>
</a>
</g>
</g>
<!-- Node2&#45;&gt;Node3 -->
<g id="edge2_Node000002_Node000003" class="edge">
<title>Node2&#45;&gt;Node3</title>
<g id="a_edge2_Node000002_Node000003"><a xlink:title=" ">
<path fill="none" stroke="#63b8ff" d="M106,-9.62C112.77,-9.62 121.14,-9.62 129.93,-9.62"/>
<polygon fill="#63b8ff" stroke="#63b8ff" points="129.69,-13.13 139.69,-9.63 129.69,-6.13 129.69,-13.13"/>
</a>
</g>
</g>
<!-- Node4 -->
<g id="Node000004" class="node">
<title>Node4</title>
<g id="a_Node000004"><a xlink:href="../../dd/de6/roman__numerals__to__decimal_8c.html#a95b7915cdb0df66a0aae7b769d3bbf88" target="_top" xlink:title="for assert">
<polygon fill="white" stroke="#666666" points="320.5,-19.25 273,-19.25 273,0 320.5,0 320.5,-19.25"/>
<text text-anchor="middle" x="296.75" y="-5.75" font-family="Helvetica,sans-Serif" font-size="10.00">symbol</text>
</a>
</g>
</g>
<!-- Node3&#45;&gt;Node4 -->
<g id="edge3_Node000003_Node000004" class="edge">
<title>Node3&#45;&gt;Node4</title>
<g id="a_edge3_Node000003_Node000004"><a xlink:title=" ">
<path fill="none" stroke="#63b8ff" d="M237.45,-9.62C245.44,-9.62 253.6,-9.62 261.2,-9.62"/>
<polygon fill="#63b8ff" stroke="#63b8ff" points="261.03,-13.13 271.03,-9.63 261.03,-6.13 261.03,-13.13"/>
</a>
</g>
</g>
<!-- Node4&#45;&gt;Node4 -->
<g id="edge4_Node000004_Node000004" class="edge">
<title>Node4&#45;&gt;Node4</title>
<g id="a_edge4_Node000004_Node000004"><a xlink:title=" ">
<path fill="none" stroke="#63b8ff" d="M279.92,-19.54C272.24,-28.15 277.85,-37.25 296.75,-37.25 307.08,-37.25 313.44,-34.53 315.83,-30.65"/>
<polygon fill="#63b8ff" stroke="#63b8ff" points="319.3,-30.13 313.88,-21.02 312.44,-31.52 319.3,-30.13"/>
</a>
</g>
</g>
</g>
</svg>
