<?xml version="1.0" encoding="UTF-8" standalone="no"?>
<!DOCTYPE svg PUBLIC "-//W3C//DTD SVG 1.1//EN"
 "http://www.w3.org/Graphics/SVG/1.1/DTD/svg11.dtd">
<!-- Generated by graphviz version 7.0.6 (20230106.0513)
 -->
<!-- Title: test Pages: 1 -->
<svg width="257pt" height="45pt"
 viewBox="0.00 0.00 257.00 45.00" xmlns="http://www.w3.org/2000/svg" xmlns:xlink="http://www.w3.org/1999/xlink">
<g id="graph0" class="graph" transform="scale(1 1) rotate(0) translate(4 41)">
<title>test</title>
<!-- Node1 -->
<g id="node1" class="node">
<title>Node1</title>
<g id="a_node1"><a xlink:title="Self&#45;test implementations.">
<polygon fill="#999999" stroke="#666666" points="33,-19 0,-19 0,0 33,0 33,-19"/>
<text text-anchor="middle" x="16.5" y="-7" font-family="Helvetica,sans-Serif" font-size="10.00">test</text>
</a>
</g>
</g>
<!-- Node2 -->
<g id="node2" class="node">
<title>Node2</title>
<g id="a_node2"><a xlink:href="../../dd/de6/roman__numerals__to__decimal_8c.html#a1e86fb4466b6a175b910fa19c4a6ea03" target="_top" xlink:title="Converts roman numerals into a decimal number.">
<polygon fill="white" stroke="#666666" points="165,-19 69,-19 69,0 165,0 165,-19"/>
<text text-anchor="middle" x="117" y="-7" font-family="Helvetica,sans-Serif" font-size="10.00">roman_to_decimal</text>
</a>
</g>
</g>
<!-- Node1&#45;&gt;Node2 -->
<g id="edge1" class="edge">
<title>Node1&#45;&gt;Node2</title>
<path fill="none" stroke="#63b8ff" d="M33.33,-9.5C40.13,-9.5 48.55,-9.5 57.39,-9.5"/>
<polygon fill="#63b8ff" stroke="#63b8ff" points="57.2,-13 67.2,-9.5 57.2,-6 57.2,-13"/>
</g>
<!-- Node3 -->
<g id="node3" class="node">
<title>Node3</title>
<g id="a_node3"><a xlink:href="../../dd/de6/roman__numerals__to__decimal_8c.html#a95b7915cdb0df66a0aae7b769d3bbf88" target="_top" xlink:title="for assert">
<polygon fill="white" stroke="#666666" points="249,-19 201,-19 201,0 249,0 249,-19"/>
<text text-anchor="middle" x="225" y="-7" font-family="Helvetica,sans-Serif" font-size="10.00">symbol</text>
</a>
</g>
</g>
<!-- Node2&#45;&gt;Node3 -->
<g id="edge2" class="edge">
<title>Node2&#45;&gt;Node3</title>
<path fill="none" stroke="#63b8ff" d="M165.42,-9.5C173.45,-9.5 181.65,-9.5 189.28,-9.5"/>
<polygon fill="#63b8ff" stroke="#63b8ff" points="189.17,-13 199.17,-9.5 189.17,-6 189.17,-13"/>
</g>
<!-- Node3&#45;&gt;Node3 -->
<g id="edge3" class="edge">
<title>Node3&#45;&gt;Node3</title>
<path fill="none" stroke="#63b8ff" d="M208.09,-19.37C200.38,-27.94 206.02,-37 225,-37 235.38,-37 241.77,-34.29 244.17,-30.43"/>
<polygon fill="#63b8ff" stroke="#63b8ff" points="247.64,-29.95 242.21,-20.85 240.79,-31.35 247.64,-29.95"/>
</g>
</g>
</svg>
