<?xml version="1.0" encoding="UTF-8" standalone="no"?>
<!DOCTYPE svg PUBLIC "-//W3C//DTD SVG 1.1//EN"
 "http://www.w3.org/Graphics/SVG/1.1/DTD/svg11.dtd">
<!-- Generated by graphviz version 8.0.2 (20230410.1723)
 -->
<!-- Title: roman_to_decimal Pages: 1 -->
<svg width="188pt" height="45pt"
 viewBox="0.00 0.00 188.00 45.00" xmlns="http://www.w3.org/2000/svg" xmlns:xlink="http://www.w3.org/1999/xlink">
<g id="graph0" class="graph" transform="scale(1 1) rotate(0) translate(4 41)">
<title>roman_to_decimal</title>
<!-- Node1 -->
<g id="node1" class="node">
<title>Node1</title>
<g id="a_node1"><a xlink:title="Converts roman numerals into a decimal number.">
<polygon fill="#999999" stroke="#666666" points="96,-19 0,-19 0,0 96,0 96,-19"/>
<text text-anchor="middle" x="48" y="-7" font-family="Helvetica,sans-Serif" font-size="10.00">roman_to_decimal</text>
</a>
</g>
</g>
<!-- Node2 -->
<g id="node2" class="node">
<title>Node2</title>
<g id="a_node2"><a xlink:href="../../dd/de6/roman__numerals__to__decimal_8c.html#a95b7915cdb0df66a0aae7b769d3bbf88" target="_top" xlink:title="for assert">
<polygon fill="white" stroke="#666666" points="180,-19 132,-19 132,0 180,0 180,-19"/>
<text text-anchor="middle" x="156" y="-7" font-family="Helvetica,sans-Serif" font-size="10.00">symbol</text>
</a>
</g>
</g>
<!-- Node1&#45;&gt;Node2 -->
<g id="edge1" class="edge">
<title>Node1&#45;&gt;Node2</title>
<path fill="none" stroke="#63b8ff" d="M96.42,-9.5C104.64,-9.5 113.04,-9.5 120.83,-9.5"/>
<polygon fill="#63b8ff" stroke="#63b8ff" points="120.69,-13 130.69,-9.5 120.69,-6 120.69,-13"/>
</g>
<!-- Node2&#45;&gt;Node2 -->
<g id="edge2" class="edge">
<title>Node2&#45;&gt;Node2</title>
<path fill="none" stroke="#63b8ff" d="M139.09,-19.37C131.38,-27.94 137.02,-37 156,-37 166.98,-37 173.49,-33.97 175.54,-29.76"/>
<polygon fill="#63b8ff" stroke="#63b8ff" points="178.76,-29.2 172.91,-20.37 171.97,-30.92 178.76,-29.2"/>
</g>
</g>
</svg>
