<?xml version="1.0" encoding="UTF-8" standalone="no"?>
<!DOCTYPE svg PUBLIC "-//W3C//DTD SVG 1.1//EN"
 "http://www.w3.org/Graphics/SVG/1.1/DTD/svg11.dtd">
<!-- Generated by graphviz version 3.0.0 (20220226.1711)
 -->
<!-- Title: searching/binary_search.c Pages: 1 -->
<svg width="139pt" height="84pt"
 viewBox="0.00 0.00 139.00 84.00" xmlns="http://www.w3.org/2000/svg" xmlns:xlink="http://www.w3.org/1999/xlink">
<g id="graph0" class="graph" transform="scale(1 1) rotate(0) translate(4 80)">
<title>searching/binary_search.c</title>
<polygon fill="white" stroke="transparent" points="-4,4 -4,-80 135,-80 135,4 -4,4"/>
<!-- Node1 -->
<g id="node1" class="node">
<title>Node1</title>
<g id="a_node1"><a xlink:title="Program to perform binary search of a target value in a given sorted array.">
<polygon fill="#bfbfbf" stroke="black" points="0,-56.5 0,-75.5 131,-75.5 131,-56.5 0,-56.5"/>
<text text-anchor="middle" x="65.5" y="-63.5" font-family="Helvetica,sans-Serif" font-size="10.00">searching/binary_search.c</text>
</a>
</g>
</g>
<!-- Node2 -->
<g id="node2" class="node">
<title>Node2</title>
<g id="a_node2"><a xlink:title=" ">
<polygon fill="white" stroke="#bfbfbf" points="6.5,-0.5 6.5,-19.5 58.5,-19.5 58.5,-0.5 6.5,-0.5"/>
<text text-anchor="middle" x="32.5" y="-7.5" font-family="Helvetica,sans-Serif" font-size="10.00">assert.h</text>
</a>
</g>
</g>
<!-- Node1&#45;&gt;Node2 -->
<g id="edge1" class="edge">
<title>Node1&#45;&gt;Node2</title>
<path fill="none" stroke="midnightblue" d="M60.05,-56.08C55.49,-48.61 48.83,-37.72 43.21,-28.52"/>
<polygon fill="midnightblue" stroke="midnightblue" points="46.05,-26.46 37.85,-19.75 40.08,-30.11 46.05,-26.46"/>
</g>
<!-- Node3 -->
<g id="node3" class="node">
<title>Node3</title>
<g id="a_node3"><a xlink:title=" ">
<polygon fill="white" stroke="#bfbfbf" points="76.5,-0.5 76.5,-19.5 122.5,-19.5 122.5,-0.5 76.5,-0.5"/>
<text text-anchor="middle" x="99.5" y="-7.5" font-family="Helvetica,sans-Serif" font-size="10.00">stdio.h</text>
</a>
</g>
</g>
<!-- Node1&#45;&gt;Node3 -->
<g id="edge2" class="edge">
<title>Node1&#45;&gt;Node3</title>
<path fill="none" stroke="midnightblue" d="M71.11,-56.08C75.87,-48.53 82.82,-37.49 88.65,-28.23"/>
<polygon fill="midnightblue" stroke="midnightblue" points="91.62,-30.08 93.99,-19.75 85.7,-26.35 91.62,-30.08"/>
</g>
</g>
</svg>
