<?xml version="1.0" encoding="UTF-8" standalone="no"?>
<!DOCTYPE svg PUBLIC "-//W3C//DTD SVG 1.1//EN"
 "http://www.w3.org/Graphics/SVG/1.1/DTD/svg11.dtd">
<!-- Generated by graphviz version 3.0.0 (20220226.1711)
 -->
<!-- Title: main Pages: 1 -->
<svg width="416pt" height="125pt"
 viewBox="0.00 0.00 416.00 124.52" xmlns="http://www.w3.org/2000/svg" xmlns:xlink="http://www.w3.org/1999/xlink">
<g id="graph0" class="graph" transform="scale(1 1) rotate(0) translate(4 120.52)">
<title>main</title>
<polygon fill="white" stroke="transparent" points="-4,4 -4,-120.52 412,-120.52 412,4 -4,4"/>
<!-- Node1 -->
<g id="node1" class="node">
<title>Node1</title>
<g id="a_node1"><a xlink:title="Main function.">
<polygon fill="#bfbfbf" stroke="black" points="0,-57.5 0,-76.5 38,-76.5 38,-57.5 0,-57.5"/>
<text text-anchor="middle" x="19" y="-64.5" font-family="Helvetica,sans-Serif" font-size="10.00">main</text>
</a>
</g>
</g>
<!-- Node2 -->
<g id="node2" class="node">
<title>Node2</title>
<g id="a_node2"><a xlink:href="../../d5/db8/vectors__3d_8c.html#aa8dca7b867074164d5f45b0f3851269d" target="_top" xlink:title="Testing function.">
<polygon fill="white" stroke="black" points="74,-57.5 74,-76.5 107,-76.5 107,-57.5 74,-57.5"/>
<text text-anchor="middle" x="90.5" y="-64.5" font-family="Helvetica,sans-Serif" font-size="10.00">test</text>
</a>
</g>
</g>
<!-- Node1&#45;&gt;Node2 -->
<g id="edge1" class="edge">
<title>Node1&#45;&gt;Node2</title>
<path fill="none" stroke="midnightblue" d="M38.26,-67C46.07,-67 55.31,-67 63.79,-67"/>
<polygon fill="midnightblue" stroke="midnightblue" points="63.95,-70.5 73.95,-67 63.95,-63.5 63.95,-70.5"/>
</g>
<!-- Node3 -->
<g id="node3" class="node">
<title>Node3</title>
<g id="a_node3"><a xlink:href="../../de/d7b/group__vec__3d.html#ga243e74d542d0d4d14fa3ae0bc2170d84" target="_top" xlink:title="Obtain the dot product of two 3D vectors.">
<polygon fill="white" stroke="black" points="354,-76.5 354,-95.5 408,-95.5 408,-76.5 354,-76.5"/>
<text text-anchor="middle" x="381" y="-83.5" font-family="Helvetica,sans-Serif" font-size="10.00">dot_prod</text>
</a>
</g>
</g>
<!-- Node2&#45;&gt;Node3 -->
<g id="edge2" class="edge">
<title>Node2&#45;&gt;Node3</title>
<path fill="none" stroke="midnightblue" d="M100.67,-76.68C110.22,-85.99 126.11,-99.44 143,-105 211.49,-127.53 296.86,-110.47 344.19,-97.35"/>
<polygon fill="midnightblue" stroke="midnightblue" points="345.32,-100.67 353.97,-94.55 343.39,-93.94 345.32,-100.67"/>
</g>
<!-- Node4 -->
<g id="node4" class="node">
<title>Node4</title>
<g id="a_node4"><a xlink:href="../../de/d7b/group__vec__3d.html#ga55be1d766c8a824b35d97e79744834d8" target="_top" xlink:title="Obtain the angle between two given vectors.">
<polygon fill="white" stroke="black" points="147.5,-76.5 147.5,-95.5 206.5,-95.5 206.5,-76.5 147.5,-76.5"/>
<text text-anchor="middle" x="177" y="-83.5" font-family="Helvetica,sans-Serif" font-size="10.00">get_angle</text>
</a>
</g>
</g>
<!-- Node2&#45;&gt;Node4 -->
<g id="edge3" class="edge">
<title>Node2&#45;&gt;Node4</title>
<path fill="none" stroke="midnightblue" d="M107.39,-70.57C115.87,-72.48 126.71,-74.92 137.25,-77.29"/>
<polygon fill="midnightblue" stroke="midnightblue" points="136.66,-80.74 147.18,-79.52 138.19,-73.91 136.66,-80.74"/>
</g>
<!-- Node5 -->
<g id="node5" class="node">
<title>Node5</title>
<g id="a_node5"><a xlink:href="../../de/d7b/group__vec__3d.html#ga94805165d037d111d7d7c0df99e3a5de" target="_top" xlink:title="Compute the norm a vector.">
<polygon fill="white" stroke="black" points="247,-38.5 247,-57.5 318,-57.5 318,-38.5 247,-38.5"/>
<text text-anchor="middle" x="282.5" y="-45.5" font-family="Helvetica,sans-Serif" font-size="10.00">vector_norm</text>
</a>
</g>
</g>
<!-- Node2&#45;&gt;Node5 -->
<g id="edge7" class="edge">
<title>Node2&#45;&gt;Node5</title>
<path fill="none" stroke="midnightblue" d="M107.05,-65.45C135.07,-62.64 195.02,-56.65 236.77,-52.47"/>
<polygon fill="midnightblue" stroke="midnightblue" points="237.36,-55.93 246.96,-51.45 236.66,-48.97 237.36,-55.93"/>
</g>
<!-- Node6 -->
<g id="node6" class="node">
<title>Node6</title>
<g id="a_node6"><a xlink:href="../../de/d7b/group__vec__3d.html#gae4a49e6bdf13df949e8b23c7925bb5f5" target="_top" xlink:title="Compute the vector product of two 3d vectors.">
<polygon fill="white" stroke="black" points="143,-0.5 143,-19.5 211,-19.5 211,-0.5 143,-0.5"/>
<text text-anchor="middle" x="177" y="-7.5" font-family="Helvetica,sans-Serif" font-size="10.00">vector_prod</text>
</a>
</g>
</g>
<!-- Node2&#45;&gt;Node6 -->
<g id="edge8" class="edge">
<title>Node2&#45;&gt;Node6</title>
<path fill="none" stroke="midnightblue" d="M105.83,-57.33C118.9,-48.52 138.42,-35.35 153.55,-25.14"/>
<polygon fill="midnightblue" stroke="midnightblue" points="155.54,-28.02 161.88,-19.53 151.63,-22.22 155.54,-28.02"/>
</g>
<!-- Node4&#45;&gt;Node3 -->
<g id="edge4" class="edge">
<title>Node4&#45;&gt;Node3</title>
<path fill="none" stroke="midnightblue" d="M206.51,-86C242.48,-86 304.35,-86 343.67,-86"/>
<polygon fill="midnightblue" stroke="midnightblue" points="343.88,-89.5 353.88,-86 343.88,-82.5 343.88,-89.5"/>
</g>
<!-- Node4&#45;&gt;Node5 -->
<g id="edge5" class="edge">
<title>Node4&#45;&gt;Node5</title>
<path fill="none" stroke="midnightblue" d="M204.12,-76.41C216.74,-71.78 232.09,-66.14 245.78,-61.11"/>
<polygon fill="midnightblue" stroke="midnightblue" points="247.21,-64.32 255.39,-57.59 244.8,-57.75 247.21,-64.32"/>
</g>
<!-- Node5&#45;&gt;Node3 -->
<g id="edge6" class="edge">
<title>Node5&#45;&gt;Node3</title>
<path fill="none" stroke="midnightblue" d="M307.85,-57.59C319.51,-62.18 333.66,-67.75 346.32,-72.74"/>
<polygon fill="midnightblue" stroke="midnightblue" points="345.07,-76.01 355.66,-76.41 347.63,-69.49 345.07,-76.01"/>
</g>
</g>
</svg>
