<?xml version="1.0" encoding="UTF-8" standalone="no"?>
<!DOCTYPE svg PUBLIC "-//W3C//DTD SVG 1.1//EN"
 "http://www.w3.org/Graphics/SVG/1.1/DTD/svg11.dtd">
<!-- Generated by graphviz version 7.0.6 (20230106.0513)
 -->
<!-- Title: main Pages: 1 -->
<svg width="416pt" height="124pt"
 viewBox="0.00 0.00 416.00 124.00" xmlns="http://www.w3.org/2000/svg" xmlns:xlink="http://www.w3.org/1999/xlink">
<g id="graph0" class="graph" transform="scale(1 1) rotate(0) translate(4 120)">
<title>main</title>
<!-- Node1 -->
<g id="node1" class="node">
<title>Node1</title>
<g id="a_node1"><a xlink:title="Main function.">
<polygon fill="#999999" stroke="#666666" points="38,-76 0,-76 0,-57 38,-57 38,-76"/>
<text text-anchor="middle" x="19" y="-64" font-family="Helvetica,sans-Serif" font-size="10.00">main</text>
</a>
</g>
</g>
<!-- Node2 -->
<g id="node2" class="node">
<title>Node2</title>
<g id="a_node2"><a xlink:href="../../d5/db8/vectors__3d_8c.html#aa8dca7b867074164d5f45b0f3851269d" target="_top" xlink:title="Testing function.">
<polygon fill="white" stroke="#666666" points="107,-76 74,-76 74,-57 107,-57 107,-76"/>
<text text-anchor="middle" x="90.5" y="-64" font-family="Helvetica,sans-Serif" font-size="10.00">test</text>
</a>
</g>
</g>
<!-- Node1&#45;&gt;Node2 -->
<g id="edge1" class="edge">
<title>Node1&#45;&gt;Node2</title>
<path fill="none" stroke="#63b8ff" d="M38.26,-66.5C45.72,-66.5 54.5,-66.5 62.66,-66.5"/>
<polygon fill="#63b8ff" stroke="#63b8ff" points="62.44,-70 72.44,-66.5 62.44,-63 62.44,-70"/>
</g>
<!-- Node3 -->
<g id="node3" class="node">
<title>Node3</title>
<g id="a_node3"><a xlink:href="../../de/d7b/group__vec__3d.html#ga243e74d542d0d4d14fa3ae0bc2170d84" target="_top" xlink:title="Obtain the dot product of two 3D vectors.">
<polygon fill="white" stroke="#666666" points="408,-95 354,-95 354,-76 408,-76 408,-95"/>
<text text-anchor="middle" x="381" y="-83" font-family="Helvetica,sans-Serif" font-size="10.00">dot_prod</text>
</a>
</g>
</g>
<!-- Node2&#45;&gt;Node3 -->
<g id="edge2" class="edge">
<title>Node2&#45;&gt;Node3</title>
<path fill="none" stroke="#63b8ff" d="M100.67,-76.18C110.22,-85.49 126.11,-98.94 143,-104.5 210.74,-126.79 294.98,-110.34 342.61,-97.29"/>
<polygon fill="#63b8ff" stroke="#63b8ff" points="343.5,-100.68 352.15,-94.57 341.58,-93.94 343.5,-100.68"/>
</g>
<!-- Node4 -->
<g id="node4" class="node">
<title>Node4</title>
<g id="a_node4"><a xlink:href="../../de/d7b/group__vec__3d.html#ga55be1d766c8a824b35d97e79744834d8" target="_top" xlink:title="Obtain the angle between two given vectors.">
<polygon fill="white" stroke="#666666" points="206.5,-95 147.5,-95 147.5,-76 206.5,-76 206.5,-95"/>
<text text-anchor="middle" x="177" y="-83" font-family="Helvetica,sans-Serif" font-size="10.00">get_angle</text>
</a>
</g>
</g>
<!-- Node2&#45;&gt;Node4 -->
<g id="edge3" class="edge">
<title>Node2&#45;&gt;Node4</title>
<path fill="none" stroke="#63b8ff" d="M107.39,-70.07C115.61,-71.92 126.04,-74.27 136.27,-76.57"/>
<polygon fill="#63b8ff" stroke="#63b8ff" points="135.18,-79.91 145.7,-78.69 136.71,-73.08 135.18,-79.91"/>
</g>
<!-- Node5 -->
<g id="node5" class="node">
<title>Node5</title>
<g id="a_node5"><a xlink:href="../../de/d7b/group__vec__3d.html#ga94805165d037d111d7d7c0df99e3a5de" target="_top" xlink:title="Compute the norm a vector.">
<polygon fill="white" stroke="#666666" points="318,-57 247,-57 247,-38 318,-38 318,-57"/>
<text text-anchor="middle" x="282.5" y="-45" font-family="Helvetica,sans-Serif" font-size="10.00">vector_norm</text>
</a>
</g>
</g>
<!-- Node2&#45;&gt;Node5 -->
<g id="edge7" class="edge">
<title>Node2&#45;&gt;Node5</title>
<path fill="none" stroke="#63b8ff" d="M107.37,-64.91C135.25,-62.12 194,-56.25 235.53,-52.1"/>
<polygon fill="#63b8ff" stroke="#63b8ff" points="235.64,-55.6 245.24,-51.13 234.94,-48.64 235.64,-55.6"/>
</g>
<!-- Node6 -->
<g id="node6" class="node">
<title>Node6</title>
<g id="a_node6"><a xlink:href="../../de/d7b/group__vec__3d.html#gae4a49e6bdf13df949e8b23c7925bb5f5" target="_top" xlink:title="Compute the vector product of two 3d vectors.">
<polygon fill="white" stroke="#666666" points="211,-19 143,-19 143,0 211,0 211,-19"/>
<text text-anchor="middle" x="177" y="-7" font-family="Helvetica,sans-Serif" font-size="10.00">vector_prod</text>
</a>
</g>
</g>
<!-- Node2&#45;&gt;Node6 -->
<g id="edge8" class="edge">
<title>Node2&#45;&gt;Node6</title>
<path fill="none" stroke="#63b8ff" d="M106.22,-56.57C118.82,-48.07 137.21,-35.67 151.95,-25.73"/>
<polygon fill="#63b8ff" stroke="#63b8ff" points="153.86,-28.66 160.2,-20.16 149.95,-22.85 153.86,-28.66"/>
</g>
<!-- Node4&#45;&gt;Node3 -->
<g id="edge4" class="edge">
<title>Node4&#45;&gt;Node3</title>
<path fill="none" stroke="#63b8ff" d="M206.94,-85.5C242.53,-85.5 303.03,-85.5 342.25,-85.5"/>
<polygon fill="#63b8ff" stroke="#63b8ff" points="342.17,-89 352.17,-85.5 342.17,-82 342.17,-89"/>
</g>
<!-- Node4&#45;&gt;Node5 -->
<g id="edge5" class="edge">
<title>Node4&#45;&gt;Node5</title>
<path fill="none" stroke="#63b8ff" d="M205.19,-75.52C216.96,-71.2 230.93,-66.07 243.68,-61.38"/>
<polygon fill="#63b8ff" stroke="#63b8ff" points="244.89,-64.67 253.07,-57.94 242.47,-58.1 244.89,-64.67"/>
</g>
<!-- Node5&#45;&gt;Node3 -->
<g id="edge6" class="edge">
<title>Node5&#45;&gt;Node3</title>
<path fill="none" stroke="#63b8ff" d="M308.85,-57.48C319.71,-61.76 332.59,-66.83 344.38,-71.47"/>
<polygon fill="#63b8ff" stroke="#63b8ff" points="342.82,-74.62 353.41,-75.03 345.38,-68.11 342.82,-74.62"/>
</g>
</g>
</svg>
