<?xml version="1.0" encoding="UTF-8" standalone="no"?>
<!DOCTYPE svg PUBLIC "-//W3C//DTD SVG 1.1//EN"
 "http://www.w3.org/Graphics/SVG/1.1/DTD/svg11.dtd">
<!-- Generated by graphviz version 8.0.2 (20230410.1723)
 -->
<!-- Title: test Pages: 1 -->
<svg width="342pt" height="124pt"
 viewBox="0.00 0.00 342.00 124.01" xmlns="http://www.w3.org/2000/svg" xmlns:xlink="http://www.w3.org/1999/xlink">
<g id="graph0" class="graph" transform="scale(1 1) rotate(0) translate(4 120.01)">
<title>test</title>
<!-- Node1 -->
<g id="node1" class="node">
<title>Node1</title>
<g id="a_node1"><a xlink:title="Testing function.">
<polygon fill="#999999" stroke="#666666" points="33,-76 0,-76 0,-57 33,-57 33,-76"/>
<text text-anchor="middle" x="16.5" y="-64" font-family="Helvetica,sans-Serif" font-size="10.00">test</text>
</a>
</g>
</g>
<!-- Node2 -->
<g id="node2" class="node">
<title>Node2</title>
<g id="a_node2"><a xlink:href="../../de/d7b/group__vec__3d.html#ga243e74d542d0d4d14fa3ae0bc2170d84" target="_top" xlink:title="Obtain the dot product of two 3D vectors.">
<polygon fill="white" stroke="#666666" points="334,-95 280,-95 280,-76 334,-76 334,-95"/>
<text text-anchor="middle" x="307" y="-83" font-family="Helvetica,sans-Serif" font-size="10.00">dot_prod</text>
</a>
</g>
</g>
<!-- Node1&#45;&gt;Node2 -->
<g id="edge1" class="edge">
<title>Node1&#45;&gt;Node2</title>
<path fill="none" stroke="#63b8ff" d="M26.67,-76.18C36.22,-85.49 52.11,-98.94 69,-104.5 137.02,-126.88 221.69,-110.2 269.21,-97.12"/>
<polygon fill="#63b8ff" stroke="#63b8ff" points="269.95,-100.27 278.61,-94.15 268.03,-93.53 269.95,-100.27"/>
</g>
<!-- Node3 -->
<g id="node3" class="node">
<title>Node3</title>
<g id="a_node3"><a xlink:href="../../de/d7b/group__vec__3d.html#ga55be1d766c8a824b35d97e79744834d8" target="_top" xlink:title="Obtain the angle between two given vectors.">
<polygon fill="white" stroke="#666666" points="132.5,-95 73.5,-95 73.5,-76 132.5,-76 132.5,-95"/>
<text text-anchor="middle" x="103" y="-83" font-family="Helvetica,sans-Serif" font-size="10.00">get_angle</text>
</a>
</g>
</g>
<!-- Node1&#45;&gt;Node3 -->
<g id="edge2" class="edge">
<title>Node1&#45;&gt;Node3</title>
<path fill="none" stroke="#63b8ff" d="M33.39,-70.07C41.7,-71.94 52.26,-74.32 62.6,-76.64"/>
<polygon fill="#63b8ff" stroke="#63b8ff" points="61.66,-80.24 72.18,-79.02 63.19,-73.41 61.66,-80.24"/>
</g>
<!-- Node4 -->
<g id="node4" class="node">
<title>Node4</title>
<g id="a_node4"><a xlink:href="../../de/d7b/group__vec__3d.html#ga94805165d037d111d7d7c0df99e3a5de" target="_top" xlink:title="Compute the norm a vector.">
<polygon fill="white" stroke="#666666" points="244,-57 173,-57 173,-38 244,-38 244,-57"/>
<text text-anchor="middle" x="208.5" y="-45" font-family="Helvetica,sans-Serif" font-size="10.00">vector_norm</text>
</a>
</g>
</g>
<!-- Node1&#45;&gt;Node4 -->
<g id="edge6" class="edge">
<title>Node1&#45;&gt;Node4</title>
<path fill="none" stroke="#63b8ff" d="M33.37,-64.91C61.37,-62.11 120.5,-56.2 162.06,-52.04"/>
<polygon fill="#63b8ff" stroke="#63b8ff" points="162.14,-55.45 171.75,-50.98 161.45,-48.49 162.14,-55.45"/>
</g>
<!-- Node5 -->
<g id="node5" class="node">
<title>Node5</title>
<g id="a_node5"><a xlink:href="../../de/d7b/group__vec__3d.html#gae4a49e6bdf13df949e8b23c7925bb5f5" target="_top" xlink:title="Compute the vector product of two 3d vectors.">
<polygon fill="white" stroke="#666666" points="137,-19 69,-19 69,0 137,0 137,-19"/>
<text text-anchor="middle" x="103" y="-7" font-family="Helvetica,sans-Serif" font-size="10.00">vector_prod</text>
</a>
</g>
</g>
<!-- Node1&#45;&gt;Node5 -->
<g id="edge7" class="edge">
<title>Node1&#45;&gt;Node5</title>
<path fill="none" stroke="#63b8ff" d="M32.22,-56.57C44.94,-47.99 63.56,-35.43 78.37,-25.44"/>
<polygon fill="#63b8ff" stroke="#63b8ff" points="80.12,-27.81 86.45,-19.31 76.2,-22.01 80.12,-27.81"/>
</g>
<!-- Node3&#45;&gt;Node2 -->
<g id="edge3" class="edge">
<title>Node3&#45;&gt;Node2</title>
<path fill="none" stroke="#63b8ff" d="M132.94,-85.5C168.69,-85.5 229.56,-85.5 268.75,-85.5"/>
<polygon fill="#63b8ff" stroke="#63b8ff" points="268.68,-89 278.68,-85.5 268.68,-82 268.68,-89"/>
</g>
<!-- Node3&#45;&gt;Node4 -->
<g id="edge4" class="edge">
<title>Node3&#45;&gt;Node4</title>
<path fill="none" stroke="#63b8ff" d="M131.19,-75.52C143.2,-71.11 157.5,-65.86 170.45,-61.1"/>
<polygon fill="#63b8ff" stroke="#63b8ff" points="171.31,-64.15 179.49,-57.42 168.89,-57.58 171.31,-64.15"/>
</g>
<!-- Node4&#45;&gt;Node2 -->
<g id="edge5" class="edge">
<title>Node4&#45;&gt;Node2</title>
<path fill="none" stroke="#63b8ff" d="M234.85,-57.48C245.82,-61.8 258.85,-66.93 270.74,-71.62"/>
<polygon fill="#63b8ff" stroke="#63b8ff" points="269.23,-75.18 279.82,-75.58 271.79,-68.66 269.23,-75.18"/>
</g>
</g>
</svg>
