<?xml version="1.0" encoding="UTF-8" standalone="no"?>
<!DOCTYPE svg PUBLIC "-//W3C//DTD SVG 1.1//EN"
 "http://www.w3.org/Graphics/SVG/1.1/DTD/svg11.dtd">
<!-- Generated by graphviz version 6.0.1 (20220911.1526)
 -->
<!-- Title: main Pages: 1 -->
<svg width="416pt" height="124pt"
 viewBox="0.00 0.00 416.00 124.02" xmlns="http://www.w3.org/2000/svg" xmlns:xlink="http://www.w3.org/1999/xlink">
<g id="graph0" class="graph" transform="scale(1 1) rotate(0) translate(4 120.02)">
<title>main</title>
<!-- Node1 -->
<g id="node1" class="node">
<title>Node1</title>
<g id="a_node1"><a xlink:title="Main function.">
<polygon fill="#999999" stroke="#666666" points="38,-76 0,-76 0,-57 38,-57 38,-76"/>
<text text-anchor="middle" x="19" y="-64" font-family="Helvetica,sans-Serif" font-size="10.00">main</text>
</a>
</g>
</g>
<!-- Node2 -->
<g id="node2" class="node">
<title>Node2</title>
<g id="a_node2"><a xlink:href="../../d5/db8/vectors__3d_8c.html#aa8dca7b867074164d5f45b0f3851269d" target="_top" xlink:title="Testing function.">
<polygon fill="white" stroke="#666666" points="107,-76 74,-76 74,-57 107,-57 107,-76"/>
<text text-anchor="middle" x="90.5" y="-64" font-family="Helvetica,sans-Serif" font-size="10.00">test</text>
</a>
</g>
</g>
<!-- Node1&#45;&gt;Node2 -->
<g id="edge1" class="edge">
<title>Node1&#45;&gt;Node2</title>
<path fill="none" stroke="#63b8ff" d="M38.26,-66.5C46.07,-66.5 55.31,-66.5 63.79,-66.5"/>
<polygon fill="#63b8ff" stroke="#63b8ff" points="63.95,-70 73.95,-66.5 63.95,-63 63.95,-70"/>
</g>
<!-- Node3 -->
<g id="node3" class="node">
<title>Node3</title>
<g id="a_node3"><a xlink:href="../../de/d7b/group__vec__3d.html#ga243e74d542d0d4d14fa3ae0bc2170d84" target="_top" xlink:title="Obtain the dot product of two 3D vectors.">
<polygon fill="white" stroke="#666666" points="408,-95 354,-95 354,-76 408,-76 408,-95"/>
<text text-anchor="middle" x="381" y="-83" font-family="Helvetica,sans-Serif" font-size="10.00">dot_prod</text>
</a>
</g>
</g>
<!-- Node2&#45;&gt;Node3 -->
<g id="edge2" class="edge">
<title>Node2&#45;&gt;Node3</title>
<path fill="none" stroke="#63b8ff" d="M100.67,-76.18C110.22,-85.49 126.11,-98.94 143,-104.5 211.49,-127.03 296.86,-109.97 344.19,-96.85"/>
<polygon fill="#63b8ff" stroke="#63b8ff" points="345.32,-100.17 353.97,-94.05 343.39,-93.44 345.32,-100.17"/>
</g>
<!-- Node4 -->
<g id="node4" class="node">
<title>Node4</title>
<g id="a_node4"><a xlink:href="../../de/d7b/group__vec__3d.html#ga55be1d766c8a824b35d97e79744834d8" target="_top" xlink:title="Obtain the angle between two given vectors.">
<polygon fill="white" stroke="#666666" points="206.5,-95 147.5,-95 147.5,-76 206.5,-76 206.5,-95"/>
<text text-anchor="middle" x="177" y="-83" font-family="Helvetica,sans-Serif" font-size="10.00">get_angle</text>
</a>
</g>
</g>
<!-- Node2&#45;&gt;Node4 -->
<g id="edge3" class="edge">
<title>Node2&#45;&gt;Node4</title>
<path fill="none" stroke="#63b8ff" d="M107.39,-70.07C115.87,-71.98 126.71,-74.42 137.25,-76.79"/>
<polygon fill="#63b8ff" stroke="#63b8ff" points="136.66,-80.24 147.18,-79.02 138.19,-73.41 136.66,-80.24"/>
</g>
<!-- Node5 -->
<g id="node5" class="node">
<title>Node5</title>
<g id="a_node5"><a xlink:href="../../de/d7b/group__vec__3d.html#ga94805165d037d111d7d7c0df99e3a5de" target="_top" xlink:title="Compute the norm a vector.">
<polygon fill="white" stroke="#666666" points="318,-57 247,-57 247,-38 318,-38 318,-57"/>
<text text-anchor="middle" x="282.5" y="-45" font-family="Helvetica,sans-Serif" font-size="10.00">vector_norm</text>
</a>
</g>
</g>
<!-- Node2&#45;&gt;Node5 -->
<g id="edge7" class="edge">
<title>Node2&#45;&gt;Node5</title>
<path fill="none" stroke="#63b8ff" d="M107.05,-64.95C135.07,-62.14 195.02,-56.15 236.77,-51.97"/>
<polygon fill="#63b8ff" stroke="#63b8ff" points="237.36,-55.43 246.96,-50.95 236.66,-48.47 237.36,-55.43"/>
</g>
<!-- Node6 -->
<g id="node6" class="node">
<title>Node6</title>
<g id="a_node6"><a xlink:href="../../de/d7b/group__vec__3d.html#gae4a49e6bdf13df949e8b23c7925bb5f5" target="_top" xlink:title="Compute the vector product of two 3d vectors.">
<polygon fill="white" stroke="#666666" points="211,-19 143,-19 143,0 211,0 211,-19"/>
<text text-anchor="middle" x="177" y="-7" font-family="Helvetica,sans-Serif" font-size="10.00">vector_prod</text>
</a>
</g>
</g>
<!-- Node2&#45;&gt;Node6 -->
<g id="edge8" class="edge">
<title>Node2&#45;&gt;Node6</title>
<path fill="none" stroke="#63b8ff" d="M105.83,-56.83C118.9,-48.02 138.42,-34.85 153.55,-24.64"/>
<polygon fill="#63b8ff" stroke="#63b8ff" points="155.54,-27.52 161.88,-19.03 151.63,-21.72 155.54,-27.52"/>
</g>
<!-- Node4&#45;&gt;Node3 -->
<g id="edge4" class="edge">
<title>Node4&#45;&gt;Node3</title>
<path fill="none" stroke="#63b8ff" d="M206.51,-85.5C242.48,-85.5 304.35,-85.5 343.67,-85.5"/>
<polygon fill="#63b8ff" stroke="#63b8ff" points="343.88,-89 353.88,-85.5 343.88,-82 343.88,-89"/>
</g>
<!-- Node4&#45;&gt;Node5 -->
<g id="edge5" class="edge">
<title>Node4&#45;&gt;Node5</title>
<path fill="none" stroke="#63b8ff" d="M204.12,-75.91C216.74,-71.28 232.09,-65.64 245.78,-60.61"/>
<polygon fill="#63b8ff" stroke="#63b8ff" points="247.21,-63.82 255.39,-57.09 244.8,-57.25 247.21,-63.82"/>
</g>
<!-- Node5&#45;&gt;Node3 -->
<g id="edge6" class="edge">
<title>Node5&#45;&gt;Node3</title>
<path fill="none" stroke="#63b8ff" d="M307.85,-57.09C319.51,-61.68 333.66,-67.25 346.32,-72.24"/>
<polygon fill="#63b8ff" stroke="#63b8ff" points="345.07,-75.51 355.66,-75.91 347.63,-68.99 345.07,-75.51"/>
</g>
</g>
</svg>
