<?xml version="1.0" encoding="UTF-8" standalone="no"?>
<!DOCTYPE svg PUBLIC "-//W3C//DTD SVG 1.1//EN"
 "http://www.w3.org/Graphics/SVG/1.1/DTD/svg11.dtd">
<!-- Generated by graphviz version 5.0.1 (20220820.1526)
 -->
<!-- Title: test Pages: 1 -->
<svg width="342pt" height="124pt"
 viewBox="0.00 0.00 342.00 124.02" xmlns="http://www.w3.org/2000/svg" xmlns:xlink="http://www.w3.org/1999/xlink">
<g id="graph0" class="graph" transform="scale(1 1) rotate(0) translate(4 120.02)">
<title>test</title>
<!-- Node1 -->
<g id="node1" class="node">
<title>Node1</title>
<g id="a_node1"><a xlink:title="Testing function.">
<polygon fill="#999999" stroke="#666666" points="33,-76 0,-76 0,-57 33,-57 33,-76"/>
<text text-anchor="middle" x="16.5" y="-64" font-family="Helvetica,sans-Serif" font-size="10.00">test</text>
</a>
</g>
</g>
<!-- Node2 -->
<g id="node2" class="node">
<title>Node2</title>
<g id="a_node2"><a xlink:href="../../de/d7b/group__vec__3d.html#ga243e74d542d0d4d14fa3ae0bc2170d84" target="_top" xlink:title="Obtain the dot product of two 3D vectors.">
<polygon fill="white" stroke="#666666" points="334,-95 280,-95 280,-76 334,-76 334,-95"/>
<text text-anchor="middle" x="307" y="-83" font-family="Helvetica,sans-Serif" font-size="10.00">dot_prod</text>
</a>
</g>
</g>
<!-- Node1&#45;&gt;Node2 -->
<g id="edge1" class="edge">
<title>Node1&#45;&gt;Node2</title>
<path fill="none" stroke="#63b8ff" d="M26.67,-76.18C36.22,-85.49 52.11,-98.94 69,-104.5 137.49,-127.03 222.86,-109.97 270.19,-96.85"/>
<polygon fill="#63b8ff" stroke="#63b8ff" points="271.32,-100.17 279.97,-94.05 269.39,-93.44 271.32,-100.17"/>
</g>
<!-- Node3 -->
<g id="node3" class="node">
<title>Node3</title>
<g id="a_node3"><a xlink:href="../../de/d7b/group__vec__3d.html#ga55be1d766c8a824b35d97e79744834d8" target="_top" xlink:title="Obtain the angle between two given vectors.">
<polygon fill="white" stroke="#666666" points="132.5,-95 73.5,-95 73.5,-76 132.5,-76 132.5,-95"/>
<text text-anchor="middle" x="103" y="-83" font-family="Helvetica,sans-Serif" font-size="10.00">get_angle</text>
</a>
</g>
</g>
<!-- Node1&#45;&gt;Node3 -->
<g id="edge2" class="edge">
<title>Node1&#45;&gt;Node3</title>
<path fill="none" stroke="#63b8ff" d="M33.39,-70.07C41.87,-71.98 52.71,-74.42 63.25,-76.79"/>
<polygon fill="#63b8ff" stroke="#63b8ff" points="62.66,-80.24 73.18,-79.02 64.19,-73.41 62.66,-80.24"/>
</g>
<!-- Node4 -->
<g id="node4" class="node">
<title>Node4</title>
<g id="a_node4"><a xlink:href="../../de/d7b/group__vec__3d.html#ga94805165d037d111d7d7c0df99e3a5de" target="_top" xlink:title="Compute the norm a vector.">
<polygon fill="white" stroke="#666666" points="244,-57 173,-57 173,-38 244,-38 244,-57"/>
<text text-anchor="middle" x="208.5" y="-45" font-family="Helvetica,sans-Serif" font-size="10.00">vector_norm</text>
</a>
</g>
</g>
<!-- Node1&#45;&gt;Node4 -->
<g id="edge6" class="edge">
<title>Node1&#45;&gt;Node4</title>
<path fill="none" stroke="#63b8ff" d="M33.05,-64.95C61.07,-62.14 121.02,-56.15 162.77,-51.97"/>
<polygon fill="#63b8ff" stroke="#63b8ff" points="163.36,-55.43 172.96,-50.95 162.66,-48.47 163.36,-55.43"/>
</g>
<!-- Node5 -->
<g id="node5" class="node">
<title>Node5</title>
<g id="a_node5"><a xlink:href="../../de/d7b/group__vec__3d.html#gae4a49e6bdf13df949e8b23c7925bb5f5" target="_top" xlink:title="Compute the vector product of two 3d vectors.">
<polygon fill="white" stroke="#666666" points="137,-19 69,-19 69,0 137,0 137,-19"/>
<text text-anchor="middle" x="103" y="-7" font-family="Helvetica,sans-Serif" font-size="10.00">vector_prod</text>
</a>
</g>
</g>
<!-- Node1&#45;&gt;Node5 -->
<g id="edge7" class="edge">
<title>Node1&#45;&gt;Node5</title>
<path fill="none" stroke="#63b8ff" d="M31.83,-56.83C44.9,-48.02 64.42,-34.85 79.55,-24.64"/>
<polygon fill="#63b8ff" stroke="#63b8ff" points="81.54,-27.52 87.88,-19.03 77.63,-21.72 81.54,-27.52"/>
</g>
<!-- Node3&#45;&gt;Node2 -->
<g id="edge3" class="edge">
<title>Node3&#45;&gt;Node2</title>
<path fill="none" stroke="#63b8ff" d="M132.51,-85.5C168.48,-85.5 230.35,-85.5 269.67,-85.5"/>
<polygon fill="#63b8ff" stroke="#63b8ff" points="269.88,-89 279.88,-85.5 269.88,-82 269.88,-89"/>
</g>
<!-- Node3&#45;&gt;Node4 -->
<g id="edge4" class="edge">
<title>Node3&#45;&gt;Node4</title>
<path fill="none" stroke="#63b8ff" d="M130.12,-75.91C142.74,-71.28 158.09,-65.64 171.78,-60.61"/>
<polygon fill="#63b8ff" stroke="#63b8ff" points="173.21,-63.82 181.39,-57.09 170.8,-57.25 173.21,-63.82"/>
</g>
<!-- Node4&#45;&gt;Node2 -->
<g id="edge5" class="edge">
<title>Node4&#45;&gt;Node2</title>
<path fill="none" stroke="#63b8ff" d="M233.85,-57.09C245.51,-61.68 259.66,-67.25 272.32,-72.24"/>
<polygon fill="#63b8ff" stroke="#63b8ff" points="271.07,-75.51 281.66,-75.91 273.63,-68.99 271.07,-75.51"/>
</g>
</g>
</svg>
