<?xml version="1.0" encoding="UTF-8" standalone="no"?>
<!DOCTYPE svg PUBLIC "-//W3C//DTD SVG 1.1//EN"
 "http://www.w3.org/Graphics/SVG/1.1/DTD/svg11.dtd">
<!-- Generated by graphviz version 2.49.3 (20211023.0002)
 -->
<!-- Title: main Pages: 1 -->
<svg width="420pt" height="125pt"
 viewBox="0.00 0.00 420.00 124.69" xmlns="http://www.w3.org/2000/svg" xmlns:xlink="http://www.w3.org/1999/xlink">
<g id="graph0" class="graph" transform="scale(1 1) rotate(0) translate(4 120.69)">
<title>main</title>
<polygon fill="white" stroke="transparent" points="-4,4 -4,-120.69 416,-120.69 416,4 -4,4"/>
<!-- Node1 -->
<g id="node1" class="node">
<title>Node1</title>
<g id="a_node1"><a xlink:title="Main function.">
<polygon fill="#bfbfbf" stroke="black" points="0,-57.5 0,-76.5 38,-76.5 38,-57.5 0,-57.5"/>
<text text-anchor="middle" x="19" y="-64.5" font-family="Helvetica,sans-Serif" font-size="10.00">main</text>
</a>
</g>
</g>
<!-- Node2 -->
<g id="node2" class="node">
<title>Node2</title>
<g id="a_node2"><a xlink:href="../../d5/db8/vectors__3d_8c.html#aa8dca7b867074164d5f45b0f3851269d" target="_top" xlink:title="Testing function.">
<polygon fill="white" stroke="black" points="74,-57.5 74,-76.5 107,-76.5 107,-57.5 74,-57.5"/>
<text text-anchor="middle" x="90.5" y="-64.5" font-family="Helvetica,sans-Serif" font-size="10.00">test</text>
</a>
</g>
</g>
<!-- Node1&#45;&gt;Node2 -->
<g id="edge1" class="edge">
<title>Node1&#45;&gt;Node2</title>
<path fill="none" stroke="midnightblue" d="M38.26,-67C46.07,-67 55.31,-67 63.79,-67"/>
<polygon fill="midnightblue" stroke="midnightblue" points="63.95,-70.5 73.95,-67 63.95,-63.5 63.95,-70.5"/>
</g>
<!-- Node3 -->
<g id="node3" class="node">
<title>Node3</title>
<g id="a_node3"><a xlink:href="../../de/d7b/group__vec__3d.html#ga243e74d542d0d4d14fa3ae0bc2170d84" target="_top" xlink:title="Obtain the dot product of two 3D vectors.">
<polygon fill="white" stroke="black" points="356,-76.5 356,-95.5 412,-95.5 412,-76.5 356,-76.5"/>
<text text-anchor="middle" x="384" y="-83.5" font-family="Helvetica,sans-Serif" font-size="10.00">dot_prod</text>
</a>
</g>
</g>
<!-- Node2&#45;&gt;Node3 -->
<g id="edge2" class="edge">
<title>Node2&#45;&gt;Node3</title>
<path fill="none" stroke="midnightblue" d="M100.67,-76.68C110.22,-85.99 126.11,-99.44 143,-105 212.13,-127.74 298.24,-110.76 346.26,-97.57"/>
<polygon fill="midnightblue" stroke="midnightblue" points="347.25,-100.93 355.91,-94.83 345.33,-94.19 347.25,-100.93"/>
</g>
<!-- Node4 -->
<g id="node4" class="node">
<title>Node4</title>
<g id="a_node4"><a xlink:href="../../de/d7b/group__vec__3d.html#ga55be1d766c8a824b35d97e79744834d8" target="_top" xlink:title="Obtain the angle between two given vectors.">
<polygon fill="white" stroke="black" points="147.5,-76.5 147.5,-95.5 207.5,-95.5 207.5,-76.5 147.5,-76.5"/>
<text text-anchor="middle" x="177.5" y="-83.5" font-family="Helvetica,sans-Serif" font-size="10.00">get_angle</text>
</a>
</g>
</g>
<!-- Node2&#45;&gt;Node4 -->
<g id="edge3" class="edge">
<title>Node2&#45;&gt;Node4</title>
<path fill="none" stroke="midnightblue" d="M107.09,-70.48C115.59,-72.38 126.53,-74.83 137.19,-77.21"/>
<polygon fill="midnightblue" stroke="midnightblue" points="136.73,-80.7 147.25,-79.46 138.26,-73.86 136.73,-80.7"/>
</g>
<!-- Node5 -->
<g id="node5" class="node">
<title>Node5</title>
<g id="a_node5"><a xlink:href="../../de/d7b/group__vec__3d.html#ga94805165d037d111d7d7c0df99e3a5de" target="_top" xlink:title="Compute the norm a vector.">
<polygon fill="white" stroke="black" points="248,-38.5 248,-57.5 320,-57.5 320,-38.5 248,-38.5"/>
<text text-anchor="middle" x="284" y="-45.5" font-family="Helvetica,sans-Serif" font-size="10.00">vector_norm</text>
</a>
</g>
</g>
<!-- Node2&#45;&gt;Node5 -->
<g id="edge7" class="edge">
<title>Node2&#45;&gt;Node5</title>
<path fill="none" stroke="midnightblue" d="M107.17,-65.45C135.39,-62.64 195.74,-56.66 237.82,-52.48"/>
<polygon fill="midnightblue" stroke="midnightblue" points="238.22,-55.96 247.82,-51.49 237.53,-48.99 238.22,-55.96"/>
</g>
<!-- Node6 -->
<g id="node6" class="node">
<title>Node6</title>
<g id="a_node6"><a xlink:href="../../de/d7b/group__vec__3d.html#gae4a49e6bdf13df949e8b23c7925bb5f5" target="_top" xlink:title="Compute the vector product of two 3d vectors.">
<polygon fill="white" stroke="black" points="143,-0.5 143,-19.5 212,-19.5 212,-0.5 143,-0.5"/>
<text text-anchor="middle" x="177.5" y="-7.5" font-family="Helvetica,sans-Serif" font-size="10.00">vector_prod</text>
</a>
</g>
</g>
<!-- Node2&#45;&gt;Node6 -->
<g id="edge8" class="edge">
<title>Node2&#45;&gt;Node6</title>
<path fill="none" stroke="midnightblue" d="M105.92,-57.33C119.06,-48.52 138.7,-35.35 153.92,-25.14"/>
<polygon fill="midnightblue" stroke="midnightblue" points="155.94,-28 162.29,-19.53 152.04,-22.19 155.94,-28"/>
</g>
<!-- Node4&#45;&gt;Node3 -->
<g id="edge4" class="edge">
<title>Node4&#45;&gt;Node3</title>
<path fill="none" stroke="midnightblue" d="M207.8,-86C244.09,-86 305.98,-86 345.65,-86"/>
<polygon fill="midnightblue" stroke="midnightblue" points="345.72,-89.5 355.72,-86 345.72,-82.5 345.72,-89.5"/>
</g>
<!-- Node4&#45;&gt;Node5 -->
<g id="edge5" class="edge">
<title>Node4&#45;&gt;Node5</title>
<path fill="none" stroke="midnightblue" d="M204.87,-76.41C217.62,-71.78 233.11,-66.14 246.93,-61.11"/>
<polygon fill="midnightblue" stroke="midnightblue" points="248.44,-64.29 256.64,-57.59 246.04,-57.71 248.44,-64.29"/>
</g>
<!-- Node5&#45;&gt;Node3 -->
<g id="edge6" class="edge">
<title>Node5&#45;&gt;Node3</title>
<path fill="none" stroke="midnightblue" d="M309.73,-57.59C321.57,-62.18 335.94,-67.75 348.8,-72.74"/>
<polygon fill="midnightblue" stroke="midnightblue" points="347.69,-76.06 358.28,-76.41 350.22,-69.54 347.69,-76.06"/>
</g>
</g>
</svg>
