<?xml version="1.0" encoding="UTF-8" standalone="no"?>
<!DOCTYPE svg PUBLIC "-//W3C//DTD SVG 1.1//EN"
 "http://www.w3.org/Graphics/SVG/1.1/DTD/svg11.dtd">
<!-- Generated by graphviz version 9.0.0 (20230911.1827)
 -->
<!-- Title: main Pages: 1 -->
<svg width="412pt" height="124pt"
 viewBox="0.00 0.00 412.00 124.04" xmlns="http://www.w3.org/2000/svg" xmlns:xlink="http://www.w3.org/1999/xlink">
<g id="graph0" class="graph" transform="scale(1 1) rotate(0) translate(4 120.04)">
<title>main</title>
<!-- Node1 -->
<g id="Node000001" class="node">
<title>Node1</title>
<g id="a_Node000001"><a xlink:title="Main function.">
<polygon fill="#999999" stroke="#666666" points="37,-76.25 0,-76.25 0,-57 37,-57 37,-76.25"/>
<text text-anchor="middle" x="18.5" y="-62.75" font-family="Helvetica,sans-Serif" font-size="10.00">main</text>
</a>
</g>
</g>
<!-- Node2 -->
<g id="Node000002" class="node">
<title>Node2</title>
<g id="a_Node000002"><a xlink:href="../../d5/db8/vectors__3d_8c.html#aa8dca7b867074164d5f45b0f3851269d" target="_top" xlink:title="Testing function.">
<polygon fill="white" stroke="#666666" points="105.5,-76.25 73,-76.25 73,-57 105.5,-57 105.5,-76.25"/>
<text text-anchor="middle" x="89.25" y="-62.75" font-family="Helvetica,sans-Serif" font-size="10.00">test</text>
</a>
</g>
</g>
<!-- Node1&#45;&gt;Node2 -->
<g id="edge1_Node000001_Node000002" class="edge">
<title>Node1&#45;&gt;Node2</title>
<g id="a_edge1_Node000001_Node000002"><a xlink:title=" ">
<path fill="none" stroke="#63b8ff" d="M37.2,-66.62C44.58,-66.62 53.31,-66.62 61.45,-66.62"/>
<polygon fill="#63b8ff" stroke="#63b8ff" points="61.2,-70.13 71.2,-66.63 61.2,-63.13 61.2,-70.13"/>
</a>
</g>
</g>
<!-- Node3 -->
<g id="Node000003" class="node">
<title>Node3</title>
<g id="a_Node000003"><a xlink:href="../../de/d7b/group__vec__3d.html#ga243e74d542d0d4d14fa3ae0bc2170d84" target="_top" xlink:title="Obtain the dot product of two 3D vectors.">
<polygon fill="white" stroke="#666666" points="404,-95.25 350.5,-95.25 350.5,-76 404,-76 404,-95.25"/>
<text text-anchor="middle" x="377.25" y="-81.75" font-family="Helvetica,sans-Serif" font-size="10.00">dot_prod</text>
</a>
</g>
</g>
<!-- Node2&#45;&gt;Node3 -->
<g id="edge2_Node000002_Node000003" class="edge">
<title>Node2&#45;&gt;Node3</title>
<g id="a_edge2_Node000002_Node000003"><a xlink:title=" ">
<path fill="none" stroke="#63b8ff" d="M99.73,-76.65C109.25,-85.95 124.88,-99.14 141.5,-104.62 208.57,-126.78 292.02,-110.38 339.2,-97.37"/>
<polygon fill="#63b8ff" stroke="#63b8ff" points="340,-100.79 348.65,-94.67 338.07,-94.06 340,-100.79"/>
</a>
</g>
</g>
<!-- Node4 -->
<g id="Node000004" class="node">
<title>Node4</title>
<g id="a_Node000004"><a xlink:href="../../de/d7b/group__vec__3d.html#ga55be1d766c8a824b35d97e79744834d8" target="_top" xlink:title="Obtain the angle between two given vectors.">
<polygon fill="white" stroke="#666666" points="204,-95.25 146,-95.25 146,-76 204,-76 204,-95.25"/>
<text text-anchor="middle" x="175" y="-81.75" font-family="Helvetica,sans-Serif" font-size="10.00">get_angle</text>
</a>
</g>
</g>
<!-- Node2&#45;&gt;Node4 -->
<g id="edge3_Node000002_Node000004" class="edge">
<title>Node2&#45;&gt;Node4</title>
<g id="a_edge3_Node000002_Node000004"><a xlink:title=" ">
<path fill="none" stroke="#63b8ff" d="M105.61,-70.11C113.8,-71.97 124.27,-74.34 134.56,-76.68"/>
<polygon fill="#63b8ff" stroke="#63b8ff" points="133.52,-80.03 144.05,-78.83 135.07,-73.2 133.52,-80.03"/>
</a>
</g>
</g>
<!-- Node5 -->
<g id="Node000005" class="node">
<title>Node5</title>
<g id="a_Node000005"><a xlink:href="../../de/d7b/group__vec__3d.html#ga94805165d037d111d7d7c0df99e3a5de" target="_top" xlink:title="Compute the norm a vector.">
<polygon fill="white" stroke="#666666" points="314.5,-57.25 244.5,-57.25 244.5,-38 314.5,-38 314.5,-57.25"/>
<text text-anchor="middle" x="279.5" y="-43.75" font-family="Helvetica,sans-Serif" font-size="10.00">vector_norm</text>
</a>
</g>
</g>
<!-- Node2&#45;&gt;Node5 -->
<g id="edge7_Node000002_Node000005" class="edge">
<title>Node2&#45;&gt;Node5</title>
<g id="a_edge7_Node000002_Node000005"><a xlink:title=" ">
<path fill="none" stroke="#63b8ff" d="M105.98,-65.04C133.54,-62.26 191.56,-56.4 232.69,-52.25"/>
<polygon fill="#63b8ff" stroke="#63b8ff" points="232.96,-55.74 242.56,-51.25 232.26,-48.77 232.96,-55.74"/>
</a>
</g>
</g>
<!-- Node6 -->
<g id="Node000006" class="node">
<title>Node6</title>
<g id="a_Node000006"><a xlink:href="../../de/d7b/group__vec__3d.html#gae4a49e6bdf13df949e8b23c7925bb5f5" target="_top" xlink:title="Compute the vector product of two 3d vectors.">
<polygon fill="white" stroke="#666666" points="208.5,-19.25 141.5,-19.25 141.5,0 208.5,0 208.5,-19.25"/>
<text text-anchor="middle" x="175" y="-5.75" font-family="Helvetica,sans-Serif" font-size="10.00">vector_prod</text>
</a>
</g>
</g>
<!-- Node2&#45;&gt;Node6 -->
<g id="edge8_Node000002_Node000006" class="edge">
<title>Node2&#45;&gt;Node6</title>
<g id="a_edge8_Node000002_Node000006"><a xlink:title=" ">
<path fill="none" stroke="#63b8ff" d="M104.84,-56.7C117.25,-48.25 135.33,-35.94 149.89,-26.03"/>
<polygon fill="#63b8ff" stroke="#63b8ff" points="151.75,-29 158.05,-20.48 147.81,-23.22 151.75,-29"/>
</a>
</g>
</g>
<!-- Node4&#45;&gt;Node3 -->
<g id="edge4_Node000004_Node000003" class="edge">
<title>Node4&#45;&gt;Node3</title>
<g id="a_edge4_Node000004_Node000003"><a xlink:title=" ">
<path fill="none" stroke="#63b8ff" d="M204.27,-85.62C239.44,-85.62 299.62,-85.62 338.65,-85.62"/>
<polygon fill="#63b8ff" stroke="#63b8ff" points="338.53,-89.13 348.53,-85.63 338.53,-82.13 338.53,-89.13"/>
</a>
</g>
</g>
<!-- Node4&#45;&gt;Node5 -->
<g id="edge5_Node000004_Node000005" class="edge">
<title>Node4&#45;&gt;Node5</title>
<g id="a_edge5_Node000004_Node000005"><a xlink:title=" ">
<path fill="none" stroke="#63b8ff" d="M203.2,-75.54C214.76,-71.26 228.43,-66.19 240.93,-61.55"/>
<polygon fill="#63b8ff" stroke="#63b8ff" points="241.95,-64.91 250.11,-58.15 239.52,-58.34 241.95,-64.91"/>
</a>
</g>
</g>
<!-- Node5&#45;&gt;Node3 -->
<g id="edge6_Node000005_Node000003" class="edge">
<title>Node5&#45;&gt;Node3</title>
<g id="a_edge6_Node000005_Node000003"><a xlink:title=" ">
<path fill="none" stroke="#63b8ff" d="M305.91,-57.71C316.49,-61.91 328.96,-66.86 340.44,-71.41"/>
<polygon fill="#63b8ff" stroke="#63b8ff" points="339.06,-74.63 349.65,-75.07 341.65,-68.13 339.06,-74.63"/>
</a>
</g>
</g>
</g>
</svg>
