<?xml version="1.0" encoding="UTF-8" standalone="no"?>
<!DOCTYPE svg PUBLIC "-//W3C//DTD SVG 1.1//EN"
 "http://www.w3.org/Graphics/SVG/1.1/DTD/svg11.dtd">
<!-- Generated by graphviz version 2.49.3 (20211023.0002)
 -->
<!-- Title: data_structures/binary_trees/words_alphabetical.c Pages: 1 -->
<svg width="478pt" height="95pt"
 viewBox="0.00 0.00 477.50 95.00" xmlns="http://www.w3.org/2000/svg" xmlns:xlink="http://www.w3.org/1999/xlink">
<g id="graph0" class="graph" transform="scale(1 1) rotate(0) translate(4 91)">
<title>data_structures/binary_trees/words_alphabetical.c</title>
<polygon fill="white" stroke="transparent" points="-4,4 -4,-91 473.5,-91 473.5,4 -4,4"/>
<!-- Node1 -->
<g id="node1" class="node">
<title>Node1</title>
<g id="a_node1"><a xlink:title="Printing the words contained in a file named file.txt in alphabetical order and also their frequencie...">
<polygon fill="#bfbfbf" stroke="black" points="173,-56.5 173,-86.5 313,-86.5 313,-56.5 173,-56.5"/>
<text text-anchor="start" x="181" y="-74.5" font-family="Helvetica,sans-Serif" font-size="10.00">data_structures/binary</text>
<text text-anchor="middle" x="243" y="-63.5" font-family="Helvetica,sans-Serif" font-size="10.00">_trees/words_alphabetical.c</text>
</a>
</g>
</g>
<!-- Node2 -->
<g id="node2" class="node">
<title>Node2</title>
<g id="a_node2"><a xlink:title=" ">
<polygon fill="white" stroke="#bfbfbf" points="0,-0.5 0,-19.5 52,-19.5 52,-0.5 0,-0.5"/>
<text text-anchor="middle" x="26" y="-7.5" font-family="Helvetica,sans-Serif" font-size="10.00">assert.h</text>
</a>
</g>
</g>
<!-- Node1&#45;&gt;Node2 -->
<g id="edge1" class="edge">
<title>Node1&#45;&gt;Node2</title>
<path fill="none" stroke="midnightblue" d="M191.85,-56.47C151.93,-45.53 97.49,-30.6 62.04,-20.88"/>
<polygon fill="midnightblue" stroke="midnightblue" points="62.7,-17.43 52.13,-18.17 60.85,-24.19 62.7,-17.43"/>
</g>
<!-- Node3 -->
<g id="node3" class="node">
<title>Node3</title>
<g id="a_node3"><a xlink:title=" ">
<polygon fill="white" stroke="#bfbfbf" points="70.5,-0.5 70.5,-19.5 119.5,-19.5 119.5,-0.5 70.5,-0.5"/>
<text text-anchor="middle" x="95" y="-7.5" font-family="Helvetica,sans-Serif" font-size="10.00">ctype.h</text>
</a>
</g>
</g>
<!-- Node1&#45;&gt;Node3 -->
<g id="edge2" class="edge">
<title>Node1&#45;&gt;Node3</title>
<path fill="none" stroke="midnightblue" d="M207.93,-56.4C182.98,-46.37 149.79,-33.03 125.86,-23.4"/>
<polygon fill="midnightblue" stroke="midnightblue" points="127.12,-20.14 116.54,-19.66 124.51,-26.64 127.12,-20.14"/>
</g>
<!-- Node4 -->
<g id="node4" class="node">
<title>Node4</title>
<g id="a_node4"><a xlink:title=" ">
<polygon fill="white" stroke="#bfbfbf" points="137.5,-0.5 137.5,-19.5 196.5,-19.5 196.5,-0.5 137.5,-0.5"/>
<text text-anchor="middle" x="167" y="-7.5" font-family="Helvetica,sans-Serif" font-size="10.00">inttypes.h</text>
</a>
</g>
</g>
<!-- Node1&#45;&gt;Node4 -->
<g id="edge3" class="edge">
<title>Node1&#45;&gt;Node4</title>
<path fill="none" stroke="midnightblue" d="M224.99,-56.4C213.26,-47.22 197.98,-35.26 186.06,-25.92"/>
<polygon fill="midnightblue" stroke="midnightblue" points="188.09,-23.07 178.06,-19.66 183.78,-28.58 188.09,-23.07"/>
</g>
<!-- Node5 -->
<g id="node5" class="node">
<title>Node5</title>
<g id="a_node5"><a xlink:title=" ">
<polygon fill="white" stroke="#bfbfbf" points="214.5,-0.5 214.5,-19.5 271.5,-19.5 271.5,-0.5 214.5,-0.5"/>
<text text-anchor="middle" x="243" y="-7.5" font-family="Helvetica,sans-Serif" font-size="10.00">stdbool.h</text>
</a>
</g>
</g>
<!-- Node1&#45;&gt;Node5 -->
<g id="edge4" class="edge">
<title>Node1&#45;&gt;Node5</title>
<path fill="none" stroke="midnightblue" d="M243,-56.4C243,-48.47 243,-38.46 243,-29.86"/>
<polygon fill="midnightblue" stroke="midnightblue" points="246.5,-29.66 243,-19.66 239.5,-29.66 246.5,-29.66"/>
</g>
<!-- Node6 -->
<g id="node6" class="node">
<title>Node6</title>
<g id="a_node6"><a xlink:title=" ">
<polygon fill="white" stroke="#bfbfbf" points="290,-0.5 290,-19.5 336,-19.5 336,-0.5 290,-0.5"/>
<text text-anchor="middle" x="313" y="-7.5" font-family="Helvetica,sans-Serif" font-size="10.00">stdio.h</text>
</a>
</g>
</g>
<!-- Node1&#45;&gt;Node6 -->
<g id="edge5" class="edge">
<title>Node1&#45;&gt;Node6</title>
<path fill="none" stroke="midnightblue" d="M259.59,-56.4C270.29,-47.31 284.19,-35.49 295.13,-26.19"/>
<polygon fill="midnightblue" stroke="midnightblue" points="297.46,-28.8 302.81,-19.66 292.93,-23.47 297.46,-28.8"/>
</g>
<!-- Node7 -->
<g id="node7" class="node">
<title>Node7</title>
<g id="a_node7"><a xlink:title=" ">
<polygon fill="white" stroke="#bfbfbf" points="354,-0.5 354,-19.5 402,-19.5 402,-0.5 354,-0.5"/>
<text text-anchor="middle" x="378" y="-7.5" font-family="Helvetica,sans-Serif" font-size="10.00">stdlib.h</text>
</a>
</g>
</g>
<!-- Node1&#45;&gt;Node7 -->
<g id="edge6" class="edge">
<title>Node1&#45;&gt;Node7</title>
<path fill="none" stroke="midnightblue" d="M274.99,-56.4C297.44,-46.51 327.21,-33.38 348.98,-23.79"/>
<polygon fill="midnightblue" stroke="midnightblue" points="350.62,-26.89 358.36,-19.66 347.79,-20.49 350.62,-26.89"/>
</g>
<!-- Node8 -->
<g id="node8" class="node">
<title>Node8</title>
<g id="a_node8"><a xlink:title=" ">
<polygon fill="white" stroke="#bfbfbf" points="420.5,-0.5 420.5,-19.5 469.5,-19.5 469.5,-0.5 420.5,-0.5"/>
<text text-anchor="middle" x="445" y="-7.5" font-family="Helvetica,sans-Serif" font-size="10.00">string.h</text>
</a>
</g>
</g>
<!-- Node1&#45;&gt;Node8 -->
<g id="edge7" class="edge">
<title>Node1&#45;&gt;Node8</title>
<path fill="none" stroke="midnightblue" d="M290.62,-56.47C327.51,-45.61 377.73,-30.81 410.74,-21.09"/>
<polygon fill="midnightblue" stroke="midnightblue" points="411.79,-24.43 420.4,-18.25 409.82,-17.71 411.79,-24.43"/>
</g>
</g>
</svg>
