<?xml version="1.0" encoding="UTF-8" standalone="no"?>
<!DOCTYPE svg PUBLIC "-//W3C//DTD SVG 1.1//EN"
 "http://www.w3.org/Graphics/SVG/1.1/DTD/svg11.dtd">
<!-- Generated by graphviz version 9.0.0 (20230911.1827)
 -->
<!-- Title: math/prime.c Pages: 1 -->
<svg width="261pt" height="83pt"
 viewBox="0.00 0.00 261.25 82.50" xmlns="http://www.w3.org/2000/svg" xmlns:xlink="http://www.w3.org/1999/xlink">
<g id="graph0" class="graph" transform="scale(1 1) rotate(0) translate(4 78.5)">
<title>math/prime.c</title>
<!-- Node1 -->
<g id="Node000001" class="node">
<title>Node1</title>
<g id="a_Node000001"><a xlink:title="Program to identify if a number is prime number or not.">
<polygon fill="#999999" stroke="#666666" points="163.12,-74.5 90.12,-74.5 90.12,-55.25 163.12,-55.25 163.12,-74.5"/>
<text text-anchor="middle" x="126.62" y="-61" font-family="Helvetica,sans-Serif" font-size="10.00">math/prime.c</text>
</a>
</g>
</g>
<!-- Node2 -->
<g id="Node000002" class="node">
<title>Node2</title>
<g id="a_Node000002"><a xlink:title=" ">
<polygon fill="#e0e0e0" stroke="#999999" points="51.25,-19.25 0,-19.25 0,0 51.25,0 51.25,-19.25"/>
<text text-anchor="middle" x="25.62" y="-5.75" font-family="Helvetica,sans-Serif" font-size="10.00">assert.h</text>
</a>
</g>
</g>
<!-- Node1&#45;&gt;Node2 -->
<g id="edge1_Node000001_Node000002" class="edge">
<title>Node1&#45;&gt;Node2</title>
<g id="a_edge1_Node000001_Node000002"><a xlink:title=" ">
<path fill="none" stroke="#63b8ff" d="M109.49,-54.84C93.97,-46.66 70.82,-34.46 52.78,-24.94"/>
<polygon fill="#63b8ff" stroke="#63b8ff" points="54.66,-21.98 44.18,-20.41 51.39,-28.17 54.66,-21.98"/>
</a>
</g>
</g>
<!-- Node3 -->
<g id="Node000003" class="node">
<title>Node3</title>
<g id="a_Node000003"><a xlink:title=" ">
<polygon fill="#e0e0e0" stroke="#999999" points="115.62,-19.25 69.62,-19.25 69.62,0 115.62,0 115.62,-19.25"/>
<text text-anchor="middle" x="92.62" y="-5.75" font-family="Helvetica,sans-Serif" font-size="10.00">math.h</text>
</a>
</g>
</g>
<!-- Node1&#45;&gt;Node3 -->
<g id="edge2_Node000001_Node000003" class="edge">
<title>Node1&#45;&gt;Node3</title>
<g id="a_edge2_Node000001_Node000003"><a xlink:title=" ">
<path fill="none" stroke="#63b8ff" d="M121.01,-55.08C116.51,-48.03 110.04,-37.9 104.41,-29.08"/>
<polygon fill="#63b8ff" stroke="#63b8ff" points="107.51,-27.43 99.18,-20.88 101.61,-31.2 107.51,-27.43"/>
</a>
</g>
</g>
<!-- Node4 -->
<g id="Node000004" class="node">
<title>Node4</title>
<g id="a_Node000004"><a xlink:title=" ">
<polygon fill="#e0e0e0" stroke="#999999" points="189.5,-19.25 133.75,-19.25 133.75,0 189.5,0 189.5,-19.25"/>
<text text-anchor="middle" x="161.62" y="-5.75" font-family="Helvetica,sans-Serif" font-size="10.00">stdbool.h</text>
</a>
</g>
</g>
<!-- Node1&#45;&gt;Node4 -->
<g id="edge3_Node000001_Node000004" class="edge">
<title>Node1&#45;&gt;Node4</title>
<g id="a_edge3_Node000001_Node000004"><a xlink:title=" ">
<path fill="none" stroke="#63b8ff" d="M132.4,-55.08C137.04,-48.03 143.7,-37.9 149.49,-29.08"/>
<polygon fill="#63b8ff" stroke="#63b8ff" points="152.32,-31.15 154.89,-20.87 146.47,-27.31 152.32,-31.15"/>
</a>
</g>
</g>
<!-- Node5 -->
<g id="Node000005" class="node">
<title>Node5</title>
<g id="a_Node000005"><a xlink:title=" ">
<polygon fill="#e0e0e0" stroke="#999999" points="253.25,-19.25 208,-19.25 208,0 253.25,0 253.25,-19.25"/>
<text text-anchor="middle" x="230.62" y="-5.75" font-family="Helvetica,sans-Serif" font-size="10.00">stdio.h</text>
</a>
</g>
</g>
<!-- Node1&#45;&gt;Node5 -->
<g id="edge4_Node000001_Node000005" class="edge">
<title>Node1&#45;&gt;Node5</title>
<g id="a_edge4_Node000001_Node000005"><a xlink:title=" ">
<path fill="none" stroke="#63b8ff" d="M144.27,-54.84C160.25,-46.66 184.08,-34.46 202.66,-24.94"/>
<polygon fill="#63b8ff" stroke="#63b8ff" points="204.24,-28.07 211.55,-20.39 201.05,-21.83 204.24,-28.07"/>
</a>
</g>
</g>
</g>
</svg>
