<?xml version="1.0" encoding="UTF-8" standalone="no"?>
<!DOCTYPE svg PUBLIC "-//W3C//DTD SVG 1.1//EN"
 "http://www.w3.org/Graphics/SVG/1.1/DTD/svg11.dtd">
<!-- Generated by graphviz version 6.0.1 (20220911.1526)
 -->
<!-- Title: misc/prime.c Pages: 1 -->
<svg width="264pt" height="82pt"
 viewBox="0.00 0.00 264.00 82.00" xmlns="http://www.w3.org/2000/svg" xmlns:xlink="http://www.w3.org/1999/xlink">
<g id="graph0" class="graph" transform="scale(1 1) rotate(0) translate(4 78)">
<title>misc/prime.c</title>
<!-- Node1 -->
<g id="node1" class="node">
<title>Node1</title>
<g id="a_node1"><a xlink:title="Program to identify if a number is prime number or not.">
<polygon fill="#999999" stroke="#666666" points="165.5,-74 92.5,-74 92.5,-55 165.5,-55 165.5,-74"/>
<text text-anchor="middle" x="129" y="-62" font-family="Helvetica,sans-Serif" font-size="10.00">misc/prime.c</text>
</a>
</g>
</g>
<!-- Node2 -->
<g id="node2" class="node">
<title>Node2</title>
<g id="a_node2"><a xlink:title=" ">
<polygon fill="#e0e0e0" stroke="#999999" points="52,-19 0,-19 0,0 52,0 52,-19"/>
<text text-anchor="middle" x="26" y="-7" font-family="Helvetica,sans-Serif" font-size="10.00">assert.h</text>
</a>
</g>
</g>
<!-- Node1&#45;&gt;Node2 -->
<g id="edge1" class="edge">
<title>Node1&#45;&gt;Node2</title>
<path fill="none" stroke="#63b8ff" d="M112.45,-54.98C96.11,-46.57 70.87,-33.59 51.87,-23.81"/>
<polygon fill="#63b8ff" stroke="#63b8ff" points="53.34,-20.63 42.85,-19.17 50.14,-26.86 53.34,-20.63"/>
</g>
<!-- Node3 -->
<g id="node3" class="node">
<title>Node3</title>
<g id="a_node3"><a xlink:title=" ">
<polygon fill="#e0e0e0" stroke="#999999" points="117.5,-19 70.5,-19 70.5,0 117.5,0 117.5,-19"/>
<text text-anchor="middle" x="94" y="-7" font-family="Helvetica,sans-Serif" font-size="10.00">math.h</text>
</a>
</g>
</g>
<!-- Node1&#45;&gt;Node3 -->
<g id="edge2" class="edge">
<title>Node1&#45;&gt;Node3</title>
<path fill="none" stroke="#63b8ff" d="M123.22,-54.75C118.38,-47.42 111.32,-36.73 105.36,-27.7"/>
<polygon fill="#63b8ff" stroke="#63b8ff" points="108.1,-25.5 99.67,-19.09 102.26,-29.36 108.1,-25.5"/>
</g>
<!-- Node4 -->
<g id="node4" class="node">
<title>Node4</title>
<g id="a_node4"><a xlink:title=" ">
<polygon fill="#e0e0e0" stroke="#999999" points="192,-19 136,-19 136,0 192,0 192,-19"/>
<text text-anchor="middle" x="164" y="-7" font-family="Helvetica,sans-Serif" font-size="10.00">stdbool.h</text>
</a>
</g>
</g>
<!-- Node1&#45;&gt;Node4 -->
<g id="edge3" class="edge">
<title>Node1&#45;&gt;Node4</title>
<path fill="none" stroke="#63b8ff" d="M134.78,-54.75C139.62,-47.42 146.68,-36.73 152.64,-27.7"/>
<polygon fill="#63b8ff" stroke="#63b8ff" points="155.74,-29.36 158.33,-19.09 149.9,-25.5 155.74,-29.36"/>
</g>
<!-- Node5 -->
<g id="node5" class="node">
<title>Node5</title>
<g id="a_node5"><a xlink:title=" ">
<polygon fill="#e0e0e0" stroke="#999999" points="256,-19 210,-19 210,0 256,0 256,-19"/>
<text text-anchor="middle" x="233" y="-7" font-family="Helvetica,sans-Serif" font-size="10.00">stdio.h</text>
</a>
</g>
</g>
<!-- Node1&#45;&gt;Node5 -->
<g id="edge4" class="edge">
<title>Node1&#45;&gt;Node5</title>
<path fill="none" stroke="#63b8ff" d="M145.71,-54.98C162.21,-46.57 187.7,-33.59 206.88,-23.81"/>
<polygon fill="#63b8ff" stroke="#63b8ff" points="208.67,-26.83 215.99,-19.17 205.49,-20.59 208.67,-26.83"/>
</g>
</g>
</svg>
