<?xml version="1.0" encoding="UTF-8" standalone="no"?>
<!DOCTYPE svg PUBLIC "-//W3C//DTD SVG 1.1//EN"
 "http://www.w3.org/Graphics/SVG/1.1/DTD/svg11.dtd">
<!-- Generated by graphviz version 8.0.4 (20230421.1958)
 -->
<!-- Title: math/prime.c Pages: 1 -->
<svg width="261pt" height="83pt"
 viewBox="0.00 0.00 261.25 82.50" xmlns="http://www.w3.org/2000/svg" xmlns:xlink="http://www.w3.org/1999/xlink">
<g id="graph0" class="graph" transform="scale(1 1) rotate(0) translate(4 78.5)">
<title>math/prime.c</title>
<!-- Node1 -->
<g id="node1" class="node">
<title>Node1</title>
<g id="a_node1"><a xlink:title="Program to identify if a number is prime number or not.">
<polygon fill="#999999" stroke="#666666" points="163.12,-74.5 90.12,-74.5 90.12,-55.25 163.12,-55.25 163.12,-74.5"/>
<text text-anchor="middle" x="126.62" y="-61" font-family="Helvetica,sans-Serif" font-size="10.00">math/prime.c</text>
</a>
</g>
</g>
<!-- Node2 -->
<g id="node2" class="node">
<title>Node2</title>
<g id="a_node2"><a xlink:title=" ">
<polygon fill="#e0e0e0" stroke="#999999" points="51.25,-19.25 0,-19.25 0,0 51.25,0 51.25,-19.25"/>
<text text-anchor="middle" x="25.62" y="-5.75" font-family="Helvetica,sans-Serif" font-size="10.00">assert.h</text>
</a>
</g>
</g>
<!-- Node1&#45;&gt;Node2 -->
<g id="edge1" class="edge">
<title>Node1&#45;&gt;Node2</title>
<path fill="none" stroke="#63b8ff" d="M109.49,-54.84C93.89,-46.62 70.61,-34.34 52.53,-24.81"/>
<polygon fill="#63b8ff" stroke="#63b8ff" points="54.32,-21.27 43.84,-19.7 51.06,-27.46 54.32,-21.27"/>
</g>
<!-- Node3 -->
<g id="node3" class="node">
<title>Node3</title>
<g id="a_node3"><a xlink:title=" ">
<polygon fill="#e0e0e0" stroke="#999999" points="115.62,-19.25 69.62,-19.25 69.62,0 115.62,0 115.62,-19.25"/>
<text text-anchor="middle" x="92.62" y="-5.75" font-family="Helvetica,sans-Serif" font-size="10.00">math.h</text>
</a>
</g>
</g>
<!-- Node1&#45;&gt;Node3 -->
<g id="edge2" class="edge">
<title>Node1&#45;&gt;Node3</title>
<path fill="none" stroke="#63b8ff" d="M121.01,-55.08C116.46,-47.96 109.9,-37.68 104.23,-28.8"/>
<polygon fill="#63b8ff" stroke="#63b8ff" points="106.69,-27.15 98.36,-20.61 100.79,-30.92 106.69,-27.15"/>
</g>
<!-- Node4 -->
<g id="node4" class="node">
<title>Node4</title>
<g id="a_node4"><a xlink:title=" ">
<polygon fill="#e0e0e0" stroke="#999999" points="189.5,-19.25 133.75,-19.25 133.75,0 189.5,0 189.5,-19.25"/>
<text text-anchor="middle" x="161.62" y="-5.75" font-family="Helvetica,sans-Serif" font-size="10.00">stdbool.h</text>
</a>
</g>
</g>
<!-- Node1&#45;&gt;Node4 -->
<g id="edge3" class="edge">
<title>Node1&#45;&gt;Node4</title>
<path fill="none" stroke="#63b8ff" d="M132.4,-55.08C137.09,-47.96 143.84,-37.68 149.68,-28.8"/>
<polygon fill="#63b8ff" stroke="#63b8ff" points="153.15,-30.89 155.72,-20.61 147.3,-27.04 153.15,-30.89"/>
</g>
<!-- Node5 -->
<g id="node5" class="node">
<title>Node5</title>
<g id="a_node5"><a xlink:title=" ">
<polygon fill="#e0e0e0" stroke="#999999" points="253.25,-19.25 208,-19.25 208,0 253.25,0 253.25,-19.25"/>
<text text-anchor="middle" x="230.62" y="-5.75" font-family="Helvetica,sans-Serif" font-size="10.00">stdio.h</text>
</a>
</g>
</g>
<!-- Node1&#45;&gt;Node5 -->
<g id="edge4" class="edge">
<title>Node1&#45;&gt;Node5</title>
<path fill="none" stroke="#63b8ff" d="M144.27,-54.84C160.4,-46.58 184.53,-34.23 203.18,-24.68"/>
<polygon fill="#63b8ff" stroke="#63b8ff" points="204.59,-27.38 211.9,-19.7 201.4,-21.14 204.59,-27.38"/>
</g>
</g>
</svg>
