<?xml version="1.0" encoding="UTF-8" standalone="no"?>
<!DOCTYPE svg PUBLIC "-//W3C//DTD SVG 1.1//EN"
 "http://www.w3.org/Graphics/SVG/1.1/DTD/svg11.dtd">
<!-- Generated by graphviz version 7.0.6 (20230106.0513)
 -->
<!-- Title: client_server/tcp_half_duplex_server.c Pages: 1 -->
<svg width="652pt" height="93pt"
 viewBox="0.00 0.00 652.00 93.00" xmlns="http://www.w3.org/2000/svg" xmlns:xlink="http://www.w3.org/1999/xlink">
<g id="graph0" class="graph" transform="scale(1 1) rotate(0) translate(4 89)">
<title>client_server/tcp_half_duplex_server.c</title>
<!-- Node1 -->
<g id="node1" class="node">
<title>Node1</title>
<g id="a_node1"><a xlink:title="Server&#45;side implementation of TCP Half Duplex Communication">
<polygon fill="#999999" stroke="#666666" points="360.5,-85 250.5,-85 250.5,-55 360.5,-55 360.5,-85"/>
<text text-anchor="start" x="258.5" y="-73" font-family="Helvetica,sans-Serif" font-size="10.00">client_server/tcp_half</text>
<text text-anchor="middle" x="305.5" y="-62" font-family="Helvetica,sans-Serif" font-size="10.00">_duplex_server.c</text>
</a>
</g>
</g>
<!-- Node2 -->
<g id="node2" class="node">
<title>Node2</title>
<g id="a_node2"><a xlink:title=" ">
<polygon fill="#e0e0e0" stroke="#999999" points="49,-19 0,-19 0,0 49,0 49,-19"/>
<text text-anchor="middle" x="24.5" y="-7" font-family="Helvetica,sans-Serif" font-size="10.00">netdb.h</text>
</a>
</g>
</g>
<!-- Node1&#45;&gt;Node2 -->
<g id="edge1" class="edge">
<title>Node1&#45;&gt;Node2</title>
<path fill="none" stroke="#63b8ff" d="M250.16,-58.72C202.24,-49.61 130.82,-35.58 60.2,-19.53"/>
<polygon fill="#63b8ff" stroke="#63b8ff" points="61.34,-16.2 50.81,-17.38 59.77,-23.03 61.34,-16.2"/>
</g>
<!-- Node3 -->
<g id="node3" class="node">
<title>Node3</title>
<g id="a_node3"><a xlink:title=" ">
<polygon fill="#e0e0e0" stroke="#999999" points="132,-19 67,-19 67,0 132,0 132,-19"/>
<text text-anchor="middle" x="99.5" y="-7" font-family="Helvetica,sans-Serif" font-size="10.00">netinet/in.h</text>
</a>
</g>
</g>
<!-- Node1&#45;&gt;Node3 -->
<g id="edge2" class="edge">
<title>Node1&#45;&gt;Node3</title>
<path fill="none" stroke="#63b8ff" d="M254.58,-54.54C219.94,-44.7 174.64,-31.84 141.95,-22.56"/>
<polygon fill="#63b8ff" stroke="#63b8ff" points="142.99,-19.21 132.41,-19.85 141.07,-25.94 142.99,-19.21"/>
</g>
<!-- Node4 -->
<g id="node4" class="node">
<title>Node4</title>
<g id="a_node4"><a xlink:title=" ">
<polygon fill="#e0e0e0" stroke="#999999" points="199,-19 150,-19 150,0 199,0 199,-19"/>
<text text-anchor="middle" x="174.5" y="-7" font-family="Helvetica,sans-Serif" font-size="10.00">stdint.h</text>
</a>
</g>
</g>
<!-- Node1&#45;&gt;Node4 -->
<g id="edge3" class="edge">
<title>Node1&#45;&gt;Node4</title>
<path fill="none" stroke="#63b8ff" d="M273.12,-54.54C252.18,-45.19 225.12,-33.1 204.64,-23.96"/>
<polygon fill="#63b8ff" stroke="#63b8ff" points="206.25,-20.85 195.69,-19.96 203.4,-27.24 206.25,-20.85"/>
</g>
<!-- Node5 -->
<g id="node5" class="node">
<title>Node5</title>
<g id="a_node5"><a xlink:title=" ">
<polygon fill="#e0e0e0" stroke="#999999" points="263.5,-19 217.5,-19 217.5,0 263.5,0 263.5,-19"/>
<text text-anchor="middle" x="240.5" y="-7" font-family="Helvetica,sans-Serif" font-size="10.00">stdio.h</text>
</a>
</g>
</g>
<!-- Node1&#45;&gt;Node5 -->
<g id="edge4" class="edge">
<title>Node1&#45;&gt;Node5</title>
<path fill="none" stroke="#63b8ff" d="M289.43,-54.54C280.09,-46.13 268.28,-35.51 258.61,-26.8"/>
<polygon fill="#63b8ff" stroke="#63b8ff" points="261.04,-24.28 251.26,-20.19 256.36,-29.48 261.04,-24.28"/>
</g>
<!-- Node6 -->
<g id="node6" class="node">
<title>Node6</title>
<g id="a_node6"><a xlink:title=" ">
<polygon fill="#e0e0e0" stroke="#999999" points="329.5,-19 281.5,-19 281.5,0 329.5,0 329.5,-19"/>
<text text-anchor="middle" x="305.5" y="-7" font-family="Helvetica,sans-Serif" font-size="10.00">stdlib.h</text>
</a>
</g>
</g>
<!-- Node1&#45;&gt;Node6 -->
<g id="edge5" class="edge">
<title>Node1&#45;&gt;Node6</title>
<path fill="none" stroke="#63b8ff" d="M305.5,-54.54C305.5,-47.34 305.5,-38.53 305.5,-30.68"/>
<polygon fill="#63b8ff" stroke="#63b8ff" points="309,-30.69 305.5,-20.69 302,-30.69 309,-30.69"/>
</g>
<!-- Node7 -->
<g id="node7" class="node">
<title>Node7</title>
<g id="a_node7"><a xlink:title=" ">
<polygon fill="#e0e0e0" stroke="#999999" points="397,-19 348,-19 348,0 397,0 397,-19"/>
<text text-anchor="middle" x="372.5" y="-7" font-family="Helvetica,sans-Serif" font-size="10.00">string.h</text>
</a>
</g>
</g>
<!-- Node1&#45;&gt;Node7 -->
<g id="edge6" class="edge">
<title>Node1&#45;&gt;Node7</title>
<path fill="none" stroke="#63b8ff" d="M322.06,-54.54C331.79,-46.04 344.11,-35.29 354.14,-26.53"/>
<polygon fill="#63b8ff" stroke="#63b8ff" points="356.19,-29.38 361.42,-20.17 351.59,-24.11 356.19,-29.38"/>
</g>
<!-- Node8 -->
<g id="node8" class="node">
<title>Node8</title>
<g id="a_node8"><a xlink:title=" ">
<polygon fill="#e0e0e0" stroke="#999999" points="488,-19 415,-19 415,0 488,0 488,-19"/>
<text text-anchor="middle" x="451.5" y="-7" font-family="Helvetica,sans-Serif" font-size="10.00">sys/socket.h</text>
</a>
</g>
</g>
<!-- Node1&#45;&gt;Node8 -->
<g id="edge7" class="edge">
<title>Node1&#45;&gt;Node8</title>
<path fill="none" stroke="#63b8ff" d="M341.59,-54.54C365.25,-45.06 395.92,-32.77 418.85,-23.58"/>
<polygon fill="#63b8ff" stroke="#63b8ff" points="420.04,-26.88 428.02,-19.91 417.43,-20.38 420.04,-26.88"/>
</g>
<!-- Node9 -->
<g id="node9" class="node">
<title>Node9</title>
<g id="a_node9"><a xlink:title=" ">
<polygon fill="#e0e0e0" stroke="#999999" points="574.5,-19 506.5,-19 506.5,0 574.5,0 574.5,-19"/>
<text text-anchor="middle" x="540.5" y="-7" font-family="Helvetica,sans-Serif" font-size="10.00">sys/types.h</text>
</a>
</g>
</g>
<!-- Node1&#45;&gt;Node9 -->
<g id="edge8" class="edge">
<title>Node1&#45;&gt;Node9</title>
<path fill="none" stroke="#63b8ff" d="M360.89,-55.21C401.9,-45 457.06,-31.27 495.39,-21.73"/>
<polygon fill="#63b8ff" stroke="#63b8ff" points="495.89,-25.21 504.75,-19.4 494.2,-18.42 495.89,-25.21"/>
</g>
<!-- Node10 -->
<g id="node10" class="node">
<title>Node10</title>
<g id="a_node10"><a xlink:title=" ">
<polygon fill="#e0e0e0" stroke="#999999" points="644,-19 593,-19 593,0 644,0 644,-19"/>
<text text-anchor="middle" x="618.5" y="-7" font-family="Helvetica,sans-Serif" font-size="10.00">unistd.h</text>
</a>
</g>
</g>
<!-- Node1&#45;&gt;Node10 -->
<g id="edge9" class="edge">
<title>Node1&#45;&gt;Node10</title>
<path fill="none" stroke="#63b8ff" d="M360.81,-60.06C414.63,-51.14 498.98,-36.56 581.45,-19.32"/>
<polygon fill="#63b8ff" stroke="#63b8ff" points="582,-22.79 591.06,-17.3 580.56,-15.94 582,-22.79"/>
</g>
</g>
</svg>
