<?xml version="1.0" encoding="UTF-8" standalone="no"?>
<!DOCTYPE svg PUBLIC "-//W3C//DTD SVG 1.1//EN"
 "http://www.w3.org/Graphics/SVG/1.1/DTD/svg11.dtd">
<!-- Generated by graphviz version 9.0.0 (20230911.1827)
 -->
<!-- Title: client_server/tcp_half_duplex_server.c Pages: 1 -->
<svg width="561pt" height="94pt"
 viewBox="0.00 0.00 561.25 93.75" xmlns="http://www.w3.org/2000/svg" xmlns:xlink="http://www.w3.org/1999/xlink">
<g id="graph0" class="graph" transform="scale(1 1) rotate(0) translate(4 89.75)">
<title>client_server/tcp_half_duplex_server.c</title>
<!-- Node1 -->
<g id="Node000001" class="node">
<title>Node1</title>
<g id="a_Node000001"><a xlink:title="Server&#45;side implementation of TCP Half Duplex Communication">
<polygon fill="#999999" stroke="#666666" points="354.62,-85.75 245.62,-85.75 245.62,-55.25 354.62,-55.25 354.62,-85.75"/>
<text text-anchor="start" x="253.62" y="-72.25" font-family="Helvetica,sans-Serif" font-size="10.00">client_server/tcp_half</text>
<text text-anchor="middle" x="300.12" y="-61" font-family="Helvetica,sans-Serif" font-size="10.00">_duplex_server.c</text>
</a>
</g>
</g>
<!-- Node2 -->
<g id="Node000002" class="node">
<title>Node2</title>
<g id="a_Node000002"><a xlink:title=" ">
<polygon fill="#e0e0e0" stroke="#999999" points="48.25,-19.25 0,-19.25 0,0 48.25,0 48.25,-19.25"/>
<text text-anchor="middle" x="24.12" y="-5.75" font-family="Helvetica,sans-Serif" font-size="10.00">netdb.h</text>
</a>
</g>
</g>
<!-- Node1&#45;&gt;Node2 -->
<g id="edge1_Node000001_Node000002" class="edge">
<title>Node1&#45;&gt;Node2</title>
<g id="a_edge1_Node000001_Node000002"><a xlink:title=" ">
<path fill="none" stroke="#63b8ff" d="M245.42,-59.03C198.56,-49.87 129.02,-35.83 59.72,-19.77"/>
<polygon fill="#63b8ff" stroke="#63b8ff" points="60.61,-16.38 50.07,-17.52 59.02,-23.2 60.61,-16.38"/>
</a>
</g>
</g>
<!-- Node3 -->
<g id="Node000003" class="node">
<title>Node3</title>
<g id="a_Node000003"><a xlink:title=" ">
<polygon fill="#e0e0e0" stroke="#999999" points="138.25,-19.25 66,-19.25 66,0 138.25,0 138.25,-19.25"/>
<text text-anchor="middle" x="102.12" y="-5.75" font-family="Helvetica,sans-Serif" font-size="10.00">sys/socket.h</text>
</a>
</g>
</g>
<!-- Node1&#45;&gt;Node3 -->
<g id="edge2_Node000001_Node000003" class="edge">
<title>Node1&#45;&gt;Node3</title>
<g id="a_edge2_Node000001_Node000003"><a xlink:title=" ">
<path fill="none" stroke="#63b8ff" d="M250.67,-54.8C217.72,-45 174.9,-32.27 143.71,-22.99"/>
<polygon fill="#63b8ff" stroke="#63b8ff" points="144.82,-19.67 134.23,-20.17 142.82,-26.38 144.82,-19.67"/>
</a>
</g>
</g>
<!-- Node4 -->
<g id="Node000004" class="node">
<title>Node4</title>
<g id="a_Node000004"><a xlink:title=" ">
<polygon fill="#e0e0e0" stroke="#999999" points="223.62,-19.25 156.62,-19.25 156.62,0 223.62,0 223.62,-19.25"/>
<text text-anchor="middle" x="190.12" y="-5.75" font-family="Helvetica,sans-Serif" font-size="10.00">sys/types.h</text>
</a>
</g>
</g>
<!-- Node1&#45;&gt;Node4 -->
<g id="edge3_Node000001_Node000004" class="edge">
<title>Node1&#45;&gt;Node4</title>
<g id="a_edge3_Node000001_Node000004"><a xlink:title=" ">
<path fill="none" stroke="#63b8ff" d="M272.65,-54.8C255.58,-45.66 233.73,-33.97 216.81,-24.91"/>
<polygon fill="#63b8ff" stroke="#63b8ff" points="218.8,-22 208.33,-20.37 215.49,-28.17 218.8,-22"/>
</a>
</g>
</g>
<!-- Node5 -->
<g id="Node000005" class="node">
<title>Node5</title>
<g id="a_Node000005"><a xlink:title=" ">
<polygon fill="#e0e0e0" stroke="#999999" points="292.38,-19.25 241.88,-19.25 241.88,0 292.38,0 292.38,-19.25"/>
<text text-anchor="middle" x="267.12" y="-5.75" font-family="Helvetica,sans-Serif" font-size="10.00">unistd.h</text>
</a>
</g>
</g>
<!-- Node1&#45;&gt;Node5 -->
<g id="edge4_Node000001_Node000005" class="edge">
<title>Node1&#45;&gt;Node5</title>
<g id="a_edge4_Node000001_Node000005"><a xlink:title=" ">
<path fill="none" stroke="#63b8ff" d="M291.97,-54.95C287.67,-47.28 282.34,-37.77 277.73,-29.54"/>
<polygon fill="#63b8ff" stroke="#63b8ff" points="280.89,-28.03 272.95,-21.02 274.79,-31.46 280.89,-28.03"/>
</a>
</g>
</g>
<!-- Node6 -->
<g id="Node000006" class="node">
<title>Node6</title>
<g id="a_Node000006"><a xlink:title=" ">
<polygon fill="#e0e0e0" stroke="#999999" points="358.25,-19.25 310,-19.25 310,0 358.25,0 358.25,-19.25"/>
<text text-anchor="middle" x="334.12" y="-5.75" font-family="Helvetica,sans-Serif" font-size="10.00">stdint.h</text>
</a>
</g>
</g>
<!-- Node1&#45;&gt;Node6 -->
<g id="edge5_Node000001_Node000006" class="edge">
<title>Node1&#45;&gt;Node6</title>
<g id="a_edge5_Node000001_Node000006"><a xlink:title=" ">
<path fill="none" stroke="#63b8ff" d="M308.53,-54.95C312.96,-47.28 318.45,-37.77 323.2,-29.54"/>
<polygon fill="#63b8ff" stroke="#63b8ff" points="326.16,-31.42 328.13,-21.01 320.09,-27.92 326.16,-31.42"/>
</a>
</g>
</g>
<!-- Node7 -->
<g id="Node000007" class="node">
<title>Node7</title>
<g id="a_Node000007"><a xlink:title=" ">
<polygon fill="#e0e0e0" stroke="#999999" points="421.75,-19.25 376.5,-19.25 376.5,0 421.75,0 421.75,-19.25"/>
<text text-anchor="middle" x="399.12" y="-5.75" font-family="Helvetica,sans-Serif" font-size="10.00">stdio.h</text>
</a>
</g>
</g>
<!-- Node1&#45;&gt;Node7 -->
<g id="edge6_Node000001_Node000007" class="edge">
<title>Node1&#45;&gt;Node7</title>
<g id="a_edge6_Node000001_Node000007"><a xlink:title=" ">
<path fill="none" stroke="#63b8ff" d="M324.85,-54.8C339.93,-45.83 359.14,-34.41 374.24,-25.42"/>
<polygon fill="#63b8ff" stroke="#63b8ff" points="375.84,-28.55 382.64,-20.43 372.26,-22.53 375.84,-28.55"/>
</a>
</g>
</g>
<!-- Node8 -->
<g id="Node000008" class="node">
<title>Node8</title>
<g id="a_Node000008"><a xlink:title=" ">
<polygon fill="#e0e0e0" stroke="#999999" points="486.88,-19.25 439.38,-19.25 439.38,0 486.88,0 486.88,-19.25"/>
<text text-anchor="middle" x="463.12" y="-5.75" font-family="Helvetica,sans-Serif" font-size="10.00">stdlib.h</text>
</a>
</g>
</g>
<!-- Node1&#45;&gt;Node8 -->
<g id="edge7_Node000001_Node000008" class="edge">
<title>Node1&#45;&gt;Node8</title>
<g id="a_edge7_Node000001_Node000008"><a xlink:title=" ">
<path fill="none" stroke="#63b8ff" d="M340.84,-54.8C367.78,-45.06 402.73,-32.44 428.37,-23.18"/>
<polygon fill="#63b8ff" stroke="#63b8ff" points="429.44,-26.51 437.66,-19.82 427.06,-19.93 429.44,-26.51"/>
</a>
</g>
</g>
<!-- Node9 -->
<g id="Node000009" class="node">
<title>Node9</title>
<g id="a_Node000009"><a xlink:title=" ">
<polygon fill="#e0e0e0" stroke="#999999" points="553.25,-19.25 505,-19.25 505,0 553.25,0 553.25,-19.25"/>
<text text-anchor="middle" x="529.12" y="-5.75" font-family="Helvetica,sans-Serif" font-size="10.00">string.h</text>
</a>
</g>
</g>
<!-- Node1&#45;&gt;Node9 -->
<g id="edge8_Node000001_Node000009" class="edge">
<title>Node1&#45;&gt;Node9</title>
<g id="a_edge8_Node000001_Node000009"><a xlink:title=" ">
<path fill="none" stroke="#63b8ff" d="M355.06,-55.49C391.83,-46.09 441.6,-33.35 493.8,-19.84"/>
<polygon fill="#63b8ff" stroke="#63b8ff" points="494.35,-23.32 503.15,-17.42 492.6,-16.54 494.35,-23.32"/>
</a>
</g>
</g>
</g>
</svg>
