<?xml version="1.0" encoding="UTF-8" standalone="no"?>
<!DOCTYPE svg PUBLIC "-//W3C//DTD SVG 1.1//EN"
 "http://www.w3.org/Graphics/SVG/1.1/DTD/svg11.dtd">
<!-- Generated by graphviz version 8.0.5 (20230430.1635)
 -->
<!-- Title: main Pages: 1 -->
<svg width="362pt" height="45pt"
 viewBox="0.00 0.00 362.25 45.25" xmlns="http://www.w3.org/2000/svg" xmlns:xlink="http://www.w3.org/1999/xlink">
<g id="graph0" class="graph" transform="scale(1 1) rotate(0) translate(4 41.25)">
<title>main</title>
<!-- Node1 -->
<g id="Node000001" class="node">
<title>Node1</title>
<g id="a_Node000001"><a xlink:title="Main function.">
<polygon fill="#999999" stroke="#666666" points="37,-19.25 0,-19.25 0,0 37,0 37,-19.25"/>
<text text-anchor="middle" x="18.5" y="-5.75" font-family="Helvetica,sans-Serif" font-size="10.00">main</text>
</a>
</g>
</g>
<!-- Node2 -->
<g id="Node000002" class="node">
<title>Node2</title>
<g id="a_Node000002"><a xlink:href="../../da/d6c/exponential__search_8c.html#aa8dca7b867074164d5f45b0f3851269d" target="_top" xlink:title="used to run the self&#45;test implementations">
<polygon fill="white" stroke="#666666" points="105.5,-19.25 73,-19.25 73,0 105.5,0 105.5,-19.25"/>
<text text-anchor="middle" x="89.25" y="-5.75" font-family="Helvetica,sans-Serif" font-size="10.00">test</text>
</a>
</g>
</g>
<!-- Node1&#45;&gt;Node2 -->
<g id="edge1_Node000001_Node000002" class="edge">
<title>Node1&#45;&gt;Node2</title>
<g id="a_edge1_Node000001_Node000002"><a xlink:title=" ">
<path fill="none" stroke="#63b8ff" d="M37.2,-9.62C44.67,-9.62 53.52,-9.62 61.73,-9.62"/>
<polygon fill="#63b8ff" stroke="#63b8ff" points="61.71,-13.13 71.71,-9.62 61.71,-6.13 61.71,-13.13"/>
</a>
</g>
</g>
<!-- Node3 -->
<g id="Node000003" class="node">
<title>Node3</title>
<g id="a_Node000003"><a xlink:href="../../da/d6c/exponential__search_8c.html#a82d4de0907b9601a376febf50955bacd" target="_top" xlink:title="used to perform the exponential search over the given array">
<polygon fill="white" stroke="#666666" points="241.5,-19.25 141.5,-19.25 141.5,0 241.5,0 241.5,-19.25"/>
<text text-anchor="middle" x="191.5" y="-5.75" font-family="Helvetica,sans-Serif" font-size="10.00">exponential_search</text>
</a>
</g>
</g>
<!-- Node2&#45;&gt;Node3 -->
<g id="edge2_Node000002_Node000003" class="edge">
<title>Node2&#45;&gt;Node3</title>
<g id="a_edge2_Node000002_Node000003"><a xlink:title=" ">
<path fill="none" stroke="#63b8ff" d="M105.91,-9.62C112.8,-9.62 121.37,-9.62 130.39,-9.62"/>
<polygon fill="#63b8ff" stroke="#63b8ff" points="130.11,-13.13 140.11,-9.62 130.11,-6.13 130.11,-13.13"/>
</a>
</g>
</g>
<!-- Node4 -->
<g id="Node000004" class="node">
<title>Node4</title>
<g id="a_Node000004"><a xlink:href="../../da/d6c/exponential__search_8c.html#aae97ef76c065e91c188f1f8c8076869a" target="_top" xlink:title="used to perform the binary search over the given array">
<polygon fill="white" stroke="#666666" points="354.25,-19.25 277.5,-19.25 277.5,0 354.25,0 354.25,-19.25"/>
<text text-anchor="middle" x="315.88" y="-5.75" font-family="Helvetica,sans-Serif" font-size="10.00">binary_search</text>
</a>
</g>
</g>
<!-- Node3&#45;&gt;Node4 -->
<g id="edge3_Node000003_Node000004" class="edge">
<title>Node3&#45;&gt;Node4</title>
<g id="a_edge3_Node000003_Node000004"><a xlink:title=" ">
<path fill="none" stroke="#63b8ff" d="M241.92,-9.62C250.04,-9.62 258.44,-9.62 266.54,-9.62"/>
<polygon fill="#63b8ff" stroke="#63b8ff" points="266.32,-13.13 276.32,-9.62 266.32,-6.13 266.32,-13.13"/>
</a>
</g>
</g>
<!-- Node4&#45;&gt;Node4 -->
<g id="edge4_Node000004_Node000004" class="edge">
<title>Node4&#45;&gt;Node4</title>
<g id="a_edge4_Node000004_Node000004"><a xlink:title=" ">
<path fill="none" stroke="#63b8ff" d="M296.4,-19.54C287.52,-28.15 294.01,-37.25 315.88,-37.25 328.51,-37.25 336.02,-34.21 338.38,-29.98"/>
<polygon fill="#63b8ff" stroke="#63b8ff" points="341.5,-29.16 335.35,-20.54 334.78,-31.12 341.5,-29.16"/>
</a>
</g>
</g>
</g>
</svg>
