<?xml version="1.0" encoding="UTF-8" standalone="no"?>
<!DOCTYPE svg PUBLIC "-//W3C//DTD SVG 1.1//EN"
 "http://www.w3.org/Graphics/SVG/1.1/DTD/svg11.dtd">
<!-- Generated by graphviz version 8.0.2 (20230410.1723)
 -->
<!-- Title: test Pages: 1 -->
<svg width="291pt" height="45pt"
 viewBox="0.00 0.00 291.00 45.00" xmlns="http://www.w3.org/2000/svg" xmlns:xlink="http://www.w3.org/1999/xlink">
<g id="graph0" class="graph" transform="scale(1 1) rotate(0) translate(4 41)">
<title>test</title>
<!-- Node1 -->
<g id="node1" class="node">
<title>Node1</title>
<g id="a_node1"><a xlink:title="used to run the self&#45;test implementations">
<polygon fill="#999999" stroke="#666666" points="33,-19 0,-19 0,0 33,0 33,-19"/>
<text text-anchor="middle" x="16.5" y="-7" font-family="Helvetica,sans-Serif" font-size="10.00">test</text>
</a>
</g>
</g>
<!-- Node2 -->
<g id="node2" class="node">
<title>Node2</title>
<g id="a_node2"><a xlink:href="../../da/d6c/exponential__search_8c.html#a82d4de0907b9601a376febf50955bacd" target="_top" xlink:title="used to perform the exponential search over the given array">
<polygon fill="white" stroke="#666666" points="170,-19 69,-19 69,0 170,0 170,-19"/>
<text text-anchor="middle" x="119.5" y="-7" font-family="Helvetica,sans-Serif" font-size="10.00">exponential_search</text>
</a>
</g>
</g>
<!-- Node1&#45;&gt;Node2 -->
<g id="edge1" class="edge">
<title>Node1&#45;&gt;Node2</title>
<path fill="none" stroke="#63b8ff" d="M33.28,-9.5C40.22,-9.5 48.85,-9.5 57.94,-9.5"/>
<polygon fill="#63b8ff" stroke="#63b8ff" points="57.74,-13 67.74,-9.5 57.74,-6 57.74,-13"/>
</g>
<!-- Node3 -->
<g id="node3" class="node">
<title>Node3</title>
<g id="a_node3"><a xlink:href="../../da/d6c/exponential__search_8c.html#aae97ef76c065e91c188f1f8c8076869a" target="_top" xlink:title="used to perform the binary search over the given array">
<polygon fill="white" stroke="#666666" points="283,-19 206,-19 206,0 283,0 283,-19"/>
<text text-anchor="middle" x="244.5" y="-7" font-family="Helvetica,sans-Serif" font-size="10.00">binary_search</text>
</a>
</g>
</g>
<!-- Node2&#45;&gt;Node3 -->
<g id="edge2" class="edge">
<title>Node2&#45;&gt;Node3</title>
<path fill="none" stroke="#63b8ff" d="M170.17,-9.5C178.33,-9.5 186.78,-9.5 194.91,-9.5"/>
<polygon fill="#63b8ff" stroke="#63b8ff" points="194.75,-13 204.75,-9.5 194.75,-6 194.75,-13"/>
</g>
<!-- Node3&#45;&gt;Node3 -->
<g id="edge3" class="edge">
<title>Node3&#45;&gt;Node3</title>
<path fill="none" stroke="#63b8ff" d="M224.93,-19.37C216,-27.94 222.53,-37 244.5,-37 257.2,-37 264.74,-33.97 267.12,-29.76"/>
<polygon fill="#63b8ff" stroke="#63b8ff" points="270.24,-28.98 264.07,-20.37 263.53,-30.95 270.24,-28.98"/>
</g>
</g>
</svg>
