<?xml version="1.0" encoding="UTF-8" standalone="no"?>
<!DOCTYPE svg PUBLIC "-//W3C//DTD SVG 1.1//EN"
 "http://www.w3.org/Graphics/SVG/1.1/DTD/svg11.dtd">
<!-- Generated by graphviz version 8.0.2 (20230410.1723)
 -->
<!-- Title: main Pages: 1 -->
<svg width="365pt" height="45pt"
 viewBox="0.00 0.00 365.00 45.00" xmlns="http://www.w3.org/2000/svg" xmlns:xlink="http://www.w3.org/1999/xlink">
<g id="graph0" class="graph" transform="scale(1 1) rotate(0) translate(4 41)">
<title>main</title>
<!-- Node1 -->
<g id="node1" class="node">
<title>Node1</title>
<g id="a_node1"><a xlink:title="Main function.">
<polygon fill="#999999" stroke="#666666" points="38,-19 0,-19 0,0 38,0 38,-19"/>
<text text-anchor="middle" x="19" y="-7" font-family="Helvetica,sans-Serif" font-size="10.00">main</text>
</a>
</g>
</g>
<!-- Node2 -->
<g id="node2" class="node">
<title>Node2</title>
<g id="a_node2"><a xlink:href="../../da/d6c/exponential__search_8c.html#aa8dca7b867074164d5f45b0f3851269d" target="_top" xlink:title="used to run the self&#45;test implementations">
<polygon fill="white" stroke="#666666" points="107,-19 74,-19 74,0 107,0 107,-19"/>
<text text-anchor="middle" x="90.5" y="-7" font-family="Helvetica,sans-Serif" font-size="10.00">test</text>
</a>
</g>
</g>
<!-- Node1&#45;&gt;Node2 -->
<g id="edge1" class="edge">
<title>Node1&#45;&gt;Node2</title>
<path fill="none" stroke="#63b8ff" d="M38.26,-9.5C45.89,-9.5 54.9,-9.5 63.23,-9.5"/>
<polygon fill="#63b8ff" stroke="#63b8ff" points="62.95,-13 72.95,-9.5 62.95,-6 62.95,-13"/>
</g>
<!-- Node3 -->
<g id="node3" class="node">
<title>Node3</title>
<g id="a_node3"><a xlink:href="../../da/d6c/exponential__search_8c.html#a82d4de0907b9601a376febf50955bacd" target="_top" xlink:title="used to perform the exponential search over the given array">
<polygon fill="white" stroke="#666666" points="244,-19 143,-19 143,0 244,0 244,-19"/>
<text text-anchor="middle" x="193.5" y="-7" font-family="Helvetica,sans-Serif" font-size="10.00">exponential_search</text>
</a>
</g>
</g>
<!-- Node2&#45;&gt;Node3 -->
<g id="edge2" class="edge">
<title>Node2&#45;&gt;Node3</title>
<path fill="none" stroke="#63b8ff" d="M107.28,-9.5C114.22,-9.5 122.85,-9.5 131.94,-9.5"/>
<polygon fill="#63b8ff" stroke="#63b8ff" points="131.74,-13 141.74,-9.5 131.74,-6 131.74,-13"/>
</g>
<!-- Node4 -->
<g id="node4" class="node">
<title>Node4</title>
<g id="a_node4"><a xlink:href="../../da/d6c/exponential__search_8c.html#aae97ef76c065e91c188f1f8c8076869a" target="_top" xlink:title="used to perform the binary search over the given array">
<polygon fill="white" stroke="#666666" points="357,-19 280,-19 280,0 357,0 357,-19"/>
<text text-anchor="middle" x="318.5" y="-7" font-family="Helvetica,sans-Serif" font-size="10.00">binary_search</text>
</a>
</g>
</g>
<!-- Node3&#45;&gt;Node4 -->
<g id="edge3" class="edge">
<title>Node3&#45;&gt;Node4</title>
<path fill="none" stroke="#63b8ff" d="M244.17,-9.5C252.33,-9.5 260.78,-9.5 268.91,-9.5"/>
<polygon fill="#63b8ff" stroke="#63b8ff" points="268.75,-13 278.75,-9.5 268.75,-6 268.75,-13"/>
</g>
<!-- Node4&#45;&gt;Node4 -->
<g id="edge4" class="edge">
<title>Node4&#45;&gt;Node4</title>
<path fill="none" stroke="#63b8ff" d="M298.93,-19.37C290,-27.94 296.53,-37 318.5,-37 331.2,-37 338.74,-33.97 341.12,-29.76"/>
<polygon fill="#63b8ff" stroke="#63b8ff" points="344.24,-28.98 338.07,-20.37 337.53,-30.95 344.24,-28.98"/>
</g>
</g>
</svg>
