<?xml version="1.0" encoding="UTF-8" standalone="no"?>
<!DOCTYPE svg PUBLIC "-//W3C//DTD SVG 1.1//EN"
 "http://www.w3.org/Graphics/SVG/1.1/DTD/svg11.dtd">
<!-- Generated by graphviz version 8.0.5 (20230430.1635)
 -->
<!-- Title: test Pages: 1 -->
<svg width="289pt" height="45pt"
 viewBox="0.00 0.00 289.25 45.25" xmlns="http://www.w3.org/2000/svg" xmlns:xlink="http://www.w3.org/1999/xlink">
<g id="graph0" class="graph" transform="scale(1 1) rotate(0) translate(4 41.25)">
<title>test</title>
<!-- Node1 -->
<g id="Node000001" class="node">
<title>Node1</title>
<g id="a_Node000001"><a xlink:title="used to run the self&#45;test implementations">
<polygon fill="#999999" stroke="#666666" points="32.5,-19.25 0,-19.25 0,0 32.5,0 32.5,-19.25"/>
<text text-anchor="middle" x="16.25" y="-5.75" font-family="Helvetica,sans-Serif" font-size="10.00">test</text>
</a>
</g>
</g>
<!-- Node2 -->
<g id="Node000002" class="node">
<title>Node2</title>
<g id="a_Node000002"><a xlink:href="../../da/d6c/exponential__search_8c.html#a82d4de0907b9601a376febf50955bacd" target="_top" xlink:title="used to perform the exponential search over the given array">
<polygon fill="white" stroke="#666666" points="168.5,-19.25 68.5,-19.25 68.5,0 168.5,0 168.5,-19.25"/>
<text text-anchor="middle" x="118.5" y="-5.75" font-family="Helvetica,sans-Serif" font-size="10.00">exponential_search</text>
</a>
</g>
</g>
<!-- Node1&#45;&gt;Node2 -->
<g id="edge1_Node000001_Node000002" class="edge">
<title>Node1&#45;&gt;Node2</title>
<g id="a_edge1_Node000001_Node000002"><a xlink:title=" ">
<path fill="none" stroke="#63b8ff" d="M32.91,-9.62C39.8,-9.62 48.37,-9.62 57.39,-9.62"/>
<polygon fill="#63b8ff" stroke="#63b8ff" points="57.11,-13.13 67.11,-9.62 57.11,-6.13 57.11,-13.13"/>
</a>
</g>
</g>
<!-- Node3 -->
<g id="Node000003" class="node">
<title>Node3</title>
<g id="a_Node000003"><a xlink:href="../../da/d6c/exponential__search_8c.html#aae97ef76c065e91c188f1f8c8076869a" target="_top" xlink:title="used to perform the binary search over the given array">
<polygon fill="white" stroke="#666666" points="281.25,-19.25 204.5,-19.25 204.5,0 281.25,0 281.25,-19.25"/>
<text text-anchor="middle" x="242.88" y="-5.75" font-family="Helvetica,sans-Serif" font-size="10.00">binary_search</text>
</a>
</g>
</g>
<!-- Node2&#45;&gt;Node3 -->
<g id="edge2_Node000002_Node000003" class="edge">
<title>Node2&#45;&gt;Node3</title>
<g id="a_edge2_Node000002_Node000003"><a xlink:title=" ">
<path fill="none" stroke="#63b8ff" d="M168.92,-9.62C177.04,-9.62 185.44,-9.62 193.54,-9.62"/>
<polygon fill="#63b8ff" stroke="#63b8ff" points="193.32,-13.13 203.32,-9.62 193.32,-6.13 193.32,-13.13"/>
</a>
</g>
</g>
<!-- Node3&#45;&gt;Node3 -->
<g id="edge3_Node000003_Node000003" class="edge">
<title>Node3&#45;&gt;Node3</title>
<g id="a_edge3_Node000003_Node000003"><a xlink:title=" ">
<path fill="none" stroke="#63b8ff" d="M223.4,-19.54C214.52,-28.15 221.01,-37.25 242.88,-37.25 255.51,-37.25 263.02,-34.21 265.38,-29.98"/>
<polygon fill="#63b8ff" stroke="#63b8ff" points="268.5,-29.16 262.35,-20.54 261.78,-31.12 268.5,-29.16"/>
</a>
</g>
</g>
</g>
</svg>
