<?xml version="1.0" encoding="UTF-8" standalone="no"?>
<!DOCTYPE svg PUBLIC "-//W3C//DTD SVG 1.1//EN"
 "http://www.w3.org/Graphics/SVG/1.1/DTD/svg11.dtd">
<!-- Generated by graphviz version 2.49.3 (20211023.0002)
 -->
<!-- Title: main Pages: 1 -->
<svg width="285pt" height="272pt"
 viewBox="0.00 0.00 285.00 272.00" xmlns="http://www.w3.org/2000/svg" xmlns:xlink="http://www.w3.org/1999/xlink">
<g id="graph0" class="graph" transform="scale(1 1) rotate(0) translate(4 268)">
<title>main</title>
<polygon fill="white" stroke="transparent" points="-4,4 -4,-268 281,-268 281,4 -4,4"/>
<!-- Node1 -->
<g id="node1" class="node">
<title>Node1</title>
<g id="a_node1"><a xlink:title="main function">
<polygon fill="#bfbfbf" stroke="black" points="0,-122.5 0,-141.5 38,-141.5 38,-122.5 0,-122.5"/>
<text text-anchor="middle" x="19" y="-129.5" font-family="Helvetica,sans-Serif" font-size="10.00">main</text>
</a>
</g>
</g>
<!-- Node2 -->
<g id="node2" class="node">
<title>Node2</title>
<g id="a_node2"><a xlink:href="../../df/d3c/threaded__binary__trees_8c.html#a284d683f74b6c884e79ba00d3d1c3317" target="_top" xlink:title="deletion of a node from the tree if the node isn&#39;t present in the tree, it takes no action.">
<polygon fill="white" stroke="black" points="92.5,-244.5 92.5,-263.5 150.5,-263.5 150.5,-244.5 92.5,-244.5"/>
<text text-anchor="middle" x="121.5" y="-251.5" font-family="Helvetica,sans-Serif" font-size="10.00">delete_bt</text>
</a>
</g>
</g>
<!-- Node1&#45;&gt;Node2 -->
<g id="edge1" class="edge">
<title>Node1&#45;&gt;Node2</title>
<path fill="none" stroke="midnightblue" d="M22.59,-141.63C28.46,-161.67 44.57,-208.24 74,-235 76.74,-237.49 79.86,-239.68 83.14,-241.6"/>
<polygon fill="midnightblue" stroke="midnightblue" points="81.59,-244.74 92.1,-246.06 84.71,-238.47 81.59,-244.74"/>
</g>
<!-- Node3 -->
<g id="node3" class="node">
<title>Node3</title>
<g id="a_node3"><a xlink:href="../../df/d3c/threaded__binary__trees_8c.html#a4c1e06b5f0876ec9c1bd6817f3b7eda7" target="_top" xlink:title="performs inorder traversal param[in] curr node pointer to the topmost node of the tree">
<polygon fill="white" stroke="black" points="79.5,-188.5 79.5,-207.5 163.5,-207.5 163.5,-188.5 79.5,-188.5"/>
<text text-anchor="middle" x="121.5" y="-195.5" font-family="Helvetica,sans-Serif" font-size="10.00">inorder_display</text>
</a>
</g>
</g>
<!-- Node1&#45;&gt;Node3 -->
<g id="edge2" class="edge">
<title>Node1&#45;&gt;Node3</title>
<path fill="none" stroke="midnightblue" d="M29.19,-141.71C39.36,-152.03 56.64,-168.31 74,-179 76.99,-180.84 80.18,-182.57 83.45,-184.18"/>
<polygon fill="midnightblue" stroke="midnightblue" points="82.17,-187.44 92.72,-188.39 85.06,-181.07 82.17,-187.44"/>
</g>
<!-- Node4 -->
<g id="node4" class="node">
<title>Node4</title>
<g id="a_node4"><a xlink:href="../../df/d3c/threaded__binary__trees_8c.html#a823432888332fc9f0aa6072cff28c3bb" target="_top" xlink:title="inserts a node into the tree param[in,out] root pointer to node pointer to the topmost node of the tr...">
<polygon fill="white" stroke="black" points="94,-150.5 94,-169.5 149,-169.5 149,-150.5 94,-150.5"/>
<text text-anchor="middle" x="121.5" y="-157.5" font-family="Helvetica,sans-Serif" font-size="10.00">insert_bt</text>
</a>
</g>
</g>
<!-- Node1&#45;&gt;Node4 -->
<g id="edge4" class="edge">
<title>Node1&#45;&gt;Node4</title>
<path fill="none" stroke="midnightblue" d="M38.43,-137.14C51.17,-140.68 68.54,-145.52 84.02,-149.84"/>
<polygon fill="midnightblue" stroke="midnightblue" points="83.28,-153.26 93.85,-152.58 85.16,-146.52 83.28,-153.26"/>
</g>
<!-- Node6 -->
<g id="node6" class="node">
<title>Node6</title>
<g id="a_node6"><a xlink:href="../../df/d3c/threaded__binary__trees_8c.html#a5a82ae0ee13788be51ca4ba6cddb0719" target="_top" xlink:title="performs postorder traversal param[in] curr node pointer to the topmost node of the tree">
<polygon fill="white" stroke="black" points="74,-94.5 74,-113.5 169,-113.5 169,-94.5 74,-94.5"/>
<text text-anchor="middle" x="121.5" y="-101.5" font-family="Helvetica,sans-Serif" font-size="10.00">postorder_display</text>
</a>
</g>
</g>
<!-- Node1&#45;&gt;Node6 -->
<g id="edge6" class="edge">
<title>Node1&#45;&gt;Node6</title>
<path fill="none" stroke="midnightblue" d="M38.43,-126.86C49.09,-123.9 62.99,-120.02 76.31,-116.31"/>
<polygon fill="midnightblue" stroke="midnightblue" points="77.63,-119.58 86.33,-113.52 75.75,-112.83 77.63,-119.58"/>
</g>
<!-- Node7 -->
<g id="node7" class="node">
<title>Node7</title>
<g id="a_node7"><a xlink:href="../../df/d3c/threaded__binary__trees_8c.html#a8169ba0dfd5b8183672e444d1434bf9c" target="_top" xlink:title="performs preorder traversal param[in] curr node pointer to the topmost node of the tree">
<polygon fill="white" stroke="black" points="76,-38.5 76,-57.5 167,-57.5 167,-38.5 76,-38.5"/>
<text text-anchor="middle" x="121.5" y="-45.5" font-family="Helvetica,sans-Serif" font-size="10.00">preorder_display</text>
</a>
</g>
</g>
<!-- Node1&#45;&gt;Node7 -->
<g id="edge8" class="edge">
<title>Node1&#45;&gt;Node7</title>
<path fill="none" stroke="midnightblue" d="M30.64,-122.5C41.44,-112.9 58.72,-97.72 74,-85 82.47,-77.95 91.98,-70.33 100.17,-63.86"/>
<polygon fill="midnightblue" stroke="midnightblue" points="102.45,-66.52 108.14,-57.59 98.12,-61.02 102.45,-66.52"/>
</g>
<!-- Node8 -->
<g id="node8" class="node">
<title>Node8</title>
<g id="a_node8"><a xlink:href="../../df/d3c/threaded__binary__trees_8c.html#a306d567466f22e1e927aaed97d8bb58c" target="_top" xlink:title="searches for the element">
<polygon fill="white" stroke="black" points="98,-0.5 98,-19.5 145,-19.5 145,-0.5 98,-0.5"/>
<text text-anchor="middle" x="121.5" y="-7.5" font-family="Helvetica,sans-Serif" font-size="10.00">search</text>
</a>
</g>
</g>
<!-- Node1&#45;&gt;Node8 -->
<g id="edge10" class="edge">
<title>Node1&#45;&gt;Node8</title>
<path fill="none" stroke="midnightblue" d="M22.59,-122.37C28.46,-102.33 44.57,-55.76 74,-29 78.19,-25.19 83.26,-22.08 88.47,-19.58"/>
<polygon fill="midnightblue" stroke="midnightblue" points="89.98,-22.74 97.88,-15.69 87.31,-16.27 89.98,-22.74"/>
</g>
<!-- Node3&#45;&gt;Node3 -->
<g id="edge3" class="edge">
<title>Node3&#45;&gt;Node3</title>
<path fill="none" stroke="midnightblue" d="M105.78,-207.76C98.13,-216.57 103.37,-226 121.5,-226 132.83,-226 139.13,-222.31 140.39,-217.4"/>
<polygon fill="midnightblue" stroke="midnightblue" points="143.67,-216.17 137.22,-207.76 137.02,-218.35 143.67,-216.17"/>
</g>
<!-- Node5 -->
<g id="node5" class="node">
<title>Node5</title>
<g id="a_node5"><a xlink:href="../../df/d3c/threaded__binary__trees_8c.html#a4802bca3f38251543b4aba6765e0390d" target="_top" xlink:title="creates a new node param[in] data value to be inserted">
<polygon fill="white" stroke="black" points="205,-150.5 205,-169.5 277,-169.5 277,-150.5 205,-150.5"/>
<text text-anchor="middle" x="241" y="-157.5" font-family="Helvetica,sans-Serif" font-size="10.00">create_node</text>
</a>
</g>
</g>
<!-- Node4&#45;&gt;Node5 -->
<g id="edge5" class="edge">
<title>Node4&#45;&gt;Node5</title>
<path fill="none" stroke="midnightblue" d="M149.16,-160C162.59,-160 179.23,-160 194.6,-160"/>
<polygon fill="midnightblue" stroke="midnightblue" points="194.97,-163.5 204.97,-160 194.97,-156.5 194.97,-163.5"/>
</g>
<!-- Node6&#45;&gt;Node6 -->
<g id="edge7" class="edge">
<title>Node6&#45;&gt;Node6</title>
<path fill="none" stroke="midnightblue" d="M105.78,-113.76C98.13,-122.57 103.37,-132 121.5,-132 132.83,-132 139.13,-128.31 140.39,-123.4"/>
<polygon fill="midnightblue" stroke="midnightblue" points="143.67,-122.17 137.22,-113.76 137.02,-124.35 143.67,-122.17"/>
</g>
<!-- Node7&#45;&gt;Node7 -->
<g id="edge9" class="edge">
<title>Node7&#45;&gt;Node7</title>
<path fill="none" stroke="midnightblue" d="M105.78,-57.76C98.13,-66.57 103.37,-76 121.5,-76 132.83,-76 139.13,-72.31 140.39,-67.4"/>
<polygon fill="midnightblue" stroke="midnightblue" points="143.67,-66.17 137.22,-57.76 137.02,-68.35 143.67,-66.17"/>
</g>
</g>
</svg>
