<?xml version="1.0" encoding="UTF-8" standalone="no"?>
<!DOCTYPE svg PUBLIC "-//W3C//DTD SVG 1.1//EN"
 "http://www.w3.org/Graphics/SVG/1.1/DTD/svg11.dtd">
<!-- Generated by graphviz version 7.0.6 (20230106.0513)
 -->
<!-- Title: main Pages: 1 -->
<svg width="281pt" height="266pt"
 viewBox="0.00 0.00 281.00 266.00" xmlns="http://www.w3.org/2000/svg" xmlns:xlink="http://www.w3.org/1999/xlink">
<g id="graph0" class="graph" transform="scale(1 1) rotate(0) translate(4 262)">
<title>main</title>
<!-- Node1 -->
<g id="node1" class="node">
<title>Node1</title>
<g id="a_node1"><a xlink:title="main function">
<polygon fill="#999999" stroke="#666666" points="38,-138 0,-138 0,-119 38,-119 38,-138"/>
<text text-anchor="middle" x="19" y="-126" font-family="Helvetica,sans-Serif" font-size="10.00">main</text>
</a>
</g>
</g>
<!-- Node2 -->
<g id="node2" class="node">
<title>Node2</title>
<g id="a_node2"><a xlink:href="../../df/d3c/threaded__binary__trees_8c.html#a284d683f74b6c884e79ba00d3d1c3317" target="_top" xlink:title="deletion of a node from the tree if the node isn&#39;t present in the tree, it takes no action.">
<polygon fill="white" stroke="#666666" points="148.5,-258 92.5,-258 92.5,-239 148.5,-239 148.5,-258"/>
<text text-anchor="middle" x="120.5" y="-246" font-family="Helvetica,sans-Serif" font-size="10.00">delete_bt</text>
</a>
</g>
</g>
<!-- Node1&#45;&gt;Node2 -->
<g id="edge1" class="edge">
<title>Node1&#45;&gt;Node2</title>
<path fill="none" stroke="#63b8ff" d="M22.69,-138.37C28.63,-158.43 44.74,-204.3 74,-230.5 76.43,-232.68 79.16,-234.61 82.04,-236.32"/>
<polygon fill="#63b8ff" stroke="#63b8ff" points="80.33,-239.37 90.85,-240.63 83.41,-233.09 80.33,-239.37"/>
</g>
<!-- Node3 -->
<g id="node3" class="node">
<title>Node3</title>
<g id="a_node3"><a xlink:href="../../df/d3c/threaded__binary__trees_8c.html#a4c1e06b5f0876ec9c1bd6817f3b7eda7" target="_top" xlink:title="performs inorder traversal param[in] curr node pointer to the topmost node of the tree">
<polygon fill="white" stroke="#666666" points="161.5,-203 79.5,-203 79.5,-184 161.5,-184 161.5,-203"/>
<text text-anchor="middle" x="120.5" y="-191" font-family="Helvetica,sans-Serif" font-size="10.00">inorder_display</text>
</a>
</g>
</g>
<!-- Node1&#45;&gt;Node3 -->
<g id="edge2" class="edge">
<title>Node1&#45;&gt;Node3</title>
<path fill="none" stroke="#63b8ff" d="M29.16,-138.24C39.32,-148.6 56.59,-164.91 74,-175.5 75.98,-176.71 78.06,-177.86 80.2,-178.96"/>
<polygon fill="#63b8ff" stroke="#63b8ff" points="78.47,-182.02 89.02,-183.06 81.42,-175.67 78.47,-182.02"/>
</g>
<!-- Node4 -->
<g id="node4" class="node">
<title>Node4</title>
<g id="a_node4"><a xlink:href="../../df/d3c/threaded__binary__trees_8c.html#a823432888332fc9f0aa6072cff28c3bb" target="_top" xlink:title="inserts a node into the tree param[in,out] root pointer to node pointer to the topmost node of the tr...">
<polygon fill="white" stroke="#666666" points="147.5,-166 93.5,-166 93.5,-147 147.5,-147 147.5,-166"/>
<text text-anchor="middle" x="120.5" y="-154" font-family="Helvetica,sans-Serif" font-size="10.00">insert_bt</text>
</a>
</g>
</g>
<!-- Node1&#45;&gt;Node4 -->
<g id="edge4" class="edge">
<title>Node1&#45;&gt;Node4</title>
<path fill="none" stroke="#63b8ff" d="M38.25,-133.64C50.5,-137.08 67.08,-141.75 82.06,-145.97"/>
<polygon fill="#63b8ff" stroke="#63b8ff" points="81.09,-149.33 91.66,-148.67 82.98,-142.59 81.09,-149.33"/>
</g>
<!-- Node6 -->
<g id="node6" class="node">
<title>Node6</title>
<g id="a_node6"><a xlink:href="../../df/d3c/threaded__binary__trees_8c.html#a5a82ae0ee13788be51ca4ba6cddb0719" target="_top" xlink:title="performs postorder traversal param[in] curr node pointer to the topmost node of the tree">
<polygon fill="white" stroke="#666666" points="167,-111 74,-111 74,-92 167,-92 167,-111"/>
<text text-anchor="middle" x="120.5" y="-99" font-family="Helvetica,sans-Serif" font-size="10.00">postorder_display</text>
</a>
</g>
</g>
<!-- Node1&#45;&gt;Node6 -->
<g id="edge6" class="edge">
<title>Node1&#45;&gt;Node6</title>
<path fill="none" stroke="#63b8ff" d="M38.25,-123.55C47.79,-120.96 59.94,-117.66 71.93,-114.41"/>
<polygon fill="#63b8ff" stroke="#63b8ff" points="72.62,-117.85 81.36,-111.85 70.79,-111.09 72.62,-117.85"/>
</g>
<!-- Node7 -->
<g id="node7" class="node">
<title>Node7</title>
<g id="a_node7"><a xlink:href="../../df/d3c/threaded__binary__trees_8c.html#a8169ba0dfd5b8183672e444d1434bf9c" target="_top" xlink:title="performs preorder traversal param[in] curr node pointer to the topmost node of the tree">
<polygon fill="white" stroke="#666666" points="164.5,-56 76.5,-56 76.5,-37 164.5,-37 164.5,-56"/>
<text text-anchor="middle" x="120.5" y="-44" font-family="Helvetica,sans-Serif" font-size="10.00">preorder_display</text>
</a>
</g>
</g>
<!-- Node1&#45;&gt;Node7 -->
<g id="edge8" class="edge">
<title>Node1&#45;&gt;Node7</title>
<path fill="none" stroke="#63b8ff" d="M31.55,-118.8C42.47,-109.66 59.3,-95.6 74,-83.5 82.05,-76.88 90.93,-69.63 98.7,-63.32"/>
<polygon fill="#63b8ff" stroke="#63b8ff" points="100.75,-66.17 106.32,-57.15 96.35,-60.73 100.75,-66.17"/>
</g>
<!-- Node8 -->
<g id="node8" class="node">
<title>Node8</title>
<g id="a_node8"><a xlink:href="../../df/d3c/threaded__binary__trees_8c.html#a306d567466f22e1e927aaed97d8bb58c" target="_top" xlink:title="searches for the element">
<polygon fill="white" stroke="#666666" points="143.5,-19 97.5,-19 97.5,0 143.5,0 143.5,-19"/>
<text text-anchor="middle" x="120.5" y="-7" font-family="Helvetica,sans-Serif" font-size="10.00">search</text>
</a>
</g>
</g>
<!-- Node1&#45;&gt;Node8 -->
<g id="edge10" class="edge">
<title>Node1&#45;&gt;Node8</title>
<path fill="none" stroke="#63b8ff" d="M22.88,-118.57C29.07,-98.83 45.47,-54.32 74,-28.5 77.82,-25.05 82.35,-22.17 87.05,-19.78"/>
<polygon fill="#63b8ff" stroke="#63b8ff" points="88.22,-23.09 96.02,-15.92 85.45,-16.66 88.22,-23.09"/>
</g>
<!-- Node3&#45;&gt;Node3 -->
<g id="edge3" class="edge">
<title>Node3&#45;&gt;Node3</title>
<path fill="none" stroke="#63b8ff" d="M104.61,-203.37C97.36,-211.94 102.66,-221 120.5,-221 130.26,-221 136.26,-218.29 138.52,-214.43"/>
<polygon fill="#63b8ff" stroke="#63b8ff" points="142,-214.01 136.68,-204.85 135.13,-215.34 142,-214.01"/>
</g>
<!-- Node5 -->
<g id="node5" class="node">
<title>Node5</title>
<g id="a_node5"><a xlink:href="../../df/d3c/threaded__binary__trees_8c.html#a4802bca3f38251543b4aba6765e0390d" target="_top" xlink:title="creates a new node param[in] data value to be inserted">
<polygon fill="white" stroke="#666666" points="273,-166 203,-166 203,-147 273,-147 273,-166"/>
<text text-anchor="middle" x="238" y="-154" font-family="Helvetica,sans-Serif" font-size="10.00">create_node</text>
</a>
</g>
</g>
<!-- Node4&#45;&gt;Node5 -->
<g id="edge5" class="edge">
<title>Node4&#45;&gt;Node5</title>
<path fill="none" stroke="#63b8ff" d="M148,-156.5C160.82,-156.5 176.59,-156.5 191.27,-156.5"/>
<polygon fill="#63b8ff" stroke="#63b8ff" points="191.22,-160 201.22,-156.5 191.22,-153 191.22,-160"/>
</g>
<!-- Node6&#45;&gt;Node6 -->
<g id="edge7" class="edge">
<title>Node6&#45;&gt;Node6</title>
<path fill="none" stroke="#63b8ff" d="M104.61,-111.37C97.36,-119.94 102.66,-129 120.5,-129 130.26,-129 136.26,-126.29 138.52,-122.43"/>
<polygon fill="#63b8ff" stroke="#63b8ff" points="142,-122.01 136.68,-112.85 135.13,-123.34 142,-122.01"/>
</g>
<!-- Node7&#45;&gt;Node7 -->
<g id="edge9" class="edge">
<title>Node7&#45;&gt;Node7</title>
<path fill="none" stroke="#63b8ff" d="M104.61,-56.37C97.36,-64.94 102.66,-74 120.5,-74 130.26,-74 136.26,-71.29 138.52,-67.43"/>
<polygon fill="#63b8ff" stroke="#63b8ff" points="142,-67.01 136.68,-57.85 135.13,-68.34 142,-67.01"/>
</g>
</g>
</svg>
