<?xml version="1.0" encoding="UTF-8" standalone="no"?>
<!DOCTYPE svg PUBLIC "-//W3C//DTD SVG 1.1//EN"
 "http://www.w3.org/Graphics/SVG/1.1/DTD/svg11.dtd">
<!-- Generated by graphviz version 3.0.0 (20220226.1711)
 -->
<!-- Title: main Pages: 1 -->
<svg width="281pt" height="272pt"
 viewBox="0.00 0.00 281.00 272.00" xmlns="http://www.w3.org/2000/svg" xmlns:xlink="http://www.w3.org/1999/xlink">
<g id="graph0" class="graph" transform="scale(1 1) rotate(0) translate(4 268)">
<title>main</title>
<polygon fill="white" stroke="transparent" points="-4,4 -4,-268 277,-268 277,4 -4,4"/>
<!-- Node1 -->
<g id="node1" class="node">
<title>Node1</title>
<g id="a_node1"><a xlink:title="main function">
<polygon fill="#bfbfbf" stroke="black" points="0,-122.5 0,-141.5 38,-141.5 38,-122.5 0,-122.5"/>
<text text-anchor="middle" x="19" y="-129.5" font-family="Helvetica,sans-Serif" font-size="10.00">main</text>
</a>
</g>
</g>
<!-- Node2 -->
<g id="node2" class="node">
<title>Node2</title>
<g id="a_node2"><a xlink:href="../../df/d3c/threaded__binary__trees_8c.html#a284d683f74b6c884e79ba00d3d1c3317" target="_top" xlink:title="deletion of a node from the tree if the node isn&#39;t present in the tree, it takes no action.">
<polygon fill="white" stroke="black" points="92.5,-244.5 92.5,-263.5 148.5,-263.5 148.5,-244.5 92.5,-244.5"/>
<text text-anchor="middle" x="120.5" y="-251.5" font-family="Helvetica,sans-Serif" font-size="10.00">delete_bt</text>
</a>
</g>
</g>
<!-- Node1&#45;&gt;Node2 -->
<g id="edge1" class="edge">
<title>Node1&#45;&gt;Node2</title>
<path fill="none" stroke="midnightblue" d="M22.61,-141.61C28.5,-161.62 44.67,-208.13 74,-235 76.75,-237.52 79.88,-239.73 83.18,-241.67"/>
<polygon fill="midnightblue" stroke="midnightblue" points="81.68,-244.83 92.19,-246.17 84.81,-238.57 81.68,-244.83"/>
</g>
<!-- Node3 -->
<g id="node3" class="node">
<title>Node3</title>
<g id="a_node3"><a xlink:href="../../df/d3c/threaded__binary__trees_8c.html#a4c1e06b5f0876ec9c1bd6817f3b7eda7" target="_top" xlink:title="performs inorder traversal param[in] curr node pointer to the topmost node of the tree">
<polygon fill="white" stroke="black" points="79.5,-188.5 79.5,-207.5 161.5,-207.5 161.5,-188.5 79.5,-188.5"/>
<text text-anchor="middle" x="120.5" y="-195.5" font-family="Helvetica,sans-Serif" font-size="10.00">inorder_display</text>
</a>
</g>
</g>
<!-- Node1&#45;&gt;Node3 -->
<g id="edge2" class="edge">
<title>Node1&#45;&gt;Node3</title>
<path fill="none" stroke="midnightblue" d="M29.2,-141.68C39.39,-151.98 56.69,-168.24 74,-179 76.84,-180.76 79.86,-182.43 82.96,-183.99"/>
<polygon fill="midnightblue" stroke="midnightblue" points="81.78,-187.3 92.32,-188.33 84.72,-180.95 81.78,-187.3"/>
</g>
<!-- Node4 -->
<g id="node4" class="node">
<title>Node4</title>
<g id="a_node4"><a xlink:href="../../df/d3c/threaded__binary__trees_8c.html#a823432888332fc9f0aa6072cff28c3bb" target="_top" xlink:title="inserts a node into the tree param[in,out] root pointer to node pointer to the topmost node of the tr...">
<polygon fill="white" stroke="black" points="93.5,-150.5 93.5,-169.5 147.5,-169.5 147.5,-150.5 93.5,-150.5"/>
<text text-anchor="middle" x="120.5" y="-157.5" font-family="Helvetica,sans-Serif" font-size="10.00">insert_bt</text>
</a>
</g>
</g>
<!-- Node1&#45;&gt;Node4 -->
<g id="edge4" class="edge">
<title>Node1&#45;&gt;Node4</title>
<path fill="none" stroke="midnightblue" d="M38.25,-137.14C50.95,-140.71 68.31,-145.59 83.72,-149.93"/>
<polygon fill="midnightblue" stroke="midnightblue" points="82.92,-153.34 93.5,-152.68 84.82,-146.6 82.92,-153.34"/>
</g>
<!-- Node6 -->
<g id="node6" class="node">
<title>Node6</title>
<g id="a_node6"><a xlink:href="../../df/d3c/threaded__binary__trees_8c.html#a5a82ae0ee13788be51ca4ba6cddb0719" target="_top" xlink:title="performs postorder traversal param[in] curr node pointer to the topmost node of the tree">
<polygon fill="white" stroke="black" points="74,-94.5 74,-113.5 167,-113.5 167,-94.5 74,-94.5"/>
<text text-anchor="middle" x="120.5" y="-101.5" font-family="Helvetica,sans-Serif" font-size="10.00">postorder_display</text>
</a>
</g>
</g>
<!-- Node1&#45;&gt;Node6 -->
<g id="edge6" class="edge">
<title>Node1&#45;&gt;Node6</title>
<path fill="none" stroke="midnightblue" d="M38.25,-126.86C48.8,-123.9 62.56,-120.02 75.75,-116.31"/>
<polygon fill="midnightblue" stroke="midnightblue" points="76.99,-119.6 85.67,-113.52 75.09,-112.86 76.99,-119.6"/>
</g>
<!-- Node7 -->
<g id="node7" class="node">
<title>Node7</title>
<g id="a_node7"><a xlink:href="../../df/d3c/threaded__binary__trees_8c.html#a8169ba0dfd5b8183672e444d1434bf9c" target="_top" xlink:title="performs preorder traversal param[in] curr node pointer to the topmost node of the tree">
<polygon fill="white" stroke="black" points="76.5,-38.5 76.5,-57.5 164.5,-57.5 164.5,-38.5 76.5,-38.5"/>
<text text-anchor="middle" x="120.5" y="-45.5" font-family="Helvetica,sans-Serif" font-size="10.00">preorder_display</text>
</a>
</g>
</g>
<!-- Node1&#45;&gt;Node7 -->
<g id="edge8" class="edge">
<title>Node1&#45;&gt;Node7</title>
<path fill="none" stroke="midnightblue" d="M31.08,-122.17C41.93,-112.58 58.97,-97.64 74,-85 82.33,-77.99 91.63,-70.39 99.65,-63.91"/>
<polygon fill="midnightblue" stroke="midnightblue" points="101.84,-66.63 107.44,-57.63 97.45,-61.18 101.84,-66.63"/>
</g>
<!-- Node8 -->
<g id="node8" class="node">
<title>Node8</title>
<g id="a_node8"><a xlink:href="../../df/d3c/threaded__binary__trees_8c.html#a306d567466f22e1e927aaed97d8bb58c" target="_top" xlink:title="searches for the element">
<polygon fill="white" stroke="black" points="97.5,-0.5 97.5,-19.5 143.5,-19.5 143.5,-0.5 97.5,-0.5"/>
<text text-anchor="middle" x="120.5" y="-7.5" font-family="Helvetica,sans-Serif" font-size="10.00">search</text>
</a>
</g>
</g>
<!-- Node1&#45;&gt;Node8 -->
<g id="edge10" class="edge">
<title>Node1&#45;&gt;Node8</title>
<path fill="none" stroke="midnightblue" d="M22.61,-122.39C28.5,-102.38 44.67,-55.87 74,-29 78,-25.33 82.81,-22.32 87.78,-19.86"/>
<polygon fill="midnightblue" stroke="midnightblue" points="89.54,-22.91 97.37,-15.78 86.8,-16.47 89.54,-22.91"/>
</g>
<!-- Node3&#45;&gt;Node3 -->
<g id="edge3" class="edge">
<title>Node3&#45;&gt;Node3</title>
<path fill="none" stroke="midnightblue" d="M105.09,-207.76C97.59,-216.57 102.73,-226 120.5,-226 131.61,-226 137.78,-222.31 139.02,-217.4"/>
<polygon fill="midnightblue" stroke="midnightblue" points="142.31,-216.2 135.91,-207.76 135.65,-218.35 142.31,-216.2"/>
</g>
<!-- Node5 -->
<g id="node5" class="node">
<title>Node5</title>
<g id="a_node5"><a xlink:href="../../df/d3c/threaded__binary__trees_8c.html#a4802bca3f38251543b4aba6765e0390d" target="_top" xlink:title="creates a new node param[in] data value to be inserted">
<polygon fill="white" stroke="black" points="203,-150.5 203,-169.5 273,-169.5 273,-150.5 203,-150.5"/>
<text text-anchor="middle" x="238" y="-157.5" font-family="Helvetica,sans-Serif" font-size="10.00">create_node</text>
</a>
</g>
</g>
<!-- Node4&#45;&gt;Node5 -->
<g id="edge5" class="edge">
<title>Node4&#45;&gt;Node5</title>
<path fill="none" stroke="midnightblue" d="M147.71,-160C161.01,-160 177.54,-160 192.74,-160"/>
<polygon fill="midnightblue" stroke="midnightblue" points="193,-163.5 203,-160 193,-156.5 193,-163.5"/>
</g>
<!-- Node6&#45;&gt;Node6 -->
<g id="edge7" class="edge">
<title>Node6&#45;&gt;Node6</title>
<path fill="none" stroke="midnightblue" d="M105.09,-113.76C97.59,-122.57 102.73,-132 120.5,-132 131.61,-132 137.78,-128.31 139.02,-123.4"/>
<polygon fill="midnightblue" stroke="midnightblue" points="142.31,-122.2 135.91,-113.76 135.65,-124.35 142.31,-122.2"/>
</g>
<!-- Node7&#45;&gt;Node7 -->
<g id="edge9" class="edge">
<title>Node7&#45;&gt;Node7</title>
<path fill="none" stroke="midnightblue" d="M105.09,-57.76C97.59,-66.57 102.73,-76 120.5,-76 131.61,-76 137.78,-72.31 139.02,-67.4"/>
<polygon fill="midnightblue" stroke="midnightblue" points="142.31,-66.2 135.91,-57.76 135.65,-68.35 142.31,-66.2"/>
</g>
</g>
</svg>
