<?xml version="1.0" encoding="UTF-8" standalone="no"?>
<!DOCTYPE svg PUBLIC "-//W3C//DTD SVG 1.1//EN"
 "http://www.w3.org/Graphics/SVG/1.1/DTD/svg11.dtd">
<!-- Generated by graphviz version 3.0.0 (20220226.1711)
 -->
<!-- Title: test2 Pages: 1 -->
<svg width="266pt" height="85pt"
 viewBox="0.00 0.00 266.00 85.00" xmlns="http://www.w3.org/2000/svg" xmlns:xlink="http://www.w3.org/1999/xlink">
<g id="graph0" class="graph" transform="scale(1 1) rotate(0) translate(4 81)">
<title>test2</title>
<polygon fill="white" stroke="transparent" points="-4,4 -4,-81 262,-81 262,4 -4,4"/>
<!-- Node1 -->
<g id="node1" class="node">
<title>Node1</title>
<g id="a_node1"><a xlink:title=" ">
<polygon fill="#bfbfbf" stroke="black" points="0,-19.5 0,-38.5 38,-38.5 38,-19.5 0,-19.5"/>
<text text-anchor="middle" x="19" y="-26.5" font-family="Helvetica,sans-Serif" font-size="10.00">test2</text>
</a>
</g>
</g>
<!-- Node2 -->
<g id="node2" class="node">
<title>Node2</title>
<g id="a_node2"><a xlink:href="../../d8/d71/group__k__means.html#gaf6259432561e794dea0e060f482d15e2" target="_top" xlink:title=" ">
<polygon fill="white" stroke="black" points="76.5,-38.5 76.5,-57.5 127.5,-57.5 127.5,-38.5 76.5,-38.5"/>
<text text-anchor="middle" x="102" y="-45.5" font-family="Helvetica,sans-Serif" font-size="10.00">kMeans</text>
</a>
</g>
</g>
<!-- Node1&#45;&gt;Node2 -->
<g id="edge1" class="edge">
<title>Node1&#45;&gt;Node2</title>
<path fill="none" stroke="midnightblue" d="M38.38,-33.31C46.69,-35.26 56.8,-37.63 66.45,-39.9"/>
<polygon fill="midnightblue" stroke="midnightblue" points="65.71,-43.32 76.24,-42.19 67.31,-36.5 65.71,-43.32"/>
</g>
<!-- Node5 -->
<g id="node5" class="node">
<title>Node5</title>
<g id="a_node5"><a xlink:href="../../d6/d76/k__means__clustering_8c.html#a5b4ba704e02672e59cfa35f82e3db28a" target="_top" xlink:title=" ">
<polygon fill="white" stroke="black" points="74,-0.5 74,-19.5 130,-19.5 130,-0.5 74,-0.5"/>
<text text-anchor="middle" x="102" y="-7.5" font-family="Helvetica,sans-Serif" font-size="10.00">printEPS</text>
</a>
</g>
</g>
<!-- Node1&#45;&gt;Node5 -->
<g id="edge4" class="edge">
<title>Node1&#45;&gt;Node5</title>
<path fill="none" stroke="midnightblue" d="M38.38,-24.69C45.98,-22.91 55.07,-20.77 63.94,-18.69"/>
<polygon fill="midnightblue" stroke="midnightblue" points="64.84,-22.08 73.77,-16.39 63.24,-15.26 64.84,-22.08"/>
</g>
<!-- Node3 -->
<g id="node3" class="node">
<title>Node3</title>
<g id="a_node3"><a xlink:href="../../d8/d71/group__k__means.html#gadee39a3f17bf5144df5592e48dbfc9f7" target="_top" xlink:title=" ">
<polygon fill="white" stroke="black" points="166,-57.5 166,-76.5 258,-76.5 258,-57.5 166,-57.5"/>
<text text-anchor="middle" x="212" y="-64.5" font-family="Helvetica,sans-Serif" font-size="10.00">calculateCentroid</text>
</a>
</g>
</g>
<!-- Node2&#45;&gt;Node3 -->
<g id="edge2" class="edge">
<title>Node2&#45;&gt;Node3</title>
<path fill="none" stroke="midnightblue" d="M127.51,-52.31C136,-53.81 145.9,-55.55 155.85,-57.3"/>
<polygon fill="midnightblue" stroke="midnightblue" points="155.32,-60.76 165.77,-59.04 156.53,-53.86 155.32,-60.76"/>
</g>
<!-- Node4 -->
<g id="node4" class="node">
<title>Node4</title>
<g id="a_node4"><a xlink:href="../../d8/d71/group__k__means.html#gad339c41d3ee9e6729aca9e9ab3f7d2d9" target="_top" xlink:title=" ">
<polygon fill="white" stroke="black" points="169.5,-19.5 169.5,-38.5 254.5,-38.5 254.5,-19.5 169.5,-19.5"/>
<text text-anchor="middle" x="212" y="-26.5" font-family="Helvetica,sans-Serif" font-size="10.00">calculateNearst</text>
</a>
</g>
</g>
<!-- Node2&#45;&gt;Node4 -->
<g id="edge3" class="edge">
<title>Node2&#45;&gt;Node4</title>
<path fill="none" stroke="midnightblue" d="M127.51,-43.69C136.94,-42.03 148.11,-40.06 159.16,-38.12"/>
<polygon fill="midnightblue" stroke="midnightblue" points="159.97,-41.53 169.21,-36.35 158.76,-34.64 159.97,-41.53"/>
</g>
</g>
</svg>
