<?xml version="1.0" encoding="UTF-8" standalone="no"?>
<!DOCTYPE svg PUBLIC "-//W3C//DTD SVG 1.1//EN"
 "http://www.w3.org/Graphics/SVG/1.1/DTD/svg11.dtd">
<!-- Generated by graphviz version 8.0.4 (20230421.1958)
 -->
<!-- Title: main Pages: 1 -->
<svg width="332pt" height="82pt"
 viewBox="0.00 0.00 332.25 82.25" xmlns="http://www.w3.org/2000/svg" xmlns:xlink="http://www.w3.org/1999/xlink">
<g id="graph0" class="graph" transform="scale(1 1) rotate(0) translate(4 78.25)">
<title>main</title>
<!-- Node1 -->
<g id="node1" class="node">
<title>Node1</title>
<g id="a_node1"><a xlink:title=" ">
<polygon fill="#999999" stroke="#666666" points="37,-37.25 0,-37.25 0,-18 37,-18 37,-37.25"/>
<text text-anchor="middle" x="18.5" y="-23.75" font-family="Helvetica,sans-Serif" font-size="10.00">main</text>
</a>
</g>
</g>
<!-- Node2 -->
<g id="node2" class="node">
<title>Node2</title>
<g id="a_node2"><a xlink:href="../../d6/d76/k__means__clustering_8c.html#aa8dca7b867074164d5f45b0f3851269d" target="_top" xlink:title=" ">
<polygon fill="white" stroke="#666666" points="105.5,-37.25 73,-37.25 73,-18 105.5,-18 105.5,-37.25"/>
<text text-anchor="middle" x="89.25" y="-23.75" font-family="Helvetica,sans-Serif" font-size="10.00">test</text>
</a>
</g>
</g>
<!-- Node1&#45;&gt;Node2 -->
<g id="edge1" class="edge">
<title>Node1&#45;&gt;Node2</title>
<path fill="none" stroke="#63b8ff" d="M37.2,-27.62C44.67,-27.62 53.52,-27.62 61.73,-27.62"/>
<polygon fill="#63b8ff" stroke="#63b8ff" points="61.71,-31.13 71.71,-27.62 61.71,-24.13 61.71,-31.13"/>
</g>
<!-- Node3 -->
<g id="node3" class="node">
<title>Node3</title>
<g id="a_node3"><a xlink:href="../../d8/d71/group__k__means.html#gaf6259432561e794dea0e060f482d15e2" target="_top" xlink:title=" ">
<polygon fill="white" stroke="#666666" points="194.25,-56.25 143.75,-56.25 143.75,-37 194.25,-37 194.25,-56.25"/>
<text text-anchor="middle" x="169" y="-42.75" font-family="Helvetica,sans-Serif" font-size="10.00">kMeans</text>
</a>
</g>
</g>
<!-- Node2&#45;&gt;Node3 -->
<g id="edge2" class="edge">
<title>Node2&#45;&gt;Node3</title>
<path fill="none" stroke="#63b8ff" d="M105.98,-31.47C113.79,-33.38 123.54,-35.76 132.99,-38.07"/>
<polygon fill="#63b8ff" stroke="#63b8ff" points="131.86,-41.64 142.41,-40.62 133.53,-34.84 131.86,-41.64"/>
</g>
<!-- Node6 -->
<g id="node6" class="node">
<title>Node6</title>
<g id="a_node6"><a xlink:href="../../d6/d76/k__means__clustering_8c.html#a5b4ba704e02672e59cfa35f82e3db28a" target="_top" xlink:title=" ">
<polygon fill="white" stroke="#666666" points="196.5,-19.25 141.5,-19.25 141.5,0 196.5,0 196.5,-19.25"/>
<text text-anchor="middle" x="169" y="-5.75" font-family="Helvetica,sans-Serif" font-size="10.00">printEPS</text>
</a>
</g>
</g>
<!-- Node2&#45;&gt;Node6 -->
<g id="edge5" class="edge">
<title>Node2&#45;&gt;Node6</title>
<path fill="none" stroke="#63b8ff" d="M105.98,-23.98C113.18,-22.32 122.03,-20.27 130.77,-18.24"/>
<polygon fill="#63b8ff" stroke="#63b8ff" points="131.31,-21.48 140.26,-15.81 129.73,-14.66 131.31,-21.48"/>
</g>
<!-- Node4 -->
<g id="node4" class="node">
<title>Node4</title>
<g id="a_node4"><a xlink:href="../../d8/d71/group__k__means.html#gadee39a3f17bf5144df5592e48dbfc9f7" target="_top" xlink:title=" ">
<polygon fill="white" stroke="#666666" points="324.25,-74.25 232.5,-74.25 232.5,-55 324.25,-55 324.25,-74.25"/>
<text text-anchor="middle" x="278.38" y="-60.75" font-family="Helvetica,sans-Serif" font-size="10.00">calculateCentroid</text>
</a>
</g>
</g>
<!-- Node3&#45;&gt;Node4 -->
<g id="edge3" class="edge">
<title>Node3&#45;&gt;Node4</title>
<path fill="none" stroke="#63b8ff" d="M194.63,-50.75C202.73,-52.11 212.09,-53.68 221.54,-55.26"/>
<polygon fill="#63b8ff" stroke="#63b8ff" points="220.74,-58.85 231.18,-57.05 221.9,-51.94 220.74,-58.85"/>
</g>
<!-- Node5 -->
<g id="node5" class="node">
<title>Node5</title>
<g id="a_node5"><a xlink:href="../../d8/d71/group__k__means.html#gad339c41d3ee9e6729aca9e9ab3f7d2d9" target="_top" xlink:title=" ">
<polygon fill="white" stroke="#666666" points="320.5,-37.25 236.25,-37.25 236.25,-18 320.5,-18 320.5,-37.25"/>
<text text-anchor="middle" x="278.38" y="-23.75" font-family="Helvetica,sans-Serif" font-size="10.00">calculateNearst</text>
</a>
</g>
</g>
<!-- Node3&#45;&gt;Node5 -->
<g id="edge4" class="edge">
<title>Node3&#45;&gt;Node5</title>
<path fill="none" stroke="#63b8ff" d="M194.63,-42.27C203.83,-40.64 214.65,-38.72 225.38,-36.83"/>
<polygon fill="#63b8ff" stroke="#63b8ff" points="225.78,-40.13 235.02,-34.94 224.56,-33.24 225.78,-40.13"/>
</g>
</g>
</svg>
