<?xml version="1.0" encoding="UTF-8" standalone="no"?>
<!DOCTYPE svg PUBLIC "-//W3C//DTD SVG 1.1//EN"
 "http://www.w3.org/Graphics/SVG/1.1/DTD/svg11.dtd">
<!-- Generated by graphviz version 2.49.3 (20211023.0002)
 -->
<!-- Title: main Pages: 1 -->
<svg width="337pt" height="85pt"
 viewBox="0.00 0.00 337.00 85.00" xmlns="http://www.w3.org/2000/svg" xmlns:xlink="http://www.w3.org/1999/xlink">
<g id="graph0" class="graph" transform="scale(1 1) rotate(0) translate(4 81)">
<title>main</title>
<polygon fill="white" stroke="transparent" points="-4,4 -4,-81 333,-81 333,4 -4,4"/>
<!-- Node1 -->
<g id="node1" class="node">
<title>Node1</title>
<g id="a_node1"><a xlink:title=" ">
<polygon fill="#bfbfbf" stroke="black" points="0,-19.5 0,-38.5 38,-38.5 38,-19.5 0,-19.5"/>
<text text-anchor="middle" x="19" y="-26.5" font-family="Helvetica,sans-Serif" font-size="10.00">main</text>
</a>
</g>
</g>
<!-- Node2 -->
<g id="node2" class="node">
<title>Node2</title>
<g id="a_node2"><a xlink:href="../../d6/d76/k__means__clustering_8c.html#aa8dca7b867074164d5f45b0f3851269d" target="_top" xlink:title=" ">
<polygon fill="white" stroke="black" points="74,-19.5 74,-38.5 107,-38.5 107,-19.5 74,-19.5"/>
<text text-anchor="middle" x="90.5" y="-26.5" font-family="Helvetica,sans-Serif" font-size="10.00">test</text>
</a>
</g>
</g>
<!-- Node1&#45;&gt;Node2 -->
<g id="edge1" class="edge">
<title>Node1&#45;&gt;Node2</title>
<path fill="none" stroke="midnightblue" d="M38.26,-29C46.07,-29 55.31,-29 63.79,-29"/>
<polygon fill="midnightblue" stroke="midnightblue" points="63.95,-32.5 73.95,-29 63.95,-25.5 63.95,-32.5"/>
</g>
<!-- Node3 -->
<g id="node3" class="node">
<title>Node3</title>
<g id="a_node3"><a xlink:href="../../d8/d71/group__k__means.html#gaf6259432561e794dea0e060f482d15e2" target="_top" xlink:title=" ">
<polygon fill="white" stroke="black" points="145,-38.5 145,-57.5 197,-57.5 197,-38.5 145,-38.5"/>
<text text-anchor="middle" x="171" y="-45.5" font-family="Helvetica,sans-Serif" font-size="10.00">kMeans</text>
</a>
</g>
</g>
<!-- Node2&#45;&gt;Node3 -->
<g id="edge2" class="edge">
<title>Node2&#45;&gt;Node3</title>
<path fill="none" stroke="midnightblue" d="M107.01,-32.75C115.03,-34.7 125.18,-37.15 134.97,-39.52"/>
<polygon fill="midnightblue" stroke="midnightblue" points="134.4,-42.98 144.94,-41.94 136.05,-36.18 134.4,-42.98"/>
</g>
<!-- Node6 -->
<g id="node6" class="node">
<title>Node6</title>
<g id="a_node6"><a xlink:href="../../d6/d76/k__means__clustering_8c.html#a5b4ba704e02672e59cfa35f82e3db28a" target="_top" xlink:title=" ">
<polygon fill="white" stroke="black" points="143,-0.5 143,-19.5 199,-19.5 199,-0.5 143,-0.5"/>
<text text-anchor="middle" x="171" y="-7.5" font-family="Helvetica,sans-Serif" font-size="10.00">printEPS</text>
</a>
</g>
</g>
<!-- Node2&#45;&gt;Node6 -->
<g id="edge5" class="edge">
<title>Node2&#45;&gt;Node6</title>
<path fill="none" stroke="midnightblue" d="M107.01,-25.25C114.49,-23.44 123.82,-21.18 132.98,-18.96"/>
<polygon fill="midnightblue" stroke="midnightblue" points="133.87,-22.35 142.76,-16.59 132.22,-15.54 133.87,-22.35"/>
</g>
<!-- Node4 -->
<g id="node4" class="node">
<title>Node4</title>
<g id="a_node4"><a xlink:href="../../d8/d71/group__k__means.html#gadee39a3f17bf5144df5592e48dbfc9f7" target="_top" xlink:title=" ">
<polygon fill="white" stroke="black" points="235,-57.5 235,-76.5 329,-76.5 329,-57.5 235,-57.5"/>
<text text-anchor="middle" x="282" y="-64.5" font-family="Helvetica,sans-Serif" font-size="10.00">calculateCentroid</text>
</a>
</g>
</g>
<!-- Node3&#45;&gt;Node4 -->
<g id="edge3" class="edge">
<title>Node3&#45;&gt;Node4</title>
<path fill="none" stroke="midnightblue" d="M197.01,-52.36C205.31,-53.81 214.92,-55.48 224.61,-57.17"/>
<polygon fill="midnightblue" stroke="midnightblue" points="224.23,-60.66 234.69,-58.93 225.44,-53.76 224.23,-60.66"/>
</g>
<!-- Node5 -->
<g id="node5" class="node">
<title>Node5</title>
<g id="a_node5"><a xlink:href="../../d8/d71/group__k__means.html#gad339c41d3ee9e6729aca9e9ab3f7d2d9" target="_top" xlink:title=" ">
<polygon fill="white" stroke="black" points="239.5,-19.5 239.5,-38.5 324.5,-38.5 324.5,-19.5 239.5,-19.5"/>
<text text-anchor="middle" x="282" y="-26.5" font-family="Helvetica,sans-Serif" font-size="10.00">calculateNearst</text>
</a>
</g>
</g>
<!-- Node3&#45;&gt;Node5 -->
<g id="edge4" class="edge">
<title>Node3&#45;&gt;Node5</title>
<path fill="none" stroke="midnightblue" d="M197.01,-43.64C206.73,-41.95 218.24,-39.94 229.58,-37.96"/>
<polygon fill="midnightblue" stroke="midnightblue" points="230.2,-41.41 239.45,-36.24 228.99,-34.51 230.2,-41.41"/>
</g>
</g>
</svg>
