<?xml version="1.0" encoding="UTF-8" standalone="no"?>
<!DOCTYPE svg PUBLIC "-//W3C//DTD SVG 1.1//EN"
 "http://www.w3.org/Graphics/SVG/1.1/DTD/svg11.dtd">
<!-- Generated by graphviz version 8.0.2 (20230410.1723)
 -->
<!-- Title: data_structures/binary_trees/binary_search_tree.c Pages: 1 -->
<svg width="145pt" height="93pt"
 viewBox="0.00 0.00 145.00 93.00" xmlns="http://www.w3.org/2000/svg" xmlns:xlink="http://www.w3.org/1999/xlink">
<g id="graph0" class="graph" transform="scale(1 1) rotate(0) translate(4 89)">
<title>data_structures/binary_trees/binary_search_tree.c</title>
<!-- Node1 -->
<g id="node1" class="node">
<title>Node1</title>
<g id="a_node1"><a xlink:title="A basic unbalanced binary search tree implementation in C.">
<polygon fill="#999999" stroke="#666666" points="137,-85 0,-85 0,-55 137,-55 137,-85"/>
<text text-anchor="start" x="8" y="-73" font-family="Helvetica,sans-Serif" font-size="10.00">data_structures/binary</text>
<text text-anchor="middle" x="68.5" y="-62" font-family="Helvetica,sans-Serif" font-size="10.00">_trees/binary_search_tree.c</text>
</a>
</g>
</g>
<!-- Node2 -->
<g id="node2" class="node">
<title>Node2</title>
<g id="a_node2"><a xlink:title=" ">
<polygon fill="#e0e0e0" stroke="#999999" points="59.5,-19 13.5,-19 13.5,0 59.5,0 59.5,-19"/>
<text text-anchor="middle" x="36.5" y="-7" font-family="Helvetica,sans-Serif" font-size="10.00">stdio.h</text>
</a>
</g>
</g>
<!-- Node1&#45;&gt;Node2 -->
<g id="edge1" class="edge">
<title>Node1&#45;&gt;Node2</title>
<path fill="none" stroke="#63b8ff" d="M60.59,-54.54C56.32,-46.74 51.01,-37.03 46.46,-28.71"/>
<polygon fill="#63b8ff" stroke="#63b8ff" points="49.12,-27.27 41.25,-20.18 42.97,-30.63 49.12,-27.27"/>
</g>
<!-- Node3 -->
<g id="node3" class="node">
<title>Node3</title>
<g id="a_node3"><a xlink:title=" ">
<polygon fill="#e0e0e0" stroke="#999999" points="125.5,-19 77.5,-19 77.5,0 125.5,0 125.5,-19"/>
<text text-anchor="middle" x="101.5" y="-7" font-family="Helvetica,sans-Serif" font-size="10.00">stdlib.h</text>
</a>
</g>
</g>
<!-- Node1&#45;&gt;Node3 -->
<g id="edge2" class="edge">
<title>Node1&#45;&gt;Node3</title>
<path fill="none" stroke="#63b8ff" d="M76.66,-54.54C81.06,-46.74 86.54,-37.03 91.23,-28.71"/>
<polygon fill="#63b8ff" stroke="#63b8ff" points="94.74,-30.6 96.61,-20.18 88.64,-27.17 94.74,-30.6"/>
</g>
</g>
</svg>
